<svg width="1280" height="2703" viewBox="0 0 1280 2703" fill="none" xmlns="http://www.w3.org/2000/svg">
<g clip-path="url(#clip0_2170_106)">
<rect width="1280" height="2703" fill="url(#paint0_linear_2170_106)"/>
<line x1="62.5273" y1="-38" x2="62.5273" y2="991" stroke="white" stroke-opacity="0.21" stroke-width="3"/>
<line x1="687.828" y1="-38" x2="687.828" y2="991" stroke="white" stroke-opacity="0.21" stroke-width="3"/>
<line x1="166.746" y1="-38" x2="166.746" y2="991" stroke="white" stroke-opacity="0.21" stroke-width="3"/>
<line x1="792.039" y1="-38" x2="792.039" y2="991" stroke="white" stroke-opacity="0.21" stroke-width="3"/>
<line x1="270.961" y1="-38" x2="270.961" y2="991" stroke="white" stroke-opacity="0.21" stroke-width="3"/>
<line x1="896.254" y1="-38" x2="896.254" y2="991" stroke="white" stroke-opacity="0.21" stroke-width="3"/>
<line x1="375.176" y1="-38" x2="375.176" y2="991" stroke="white" stroke-opacity="0.21" stroke-width="3"/>
<line x1="1000.47" y1="-38" x2="1000.47" y2="991" stroke="white" stroke-opacity="0.21" stroke-width="3"/>
<line x1="583.613" y1="-38" x2="583.613" y2="991" stroke="white" stroke-opacity="0.21" stroke-width="3"/>
<line x1="1208.88" y1="-38" x2="1208.88" y2="991" stroke="white" stroke-opacity="0.21" stroke-width="3"/>
<line x1="687.828" y1="-38" x2="687.828" y2="991" stroke="white" stroke-opacity="0.21" stroke-width="3"/>
<line x1="479.395" y1="-38" x2="479.395" y2="991" stroke="white" stroke-opacity="0.21" stroke-width="3"/>
<line x1="1104.67" y1="-38" x2="1104.67" y2="991" stroke="white" stroke-opacity="0.21" stroke-width="3"/>
<line y1="-1.5" x2="1243.41" y2="-1.5" transform="matrix(-1 0 0 1 1308.01 685.301)" stroke="white" stroke-opacity="0.21" stroke-width="3"/>
<line y1="-1.5" x2="1243.81" y2="-1.5" transform="matrix(-1 0 0 1 1307.61 564.83)" stroke="white" stroke-opacity="0.21" stroke-width="3"/>
<line y1="-1.5" x2="1244.21" y2="-1.5" transform="matrix(-1 0 0 1 1307.21 444.359)" stroke="white" stroke-opacity="0.21" stroke-width="3"/>
<line y1="-1.5" x2="1244.21" y2="-1.5" transform="matrix(-1 0 0 1 1310 991)" stroke="white" stroke-opacity="0.21" stroke-width="3"/>
<line y1="-1.5" x2="1244.21" y2="-1.5" transform="matrix(-1 0 0 1 1306.81 323.889)" stroke="white" stroke-opacity="0.21" stroke-width="3"/>
<line y1="-1.5" x2="1243.81" y2="-1.5" transform="matrix(-1 0 0 1 1308.8 806.248)" stroke="white" stroke-opacity="0.21" stroke-width="3"/>
<line y1="-1.5" x2="1244.21" y2="-1.5" transform="matrix(-1 0 0 1 1305.61 82.4707)" stroke="white" stroke-opacity="0.21" stroke-width="3"/>
<line y1="-1.5" x2="1243.41" y2="-1.5" transform="matrix(-1 0 0 1 1308.01 685.301)" stroke="white" stroke-opacity="0.21" stroke-width="3"/>
<line y1="-1.5" x2="1244.21" y2="-1.5" transform="matrix(-1 0 0 1 1309.61 926.719)" stroke="white" stroke-opacity="0.21" stroke-width="3"/>
<line y1="-1.5" x2="1243.81" y2="-1.5" transform="matrix(-1 0 0 1 1306.01 202.941)" stroke="white" stroke-opacity="0.21" stroke-width="3"/>
<g filter="url(#filter0_f_2170_106)">
<path d="M640.5 -419L950.104 292H330.896L640.5 -419Z" fill="url(#paint1_linear_2170_106)"/>
</g>
<g filter="url(#filter1_f_2170_106)">
<ellipse cx="1196.5" cy="266" rx="340.5" ry="375" fill="url(#paint2_linear_2170_106)" fill-opacity="0.8"/>
</g>
<g filter="url(#filter2_f_2170_106)">
<ellipse cx="53.5" cy="308" rx="340.5" ry="375" fill="url(#paint3_linear_2170_106)" fill-opacity="0.8"/>
</g>
<g filter="url(#filter3_f_2170_106)">
<ellipse cx="146.5" cy="1147" rx="340.5" ry="375" fill="url(#paint4_linear_2170_106)" fill-opacity="0.8"/>
</g>
<circle cx="343.5" cy="562.5" r="4.5" fill="white"/>
<circle cx="862.5" cy="202.5" r="4.5" fill="white"/>
<circle cx="966.5" cy="562.5" r="4.5" fill="white"/>
<circle cx="754.5" cy="687.5" r="4.5" fill="white"/>
<circle cx="650.5" cy="566.5" r="4.5" fill="white"/>
<circle cx="232.5" cy="682.5" r="4.5" fill="white"/>
<circle cx="343.5" cy="207.5" r="4.5" fill="white"/>
<circle cx="236.5" cy="81.5" r="4.5" fill="white"/>
<g filter="url(#filter4_f_2170_106)">
<ellipse cx="1124.5" cy="2036" rx="340.5" ry="375" fill="url(#paint5_linear_2170_106)" fill-opacity="0.8"/>
</g>
<g filter="url(#filter5_f_2170_106)">
<ellipse cx="136.5" cy="2604" rx="340.5" ry="375" fill="url(#paint6_linear_2170_106)" fill-opacity="0.8"/>
</g>
<line x1="868.895" y1="1023" x2="868.894" y2="2757.89" stroke="white"/>
<line x1="1044.46" y1="1023" x2="1044.46" y2="2757.89" stroke="white"/>
<line x1="166.633" y1="1023" x2="166.633" y2="2757.89" stroke="white"/>
<line x1="1220.02" y1="1023" x2="1220.02" y2="2757.89" stroke="white"/>
<line x1="342.195" y1="1023" x2="342.195" y2="2757.89" stroke="white"/>
<line x1="693.336" y1="1023" x2="693.336" y2="2757.89" stroke="white"/>
<line x1="868.895" y1="1023" x2="868.894" y2="2757.89" stroke="white"/>
<line x1="517.77" y1="1023" x2="517.769" y2="2757.89" stroke="white"/>
<line y1="-0.5" x2="2094.68" y2="-0.5" transform="matrix(-1 0 0 1 1915.74 2242.48)" stroke="white"/>
<line y1="-0.5" x2="2095.36" y2="-0.5" transform="matrix(-1 0 0 1 1915.06 2039.37)" stroke="white"/>
<line y1="-0.5" x2="2096.03" y2="-0.5" transform="matrix(-1 0 0 1 1914.39 1836.26)" stroke="white"/>
<line y1="-0.5" x2="2096.03" y2="-0.5" transform="matrix(-1 0 0 1 1913.72 1633.14)" stroke="white"/>
<line y1="-0.5" x2="2095.36" y2="-0.5" transform="matrix(-1 0 0 1 1917.08 2446.39)" stroke="white"/>
<line y1="-0.5" x2="2096.03" y2="-0.5" transform="matrix(-1 0 0 1 1911.7 1226.12)" stroke="white"/>
<line y1="-0.5" x2="2094.68" y2="-0.5" transform="matrix(-1 0 0 1 1915.74 2242.48)" stroke="white"/>
<line y1="-0.5" x2="2096.03" y2="-0.5" transform="matrix(-1 0 0 1 1911.03 1023)" stroke="white"/>
<line y1="-0.5" x2="2096.03" y2="-0.5" transform="matrix(-1 0 0 1 1918.43 2649.51)" stroke="white"/>
<line y1="-0.5" x2="2095.36" y2="-0.5" transform="matrix(-1 0 0 1 1912.38 1429.22)" stroke="white"/>
</g>
<defs>
<filter id="filter0_f_2170_106" x="310.895" y="-439" width="659.211" height="751" filterUnits="userSpaceOnUse" color-interpolation-filters="sRGB">
<feFlood flood-opacity="0" result="BackgroundImageFix"/>
<feBlend mode="normal" in="SourceGraphic" in2="BackgroundImageFix" result="shape"/>
<feGaussianBlur stdDeviation="10" result="effect1_foregroundBlur_2170_106"/>
</filter>
<filter id="filter1_f_2170_106" x="656" y="-309" width="1081" height="1150" filterUnits="userSpaceOnUse" color-interpolation-filters="sRGB">
<feFlood flood-opacity="0" result="BackgroundImageFix"/>
<feBlend mode="normal" in="SourceGraphic" in2="BackgroundImageFix" result="shape"/>
<feGaussianBlur stdDeviation="100" result="effect1_foregroundBlur_2170_106"/>
</filter>
<filter id="filter2_f_2170_106" x="-487" y="-267" width="1081" height="1150" filterUnits="userSpaceOnUse" color-interpolation-filters="sRGB">
<feFlood flood-opacity="0" result="BackgroundImageFix"/>
<feBlend mode="normal" in="SourceGraphic" in2="BackgroundImageFix" result="shape"/>
<feGaussianBlur stdDeviation="100" result="effect1_foregroundBlur_2170_106"/>
</filter>
<filter id="filter3_f_2170_106" x="-394" y="572" width="1081" height="1150" filterUnits="userSpaceOnUse" color-interpolation-filters="sRGB">
<feFlood flood-opacity="0" result="BackgroundImageFix"/>
<feBlend mode="normal" in="SourceGraphic" in2="BackgroundImageFix" result="shape"/>
<feGaussianBlur stdDeviation="100" result="effect1_foregroundBlur_2170_106"/>
</filter>
<filter id="filter4_f_2170_106" x="584" y="1461" width="1081" height="1150" filterUnits="userSpaceOnUse" color-interpolation-filters="sRGB">
<feFlood flood-opacity="0" result="BackgroundImageFix"/>
<feBlend mode="normal" in="SourceGraphic" in2="BackgroundImageFix" result="shape"/>
<feGaussianBlur stdDeviation="100" result="effect1_foregroundBlur_2170_106"/>
</filter>
<filter id="filter5_f_2170_106" x="-404" y="2029" width="1081" height="1150" filterUnits="userSpaceOnUse" color-interpolation-filters="sRGB">
<feFlood flood-opacity="0" result="BackgroundImageFix"/>
<feBlend mode="normal" in="SourceGraphic" in2="BackgroundImageFix" result="shape"/>
<feGaussianBlur stdDeviation="100" result="effect1_foregroundBlur_2170_106"/>
</filter>
<linearGradient id="paint0_linear_2170_106" x1="640" y1="0" x2="640" y2="1842.63" gradientUnits="userSpaceOnUse">
<stop stop-color="#D8DDED"/>
<stop offset="1" stop-color="#E1E8FF"/>
</linearGradient>
<linearGradient id="paint1_linear_2170_106" x1="640.5" y1="-419" x2="640.5" y2="529" gradientUnits="userSpaceOnUse">
<stop stop-color="white"/>
<stop offset="1" stop-color="white" stop-opacity="0.11"/>
</linearGradient>
<linearGradient id="paint2_linear_2170_106" x1="1287.71" y1="266" x2="1608.13" y2="570.839" gradientUnits="userSpaceOnUse">
<stop stop-color="#BAC7FF"/>
<stop offset="1" stop-color="#AEBDFF"/>
</linearGradient>
<linearGradient id="paint3_linear_2170_106" x1="144.705" y1="308" x2="465.128" y2="612.839" gradientUnits="userSpaceOnUse">
<stop stop-color="#BAC7FF"/>
<stop offset="1" stop-color="#AEBDFF"/>
</linearGradient>
<linearGradient id="paint4_linear_2170_106" x1="237.705" y1="1147" x2="558.128" y2="1451.84" gradientUnits="userSpaceOnUse">
<stop stop-color="#BAC7FF"/>
<stop offset="1" stop-color="#AEBDFF"/>
</linearGradient>
<linearGradient id="paint5_linear_2170_106" x1="1215.71" y1="2036" x2="1536.13" y2="2340.84" gradientUnits="userSpaceOnUse">
<stop stop-color="#C1BAFF"/>
<stop offset="1" stop-color="#AEBDFF"/>
</linearGradient>
<linearGradient id="paint6_linear_2170_106" x1="227.705" y1="2604" x2="548.128" y2="2908.84" gradientUnits="userSpaceOnUse">
<stop stop-color="#FFF0E1"/>
<stop offset="1" stop-color="#AEBDFF"/>
</linearGradient>
<clipPath id="clip0_2170_106">
<rect width="1280" height="2703" fill="white"/>
</clipPath>
</defs>
</svg>
