<svg width="113" height="120" viewBox="0 0 113 120" fill="none" xmlns="http://www.w3.org/2000/svg">
<g filter="url(#filter0_i_710_302)">
<path d="M37.3748 1.695C40.3269 -0.565 44.4302 -0.565 47.3823 1.695L82.4264 28.4831C86.8899 31.8943 84.4958 39.0133 78.8881 39.0415H5.86188C0.261312 39.0133 -2.13994 31.8943 2.33062 28.4831L37.3748 1.695ZM42.375 26.6821C43.7798 26.6821 45.1271 26.1241 46.1205 25.1307C47.1138 24.1374 47.6719 22.7901 47.6719 21.3853C47.6719 19.9804 47.1138 18.6332 46.1205 17.6398C45.1271 16.6464 43.7798 16.0884 42.375 16.0884C40.9702 16.0884 39.6229 16.6464 38.6295 17.6398C37.6362 18.6332 37.0781 19.9804 37.0781 21.3853C37.0781 22.7901 37.6362 24.1374 38.6295 25.1307C39.6229 26.1241 40.9702 26.6821 42.375 26.6821ZM10.5938 46.104V67.2915H21.1875V46.104H10.5938ZM28.25 46.104V67.2915H38.8438V46.104H28.25ZM45.9063 46.104V67.2915H56.5V46.104H45.9063ZM63.5625 46.104V67.2915H74.1563V46.104H63.5625ZM0 83.1821C0 78.309 3.955 74.354 8.82813 74.354H75.9219C80.795 74.354 84.75 78.309 84.75 83.1821V84.9478C84.75 85.8843 84.378 86.7825 83.7157 87.4447C83.0535 88.107 82.1553 88.479 81.2188 88.479H3.53125C2.5947 88.479 1.69652 88.107 1.03428 87.4447C0.372042 86.7825 0 85.8843 0 84.9478V83.1821Z" fill="url(#paint0_linear_710_302)"/>
</g>
<defs>
<filter id="filter0_i_710_302" x="0" y="0" width="84.751" height="92.479" filterUnits="userSpaceOnUse" color-interpolation-filters="sRGB">
<feFlood flood-opacity="0" result="BackgroundImageFix"/>
<feBlend mode="normal" in="SourceGraphic" in2="BackgroundImageFix" result="shape"/>
<feColorMatrix in="SourceAlpha" type="matrix" values="0 0 0 0 0 0 0 0 0 0 0 0 0 0 0 0 0 0 127 0" result="hardAlpha"/>
<feOffset dy="4"/>
<feGaussianBlur stdDeviation="2"/>
<feComposite in2="hardAlpha" operator="arithmetic" k2="-1" k3="1"/>
<feColorMatrix type="matrix" values="0 0 0 0 0 0 0 0 0 0 0 0 0 0 0 0 0 0 0.25 0"/>
<feBlend mode="normal" in2="shape" result="effect1_innerShadow_710_302"/>
</filter>
<linearGradient id="paint0_linear_710_302" x1="-7.35441" y1="-130.116" x2="206.137" y2="-103.907" gradientUnits="userSpaceOnUse">
<stop offset="0.192308" stop-color="#47099F"/>
<stop offset="0.798077" stop-color="#F8AD1D"/>
</linearGradient>
</defs>
</svg>
