<svg width="183" height="227" viewBox="0 0 183 227" fill="none" xmlns="http://www.w3.org/2000/svg">
<g filter="url(#filter0_d_2243_1190)">
<mask id="path-1-inside-1_2243_1190" fill="white">
<path d="M128.974 12C137.311 12.0002 144.069 18.7587 144.069 27.0957V77.667H152.372C160.709 77.6672 167.468 84.4257 167.468 92.7627V193.904C167.468 202.241 160.709 209 152.372 209H30.0957C21.7586 209 15 202.241 15 193.904V92.7627C15 84.4256 21.7586 77.667 30.0957 77.667H37.6436V27.0957C37.6436 18.7586 44.4022 12.0001 52.7393 12H128.974Z"/>
</mask>
<path d="M128.974 12C137.311 12.0002 144.069 18.7587 144.069 27.0957V77.667H152.372C160.709 77.6672 167.468 84.4257 167.468 92.7627V193.904C167.468 202.241 160.709 209 152.372 209H30.0957C21.7586 209 15 202.241 15 193.904V92.7627C15 84.4256 21.7586 77.667 30.0957 77.667H37.6436V27.0957C37.6436 18.7586 44.4022 12.0001 52.7393 12H128.974Z" fill="#EEF1FD"/>
<path d="M128.974 12L128.974 9.73563H128.974V12ZM144.069 27.0957L146.334 27.0957L146.334 27.0957L144.069 27.0957ZM144.069 77.667H141.805V79.9314H144.069V77.667ZM152.372 77.667L152.372 75.4026H152.372V77.667ZM167.468 193.904L169.732 193.904V193.904H167.468ZM152.372 209L152.372 211.264L152.372 211.264L152.372 209ZM30.0957 209L30.0957 211.264H30.0957V209ZM15 193.904L12.7356 193.904L12.7356 193.904L15 193.904ZM30.0957 77.667L30.0957 75.4026L30.0957 75.4026L30.0957 77.667ZM37.6436 77.667V79.9314H39.9079V77.667H37.6436ZM37.6436 27.0957L35.3792 27.0957V27.0957H37.6436ZM52.7393 12L52.7393 9.73563L52.7392 9.73563L52.7393 12ZM128.974 12L128.974 14.2644C136.06 14.2646 141.805 20.0094 141.805 27.0957L144.069 27.0957L146.334 27.0957C146.334 17.5081 138.561 9.73591 128.974 9.73563L128.974 12ZM144.069 27.0957H141.805V77.667H144.069H146.334V27.0957H144.069ZM144.069 77.667V79.9314H152.372V77.667V75.4026H144.069V77.667ZM152.372 77.667L152.372 79.9314C159.459 79.9316 165.203 85.6763 165.203 92.7627H167.468H169.732C169.732 83.175 161.96 75.4029 152.372 75.4026L152.372 77.667ZM167.468 92.7627H165.203V193.904H167.468H169.732V92.7627H167.468ZM167.468 193.904L165.203 193.904C165.203 200.991 159.458 206.735 152.372 206.736L152.372 209L152.372 211.264C161.96 211.264 169.732 203.492 169.732 193.904L167.468 193.904ZM152.372 209V206.736H30.0957V209V211.264H152.372V209ZM30.0957 209L30.0957 206.736C23.0092 206.736 17.2644 200.991 17.2644 193.904L15 193.904L12.7356 193.904C12.7357 203.492 20.508 211.264 30.0957 211.264L30.0957 209ZM15 193.904H17.2644V92.7627H15H12.7356V193.904H15ZM15 92.7627H17.2644C17.2644 85.6761 23.0091 79.9314 30.0957 79.9314L30.0957 77.667L30.0957 75.4026C20.508 75.4027 12.7356 83.175 12.7356 92.7627H15ZM30.0957 77.667V79.9314H37.6436V77.667V75.4026H30.0957V77.667ZM37.6436 77.667H39.9079V27.0957H37.6436H35.3792V77.667H37.6436ZM37.6436 27.0957L39.9079 27.0957C39.908 20.0092 45.6528 14.2645 52.7393 14.2644L52.7393 12L52.7392 9.73563C43.1516 9.73576 35.3792 17.5081 35.3792 27.0957L37.6436 27.0957ZM52.7393 12V14.2644H128.974V12V9.73563H52.7393V12Z" fill="white" mask="url(#path-1-inside-1_2243_1190)"/>
</g>
<path d="M52.708 137.633C51.0324 137.633 49.5757 137.278 48.3378 136.568C47.1 135.844 46.1414 134.848 45.4621 133.579C44.7979 132.296 44.4657 130.832 44.4657 129.187C44.4657 127.556 44.8054 126.115 45.4847 124.862C46.164 123.609 47.1 122.635 48.2925 121.941C49.5002 121.231 50.8739 120.876 52.4137 120.876C53.9836 120.876 55.3649 121.231 56.5575 121.941C57.75 122.635 58.686 123.609 59.3653 124.862C60.0597 126.115 60.4069 127.564 60.4069 129.209C60.4069 130.372 60.2107 131.451 59.8182 132.447C59.4408 133.444 58.8596 134.289 58.0746 134.983C57.3047 135.678 56.331 136.161 55.1536 136.433L52.708 137.633ZM52.4137 135.708C53.5308 135.708 54.4969 135.429 55.3121 134.87C56.1423 134.312 56.7915 133.542 57.2594 132.561C57.7274 131.579 57.9614 130.447 57.9614 129.164C57.9614 127.926 57.7274 126.839 57.2594 125.903C56.7915 124.952 56.1423 124.22 55.3121 123.707C54.4818 123.178 53.5157 122.914 52.4137 122.914C51.3117 122.914 50.3456 123.178 49.5153 123.707C48.7001 124.22 48.0585 124.945 47.5906 125.881C47.1377 126.817 46.9113 127.911 46.9113 129.164C46.9113 130.462 47.1452 131.602 47.6132 132.583C48.0812 133.549 48.7228 134.312 49.5379 134.87C50.3682 135.429 51.3268 135.708 52.4137 135.708ZM52.708 137.633L52.4363 136.002L61.0862 135.436V137.406C60.1503 137.406 59.3426 137.414 58.6633 137.429C57.9991 137.459 57.3726 137.489 56.7839 137.519C56.2103 137.55 55.6064 137.572 54.9724 137.587C54.3384 137.618 53.5836 137.633 52.708 137.633ZM67.1029 137.633C66.333 137.633 65.6537 137.474 65.065 137.157C64.4762 136.825 64.0158 136.372 63.6837 135.799C63.3667 135.225 63.2082 134.568 63.2082 133.829V125.858H65.5631V133.285C65.5631 134.085 65.7594 134.681 66.1518 135.074C66.5443 135.466 67.1029 135.663 67.8275 135.663C68.4766 135.663 69.0502 135.512 69.5484 135.21C70.0617 134.908 70.4617 134.493 70.7485 133.964C71.0504 133.421 71.2014 132.794 71.2014 132.085L71.4958 134.848C71.1184 135.693 70.5372 136.372 69.7522 136.885C68.9823 137.384 68.0992 137.633 67.1029 137.633ZM71.292 137.406V134.689H71.2014V125.858H73.5337V137.406H71.292ZM83.8114 137.406C83.736 137.119 83.6831 136.802 83.6529 136.455C83.6378 136.108 83.6303 135.685 83.6303 135.187H83.5171V129.685C83.5171 128.945 83.3284 128.394 82.951 128.032C82.5887 127.654 82.0075 127.466 81.2074 127.466C80.4375 127.466 79.8186 127.617 79.3506 127.919C78.8978 128.22 78.6336 128.651 78.5581 129.209H76.3164C76.4221 128.122 76.9127 127.254 77.7882 126.605C78.6638 125.956 79.8337 125.632 81.298 125.632C82.8076 125.632 83.9398 125.986 84.6945 126.696C85.4493 127.39 85.8267 128.417 85.8267 129.775V135.187C85.8267 135.534 85.8494 135.889 85.8947 136.251C85.9399 136.614 86.0079 136.999 86.0985 137.406H83.8114ZM79.8262 137.633C78.6487 137.633 77.7127 137.346 77.0183 136.772C76.3239 136.183 75.9767 135.391 75.9767 134.395C75.9767 133.368 76.339 132.561 77.0636 131.972C77.8033 131.368 78.86 130.96 80.2337 130.749L84.0379 130.138V131.791L80.596 132.334C79.8262 132.455 79.245 132.659 78.8525 132.945C78.4751 133.232 78.2864 133.647 78.2864 134.191C78.2864 134.719 78.46 135.119 78.8072 135.391C79.1695 135.648 79.6903 135.776 80.3696 135.776C81.2753 135.776 82.0226 135.557 82.6113 135.119C83.2152 134.681 83.5171 134.13 83.5171 133.466L83.8114 135.142C83.5397 135.942 83.0567 136.561 82.3622 136.999C81.6678 137.421 80.8225 137.633 79.8262 137.633ZM89.0172 137.406V121.103H91.3721V137.406H89.0172ZM94.6781 137.406V125.858H97.033V137.406H94.6781ZM94.5649 123.594V120.944H97.1689V123.594H94.5649ZM101.179 137.406V124.522C101.179 123.345 101.511 122.446 102.175 121.827C102.839 121.193 103.836 120.876 105.164 120.876C105.466 120.876 105.715 120.891 105.911 120.922C106.108 120.952 106.281 120.997 106.432 121.058V122.937C106.327 122.907 106.183 122.877 106.002 122.846C105.836 122.816 105.647 122.801 105.436 122.801C104.772 122.801 104.289 122.967 103.987 123.299C103.685 123.616 103.534 124.069 103.534 124.658V137.406H101.179ZM108.538 137.406V125.858H110.87V137.406H108.538ZM98.9599 127.828V125.858H109.489V127.828H98.9599ZM108.448 123.684V121.103H110.961V123.684H108.448ZM118.81 137.633C117.647 137.633 116.621 137.376 115.73 136.863C114.854 136.35 114.168 135.64 113.669 134.734C113.171 133.829 112.922 132.787 112.922 131.609C112.922 130.417 113.164 129.375 113.647 128.485C114.145 127.579 114.839 126.877 115.73 126.379C116.621 125.881 117.64 125.632 118.787 125.632C119.904 125.632 120.87 125.873 121.685 126.356C122.516 126.824 123.15 127.481 123.587 128.326C124.04 129.171 124.267 130.175 124.267 131.338C124.267 131.519 124.259 131.692 124.244 131.859C124.244 132.01 124.229 132.168 124.199 132.334H114.507V130.568H122.546L121.957 131.27C121.957 130.032 121.678 129.088 121.119 128.439C120.561 127.79 119.783 127.466 118.787 127.466C117.715 127.466 116.862 127.836 116.228 128.575C115.609 129.3 115.3 130.311 115.3 131.609C115.3 132.923 115.609 133.949 116.228 134.689C116.862 135.429 117.738 135.799 118.855 135.799C119.534 135.799 120.123 135.663 120.621 135.391C121.119 135.104 121.489 134.689 121.731 134.146H123.95C123.572 135.232 122.931 136.085 122.025 136.704C121.134 137.323 120.062 137.633 118.81 137.633ZM135.075 137.406V134.757L135.301 134.825C135.06 135.685 134.562 136.372 133.807 136.885C133.052 137.384 132.146 137.633 131.089 137.633C130.048 137.633 129.135 137.384 128.35 136.885C127.58 136.387 126.976 135.693 126.538 134.802C126.115 133.912 125.904 132.87 125.904 131.677C125.904 130.47 126.123 129.413 126.561 128.507C126.999 127.602 127.61 126.9 128.395 126.401C129.18 125.903 130.101 125.654 131.157 125.654C132.259 125.654 133.165 125.918 133.875 126.447C134.599 126.96 135.075 127.685 135.301 128.621L134.984 128.666V121.103H137.316V137.406H135.075ZM131.678 135.663C132.72 135.663 133.543 135.308 134.146 134.598C134.75 133.874 135.052 132.878 135.052 131.609C135.052 130.372 134.743 129.398 134.124 128.688C133.52 127.964 132.697 127.602 131.656 127.602C130.629 127.602 129.814 127.964 129.21 128.688C128.621 129.398 128.327 130.394 128.327 131.677C128.327 132.93 128.621 133.912 129.21 134.621C129.814 135.315 130.637 135.663 131.678 135.663ZM51.8348 165.406V149.103H54.235V165.406H51.8348ZM53.0122 165.406V163.436H63.1566V165.406H53.0122ZM53.0122 157.956V155.986H62.3414V157.956H53.0122ZM53.0122 151.073V149.103H62.9528V151.073H53.0122ZM73.4911 165.406L69.8002 160.13L65.113 153.858H67.7849L71.1588 158.681L76.1631 165.406H73.4911ZM69.9587 158.681L73.4006 153.858H75.9819L71.1362 160.289L69.9587 158.681ZM70.9098 160.357L67.1962 165.406H64.5922L69.7776 158.704L70.9098 160.357ZM84.6394 165.61C83.5525 165.61 82.6468 165.353 81.9222 164.84C81.2127 164.312 80.7447 163.58 80.5183 162.644L80.8353 162.598V170.048H78.4804V153.858H80.7221V156.507L80.4956 156.439C80.7372 155.564 81.2504 154.877 82.0354 154.379C82.8204 153.881 83.7412 153.632 84.7979 153.632C85.8396 153.632 86.7378 153.881 87.4925 154.379C88.2624 154.877 88.8512 155.571 89.2587 156.462C89.6814 157.353 89.8928 158.394 89.8928 159.587C89.8928 160.794 89.6739 161.851 89.2361 162.757C88.7983 163.663 88.1869 164.365 87.402 164.863C86.617 165.361 85.6961 165.61 84.6394 165.61ZM84.1413 163.663C85.1678 163.663 85.983 163.3 86.5868 162.576C87.1906 161.851 87.4925 160.855 87.4925 159.587C87.4925 158.334 87.1906 157.36 86.5868 156.666C85.983 155.956 85.1602 155.602 84.1186 155.602C83.0921 155.602 82.2694 155.964 81.6505 156.688C81.0466 157.398 80.7447 158.387 80.7447 159.655C80.7447 160.893 81.0466 161.874 81.6505 162.598C82.2694 163.308 83.0997 163.663 84.1413 163.663ZM97.4152 165.633C96.2529 165.633 95.2264 165.376 94.3357 164.863C93.4602 164.35 92.7733 163.64 92.2751 162.734C91.777 161.829 91.5279 160.787 91.5279 159.609C91.5279 158.417 91.7694 157.375 92.2525 156.485C92.7507 155.579 93.4451 154.877 94.3357 154.379C95.2264 153.881 96.2453 153.632 97.3926 153.632C98.5097 153.632 99.4758 153.873 100.291 154.356C101.121 154.824 101.755 155.481 102.193 156.326C102.646 157.171 102.872 158.175 102.872 159.338C102.872 159.519 102.865 159.692 102.85 159.859C102.85 160.01 102.835 160.168 102.804 160.334H93.113V158.568H101.151L100.563 159.27C100.563 158.032 100.283 157.088 99.7249 156.439C99.1664 155.79 98.3889 155.466 97.3926 155.466C96.3208 155.466 95.4679 155.836 94.8339 156.575C94.2149 157.3 93.9055 158.311 93.9055 159.609C93.9055 160.923 94.2149 161.949 94.8339 162.689C95.4679 163.429 96.3434 163.799 97.4605 163.799C98.1398 163.799 98.7286 163.663 99.2267 163.391C99.7249 163.104 100.095 162.689 100.336 162.146H102.555C102.178 163.232 101.536 164.085 100.631 164.704C99.74 165.323 98.6682 165.633 97.4152 165.633ZM105.281 165.406V153.858H107.523V156.734H107.636V165.406H105.281ZM107.636 159.383L107.342 156.643C107.614 155.662 108.082 154.915 108.746 154.401C109.41 153.888 110.202 153.632 111.123 153.632C111.471 153.632 111.712 153.662 111.848 153.722V155.941C111.772 155.911 111.667 155.896 111.531 155.896C111.395 155.881 111.229 155.873 111.033 155.873C109.901 155.873 109.048 156.168 108.474 156.756C107.915 157.345 107.636 158.221 107.636 159.383ZM119.129 165.633C117.785 165.633 116.796 165.323 116.162 164.704C115.543 164.07 115.234 163.142 115.234 161.919V151.209L117.566 150.326V161.942C117.566 162.546 117.725 162.991 118.042 163.278C118.359 163.565 118.872 163.708 119.581 163.708C119.853 163.708 120.095 163.685 120.306 163.64C120.517 163.595 120.699 163.542 120.85 163.482V165.384C120.683 165.459 120.449 165.519 120.148 165.565C119.846 165.61 119.506 165.633 119.129 165.633ZM112.924 155.737V153.858H120.85V155.737H112.924ZM127.182 165.633C125.673 165.633 124.473 165.301 123.582 164.636C122.691 163.972 122.186 163.036 122.065 161.829H124.239C124.344 162.493 124.646 163.006 125.144 163.368C125.658 163.716 126.352 163.889 127.228 163.889C127.997 163.889 128.586 163.753 128.994 163.482C129.401 163.21 129.605 162.825 129.605 162.327C129.605 161.964 129.484 161.662 129.243 161.421C129.016 161.164 128.564 160.953 127.884 160.787L126.027 160.357C124.865 160.07 123.997 159.647 123.423 159.089C122.865 158.515 122.586 157.813 122.586 156.983C122.586 155.941 122.971 155.126 123.74 154.537C124.525 153.933 125.597 153.632 126.956 153.632C128.299 153.632 129.379 153.933 130.194 154.537C131.024 155.141 131.492 155.986 131.598 157.073H129.424C129.333 156.53 129.069 156.115 128.632 155.828C128.209 155.526 127.628 155.375 126.888 155.375C126.194 155.375 125.658 155.503 125.28 155.76C124.918 156.002 124.737 156.341 124.737 156.779C124.737 157.141 124.873 157.443 125.144 157.685C125.431 157.926 125.899 158.13 126.548 158.296L128.45 158.772C129.552 159.043 130.383 159.489 130.941 160.108C131.5 160.711 131.779 161.444 131.779 162.304C131.779 163.346 131.371 164.161 130.556 164.75C129.756 165.338 128.632 165.633 127.182 165.633Z" fill="#304695"/>
<g filter="url(#filter1_i_2243_1190)">
<path d="M96.8463 32.0315L109.177 44.3653C109.9 45.0877 110.395 46.0062 110.6 47.007C110.806 48.0079 110.713 49.047 110.334 49.9957L104.16 65.4305C103.814 66.2945 103.243 67.0503 102.506 67.6194C101.77 68.1885 100.894 68.5503 99.9708 68.6673L86.713 70.3248C86.372 70.3649 86.0152 70.4136 85.6428 70.471L84.4838 70.659L83.8782 70.7686L81.991 71.134L80.6989 71.4081L78.7542 71.8467L76.2613 72.4418L72.2101 73.4755L70.5239 73.9297C70.0983 74.0467 69.6502 74.055 69.2206 73.9538C68.791 73.8527 68.3937 73.6453 68.0651 73.3507C67.7365 73.0561 67.487 72.6837 67.3397 72.2677C67.1924 71.8517 67.1519 71.4053 67.2218 70.9696L67.3106 70.5885L68.0806 67.6858L68.7697 64.9502L69.3649 62.4574L69.8008 60.5127L70.0749 59.218L70.443 57.3333L70.6518 56.1404L70.8188 55.0232L72.5416 41.2407C72.6589 40.317 73.0211 39.4414 73.5907 38.7047C74.1603 37.9681 74.9165 37.3972 75.781 37.0512L91.2158 30.8778C92.1645 30.4984 93.2037 30.4058 94.2045 30.6113C95.2054 30.8169 96.1239 31.309 96.8463 32.0315ZM87.162 46.6624C86.5025 47.3223 86.0319 48.1468 85.7992 49.0503C85.5664 49.9537 85.58 50.903 85.8386 51.7994C85.6483 51.9109 85.4729 52.0459 85.3165 52.2014L74.7239 62.7941C74.6545 62.8645 74.6065 62.9532 74.5855 63.0499L74.3532 64.0549L73.8886 65.9943L73.6641 66.9105C73.6411 66.9987 73.6416 67.0912 73.6654 67.1791C73.6893 67.267 73.7357 67.3471 73.8001 67.4115C73.8645 67.4758 73.9446 67.5223 74.0324 67.5461C74.1203 67.57 74.2129 67.5704 74.301 67.5475L76.1726 67.0907L78.1643 66.626C78.2603 66.6039 78.3481 66.555 78.4175 66.4851L89.0101 55.8924C89.1654 55.7369 89.3005 55.5624 89.4121 55.373C90.2966 55.6272 91.2326 55.6432 92.1252 55.4192C93.0179 55.1951 93.8354 54.7391 94.4951 54.0974C95.1547 53.4556 95.633 52.6508 95.8814 51.7647C96.1298 50.8785 96.1395 49.9424 95.9096 49.0513C95.6796 48.1601 95.2182 47.3456 94.5721 46.6902C93.9259 46.0349 93.118 45.562 92.2302 45.3195C91.3424 45.0769 90.4063 45.0734 89.5167 45.3092C88.6271 45.5451 87.8157 46.0119 87.1646 46.6624H87.162ZM99.3208 27.1268C99.77 26.677 100.368 26.4065 101.002 26.3661C101.637 26.3257 102.264 26.5182 102.766 26.9075L103.012 27.1268L114.087 38.1997C114.561 38.6684 114.837 39.3001 114.859 39.9657C114.882 40.6313 114.649 41.2803 114.209 41.78C113.769 42.2796 113.154 42.5921 112.491 42.6534C111.828 42.7148 111.166 42.5204 110.642 42.11L110.394 41.8907L99.3208 30.8178C98.8315 30.3282 98.5566 29.6644 98.5566 28.9723C98.5566 28.2801 98.8315 27.6163 99.3208 27.1268Z" fill="#6A82EE"/>
</g>
<defs>
<filter id="filter0_d_2243_1190" x="0.432568" y="0.451725" width="181.603" height="226.135" filterUnits="userSpaceOnUse" color-interpolation-filters="sRGB">
<feFlood flood-opacity="0" result="BackgroundImageFix"/>
<feColorMatrix in="SourceAlpha" type="matrix" values="0 0 0 0 0 0 0 0 0 0 0 0 0 0 0 0 0 0 127 0" result="hardAlpha"/>
<feOffset dy="3.01916"/>
<feGaussianBlur stdDeviation="7.28372"/>
<feComposite in2="hardAlpha" operator="out"/>
<feColorMatrix type="matrix" values="0 0 0 0 0.278827 0 0 0 0 0.404746 0 0 0 0 1 0 0 0 1 0"/>
<feBlend mode="normal" in2="BackgroundImageFix" result="effect1_dropShadow_2243_1190"/>
<feBlend mode="normal" in="SourceGraphic" in2="effect1_dropShadow_2243_1190" result="shape"/>
</filter>
<filter id="filter1_i_2243_1190" x="59.5322" y="12" width="62.6475" height="65.6666" filterUnits="userSpaceOnUse" color-interpolation-filters="sRGB">
<feFlood flood-opacity="0" result="BackgroundImageFix"/>
<feBlend mode="normal" in="SourceGraphic" in2="BackgroundImageFix" result="shape"/>
<feColorMatrix in="SourceAlpha" type="matrix" values="0 0 0 0 0 0 0 0 0 0 0 0 0 0 0 0 0 0 127 0" result="hardAlpha"/>
<feOffset dy="3.01916"/>
<feGaussianBlur stdDeviation="1.50958"/>
<feComposite in2="hardAlpha" operator="arithmetic" k2="-1" k3="1"/>
<feColorMatrix type="matrix" values="0 0 0 0 0 0 0 0 0 0 0 0 0 0 0 0 0 0 0.25 0"/>
<feBlend mode="normal" in2="shape" result="effect1_innerShadow_2243_1190"/>
</filter>
</defs>
</svg>
