<svg width="183" height="227" viewBox="0 0 183 227" fill="none" xmlns="http://www.w3.org/2000/svg">
<g filter="url(#filter0_d_2243_1199)">
<mask id="path-1-inside-1_2243_1199" fill="white">
<path d="M129.292 12C137.629 12.0002 144.388 18.7587 144.388 27.0957V77.667H152.69C161.027 77.6671 167.786 84.4256 167.786 92.7627V193.904C167.786 202.241 161.027 209 152.69 209H30.4141C22.077 209 15.3184 202.241 15.3184 193.904V92.7627C15.3184 84.4256 22.077 77.6671 30.4141 77.667H37.9619V27.0957C37.962 18.7587 44.7206 12.0002 53.0576 12H129.292Z"/>
</mask>
<path d="M129.292 12C137.629 12.0002 144.388 18.7587 144.388 27.0957V77.667H152.69C161.027 77.6671 167.786 84.4256 167.786 92.7627V193.904C167.786 202.241 161.027 209 152.69 209H30.4141C22.077 209 15.3184 202.241 15.3184 193.904V92.7627C15.3184 84.4256 22.077 77.6671 30.4141 77.667H37.9619V27.0957C37.962 18.7587 44.7206 12.0002 53.0576 12H129.292Z" fill="#EEF1FD"/>
<path d="M129.292 12L129.292 9.73563H129.292V12ZM144.388 27.0957L146.652 27.0957L146.652 27.0957L144.388 27.0957ZM144.388 77.667H142.123V79.9314H144.388V77.667ZM152.69 77.667L152.69 75.4026H152.69V77.667ZM167.786 193.904L170.051 193.904V193.904H167.786ZM152.69 209L152.69 211.264L152.69 211.264L152.69 209ZM30.4141 209L30.414 211.264H30.4141V209ZM15.3184 193.904L13.054 193.904L13.054 193.904L15.3184 193.904ZM30.4141 77.667L30.4141 75.4026L30.414 75.4026L30.4141 77.667ZM37.9619 77.667V79.9314H40.2263V77.667H37.9619ZM37.9619 27.0957L35.6975 27.0957V27.0957H37.9619ZM53.0576 12L53.0576 9.73563L53.0576 9.73563L53.0576 12ZM129.292 12L129.292 14.2644C136.378 14.2645 142.123 20.0093 142.123 27.0957L144.388 27.0957L146.652 27.0957C146.652 17.5081 138.88 9.73583 129.292 9.73563L129.292 12ZM144.388 27.0957H142.123V77.667H144.388H146.652V27.0957H144.388ZM144.388 77.667V79.9314H152.69V77.667V75.4026H144.388V77.667ZM152.69 77.667L152.69 79.9314C159.777 79.9315 165.522 85.6762 165.522 92.7627H167.786H170.051C170.051 83.175 162.278 75.4028 152.69 75.4026L152.69 77.667ZM167.786 92.7627H165.522V193.904H167.786H170.051V92.7627H167.786ZM167.786 193.904L165.522 193.904C165.522 200.991 159.777 206.736 152.69 206.736L152.69 209L152.69 211.264C162.278 211.264 170.05 203.492 170.051 193.904L167.786 193.904ZM152.69 209V206.736H30.4141V209V211.264H152.69V209ZM30.4141 209L30.4141 206.736C23.3276 206.736 17.5828 200.991 17.5827 193.904L15.3184 193.904L13.054 193.904C13.054 203.492 20.8265 211.264 30.414 211.264L30.4141 209ZM15.3184 193.904H17.5827V92.7627H15.3184H13.054V193.904H15.3184ZM15.3184 92.7627H17.5827C17.5827 85.6762 23.3275 79.9315 30.4141 79.9314L30.4141 77.667L30.414 75.4026C20.8264 75.4028 13.054 83.175 13.054 92.7627H15.3184ZM30.4141 77.667V79.9314H37.9619V77.667V75.4026H30.4141V77.667ZM37.9619 77.667H40.2263V27.0957H37.9619H35.6975V77.667H37.9619ZM37.9619 27.0957L40.2263 27.0957C40.2263 20.0093 45.9712 14.2645 53.0577 14.2644L53.0576 12L53.0576 9.73563C43.4701 9.73585 35.6976 17.5081 35.6975 27.0957L37.9619 27.0957ZM53.0576 12V14.2644H129.292V12V9.73563H53.0576V12Z" fill="white" mask="url(#path-1-inside-1_2243_1199)"/>
</g>
<path d="M52.9052 137.61C50.9428 137.61 49.3728 137.142 48.1953 136.206C47.0179 135.27 46.331 133.934 46.1348 132.198H48.4671C48.6029 133.33 49.0558 134.191 49.8257 134.78C50.5956 135.368 51.6372 135.663 52.9505 135.663C54.0525 135.663 54.8828 135.459 55.4413 135.051C56.0149 134.644 56.3018 134.063 56.3018 133.308C56.3018 132.628 56.1131 132.093 55.7357 131.7C55.3583 131.292 54.762 130.96 53.9468 130.704L51.1164 129.798C49.6672 129.33 48.6029 128.741 47.9236 128.032C47.2443 127.322 46.9046 126.424 46.9046 125.337C46.9046 124.416 47.1311 123.624 47.5839 122.96C48.0519 122.295 48.701 121.782 49.5313 121.42C50.3767 121.042 51.3579 120.854 52.475 120.854C54.1959 120.854 55.5696 121.291 56.5961 122.167C57.6377 123.028 58.234 124.228 58.385 125.767H56.0527C55.8715 124.741 55.479 123.994 54.8752 123.526C54.2714 123.043 53.4411 122.801 52.3844 122.801C51.3881 122.801 50.6107 122.997 50.0521 123.39C49.4936 123.782 49.2143 124.333 49.2143 125.043C49.2143 125.616 49.3954 126.1 49.7577 126.492C50.1351 126.869 50.7541 127.194 51.6145 127.466L54.5808 128.417C55.9546 128.854 56.966 129.451 57.6151 130.206C58.2793 130.96 58.6114 131.911 58.6114 133.059C58.6114 134.508 58.1133 135.632 57.1169 136.433C56.1206 137.218 54.7167 137.61 52.9052 137.61ZM66.0633 137.633C64.8858 137.633 63.8518 137.376 62.9611 136.863C62.0705 136.334 61.3761 135.617 60.8779 134.712C60.3797 133.791 60.1307 132.749 60.1307 131.587C60.1307 130.409 60.3797 129.375 60.8779 128.485C61.3912 127.594 62.0856 126.9 62.9611 126.401C63.8518 125.888 64.8858 125.632 66.0633 125.632C67.2559 125.632 68.2975 125.888 69.1881 126.401C70.0788 126.9 70.7656 127.594 71.2487 128.485C71.7469 129.375 71.996 130.409 71.996 131.587C71.996 132.749 71.7469 133.791 71.2487 134.712C70.7656 135.617 70.0788 136.334 69.1881 136.863C68.2975 137.376 67.2559 137.633 66.0633 137.633ZM66.0633 135.708C66.7728 135.708 67.3842 135.534 67.8975 135.187C68.4258 134.84 68.8409 134.357 69.1429 133.738C69.4448 133.119 69.5957 132.394 69.5957 131.564C69.5957 130.326 69.2636 129.353 68.5994 128.643C67.9503 127.919 67.1049 127.556 66.0633 127.556C65.0368 127.556 64.1914 127.919 63.5272 128.643C62.8781 129.368 62.5535 130.341 62.5535 131.564C62.5535 132.394 62.697 133.119 62.9838 133.738C63.2857 134.357 63.7008 134.84 64.2292 135.187C64.7726 135.534 65.384 135.708 66.0633 135.708ZM75.1884 137.406V124.522C75.1884 123.345 75.5205 122.446 76.1847 121.827C76.8489 121.193 77.8452 120.876 79.1737 120.876C79.4756 120.876 79.7246 120.891 79.9209 120.922C80.1171 120.952 80.2907 120.997 80.4417 121.058V122.869C80.336 122.839 80.1926 122.809 80.0115 122.778C79.8454 122.748 79.6567 122.733 79.4454 122.733C78.7812 122.733 78.2981 122.899 77.9962 123.231C77.6943 123.548 77.5433 124.001 77.5433 124.59V137.406H75.1884ZM72.9693 127.737V125.858H80.1926V127.737H72.9693ZM87.5987 137.633C86.2552 137.633 85.2664 137.323 84.6324 136.704C84.0134 136.07 83.704 135.142 83.704 133.919V123.209L86.0363 122.326V133.942C86.0363 134.546 86.1948 134.991 86.5118 135.278C86.8288 135.565 87.3421 135.708 88.0516 135.708C88.3233 135.708 88.5648 135.685 88.7762 135.64C88.9875 135.595 89.1686 135.542 89.3196 135.482V137.384C89.1536 137.459 88.9196 137.519 88.6177 137.565C88.3157 137.61 87.9761 137.633 87.5987 137.633ZM81.3943 127.737V125.858H89.3196V127.737H81.3943ZM93.9299 137.406L90.3975 125.858H92.8204L95.2206 135.142H94.8809L97.802 125.858H99.8399L102.761 135.142H102.444L104.822 125.858H107.131L103.599 137.406H101.538L98.6171 128.281H98.9568L95.9905 137.406H93.9299ZM116.066 137.406C115.991 137.119 115.938 136.802 115.908 136.455C115.893 136.108 115.885 135.685 115.885 135.187H115.772V129.685C115.772 128.945 115.583 128.394 115.206 128.032C114.844 127.654 114.262 127.466 113.462 127.466C112.692 127.466 112.074 127.617 111.606 127.919C111.153 128.22 110.889 128.651 110.813 129.209H108.571C108.677 128.122 109.168 127.254 110.043 126.605C110.919 125.956 112.089 125.632 113.553 125.632C115.063 125.632 116.195 125.986 116.949 126.696C117.704 127.39 118.082 128.417 118.082 129.775V135.187C118.082 135.534 118.104 135.889 118.15 136.251C118.195 136.614 118.263 136.999 118.353 137.406H116.066ZM112.081 137.633C110.904 137.633 109.968 137.346 109.273 136.772C108.579 136.183 108.232 135.391 108.232 134.395C108.232 133.368 108.594 132.561 109.319 131.972C110.058 131.368 111.115 130.96 112.489 130.749L116.293 130.138V131.791L112.851 132.334C112.081 132.455 111.5 132.659 111.107 132.945C110.73 133.232 110.541 133.647 110.541 134.191C110.541 134.719 110.715 135.119 111.062 135.391C111.424 135.648 111.945 135.776 112.625 135.776C113.53 135.776 114.278 135.557 114.866 135.119C115.47 134.681 115.772 134.13 115.772 133.466L116.066 135.142C115.795 135.942 115.312 136.561 114.617 136.999C113.923 137.421 113.077 137.633 112.081 137.633ZM121.272 137.406V125.858H123.514V128.734H123.627V137.406H121.272ZM123.627 131.383L123.333 128.643C123.604 127.662 124.072 126.915 124.737 126.401C125.401 125.888 126.193 125.632 127.114 125.632C127.461 125.632 127.703 125.662 127.839 125.722V127.941C127.763 127.911 127.658 127.896 127.522 127.896C127.386 127.881 127.22 127.873 127.024 127.873C125.891 127.873 125.039 128.168 124.465 128.756C123.906 129.345 123.627 130.221 123.627 131.383ZM134.59 137.633C133.428 137.633 132.401 137.376 131.511 136.863C130.635 136.35 129.948 135.64 129.45 134.734C128.952 133.829 128.703 132.787 128.703 131.609C128.703 130.417 128.945 129.375 129.428 128.485C129.926 127.579 130.62 126.877 131.511 126.379C132.401 125.881 133.42 125.632 134.568 125.632C135.685 125.632 136.651 125.873 137.466 126.356C138.296 126.824 138.93 127.481 139.368 128.326C139.821 129.171 140.047 130.175 140.047 131.338C140.047 131.519 140.04 131.692 140.025 131.859C140.025 132.01 140.01 132.168 139.98 132.334H130.288V130.568H138.327L137.738 131.27C137.738 130.032 137.459 129.088 136.9 128.439C136.341 127.79 135.564 127.466 134.568 127.466C133.496 127.466 132.643 127.836 132.009 128.575C131.39 129.3 131.081 130.311 131.081 131.609C131.081 132.923 131.39 133.949 132.009 134.689C132.643 135.429 133.519 135.799 134.636 135.799C135.315 135.799 135.904 135.663 136.402 135.391C136.9 135.104 137.27 134.689 137.511 134.146H139.73C139.353 135.232 138.711 136.085 137.806 136.704C136.915 137.323 135.843 137.633 134.59 137.633ZM35.3748 165.406V149.103H42.2812C43.4586 149.103 44.4625 149.299 45.2928 149.692C46.123 150.084 46.7571 150.643 47.1948 151.367C47.6477 152.092 47.8742 152.952 47.8742 153.949C47.8742 154.96 47.6477 155.836 47.1948 156.575C46.7571 157.3 46.1155 157.866 45.2701 158.273C44.4399 158.681 43.4435 158.885 42.2812 158.885H37.209V156.892H42.168C43.2398 156.892 44.0549 156.636 44.6135 156.122C45.1871 155.609 45.4739 154.892 45.4739 153.971C45.4739 153.035 45.1947 152.318 44.6361 151.82C44.0776 151.322 43.2548 151.073 42.168 151.073H37.7751V165.406H35.3748ZM50.3227 165.406V153.858H52.5644V156.734H52.6776V165.406H50.3227ZM52.6776 159.383L52.3833 156.643C52.655 155.662 53.123 154.915 53.7872 154.401C54.4514 153.888 55.2439 153.632 56.1648 153.632C56.512 153.632 56.7535 153.662 56.8893 153.722V155.941C56.8139 155.911 56.7082 155.896 56.5723 155.896C56.4365 155.881 56.2704 155.873 56.0742 155.873C54.942 155.873 54.0891 156.168 53.5154 156.756C52.9569 157.345 52.6776 158.221 52.6776 159.383ZM63.9515 165.633C62.7741 165.633 61.74 165.376 60.8493 164.863C59.9587 164.334 59.2643 163.617 58.7661 162.712C58.268 161.791 58.0189 160.749 58.0189 159.587C58.0189 158.409 58.268 157.375 58.7661 156.485C59.2794 155.594 59.9738 154.9 60.8493 154.401C61.74 153.888 62.7741 153.632 63.9515 153.632C65.1441 153.632 66.1857 153.888 67.0764 154.401C67.967 154.9 68.6539 155.594 69.1369 156.485C69.6351 157.375 69.8842 158.409 69.8842 159.587C69.8842 160.749 69.6351 161.791 69.1369 162.712C68.6539 163.617 67.967 164.334 67.0764 164.863C66.1857 165.376 65.1441 165.633 63.9515 165.633ZM63.9515 163.708C64.661 163.708 65.2724 163.534 65.7857 163.187C66.314 162.84 66.7291 162.357 67.0311 161.738C67.333 161.119 67.4839 160.394 67.4839 159.564C67.4839 158.326 67.1518 157.353 66.4876 156.643C65.8385 155.919 64.9931 155.556 63.9515 155.556C62.925 155.556 62.0796 155.919 61.4154 156.643C60.7663 157.368 60.4418 158.341 60.4418 159.564C60.4418 160.394 60.5852 161.119 60.872 161.738C61.1739 162.357 61.589 162.84 62.1174 163.187C62.6608 163.534 63.2722 163.708 63.9515 163.708ZM73.0766 165.406V152.522C73.0766 151.345 73.4087 150.446 74.0729 149.827C74.7371 149.193 75.7334 148.876 77.0619 148.876C77.3638 148.876 77.6129 148.891 77.8091 148.922C78.0053 148.952 78.1789 148.997 78.3299 149.058V150.937C78.2242 150.907 78.0808 150.877 77.8997 150.846C77.7336 150.816 77.5449 150.801 77.3336 150.801C76.6694 150.801 76.1863 150.967 75.8844 151.299C75.5825 151.616 75.4315 152.069 75.4315 152.658V165.406H73.0766ZM80.4358 165.406V153.858H82.7681V165.406H80.4358ZM70.8575 155.828V153.858H81.3868V155.828H70.8575ZM80.3452 151.684V149.103H82.8586V151.684H80.3452ZM90.526 165.633C89.424 165.633 88.4428 165.376 87.5823 164.863C86.7219 164.334 86.0426 163.617 85.5444 162.712C85.0613 161.806 84.8198 160.772 84.8198 159.609C84.8198 158.447 85.0613 157.421 85.5444 156.53C86.0426 155.624 86.7219 154.915 87.5823 154.401C88.4428 153.888 89.4165 153.632 90.5034 153.632C91.4242 153.632 92.2469 153.805 92.9715 154.152C93.6961 154.5 94.2924 154.983 94.7604 155.602C95.2283 156.22 95.5303 156.953 95.6661 157.798H93.447C93.2961 157.119 92.964 156.575 92.4507 156.168C91.9526 155.76 91.3185 155.556 90.5486 155.556C89.8844 155.556 89.3032 155.722 88.8051 156.054C88.3069 156.387 87.922 156.854 87.6503 157.458C87.3785 158.062 87.2427 158.779 87.2427 159.609C87.2427 160.425 87.3785 161.142 87.6503 161.761C87.922 162.38 88.3069 162.863 88.8051 163.21C89.3032 163.542 89.892 163.708 90.5713 163.708C91.311 163.708 91.9375 163.512 92.4507 163.119C92.9791 162.712 93.3187 162.168 93.4697 161.489H95.6888C95.5378 162.319 95.2208 163.044 94.7377 163.663C94.2698 164.282 93.6735 164.765 92.9489 165.112C92.2243 165.459 91.4167 165.633 90.526 165.633ZM97.8877 165.406V153.858H100.243V165.406H97.8877ZM97.7745 151.594V148.944H100.378V151.594H97.7745ZM108.486 165.633C107.324 165.633 106.297 165.376 105.406 164.863C104.531 164.35 103.844 163.64 103.346 162.734C102.848 161.829 102.599 160.787 102.599 159.609C102.599 158.417 102.84 157.375 103.323 156.485C103.821 155.579 104.516 154.877 105.406 154.379C106.297 153.881 107.316 153.632 108.463 153.632C109.58 153.632 110.547 153.873 111.362 154.356C112.192 154.824 112.826 155.481 113.264 156.326C113.717 157.171 113.943 158.175 113.943 159.338C113.943 159.519 113.936 159.692 113.92 159.859C113.92 160.01 113.905 160.168 113.875 160.334H104.184V158.568H112.222L111.633 159.27C111.633 158.032 111.354 157.088 110.796 156.439C110.237 155.79 109.46 155.466 108.463 155.466C107.392 155.466 106.539 155.836 105.905 156.575C105.286 157.3 104.976 158.311 104.976 159.609C104.976 160.923 105.286 161.949 105.905 162.689C106.539 163.429 107.414 163.799 108.531 163.799C109.211 163.799 109.799 163.663 110.297 163.391C110.796 163.104 111.165 162.689 111.407 162.146H113.626C113.249 163.232 112.607 164.085 111.701 164.704C110.811 165.323 109.739 165.633 108.486 165.633ZM116.352 165.406V153.858H118.594V156.575H118.707V165.406H116.352ZM124.549 165.406V157.979C124.549 157.179 124.345 156.583 123.938 156.19C123.545 155.798 122.956 155.602 122.171 155.602C121.492 155.602 120.888 155.752 120.36 156.054C119.847 156.356 119.439 156.771 119.137 157.3C118.85 157.828 118.707 158.455 118.707 159.179L118.413 156.417C118.79 155.556 119.371 154.877 120.156 154.379C120.941 153.881 121.854 153.632 122.896 153.632C124.134 153.632 125.108 153.979 125.817 154.673C126.527 155.368 126.881 156.288 126.881 157.436V165.406H124.549ZM134.885 165.633C133.783 165.633 132.801 165.376 131.941 164.863C131.08 164.334 130.401 163.617 129.903 162.712C129.42 161.806 129.178 160.772 129.178 159.609C129.178 158.447 129.42 157.421 129.903 156.53C130.401 155.624 131.08 154.915 131.941 154.401C132.801 153.888 133.775 153.632 134.862 153.632C135.783 153.632 136.606 153.805 137.33 154.152C138.055 154.5 138.651 154.983 139.119 155.602C139.587 156.22 139.889 156.953 140.025 157.798H137.806C137.655 157.119 137.323 156.575 136.809 156.168C136.311 155.76 135.677 155.556 134.907 155.556C134.243 155.556 133.662 155.722 133.164 156.054C132.666 156.387 132.281 156.854 132.009 157.458C131.737 158.062 131.601 158.779 131.601 159.609C131.601 160.425 131.737 161.142 132.009 161.761C132.281 162.38 132.666 162.863 133.164 163.21C133.662 163.542 134.251 163.708 134.93 163.708C135.67 163.708 136.296 163.512 136.809 163.119C137.338 162.712 137.677 162.168 137.828 161.489H140.047C139.896 162.319 139.579 163.044 139.096 163.663C138.628 164.282 138.032 164.765 137.307 165.112C136.583 165.459 135.775 165.633 134.885 165.633ZM142.93 170.048L145.715 163.685L146.191 162.938L149.7 153.858H152.146L145.353 170.048H142.93ZM145.602 165.406L140.665 153.858H143.224L147.413 164.251L145.602 165.406Z" fill="#304695"/>
<g filter="url(#filter1_i_2243_1199)">
<path d="M95.8918 63.5143C93.3192 62.2708 91.1098 60.3863 89.4761 58.0421H69.9459V29.7375H112.403V35.0682C114.312 36.4114 115.918 38.1387 117.12 40.1394V29.7375C117.12 28.4863 116.623 27.2864 115.739 26.4017C114.854 25.517 113.654 25.02 112.403 25.02H69.9459C68.6948 25.02 67.4949 25.517 66.6102 26.4017C65.7255 27.2864 65.2285 28.4863 65.2285 29.7375V58.0421C65.2285 59.2932 65.7255 60.4931 66.6102 61.3778C67.4949 62.2625 68.6948 62.7595 69.9459 62.7595H86.457V67.4769H81.7395V72.1943H100.609V67.4769H95.8918V63.5143Z" fill="#6A82EE"/>
<path d="M102.969 34.4551C100.17 34.4551 97.4334 35.2851 95.1061 36.8402C92.7788 38.3952 90.9648 40.6055 89.8937 43.1915C88.8225 45.7775 88.5423 48.6231 89.0883 51.3684C89.6344 54.1136 90.9823 56.6353 92.9615 58.6146C94.9408 60.5938 97.4625 61.9417 100.208 62.4877C102.953 63.0338 105.799 62.7536 108.385 61.6824C110.971 60.6112 113.181 58.7973 114.736 56.47C116.291 54.1426 117.121 51.4064 117.121 48.6074C117.121 44.854 115.63 41.2543 112.976 38.6002C110.322 35.9461 106.722 34.4551 102.969 34.4551ZM102.969 52.1455C102.269 52.1455 101.585 51.9379 101.003 51.5492C100.421 51.1604 99.9677 50.6078 99.7 49.9613C99.4322 49.3148 99.3621 48.6035 99.4986 47.9171C99.6351 47.2308 99.9721 46.6004 100.467 46.1056C100.962 45.6108 101.592 45.2738 102.278 45.1373C102.965 45.0008 103.676 45.0708 104.323 45.3386C104.969 45.6064 105.522 46.0599 105.911 46.6417C106.299 47.2236 106.507 47.9076 106.507 48.6074C106.507 49.5457 106.134 50.4457 105.471 51.1092C104.807 51.7727 103.907 52.1455 102.969 52.1455Z" fill="#6A82EE"/>
</g>
<defs>
<filter id="filter0_d_2243_1199" x="0.750927" y="0.451725" width="181.603" height="226.135" filterUnits="userSpaceOnUse" color-interpolation-filters="sRGB">
<feFlood flood-opacity="0" result="BackgroundImageFix"/>
<feColorMatrix in="SourceAlpha" type="matrix" values="0 0 0 0 0 0 0 0 0 0 0 0 0 0 0 0 0 0 127 0" result="hardAlpha"/>
<feOffset dy="3.01916"/>
<feGaussianBlur stdDeviation="7.28372"/>
<feComposite in2="hardAlpha" operator="out"/>
<feColorMatrix type="matrix" values="0 0 0 0 0.278827 0 0 0 0 0.404746 0 0 0 0 1 0 0 0 1 0"/>
<feBlend mode="normal" in2="BackgroundImageFix" result="effect1_dropShadow_2243_1199"/>
<feBlend mode="normal" in="SourceGraphic" in2="effect1_dropShadow_2243_1199" result="shape"/>
</filter>
<filter id="filter1_i_2243_1199" x="62.8701" y="20.3027" width="56.6094" height="59.6283" filterUnits="userSpaceOnUse" color-interpolation-filters="sRGB">
<feFlood flood-opacity="0" result="BackgroundImageFix"/>
<feBlend mode="normal" in="SourceGraphic" in2="BackgroundImageFix" result="shape"/>
<feColorMatrix in="SourceAlpha" type="matrix" values="0 0 0 0 0 0 0 0 0 0 0 0 0 0 0 0 0 0 127 0" result="hardAlpha"/>
<feOffset dy="3.01916"/>
<feGaussianBlur stdDeviation="1.50958"/>
<feComposite in2="hardAlpha" operator="arithmetic" k2="-1" k3="1"/>
<feColorMatrix type="matrix" values="0 0 0 0 0 0 0 0 0 0 0 0 0 0 0 0 0 0 0.25 0"/>
<feBlend mode="normal" in2="shape" result="effect1_innerShadow_2243_1199"/>
</filter>
</defs>
</svg>
