<svg width="182" height="227" viewBox="0 0 182 227" fill="none" xmlns="http://www.w3.org/2000/svg">
<g filter="url(#filter0_d_2243_1207)">
<mask id="path-1-inside-1_2243_1207" fill="white">
<path d="M128.609 12C136.947 12 143.705 18.7586 143.705 27.0957V77.667H152.008C160.345 77.667 167.104 84.4255 167.104 92.7627V193.904C167.103 202.241 160.345 209 152.008 209H29.7324C21.3953 209 14.6368 202.241 14.6367 193.904V92.7627C14.6367 84.4255 21.3952 77.667 29.7324 77.667H37.2803V27.0957C37.2803 18.7586 44.0388 12 52.376 12H128.609Z"/>
</mask>
<path d="M128.609 12C136.947 12 143.705 18.7586 143.705 27.0957V77.667H152.008C160.345 77.667 167.104 84.4255 167.104 92.7627V193.904C167.103 202.241 160.345 209 152.008 209H29.7324C21.3953 209 14.6368 202.241 14.6367 193.904V92.7627C14.6367 84.4255 21.3952 77.667 29.7324 77.667H37.2803V27.0957C37.2803 18.7586 44.0388 12 52.376 12H128.609Z" fill="#EEF1FD"/>
<path d="M143.705 27.0957L145.969 27.0957L145.969 27.0957L143.705 27.0957ZM143.705 77.667H141.441V79.9314H143.705V77.667ZM167.104 193.904L169.368 193.904V193.904H167.104ZM14.6367 193.904L12.3724 193.904L12.3724 193.904L14.6367 193.904ZM37.2803 77.667V79.9314H39.5446V77.667H37.2803ZM37.2803 27.0957L35.0159 27.0957V27.0957H37.2803ZM128.609 12V14.2644C135.696 14.2644 141.441 20.0091 141.441 27.0957L143.705 27.0957L145.969 27.0957C145.969 17.508 138.197 9.73563 128.609 9.73563V12ZM143.705 27.0957H141.441V77.667H143.705H145.969V27.0957H143.705ZM143.705 77.667V79.9314H152.008V77.667V75.4026H143.705V77.667ZM152.008 77.667V79.9314C159.094 79.9314 164.839 85.6761 164.839 92.7627H167.104H169.368C169.368 83.1749 161.596 75.4026 152.008 75.4026V77.667ZM167.104 92.7627H164.839V193.904H167.104H169.368V92.7627H167.104ZM167.104 193.904L164.839 193.904C164.839 200.991 159.094 206.736 152.008 206.736V209V211.264C161.596 211.264 169.368 203.492 169.368 193.904L167.104 193.904ZM152.008 209V206.736H29.7324V209V211.264H152.008V209ZM29.7324 209V206.736C22.6459 206.736 16.9011 200.991 16.9011 193.904L14.6367 193.904L12.3724 193.904C12.3724 203.492 20.1447 211.264 29.7324 211.264V209ZM14.6367 193.904H16.9011V92.7627H14.6367H12.3724V193.904H14.6367ZM14.6367 92.7627H16.9011C16.9011 85.6761 22.6458 79.9314 29.7324 79.9314V77.667V75.4026C20.1447 75.4026 12.3724 83.1749 12.3724 92.7627H14.6367ZM29.7324 77.667V79.9314H37.2803V77.667V75.4026H29.7324V77.667ZM37.2803 77.667H39.5446V27.0957H37.2803H35.0159V77.667H37.2803ZM37.2803 27.0957L39.5446 27.0957C39.5447 20.0091 45.2894 14.2644 52.376 14.2644V12V9.73563C42.7882 9.73563 35.016 17.508 35.0159 27.0957L37.2803 27.0957ZM52.376 12V14.2644H128.609V12V9.73563H52.376V12Z" fill="white" mask="url(#path-1-inside-1_2243_1207)"/>
</g>
<path d="M46.6909 137.406V123.073H41.1885V121.103H54.5936V123.073H49.0912V137.406H46.6909ZM59.4597 137.633C58.2973 137.633 57.2708 137.376 56.3801 136.863C55.5046 136.35 54.8177 135.64 54.3196 134.734C53.8214 133.829 53.5723 132.787 53.5723 131.609C53.5723 130.417 53.8139 129.375 54.2969 128.485C54.7951 127.579 55.4895 126.877 56.3801 126.379C57.2708 125.881 58.2898 125.632 59.437 125.632C60.5541 125.632 61.5203 125.873 62.3354 126.356C63.1657 126.824 63.7997 127.481 64.2375 128.326C64.6904 129.171 64.9168 130.175 64.9168 131.338C64.9168 131.519 64.9093 131.692 64.8942 131.859C64.8942 132.01 64.8791 132.168 64.8489 132.334H55.1574V130.568H63.1959L62.6072 131.27C62.6072 130.032 62.3279 129.088 61.7693 128.439C61.2108 127.79 60.4334 127.466 59.437 127.466C58.3652 127.466 57.5123 127.836 56.8783 128.575C56.2594 129.3 55.9499 130.311 55.9499 131.609C55.9499 132.923 56.2594 133.949 56.8783 134.689C57.5123 135.429 58.3879 135.799 59.505 135.799C60.1843 135.799 60.773 135.663 61.2712 135.391C61.7693 135.104 62.1392 134.689 62.3807 134.146H64.5998C64.2224 135.232 63.5808 136.085 62.6751 136.704C61.7844 137.323 60.7126 137.633 59.4597 137.633ZM72.1925 137.633C71.0905 137.633 70.1093 137.376 69.2488 136.863C68.3884 136.334 67.7091 135.617 67.2109 134.712C66.7278 133.806 66.4863 132.772 66.4863 131.609C66.4863 130.447 66.7278 129.421 67.2109 128.53C67.7091 127.624 68.3884 126.915 69.2488 126.401C70.1093 125.888 71.083 125.632 72.1699 125.632C73.0907 125.632 73.9134 125.805 74.638 126.152C75.3626 126.5 75.9589 126.983 76.4269 127.602C76.8948 128.22 77.1968 128.953 77.3326 129.798H75.1135C74.9626 129.119 74.6305 128.575 74.1172 128.168C73.6191 127.76 72.985 127.556 72.2152 127.556C71.5509 127.556 70.9697 127.722 70.4716 128.054C69.9734 128.387 69.5885 128.854 69.3168 129.458C69.045 130.062 68.9092 130.779 68.9092 131.609C68.9092 132.425 69.045 133.142 69.3168 133.761C69.5885 134.38 69.9734 134.863 70.4716 135.21C70.9697 135.542 71.5585 135.708 72.2378 135.708C72.9775 135.708 73.604 135.512 74.1172 135.119C74.6456 134.712 74.9852 134.168 75.1362 133.489H77.3553C77.2043 134.319 76.8873 135.044 76.4042 135.663C75.9363 136.282 75.34 136.765 74.6154 137.112C73.8908 137.459 73.0832 137.633 72.1925 137.633ZM79.6869 137.406V121.103H82.0418V137.406H79.6869ZM87.8839 137.406V129.979C87.8839 129.179 87.6801 128.583 87.2725 128.19C86.88 127.798 86.2913 127.602 85.5063 127.602C84.827 127.602 84.2231 127.752 83.6948 128.054C83.1815 128.356 82.7739 128.771 82.472 129.3C82.1852 129.828 82.0418 130.455 82.0418 131.179L81.7474 128.417C82.1248 127.556 82.706 126.877 83.491 126.379C84.276 125.881 85.1893 125.632 86.2309 125.632C87.4687 125.632 88.4424 125.979 89.1519 126.673C89.8614 127.368 90.2162 128.288 90.2162 129.436V137.406H87.8839ZM93.419 137.406V125.858H95.6607V128.575H95.774V137.406H93.419ZM101.616 137.406V129.979C101.616 129.179 101.412 128.583 101.005 128.19C100.612 127.798 100.023 127.602 99.2384 127.602C98.5591 127.602 97.9553 127.752 97.4269 128.054C96.9137 128.356 96.5061 128.771 96.2042 129.3C95.9174 129.828 95.774 130.455 95.774 131.179L95.4796 128.417C95.857 127.556 96.4382 126.877 97.2231 126.379C98.0081 125.881 98.9214 125.632 99.963 125.632C101.201 125.632 102.175 125.979 102.884 126.673C103.594 127.368 103.948 128.288 103.948 129.436V137.406H101.616ZM107.107 137.406V125.858H109.462V137.406H107.107ZM106.994 123.594V120.944H109.598V123.594H106.994ZM117.524 137.633C116.422 137.633 115.441 137.376 114.58 136.863C113.72 136.334 113.041 135.617 112.542 134.712C112.059 133.806 111.818 132.772 111.818 131.609C111.818 130.447 112.059 129.421 112.542 128.53C113.041 127.624 113.72 126.915 114.58 126.401C115.441 125.888 116.415 125.632 117.501 125.632C118.422 125.632 119.245 125.805 119.97 126.152C120.694 126.5 121.29 126.983 121.758 127.602C122.226 128.22 122.528 128.953 122.664 129.798H120.445C120.294 129.119 119.962 128.575 119.449 128.168C118.951 127.76 118.317 127.556 117.547 127.556C116.883 127.556 116.301 127.722 115.803 128.054C115.305 128.387 114.92 128.854 114.648 129.458C114.377 130.062 114.241 130.779 114.241 131.609C114.241 132.425 114.377 133.142 114.648 133.761C114.92 134.38 115.305 134.863 115.803 135.21C116.301 135.542 116.89 135.708 117.569 135.708C118.309 135.708 118.936 135.512 119.449 135.119C119.977 134.712 120.317 134.168 120.468 133.489H122.687C122.536 134.319 122.219 135.044 121.736 135.663C121.268 136.282 120.672 136.765 119.947 137.112C119.222 137.459 118.415 137.633 117.524 137.633ZM132.063 137.406C131.988 137.119 131.935 136.802 131.905 136.455C131.89 136.108 131.882 135.685 131.882 135.187H131.769V129.685C131.769 128.945 131.58 128.394 131.203 128.032C130.841 127.654 130.259 127.466 129.459 127.466C128.689 127.466 128.07 127.617 127.602 127.919C127.15 128.22 126.885 128.651 126.81 129.209H124.568C124.674 128.122 125.165 127.254 126.04 126.605C126.916 125.956 128.086 125.632 129.55 125.632C131.059 125.632 132.192 125.986 132.946 126.696C133.701 127.39 134.079 128.417 134.079 129.775V135.187C134.079 135.534 134.101 135.889 134.147 136.251C134.192 136.614 134.26 136.999 134.35 137.406H132.063ZM128.078 137.633C126.901 137.633 125.965 137.346 125.27 136.772C124.576 136.183 124.229 135.391 124.229 134.395C124.229 133.368 124.591 132.561 125.315 131.972C126.055 131.368 127.112 130.96 128.486 130.749L132.29 130.138V131.791L128.848 132.334C128.078 132.455 127.497 132.659 127.104 132.945C126.727 133.232 126.538 133.647 126.538 134.191C126.538 134.719 126.712 135.119 127.059 135.391C127.421 135.648 127.942 135.776 128.621 135.776C129.527 135.776 130.274 135.557 130.863 135.119C131.467 134.681 131.769 134.13 131.769 133.466L132.063 135.142C131.792 135.942 131.308 136.561 130.614 136.999C129.92 137.421 129.074 137.633 128.078 137.633ZM137.269 137.406V121.103H139.624V137.406H137.269ZM45.9955 165.406V163.549H50.8638C51.7847 163.549 52.5017 163.3 53.015 162.802C53.5433 162.304 53.8075 161.625 53.8075 160.764C53.8075 159.859 53.5282 159.134 52.9697 158.591C52.4263 158.047 51.679 157.775 50.728 157.775H45.9955V155.964H50.5015C51.4224 155.964 52.1319 155.745 52.63 155.307C53.1433 154.854 53.3999 154.213 53.3999 153.382C53.3999 152.597 53.1584 152.001 52.6753 151.594C52.2074 151.171 51.513 150.96 50.5921 150.96H45.9955V149.103H50.9544C52.4338 149.103 53.6113 149.465 54.4868 150.19C55.3624 150.899 55.8002 151.873 55.8002 153.111C55.8002 153.896 55.619 154.59 55.2567 155.194C54.9095 155.783 54.4264 156.243 53.8075 156.575C53.1886 156.892 52.4866 157.051 51.7017 157.051L51.8149 156.575C52.6602 156.575 53.415 156.771 54.0792 157.164C54.7435 157.541 55.2718 158.062 55.6643 158.726C56.0568 159.391 56.253 160.16 56.253 161.036C56.253 161.896 56.0417 162.659 55.619 163.323C55.2114 163.987 54.6302 164.501 53.8755 164.863C53.1207 165.225 52.2451 165.406 51.2488 165.406H45.9955ZM44.2292 165.406V149.103H46.6295V165.406H44.2292ZM58.6906 165.406V153.858H60.9323V156.734H61.0455V165.406H58.6906ZM61.0455 159.383L60.7512 156.643C61.0229 155.662 61.4909 154.915 62.1551 154.401C62.8193 153.888 63.6118 153.632 64.5327 153.632C64.8799 153.632 65.1214 153.662 65.2573 153.722V155.941C65.1818 155.911 65.0761 155.896 64.9402 155.896C64.8044 155.881 64.6383 155.873 64.4421 155.873C63.3099 155.873 62.457 156.168 61.8834 156.756C61.3248 157.345 61.0455 158.221 61.0455 159.383ZM67.1599 165.406V153.858H69.5148V165.406H67.1599ZM67.0466 151.594V148.944H69.6507V151.594H67.0466ZM72.8208 165.406V149.103H75.1757V165.406H72.8208ZM78.4817 165.406V149.103H80.8366V165.406H78.4817ZM84.1426 165.406V153.858H86.4976V165.406H84.1426ZM84.0294 151.594V148.944H86.6334V151.594H84.0294ZM96.8041 165.406C96.7287 165.119 96.6758 164.802 96.6456 164.455C96.6305 164.108 96.623 163.685 96.623 163.187H96.5098V157.685C96.5098 156.945 96.3211 156.394 95.9437 156.032C95.5814 155.654 95.0002 155.466 94.2001 155.466C93.4302 155.466 92.8113 155.617 92.3433 155.919C91.8905 156.22 91.6263 156.651 91.5508 157.209H89.3091C89.4148 156.122 89.9054 155.254 90.7809 154.605C91.6565 153.956 92.8264 153.632 94.2907 153.632C95.8003 153.632 96.9325 153.986 97.6873 154.696C98.442 155.39 98.8194 156.417 98.8194 157.775V163.187C98.8194 163.534 98.8421 163.889 98.8874 164.251C98.9327 164.614 99.0006 164.999 99.0912 165.406H96.8041ZM92.8189 165.633C91.6414 165.633 90.7055 165.346 90.011 164.772C89.3166 164.183 88.9694 163.391 88.9694 162.395C88.9694 161.368 89.3317 160.561 90.0563 159.972C90.796 159.368 91.8527 158.96 93.2264 158.749L97.0306 158.138V159.791L93.5887 160.334C92.8189 160.455 92.2377 160.659 91.8452 160.945C91.4678 161.232 91.2791 161.647 91.2791 162.191C91.2791 162.719 91.4527 163.119 91.7999 163.391C92.1622 163.648 92.683 163.776 93.3623 163.776C94.2681 163.776 95.0153 163.557 95.604 163.119C96.2079 162.681 96.5098 162.13 96.5098 161.466L96.8041 163.142C96.5324 163.942 96.0494 164.561 95.355 164.999C94.6605 165.421 93.8152 165.633 92.8189 165.633ZM102.01 165.406V153.858H104.252V156.575H104.365V165.406H102.01ZM110.207 165.406V157.979C110.207 157.179 110.003 156.583 109.596 156.19C109.203 155.798 108.614 155.602 107.829 155.602C107.15 155.602 106.546 155.752 106.018 156.054C105.505 156.356 105.097 156.771 104.795 157.3C104.508 157.828 104.365 158.455 104.365 159.179L104.07 156.417C104.448 155.556 105.029 154.877 105.814 154.379C106.599 153.881 107.512 153.632 108.554 153.632C109.792 153.632 110.765 153.979 111.475 154.673C112.184 155.368 112.539 156.288 112.539 157.436V165.406H110.207ZM120.543 165.633C119.441 165.633 118.459 165.376 117.599 164.863C116.738 164.334 116.059 163.617 115.561 162.712C115.078 161.806 114.836 160.772 114.836 159.609C114.836 158.447 115.078 157.421 115.561 156.53C116.059 155.624 116.738 154.915 117.599 154.401C118.459 153.888 119.433 153.632 120.52 153.632C121.441 153.632 122.263 153.805 122.988 154.152C123.713 154.5 124.309 154.983 124.777 155.602C125.245 156.22 125.547 156.953 125.683 157.798H123.464C123.313 157.119 122.98 156.575 122.467 156.168C121.969 155.76 121.335 155.556 120.565 155.556C119.901 155.556 119.32 155.722 118.822 156.054C118.323 156.387 117.938 156.854 117.667 157.458C117.395 158.062 117.259 158.779 117.259 159.609C117.259 160.425 117.395 161.142 117.667 161.761C117.938 162.38 118.323 162.863 118.822 163.21C119.32 163.542 119.908 163.708 120.588 163.708C121.327 163.708 121.954 163.512 122.467 163.119C122.996 162.712 123.335 162.168 123.486 161.489H125.705C125.554 162.319 125.237 163.044 124.754 163.663C124.286 164.282 123.69 164.765 122.965 165.112C122.241 165.459 121.433 165.633 120.543 165.633ZM132.974 165.633C131.812 165.633 130.785 165.376 129.895 164.863C129.019 164.35 128.332 163.64 127.834 162.734C127.336 161.829 127.087 160.787 127.087 159.609C127.087 158.417 127.328 157.375 127.811 156.485C128.31 155.579 129.004 154.877 129.895 154.379C130.785 153.881 131.804 153.632 132.952 153.632C134.069 153.632 135.035 153.873 135.85 154.356C136.68 154.824 137.314 155.481 137.752 156.326C138.205 157.171 138.431 158.175 138.431 159.338C138.431 159.519 138.424 159.692 138.409 159.859C138.409 160.01 138.394 160.168 138.363 160.334H128.672V158.568H136.71L136.122 159.27C136.122 158.032 135.842 157.088 135.284 156.439C134.725 155.79 133.948 155.466 132.952 155.466C131.88 155.466 131.027 155.836 130.393 156.575C129.774 157.3 129.464 158.311 129.464 159.609C129.464 160.923 129.774 161.949 130.393 162.689C131.027 163.429 131.902 163.799 133.02 163.799C133.699 163.799 134.288 163.663 134.786 163.391C135.284 163.104 135.654 162.689 135.895 162.146H138.114C137.737 163.232 137.095 164.085 136.19 164.704C135.299 165.323 134.227 165.633 132.974 165.633Z" fill="#304695"/>
<g filter="url(#filter1_i_2243_1207)">
<path d="M79.3128 28.4637C77.9911 28.4634 76.693 28.8145 75.5516 29.4811C74.4102 30.1477 73.4667 31.1058 72.8176 32.2573C72.1686 33.4087 71.8374 34.712 71.8581 36.0336C71.8787 37.3552 72.2504 38.6476 72.9351 39.7782C71.2345 40.1068 69.7014 41.0172 68.599 42.353C67.4965 43.6888 66.8936 45.3668 66.8936 47.0988C66.8936 48.8308 67.4965 50.5088 68.599 51.8447C69.7014 53.1805 71.2345 54.0909 72.9351 54.4195M79.3128 28.4637C79.3128 26.8164 79.9672 25.2365 81.1321 24.0717C82.2969 22.9068 83.8768 22.2524 85.5241 22.2524C87.1714 22.2524 88.7513 22.9068 89.9162 24.0717C91.081 25.2365 91.7354 26.8164 91.7354 28.4637V32.1905M79.3128 28.4637C79.3128 30.4961 80.2892 32.2998 81.7973 33.4328M72.9351 54.4195C72.251 55.55 71.8798 56.8421 71.8595 58.1633C71.8392 59.4846 72.1705 60.7875 72.8195 61.9385C73.4685 63.0896 74.4118 64.0474 75.5528 64.7139C76.6938 65.3804 77.9914 65.7316 79.3128 65.7314C79.3128 67.3788 79.9672 68.9586 81.1321 70.1235C82.2969 71.2883 83.8768 71.9427 85.5241 71.9427C87.1714 71.9427 88.7513 71.2883 89.9162 70.1235C91.081 68.9586 91.7354 67.3788 91.7354 65.7314V62.0047M72.9351 54.4195C73.8271 52.9443 75.203 51.8214 76.8283 51.2467M97.9467 54.5511V59.5202M105.4 54.5511V59.5202M97.9467 34.675V39.644M105.4 34.675V39.644M94.2199 43.3708H89.2509M94.2199 50.8244H89.2509M114.096 43.3708H109.127M114.096 50.8244H109.127M104.158 39.644H99.1889C96.846 39.644 95.6758 39.644 94.9479 40.372C94.2199 41.1 94.2199 42.2702 94.2199 44.6131V49.5821C94.2199 51.925 94.2199 53.0952 94.9479 53.8232C95.6758 54.5511 96.846 54.5511 99.1889 54.5511H104.158C106.501 54.5511 107.671 54.5511 108.399 53.8232C109.127 53.0952 109.127 51.925 109.127 49.5821V44.6131C109.127 42.2702 109.127 41.1 108.399 40.372C107.671 39.644 106.501 39.644 104.158 39.644Z" stroke="#6A82EE" stroke-width="3.77395" stroke-linecap="round" stroke-linejoin="round"/>
</g>
<defs>
<filter id="filter0_d_2243_1207" x="0.0692863" y="0.451725" width="181.602" height="226.135" filterUnits="userSpaceOnUse" color-interpolation-filters="sRGB">
<feFlood flood-opacity="0" result="BackgroundImageFix"/>
<feColorMatrix in="SourceAlpha" type="matrix" values="0 0 0 0 0 0 0 0 0 0 0 0 0 0 0 0 0 0 127 0" result="hardAlpha"/>
<feOffset dy="3.01916"/>
<feGaussianBlur stdDeviation="7.28372"/>
<feComposite in2="hardAlpha" operator="out"/>
<feColorMatrix type="matrix" values="0 0 0 0 0.278827 0 0 0 0 0.404746 0 0 0 0 1 0 0 0 1 0"/>
<feBlend mode="normal" in2="BackgroundImageFix" result="effect1_dropShadow_2243_1207"/>
<feBlend mode="normal" in="SourceGraphic" in2="effect1_dropShadow_2243_1207" result="shape"/>
</filter>
<filter id="filter1_i_2243_1207" x="65.0068" y="20.3655" width="50.9766" height="56.4833" filterUnits="userSpaceOnUse" color-interpolation-filters="sRGB">
<feFlood flood-opacity="0" result="BackgroundImageFix"/>
<feBlend mode="normal" in="SourceGraphic" in2="BackgroundImageFix" result="shape"/>
<feColorMatrix in="SourceAlpha" type="matrix" values="0 0 0 0 0 0 0 0 0 0 0 0 0 0 0 0 0 0 127 0" result="hardAlpha"/>
<feOffset dy="3.01916"/>
<feGaussianBlur stdDeviation="1.50958"/>
<feComposite in2="hardAlpha" operator="arithmetic" k2="-1" k3="1"/>
<feColorMatrix type="matrix" values="0 0 0 0 0 0 0 0 0 0 0 0 0 0 0 0 0 0 0.25 0"/>
<feBlend mode="normal" in2="shape" result="effect1_innerShadow_2243_1207"/>
</filter>
</defs>
</svg>
