<svg width="182" height="227" viewBox="0 0 182 227" fill="none" xmlns="http://www.w3.org/2000/svg">
<g filter="url(#filter0_d_2243_1214)">
<mask id="path-1-inside-1_2243_1214" fill="white">
<path d="M128.927 12C137.264 12 144.023 18.7586 144.023 27.0957V77.667H152.325C160.662 77.667 167.422 84.4255 167.422 92.7627V193.904C167.422 202.241 160.662 209 152.325 209H30.0498C21.7127 209 14.9542 202.241 14.9541 193.904V92.7627C14.9541 84.4255 21.7126 77.667 30.0498 77.667H37.5977V27.0957C37.5977 18.7586 44.3563 12.0001 52.6934 12H128.927Z"/>
</mask>
<path d="M128.927 12C137.264 12 144.023 18.7586 144.023 27.0957V77.667H152.325C160.662 77.667 167.422 84.4255 167.422 92.7627V193.904C167.422 202.241 160.662 209 152.325 209H30.0498C21.7127 209 14.9542 202.241 14.9541 193.904V92.7627C14.9541 84.4255 21.7126 77.667 30.0498 77.667H37.5977V27.0957C37.5977 18.7586 44.3563 12.0001 52.6934 12H128.927Z" fill="#EEF1FD"/>
<path d="M144.023 27.0957L146.288 27.0957L146.288 27.0957L144.023 27.0957ZM144.023 77.667H141.759V79.9314H144.023V77.667ZM167.422 193.904L169.686 193.904V193.904H167.422ZM30.0498 209L30.0498 211.264H30.0498V209ZM14.9541 193.904L12.6897 193.904L12.6897 193.904L14.9541 193.904ZM30.0498 77.667L30.0498 75.4026L30.0498 75.4026L30.0498 77.667ZM37.5977 77.667V79.9314H39.862V77.667H37.5977ZM37.5977 27.0957L35.3333 27.0957V27.0957H37.5977ZM52.6934 12L52.6934 9.73563L52.6933 9.73563L52.6934 12ZM128.927 12V14.2644C136.014 14.2644 141.759 20.0093 141.759 27.0957L144.023 27.0957L146.288 27.0957C146.288 17.5078 138.514 9.73563 128.927 9.73563V12ZM144.023 27.0957H141.759V77.667H144.023H146.288V27.0957H144.023ZM144.023 77.667V79.9314H152.325V77.667V75.4026H144.023V77.667ZM152.325 77.667V79.9314C159.412 79.9314 165.158 85.6763 165.158 92.7627H167.422H169.686C169.686 83.1748 161.913 75.4026 152.325 75.4026V77.667ZM167.422 92.7627H165.158V193.904H167.422H169.686V92.7627H167.422ZM167.422 193.904L165.158 193.904C165.157 200.991 159.412 206.736 152.325 206.736V209V211.264C161.913 211.264 169.686 203.492 169.686 193.904L167.422 193.904ZM152.325 209V206.736H30.0498V209V211.264H152.325V209ZM30.0498 209L30.0498 206.736C22.9633 206.736 17.2185 200.991 17.2185 193.904L14.9541 193.904L12.6897 193.904C12.6898 203.492 20.4621 211.264 30.0498 211.264L30.0498 209ZM14.9541 193.904H17.2185V92.7627H14.9541H12.6897V193.904H14.9541ZM14.9541 92.7627H17.2185C17.2185 85.6761 22.9632 79.9314 30.0498 79.9314L30.0498 77.667L30.0498 75.4026C20.4621 75.4026 12.6897 83.1749 12.6897 92.7627H14.9541ZM30.0498 77.667V79.9314H37.5977V77.667V75.4026H30.0498V77.667ZM37.5977 77.667H39.862V27.0957H37.5977H35.3333V77.667H37.5977ZM37.5977 27.0957L39.862 27.0957C39.8621 20.0092 45.6069 14.2644 52.6934 14.2644L52.6934 12L52.6933 9.73563C43.1057 9.73571 35.3333 17.508 35.3333 27.0957L37.5977 27.0957ZM52.6934 12V14.2644H128.927V12V9.73563H52.6934V12Z" fill="white" mask="url(#path-1-inside-1_2243_1214)"/>
</g>
<path d="M52.5186 137.406V121.103H56.2322L61.6666 136.818H60.4439L65.8331 121.103H69.5919V137.406H67.2143V122.076H67.5766L62.3233 137.406H59.6514L54.398 122.212H54.7603V137.406H52.5186ZM76.6872 137.633C75.9173 137.633 75.238 137.474 74.6493 137.157C74.0605 136.825 73.6001 136.372 73.268 135.799C72.951 135.225 72.7925 134.568 72.7925 133.829V125.858H75.1474V133.285C75.1474 134.085 75.3437 134.681 75.7361 135.074C76.1286 135.466 76.6872 135.663 77.4118 135.663C78.0609 135.663 78.6345 135.512 79.1327 135.21C79.646 134.908 80.046 134.493 80.3328 133.964C80.6347 133.421 80.7857 132.794 80.7857 132.085L81.0801 134.848C80.7027 135.693 80.1215 136.372 79.3365 136.885C78.5666 137.384 77.6835 137.633 76.6872 137.633ZM80.8763 137.406V134.689H80.7857V125.858H83.118V137.406H80.8763ZM91.2204 137.633C89.8768 137.633 88.8881 137.323 88.254 136.704C87.6351 136.07 87.3256 135.142 87.3256 133.919V123.209L89.6579 122.326V133.942C89.6579 134.546 89.8164 134.991 90.1335 135.278C90.4505 135.565 90.9637 135.708 91.6732 135.708C91.945 135.708 92.1865 135.685 92.3978 135.64C92.6092 135.595 92.7903 135.542 92.9413 135.482V137.384C92.7752 137.459 92.5412 137.519 92.2393 137.565C91.9374 137.61 91.5978 137.633 91.2204 137.633ZM85.016 127.737V125.858H92.9413V127.737H85.016ZM95.1298 137.406V125.858H97.4847V137.406H95.1298ZM95.0165 123.594V120.944H97.6206V123.594H95.0165ZM106.95 137.61C105.863 137.61 104.957 137.353 104.233 136.84C103.523 136.312 103.055 135.58 102.829 134.644L103.146 134.598V142.048H100.791V125.858H103.032V128.507L102.806 128.439C103.047 127.564 103.561 126.877 104.346 126.379C105.131 125.881 106.052 125.632 107.108 125.632C108.15 125.632 109.048 125.881 109.803 126.379C110.573 126.877 111.161 127.571 111.569 128.462C111.992 129.353 112.203 130.394 112.203 131.587C112.203 132.794 111.984 133.851 111.546 134.757C111.109 135.663 110.497 136.365 109.712 136.863C108.927 137.361 108.006 137.61 106.95 137.61ZM106.452 135.663C107.478 135.663 108.293 135.3 108.897 134.576C109.501 133.851 109.803 132.855 109.803 131.587C109.803 130.334 109.501 129.36 108.897 128.666C108.293 127.956 107.471 127.602 106.429 127.602C105.402 127.602 104.58 127.964 103.961 128.688C103.357 129.398 103.055 130.387 103.055 131.655C103.055 132.893 103.357 133.874 103.961 134.598C104.58 135.308 105.41 135.663 106.452 135.663ZM114.678 137.406V121.103H117.033V137.406H114.678ZM125.32 137.633C124.158 137.633 123.131 137.376 122.241 136.863C121.365 136.35 120.678 135.64 120.18 134.734C119.682 133.829 119.433 132.787 119.433 131.609C119.433 130.417 119.674 129.375 120.157 128.485C120.656 127.579 121.35 126.877 122.241 126.379C123.131 125.881 124.15 125.632 125.298 125.632C126.415 125.632 127.381 125.873 128.196 126.356C129.026 126.824 129.66 127.481 130.098 128.326C130.551 129.171 130.777 130.175 130.777 131.338C130.777 131.519 130.77 131.692 130.755 131.859C130.755 132.01 130.74 132.168 130.709 132.334H121.018V130.568H129.056L128.468 131.27C128.468 130.032 128.188 129.088 127.63 128.439C127.071 127.79 126.294 127.466 125.298 127.466C124.226 127.466 123.373 127.836 122.739 128.575C122.12 129.3 121.81 130.311 121.81 131.609C121.81 132.923 122.12 133.949 122.739 134.689C123.373 135.429 124.248 135.799 125.365 135.799C126.045 135.799 126.633 135.663 127.132 135.391C127.63 135.104 128 134.689 128.241 134.146H130.46C130.083 135.232 129.441 136.085 128.536 136.704C127.645 137.323 126.573 137.633 125.32 137.633ZM54.2545 165.406V149.103H57.968L63.4025 164.818H62.1797L67.5689 149.103H71.3278V165.406H68.9502V150.076H69.3125L64.0592 165.406H61.3872L56.1339 150.212H56.4962V165.406H54.2545ZM79.6911 165.633C78.5136 165.633 77.4796 165.376 76.5889 164.863C75.6983 164.334 75.0039 163.617 74.5057 162.712C74.0075 161.791 73.7584 160.749 73.7584 159.587C73.7584 158.409 74.0075 157.375 74.5057 156.485C75.0189 155.594 75.7134 154.9 76.5889 154.401C77.4796 153.888 78.5136 153.632 79.6911 153.632C80.8837 153.632 81.9253 153.888 82.8159 154.401C83.7066 154.9 84.3934 155.594 84.8765 156.485C85.3747 157.375 85.6237 158.409 85.6237 159.587C85.6237 160.749 85.3747 161.791 84.8765 162.712C84.3934 163.617 83.7066 164.334 82.8159 164.863C81.9253 165.376 80.8837 165.633 79.6911 165.633ZM79.6911 163.708C80.4006 163.708 81.012 163.534 81.5252 163.187C82.0536 162.84 82.4687 162.357 82.7706 161.738C83.0725 161.119 83.2235 160.394 83.2235 159.564C83.2235 158.326 82.8914 157.353 82.2272 156.643C81.5781 155.919 80.7327 155.556 79.6911 155.556C78.6646 155.556 77.8192 155.919 77.155 156.643C76.5059 157.368 76.1813 158.341 76.1813 159.564C76.1813 160.394 76.3247 161.119 76.6116 161.738C76.9135 162.357 77.3286 162.84 77.857 163.187C78.4004 163.534 79.0118 163.708 79.6911 163.708ZM96.4418 165.406V162.757L96.6682 162.825C96.4267 163.685 95.9285 164.372 95.1737 164.885C94.4189 165.384 93.5132 165.633 92.4565 165.633C91.4149 165.633 90.5016 165.384 89.7166 164.885C88.9467 164.387 88.3429 163.693 87.9051 162.802C87.4824 161.912 87.2711 160.87 87.2711 159.677C87.2711 158.47 87.49 157.413 87.9277 156.507C88.3655 155.602 88.9769 154.9 89.7619 154.401C90.5469 153.903 91.4677 153.654 92.5244 153.654C93.6264 153.654 94.5321 153.918 95.2416 154.447C95.9662 154.96 96.4418 155.685 96.6682 156.621L96.3512 156.666V149.103H98.6835V165.406H96.4418ZM93.0452 163.663C94.0868 163.663 94.9095 163.308 95.5134 162.598C96.1172 161.874 96.4191 160.878 96.4191 159.609C96.4191 158.372 96.1097 157.398 95.4907 156.688C94.8869 155.964 94.0642 155.602 93.0226 155.602C91.996 155.602 91.1809 155.964 90.577 156.688C89.9883 157.398 89.6939 158.394 89.6939 159.677C89.6939 160.93 89.9883 161.912 90.577 162.621C91.1809 163.315 92.0036 163.663 93.0452 163.663ZM106.977 165.633C105.815 165.633 104.789 165.376 103.898 164.863C103.022 164.35 102.335 163.64 101.837 162.734C101.339 161.829 101.09 160.787 101.09 159.609C101.09 158.417 101.332 157.375 101.815 156.485C102.313 155.579 103.007 154.877 103.898 154.379C104.789 153.881 105.808 153.632 106.955 153.632C108.072 153.632 109.038 153.873 109.853 154.356C110.683 154.824 111.317 155.481 111.755 156.326C112.208 157.171 112.435 158.175 112.435 159.338C112.435 159.519 112.427 159.692 112.412 159.859C112.412 160.01 112.397 160.168 112.367 160.334H102.675V158.568H110.714L110.125 159.27C110.125 158.032 109.846 157.088 109.287 156.439C108.729 155.79 107.951 155.466 106.955 155.466C105.883 155.466 105.03 155.836 104.396 156.575C103.777 157.3 103.468 158.311 103.468 159.609C103.468 160.923 103.777 161.949 104.396 162.689C105.03 163.429 105.906 163.799 107.023 163.799C107.702 163.799 108.291 163.663 108.789 163.391C109.287 163.104 109.657 162.689 109.898 162.146H112.118C111.74 163.232 111.099 164.085 110.193 164.704C109.302 165.323 108.23 165.633 106.977 165.633ZM114.843 165.406V149.103H117.198V165.406H114.843ZM124.671 165.633C123.161 165.633 121.961 165.301 121.07 164.636C120.18 163.972 119.674 163.036 119.553 161.829H121.727C121.833 162.493 122.135 163.006 122.633 163.368C123.146 163.716 123.841 163.889 124.716 163.889C125.486 163.889 126.075 163.753 126.482 163.482C126.89 163.21 127.094 162.825 127.094 162.327C127.094 161.964 126.973 161.662 126.731 161.421C126.505 161.164 126.052 160.953 125.373 160.787L123.516 160.357C122.354 160.07 121.486 159.647 120.912 159.089C120.353 158.515 120.074 157.813 120.074 156.983C120.074 155.941 120.459 155.126 121.229 154.537C122.014 153.933 123.086 153.632 124.444 153.632C125.788 153.632 126.867 153.933 127.682 154.537C128.513 155.141 128.981 155.986 129.086 157.073H126.913C126.822 156.53 126.558 156.115 126.12 155.828C125.697 155.526 125.116 155.375 124.376 155.375C123.682 155.375 123.146 155.503 122.769 155.76C122.406 156.002 122.225 156.341 122.225 156.779C122.225 157.141 122.361 157.443 122.633 157.685C122.92 157.926 123.388 158.13 124.037 158.296L125.939 158.772C127.041 159.043 127.871 159.489 128.43 160.108C128.988 160.711 129.267 161.444 129.267 162.304C129.267 163.346 128.86 164.161 128.045 164.75C127.245 165.338 126.12 165.633 124.671 165.633Z" fill="#304695"/>
<g filter="url(#filter1_i_2243_1214)">
<path d="M75.611 31.9606L60.588 26.327L75.738 20.9512L90.7135 26.4301L75.611 31.9606ZM76.5898 45.0413C79.8002 44.0242 83.0489 44.1503 86.0518 45.1823L91.8586 33.9514V28.1044L76.5898 33.6958V45.0413ZM102.932 21.1243L102.959 66.2951L122.134 58.1799L102.932 21.1243ZM87.8632 45.9594C91.7349 48.1061 94.6338 51.2377 95.0719 55.9451C94.7689 59.5216 93.2938 62.8124 90.8403 65.326C88.2141 68.0165 84.6681 69.5596 81.1116 69.5596C77.5293 69.5596 73.9644 68.2507 71.3307 65.9684C68.6211 63.6204 67.1192 60.4729 67.093 57.0974C67.2141 52.2936 69.3722 48.3825 74.6239 45.8264V33.6899L59.4863 28.0135V48.0811L67.7034 51.8338C66.1128 54.3053 65.1895 57.2472 65.1895 60.4049C65.1895 69.1633 72.2895 76.2634 81.048 76.2634C88.4596 76.2634 94.683 71.1788 96.4219 64.3078L100.731 66.2954L100.703 21.1246L87.8632 45.9594Z" fill="#6A82EE"/>
</g>
<defs>
<filter id="filter0_d_2243_1214" x="0.386669" y="0.451725" width="181.603" height="226.135" filterUnits="userSpaceOnUse" color-interpolation-filters="sRGB">
<feFlood flood-opacity="0" result="BackgroundImageFix"/>
<feColorMatrix in="SourceAlpha" type="matrix" values="0 0 0 0 0 0 0 0 0 0 0 0 0 0 0 0 0 0 127 0" result="hardAlpha"/>
<feOffset dy="3.01916"/>
<feGaussianBlur stdDeviation="7.28372"/>
<feComposite in2="hardAlpha" operator="out"/>
<feColorMatrix type="matrix" values="0 0 0 0 0.278827 0 0 0 0 0.404746 0 0 0 0 1 0 0 0 1 0"/>
<feBlend mode="normal" in2="BackgroundImageFix" result="effect1_dropShadow_2243_1214"/>
<feBlend mode="normal" in="SourceGraphic" in2="effect1_dropShadow_2243_1214" result="shape"/>
</filter>
<filter id="filter1_i_2243_1214" x="59.4863" y="17.2834" width="62.6475" height="65.6666" filterUnits="userSpaceOnUse" color-interpolation-filters="sRGB">
<feFlood flood-opacity="0" result="BackgroundImageFix"/>
<feBlend mode="normal" in="SourceGraphic" in2="BackgroundImageFix" result="shape"/>
<feColorMatrix in="SourceAlpha" type="matrix" values="0 0 0 0 0 0 0 0 0 0 0 0 0 0 0 0 0 0 127 0" result="hardAlpha"/>
<feOffset dy="3.01916"/>
<feGaussianBlur stdDeviation="1.50958"/>
<feComposite in2="hardAlpha" operator="arithmetic" k2="-1" k3="1"/>
<feColorMatrix type="matrix" values="0 0 0 0 0 0 0 0 0 0 0 0 0 0 0 0 0 0 0.25 0"/>
<feBlend mode="normal" in2="shape" result="effect1_innerShadow_2243_1214"/>
</filter>
</defs>
</svg>
