<svg width="543" height="312" viewBox="0 0 543 312" fill="none" xmlns="http://www.w3.org/2000/svg">
<g filter="url(#filter0_d_2100_50)">
<mask id="path-1-inside-1_2100_50" fill="white">
<path d="M392.794 0C404.944 0 414.794 9.84985 414.794 22V114.605H473.401C480.245 107.995 488.999 104.027 498.54 104.027C520.449 104.027 538.209 124.945 538.209 150.748C538.209 176.551 520.448 197.47 498.54 197.47C488.999 197.47 480.245 193.501 473.401 186.891H414.794V281.247C414.794 293.397 404.944 303.247 392.794 303.247H296.669V254.371C303.279 247.528 307.247 238.774 307.247 229.233C307.247 207.325 286.33 189.565 260.526 189.564C234.723 189.565 213.805 207.325 213.805 229.233C213.805 238.774 217.773 247.528 224.383 254.371V303.247H128.258C116.108 303.247 106.258 293.397 106.258 281.247V188.654H68.8066C61.9634 195.264 53.2098 199.232 43.6689 199.232C21.7605 199.232 4.00021 178.314 4 152.511C4.00022 126.708 21.7605 105.79 43.6689 105.79C53.2099 105.79 61.9633 109.758 68.8066 116.368H106.258V22C106.258 9.84988 116.108 3.19505e-05 128.258 0H392.794Z"/>
</mask>
<path d="M392.794 0C404.944 0 414.794 9.84985 414.794 22V114.605H473.401C480.245 107.995 488.999 104.027 498.54 104.027C520.449 104.027 538.209 124.945 538.209 150.748C538.209 176.551 520.448 197.47 498.54 197.47C488.999 197.47 480.245 193.501 473.401 186.891H414.794V281.247C414.794 293.397 404.944 303.247 392.794 303.247H296.669V254.371C303.279 247.528 307.247 238.774 307.247 229.233C307.247 207.325 286.33 189.565 260.526 189.564C234.723 189.565 213.805 207.325 213.805 229.233C213.805 238.774 217.773 247.528 224.383 254.371V303.247H128.258C116.108 303.247 106.258 293.397 106.258 281.247V188.654H68.8066C61.9634 195.264 53.2098 199.232 43.6689 199.232C21.7605 199.232 4.00021 178.314 4 152.511C4.00022 126.708 21.7605 105.79 43.6689 105.79C53.2099 105.79 61.9633 109.758 68.8066 116.368H106.258V22C106.258 9.84988 116.108 3.19505e-05 128.258 0H392.794Z" fill="url(#paint0_linear_2100_50)"/>
<path d="M414.794 22L418.794 22L418.794 22L414.794 22ZM414.794 114.605H410.794V118.605H414.794V114.605ZM473.401 114.605V118.605H475.018L476.18 117.482L473.401 114.605ZM498.54 104.027L498.54 100.027L498.54 100.027L498.54 104.027ZM538.209 150.748L542.209 150.748L542.209 150.748L538.209 150.748ZM498.54 197.47L498.54 201.47H498.54V197.47ZM473.401 186.891L476.18 184.014L475.018 182.891H473.401V186.891ZM414.794 186.891V182.891H410.794V186.891H414.794ZM296.669 303.247H292.669V307.247H296.669V303.247ZM296.669 254.371L293.792 251.592L292.669 252.755V254.371H296.669ZM307.247 229.233L311.247 229.233L311.247 229.233L307.247 229.233ZM260.526 189.564L260.526 185.564L260.526 185.564L260.526 189.564ZM213.805 229.233L209.805 229.233L209.805 229.233L213.805 229.233ZM224.383 254.371H228.383V252.755L227.26 251.592L224.383 254.371ZM224.383 303.247V307.247H228.383V303.247H224.383ZM128.258 303.247L128.258 307.247H128.258V303.247ZM106.258 188.654H110.258V184.654H106.258V188.654ZM68.8066 188.654V184.654H67.1903L66.0277 185.777L68.8066 188.654ZM43.6689 199.232L43.6689 203.232H43.6689V199.232ZM4 152.511L-3.96682e-10 152.511L1.28187e-10 152.511L4 152.511ZM43.6689 105.79L43.6689 101.79L43.6689 101.79L43.6689 105.79ZM68.8066 116.368L66.0277 119.245L67.1903 120.368H68.8066V116.368ZM106.258 116.368V120.368H110.258V116.368H106.258ZM106.258 22L102.258 22V22H106.258ZM128.258 0L128.258 -4L128.258 -4L128.258 0ZM392.794 0V4C402.735 4 410.794 12.059 410.794 22L414.794 22L418.794 22C418.794 7.64075 407.153 -4 392.794 -4V0ZM414.794 22H410.794V114.605H414.794H418.794V22H414.794ZM414.794 114.605V118.605H473.401V114.605V110.605H414.794V114.605ZM473.401 114.605L476.18 117.482C482.369 111.505 490.155 108.027 498.54 108.027L498.54 104.027L498.54 100.027C487.842 100.027 478.121 104.485 470.622 111.729L473.401 114.605ZM498.54 104.027V108.027C517.651 108.027 534.209 126.515 534.209 150.748L538.209 150.748L542.209 150.748C542.209 123.374 523.246 100.027 498.54 100.027V104.027ZM538.209 150.748L534.209 150.748C534.209 174.981 517.651 193.47 498.54 193.47V197.47V201.47C523.246 201.47 542.209 178.122 542.209 150.748L538.209 150.748ZM498.54 197.47L498.54 193.47C490.156 193.47 482.369 189.992 476.18 184.014L473.401 186.891L470.622 189.768C478.121 197.011 487.842 201.47 498.54 201.47L498.54 197.47ZM473.401 186.891V182.891H414.794V186.891V190.891H473.401V186.891ZM414.794 186.891H410.794V281.247H414.794H418.794V186.891H414.794ZM414.794 281.247H410.794C410.794 291.188 402.735 299.247 392.794 299.247V303.247V307.247C407.153 307.247 418.794 295.606 418.794 281.247H414.794ZM392.794 303.247V299.247H296.669V303.247V307.247H392.794V303.247ZM296.669 303.247H300.669V254.371H296.669H292.669V303.247H296.669ZM296.669 254.371L299.546 257.15C306.789 249.652 311.247 239.931 311.247 229.233L307.247 229.233L303.247 229.233C303.247 237.618 299.769 245.404 293.792 251.592L296.669 254.371ZM307.247 229.233L311.247 229.233C311.247 204.527 287.9 185.565 260.526 185.564L260.526 189.564L260.526 193.564C284.759 193.565 303.247 210.123 303.247 229.233L307.247 229.233ZM260.526 189.564L260.526 185.564C233.153 185.565 209.805 204.527 209.805 229.233L213.805 229.233L217.805 229.233C217.805 210.123 236.294 193.565 260.526 193.564L260.526 189.564ZM213.805 229.233L209.805 229.233C209.805 239.931 214.263 249.652 221.506 257.15L224.383 254.371L227.26 251.592C221.282 245.404 217.805 237.618 217.805 229.233L213.805 229.233ZM224.383 254.371H220.383V303.247H224.383H228.383V254.371H224.383ZM224.383 303.247V299.247H128.258V303.247V307.247H224.383V303.247ZM128.258 303.247L128.258 299.247C118.317 299.247 110.258 291.188 110.258 281.247H106.258H102.258C102.258 295.606 113.898 307.247 128.258 307.247L128.258 303.247ZM106.258 281.247H110.258V188.654H106.258H102.258V281.247H106.258ZM106.258 188.654V184.654H68.8066V188.654V192.654H106.258V188.654ZM68.8066 188.654L66.0277 185.777C59.8393 191.755 52.0532 195.232 43.6689 195.232V199.232V203.232C54.3665 203.232 64.0874 198.774 71.5856 191.531L68.8066 188.654ZM43.6689 199.232L43.669 195.232C24.5584 195.232 8.00019 176.744 8 152.511L4 152.511L1.28188e-10 152.511C0.000219149 179.884 18.9626 203.232 43.6689 203.232L43.6689 199.232ZM4 152.511L8 152.511C8.0002 128.278 24.5583 109.79 43.669 109.79L43.6689 105.79L43.6689 101.79C18.9627 101.79 0.000229509 125.137 1.40592e-10 152.511L4 152.511ZM43.6689 105.79V109.79C52.0533 109.79 59.8393 113.268 66.0277 119.245L68.8066 116.368L71.5856 113.491C64.0874 106.248 54.3666 101.79 43.6689 101.79V105.79ZM68.8066 116.368V120.368H106.258V116.368V112.368H68.8066V116.368ZM106.258 116.368H110.258V22H106.258H102.258V116.368H106.258ZM106.258 22L110.258 22C110.258 12.059 118.317 4.00003 128.258 4L128.258 0L128.258 -4C113.898 -3.99996 102.258 7.64077 102.258 22L106.258 22ZM128.258 0V4H392.794V0V-4H128.258V0Z" fill="white" mask="url(#path-1-inside-1_2100_50)"/>
</g>
<rect x="212.5" y="98.0625" width="94" height="77" rx="13.5" fill="url(#paint1_linear_2100_50)" stroke="url(#paint2_linear_2100_50)"/>
<path d="M237.333 167.062V155.021L274.662 117.762C275.229 117.196 275.867 116.771 276.575 116.488C277.283 116.204 277.992 116.062 278.7 116.062C279.456 116.062 280.176 116.204 280.862 116.488C281.548 116.771 282.149 117.196 282.667 117.762L286.633 121.729C287.2 122.249 287.625 122.851 287.908 123.537C288.192 124.222 288.333 124.942 288.333 125.696C288.333 126.404 288.192 127.112 287.908 127.821C287.625 128.529 287.2 129.167 286.633 129.733L249.375 167.062H237.333ZM243 161.396H246.967L274.804 133.629L272.821 131.575L270.767 129.592L243 157.429V161.396ZM272.821 131.575L270.767 129.592L274.804 133.629L272.821 131.575ZM265.667 167.062C269.161 167.062 272.396 166.189 275.371 164.442C278.346 162.694 279.833 160.262 279.833 157.146C279.833 155.446 279.385 153.982 278.487 152.754C277.59 151.526 276.386 150.464 274.875 149.567L270.696 153.746C271.782 154.218 272.632 154.737 273.246 155.304C273.86 155.871 274.167 156.485 274.167 157.146C274.167 158.232 273.304 159.212 271.58 160.087C269.855 160.961 267.884 161.398 265.667 161.396C264.864 161.396 264.191 161.668 263.649 162.212C263.107 162.756 262.835 163.428 262.833 164.229C262.831 165.03 263.103 165.703 263.649 166.249C264.195 166.795 264.868 167.066 265.667 167.062ZM238.962 145.388L243.212 141.138C242.268 140.76 241.524 140.371 240.98 139.97C240.436 139.57 240.165 139.156 240.167 138.729C240.167 138.162 240.592 137.596 241.442 137.029C242.292 136.462 244.086 135.589 246.825 134.408C250.981 132.614 253.743 130.985 255.112 129.521C256.482 128.057 257.167 126.404 257.167 124.562C257.167 121.965 256.128 119.9 254.05 118.366C251.972 116.832 249.233 116.064 245.833 116.062C243.708 116.062 241.807 116.44 240.13 117.196C238.452 117.951 237.166 118.872 236.271 119.958C235.751 120.572 235.539 121.257 235.633 122.012C235.728 122.768 236.082 123.382 236.696 123.854C237.31 124.374 237.994 124.586 238.75 124.492C239.506 124.397 240.143 124.09 240.663 123.571C241.324 122.91 242.056 122.438 242.858 122.154C243.661 121.871 244.653 121.729 245.833 121.729C247.769 121.729 249.198 122.013 250.12 122.579C251.042 123.146 251.502 123.807 251.5 124.562C251.5 125.224 251.087 125.825 250.262 126.367C249.436 126.909 247.535 127.866 244.558 129.237C240.781 130.89 238.16 132.39 236.696 133.737C235.232 135.084 234.5 136.748 234.5 138.729C234.5 140.24 234.901 141.528 235.704 142.591C236.507 143.654 237.593 144.587 238.962 145.388Z" fill="#4663D1"/>
<defs>
<filter id="filter0_d_2100_50" x="0" y="0" width="542.209" height="311.247" filterUnits="userSpaceOnUse" color-interpolation-filters="sRGB">
<feFlood flood-opacity="0" result="BackgroundImageFix"/>
<feColorMatrix in="SourceAlpha" type="matrix" values="0 0 0 0 0 0 0 0 0 0 0 0 0 0 0 0 0 0 127 0" result="hardAlpha"/>
<feOffset dy="4"/>
<feGaussianBlur stdDeviation="2"/>
<feComposite in2="hardAlpha" operator="out"/>
<feColorMatrix type="matrix" values="0 0 0 0 0 0 0 0 0 0 0 0 0 0 0 0 0 0 0.25 0"/>
<feBlend mode="normal" in2="BackgroundImageFix" result="effect1_dropShadow_2100_50"/>
<feBlend mode="normal" in="SourceGraphic" in2="effect1_dropShadow_2100_50" result="shape"/>
</filter>
<linearGradient id="paint0_linear_2100_50" x1="271.104" y1="0" x2="271.104" y2="303.247" gradientUnits="userSpaceOnUse">
<stop stop-color="#C3D0FF"/>
<stop offset="1" stop-color="#A4B7FF"/>
</linearGradient>
<linearGradient id="paint1_linear_2100_50" x1="259.5" y1="97.5625" x2="259.5" y2="175.562" gradientUnits="userSpaceOnUse">
<stop stop-color="#6989FF"/>
<stop offset="1" stop-color="#B1C2FF" stop-opacity="0"/>
</linearGradient>
<linearGradient id="paint2_linear_2100_50" x1="259.5" y1="97.5625" x2="259.5" y2="175.562" gradientUnits="userSpaceOnUse">
<stop stop-color="white"/>
<stop offset="1" stop-color="#999999" stop-opacity="0"/>
</linearGradient>
</defs>
</svg>
