<svg width="312" height="514" viewBox="0 0 312 514" fill="none" xmlns="http://www.w3.org/2000/svg">
<g filter="url(#filter0_d_2100_90)">
<mask id="path-1-inside-1_2100_90" fill="white">
<path d="M154.742 0C180.546 5.77644e-05 201.464 17.7604 201.464 39.6689C201.464 49.2103 197.495 57.9642 190.885 64.8076V91.6797H285.247C297.397 91.6798 307.247 101.529 307.247 113.68V204.516H266.271C259.427 197.906 250.674 193.938 241.133 193.938C219.225 193.938 201.464 214.855 201.464 240.658C201.464 266.461 219.225 287.379 241.133 287.38C250.673 287.38 259.427 283.411 266.271 276.802H307.247V378.216C307.247 390.366 297.397 400.216 285.247 400.216H190.885V441.192C197.495 448.036 201.464 456.79 201.464 466.331C201.464 488.24 180.546 506 154.742 506C128.939 506 108.021 488.24 108.021 466.331C108.021 456.79 111.989 448.036 118.6 441.192V400.216H26C13.8499 400.216 4.00013 390.366 4 378.216V280.327H60.8428C67.6862 286.938 76.4402 290.906 85.9814 290.906C107.89 290.906 125.65 269.988 125.65 244.185C125.65 218.381 107.89 197.464 85.9814 197.464C76.4401 197.464 67.6862 201.431 60.8428 208.042H4V113.68C4 101.529 13.8498 91.6798 26 91.6797H118.6V64.8076C111.989 57.9642 108.021 49.2102 108.021 39.6689C108.021 17.7605 128.939 0.000139394 154.742 0Z"/>
</mask>
<path d="M154.742 0C180.546 5.77644e-05 201.464 17.7604 201.464 39.6689C201.464 49.2103 197.495 57.9642 190.885 64.8076V91.6797H285.247C297.397 91.6798 307.247 101.529 307.247 113.68V204.516H266.271C259.427 197.906 250.674 193.938 241.133 193.938C219.225 193.938 201.464 214.855 201.464 240.658C201.464 266.461 219.225 287.379 241.133 287.38C250.673 287.38 259.427 283.411 266.271 276.802H307.247V378.216C307.247 390.366 297.397 400.216 285.247 400.216H190.885V441.192C197.495 448.036 201.464 456.79 201.464 466.331C201.464 488.24 180.546 506 154.742 506C128.939 506 108.021 488.24 108.021 466.331C108.021 456.79 111.989 448.036 118.6 441.192V400.216H26C13.8499 400.216 4.00013 390.366 4 378.216V280.327H60.8428C67.6862 286.938 76.4402 290.906 85.9814 290.906C107.89 290.906 125.65 269.988 125.65 244.185C125.65 218.381 107.89 197.464 85.9814 197.464C76.4401 197.464 67.6862 201.431 60.8428 208.042H4V113.68C4 101.529 13.8498 91.6798 26 91.6797H118.6V64.8076C111.989 57.9642 108.021 49.2102 108.021 39.6689C108.021 17.7605 128.939 0.000139394 154.742 0Z" fill="url(#paint0_linear_2100_90)"/>
<path d="M154.742 0L154.742 -3L154.742 -3L154.742 0ZM201.464 39.6689L204.464 39.6689L204.464 39.6689L201.464 39.6689ZM190.885 64.8076L188.727 62.7233L187.885 63.5953V64.8076H190.885ZM190.885 91.6797H187.885V94.6797H190.885V91.6797ZM285.247 91.6797L285.247 88.6797H285.247V91.6797ZM307.247 204.516V207.516H310.247V204.516H307.247ZM266.271 204.516L264.186 206.673L265.058 207.516H266.271V204.516ZM241.133 193.938L241.133 190.937L241.133 190.938L241.133 193.938ZM201.464 240.658L198.464 240.658L198.464 240.658L201.464 240.658ZM241.133 287.38L241.133 290.38L241.133 290.38L241.133 287.38ZM266.271 276.802V273.802H265.058L264.186 274.644L266.271 276.802ZM307.247 276.802H310.247V273.802H307.247V276.802ZM307.247 378.216L310.247 378.216V378.216H307.247ZM285.247 400.216L285.247 403.216L285.247 403.216L285.247 400.216ZM190.885 400.216V397.216H187.885V400.216H190.885ZM190.885 441.192H187.885V442.405L188.727 443.277L190.885 441.192ZM201.464 466.331L204.464 466.331V466.331H201.464ZM154.742 506L154.742 509L154.742 509L154.742 506ZM108.021 466.331L105.021 466.331L105.021 466.331L108.021 466.331ZM118.6 441.192L120.757 443.277L121.6 442.405V441.192H118.6ZM118.6 400.216H121.6V397.216H118.6V400.216ZM26 400.216L26 403.216H26V400.216ZM4 378.216L1 378.216L1 378.216L4 378.216ZM4 280.327V277.327H1V280.327H4ZM60.8428 280.327L62.9271 278.169L62.0551 277.327H60.8428V280.327ZM85.9814 290.906L85.9814 293.906H85.9814V290.906ZM125.65 244.185L128.65 244.185L128.65 244.185L125.65 244.185ZM85.9814 197.464L85.9814 194.464L85.9814 194.464L85.9814 197.464ZM60.8428 208.042V211.042H62.0551L62.9271 210.2L60.8428 208.042ZM4 208.042H1V211.042H4V208.042ZM26 91.6797L26 88.6797L26 88.6797L26 91.6797ZM118.6 91.6797V94.6797H121.6V91.6797H118.6ZM118.6 64.8076H121.6V63.5953L120.757 62.7233L118.6 64.8076ZM108.021 39.6689L105.021 39.6689V39.6689H108.021ZM154.742 0L154.742 3C179.368 3.00006 198.464 19.8588 198.464 39.6689L201.464 39.6689L204.464 39.6689C204.464 15.662 181.723 -2.99994 154.742 -3L154.742 0ZM201.464 39.6689H198.464C198.464 48.3427 194.863 56.3711 188.727 62.7233L190.885 64.8076L193.042 66.8919C200.127 59.5573 204.464 50.0778 204.464 39.6689H201.464ZM190.885 64.8076H187.885V91.6797H190.885H193.885V64.8076H190.885ZM190.885 91.6797V94.6797H285.247V91.6797V88.6797H190.885V91.6797ZM285.247 91.6797L285.247 94.6797C295.74 94.6797 304.247 103.186 304.247 113.68H307.247H310.247C310.247 99.8726 299.054 88.6798 285.247 88.6797L285.247 91.6797ZM307.247 113.68H304.247V204.516H307.247H310.247V113.68H307.247ZM307.247 204.516V201.516H266.271V204.516V207.516H307.247V204.516ZM266.271 204.516L268.355 202.358C261.02 195.273 251.541 190.938 241.133 190.938L241.133 193.938L241.133 196.937C249.806 196.938 257.834 200.538 264.186 206.673L266.271 204.516ZM241.133 193.938L241.133 190.938C217.127 190.938 198.464 213.677 198.464 240.658L201.464 240.658L204.464 240.658C204.464 216.033 221.323 196.938 241.133 196.937L241.133 193.938ZM201.464 240.658L198.464 240.658C198.464 267.639 217.126 290.379 241.133 290.38L241.133 287.38L241.133 284.38C221.323 284.379 204.464 265.283 204.464 240.658L201.464 240.658ZM241.133 287.38L241.133 290.38C251.541 290.38 261.02 286.044 268.355 278.96L266.271 276.802L264.186 274.644C257.834 280.779 249.806 284.38 241.133 284.38L241.133 287.38ZM266.271 276.802V279.802H307.247V276.802V273.802H266.271V276.802ZM307.247 276.802H304.247V378.216H307.247H310.247V276.802H307.247ZM307.247 378.216L304.247 378.216C304.247 388.709 295.74 397.216 285.247 397.216L285.247 400.216L285.247 403.216C299.054 403.216 310.247 392.023 310.247 378.216L307.247 378.216ZM285.247 400.216V397.216H190.885V400.216V403.216H285.247V400.216ZM190.885 400.216H187.885V441.192H190.885H193.885V400.216H190.885ZM190.885 441.192L188.727 443.277C194.863 449.629 198.464 457.657 198.464 466.331H201.464H204.464C204.464 455.922 200.127 446.443 193.042 439.108L190.885 441.192ZM201.464 466.331L198.464 466.331C198.464 486.141 179.368 503 154.742 503L154.742 506L154.742 509C181.723 509 204.464 490.338 204.464 466.331L201.464 466.331ZM154.742 506L154.742 503C130.117 503 111.021 486.141 111.021 466.331L108.021 466.331L105.021 466.331C105.021 490.338 127.761 509 154.742 509L154.742 506ZM108.021 466.331H111.021C111.021 457.657 114.621 449.629 120.757 443.277L118.6 441.192L116.442 439.108C109.357 446.443 105.021 455.922 105.021 466.331H108.021ZM118.6 441.192H121.6V400.216H118.6H115.6V441.192H118.6ZM118.6 400.216V397.216H26V400.216V403.216H118.6V400.216ZM26 400.216L26 397.216C15.5068 397.216 7.00011 388.709 7 378.216L4 378.216L1 378.216C1.00015 392.023 12.193 403.216 26 403.216L26 400.216ZM4 378.216H7V280.327H4H1V378.216H4ZM4 280.327V283.327H60.8428V280.327V277.327H4V280.327ZM60.8428 280.327L58.7585 282.485C66.093 289.57 75.5726 293.906 85.9814 293.906L85.9814 290.906L85.9815 287.906C77.3077 287.906 69.2793 284.305 62.9271 278.169L60.8428 280.327ZM85.9814 290.906V293.906C109.988 293.906 128.65 271.166 128.65 244.185L125.65 244.185L122.65 244.185C122.65 268.81 105.792 287.906 85.9814 287.906V290.906ZM125.65 244.185L128.65 244.185C128.65 217.203 109.988 194.464 85.9814 194.464V197.464V200.464C105.792 200.464 122.65 219.559 122.65 244.185L125.65 244.185ZM85.9814 197.464L85.9814 194.464C75.5728 194.464 66.0932 198.799 58.7585 205.884L60.8428 208.042L62.9271 210.2C69.2791 204.064 77.3075 200.464 85.9815 200.464L85.9814 197.464ZM60.8428 208.042V205.042H4V208.042V211.042H60.8428V208.042ZM4 208.042H7V113.68H4H1V208.042H4ZM4 113.68H7C7 103.186 15.5067 94.6798 26 94.6797L26 91.6797L26 88.6797C12.193 88.6798 1 99.8726 1 113.68H4ZM26 91.6797V94.6797H118.6V91.6797V88.6797H26V91.6797ZM118.6 91.6797H121.6V64.8076H118.6H115.6V91.6797H118.6ZM118.6 64.8076L120.757 62.7233C114.621 56.3711 111.021 48.3427 111.021 39.6689H108.021H105.021C105.021 50.0778 109.357 59.5573 116.442 66.8919L118.6 64.8076ZM108.021 39.6689L111.021 39.6689C111.021 19.8589 130.117 3.00013 154.742 3L154.742 0L154.742 -3C127.761 -2.99985 105.021 15.6621 105.021 39.6689L108.021 39.6689Z" fill="white" mask="url(#path-1-inside-1_2100_90)"/>
</g>
<rect x="109.945" y="109.5" width="94" height="77" rx="13.5" fill="url(#paint1_linear_2100_90)" stroke="url(#paint2_linear_2100_90)"/>
<path d="M140.195 130.375V137.75H132.82V130.375H140.195ZM129.133 126.688V141.438H143.883V126.688H129.133ZM158.633 135.906V143.281H151.258V135.906H158.633ZM147.57 132.219V146.969H162.32V132.219H147.57ZM140.195 152.5V159.875H132.82V152.5H140.195ZM129.133 148.812V163.562H143.883V148.812H129.133Z" fill="#5C3DCB"/>
<path d="M166.008 141.438V152.5H154.945V163.562H143.883V178.312H180.758V141.438H166.008ZM158.633 156.188H166.008V163.562H158.633V156.188ZM154.945 174.625H147.57V167.25H154.945V174.625ZM166.008 174.625H158.633V167.25H166.008V174.625ZM177.07 174.625H169.695V167.25H177.07V174.625ZM177.07 163.562H169.695V156.188H177.07V163.562ZM169.695 152.5V145.125H177.07V152.5H169.695Z" fill="#5C3DCB"/>
<defs>
<filter id="filter0_d_2100_90" x="0" y="0" width="311.246" height="514" filterUnits="userSpaceOnUse" color-interpolation-filters="sRGB">
<feFlood flood-opacity="0" result="BackgroundImageFix"/>
<feColorMatrix in="SourceAlpha" type="matrix" values="0 0 0 0 0 0 0 0 0 0 0 0 0 0 0 0 0 0 127 0" result="hardAlpha"/>
<feOffset dy="4"/>
<feGaussianBlur stdDeviation="2"/>
<feComposite in2="hardAlpha" operator="out"/>
<feColorMatrix type="matrix" values="0 0 0 0 0 0 0 0 0 0 0 0 0 0 0 0 0 0 0.25 0"/>
<feBlend mode="normal" in2="BackgroundImageFix" result="effect1_dropShadow_2100_90"/>
<feBlend mode="normal" in="SourceGraphic" in2="effect1_dropShadow_2100_90" result="shape"/>
</filter>
<linearGradient id="paint0_linear_2100_90" x1="155.624" y1="0" x2="155.624" y2="506" gradientUnits="userSpaceOnUse">
<stop stop-color="#A796E4"/>
<stop offset="1" stop-color="#8564FF"/>
</linearGradient>
<linearGradient id="paint1_linear_2100_90" x1="156.945" y1="109" x2="156.945" y2="187" gradientUnits="userSpaceOnUse">
<stop stop-color="#704EEC"/>
<stop offset="1" stop-color="#A28FE7" stop-opacity="0"/>
</linearGradient>
<linearGradient id="paint2_linear_2100_90" x1="156.945" y1="109" x2="156.945" y2="187" gradientUnits="userSpaceOnUse">
<stop stop-color="white"/>
<stop offset="1" stop-color="#999999" stop-opacity="0"/>
</linearGradient>
</defs>
</svg>
