<svg width="425" height="318" viewBox="0 0 425 318" fill="none" xmlns="http://www.w3.org/2000/svg">
<g filter="url(#filter0_d_2100_112)">
<mask id="path-1-inside-1_2100_112" fill="white">
<path d="M396.51 309.279L301.895 309.279L301.013 267.407C307.478 260.426 311.262 251.589 311.061 242.05C310.599 220.146 289.311 202.831 263.514 203.374C237.717 203.918 217.178 222.115 217.639 244.019C217.841 253.557 221.992 262.225 228.744 268.927L229.594 309.28L131.974 309.279C119.824 309.279 109.975 299.429 109.974 287.279L109.974 197.133L69.0275 197.133C62.1841 203.743 53.4307 207.712 43.8894 207.712C21.9808 207.712 4.22035 186.793 4.22035 160.99C4.22061 135.187 21.9809 114.27 43.8893 114.27C53.4303 114.27 62.1836 118.238 69.0269 124.848L109.975 124.848L109.974 28.032C109.974 15.882 119.824 6.03175 131.974 6.03139L396.51 6.03182C408.66 6.03184 418.51 15.8819 418.51 28.0322L418.51 287.279C418.51 299.429 408.66 309.279 396.51 309.279Z"/>
</mask>
<path d="M396.51 309.279L301.895 309.279L301.013 267.407C307.478 260.426 311.262 251.589 311.061 242.05C310.599 220.146 289.311 202.831 263.514 203.374C237.717 203.918 217.178 222.115 217.639 244.019C217.841 253.557 221.992 262.225 228.744 268.927L229.594 309.28L131.974 309.279C119.824 309.279 109.975 299.429 109.974 287.279L109.974 197.133L69.0275 197.133C62.1841 203.743 53.4307 207.712 43.8894 207.712C21.9808 207.712 4.22035 186.793 4.22035 160.99C4.22061 135.187 21.9809 114.27 43.8893 114.27C53.4303 114.27 62.1836 118.238 69.0269 124.848L109.975 124.848L109.974 28.032C109.974 15.882 119.824 6.03175 131.974 6.03139L396.51 6.03182C408.66 6.03184 418.51 15.8819 418.51 28.0322L418.51 287.279C418.51 299.429 408.66 309.279 396.51 309.279Z" fill="url(#paint0_linear_2100_112)"/>
<path d="M396.51 309.279L396.51 305.279L396.51 305.279L396.51 309.279ZM301.895 309.279L297.896 309.363L297.979 313.279L301.895 313.279L301.895 309.279ZM301.013 267.407L298.078 264.689L296.98 265.875L297.014 267.491L301.013 267.407ZM311.061 242.05L315.06 241.966L315.06 241.965L311.061 242.05ZM263.514 203.374L263.429 199.375L263.429 199.375L263.514 203.374ZM217.639 244.019L213.64 244.103L213.64 244.103L217.639 244.019ZM228.744 268.927L232.743 268.843L232.709 267.227L231.562 266.088L228.744 268.927ZM229.594 309.28L229.594 313.28L233.679 313.28L233.593 309.196L229.594 309.28ZM131.974 309.279L131.974 313.279L131.974 313.279L131.974 309.279ZM109.974 287.279L105.974 287.279L105.974 287.279L109.974 287.279ZM109.974 197.133L113.974 197.133L113.974 193.133L109.974 193.133L109.974 197.133ZM69.0275 197.133L69.0276 193.133L67.4111 193.132L66.2485 194.256L69.0275 197.133ZM43.8894 207.712L43.8894 211.712L43.8894 211.712L43.8894 207.712ZM4.22035 160.99L0.220353 160.99V160.99H4.22035ZM43.8893 114.27L43.8893 110.27L43.8893 110.27L43.8893 114.27ZM69.0269 124.848L66.2479 127.725L67.4105 128.848L69.0269 128.848L69.0269 124.848ZM109.975 124.848L109.974 128.848L113.975 128.848L113.975 124.848L109.975 124.848ZM109.974 28.032L105.974 28.032L105.974 28.0321L109.974 28.032ZM131.974 6.03139L131.974 2.03139L131.974 2.03139L131.974 6.03139ZM396.51 6.03182L396.51 10.0318L396.51 10.0318L396.51 6.03182ZM418.51 28.0322L414.51 28.0322L414.51 28.0322L418.51 28.0322ZM418.51 287.279L422.51 287.279L422.51 287.279L418.51 287.279ZM396.51 309.279L396.51 305.279L301.895 305.279L301.895 309.279L301.895 313.279L396.51 313.279L396.51 309.279ZM301.895 309.279L305.894 309.195L305.012 267.322L301.013 267.407L297.014 267.491L297.896 309.363L301.895 309.279ZM301.013 267.407L303.948 270.125C311.032 262.475 315.285 252.661 315.06 241.966L311.061 242.05L307.062 242.134C307.238 250.517 303.924 258.376 298.078 264.689L301.013 267.407ZM311.061 242.05L315.06 241.965C314.539 217.265 290.797 198.798 263.429 199.375L263.514 203.374L263.598 207.373C287.825 206.863 306.659 223.028 307.062 242.134L311.061 242.05ZM263.514 203.374L263.429 199.375C236.062 199.952 213.12 219.402 213.64 244.103L217.639 244.019L221.638 243.934C221.236 224.828 239.371 207.884 263.598 207.373L263.514 203.374ZM217.639 244.019L213.64 244.103C213.866 254.797 218.527 264.422 225.926 271.766L228.744 268.927L231.562 266.088C225.456 260.027 221.815 252.316 221.638 243.934L217.639 244.019ZM228.744 268.927L224.745 269.011L225.595 309.364L229.594 309.28L233.593 309.196L232.743 268.843L228.744 268.927ZM229.594 309.28L229.594 305.28L131.974 305.279L131.974 309.279L131.974 313.279L229.594 313.28L229.594 309.28ZM131.974 309.279L131.974 305.279C122.033 305.279 113.974 297.22 113.974 287.279L109.974 287.279L105.974 287.279C105.975 301.638 117.615 313.279 131.974 313.279L131.974 309.279ZM109.974 287.279L113.974 287.279L113.974 197.133L109.974 197.133L105.974 197.133L105.974 287.279L109.974 287.279ZM109.974 197.133L109.974 193.133L69.0276 193.133L69.0275 197.133L69.0275 201.133L109.974 201.133L109.974 197.133ZM69.0275 197.133L66.2485 194.256C60.0598 200.234 52.2737 203.712 43.8894 203.712L43.8894 207.712L43.8894 211.712C54.5877 211.712 64.3085 207.252 71.8066 200.009L69.0275 197.133ZM43.8894 207.712L43.8894 203.712C24.7787 203.712 8.22035 185.223 8.22035 160.99H4.22035H0.220353C0.220353 188.364 19.1829 211.712 43.8894 211.712L43.8894 207.712ZM4.22035 160.99L8.22035 160.99C8.2206 136.757 24.7786 118.27 43.8893 118.27L43.8893 114.27L43.8893 110.27C19.1832 110.27 0.220627 133.616 0.220353 160.99L4.22035 160.99ZM43.8893 114.27L43.8893 118.27C52.2737 118.27 60.0596 121.747 66.2479 127.725L69.0269 124.848L71.8059 121.971C64.3077 114.728 54.587 110.27 43.8893 110.27L43.8893 114.27ZM69.0269 124.848L69.0269 128.848L109.974 128.848L109.975 124.848L109.975 120.848L69.027 120.848L69.0269 124.848ZM109.975 124.848L113.975 124.848L113.974 28.032L109.974 28.032L105.974 28.0321L105.975 124.848L109.975 124.848ZM109.974 28.032H113.974C113.974 18.0912 122.033 10.0317 131.974 10.0314L131.974 6.03139L131.974 2.03139C117.615 2.03182 105.974 13.6728 105.974 28.032H109.974ZM131.974 6.03139L131.974 10.0314L396.51 10.0318L396.51 6.03182L396.51 2.03182L131.974 2.03139L131.974 6.03139ZM396.51 6.03182L396.51 10.0318C406.451 10.0318 414.51 18.0909 414.51 28.0322L418.51 28.0322L422.51 28.0322C422.51 13.6729 410.87 2.03185 396.51 2.03182L396.51 6.03182ZM418.51 28.0322L414.51 28.0322L414.51 287.279L418.51 287.279L422.51 287.279L422.51 28.0322L418.51 28.0322ZM418.51 287.279L414.51 287.279C414.51 297.22 406.451 305.279 396.51 305.279V309.279V313.279C410.869 313.279 422.51 301.638 422.51 287.279L418.51 287.279Z" fill="white" mask="url(#path-1-inside-1_2100_112)"/>
</g>
<rect x="218.301" y="107.461" width="94" height="77" rx="13.5" fill="url(#paint1_linear_2100_112)" stroke="url(#paint2_linear_2100_112)"/>
<path d="M280.3 161.461C286.007 161.461 290.633 152.208 290.633 140.794C290.633 129.38 286.007 120.127 280.3 120.127C274.593 120.127 269.967 129.38 269.967 140.794C269.967 152.208 274.593 161.461 280.3 161.461Z" stroke="#D37E17" stroke-width="6"/>
<path d="M280.3 120.127C272.284 120.127 255.668 126.271 246.125 130.084C241.754 131.83 238.967 136.087 238.967 140.794C238.967 145.501 241.757 149.758 246.125 151.505C255.668 155.318 272.284 161.461 280.3 161.461" stroke="#D37E17" stroke-width="6"/>
<path d="M262.218 171.794L257.198 169.03C254.518 167.547 252.345 165.295 250.958 162.564C249.571 159.833 249.034 156.75 249.417 153.711" stroke="#D37E17" stroke-width="6" stroke-linecap="round" stroke-linejoin="round"/>
<defs>
<filter id="filter0_d_2100_112" x="0.220703" y="6.03125" width="422.289" height="311.249" filterUnits="userSpaceOnUse" color-interpolation-filters="sRGB">
<feFlood flood-opacity="0" result="BackgroundImageFix"/>
<feColorMatrix in="SourceAlpha" type="matrix" values="0 0 0 0 0 0 0 0 0 0 0 0 0 0 0 0 0 0 127 0" result="hardAlpha"/>
<feOffset dy="4"/>
<feGaussianBlur stdDeviation="2"/>
<feComposite in2="hardAlpha" operator="out"/>
<feColorMatrix type="matrix" values="0 0 0 0 0 0 0 0 0 0 0 0 0 0 0 0 0 0 0.25 0"/>
<feBlend mode="normal" in2="BackgroundImageFix" result="effect1_dropShadow_2100_112"/>
<feBlend mode="normal" in="SourceGraphic" in2="effect1_dropShadow_2100_112" result="shape"/>
</filter>
<linearGradient id="paint0_linear_2100_112" x1="209.462" y1="4.39428" x2="215.968" y2="313.089" gradientUnits="userSpaceOnUse">
<stop stop-color="#FFCF94"/>
<stop offset="1" stop-color="#FFB254"/>
</linearGradient>
<linearGradient id="paint1_linear_2100_112" x1="265.301" y1="106.961" x2="265.301" y2="184.961" gradientUnits="userSpaceOnUse">
<stop stop-color="#FF9618"/>
<stop offset="1" stop-color="#FFBB68" stop-opacity="0"/>
</linearGradient>
<linearGradient id="paint2_linear_2100_112" x1="265.301" y1="106.961" x2="265.301" y2="184.961" gradientUnits="userSpaceOnUse">
<stop stop-color="white"/>
<stop offset="1" stop-color="#999999" stop-opacity="0"/>
</linearGradient>
</defs>
</svg>
