<svg width="70" height="57" viewBox="0 0 70 57" fill="none" xmlns="http://www.w3.org/2000/svg">
<rect x="0.5" y="0.5" width="69" height="56" rx="13.5" fill="url(#paint0_linear_2277_1426)" stroke="url(#paint1_linear_2277_1426)"/>
<path d="M18.3333 50.75V41.8958L45.7812 14.5C46.1979 14.0833 46.6667 13.7708 47.1875 13.5625C47.7083 13.3542 48.2292 13.25 48.75 13.25C49.3056 13.25 49.8354 13.3542 50.3396 13.5625C50.8438 13.7708 51.2861 14.0833 51.6667 14.5L54.5833 17.4167C55 17.7986 55.3125 18.2417 55.5208 18.7458C55.7292 19.25 55.8333 19.7792 55.8333 20.3333C55.8333 20.8542 55.7292 21.375 55.5208 21.8958C55.3125 22.4167 55 22.8854 54.5833 23.3021L27.1875 50.75H18.3333ZM22.5 46.5833H25.4167L45.8854 26.1667L44.4271 24.6563L42.9167 23.1979L22.5 43.6667V46.5833ZM44.4271 24.6563L42.9167 23.1979L45.8854 26.1667L44.4271 24.6563ZM39.1667 50.75C41.7361 50.75 44.1146 50.1076 46.3021 48.8229C48.4896 47.5382 49.5833 45.75 49.5833 43.4583C49.5833 42.2083 49.2535 41.1319 48.5937 40.2292C47.934 39.3264 47.0486 38.5451 45.9375 37.8854L42.8646 40.9583C43.6632 41.3056 44.2882 41.6875 44.7396 42.1042C45.191 42.5208 45.4167 42.9722 45.4167 43.4583C45.4167 44.2569 44.7826 44.9778 43.5146 45.6208C42.2465 46.2639 40.7972 46.5847 39.1667 46.5833C38.5764 46.5833 38.0819 46.7833 37.6833 47.1833C37.2847 47.5833 37.0847 48.0778 37.0833 48.6667C37.0819 49.2556 37.2819 49.7507 37.6833 50.1521C38.0847 50.5535 38.5792 50.7528 39.1667 50.75ZM19.5312 34.8125L22.6562 31.6875C21.9618 31.4097 21.4146 31.1236 21.0146 30.8292C20.6146 30.5347 20.4153 30.2306 20.4167 29.9167C20.4167 29.5 20.7292 29.0833 21.3542 28.6667C21.9792 28.25 23.2986 27.6076 25.3125 26.7396C28.3681 25.4201 30.3993 24.2222 31.4062 23.1458C32.4132 22.0694 32.9167 20.8542 32.9167 19.5C32.9167 17.5903 32.1528 16.0715 30.625 14.9437C29.0972 13.816 27.0833 13.2514 24.5833 13.25C23.0208 13.25 21.6229 13.5278 20.3896 14.0833C19.1562 14.6389 18.2104 15.316 17.5521 16.1146C17.1701 16.566 17.0139 17.0694 17.0833 17.625C17.1528 18.1806 17.4132 18.6319 17.8646 18.9792C18.316 19.3611 18.8194 19.5174 19.375 19.4479C19.9306 19.3785 20.3993 19.1528 20.7813 18.7708C21.2674 18.2847 21.8056 17.9375 22.3958 17.7292C22.9861 17.5208 23.7153 17.4167 24.5833 17.4167C26.0069 17.4167 27.0576 17.625 27.7354 18.0417C28.4132 18.4583 28.7514 18.9444 28.75 19.5C28.75 19.9861 28.4465 20.4285 27.8396 20.8271C27.2326 21.2257 25.8347 21.9292 23.6458 22.9375C20.8681 24.1528 18.941 25.2556 17.8646 26.2458C16.7882 27.2361 16.25 28.4597 16.25 29.9167C16.25 31.0278 16.5451 31.9743 17.1354 32.7562C17.7257 33.5382 18.5243 34.2236 19.5312 34.8125Z" fill="#4663D1"/>
<defs>
<linearGradient id="paint0_linear_2277_1426" x1="35" y1="0" x2="35" y2="57" gradientUnits="userSpaceOnUse">
<stop stop-color="#6989FF"/>
<stop offset="1" stop-color="#B1C2FF" stop-opacity="0"/>
</linearGradient>
<linearGradient id="paint1_linear_2277_1426" x1="35" y1="0" x2="35" y2="57" gradientUnits="userSpaceOnUse">
<stop stop-color="white"/>
<stop offset="1" stop-color="#999999" stop-opacity="0"/>
</linearGradient>
</defs>
</svg>
