<svg width="872" height="872" viewBox="0 0 872 872" fill="none" xmlns="http://www.w3.org/2000/svg">
<g filter="url(#filter0_d_2121_230)">
<path d="M303 496L433 280L569 496H303Z" stroke="white" stroke-width="4" shape-rendering="crispEdges"/>
</g>
<path d="M410.356 388.5V380.65L403.581 370.5H406.781L412.506 379.45H411.131L416.856 370.5H419.781L413.006 380.65V388.5H410.356ZM425.129 388.75C423.829 388.75 422.687 388.467 421.704 387.9C420.721 387.317 419.954 386.525 419.404 385.525C418.854 384.508 418.579 383.358 418.579 382.075C418.579 380.775 418.854 379.633 419.404 378.65C419.971 377.667 420.737 376.9 421.704 376.35C422.687 375.783 423.829 375.5 425.129 375.5C426.446 375.5 427.596 375.783 428.579 376.35C429.562 376.9 430.321 377.667 430.854 378.65C431.404 379.633 431.679 380.775 431.679 382.075C431.679 383.358 431.404 384.508 430.854 385.525C430.321 386.525 429.562 387.317 428.579 387.9C427.596 388.467 426.446 388.75 425.129 388.75ZM425.129 386.625C425.912 386.625 426.587 386.433 427.154 386.05C427.737 385.667 428.196 385.133 428.529 384.45C428.862 383.767 429.029 382.967 429.029 382.05C429.029 380.683 428.662 379.608 427.929 378.825C427.212 378.025 426.279 377.625 425.129 377.625C423.996 377.625 423.062 378.025 422.329 378.825C421.612 379.625 421.254 380.7 421.254 382.05C421.254 382.967 421.412 383.767 421.729 384.45C422.062 385.133 422.521 385.667 423.104 386.05C423.704 386.433 424.379 386.625 425.129 386.625ZM438.499 388.75C437.649 388.75 436.899 388.575 436.249 388.225C435.599 387.858 435.091 387.358 434.724 386.725C434.374 386.092 434.199 385.367 434.199 384.55V375.75H436.799V383.95C436.799 384.833 437.016 385.492 437.449 385.925C437.883 386.358 438.499 386.575 439.299 386.575C440.016 386.575 440.649 386.408 441.199 386.075C441.766 385.742 442.208 385.283 442.524 384.7C442.858 384.1 443.024 383.408 443.024 382.625L443.349 385.675C442.933 386.608 442.291 387.358 441.424 387.925C440.574 388.475 439.599 388.75 438.499 388.75ZM443.124 388.5V385.5H443.024V375.75H445.599V388.5H443.124ZM449.242 388.5V375.75H451.717V378.925H451.842V388.5H449.242ZM451.842 381.85L451.517 378.825C451.817 377.742 452.334 376.917 453.067 376.35C453.8 375.783 454.675 375.5 455.692 375.5C456.075 375.5 456.342 375.533 456.492 375.6V378.05C456.409 378.017 456.292 378 456.142 378C455.992 377.983 455.809 377.975 455.592 377.975C454.342 377.975 453.4 378.3 452.767 378.95C452.15 379.6 451.842 380.567 451.842 381.85ZM389.545 419.75C388.245 419.75 387.104 419.467 386.12 418.9C385.137 418.317 384.37 417.525 383.82 416.525C383.27 415.508 382.995 414.358 382.995 413.075C382.995 411.775 383.27 410.633 383.82 409.65C384.387 408.667 385.154 407.9 386.12 407.35C387.104 406.783 388.245 406.5 389.545 406.5C390.862 406.5 392.012 406.783 392.995 407.35C393.979 407.9 394.737 408.667 395.27 409.65C395.82 410.633 396.095 411.775 396.095 413.075C396.095 414.358 395.82 415.508 395.27 416.525C394.737 417.525 393.979 418.317 392.995 418.9C392.012 419.467 390.862 419.75 389.545 419.75ZM389.545 417.625C390.329 417.625 391.004 417.433 391.57 417.05C392.154 416.667 392.612 416.133 392.945 415.45C393.279 414.767 393.445 413.967 393.445 413.05C393.445 411.683 393.079 410.608 392.345 409.825C391.629 409.025 390.695 408.625 389.545 408.625C388.412 408.625 387.479 409.025 386.745 409.825C386.029 410.625 385.67 411.7 385.67 413.05C385.67 413.967 385.829 414.767 386.145 415.45C386.479 416.133 386.937 416.667 387.52 417.05C388.12 417.433 388.795 417.625 389.545 417.625ZM398.766 419.5V406.75H401.241V409.75H401.366V419.5H398.766ZM407.816 419.5V411.3C407.816 410.417 407.591 409.758 407.141 409.325C406.708 408.892 406.058 408.675 405.191 408.675C404.441 408.675 403.774 408.842 403.191 409.175C402.624 409.508 402.174 409.967 401.841 410.55C401.524 411.133 401.366 411.825 401.366 412.625L401.041 409.575C401.458 408.625 402.099 407.875 402.966 407.325C403.833 406.775 404.841 406.5 405.991 406.5C407.358 406.5 408.433 406.883 409.216 407.65C409.999 408.417 410.391 409.433 410.391 410.7V419.5H407.816ZM419.427 419.75C418.144 419.75 417.01 419.467 416.027 418.9C415.06 418.333 414.302 417.55 413.752 416.55C413.202 415.55 412.927 414.4 412.927 413.1C412.927 411.783 413.194 410.633 413.727 409.65C414.277 408.65 415.044 407.875 416.027 407.325C417.01 406.775 418.135 406.5 419.402 406.5C420.635 406.5 421.702 406.767 422.602 407.3C423.519 407.817 424.219 408.542 424.702 409.475C425.202 410.408 425.452 411.517 425.452 412.8C425.452 413 425.444 413.192 425.427 413.375C425.427 413.542 425.41 413.717 425.377 413.9H414.677V411.95H423.552L422.902 412.725C422.902 411.358 422.594 410.317 421.977 409.6C421.36 408.883 420.502 408.525 419.402 408.525C418.219 408.525 417.277 408.933 416.577 409.75C415.894 410.55 415.552 411.667 415.552 413.1C415.552 414.55 415.894 415.683 416.577 416.5C417.277 417.317 418.244 417.725 419.477 417.725C420.227 417.725 420.877 417.575 421.427 417.275C421.977 416.958 422.385 416.5 422.652 415.9H425.102C424.685 417.1 423.977 418.042 422.977 418.725C421.994 419.408 420.81 419.75 419.427 419.75ZM437.643 419.75C435.977 419.75 434.652 419.383 433.668 418.65C432.685 417.917 432.127 416.883 431.993 415.55H434.393C434.51 416.283 434.843 416.85 435.393 417.25C435.96 417.633 436.727 417.825 437.693 417.825C438.543 417.825 439.193 417.675 439.643 417.375C440.093 417.075 440.318 416.65 440.318 416.1C440.318 415.7 440.185 415.367 439.918 415.1C439.668 414.817 439.168 414.583 438.418 414.4L436.368 413.925C435.085 413.608 434.127 413.142 433.493 412.525C432.877 411.892 432.568 411.117 432.568 410.2C432.568 409.05 432.993 408.15 433.843 407.5C434.71 406.833 435.893 406.5 437.393 406.5C438.877 406.5 440.068 406.833 440.968 407.5C441.885 408.167 442.402 409.1 442.518 410.3H440.118C440.018 409.7 439.727 409.242 439.243 408.925C438.777 408.592 438.135 408.425 437.318 408.425C436.552 408.425 435.96 408.567 435.543 408.85C435.143 409.117 434.943 409.492 434.943 409.975C434.943 410.375 435.093 410.708 435.393 410.975C435.71 411.242 436.227 411.467 436.943 411.65L439.043 412.175C440.26 412.475 441.177 412.967 441.793 413.65C442.41 414.317 442.718 415.125 442.718 416.075C442.718 417.225 442.268 418.125 441.368 418.775C440.485 419.425 439.243 419.75 437.643 419.75ZM450.529 419.75C449.045 419.75 447.954 419.408 447.254 418.725C446.57 418.025 446.229 417 446.229 415.65V403.825L448.804 402.85V415.675C448.804 416.342 448.979 416.833 449.329 417.15C449.679 417.467 450.245 417.625 451.029 417.625C451.329 417.625 451.595 417.6 451.829 417.55C452.062 417.5 452.262 417.442 452.429 417.375V419.475C452.245 419.558 451.987 419.625 451.654 419.675C451.32 419.725 450.945 419.75 450.529 419.75ZM443.679 408.825V406.75H452.429V408.825H443.679ZM460.102 419.75C458.802 419.75 457.66 419.467 456.677 418.9C455.694 418.317 454.927 417.525 454.377 416.525C453.827 415.508 453.552 414.358 453.552 413.075C453.552 411.775 453.827 410.633 454.377 409.65C454.944 408.667 455.71 407.9 456.677 407.35C457.66 406.783 458.802 406.5 460.102 406.5C461.419 406.5 462.569 406.783 463.552 407.35C464.535 407.9 465.294 408.667 465.827 409.65C466.377 410.633 466.652 411.775 466.652 413.075C466.652 414.358 466.377 415.508 465.827 416.525C465.294 417.525 464.535 418.317 463.552 418.9C462.569 419.467 461.419 419.75 460.102 419.75ZM460.102 417.625C460.885 417.625 461.56 417.433 462.127 417.05C462.71 416.667 463.169 416.133 463.502 415.45C463.835 414.767 464.002 413.967 464.002 413.05C464.002 411.683 463.635 410.608 462.902 409.825C462.185 409.025 461.252 408.625 460.102 408.625C458.969 408.625 458.035 409.025 457.302 409.825C456.585 410.625 456.227 411.7 456.227 413.05C456.227 413.967 456.385 414.767 456.702 415.45C457.035 416.133 457.494 416.667 458.077 417.05C458.677 417.433 459.352 417.625 460.102 417.625ZM476.123 419.725C474.923 419.725 473.923 419.442 473.123 418.875C472.339 418.292 471.823 417.483 471.573 416.45L471.923 416.4V424.625H469.323V406.75H471.798V409.675L471.548 409.6C471.814 408.633 472.381 407.875 473.248 407.325C474.114 406.775 475.131 406.5 476.298 406.5C477.448 406.5 478.439 406.775 479.273 407.325C480.123 407.875 480.773 408.642 481.223 409.625C481.689 410.608 481.923 411.758 481.923 413.075C481.923 414.408 481.681 415.575 481.198 416.575C480.714 417.575 480.039 418.35 479.173 418.9C478.306 419.45 477.289 419.725 476.123 419.725ZM475.573 417.575C476.706 417.575 477.606 417.175 478.273 416.375C478.939 415.575 479.273 414.475 479.273 413.075C479.273 411.692 478.939 410.617 478.273 409.85C477.606 409.067 476.698 408.675 475.548 408.675C474.414 408.675 473.506 409.075 472.823 409.875C472.156 410.658 471.823 411.75 471.823 413.15C471.823 414.517 472.156 415.6 472.823 416.4C473.506 417.183 474.423 417.575 475.573 417.575ZM388.986 450.75C387.319 450.75 385.994 450.383 385.011 449.65C384.028 448.917 383.469 447.883 383.336 446.55H385.736C385.853 447.283 386.186 447.85 386.736 448.25C387.303 448.633 388.069 448.825 389.036 448.825C389.886 448.825 390.536 448.675 390.986 448.375C391.436 448.075 391.661 447.65 391.661 447.1C391.661 446.7 391.528 446.367 391.261 446.1C391.011 445.817 390.511 445.583 389.761 445.4L387.711 444.925C386.428 444.608 385.469 444.142 384.836 443.525C384.219 442.892 383.911 442.117 383.911 441.2C383.911 440.05 384.336 439.15 385.186 438.5C386.053 437.833 387.236 437.5 388.736 437.5C390.219 437.5 391.411 437.833 392.311 438.5C393.228 439.167 393.744 440.1 393.861 441.3H391.461C391.361 440.7 391.069 440.242 390.586 439.925C390.119 439.592 389.478 439.425 388.661 439.425C387.894 439.425 387.303 439.567 386.886 439.85C386.486 440.117 386.286 440.492 386.286 440.975C386.286 441.375 386.436 441.708 386.736 441.975C387.053 442.242 387.569 442.467 388.286 442.65L390.386 443.175C391.603 443.475 392.519 443.967 393.136 444.65C393.753 445.317 394.061 446.125 394.061 447.075C394.061 448.225 393.611 449.125 392.711 449.775C391.828 450.425 390.586 450.75 388.986 450.75ZM402.46 450.75C401.16 450.75 400.019 450.467 399.035 449.9C398.052 449.317 397.285 448.525 396.735 447.525C396.185 446.508 395.91 445.358 395.91 444.075C395.91 442.775 396.185 441.633 396.735 440.65C397.302 439.667 398.069 438.9 399.035 438.35C400.019 437.783 401.16 437.5 402.46 437.5C403.777 437.5 404.927 437.783 405.91 438.35C406.894 438.9 407.652 439.667 408.185 440.65C408.735 441.633 409.01 442.775 409.01 444.075C409.01 445.358 408.735 446.508 408.185 447.525C407.652 448.525 406.894 449.317 405.91 449.9C404.927 450.467 403.777 450.75 402.46 450.75ZM402.46 448.625C403.244 448.625 403.919 448.433 404.485 448.05C405.069 447.667 405.527 447.133 405.86 446.45C406.194 445.767 406.36 444.967 406.36 444.05C406.36 442.683 405.994 441.608 405.26 440.825C404.544 440.025 403.61 439.625 402.46 439.625C401.327 439.625 400.394 440.025 399.66 440.825C398.944 441.625 398.585 442.7 398.585 444.05C398.585 444.967 398.744 445.767 399.06 446.45C399.394 447.133 399.852 447.667 400.435 448.05C401.035 448.433 401.71 448.625 402.46 448.625ZM411.681 450.5V432.5H414.281V450.5H411.681ZM422.081 450.75C421.231 450.75 420.481 450.575 419.831 450.225C419.181 449.858 418.673 449.358 418.306 448.725C417.956 448.092 417.781 447.367 417.781 446.55V437.75H420.381V445.95C420.381 446.833 420.598 447.492 421.031 447.925C421.464 448.358 422.081 448.575 422.881 448.575C423.598 448.575 424.231 448.408 424.781 448.075C425.348 447.742 425.789 447.283 426.106 446.7C426.439 446.1 426.606 445.408 426.606 444.625L426.931 447.675C426.514 448.608 425.873 449.358 425.006 449.925C424.156 450.475 423.181 450.75 422.081 450.75ZM426.706 450.5V447.5H426.606V437.75H429.181V450.5H426.706ZM438.126 450.75C436.643 450.75 435.551 450.408 434.851 449.725C434.168 449.025 433.826 448 433.826 446.65V434.825L436.401 433.85V446.675C436.401 447.342 436.576 447.833 436.926 448.15C437.276 448.467 437.843 448.625 438.626 448.625C438.926 448.625 439.193 448.6 439.426 448.55C439.66 448.5 439.86 448.442 440.026 448.375V450.475C439.843 450.558 439.585 450.625 439.251 450.675C438.918 450.725 438.543 450.75 438.126 450.75ZM431.276 439.825V437.75H440.026V439.825H431.276ZM442.443 450.5V437.75H445.043V450.5H442.443ZM442.318 435.25V432.325H445.193V435.25H442.318ZM454.194 450.75C452.894 450.75 451.752 450.467 450.769 449.9C449.786 449.317 449.019 448.525 448.469 447.525C447.919 446.508 447.644 445.358 447.644 444.075C447.644 442.775 447.919 441.633 448.469 440.65C449.036 439.667 449.802 438.9 450.769 438.35C451.752 437.783 452.894 437.5 454.194 437.5C455.511 437.5 456.661 437.783 457.644 438.35C458.627 438.9 459.386 439.667 459.919 440.65C460.469 441.633 460.744 442.775 460.744 444.075C460.744 445.358 460.469 446.508 459.919 447.525C459.386 448.525 458.627 449.317 457.644 449.9C456.661 450.467 455.511 450.75 454.194 450.75ZM454.194 448.625C454.977 448.625 455.652 448.433 456.219 448.05C456.802 447.667 457.261 447.133 457.594 446.45C457.927 445.767 458.094 444.967 458.094 444.05C458.094 442.683 457.727 441.608 456.994 440.825C456.277 440.025 455.344 439.625 454.194 439.625C453.061 439.625 452.127 440.025 451.394 440.825C450.677 441.625 450.319 442.7 450.319 444.05C450.319 444.967 450.477 445.767 450.794 446.45C451.127 447.133 451.586 447.667 452.169 448.05C452.769 448.433 453.444 448.625 454.194 448.625ZM463.414 450.5V437.75H465.889V440.75H466.014V450.5H463.414ZM472.464 450.5V442.3C472.464 441.417 472.239 440.758 471.789 440.325C471.356 439.892 470.706 439.675 469.839 439.675C469.089 439.675 468.423 439.842 467.839 440.175C467.273 440.508 466.823 440.967 466.489 441.55C466.173 442.133 466.014 442.825 466.014 443.625L465.689 440.575C466.106 439.625 466.748 438.875 467.614 438.325C468.481 437.775 469.489 437.5 470.639 437.5C472.006 437.5 473.081 437.883 473.864 438.65C474.648 439.417 475.039 440.433 475.039 441.7V450.5H472.464ZM477.598 450.5V447.4H480.673V450.5H477.598Z" fill="#4B336D"/>
<g filter="url(#filter1_d_2121_230)">
<mask id="path-3-inside-1_2121_230" fill="white">
<path d="M436 16C661.332 16 844 198.668 844 424C844 649.332 661.332 832 436 832C210.668 832 28 649.332 28 424C28 198.668 210.668 16 436 16ZM435.585 201.304C312.823 201.304 213.304 300.823 213.304 423.585C213.304 546.347 312.823 645.865 435.585 645.865C558.347 645.865 657.865 546.347 657.865 423.585C657.865 300.823 558.347 201.304 435.585 201.304Z"/>
</mask>
<path d="M436 16C661.332 16 844 198.668 844 424C844 649.332 661.332 832 436 832C210.668 832 28 649.332 28 424C28 198.668 210.668 16 436 16ZM435.585 201.304C312.823 201.304 213.304 300.823 213.304 423.585C213.304 546.347 312.823 645.865 435.585 645.865C558.347 645.865 657.865 546.347 657.865 423.585C657.865 300.823 558.347 201.304 435.585 201.304Z" fill="url(#paint0_linear_2121_230)" fill-opacity="0.8" shape-rendering="crispEdges"/>
<path d="M435.585 201.304V198.304V201.304ZM213.304 423.585H210.304H213.304ZM435.585 645.865V648.865V645.865ZM657.865 423.585H660.865H657.865ZM436 16V19C659.675 19 841 200.325 841 424H844H847C847 197.011 662.989 13 436 13V16ZM844 424H841C841 647.675 659.675 829 436 829V832V835C662.989 835 847 650.989 847 424H844ZM436 832V829C212.325 829 31 647.675 31 424H28H25C25 650.989 209.011 835 436 835V832ZM28 424H31C31 200.325 212.325 19 436 19V16V13C209.011 13 25 197.011 25 424H28ZM435.585 201.304V198.304C311.166 198.304 210.304 299.166 210.304 423.585H213.304H216.304C216.304 302.479 314.479 204.304 435.585 204.304V201.304ZM213.304 423.585H210.304C210.304 548.004 311.166 648.865 435.585 648.865V645.865V642.865C314.48 642.865 216.304 544.69 216.304 423.585H213.304ZM435.585 645.865V648.865C560.004 648.865 660.865 548.004 660.865 423.585H657.865H654.865C654.865 544.69 556.69 642.865 435.585 642.865V645.865ZM657.865 423.585H660.865C660.865 299.166 560.004 198.304 435.585 198.304V201.304V204.304C556.69 204.304 654.865 302.48 654.865 423.585H657.865Z" fill="white" mask="url(#path-3-inside-1_2121_230)"/>
</g>
<defs>
<filter id="filter0_d_2121_230" x="294.463" y="276.186" width="283.16" height="232.814" filterUnits="userSpaceOnUse" color-interpolation-filters="sRGB">
<feFlood flood-opacity="0" result="BackgroundImageFix"/>
<feColorMatrix in="SourceAlpha" type="matrix" values="0 0 0 0 0 0 0 0 0 0 0 0 0 0 0 0 0 0 127 0" result="hardAlpha"/>
<feOffset dy="6"/>
<feGaussianBlur stdDeviation="2.5"/>
<feComposite in2="hardAlpha" operator="out"/>
<feColorMatrix type="matrix" values="0 0 0 0 0 0 0 0 0 0 0 0 0 0 0 0 0 0 0.46 0"/>
<feBlend mode="normal" in2="BackgroundImageFix" result="effect1_dropShadow_2121_230"/>
<feBlend mode="normal" in="SourceGraphic" in2="effect1_dropShadow_2121_230" result="shape"/>
</filter>
<filter id="filter1_d_2121_230" x="0.4" y="0.4" width="871.2" height="871.2" filterUnits="userSpaceOnUse" color-interpolation-filters="sRGB">
<feFlood flood-opacity="0" result="BackgroundImageFix"/>
<feColorMatrix in="SourceAlpha" type="matrix" values="0 0 0 0 0 0 0 0 0 0 0 0 0 0 0 0 0 0 127 0" result="hardAlpha"/>
<feOffset dy="12"/>
<feGaussianBlur stdDeviation="13.8"/>
<feComposite in2="hardAlpha" operator="out"/>
<feColorMatrix type="matrix" values="0 0 0 0 0 0 0 0 0 0 0 0 0 0 0 0 0 0 0.25 0"/>
<feBlend mode="normal" in2="BackgroundImageFix" result="effect1_dropShadow_2121_230"/>
<feBlend mode="normal" in="SourceGraphic" in2="effect1_dropShadow_2121_230" result="shape"/>
</filter>
<linearGradient id="paint0_linear_2121_230" x1="231.169" y1="-25.1324" x2="598.037" y2="902.631" gradientUnits="userSpaceOnUse">
<stop stop-color="#83A1FF"/>
<stop offset="0.5" stop-color="#674CD5"/>
<stop offset="1" stop-color="#FFAD12"/>
</linearGradient>
</defs>
</svg>
