<svg width="272" height="722" viewBox="0 0 272 722" fill="none" xmlns="http://www.w3.org/2000/svg">
<path d="M-126.138 53.2153C-144.491 63.313 -151.589 86.1053 -142.215 104.838L30.197 449.371C39.6114 468.184 32.4085 491.073 13.9174 501.104L-85.8912 555.25C-104.308 565.241 -111.539 587.999 -102.268 606.788L-56.3581 699.832C-46.5654 719.678 -22.2393 727.408 -2.78662 716.855L127.896 645.959C128.187 645.801 128.552 645.916 128.7 646.212C128.849 646.51 129.215 646.624 129.507 646.464L251.138 579.542C269.491 569.445 276.589 546.653 267.215 527.92L14.1749 22.2647C4.26887 2.46922 -20.1079 -5.1224 -39.5019 5.54818L-126.138 53.2153Z" fill="url(#paint0_linear_2272_1096)" fill-opacity="0.6"/>
<defs>
<linearGradient id="paint0_linear_2272_1096" x1="62.5" y1="-14" x2="62.5" y2="736.187" gradientUnits="userSpaceOnUse">
<stop stop-color="#466FFF"/>
<stop offset="1" stop-color="#B7C5F7"/>
</linearGradient>
</defs>
</svg>
