<svg width="344" height="744" viewBox="0 0 344 744" fill="none" xmlns="http://www.w3.org/2000/svg">
<path d="M351.704 741.009C353.221 743.316 356.515 744.321 359.062 743.255L532.514 670.614C545.361 665.234 549.507 649.066 540.834 638.168L236.013 255.125C226.482 243.147 232.555 225.324 247.417 221.659L476.76 165.107C490.777 161.65 497.207 145.408 489.354 133.294L409.204 9.6516C403.699 1.15981 392.921 -2.19819 383.567 1.66433L185.72 83.3623C184.194 83.9925 182.684 84.6391 181.19 85.3001C180.821 85.4631 180.388 85.3365 180.167 84.9996C179.949 84.6686 179.527 84.5396 179.162 84.6925L31.4636 146.547C0.898666 159.347 -9.12202 192.171 9.0818 219.86L351.704 741.009Z" fill="url(#paint0_linear_2272_1095)"/>
<defs>
<linearGradient id="paint0_linear_2272_1095" x1="267.121" y1="745.187" x2="267.121" y2="-5" gradientUnits="userSpaceOnUse">
<stop stop-color="#466FFF"/>
<stop offset="1" stop-color="#B7C5F7"/>
</linearGradient>
</defs>
</svg>
