<svg width="192" height="239" viewBox="0 0 192 239" fill="none" xmlns="http://www.w3.org/2000/svg">
<g filter="url(#filter0_d_2251_1166)">
<mask id="path-1-inside-1_2251_1166" fill="white">
<path d="M135.71 13C144.473 13.0002 151.576 20.1043 151.576 28.8672V82.0205H160.303C169.066 82.0205 176.17 89.1247 176.17 97.8877V204.195C176.17 212.958 169.066 220.062 160.303 220.062H31.7822C23.0193 220.062 15.9151 212.958 15.915 204.195V97.8877C15.915 89.1247 23.0192 82.0205 31.7822 82.0205H39.7148V28.8672C39.7148 20.1042 46.8191 13 55.582 13H135.71Z"/>
</mask>
<path d="M135.71 13C144.473 13.0002 151.576 20.1043 151.576 28.8672V82.0205H160.303C169.066 82.0205 176.17 89.1247 176.17 97.8877V204.195C176.17 212.958 169.066 220.062 160.303 220.062H31.7822C23.0193 220.062 15.9151 212.958 15.915 204.195V97.8877C15.915 89.1247 23.0192 82.0205 31.7822 82.0205H39.7148V28.8672C39.7148 20.1042 46.8191 13 55.582 13H135.71Z" fill="#FDF9EE"/>
<path d="M135.71 13L135.71 10.62H135.71V13ZM151.576 82.0205H149.196V84.4005H151.576V82.0205ZM176.17 204.195L178.55 204.195V204.195H176.17ZM15.915 204.195L13.535 204.195L13.535 204.195L15.915 204.195ZM39.7148 82.0205V84.4005H42.0949V82.0205H39.7148ZM55.582 13L55.582 10.62L55.582 10.62L55.582 13ZM135.71 13L135.71 15.38C143.158 15.3802 149.196 21.4187 149.196 28.8672H151.576H153.956C153.956 18.79 145.787 10.6202 135.71 10.62L135.71 13ZM151.576 28.8672H149.196V82.0205H151.576H153.956V28.8672H151.576ZM151.576 82.0205V84.4005H160.303V82.0205V79.6405H151.576V82.0205ZM160.303 82.0205V84.4005C167.751 84.4005 173.79 90.4391 173.79 97.8877H176.17H178.55C178.55 87.8102 170.38 79.6405 160.303 79.6405V82.0205ZM176.17 97.8877H173.79V204.195H176.17H178.55V97.8877H176.17ZM176.17 204.195L173.79 204.195C173.79 211.644 167.751 217.682 160.303 217.682V220.062V222.442C170.38 222.442 178.55 214.273 178.55 204.195L176.17 204.195ZM160.303 220.062V217.682H31.7822V220.062V222.442H160.303V220.062ZM31.7822 220.062V217.682C24.3335 217.682 18.2951 211.644 18.2951 204.195L15.915 204.195L13.535 204.195C13.5351 214.273 21.705 222.442 31.7822 222.442V220.062ZM15.915 204.195H18.2951V97.8877H15.915H13.535V204.195H15.915ZM15.915 97.8877H18.2951C18.2951 90.4391 24.3337 84.4005 31.7822 84.4005V82.0205V79.6405C21.7048 79.6405 13.535 87.8102 13.535 97.8877H15.915ZM31.7822 82.0205V84.4005H39.7148V82.0205V79.6405H31.7822V82.0205ZM39.7148 82.0205H42.0949V28.8672H39.7148H37.3348V82.0205H39.7148ZM39.7148 28.8672H42.0949C42.0949 21.4187 48.1335 15.38 55.582 15.38L55.582 13L55.582 10.62C45.5046 10.62 37.3348 18.7897 37.3348 28.8672H39.7148ZM55.582 13V15.38H135.71V13V10.62H55.582V13Z" fill="white" mask="url(#path-1-inside-1_2251_1166)"/>
</g>
<path d="M55.4216 144.902C53.3589 144.902 51.7088 144.41 50.4712 143.426C49.2336 142.443 48.5116 141.038 48.3054 139.214H50.7568C50.8996 140.404 51.3756 141.308 52.1848 141.927C52.994 142.546 54.0888 142.855 55.4692 142.855C56.6275 142.855 57.5002 142.641 58.0873 142.213C58.6902 141.784 58.9917 141.173 58.9917 140.38C58.9917 139.666 58.7933 139.103 58.3967 138.69C58 138.262 57.3733 137.913 56.5164 137.643L53.5414 136.691C52.0182 136.199 50.8996 135.58 50.1856 134.834C49.4716 134.089 49.1146 133.145 49.1146 132.002C49.1146 131.034 49.3526 130.201 49.8286 129.503C50.3204 128.805 51.0027 128.266 51.8754 127.885C52.7639 127.488 53.7953 127.29 54.9694 127.29C56.7782 127.29 58.2221 127.75 59.3011 128.67C60.3959 129.575 61.0226 130.836 61.1813 132.454H58.7299C58.5395 131.375 58.1269 130.59 57.4923 130.098C56.8576 129.59 55.9849 129.337 54.8742 129.337C53.827 129.337 53.0099 129.543 52.4228 129.955C51.8357 130.368 51.5422 130.947 51.5422 131.693C51.5422 132.296 51.7326 132.803 52.1134 133.216C52.5101 133.613 53.1606 133.954 54.065 134.239L57.1828 135.239C58.6267 135.699 59.6898 136.326 60.3721 137.119C61.0702 137.913 61.4193 138.912 61.4193 140.118C61.4193 141.641 60.8957 142.823 59.8485 143.664C58.8013 144.489 57.3257 144.902 55.4216 144.902ZM69.2518 144.926C68.0142 144.926 66.9273 144.656 65.9912 144.117C65.055 143.561 64.3251 142.808 63.8015 141.856C63.2779 140.888 63.0161 139.793 63.0161 138.571C63.0161 137.333 63.2779 136.247 63.8015 135.31C64.341 134.374 65.0709 133.644 65.9912 133.121C66.9273 132.581 68.0142 132.312 69.2518 132.312C70.5053 132.312 71.6001 132.581 72.5362 133.121C73.4724 133.644 74.1943 134.374 74.702 135.31C75.2257 136.247 75.4875 137.333 75.4875 138.571C75.4875 139.793 75.2257 140.888 74.702 141.856C74.1943 142.808 73.4724 143.561 72.5362 144.117C71.6001 144.656 70.5053 144.926 69.2518 144.926ZM69.2518 142.903C69.9975 142.903 70.6401 142.72 71.1796 142.355C71.735 141.99 72.1713 141.483 72.4886 140.832C72.806 140.182 72.9646 139.42 72.9646 138.547C72.9646 137.246 72.6156 136.223 71.9174 135.477C71.2351 134.715 70.3466 134.335 69.2518 134.335C68.1729 134.335 67.2843 134.715 66.5862 135.477C65.9039 136.239 65.5628 137.262 65.5628 138.547C65.5628 139.42 65.7135 140.182 66.015 140.832C66.3323 141.483 66.7686 141.99 67.324 142.355C67.8952 142.72 68.5378 142.903 69.2518 142.903ZM78.8429 144.688V131.145C78.8429 129.908 79.192 128.964 79.8901 128.313C80.5883 127.647 81.6355 127.314 83.0318 127.314C83.3491 127.314 83.6109 127.329 83.8172 127.361C84.0234 127.393 84.2059 127.441 84.3646 127.504V129.408C84.2535 129.376 84.1028 129.345 83.9124 129.313C83.7378 129.281 83.5395 129.265 83.3174 129.265C82.6192 129.265 82.1115 129.44 81.7941 129.789C81.4768 130.122 81.3181 130.598 81.3181 131.217V144.688H78.8429ZM76.5105 134.525V132.55H84.1028V134.525H76.5105ZM91.8871 144.926C90.475 144.926 89.4357 144.6 88.7693 143.95C88.1187 143.284 87.7935 142.308 87.7935 141.023V129.765L90.2449 128.837V141.046C90.2449 141.681 90.4115 142.149 90.7447 142.451C91.0779 142.752 91.6174 142.903 92.3631 142.903C92.6487 142.903 92.9026 142.879 93.1247 142.831C93.3469 142.784 93.5373 142.728 93.6959 142.665V144.664C93.5214 144.743 93.2755 144.807 92.9581 144.854C92.6408 144.902 92.2838 144.926 91.8871 144.926ZM85.3659 134.525V132.55H93.6959V134.525H85.3659ZM98.5417 144.688L94.8289 132.55H97.3755L99.8983 142.308H99.5413L102.612 132.55H104.754L107.824 142.308H107.491L109.99 132.55H112.417L108.704 144.688H106.539L103.468 135.096H103.825L100.708 144.688H98.5417ZM121.809 144.688C121.73 144.386 121.674 144.053 121.642 143.688C121.626 143.323 121.618 142.879 121.618 142.355H121.499V136.572C121.499 135.794 121.301 135.215 120.904 134.834C120.524 134.438 119.913 134.239 119.072 134.239C118.263 134.239 117.612 134.398 117.12 134.715C116.644 135.033 116.367 135.485 116.287 136.072H113.931C114.042 134.93 114.558 134.017 115.478 133.335C116.398 132.653 117.628 132.312 119.167 132.312C120.754 132.312 121.944 132.684 122.737 133.43C123.53 134.16 123.927 135.239 123.927 136.667V142.355C123.927 142.72 123.951 143.093 123.998 143.474C124.046 143.855 124.117 144.259 124.213 144.688H121.809ZM117.62 144.926C116.382 144.926 115.399 144.624 114.669 144.021C113.939 143.403 113.574 142.57 113.574 141.522C113.574 140.443 113.955 139.594 114.716 138.976C115.494 138.341 116.605 137.913 118.048 137.69L122.047 137.048V138.785L118.429 139.356C117.62 139.483 117.009 139.698 116.597 139.999C116.2 140.301 116.002 140.737 116.002 141.308C116.002 141.863 116.184 142.284 116.549 142.57C116.93 142.839 117.477 142.974 118.191 142.974C119.143 142.974 119.929 142.744 120.547 142.284C121.182 141.824 121.499 141.245 121.499 140.547L121.809 142.308C121.523 143.149 121.016 143.799 120.286 144.259C119.556 144.704 118.667 144.926 117.62 144.926ZM127.28 144.688V132.55H129.637V135.572H129.756V144.688H127.28ZM129.756 138.357L129.446 135.477C129.732 134.446 130.224 133.66 130.922 133.121C131.62 132.581 132.453 132.312 133.421 132.312C133.786 132.312 134.04 132.343 134.183 132.407V134.739C134.103 134.708 133.992 134.692 133.849 134.692C133.707 134.676 133.532 134.668 133.326 134.668C132.136 134.668 131.239 134.977 130.636 135.596C130.049 136.215 129.756 137.135 129.756 138.357ZM141.279 144.926C140.057 144.926 138.978 144.656 138.042 144.117C137.122 143.577 136.4 142.831 135.876 141.879C135.353 140.927 135.091 139.832 135.091 138.595C135.091 137.341 135.345 136.247 135.852 135.31C136.376 134.358 137.106 133.621 138.042 133.097C138.978 132.573 140.049 132.312 141.255 132.312C142.429 132.312 143.445 132.565 144.302 133.073C145.174 133.565 145.841 134.255 146.301 135.144C146.777 136.032 147.015 137.088 147.015 138.309C147.015 138.5 147.007 138.682 146.991 138.857C146.991 139.015 146.975 139.182 146.943 139.356H136.757V137.5H145.206L144.587 138.238C144.587 136.937 144.294 135.945 143.707 135.263C143.119 134.581 142.302 134.239 141.255 134.239C140.129 134.239 139.232 134.628 138.566 135.406C137.915 136.167 137.59 137.23 137.59 138.595C137.59 139.975 137.915 141.054 138.566 141.832C139.232 142.609 140.152 142.998 141.327 142.998C142.041 142.998 142.659 142.855 143.183 142.57C143.707 142.268 144.095 141.832 144.349 141.261H146.682C146.285 142.403 145.611 143.299 144.659 143.95C143.722 144.6 142.596 144.926 141.279 144.926ZM36.9959 173.688V156.552H44.255C45.4926 156.552 46.5477 156.758 47.4204 157.17C48.2931 157.583 48.9595 158.17 49.4196 158.932C49.8956 159.693 50.1336 160.598 50.1336 161.645C50.1336 162.708 49.8956 163.628 49.4196 164.406C48.9595 165.167 48.2851 165.762 47.3966 166.191C46.5239 166.619 45.4767 166.833 44.255 166.833H38.9237V164.739H44.136C45.2625 164.739 46.1193 164.469 46.7064 163.93C47.3093 163.39 47.6108 162.637 47.6108 161.669C47.6108 160.685 47.3172 159.931 46.7302 159.408C46.1431 158.884 45.2784 158.622 44.136 158.622H39.5187V173.688H36.9959ZM52.7072 173.688V161.55H55.0634V164.572H55.1824V173.688H52.7072ZM55.1824 167.357L54.873 164.477C55.1586 163.446 55.6505 162.66 56.3486 162.121C57.0468 161.581 57.8798 161.312 58.8477 161.312C59.2126 161.312 59.4665 161.343 59.6093 161.407V163.739C59.5299 163.708 59.4189 163.692 59.2761 163.692C59.1333 163.676 58.9587 163.668 58.7525 163.668C57.5624 163.668 56.666 163.977 56.063 164.596C55.476 165.215 55.1824 166.135 55.1824 167.357ZM67.0321 173.926C65.7945 173.926 64.7077 173.656 63.7715 173.117C62.8354 172.561 62.1055 171.808 61.5819 170.856C61.0583 169.888 60.7965 168.793 60.7965 167.571C60.7965 166.333 61.0583 165.247 61.5819 164.31C62.1214 163.374 62.8512 162.644 63.7715 162.121C64.7077 161.581 65.7945 161.312 67.0321 161.312C68.2856 161.312 69.3804 161.581 70.3166 162.121C71.2527 162.644 71.9747 163.374 72.4824 164.31C73.006 165.247 73.2678 166.333 73.2678 167.571C73.2678 168.793 73.006 169.888 72.4824 170.856C71.9747 171.808 71.2527 172.561 70.3166 173.117C69.3804 173.656 68.2856 173.926 67.0321 173.926ZM67.0321 171.903C67.7779 171.903 68.4205 171.72 68.96 171.355C69.5153 170.99 69.9516 170.483 70.269 169.832C70.5863 169.182 70.745 168.42 70.745 167.547C70.745 166.246 70.3959 165.223 69.6978 164.477C69.0155 163.715 68.127 163.335 67.0321 163.335C65.9532 163.335 65.0647 163.715 64.3665 164.477C63.6842 165.239 63.3431 166.262 63.3431 167.547C63.3431 168.42 63.4938 169.182 63.7953 169.832C64.1126 170.483 64.549 170.99 65.1043 171.355C65.6755 171.72 66.3181 171.903 67.0321 171.903ZM76.6233 173.688V160.145C76.6233 158.908 76.9723 157.964 77.6705 157.313C78.3686 156.647 79.4158 156.314 80.8121 156.314C81.1294 156.314 81.3912 156.329 81.5975 156.361C81.8038 156.393 81.9862 156.441 82.1449 156.504V158.479C82.0339 158.448 81.8831 158.416 81.6927 158.384C81.5182 158.352 81.3198 158.337 81.0977 158.337C80.3996 158.337 79.8918 158.511 79.5745 158.86C79.2572 159.193 79.0985 159.669 79.0985 160.288V173.688H76.6233ZM84.3583 173.688V161.55H86.8098V173.688H84.3583ZM74.2908 163.62V161.55H85.3579V163.62H74.2908ZM84.2631 159.265V156.552H86.905V159.265H84.2631ZM94.9639 173.926C93.8057 173.926 92.7743 173.656 91.8699 173.117C90.9655 172.561 90.2515 171.808 89.7279 170.856C89.2202 169.904 88.9663 168.817 88.9663 167.595C88.9663 166.373 89.2202 165.294 89.7279 164.358C90.2515 163.406 90.9655 162.66 91.8699 162.121C92.7743 161.581 93.7977 161.312 94.9401 161.312C95.908 161.312 96.7728 161.494 97.5344 161.859C98.296 162.224 98.9227 162.732 99.4146 163.382C99.9065 164.033 100.224 164.802 100.367 165.691H98.0342C97.8755 164.977 97.5264 164.406 96.987 163.977C96.4634 163.549 95.797 163.335 94.9877 163.335C94.2896 163.335 93.6787 163.509 93.1551 163.858C92.6315 164.207 92.2269 164.699 91.9413 165.334C91.6557 165.969 91.5129 166.722 91.5129 167.595C91.5129 168.452 91.6557 169.205 91.9413 169.856C92.2269 170.506 92.6315 171.014 93.1551 171.379C93.6787 171.728 94.2975 171.903 95.0115 171.903C95.789 171.903 96.4475 171.696 96.987 171.284C97.5423 170.856 97.8993 170.284 98.058 169.57H100.39C100.232 170.443 99.8985 171.205 99.3908 171.855C98.8989 172.506 98.2722 173.013 97.5106 173.378C96.749 173.743 95.9001 173.926 94.9639 173.926ZM102.702 173.688V161.55H105.177V173.688H102.702ZM102.583 159.17V156.385H105.32V159.17H102.583ZM113.841 173.926C112.619 173.926 111.541 173.656 110.604 173.117C109.684 172.577 108.962 171.831 108.439 170.879C107.915 169.927 107.653 168.832 107.653 167.595C107.653 166.341 107.907 165.247 108.415 164.31C108.938 163.358 109.668 162.621 110.604 162.097C111.541 161.573 112.612 161.312 113.817 161.312C114.992 161.312 116.007 161.565 116.864 162.073C117.737 162.565 118.403 163.255 118.863 164.144C119.339 165.032 119.577 166.088 119.577 167.309C119.577 167.5 119.569 167.682 119.553 167.857C119.553 168.015 119.537 168.182 119.506 168.356H109.319V166.5H117.768L117.149 167.238C117.149 165.937 116.856 164.945 116.269 164.263C115.682 163.581 114.865 163.239 113.817 163.239C112.691 163.239 111.794 163.628 111.128 164.406C110.477 165.167 110.152 166.23 110.152 167.595C110.152 168.975 110.477 170.054 111.128 170.832C111.794 171.609 112.715 171.998 113.889 171.998C114.603 171.998 115.222 171.855 115.745 171.57C116.269 171.268 116.658 170.832 116.911 170.261H119.244C118.847 171.403 118.173 172.299 117.221 172.95C116.285 173.6 115.158 173.926 113.841 173.926ZM122.109 173.688V161.55H124.465V164.406H124.584V173.688H122.109ZM130.725 173.688V165.881C130.725 165.04 130.511 164.414 130.082 164.001C129.67 163.589 129.051 163.382 128.226 163.382C127.512 163.382 126.877 163.541 126.322 163.858C125.782 164.176 125.354 164.612 125.036 165.167C124.735 165.723 124.584 166.381 124.584 167.143L124.275 164.239C124.672 163.335 125.282 162.621 126.107 162.097C126.933 161.573 127.892 161.312 128.987 161.312C130.288 161.312 131.312 161.677 132.058 162.406C132.803 163.136 133.176 164.104 133.176 165.31V173.688H130.725ZM141.588 173.926C140.43 173.926 139.399 173.656 138.494 173.117C137.59 172.561 136.876 171.808 136.352 170.856C135.844 169.904 135.591 168.817 135.591 167.595C135.591 166.373 135.844 165.294 136.352 164.358C136.876 163.406 137.59 162.66 138.494 162.121C139.399 161.581 140.422 161.312 141.564 161.312C142.532 161.312 143.397 161.494 144.159 161.859C144.92 162.224 145.547 162.732 146.039 163.382C146.531 164.033 146.848 164.802 146.991 165.691H144.658C144.5 164.977 144.151 164.406 143.611 163.977C143.088 163.549 142.421 163.335 141.612 163.335C140.914 163.335 140.303 163.509 139.779 163.858C139.256 164.207 138.851 164.699 138.566 165.334C138.28 165.969 138.137 166.722 138.137 167.595C138.137 168.452 138.28 169.205 138.566 169.856C138.851 170.506 139.256 171.014 139.779 171.379C140.303 171.728 140.922 171.903 141.636 171.903C142.413 171.903 143.072 171.696 143.611 171.284C144.167 170.856 144.524 170.284 144.682 169.57H147.015C146.856 170.443 146.523 171.205 146.015 171.855C145.523 172.506 144.896 173.013 144.135 173.378C143.373 173.743 142.524 173.926 141.588 173.926ZM150.044 178.567L152.972 171.879L153.472 171.094L157.161 161.55H159.731L152.591 178.567H150.044ZM152.853 173.688L147.664 161.55H150.354L154.757 172.474L152.853 173.688Z" fill="#6436A4"/>
<g filter="url(#filter1_i_2251_1166)">
<path d="M101.614 61.5618C99.5726 60.5753 97.8198 59.0803 96.5237 57.2204H81.0296V34.7652H114.712V38.9943C116.227 40.0599 117.501 41.4303 118.455 43.0175V34.7652C118.455 33.7727 118.061 32.8207 117.359 32.1189C116.657 31.417 115.705 31.0227 114.712 31.0227H81.0296C80.0371 31.0227 79.0851 31.417 78.3833 32.1189C77.6814 32.8207 77.2871 33.7727 77.2871 34.7652V57.2204C77.2871 58.213 77.6814 59.1649 78.3833 59.8668C79.0851 60.5687 80.0371 60.963 81.0296 60.963H94.1285V64.7055H90.386V68.448H105.356V64.7055H101.614V61.5618Z" fill="#8E3FFD"/>
<path d="M107.228 38.5078C105.007 38.5078 102.836 39.1663 100.99 40.4C99.1435 41.6337 97.7044 43.3872 96.8547 45.4388C96.0049 47.4904 95.7825 49.7479 96.2157 51.9258C96.649 54.1037 97.7183 56.1043 99.2885 57.6745C100.859 59.2447 102.859 60.3141 105.037 60.7473C107.215 61.1805 109.473 60.9582 111.524 60.1084C113.576 59.2586 115.329 57.8195 116.563 55.9731C117.797 54.1268 118.455 51.956 118.455 49.7354C118.455 46.7577 117.272 43.9019 115.167 41.7963C113.061 39.6907 110.205 38.5078 107.228 38.5078ZM107.228 52.5423C106.672 52.5423 106.13 52.3777 105.668 52.0693C105.207 51.7608 104.847 51.3225 104.634 50.8096C104.422 50.2967 104.366 49.7323 104.475 49.1878C104.583 48.6433 104.85 48.1432 105.243 47.7506C105.635 47.3581 106.136 47.0907 106.68 46.9824C107.224 46.8741 107.789 46.9297 108.302 47.1422C108.815 47.3546 109.253 47.7144 109.561 48.176C109.87 48.6376 110.035 49.1803 110.035 49.7354C110.035 50.4798 109.739 51.1938 109.212 51.7202C108.686 52.2466 107.972 52.5423 107.228 52.5423Z" fill="#8E3FFD"/>
</g>
<defs>
<filter id="filter0_d_2251_1166" x="0.603559" y="0.861883" width="190.878" height="237.684" filterUnits="userSpaceOnUse" color-interpolation-filters="sRGB">
<feFlood flood-opacity="0" result="BackgroundImageFix"/>
<feColorMatrix in="SourceAlpha" type="matrix" values="0 0 0 0 0 0 0 0 0 0 0 0 0 0 0 0 0 0 127 0" result="hardAlpha"/>
<feOffset dy="3.17336"/>
<feGaussianBlur stdDeviation="7.65574"/>
<feComposite in2="hardAlpha" operator="out"/>
<feColorMatrix type="matrix" values="0 0 0 0 0.767415 0 0 0 0 0.601882 0 0 0 0 1 0 0 0 1 0"/>
<feBlend mode="normal" in2="BackgroundImageFix" result="effect1_dropShadow_2251_1166"/>
<feBlend mode="normal" in="SourceGraphic" in2="effect1_dropShadow_2251_1166" result="shape"/>
</filter>
<filter id="filter1_i_2251_1166" x="75.416" y="27.2803" width="44.9102" height="47.3056" filterUnits="userSpaceOnUse" color-interpolation-filters="sRGB">
<feFlood flood-opacity="0" result="BackgroundImageFix"/>
<feBlend mode="normal" in="SourceGraphic" in2="BackgroundImageFix" result="shape"/>
<feColorMatrix in="SourceAlpha" type="matrix" values="0 0 0 0 0 0 0 0 0 0 0 0 0 0 0 0 0 0 127 0" result="hardAlpha"/>
<feOffset dy="2.39522"/>
<feGaussianBlur stdDeviation="1.19761"/>
<feComposite in2="hardAlpha" operator="arithmetic" k2="-1" k3="1"/>
<feColorMatrix type="matrix" values="0 0 0 0 0 0 0 0 0 0 0 0 0 0 0 0 0 0 0.25 0"/>
<feBlend mode="normal" in2="shape" result="effect1_innerShadow_2251_1166"/>
</filter>
</defs>
</svg>
