<svg width="192" height="239" viewBox="0 0 192 239" fill="none" xmlns="http://www.w3.org/2000/svg">
<g filter="url(#filter0_d_2251_1160)">
<mask id="path-1-inside-1_2251_1160" fill="white">
<path d="M135.795 13C144.558 13.0002 151.661 20.1043 151.661 28.8672V82.0205H160.388C169.151 82.0205 176.255 89.1247 176.255 97.8877V204.195C176.255 212.958 169.151 220.062 160.388 220.062H31.8672C23.1042 220.062 16.0001 212.958 16 204.195V97.8877C16 89.1247 23.1042 82.0205 31.8672 82.0205H39.7998V28.8672C39.7998 20.1042 46.904 13 55.667 13H135.795Z"/>
</mask>
<path d="M135.795 13C144.558 13.0002 151.661 20.1043 151.661 28.8672V82.0205H160.388C169.151 82.0205 176.255 89.1247 176.255 97.8877V204.195C176.255 212.958 169.151 220.062 160.388 220.062H31.8672C23.1042 220.062 16.0001 212.958 16 204.195V97.8877C16 89.1247 23.1042 82.0205 31.8672 82.0205H39.7998V28.8672C39.7998 20.1042 46.904 13 55.667 13H135.795Z" fill="#FDF9EE"/>
<path d="M135.795 13L135.795 10.62H135.795V13ZM151.661 82.0205H149.281V84.4005H151.661V82.0205ZM176.255 204.195L178.635 204.195V204.195H176.255ZM16 204.195L13.62 204.195L13.62 204.195L16 204.195ZM39.7998 82.0205V84.4005H42.1798V82.0205H39.7998ZM55.667 13L55.667 10.62L55.667 10.62L55.667 13ZM135.795 13L135.795 15.38C143.243 15.3802 149.281 21.4187 149.281 28.8672H151.661H154.041C154.041 18.79 145.872 10.6202 135.795 10.62L135.795 13ZM151.661 28.8672H149.281V82.0205H151.661H154.041V28.8672H151.661ZM151.661 82.0205V84.4005H160.388V82.0205V79.6405H151.661V82.0205ZM160.388 82.0205V84.4005C167.836 84.4005 173.875 90.4391 173.875 97.8877H176.255H178.635C178.635 87.8102 170.465 79.6405 160.388 79.6405V82.0205ZM176.255 97.8877H173.875V204.195H176.255H178.635V97.8877H176.255ZM176.255 204.195L173.875 204.195C173.875 211.644 167.836 217.682 160.388 217.682V220.062V222.442C170.465 222.442 178.635 214.273 178.635 204.195L176.255 204.195ZM160.388 220.062V217.682H31.8672V220.062V222.442H160.388V220.062ZM31.8672 220.062V217.682C24.4185 217.682 18.3801 211.644 18.38 204.195L16 204.195L13.62 204.195C13.6201 214.273 21.7899 222.442 31.8672 222.442V220.062ZM16 204.195H18.38V97.8877H16H13.62V204.195H16ZM16 97.8877H18.38C18.38 90.4391 24.4186 84.4005 31.8672 84.4005V82.0205V79.6405C21.7897 79.6405 13.62 87.8102 13.62 97.8877H16ZM31.8672 82.0205V84.4005H39.7998V82.0205V79.6405H31.8672V82.0205ZM39.7998 82.0205H42.1798V28.8672H39.7998H37.4198V82.0205H39.7998ZM39.7998 28.8672H42.1798C42.1798 21.4187 48.2185 15.38 55.667 15.38L55.667 13L55.667 10.62C45.5896 10.62 37.4198 18.7897 37.4198 28.8672H39.7998ZM55.667 13V15.38H135.795V13V10.62H55.667V13Z" fill="white" mask="url(#path-1-inside-1_2251_1160)"/>
</g>
<path d="M55.6338 144.926C53.8726 144.926 52.3414 144.553 51.0404 143.807C49.7393 143.046 48.7317 141.998 48.0177 140.666C47.3196 139.317 46.9705 137.778 46.9705 136.048C46.9705 134.335 47.3275 132.819 48.0415 131.502C48.7555 130.185 49.7393 129.162 50.9928 128.432C52.2621 127.686 53.706 127.314 55.3244 127.314C56.9746 127.314 58.4264 127.686 59.6798 128.432C60.9333 129.162 61.9171 130.185 62.6311 131.502C63.3609 132.819 63.7259 134.343 63.7259 136.072C63.7259 137.294 63.5196 138.428 63.1071 139.475C62.7104 140.523 62.0995 141.411 61.2745 142.141C60.4653 142.871 59.4418 143.379 58.2042 143.664L55.6338 144.926ZM55.3244 142.903C56.4985 142.903 57.514 142.609 58.3708 142.022C59.2435 141.435 59.9258 140.626 60.4177 139.594C60.9095 138.563 61.1555 137.373 61.1555 136.024C61.1555 134.723 60.9095 133.581 60.4177 132.597C59.9258 131.598 59.2435 130.828 58.3708 130.289C57.4982 129.733 56.4827 129.456 55.3244 129.456C54.1661 129.456 53.1506 129.733 52.278 130.289C51.4212 130.828 50.7468 131.59 50.255 132.573C49.779 133.557 49.5409 134.708 49.5409 136.024C49.5409 137.389 49.7869 138.587 50.2788 139.618C50.7706 140.634 51.445 141.435 52.3018 142.022C53.1745 142.609 54.182 142.903 55.3244 142.903ZM55.6338 144.926L55.3482 143.212L64.4399 142.617V144.688C63.4561 144.688 62.6073 144.696 61.8933 144.712C61.1951 144.743 60.5367 144.775 59.9178 144.807C59.3149 144.838 58.6802 144.862 58.0138 144.878C57.3474 144.91 56.5541 144.926 55.6338 144.926ZM70.7639 144.926C69.9547 144.926 69.2407 144.759 68.6219 144.426C68.003 144.077 67.5191 143.601 67.17 142.998C66.8368 142.395 66.6702 141.705 66.6702 140.927V132.55H69.1455V140.356C69.1455 141.197 69.3517 141.824 69.7643 142.236C70.1768 142.649 70.7639 142.855 71.5255 142.855C72.2078 142.855 72.8107 142.696 73.3343 142.379C73.8738 142.062 74.2942 141.625 74.5957 141.07C74.913 140.499 75.0717 139.84 75.0717 139.095L75.3811 141.998C74.9844 142.887 74.3736 143.601 73.5485 144.14C72.7393 144.664 71.8111 144.926 70.7639 144.926ZM75.1669 144.688V141.832H75.0717V132.55H77.5231V144.688H75.1669ZM88.3258 144.688C88.2465 144.386 88.191 144.053 88.1592 143.688C88.1434 143.323 88.1354 142.879 88.1354 142.355H88.0164V136.572C88.0164 135.794 87.8181 135.215 87.4214 134.834C87.0406 134.438 86.4298 134.239 85.5888 134.239C84.7796 134.239 84.1291 134.398 83.6372 134.715C83.1612 135.033 82.8835 135.485 82.8042 136.072H80.448C80.559 134.93 81.0747 134.017 81.995 133.335C82.9153 132.653 84.1449 132.312 85.684 132.312C87.2707 132.312 88.4607 132.684 89.254 133.43C90.0474 134.16 90.4441 135.239 90.4441 136.667V142.355C90.4441 142.72 90.4679 143.093 90.5155 143.474C90.5631 143.855 90.6345 144.259 90.7297 144.688H88.3258ZM84.137 144.926C82.8994 144.926 81.9156 144.624 81.1858 144.021C80.4559 143.403 80.091 142.57 80.091 141.522C80.091 140.443 80.4718 139.594 81.2334 138.976C82.0108 138.341 83.1215 137.913 84.5654 137.69L88.5638 137.048V138.785L84.9462 139.356C84.137 139.483 83.5261 139.698 83.1136 139.999C82.7169 140.301 82.5186 140.737 82.5186 141.308C82.5186 141.863 82.7011 142.284 83.066 142.57C83.4468 142.839 83.9942 142.974 84.7082 142.974C85.6602 142.974 86.4456 142.744 87.0644 142.284C87.6991 141.824 88.0164 141.245 88.0164 140.547L88.3258 142.308C88.0402 143.149 87.5325 143.799 86.8026 144.259C86.0728 144.704 85.1842 144.926 84.137 144.926ZM93.7975 144.688V127.552H96.2727V144.688H93.7975ZM99.7475 144.688V132.55H102.223V144.688H99.7475ZM99.6285 130.17V127.385H102.366V130.17H99.6285ZM106.58 144.688V131.145C106.58 129.908 106.929 128.964 107.628 128.313C108.326 127.647 109.373 127.314 110.769 127.314C111.087 127.314 111.348 127.329 111.555 127.361C111.761 127.393 111.943 127.441 112.102 127.504V129.479C111.991 129.448 111.84 129.416 111.65 129.384C111.475 129.352 111.277 129.337 111.055 129.337C110.357 129.337 109.849 129.511 109.532 129.86C109.214 130.193 109.056 130.669 109.056 131.288V144.688H106.58ZM114.316 144.688V132.55H116.767V144.688H114.316ZM104.248 134.62V132.55H115.315V134.62H104.248ZM114.22 130.265V127.552H116.862V130.265H114.22ZM125.112 144.926C123.89 144.926 122.811 144.656 121.875 144.117C120.954 143.577 120.232 142.831 119.709 141.879C119.185 140.927 118.923 139.832 118.923 138.595C118.923 137.341 119.177 136.247 119.685 135.31C120.209 134.358 120.939 133.621 121.875 133.097C122.811 132.573 123.882 132.312 125.088 132.312C126.262 132.312 127.277 132.565 128.134 133.073C129.007 133.565 129.673 134.255 130.133 135.144C130.609 136.032 130.847 137.088 130.847 138.309C130.847 138.5 130.839 138.682 130.824 138.857C130.824 139.015 130.808 139.182 130.776 139.356H120.589V137.5H129.039L128.42 138.238C128.42 136.937 128.126 135.945 127.539 135.263C126.952 134.581 126.135 134.239 125.088 134.239C123.961 134.239 123.065 134.628 122.398 135.406C121.748 136.167 121.422 137.23 121.422 138.595C121.422 139.975 121.748 141.054 122.398 141.832C123.065 142.609 123.985 142.998 125.159 142.998C125.873 142.998 126.492 142.855 127.016 142.57C127.539 142.268 127.928 141.832 128.182 141.261H130.514C130.117 142.403 129.443 143.299 128.491 143.95C127.555 144.6 126.428 144.926 125.112 144.926ZM142.208 144.688V141.903L142.446 141.975C142.192 142.879 141.668 143.601 140.875 144.14C140.081 144.664 139.129 144.926 138.019 144.926C136.924 144.926 135.964 144.664 135.139 144.14C134.33 143.617 133.695 142.887 133.235 141.951C132.791 141.015 132.568 139.92 132.568 138.666C132.568 137.397 132.798 136.286 133.259 135.334C133.719 134.382 134.361 133.644 135.186 133.121C136.012 132.597 136.979 132.335 138.09 132.335C139.248 132.335 140.2 132.613 140.946 133.168C141.708 133.708 142.208 134.47 142.446 135.453L142.112 135.501V127.552H144.564V144.688H142.208ZM138.637 142.855C139.732 142.855 140.597 142.482 141.232 141.737C141.866 140.975 142.184 139.928 142.184 138.595C142.184 137.294 141.858 136.27 141.208 135.525C140.573 134.763 139.708 134.382 138.614 134.382C137.535 134.382 136.678 134.763 136.043 135.525C135.424 136.27 135.115 137.318 135.115 138.666C135.115 139.983 135.424 141.015 136.043 141.76C136.678 142.49 137.543 142.855 138.637 142.855ZM54.7159 173.688V156.552H57.2387V173.688H54.7159ZM55.9535 173.688V171.617H66.616V173.688H55.9535ZM55.9535 165.857V163.787H65.7592V165.857H55.9535ZM55.9535 158.622V156.552H66.4018V158.622H55.9535ZM77.4784 173.688L73.599 168.142L68.6723 161.55H71.4808L75.027 166.619L80.2868 173.688H77.4784ZM73.7656 166.619L77.3832 161.55H80.0964L75.0032 168.309L73.7656 166.619ZM74.7652 168.38L70.862 173.688H68.1249L73.5752 166.643L74.7652 168.38ZM89.1961 173.902C88.0537 173.902 87.1017 173.632 86.3401 173.093C85.5944 172.537 85.1025 171.768 84.8645 170.784L85.1977 170.737V178.567H82.7225V161.55H85.0787V164.334L84.8407 164.263C85.0946 163.343 85.634 162.621 86.4591 162.097C87.2842 161.573 88.2521 161.312 89.3627 161.312C90.4575 161.312 91.4016 161.573 92.195 162.097C93.0042 162.621 93.623 163.351 94.0514 164.287C94.4956 165.223 94.7178 166.318 94.7178 167.571C94.7178 168.84 94.4877 169.951 94.0276 170.903C93.5674 171.855 92.9248 172.593 92.0998 173.117C91.2747 173.64 90.3068 173.902 89.1961 173.902ZM88.6725 171.855C89.7515 171.855 90.6083 171.474 91.2429 170.713C91.8776 169.951 92.195 168.904 92.195 167.571C92.195 166.254 91.8776 165.231 91.2429 164.501C90.6083 163.755 89.7435 163.382 88.6487 163.382C87.5698 163.382 86.705 163.763 86.0545 164.525C85.4198 165.27 85.1025 166.31 85.1025 167.642C85.1025 168.944 85.4198 169.975 86.0545 170.737C86.705 171.482 87.5777 171.855 88.6725 171.855ZM102.624 173.926C101.403 173.926 100.324 173.656 99.3876 173.117C98.4674 172.577 97.7454 171.831 97.2218 170.879C96.6982 169.927 96.4364 168.832 96.4364 167.595C96.4364 166.341 96.6903 165.247 97.198 164.31C97.7216 163.358 98.4515 162.621 99.3876 162.097C100.324 161.573 101.395 161.312 102.601 161.312C103.775 161.312 104.79 161.565 105.647 162.073C106.52 162.565 107.186 163.255 107.646 164.144C108.122 165.032 108.36 166.088 108.36 167.309C108.36 167.5 108.352 167.682 108.337 167.857C108.337 168.015 108.321 168.182 108.289 168.356H98.1024V166.5H106.552L105.933 167.238C105.933 165.937 105.639 164.945 105.052 164.263C104.465 163.581 103.648 163.239 102.601 163.239C101.474 163.239 100.578 163.628 99.9113 164.406C99.2607 165.167 98.9354 166.23 98.9354 167.595C98.9354 168.975 99.2607 170.054 99.9113 170.832C100.578 171.609 101.498 171.998 102.672 171.998C103.386 171.998 104.005 171.855 104.528 171.57C105.052 171.268 105.441 170.832 105.695 170.261H108.027C107.63 171.403 106.956 172.299 106.004 172.95C105.068 173.6 103.941 173.926 102.624 173.926ZM110.892 173.688V161.55H113.248V164.572H113.367V173.688H110.892ZM113.367 167.357L113.058 164.477C113.344 163.446 113.836 162.66 114.534 162.121C115.232 161.581 116.065 161.312 117.033 161.312C117.398 161.312 117.652 161.343 117.794 161.407V163.739C117.715 163.708 117.604 163.692 117.461 163.692C117.318 163.676 117.144 163.668 116.938 163.668C115.748 163.668 114.851 163.977 114.248 164.596C113.661 165.215 113.367 166.135 113.367 167.357ZM125.447 173.926C124.035 173.926 122.995 173.6 122.329 172.95C121.678 172.284 121.353 171.308 121.353 170.023V158.765L123.805 157.837V170.046C123.805 170.681 123.971 171.149 124.304 171.451C124.638 171.752 125.177 171.903 125.923 171.903C126.208 171.903 126.462 171.879 126.684 171.831C126.907 171.784 127.097 171.728 127.256 171.665V173.664C127.081 173.743 126.835 173.807 126.518 173.854C126.201 173.902 125.844 173.926 125.447 173.926ZM118.926 163.525V161.55H127.256V163.525H118.926ZM133.912 173.926C132.325 173.926 131.064 173.577 130.128 172.879C129.192 172.18 128.66 171.197 128.533 169.927H130.818C130.929 170.625 131.246 171.165 131.77 171.546C132.309 171.911 133.039 172.093 133.96 172.093C134.769 172.093 135.388 171.95 135.816 171.665C136.244 171.379 136.459 170.975 136.459 170.451C136.459 170.07 136.332 169.753 136.078 169.499C135.84 169.229 135.364 169.007 134.65 168.832L132.698 168.38C131.476 168.079 130.564 167.635 129.961 167.047C129.374 166.445 129.08 165.707 129.08 164.834C129.08 163.739 129.485 162.882 130.294 162.264C131.119 161.629 132.246 161.312 133.674 161.312C135.086 161.312 136.221 161.629 137.077 162.264C137.95 162.898 138.442 163.787 138.553 164.929H136.268C136.173 164.358 135.895 163.922 135.435 163.62C134.991 163.303 134.38 163.144 133.603 163.144C132.873 163.144 132.309 163.279 131.913 163.549C131.532 163.803 131.342 164.16 131.342 164.62C131.342 165.001 131.484 165.318 131.77 165.572C132.071 165.826 132.563 166.04 133.246 166.214L135.245 166.714C136.403 167 137.276 167.468 137.863 168.118C138.45 168.753 138.743 169.523 138.743 170.427C138.743 171.522 138.315 172.379 137.458 172.998C136.617 173.616 135.435 173.926 133.912 173.926Z" fill="#6436A4"/>
<g filter="url(#filter1_i_2251_1160)">
<path d="M100.343 34.4451L110.126 44.2299C110.699 44.803 111.092 45.5317 111.255 46.3258C111.418 47.1198 111.344 47.9442 111.043 48.6968L106.146 60.9419C105.871 61.6273 105.418 62.2269 104.834 62.6784C104.249 63.1299 103.555 63.4169 102.822 63.5097L92.3041 64.8247C92.0335 64.8565 91.7505 64.8951 91.455 64.9407L90.5356 65.0898L90.0551 65.1768L88.5579 65.4667L87.5328 65.6841L85.99 66.032L84.0123 66.5042L80.7983 67.3243L79.4606 67.6846C79.123 67.7774 78.7675 67.784 78.4266 67.7038C78.0858 67.6235 77.7706 67.459 77.5099 67.2253C77.2492 66.9916 77.0513 66.6961 76.9344 66.3661C76.8176 66.036 76.7854 65.6819 76.8409 65.3362L76.9113 65.0339L77.5222 62.7311L78.0689 60.5608L78.5411 58.5831L78.8869 57.0403L79.1044 56.0132L79.3964 54.518L79.562 53.5716L79.6946 52.6853L81.0613 41.7511C81.1544 41.0183 81.4417 40.3236 81.8936 39.7392C82.3455 39.1548 82.9454 38.7018 83.6313 38.4274L95.8763 33.5298C96.629 33.2288 97.4534 33.1553 98.2474 33.3184C99.0414 33.4814 99.7701 33.8719 100.343 34.4451ZM92.6603 46.0523C92.1371 46.5758 91.7637 47.23 91.5791 47.9468C91.3944 48.6635 91.4052 49.4166 91.6103 50.1278C91.4594 50.2162 91.3202 50.3233 91.1962 50.4467L82.7926 58.8503C82.7375 58.9062 82.6995 58.9765 82.6828 59.0532L82.4985 59.8505L82.1299 61.3892L81.9518 62.116C81.9336 62.1859 81.934 62.2594 81.9529 62.3291C81.9718 62.3988 82.0086 62.4623 82.0597 62.5134C82.1108 62.5645 82.1743 62.6013 82.2441 62.6203C82.3138 62.6392 82.3872 62.6396 82.4571 62.6213L83.9419 62.2589L85.522 61.8903C85.5982 61.8727 85.6678 61.834 85.7229 61.7785L94.1264 53.3749C94.2497 53.2515 94.3568 53.113 94.4454 52.9628C95.1471 53.1645 95.8896 53.1772 96.5978 52.9994C97.306 52.8217 97.9546 52.46 98.4779 51.9508C99.0012 51.4417 99.3806 50.8032 99.5777 50.1002C99.7748 49.3971 99.7825 48.6545 99.6001 47.9475C99.4177 47.2406 99.0516 46.5944 98.539 46.0744C98.0264 45.5545 97.3854 45.1793 96.6811 44.9869C95.9768 44.7945 95.2341 44.7917 94.5284 44.9788C93.8226 45.1659 93.1789 45.5363 92.6623 46.0523H92.6603ZM102.306 30.5539C102.663 30.1971 103.137 29.9825 103.64 29.9505C104.144 29.9184 104.641 30.0712 105.04 30.38L105.235 30.5539L114.021 39.3386C114.397 39.7104 114.616 40.2116 114.634 40.7396C114.652 41.2676 114.467 41.7825 114.118 42.1789C113.768 42.5753 113.281 42.8232 112.755 42.8719C112.229 42.9205 111.704 42.7663 111.288 42.4407L111.091 42.2668L102.306 33.4821C101.918 33.0938 101.7 32.5672 101.7 32.018C101.7 31.4689 101.918 30.9423 102.306 30.5539Z" fill="#8E3FFD"/>
</g>
<defs>
<filter id="filter0_d_2251_1160" x="0.688519" y="0.861883" width="190.878" height="237.684" filterUnits="userSpaceOnUse" color-interpolation-filters="sRGB">
<feFlood flood-opacity="0" result="BackgroundImageFix"/>
<feColorMatrix in="SourceAlpha" type="matrix" values="0 0 0 0 0 0 0 0 0 0 0 0 0 0 0 0 0 0 127 0" result="hardAlpha"/>
<feOffset dy="3.17336"/>
<feGaussianBlur stdDeviation="7.65574"/>
<feComposite in2="hardAlpha" operator="out"/>
<feColorMatrix type="matrix" values="0 0 0 0 0.717517 0 0 0 0 0.51647 0 0 0 0 1 0 0 0 1 0"/>
<feBlend mode="normal" in2="BackgroundImageFix" result="effect1_dropShadow_2251_1160"/>
<feBlend mode="normal" in="SourceGraphic" in2="effect1_dropShadow_2251_1160" result="shape"/>
</filter>
<filter id="filter1_i_2251_1160" x="70.7402" y="18.5532" width="49.7012" height="52.0961" filterUnits="userSpaceOnUse" color-interpolation-filters="sRGB">
<feFlood flood-opacity="0" result="BackgroundImageFix"/>
<feBlend mode="normal" in="SourceGraphic" in2="BackgroundImageFix" result="shape"/>
<feColorMatrix in="SourceAlpha" type="matrix" values="0 0 0 0 0 0 0 0 0 0 0 0 0 0 0 0 0 0 127 0" result="hardAlpha"/>
<feOffset dy="2.39522"/>
<feGaussianBlur stdDeviation="1.19761"/>
<feComposite in2="hardAlpha" operator="arithmetic" k2="-1" k3="1"/>
<feColorMatrix type="matrix" values="0 0 0 0 0 0 0 0 0 0 0 0 0 0 0 0 0 0 0.25 0"/>
<feBlend mode="normal" in2="shape" result="effect1_innerShadow_2251_1160"/>
</filter>
</defs>
</svg>
