<svg width="344" height="344" viewBox="0 0 344 344" fill="none" xmlns="http://www.w3.org/2000/svg">
<path d="M93.7818 86.9425C87.5304 86.9425 81.5351 84.4592 77.1147 80.0388C72.6943 75.6184 70.2109 69.623 70.2109 63.3717C70.2109 57.1203 72.6943 51.1249 77.1147 46.7045C81.5351 42.2841 87.5304 39.8008 93.7818 39.8008C100.033 39.8008 106.029 42.2841 110.449 46.7045C114.869 51.1249 117.353 57.1203 117.353 63.3717C117.353 69.623 114.869 75.6184 110.449 80.0388C106.029 84.4592 100.033 86.9425 93.7818 86.9425Z" fill="#FFC100"/>
<path d="M87.9678 58.1221H83.0898V73.8841H87.9678V58.1221Z" fill="white"/>
<path d="M85.5058 56.0586C86.0825 56.0641 86.6479 55.898 87.1301 55.5816C87.6122 55.2652 87.9895 54.8126 88.214 54.2813C88.4385 53.75 88.5001 53.164 88.3909 52.5977C88.2818 52.0314 88.0068 51.5102 87.6009 51.1005C87.195 50.6907 86.6765 50.4108 86.1113 50.2962C85.546 50.1817 84.9594 50.2377 84.426 50.4571C83.8927 50.6766 83.4365 51.0496 83.1155 51.5287C82.7945 52.0079 82.6231 52.5716 82.6231 53.1484C82.6212 53.916 82.9235 54.6532 83.4637 55.1986C84.0039 55.7439 84.7381 56.0532 85.5058 56.0586Z" fill="white"/>
<path d="M95.7693 65.6081C95.7693 63.3928 96.7875 62.0718 98.7414 62.0718C100.53 62.0718 101.397 63.3377 101.397 65.6081V73.8641H106.247V63.9019C106.247 59.6776 103.86 57.6411 100.516 57.6411C99.5682 57.6289 98.6328 57.8619 97.8011 58.3175C96.9693 58.7732 96.2694 59.436 95.7693 60.2417V58.1227H91.084V73.8779H95.7693V65.6081Z" fill="white"/>
<path d="M125.368 16.4365L128.595 22.3327L134.498 25.5663L128.595 28.793L125.368 34.6892L122.141 28.793L116.238 25.5663L122.141 22.3327L125.368 16.4365Z" fill="#F5F5F5"/>
<path d="M259.974 176.313L262.396 180.744L266.82 183.159L262.396 185.581L259.974 190.012L257.553 185.581L253.129 183.159L257.553 180.744L259.974 176.313Z" fill="#FFC100"/>
<path d="M266.82 154.463L267.914 156.458L269.909 157.552L267.914 158.646L266.82 160.641L265.733 158.646L263.73 157.552L265.733 156.458L266.82 154.463Z" fill="#E0E0E0"/>
<path d="M102.314 18.6523L103.408 20.6544L105.403 21.7415L103.408 22.8354L102.314 24.8306L101.227 22.8354L99.2246 21.7415L101.227 20.6544L102.314 18.6523Z" fill="#E0E0E0"/>
<path d="M47.5617 204.171C48.8312 203.59 49.9025 202.649 50.6435 201.465C51.3844 200.282 51.7625 198.907 51.731 197.511C51.731 193.569 48.6694 190.404 44.9749 190.432C41.2803 190.459 38.315 193.686 38.3494 197.628C38.3394 199.036 38.7473 200.415 39.5213 201.59C40.2953 202.766 41.4007 203.686 42.6976 204.233C32.4189 205.919 33.0243 217.106 33.0243 217.106L57.3726 216.899C57.3726 216.899 57.7923 205.582 47.5617 204.171Z" fill="#E0E0E0"/>
<path d="M281.144 277.911C280.972 277.029 280.493 276.236 279.791 275.674C279.088 275.113 278.21 274.819 277.311 274.845C276.412 274.872 275.552 275.217 274.885 275.819C274.217 276.421 273.785 277.24 273.665 278.131C273.54 277.242 273.103 276.425 272.432 275.828C271.761 275.23 270.9 274.89 270.002 274.869C269.104 274.847 268.227 275.146 267.528 275.71C266.829 276.275 266.354 277.07 266.187 277.953C266.007 279.257 266.337 280.58 267.109 281.647C267.873 282.699 268.77 283.647 269.778 284.468C271.154 285.686 272.399 286.821 273.762 288.032C275.138 286.807 276.259 285.658 277.607 284.434C278.611 283.604 279.502 282.647 280.256 281.585C281.009 280.518 281.327 279.204 281.144 277.911Z" fill="#FFC100"/>
<path d="M297.004 132.887L299.611 132.371L303.739 123.304L302.707 118.095C302.707 118.095 306.691 117.05 307.572 123.964C308.452 130.879 308.617 129.042 308.617 129.042C308.617 129.042 317.183 127.377 318.043 127.975C318.669 128.415 320.589 136.878 321.593 141.474C321.871 142.575 321.772 143.738 321.312 144.777C320.852 145.816 320.057 146.67 319.054 147.205C318.769 147.345 318.466 147.447 318.153 147.507C316.02 147.934 304.765 148.361 304.765 148.361L300.258 149.255L297.004 132.887Z" fill="#E0E0E0"/>
<path d="M289.25 132.936L294.389 150.466L298.861 149.579L295.394 132.097L289.25 132.936Z" fill="#E0E0E0"/>
<path d="M323.683 322.892C323.683 322.995 255.454 323.071 171.312 323.071C87.1695 323.071 18.9199 322.995 18.9199 322.892C18.9199 322.789 87.1351 322.713 171.312 322.713C255.489 322.713 323.683 322.795 323.683 322.892Z" fill="#263238"/>
<path d="M270.681 126.007C264.013 129.248 256.331 129.708 249.324 127.286C242.317 124.865 236.559 119.759 233.315 113.093C230.074 106.425 229.614 98.7435 232.036 91.7366C234.457 84.7297 239.563 78.9713 246.229 75.7277C249.53 74.122 253.116 73.1824 256.78 72.9624C260.445 72.7423 264.117 73.2463 267.586 74.4455C271.056 75.6447 274.256 77.5155 277.002 79.9513C279.749 82.387 281.989 85.34 283.594 88.6415C285.2 91.9428 286.14 95.5281 286.36 99.1926C286.58 102.857 286.076 106.529 284.877 109.999C283.677 113.469 281.806 116.668 279.371 119.415C276.935 122.161 273.982 124.401 270.681 126.007Z" fill="#FFC100"/>
<path d="M251.547 107.114C251.65 107.112 251.75 107.087 251.842 107.041C251.933 106.994 252.013 106.928 252.076 106.847C252.139 106.766 252.182 106.672 252.204 106.572C252.226 106.472 252.225 106.368 252.201 106.268C252.132 105.931 251.946 105.078 251.878 104.727C251.781 104.239 251.664 104.108 251.19 103.888C249.957 103.321 248.977 102.319 248.438 101.074C246.332 96.7395 247.688 91.2836 252.889 88.7586C257.492 86.5158 261.393 88.0706 263.209 91.8546C265.61 96.8014 265.452 102.037 262.204 103.619C261.8 103.842 261.348 103.967 260.886 103.983C260.425 104 259.965 103.908 259.546 103.714C259.126 103.521 258.758 103.232 258.47 102.87C258.183 102.508 257.984 102.084 257.891 101.631C257.354 99.2094 257.203 96.3817 256.446 94.813C255.758 93.437 254.437 92.6046 252.882 93.3614C251.045 94.2558 250.495 96.8702 251.733 99.4089C252.175 100.348 252.81 101.183 253.598 101.858C253.598 101.858 255.593 110.72 255.937 112.274C256.625 115.364 258.84 118.466 259.053 118.817C259.084 118.856 259.125 118.886 259.171 118.903C259.218 118.919 259.268 118.922 259.317 118.911C259.365 118.901 259.409 118.876 259.444 118.841C259.479 118.807 259.503 118.762 259.514 118.714C259.576 118.411 260.45 114.655 259.879 111.6C259.721 110.733 258.792 106.296 258.792 106.296C259.941 107.142 262.17 107.3 264.021 106.399C269.525 103.716 270.832 96.8702 267.557 90.1415C265.087 85.0572 258.469 82.4153 251.926 85.6007C243.773 89.5636 242.507 97.3999 244.874 102.271C246.305 105.222 248.678 107.328 251.547 107.114Z" fill="white"/>
<path d="M298.591 204.858C296.225 203.956 294.06 202.596 292.22 200.856C290.38 199.116 288.901 197.031 287.868 194.719C286.835 192.407 286.267 189.914 286.199 187.383C286.13 184.851 286.561 182.331 287.467 179.966C288.368 177.6 289.727 175.435 291.466 173.595C293.205 171.755 295.29 170.276 297.601 169.242C299.913 168.208 302.405 167.64 304.936 167.57C307.467 167.5 309.987 167.93 312.351 168.834C314.718 169.737 316.883 171.097 318.723 172.836C320.563 174.576 322.042 176.662 323.075 178.974C324.108 181.286 324.676 183.779 324.744 186.31C324.813 188.841 324.382 191.362 323.476 193.726C322.575 196.092 321.216 198.257 319.477 200.097C317.738 201.938 315.653 203.417 313.342 204.451C311.03 205.485 308.538 206.053 306.007 206.123C303.476 206.193 300.956 205.763 298.591 204.858Z" fill="#FFC100"/>
<path fill-rule="evenodd" clip-rule="evenodd" d="M315.545 190.121C316.405 187.592 316.257 184.829 315.132 182.406C314.007 179.984 311.991 178.088 309.504 177.113C307.017 176.139 304.25 176.16 301.778 177.173C299.307 178.186 297.321 180.113 296.233 182.553C296.171 182.691 296.116 182.835 296.061 182.973C295.388 184.726 295.212 186.63 295.552 188.477L291.83 192.969L297.857 193.313C299.019 194.687 300.517 195.735 302.206 196.355C303.894 196.975 305.715 197.146 307.49 196.85C309.264 196.555 310.931 195.803 312.328 194.669C313.724 193.536 314.802 192.058 315.456 190.382C315.491 190.297 315.52 190.21 315.545 190.121ZM302.666 194.751C301.071 194.146 299.69 193.083 298.696 191.697L295.181 191.497L297.348 188.883C296.862 187.121 296.951 185.251 297.602 183.544C297.706 183.282 297.823 183.021 297.946 182.773C298.927 180.832 300.596 179.326 302.628 178.551C304.66 177.775 306.908 177.786 308.933 178.582C310.957 179.377 312.612 180.899 313.573 182.85C314.533 184.801 314.732 187.041 314.128 189.13C314.066 189.35 313.997 189.564 313.915 189.777C313.081 191.927 311.429 193.659 309.32 194.592C307.211 195.524 304.818 195.582 302.666 194.751Z" fill="white"/>
<path fill-rule="evenodd" clip-rule="evenodd" d="M309.463 190.301C309.264 190.094 308.321 189.076 308.128 188.925C307.936 188.773 307.798 188.663 307.551 188.842C307.303 189.021 306.636 189.372 306.443 189.475C306.25 189.578 306.099 189.544 305.906 189.338C305.311 188.792 304.815 188.147 304.441 187.432C304.107 186.759 303.875 186.04 303.753 185.299C303.712 185.01 303.877 184.927 304.042 184.859C304.207 184.79 304.386 184.673 304.558 184.583L304.688 184.501C304.779 184.431 304.864 184.355 304.943 184.274C305.002 184.223 305.046 184.157 305.071 184.083C305.096 184.01 305.102 183.931 305.088 183.854C305.088 183.717 305.039 182.368 305.019 181.825C304.998 181.281 304.771 181.281 304.633 181.226C304.496 181.171 304.345 181.088 304.186 181.033C304.065 180.99 303.935 180.971 303.806 180.979C303.677 180.988 303.551 181.023 303.436 181.082C303.073 181.234 302.744 181.46 302.472 181.745C302.2 182.031 301.989 182.369 301.854 182.74C301.754 183.012 301.692 183.297 301.668 183.586C301.629 184.248 301.706 184.911 301.895 185.547C301.957 185.746 302.542 188.787 304.592 190.658C306.642 192.53 306.773 192.213 307.227 192.337C307.588 192.408 307.959 192.398 308.315 192.31C308.672 192.223 309.005 192.058 309.291 191.828C309.584 191.538 309.783 191.166 309.862 190.762C309.787 190.631 309.656 190.507 309.463 190.301Z" fill="white"/>
<path d="M47.9057 115.749C44.0063 115.749 40.2667 114.2 37.5094 111.443C34.7521 108.685 33.2031 104.946 33.2031 101.046C33.2031 97.1469 34.7521 93.4073 37.5094 90.65C40.2667 87.8928 44.0063 86.3438 47.9057 86.3438C49.8365 86.3438 51.7483 86.724 53.5321 87.4629C55.3159 88.2018 56.9367 89.2848 58.302 90.65C59.6672 92.0153 60.7502 93.6361 61.4891 95.4199C62.228 97.2037 62.6082 99.1155 62.6082 101.046C62.6082 102.977 62.228 104.889 61.4891 106.673C60.7502 108.457 59.6672 110.077 58.302 111.443C56.9367 112.808 55.3159 113.891 53.5321 114.63C51.7483 115.369 49.8365 115.749 47.9057 115.749Z" fill="#FFC100"/>
<path d="M40.0762 105.952C41.4882 106.852 43.1204 107.348 44.7948 107.385C46.4693 107.423 48.1218 106.999 49.5723 106.162C51.0228 105.325 52.2157 104.105 53.0209 102.637C53.8261 101.168 54.2129 99.5065 54.1389 97.8333C54.7604 97.3819 55.2983 96.8255 55.7282 96.1889C55.1392 96.4474 54.5158 96.6189 53.8775 96.6981C54.5503 96.3048 55.0585 95.6818 55.3085 94.9437C54.6717 95.3224 53.9729 95.5856 53.2445 95.7211C52.762 95.1933 52.1175 94.8412 51.4127 94.7202C50.7078 94.5993 49.9828 94.7164 49.3519 95.0531C48.7211 95.3899 48.2202 95.927 47.9285 96.5799C47.6367 97.2328 47.5705 97.9642 47.7405 98.6589C46.4622 98.5931 45.2119 98.2596 44.0706 97.6801C42.9293 97.1005 41.9224 96.2878 41.1151 95.2945C40.706 96.0032 40.5814 96.8409 40.7667 97.638C40.9519 98.435 41.433 99.1319 42.1127 99.5877C41.6014 99.5745 41.1009 99.4375 40.6541 99.1886C40.6456 99.9378 40.8986 100.666 41.3695 101.249C41.8404 101.832 42.4998 102.232 43.2341 102.381C42.7607 102.51 42.2642 102.529 41.7824 102.436C41.9884 103.073 42.3881 103.631 42.9257 104.03C43.4634 104.43 44.1123 104.652 44.7821 104.665C43.4419 105.693 41.7527 106.154 40.0762 105.952Z" fill="white"/>
<path d="M74.3034 280.435C67.774 281.986 60.896 280.881 55.1809 277.363C49.4659 273.845 45.3814 268.201 43.825 261.673C43.0534 258.437 42.9273 255.08 43.4538 251.795C43.9803 248.51 45.1492 245.361 46.8935 242.527C48.6379 239.694 50.9236 237.233 53.6199 235.283C56.3162 233.334 59.3702 231.936 62.6074 231.167C65.8419 230.396 69.1966 230.27 72.4799 230.796C75.7632 231.322 78.9108 232.489 81.743 234.231C84.5751 235.973 87.0363 238.256 88.9861 240.95C90.9359 243.643 92.336 246.694 93.1065 249.929C93.8777 253.167 94.0031 256.525 93.4752 259.811C92.9474 263.098 91.7768 266.247 90.0303 269.081C88.2839 271.914 85.9959 274.376 83.2973 276.324C80.5987 278.272 77.5425 279.669 74.3034 280.435Z" fill="#455A64"/>
<path d="M65.8216 244.735C69.4268 243.875 69.8602 243.785 71.3256 243.51C72.1832 243.318 73.0675 243.273 73.94 243.38C74.5787 243.457 75.1922 243.675 75.7357 244.019C76.2843 244.352 76.7538 244.801 77.1117 245.333C77.5986 246.065 77.957 246.875 78.1712 247.728C78.5772 249.138 78.6941 249.565 79.5472 253.17C80.4004 256.775 80.4898 257.208 80.765 258.674C80.9612 259.531 81.0055 260.416 80.8957 261.288C80.8255 261.928 80.6063 262.543 80.2559 263.084C79.9273 263.634 79.4809 264.104 78.9487 264.46C78.2141 264.946 77.4021 265.305 76.5476 265.519C75.1716 265.925 74.7175 266.042 71.1124 266.895C67.5072 267.749 67.0738 267.845 65.6084 268.12C64.7489 268.316 63.8618 268.36 62.9871 268.251C62.3479 268.176 61.734 267.957 61.1914 267.611C60.6483 267.268 60.1916 266.804 59.8567 266.256C59.3654 265.525 59.0046 264.715 58.7903 263.861C58.3912 262.451 58.2743 262.031 57.4143 258.426C56.5543 254.821 56.4648 254.388 56.1896 252.922C56.0007 252.062 55.9565 251.176 56.0589 250.301C56.1435 249.665 56.3612 249.053 56.6979 248.507C57.0346 247.96 57.4826 247.491 58.0128 247.129C58.744 246.639 59.5538 246.278 60.4071 246.063C61.7831 245.664 62.244 245.547 65.8492 244.687M65.2712 242.251C61.6042 243.125 61.1432 243.249 59.7191 243.662C58.6047 243.938 57.546 244.404 56.5887 245.038C55.7765 245.599 55.0899 246.323 54.5723 247.164C54.0548 248.005 53.7176 248.944 53.5821 249.922C53.4376 251.069 53.4888 252.233 53.7335 253.362C54.0156 254.814 54.105 255.282 54.9788 258.949C55.8525 262.616 55.9764 263.077 56.3548 264.494C56.63 265.609 57.0955 266.668 57.7308 267.625C58.2906 268.467 59.0309 269.175 59.898 269.696C60.7323 270.221 61.6717 270.557 62.65 270.679C63.7969 270.825 64.9602 270.774 66.09 270.528C67.5416 270.253 68.0095 270.157 71.6765 269.283C75.3436 268.409 75.8045 268.285 77.2218 267.907C78.3345 267.625 79.3925 267.16 80.3522 266.531C81.1727 265.977 81.863 265.252 82.3749 264.405C82.8972 263.568 83.235 262.63 83.3656 261.653C83.508 260.505 83.4545 259.342 83.2074 258.213C82.9322 256.754 82.8359 256.293 81.9621 252.626C81.0884 248.959 80.9645 248.498 80.5861 247.074C80.3035 245.962 79.8385 244.904 79.2101 243.944C78.6564 243.125 77.9309 242.437 77.0842 241.928C76.2511 241.399 75.3113 241.061 74.3322 240.937C73.1853 240.792 72.0219 240.843 70.8922 241.089C69.4336 241.371 68.9727 241.46 65.3056 242.334" fill="white"/>
<path d="M66.8057 248.869C65.4344 249.196 64.1909 249.922 63.2322 250.956C62.2736 251.989 61.6428 253.284 61.4198 254.675C61.1968 256.067 61.3915 257.494 61.9793 258.775C62.5672 260.056 63.5217 261.135 64.7222 261.873C65.9227 262.612 67.3153 262.978 68.7239 262.926C70.1326 262.873 71.494 262.404 72.636 261.578C73.778 260.751 74.6494 259.605 75.1399 258.283C75.6305 256.962 75.7182 255.525 75.3919 254.153C74.9526 252.315 73.8017 250.726 72.1919 249.735C70.582 248.744 68.6448 248.433 66.8057 248.869ZM69.5577 260.311C68.6668 260.521 67.7336 260.463 66.8759 260.143C66.0182 259.823 65.2745 259.256 64.7389 258.514C64.2032 257.772 63.8996 256.887 63.8664 255.973C63.8331 255.058 64.0718 254.154 64.5522 253.375C65.0326 252.595 65.7331 251.976 66.5653 251.595C67.3976 251.214 68.3241 251.088 69.2279 251.233C70.1317 251.378 70.9721 251.788 71.6431 252.411C72.3141 253.033 72.7855 253.841 72.9977 254.731C73.1388 255.324 73.1618 255.938 73.0652 256.539C72.9686 257.14 72.7545 257.716 72.4349 258.235C72.1154 258.753 71.6968 259.203 71.2031 259.559C70.7094 259.916 70.1502 260.171 69.5577 260.311Z" fill="white"/>
<path d="M75.571 246.497C75.6462 246.817 75.6248 247.152 75.5096 247.46C75.3944 247.769 75.1905 248.036 74.9237 248.228C74.6568 248.42 74.3389 248.529 74.0101 248.541C73.6814 248.553 73.3565 248.467 73.0764 248.295C72.7964 248.122 72.5738 247.87 72.4367 247.571C72.2995 247.272 72.2541 246.939 72.306 246.614C72.358 246.29 72.505 245.987 72.7285 245.746C72.9521 245.505 73.2421 245.335 73.562 245.258C73.7753 245.206 73.9968 245.197 74.2137 245.231C74.4305 245.265 74.6384 245.342 74.8253 245.458C75.0122 245.573 75.1744 245.724 75.3024 245.902C75.4304 246.081 75.5217 246.283 75.571 246.497Z" fill="white"/>
<path d="M266.125 258.151C264.574 258.152 263.039 257.847 261.605 257.255C260.172 256.662 258.87 255.792 257.773 254.696C256.676 253.599 255.806 252.298 255.212 250.865C254.618 249.432 254.312 247.896 254.313 246.345C254.312 244.794 254.618 243.258 255.212 241.826C255.806 240.393 256.676 239.091 257.773 237.995C258.87 236.898 260.172 236.029 261.605 235.436C263.039 234.843 264.574 234.538 266.125 234.539C267.678 234.536 269.215 234.84 270.65 235.432C272.085 236.024 273.388 236.893 274.487 237.99C275.585 239.086 276.457 240.389 277.052 241.822C277.646 243.256 277.952 244.793 277.952 246.345C277.952 247.897 277.646 249.434 277.052 250.868C276.457 252.302 275.585 253.604 274.487 254.701C273.388 255.797 272.085 256.666 270.65 257.258C269.215 257.851 267.678 258.154 266.125 258.151Z" fill="#455A64"/>
<path d="M264.323 253.479H267.199V246.303H269.201L269.421 243.895H267.199V242.519C267.199 241.955 267.316 241.728 267.887 241.728H269.449V239.224H267.454C265.314 239.224 264.351 240.166 264.351 241.976V243.902H262.816V246.303H264.309L264.323 253.479Z" fill="white"/>
<path d="M225.85 323.394L130.982 323.36C125.508 323.36 120.258 321.185 116.387 317.314C112.516 313.444 110.342 308.194 110.342 302.72L110.383 64.892C110.383 62.178 110.918 59.4907 111.958 56.9839C112.998 54.477 114.522 52.1998 116.443 50.2827C118.364 48.3656 120.644 46.8461 123.153 45.8113C125.662 44.7764 128.35 44.2466 131.064 44.252L225.926 44.307C231.4 44.307 236.65 46.4816 240.52 50.3524C244.391 54.2231 246.566 59.473 246.566 64.947L246.525 302.72C246.529 305.436 245.997 308.127 244.96 310.637C243.923 313.147 242.4 315.428 240.479 317.349C238.559 319.27 236.278 320.792 233.767 321.83C231.257 322.867 228.566 323.399 225.85 323.394Z" fill="#263238"/>
<path d="M225.822 52.6459H207.425C206.218 52.6747 205.071 53.1799 204.234 54.0512C203.398 54.9224 202.94 56.0891 202.96 57.2967V60.6335C202.974 61.2332 202.869 61.8296 202.652 62.3887C202.435 62.9478 202.11 63.4586 201.695 63.8919C201.28 64.3252 200.784 64.6724 200.235 64.9137C199.686 65.155 199.095 65.2857 198.495 65.2982H162.643C162.043 65.2848 161.452 65.1533 160.903 64.9112C160.354 64.6692 159.858 64.3213 159.443 63.8875C159.028 63.4537 158.703 62.9424 158.486 62.3829C158.269 61.8234 158.165 61.2266 158.178 60.6267V57.2692C158.202 56.0586 157.746 54.8876 156.91 54.0123C156.073 53.1369 154.924 52.6284 153.713 52.5977H147.232H131.14C129.24 52.5932 127.357 52.9635 125.6 53.6876C123.843 54.4117 122.247 55.4752 120.901 56.8172C119.556 58.1593 118.489 59.7536 117.761 61.5087C117.032 63.2639 116.658 65.1455 116.658 67.0457L116.609 299.184C116.609 303.016 118.132 306.691 120.841 309.4C123.551 312.11 127.226 313.632 131.057 313.632L225.74 313.687C227.637 313.687 229.516 313.313 231.269 312.587C233.022 311.861 234.615 310.797 235.956 309.455C237.298 308.113 238.362 306.521 239.088 304.768C239.814 303.015 240.188 301.136 240.188 299.239L240.236 67.0939C240.236 63.268 238.719 59.5983 236.017 56.8897C233.314 54.1812 229.648 52.655 225.822 52.6459Z" fill="white"/>
<path d="M227.206 71.5033C227.206 71.5652 224.812 71.634 221.867 71.6547C218.923 71.6753 216.521 71.6547 216.521 71.5927C216.521 71.5308 218.909 71.4552 221.86 71.4345C224.812 71.4139 227.206 71.4414 227.206 71.5033Z" fill="#263238"/>
<path d="M227.226 74.2346C227.226 74.2966 224.838 74.3654 221.887 74.3929C218.935 74.4204 216.541 74.3929 216.541 74.3241C216.541 74.2553 218.935 74.1934 221.887 74.1658C224.838 74.1383 227.226 74.1727 227.226 74.2346Z" fill="#263238"/>
<path d="M227.254 76.9661C227.254 77.028 224.86 77.1037 221.908 77.1243C218.957 77.145 216.569 77.1243 216.563 77.0555C216.556 76.9867 218.957 76.9248 221.908 76.8973C224.86 76.8698 227.254 76.9042 227.254 76.9661Z" fill="#263238"/>
<path d="M126.593 79.6359H126.875H127.652L130.528 79.5671L130.446 79.6427C130.446 79.0098 130.446 78.3149 130.411 77.5787C130.411 77.1935 130.411 76.8288 130.411 76.3816C130.457 76.1505 130.574 75.9398 130.748 75.7802C130.921 75.6206 131.14 75.5204 131.374 75.4941C131.842 75.4941 132.248 75.4941 132.75 75.4941C133.014 75.5366 133.253 75.6714 133.426 75.8744C133.598 76.0774 133.693 76.3353 133.693 76.6018C133.693 77.5787 133.693 78.5901 133.727 79.6427L133.597 79.512H137.222L137.085 79.6496C137.085 78.1911 137.085 76.6775 137.044 75.1295C137.044 74.7442 137.044 74.3658 137.044 73.9805C137.028 73.8093 136.974 73.6437 136.886 73.4961C136.798 73.3484 136.678 73.2224 136.534 73.1274L134.952 71.5587L133.418 70.052L132.682 69.3227C132.427 69.0751 132.228 68.8205 131.932 68.7586C131.79 68.7213 131.642 68.7161 131.498 68.7435C131.354 68.7709 131.217 68.8301 131.099 68.9168C130.879 69.1026 130.645 69.364 130.411 69.6048L129.104 70.9189C128.285 71.7651 127.432 72.5426 126.813 73.2787C126.629 73.7126 126.567 74.1883 126.634 74.6547C126.634 75.1019 126.634 75.5285 126.634 75.9275C126.634 76.7119 126.634 77.3999 126.634 77.9915C126.634 78.5832 126.634 78.9479 126.634 79.3056C126.644 79.4637 126.644 79.6223 126.634 79.7803C126.626 79.636 126.626 79.4913 126.634 79.3469C126.634 78.996 126.634 78.5626 126.634 78.0466C126.634 77.5306 126.634 76.76 126.586 75.9826C126.586 75.5698 126.586 75.1363 126.586 74.6754C126.586 74.4415 126.586 74.2075 126.586 73.9874C126.584 73.7219 126.653 73.4607 126.785 73.2306C127.473 72.4119 128.258 71.6826 129.083 70.8088L130.377 69.481C130.611 69.2539 130.797 69.0269 131.065 68.793C131.213 68.6802 131.384 68.6025 131.567 68.5655C131.749 68.5286 131.937 68.5334 132.117 68.5797C132.46 68.7055 132.762 68.9218 132.991 69.2058L133.734 69.9351L135.269 71.4418L136.858 72.9967C137.007 73.1303 137.143 73.2777 137.264 73.437C137.383 73.6196 137.449 73.8314 137.456 74.0493C137.456 74.4346 137.456 74.8199 137.456 75.2051C137.456 76.7531 137.456 78.2667 137.491 79.7253V79.8629H137.353H133.727H133.473V79.7322C133.473 78.6795 133.473 77.6682 133.473 76.6912C133.477 76.4813 133.406 76.2768 133.272 76.1151C133.138 75.9533 132.951 75.8453 132.744 75.8106C132.324 75.8106 131.829 75.8106 131.423 75.8106C131.237 75.8291 131.062 75.9056 130.923 76.0291C130.783 76.1525 130.686 76.3168 130.645 76.4986C130.645 76.8632 130.645 77.2829 130.645 77.6544C130.645 78.4043 130.645 79.1061 130.645 79.7184V79.801H130.563H127.639H126.875C126.775 79.7559 126.681 79.7005 126.593 79.6359Z" fill="#263238"/>
<path d="M189.201 261.034C188.871 261.086 188.537 261.109 188.204 261.103L185.493 261.158C183.209 261.193 180.044 261.213 176.549 261.213C173.054 261.213 169.889 261.213 167.605 261.158L164.894 261.103C164.56 261.109 164.226 261.086 163.896 261.034C164.226 260.979 164.56 260.956 164.894 260.966L167.605 260.904C169.889 260.904 173.054 260.855 176.549 260.855C180.044 260.855 183.202 260.855 185.493 260.904L188.204 260.966C188.538 260.955 188.872 260.978 189.201 261.034Z" fill="#455A64"/>
<path d="M228.946 267.253C228.946 267.356 214.381 267.432 196.417 267.432C178.454 267.432 163.889 267.356 163.889 267.253C163.889 267.15 178.454 267.074 196.417 267.074C214.381 267.074 228.946 267.157 228.946 267.253Z" fill="#455A64"/>
<path d="M208.616 273.136C208.616 273.239 198.605 273.315 186.256 273.315C173.906 273.315 163.889 273.239 163.889 273.136C163.889 273.033 173.899 272.957 186.256 272.957C198.612 272.957 208.616 273.012 208.616 273.136Z" fill="#455A64"/>
<path d="M230.232 284.509L228.21 282.479L226.283 284.399V278.592H230.225L230.232 284.509ZM228.21 282.224L228.272 282.286L230.053 284.075V278.778H226.469V283.972L228.21 282.224Z" fill="#263238"/>
<path d="M176.411 283.751L175.723 283.435C175.313 283.628 174.844 283.661 174.411 283.528C173.977 283.394 173.608 283.103 173.377 282.712C173.146 282.321 173.07 281.859 173.162 281.414C173.255 280.97 173.509 280.576 173.877 280.309C174.245 280.043 174.698 279.923 175.15 279.973C175.601 280.024 176.017 280.24 176.317 280.581C176.616 280.922 176.778 281.363 176.77 281.817C176.762 282.271 176.585 282.705 176.274 283.036L176.411 283.751ZM174.753 279.885C174.283 279.918 173.843 280.129 173.523 280.475C173.203 280.821 173.027 281.277 173.031 281.748C173.036 282.22 173.22 282.672 173.546 283.012C173.873 283.352 174.317 283.555 174.788 283.579C175.102 283.558 175.406 283.461 175.675 283.297L176.205 283.531L176.081 283.015C176.324 282.75 176.484 282.42 176.541 282.066C176.599 281.711 176.552 281.348 176.406 281.02C176.26 280.691 176.021 280.413 175.719 280.219C175.417 280.025 175.064 279.923 174.705 279.926L174.753 279.885Z" fill="#263238"/>
<path d="M180.993 283.456L180.181 281.461L178.646 280.085H182.362L180.993 283.456ZM178.99 280.202L180.298 281.399L180.986 283.098L182.155 280.174L178.99 280.202Z" fill="#263238"/>
<path d="M182.284 280.04L180.254 281.36L180.329 281.476L182.359 280.155L182.284 280.04Z" fill="#263238"/>
<path d="M170.555 280.47C170.501 280.204 170.354 279.967 170.141 279.799C169.928 279.631 169.663 279.544 169.392 279.553C169.121 279.562 168.862 279.667 168.661 279.849C168.46 280.03 168.329 280.277 168.292 280.545C168.255 280.274 168.122 280.024 167.917 279.842C167.712 279.66 167.449 279.557 167.174 279.552C166.9 279.547 166.633 279.64 166.422 279.815C166.211 279.989 166.069 280.234 166.022 280.504C165.969 280.9 166.07 281.302 166.304 281.625C166.536 281.944 166.809 282.231 167.115 282.479C167.535 282.843 167.914 283.167 168.326 283.552C168.739 283.18 169.083 282.829 169.496 282.458C169.799 282.205 170.067 281.913 170.294 281.591C170.524 281.266 170.618 280.863 170.555 280.47Z" fill="#FFC100"/>
<path d="M234.375 289.648C234.375 289.648 234.375 289.421 234.375 289.002C234.375 288.582 234.375 287.942 234.375 287.116C234.375 285.458 234.375 282.988 234.341 279.851C234.341 273.528 234.307 264.33 234.279 252.792L234.396 252.909L124.378 252.971L124.557 252.792C124.557 265.603 124.557 278.021 124.557 289.648L124.385 289.476L203.113 289.552L226.092 289.6H232.284H233.88H234.43H233.901H232.325H226.195L203.25 289.648L124.405 289.731H124.227V289.648C124.227 278.021 124.227 265.603 124.227 252.792V252.613H124.419L234.437 252.675H234.554V252.792C234.554 264.357 234.506 273.584 234.492 279.927C234.492 283.078 234.492 285.507 234.492 287.165C234.492 287.976 234.492 288.596 234.492 289.022C234.492 289.449 234.375 289.648 234.375 289.648Z" fill="#263238"/>
<path d="M128.933 258.954L128.793 283.322L159.271 283.498L159.411 259.129L128.933 258.954Z" fill="#FFC100"/>
<path d="M159.403 259.115H158.818H157.153H150.899L128.883 259.067L129.048 258.908C129.014 266.167 128.973 274.478 128.931 283.27C128.966 283.319 128.594 282.933 128.753 283.092H130.851H132.915H137.043L144.955 283.14L159.224 283.243L159.08 283.394C159.148 276.074 159.21 270.006 159.258 265.74C159.258 263.621 159.307 261.956 159.32 260.793C159.32 260.236 159.32 259.803 159.32 259.486C159.32 259.17 159.32 259.025 159.32 259.025C159.32 259.025 159.32 259.163 159.32 259.452C159.32 259.741 159.32 260.188 159.32 260.738C159.32 261.887 159.32 263.545 159.32 265.651C159.32 269.937 159.32 276.04 159.32 283.394V283.539H159.169L144.9 283.484L136.988 283.442H132.86H130.796H128.697L128.512 283.257C128.574 274.457 128.622 266.146 128.67 258.895V258.729H128.835L150.92 258.929L157.112 259.012H158.742H159.155L159.403 259.115Z" fill="#263238"/>
<path d="M129.976 260.494L129.854 281.794L158.192 281.957L158.314 260.657L129.976 260.494Z" fill="#E0E0E0"/>
<path d="M129.84 281.777L139.816 268.595L145.898 276.913L150.081 272.509L158.179 281.942L129.84 281.777Z" fill="#F5F5F5"/>
<path d="M148.56 267.026C148.559 267.469 148.426 267.901 148.179 268.268C147.932 268.635 147.581 268.921 147.172 269.088C146.762 269.256 146.312 269.299 145.878 269.21C145.445 269.122 145.047 268.907 144.736 268.593C144.424 268.279 144.213 267.879 144.129 267.444C144.045 267.01 144.091 266.56 144.263 266.152C144.434 265.744 144.723 265.397 145.092 265.153C145.462 264.909 145.895 264.781 146.338 264.783C146.631 264.784 146.921 264.843 147.192 264.956C147.462 265.07 147.708 265.235 147.914 265.443C148.121 265.652 148.284 265.899 148.395 266.17C148.506 266.442 148.562 266.733 148.56 267.026Z" fill="#F5F5F5"/>
<path d="M180.319 101.047C180.209 101.065 180.098 101.065 179.988 101.047L179.059 101.081L175.619 101.143C172.723 101.143 168.739 101.191 164.295 101.191C159.851 101.191 155.867 101.191 152.971 101.143L149.531 101.081L148.595 101.047C148.488 101.066 148.378 101.066 148.271 101.047C148.377 101.021 148.486 101.009 148.595 101.012H149.531L152.971 100.957C155.867 100.923 159.851 100.902 164.295 100.902C168.739 100.902 172.723 100.902 175.619 100.957L179.059 101.012H179.988C180.099 101.01 180.21 101.021 180.319 101.047Z" fill="#263238"/>
<path d="M225.341 235.743L222.342 232.729L219.473 235.585V226.957H225.334L225.341 235.743ZM222.342 232.358L222.431 232.447L225.08 235.103V227.232H219.741V234.952L222.342 232.358Z" fill="#263238"/>
<path d="M149.069 234.835L147.693 234.209C146.892 234.582 145.98 234.642 145.137 234.378C144.294 234.115 143.579 233.546 143.132 232.783C142.686 232.021 142.54 231.119 142.723 230.255C142.906 229.39 143.405 228.625 144.122 228.109C144.84 227.592 145.723 227.362 146.601 227.463C147.479 227.564 148.288 227.989 148.869 228.654C149.451 229.32 149.763 230.178 149.745 231.061C149.728 231.945 149.381 232.79 148.773 233.432L149.069 234.835ZM145.787 227.233C145.31 227.237 144.839 227.335 144.4 227.521C143.96 227.707 143.562 227.978 143.228 228.319C142.893 228.659 142.629 229.061 142.45 229.504C142.272 229.946 142.182 230.419 142.186 230.896C142.19 231.373 142.288 231.845 142.474 232.284C142.66 232.723 142.931 233.121 143.272 233.456C143.612 233.79 144.014 234.054 144.457 234.233C144.899 234.412 145.372 234.502 145.849 234.498C146.468 234.461 147.068 234.272 147.597 233.948L147.659 233.913L148.691 234.374L148.457 233.356L148.505 233.308C148.983 232.786 149.298 232.136 149.411 231.438C149.524 230.74 149.43 230.023 149.141 229.378C148.853 228.732 148.381 228.185 147.785 227.804C147.189 227.422 146.495 227.224 145.787 227.233Z" fill="#263238"/>
<path d="M158.096 234.236L156.486 230.308L153.473 227.556L160.793 227.501L158.096 234.236ZM154.154 227.817L156.727 230.177L158.103 233.521L160.401 227.769L154.154 227.817Z" fill="#263238"/>
<path d="M160.647 227.488L156.656 230.085L156.803 230.31L160.793 227.713L160.647 227.488Z" fill="#263238"/>
<path d="M137.553 228.416C137.449 227.89 137.161 227.417 136.741 227.083C136.321 226.749 135.795 226.575 135.259 226.592C134.722 226.609 134.209 226.817 133.811 227.178C133.414 227.538 133.157 228.028 133.087 228.561C133.009 228.031 132.744 227.546 132.341 227.192C131.938 226.839 131.423 226.64 130.887 226.631C130.351 226.622 129.829 226.803 129.415 227.143C129 227.482 128.719 227.958 128.622 228.485C128.519 229.263 128.719 230.051 129.18 230.687C129.641 231.313 130.18 231.88 130.783 232.372C131.601 233.06 132.351 233.748 133.17 234.484C133.968 233.755 134.656 233.067 135.461 232.331C136.056 231.831 136.585 231.257 137.037 230.625C137.484 229.981 137.669 229.191 137.553 228.416Z" fill="#FFC100"/>
<path d="M136.885 106.014C139.629 106.014 141.853 103.79 141.853 101.046C141.853 98.3031 139.629 96.0791 136.885 96.0791C134.142 96.0791 131.918 98.3031 131.918 101.046C131.918 103.79 134.142 106.014 136.885 106.014Z" fill="#FFC100"/>
<path d="M223.47 207.26C223.47 207.363 202.651 207.446 176.975 207.446C151.298 207.446 130.473 207.363 130.473 207.26C130.473 207.157 151.292 207.081 176.975 207.081C202.658 207.081 223.47 207.164 223.47 207.26Z" fill="#455A64"/>
<path d="M223.47 199.52C223.47 199.616 202.651 199.699 176.975 199.699C151.298 199.699 130.473 199.616 130.473 199.52C130.473 199.423 151.292 199.341 176.975 199.341C202.658 199.341 223.47 199.423 223.47 199.52Z" fill="#455A64"/>
<path d="M181.089 215.11C181.089 215.206 169.757 215.288 155.784 215.288C141.811 215.288 130.473 215.206 130.473 215.11C130.473 215.013 141.804 214.931 155.784 214.931C169.764 214.931 181.089 215.013 181.089 215.11Z" fill="#455A64"/>
<path d="M174.849 299.48C174.843 299.871 174.72 300.251 174.498 300.572C174.275 300.894 173.963 301.143 173.599 301.287C173.236 301.431 172.838 301.465 172.456 301.383C172.073 301.302 171.723 301.109 171.45 300.829C171.177 300.55 170.993 300.195 170.921 299.811C170.849 299.427 170.892 299.03 171.045 298.67C171.198 298.31 171.454 298.004 171.781 297.789C172.108 297.574 172.491 297.461 172.882 297.464C173.143 297.467 173.402 297.521 173.643 297.624C173.883 297.727 174.101 297.876 174.284 298.063C174.467 298.251 174.611 298.472 174.708 298.715C174.805 298.958 174.853 299.218 174.849 299.48Z" fill="#263238"/>
<path d="M180.945 299.507C180.937 299.896 180.814 300.274 180.592 300.593C180.369 300.913 180.058 301.159 179.696 301.302C179.334 301.445 178.938 301.478 178.558 301.397C178.177 301.315 177.829 301.123 177.558 300.845C177.286 300.567 177.102 300.214 177.03 299.832C176.958 299.45 177.001 299.054 177.152 298.696C177.304 298.338 177.558 298.032 177.883 297.818C178.207 297.604 178.588 297.49 178.977 297.491C179.239 297.493 179.498 297.547 179.739 297.649C179.98 297.752 180.199 297.901 180.382 298.089C180.565 298.276 180.709 298.498 180.805 298.741C180.902 298.985 180.949 299.245 180.945 299.507Z" fill="#263238"/>
<path d="M187.087 299.534C187.079 299.923 186.956 300.301 186.734 300.621C186.512 300.94 186.2 301.187 185.839 301.33C185.477 301.473 185.081 301.505 184.7 301.424C184.32 301.343 183.972 301.151 183.7 300.872C183.428 300.594 183.245 300.241 183.173 299.859C183.101 299.477 183.143 299.082 183.295 298.723C183.446 298.365 183.701 298.06 184.025 297.845C184.35 297.631 184.731 297.517 185.12 297.519C185.381 297.521 185.64 297.576 185.881 297.678C186.121 297.781 186.339 297.931 186.522 298.118C186.705 298.305 186.849 298.527 186.946 298.77C187.043 299.013 187.091 299.273 187.087 299.534Z" fill="#263238"/>
<path d="M235.036 110.871H125.004V178.158H235.036V110.871Z" fill="#E0E0E0"/>
<path d="M135.164 178.178L166.688 135.977L186.241 162.368L199.485 148.25L225.471 178.151L135.164 178.178Z" fill="#F5F5F5"/>
<path d="M194.525 130.796C194.526 132.203 194.11 133.579 193.329 134.75C192.548 135.92 191.438 136.833 190.138 137.373C188.838 137.912 187.408 138.054 186.027 137.78C184.647 137.507 183.379 136.83 182.383 135.835C181.387 134.841 180.709 133.573 180.434 132.193C180.159 130.813 180.299 129.382 180.838 128.082C181.376 126.781 182.288 125.67 183.458 124.888C184.628 124.106 186.003 123.688 187.411 123.688C189.296 123.688 191.105 124.437 192.439 125.77C193.773 127.102 194.523 128.91 194.525 130.796Z" fill="#F5F5F5"/>
<path d="M234.74 240.697C234.74 239.259 234.671 178.474 234.575 88.4837L234.74 88.6488H124.722L124.901 88.4699C124.901 145.395 124.901 198.075 124.901 240.683L124.749 240.539L234.781 240.683L124.749 240.834H124.605V240.683C124.605 198.075 124.605 145.395 124.57 88.4699V88.291H124.763H234.781H234.946V88.4493C234.912 133.493 234.884 171.56 234.864 198.378C234.864 211.766 234.829 222.341 234.822 229.579C234.822 233.184 234.822 235.956 234.822 237.835C234.822 238.764 234.822 239.472 234.822 239.954C234.822 240.435 234.74 240.697 234.74 240.697Z" fill="#263238"/>
<path d="M183.009 259.582L185.444 251.402C185.871 249.627 186.435 247.535 187.192 245.148C187.88 243.001 189.628 240.745 191.224 239.121C193.707 236.596 194.891 236.582 196.556 235.241C196.707 235.144 196.879 235 197.023 234.924C197.338 234.753 197.615 234.518 197.835 234.236C199.273 232.681 197.89 230.266 194.966 230.5C192.772 230.672 189.18 231.298 183.346 237.318C183.27 237.415 183.195 237.49 183.126 237.58C180.064 241.563 177.188 230.197 176.666 225.966C176.564 225.311 176.316 224.686 175.941 224.139C175.565 223.592 175.072 223.136 174.496 222.806C173.921 222.476 173.278 222.279 172.616 222.231C171.955 222.182 171.291 222.283 170.673 222.526L156.459 229.172C155.103 228.779 153.658 228.827 152.331 229.31C151.336 229.659 150.507 230.366 150.006 231.294C149.505 232.221 149.367 233.302 149.62 234.325L155.393 257.312L138.461 313.659H174.959L183.009 259.582Z" fill="#FFBE9D"/>
<path d="M211.079 207.831L199.796 229.943L194.154 228.375L165.809 251.443C164.652 252.39 163.171 252.848 161.682 252.719C160.193 252.591 158.812 251.886 157.835 250.755L147.033 238.213C147.033 238.213 168.808 228.836 172.833 221.075C176.858 213.314 172.207 211.546 172.207 211.546L182.451 199.905L211.079 207.831Z" fill="#FFC100"/>
<path d="M196.445 162.67C196.445 162.67 179.933 159.017 156.686 136.671C133.438 114.325 122.526 84.6237 119.712 84.7888C116.898 84.9539 104.446 79.1678 80.8198 130.555C57.1938 181.941 66.5025 193.851 71.1878 193.782C75.873 193.713 107.803 184.79 127.741 187.053C147.68 189.317 173.308 199.712 173.308 199.712L196.445 162.67Z" fill="#FFC100"/>
<path d="M231.527 190.679L225.892 201.391L223.367 206.207C221.7 209.377 218.881 211.787 215.49 212.939C212.099 214.091 208.395 213.898 205.142 212.399L169.744 200.063L190.384 153.004L225.747 171.848C229.001 173.589 231.434 176.545 232.516 180.073C233.599 183.6 233.243 187.413 231.527 190.679Z" fill="#FFC100"/>
<g opacity="0.4">
<path d="M231.527 190.679L225.892 201.391L223.367 206.207C221.7 209.377 218.881 211.787 215.49 212.939C212.099 214.091 208.395 213.898 205.142 212.399L169.744 200.063L190.384 153.004L225.747 171.848C229.001 173.589 231.434 176.545 232.516 180.073C233.599 183.6 233.243 187.413 231.527 190.679Z" fill="black"/>
</g>
<path d="M82.705 131.49C70.1352 159.326 64.8996 184.136 71.009 186.894C77.1184 189.653 92.2751 169.33 104.845 141.486C117.415 113.643 122.65 88.8476 116.541 86.0819C110.431 83.3161 95.2748 103.653 82.705 131.49Z" fill="#FFC100"/>
<g opacity="0.5">
<path d="M82.705 131.49C70.1352 159.326 64.8996 184.136 71.009 186.894C77.1184 189.653 92.2751 169.33 104.845 141.486C117.415 113.643 122.65 88.8476 116.541 86.0819C110.431 83.3161 95.2748 103.653 82.705 131.49Z" fill="black"/>
</g>
<path d="M234.566 206.159L224.969 203.146L230.906 191.862L238.103 196.334L234.566 206.159Z" fill="#FFC100"/>
<g opacity="0.6">
<path d="M230.906 191.862L224.969 203.146L226.943 203.765L231.766 192.392L230.906 191.862Z" fill="black"/>
</g>
<path d="M224.288 194.463C224.15 194.773 219.362 192.915 213.596 190.335C207.831 187.755 203.276 185.361 203.407 185.051C203.538 184.742 208.333 186.606 214.105 189.214C219.878 191.821 224.432 194.153 224.288 194.463Z" fill="#FFC100"/>
<path d="M227.248 187.741C227.096 188.044 222.762 186.22 217.567 183.661C212.373 181.102 208.286 178.783 208.438 178.474C208.589 178.164 212.917 179.994 218.111 182.553C223.305 185.113 227.399 187.431 227.248 187.741Z" fill="#FFC100"/>
<path d="M220.573 201.515C220.525 201.68 219.383 201.418 217.567 200.827C216.659 200.545 215.578 200.187 214.388 199.781C213.198 199.375 211.98 198.728 210.666 198.13C205.417 195.694 201.406 193.314 201.536 193.025C201.667 192.736 205.981 194.6 211.168 197.015C212.476 197.607 213.686 198.254 214.828 198.728C215.971 199.203 216.996 199.623 217.856 200.008C219.576 200.799 220.621 201.349 220.573 201.515Z" fill="#FFC100"/>
<path d="M108.334 125.305C108.334 125.305 93.9821 116.402 86.132 135.797C78.2819 155.192 93.3766 158.377 93.3766 158.377C99.895 148.113 104.931 136.979 108.334 125.305Z" fill="#FFC100"/>
<g opacity="0.5">
<path d="M123.6 102.188C123.689 102.188 123.483 103.523 123.042 105.897C122.602 108.27 121.941 111.704 121.02 115.928L119.024 122.718C118.662 123.934 118.288 125.193 117.903 126.496L117.318 128.47C117.105 129.158 116.823 129.784 116.575 130.452L113.335 138.818C113.052 139.547 112.764 140.276 112.481 141.012C112.199 141.748 111.793 142.45 111.47 143.18L109.337 147.583L107.198 151.979C106.833 152.667 106.51 153.438 106.117 154.112C105.725 154.786 105.312 155.488 104.92 156.141L100.345 163.868C99.9736 164.473 99.6571 165.099 99.2443 165.677L98.0541 167.363L95.7699 170.583L91.6419 176.341C88.8899 179.664 86.592 182.285 85.0096 184.109C84.2324 185.096 83.374 186.016 82.4434 186.861C83.0902 185.787 83.8267 184.769 84.645 183.82C86.1723 181.873 88.3258 179.148 90.9677 175.798L94.9237 169.998L97.139 166.771C97.5243 166.221 97.9096 165.656 98.3018 165.085C98.6939 164.514 98.9898 163.888 99.3682 163.276L103.888 155.557L105.065 153.534C105.471 152.846 105.753 152.158 106.131 151.415L108.25 147.046C108.938 145.567 109.674 144.115 110.376 142.677C110.706 141.989 111.105 141.26 111.381 140.531L112.241 138.357L115.529 130.101C115.784 129.413 116.073 128.8 116.293 128.14C116.513 127.479 116.699 126.833 116.898 126.186L118.068 122.45L120.18 115.742L122.568 105.835C122.807 104.592 123.152 103.372 123.6 102.188Z" fill="black"/>
</g>
<g opacity="0.4">
<path d="M150.459 236.672C151.773 239.052 153.108 241.488 155.041 243.366C156.974 245.244 159.616 246.579 162.368 246.304C165.12 246.029 167.631 243.786 167.659 241.075C168.952 242.045 170.941 241.522 172.014 240.304C173.087 239.087 173.438 237.401 173.562 235.784C175.323 236.823 177.773 236.004 178.949 234.333C179.489 233.462 179.831 232.483 179.95 231.465C180.069 230.447 179.962 229.415 179.637 228.443C178.967 226.509 178.014 224.684 176.809 223.029C178.185 223.139 179.603 223.235 180.814 222.623C182.024 222.011 182.878 220.401 182.141 219.245C181.658 218.599 180.956 218.152 180.167 217.986C178.041 217.298 176.555 216.789 174.339 217.043C173.83 217.043 175.227 222.877 161.35 230.844C153.115 235.557 150.459 236.672 150.459 236.672Z" fill="black"/>
</g>
<path d="M181.707 245.065C181.707 245.127 180.779 244.948 179.279 244.99C177.33 245.036 175.413 245.496 173.655 246.34C171.897 247.183 170.339 248.39 169.083 249.881C168.113 251.023 167.707 251.856 167.617 251.821C167.674 251.607 167.765 251.402 167.886 251.216C168.18 250.692 168.514 250.19 168.883 249.716C170.12 248.146 171.7 246.881 173.502 246.018C175.304 245.154 177.281 244.715 179.279 244.735C179.879 244.739 180.477 244.794 181.068 244.9C181.289 244.917 181.506 244.973 181.707 245.065Z" fill="#EB996E"/>
<path d="M151.361 232.949C153.597 235.096 155.125 237.47 157.471 239.63C158.537 240.614 160.223 242.471 161.599 242.719C162.975 242.967 163.938 242.781 164.502 241.446C164.963 240.366 164.137 238.887 163.573 238.006C162.08 235.66 160.649 233.83 159.535 232.007C159.005 231.154 159.686 230.975 159.934 231.374C161.007 232.488 162.617 233.438 163.58 234.669C164.901 236.327 165.135 238.536 168.589 237.834C169.051 237.759 169.489 237.578 169.869 237.304C171.169 236.307 171.245 234.552 170.68 233.176C170.193 232.114 169.543 231.135 168.754 230.273C170.226 231.931 171.829 233.713 174.169 233.864C174.829 233.944 175.499 233.817 176.084 233.501C176.669 233.184 177.142 232.693 177.437 232.096C178.125 230.528 177.141 229.007 176.143 227.782C174.377 225.605 172.413 223.597 170.274 221.783C169.476 221.112 168.469 220.74 167.426 220.73C166.215 220.73 164.674 220.951 163.986 221.996C163.593 222.501 163.307 223.08 163.145 223.699C162.983 224.317 162.948 224.962 163.044 225.595C163.044 225.595 160.016 224.06 157.581 225.663C156.082 226.717 155.004 228.267 154.54 230.039L151.361 232.949Z" fill="#FFBE9D"/>
<path d="M167.493 220.07C167.009 219.508 166.709 218.811 166.633 218.073C166.556 217.335 166.708 216.591 167.067 215.942C167.583 214.93 168.229 213.947 168.89 213.726C171.773 212.756 184.377 214.937 184.26 217.731C184.143 220.524 183.221 221.859 176.389 220.875C175.185 220.703 173.3 220.469 173.3 220.469L171.649 222.946L167.493 220.07Z" fill="#FFBE9D"/>
<path d="M169.751 231.78C168.096 229.052 165.684 226.865 162.809 225.484C163.278 225.56 163.73 225.718 164.143 225.952C166.214 226.954 167.953 228.53 169.152 230.493C169.43 230.881 169.633 231.317 169.751 231.78Z" fill="#EB996E"/>
<path d="M171.869 223.187C171.808 223.242 170.975 222.568 169.84 221.873C169.365 221.572 168.874 221.299 168.368 221.054C167.975 220.876 167.714 220.827 167.721 220.772C167.728 220.717 168.017 220.69 168.45 220.821C169.008 221 169.54 221.252 170.033 221.57C171.195 222.279 171.959 223.112 171.869 223.187Z" fill="#EB996E"/>
<path d="M173.989 220.586C173.169 220.682 172.339 220.587 171.561 220.311C170.992 220.137 170.463 219.852 170.006 219.471C169.662 219.176 169.517 218.935 169.552 218.9C170.214 219.328 170.922 219.679 171.664 219.946C172.452 220.107 173.229 220.321 173.989 220.586Z" fill="#EB996E"/>
<path d="M161.743 235.241C161.308 234.785 160.923 234.285 160.594 233.748C159.808 232.477 158.815 231.347 157.656 230.404C156.455 229.525 154.966 229.132 153.487 229.303C152.88 229.412 152.29 229.599 151.732 229.861C151.732 229.861 151.856 229.716 152.138 229.544C152.54 229.3 152.983 229.133 153.446 229.049C154.216 228.924 155.003 228.955 155.761 229.138C156.52 229.321 157.234 229.653 157.863 230.115C159.06 231.077 160.06 232.262 160.807 233.603C161.165 234.122 161.478 234.67 161.743 235.241Z" fill="#EB996E"/>
<path d="M171.382 263.104C169.685 263.465 167.965 263.711 166.235 263.841C164.515 264.09 162.779 264.219 161.041 264.226C162.74 263.865 164.462 263.619 166.194 263.49C167.913 263.245 169.646 263.116 171.382 263.104Z" fill="#EB996E"/>
<path d="M279.761 34.29L280.539 35.7142L281.956 36.4916L280.539 37.2691L279.761 38.6864L278.984 37.2691L277.566 36.4916L278.984 35.7142L279.761 34.29Z" fill="#FFC100"/>
<path d="M296.004 69.4951L296.782 70.9193L298.199 71.6967L296.782 72.4742L296.004 73.8914L295.227 72.4742L293.803 71.6967L295.227 70.9193L296.004 69.4951Z" fill="#FFC100"/>
<path d="M35.7064 163.421L36.4839 164.845L37.908 165.622L36.4839 166.393L35.7064 167.817L34.929 166.393L33.5117 165.622L34.929 164.845L35.7064 163.421Z" fill="#FFC100"/>
<path d="M258.453 43.041L260.249 46.3228L263.531 48.1185L260.249 49.9073L258.453 53.189L256.665 49.9073L253.383 48.1185L256.665 46.3228L258.453 43.041Z" fill="#FFC100"/>
<path d="M50.2649 141.109L52.0537 144.377L55.3285 146.166L52.0537 147.962L50.2649 151.23L48.4761 147.962L45.2012 146.166L48.4761 144.377L50.2649 141.109Z" fill="#FFC100"/>
<path d="M300.421 219.169L302.21 222.444L305.478 224.233L302.21 226.021L300.421 229.296L298.632 226.021L295.357 224.233L298.632 222.444L300.421 219.169Z" fill="#FFC100"/>
</svg>
