<svg width="402" height="402" viewBox="0 0 402 402" fill="none" xmlns="http://www.w3.org/2000/svg">
<path d="M402 307.449H0V307.65H402V307.449Z" fill="#EBEBEB"/>
<path d="M68.8062 315.104H42.1777V315.305H68.8062V315.104Z" fill="#EBEBEB"/>
<path d="M171.79 312.925H137.596V313.126H171.79V312.925Z" fill="#EBEBEB"/>
<path d="M90.5792 317.926H75.1504V318.127H90.5792V317.926Z" fill="#EBEBEB"/>
<path d="M361.72 321.222H349.475V321.423H361.72V321.222Z" fill="#EBEBEB"/>
<path d="M342.311 321.222H314.742V321.423H342.311V321.222Z" fill="#EBEBEB"/>
<path d="M266.792 315.433H247.633V315.634H266.792V315.433Z" fill="#EBEBEB"/>
<path d="M190.548 271.591H35.3035C34.0873 271.589 32.9217 271.104 32.0625 270.243C31.2033 269.383 30.7207 268.216 30.7207 267V48.7704C30.7313 47.5612 31.2185 46.405 32.0766 45.5529C32.9347 44.7009 34.0943 44.2218 35.3035 44.2197H190.548C191.765 44.2197 192.933 44.7034 193.794 45.5644C194.655 46.4253 195.139 47.593 195.139 48.8106V267C195.139 268.218 194.655 269.385 193.794 270.246C192.933 271.107 191.765 271.591 190.548 271.591ZM35.3035 44.3805C34.1406 44.3827 33.0261 44.8461 32.2046 45.6691C31.3831 46.4921 30.9217 47.6075 30.9217 48.7704V267C30.9217 268.163 31.3831 269.278 32.2046 270.101C33.0261 270.924 34.1406 271.388 35.3035 271.39H190.548C191.711 271.388 192.827 270.925 193.65 270.102C194.472 269.279 194.936 268.164 194.938 267V48.7704C194.936 47.6068 194.472 46.4914 193.65 45.6686C192.827 44.8458 191.711 44.3827 190.548 44.3805H35.3035Z" fill="#EBEBEB"/>
<path d="M364.46 271.591H209.208C207.991 271.589 206.825 271.104 205.964 270.244C205.104 269.383 204.619 268.217 204.617 267V48.7704C204.63 47.5604 205.119 46.4043 205.978 45.5524C206.838 44.7006 207.998 44.2218 209.208 44.2197H364.46C365.668 44.2239 366.826 44.7039 367.682 45.5558C368.538 46.4076 369.025 47.5626 369.035 48.7704V267C369.035 268.215 368.554 269.38 367.696 270.241C366.839 271.101 365.675 271.587 364.46 271.591ZM209.208 44.3805C208.044 44.3827 206.929 44.8458 206.106 45.6686C205.283 46.4914 204.82 47.6068 204.818 48.7704V267C204.82 268.164 205.283 269.279 206.106 270.102C206.929 270.925 208.044 271.388 209.208 271.39H364.46C365.624 271.388 366.739 270.925 367.562 270.102C368.385 269.279 368.848 268.164 368.85 267V48.7704C368.848 47.6068 368.385 46.4914 367.562 45.6686C366.739 44.8458 365.624 44.3827 364.46 44.3805H209.208Z" fill="#EBEBEB"/>
<path d="M218.994 307.449H247.215V202.342H218.994V307.449Z" fill="#E6E6E6"/>
<path d="M223.689 307.449H218.994V297.986H228.618L223.689 307.449Z" fill="#F0F0F0"/>
<path d="M333.854 307.449H362.074V202.342H333.854V307.449Z" fill="#E6E6E6"/>
<path d="M218.993 303.815H337.953V202.343H218.993V303.815Z" fill="#F0F0F0"/>
<path d="M222.643 234.663H334.311V206.837H222.643V234.663Z" fill="#E6E6E6"/>
<path d="M273.198 215.472H283.747C288.33 215.472 292.711 212.039 295.863 205.977H261.082C264.234 212.055 268.615 215.472 273.198 215.472Z" fill="#F0F0F0"/>
<path d="M333.259 307.449H337.954V297.986H328.33L333.259 307.449Z" fill="#F0F0F0"/>
<path d="M222.643 266.992H334.311V239.166H222.643V266.992Z" fill="#E6E6E6"/>
<path d="M273.198 247.809H283.747C288.33 247.809 292.711 244.376 295.863 238.313H261.082C264.234 244.416 268.615 247.809 273.198 247.809Z" fill="#F0F0F0"/>
<path d="M222.643 299.321H334.311V271.495H222.643V299.321Z" fill="#E6E6E6"/>
<path d="M273.198 280.138H283.747C288.33 280.138 292.711 276.705 295.863 270.643H261.082C264.234 276.705 268.615 280.138 273.198 280.138Z" fill="#F0F0F0"/>
<path d="M330.42 156.426H267.611L264.025 199.938H326.834L330.42 156.426Z" fill="#E6E6E6"/>
<path d="M326.833 199.938L326.576 202.342H263.768L264.025 199.938H326.833Z" fill="#E6E6E6"/>
<path d="M328.482 156.426H265.682L262.096 199.938H324.904L328.482 156.426Z" fill="#F0F0F0"/>
<path d="M323.635 197.101L326.256 159.409C326.274 159.29 326.267 159.168 326.236 159.052C326.204 158.936 326.149 158.827 326.074 158.734C325.998 158.64 325.904 158.563 325.797 158.508C325.69 158.452 325.572 158.42 325.452 158.412H267.733C267.516 158.422 267.312 158.516 267.162 158.673C267.012 158.83 266.929 159.039 266.929 159.256L264.324 196.98C264.308 197.099 264.317 197.219 264.349 197.335C264.382 197.45 264.437 197.558 264.512 197.651C264.588 197.744 264.681 197.821 264.787 197.877C264.893 197.933 265.009 197.967 265.128 197.977H322.863C323.079 197.957 323.279 197.855 323.423 197.692C323.566 197.529 323.642 197.317 323.635 197.101Z" fill="white"/>
<path d="M308.535 199.938L308.285 202.342H239.117L239.374 199.938H308.535Z" fill="#F0F0F0"/>
<path d="M42.5396 307.449H64.4004L64.4004 242.912H42.5396L42.5396 307.449Z" fill="#E6E6E6"/>
<path d="M46.6957 307.449H42.5391V292.053H51.0454L46.6957 307.449Z" fill="#F0F0F0"/>
<path d="M167.264 307.449H189.125V242.912H167.264V307.449Z" fill="#E6E6E6"/>
<path d="M42.5481 303.244H170.891V242.912H42.5481V303.244Z" fill="#F0F0F0"/>
<path d="M166.734 307.449H170.891V292.053H162.385L166.734 307.449Z" fill="#F0F0F0"/>
<path d="M128.576 249.272V296.338H166.621V249.272H128.576Z" fill="#E6E6E6"/>
<path d="M143.836 251.797H151.362C154.596 251.806 157.702 250.53 159.997 248.251H135.193C136.33 249.381 137.679 250.276 139.162 250.885C140.645 251.493 142.233 251.803 143.836 251.797Z" fill="#F0F0F0"/>
<path d="M87.6914 249.272V296.338H125.737V249.272H87.6914Z" fill="#E6E6E6"/>
<path d="M102.567 251.797H110.092C111.695 251.803 113.284 251.493 114.767 250.885C116.25 250.276 117.599 249.381 118.735 248.251H93.9238C95.0611 249.381 96.4097 250.275 97.8927 250.884C99.3756 251.492 100.964 251.802 102.567 251.797Z" fill="#F0F0F0"/>
<path d="M46.8086 249.272V296.338H84.8539V249.272H46.8086Z" fill="#E6E6E6"/>
<path d="M61.6833 251.797H69.2088C70.8118 251.803 72.4003 251.493 73.8834 250.885C75.3665 250.276 76.7151 249.381 77.8518 248.251H53.0645C55.3563 250.525 58.4548 251.8 61.6833 251.797Z" fill="#F0F0F0"/>
<path d="M129.002 205.992H106.458C103.656 205.992 101.385 208.264 101.385 211.065V237.742C101.385 240.544 103.656 242.815 106.458 242.815H129.002C131.804 242.815 134.075 240.544 134.075 237.742V211.065C134.075 208.264 131.804 205.992 129.002 205.992Z" fill="#F5F5F5"/>
<path d="M163.357 214.491H146.023C143.865 214.491 142.115 216.241 142.115 218.399V238.909C142.115 241.067 143.865 242.816 146.023 242.816H163.357C165.515 242.816 167.264 241.067 167.264 238.909V218.399C167.264 216.241 165.515 214.491 163.357 214.491Z" fill="#F5F5F5"/>
<path d="M49.2363 228.77C49.2363 228.77 50.0403 242.815 80.9461 242.815C111.852 242.815 112.656 228.77 112.656 228.77H49.2363Z" fill="#F0F0F0"/>
<path d="M58.9258 189.8L178.062 189.8L178.062 60.8221L58.9258 60.8221L58.9258 189.8Z" fill="#E6E6E6"/>
<path d="M55.2909 189.8L176.365 189.8L176.365 60.8221L55.2909 60.8221L55.2909 189.8Z" fill="#F0F0F0"/>
<path d="M58.9258 195.235L178.062 195.235V189.808H58.9258V195.235Z" fill="#E6E6E6"/>
<path d="M49.2459 195.235L170.32 195.235V189.808L49.2459 189.808V195.235Z" fill="#F0F0F0"/>
<path d="M171.275 184.711V65.9121H60.3797L60.3797 184.711H171.275Z" fill="#FAFAFA"/>
<path d="M146.272 184.711L132.114 65.9121H110.004L124.17 184.711H146.272Z" fill="white"/>
<path d="M168.92 180.361C169.017 180.361 169.11 180.323 169.179 180.256C169.248 180.188 169.288 180.096 169.29 179.999V69.2241C169.288 69.1274 169.248 69.0354 169.179 68.9678C169.11 68.9001 169.017 68.8623 168.92 68.8623C168.873 68.8623 168.826 68.8717 168.782 68.8898C168.738 68.908 168.698 68.9347 168.665 68.9683C168.631 69.0019 168.604 69.0418 168.586 69.0857C168.568 69.1295 168.559 69.1766 168.559 69.2241V179.999C168.559 180.047 168.568 180.094 168.586 180.138C168.604 180.182 168.631 180.221 168.665 180.255C168.698 180.289 168.738 180.315 168.782 180.333C168.826 180.352 168.873 180.361 168.92 180.361Z" fill="#F0F0F0"/>
<path d="M119.426 184.711L105.26 65.9121H96.6406L110.807 184.711H119.426Z" fill="white"/>
<path d="M61.0313 184.711L61.0312 65.9121H60.3881L60.3881 184.711H61.0313Z" fill="#E6E6E6"/>
<path opacity="0.6" d="M54.0938 76.7336H173.23L173.697 67.8896H54.5601L54.0938 76.7336Z" fill="#EBEBEB"/>
<path opacity="0.6" d="M54.0938 91.2456H173.23L173.697 82.3936H54.5601L54.0938 91.2456Z" fill="#EBEBEB"/>
<path opacity="0.6" d="M54.0938 105.75H173.23L173.697 96.9062H54.5601L54.0938 105.75Z" fill="#EBEBEB"/>
<path opacity="0.6" d="M54.0938 120.262H173.23L173.697 111.41H54.5601L54.0938 120.262Z" fill="#EBEBEB"/>
<path opacity="0.6" d="M54.0938 134.766H173.23L173.697 125.922H54.5601L54.0938 134.766Z" fill="#EBEBEB"/>
<path opacity="0.6" d="M54.0938 149.271H173.23L173.697 140.427H54.5601L54.0938 149.271Z" fill="#EBEBEB"/>
<path d="M240.991 137.998H336.209V71.4912L240.991 71.4912V137.998Z" fill="#F0F0F0"/>
<path d="M236.198 137.998H335.355V71.4912L236.198 71.4912V137.998Z" fill="#F5F5F5"/>
<path d="M330.115 132.756V76.7256H241.442V132.756H330.115Z" fill="white"/>
<path d="M315.844 114.015V95.4751C315.844 92.6244 313.533 90.3135 310.682 90.3135H294.168C291.317 90.3135 289.006 92.6244 289.006 95.4751V114.015C289.006 116.866 291.317 119.177 294.168 119.177H310.682C313.533 119.177 315.844 116.866 315.844 114.015Z" fill="#F5F5F5"/>
<path d="M282.549 114.015V95.4751C282.549 92.6244 280.238 90.3135 277.387 90.3135H260.873C258.022 90.3135 255.711 92.6244 255.711 95.4751V114.015C255.711 116.866 258.022 119.177 260.873 119.177H277.387C280.238 119.177 282.549 116.866 282.549 114.015Z" fill="#F5F5F5"/>
<path d="M236.44 319.63L230.209 317.362L233.642 302.352L239.873 304.611L236.44 319.63Z" fill="#7F3E3B"/>
<path d="M285.58 327.903H278.971L277.09 312.587H283.707L285.58 327.903Z" fill="#7F3E3B"/>
<path d="M278.103 327.139H286.143C286.274 327.139 286.401 327.184 286.503 327.266C286.605 327.348 286.677 327.462 286.706 327.589L288.073 333.466C288.106 333.609 288.106 333.757 288.073 333.899C288.04 334.042 287.975 334.175 287.883 334.288C287.79 334.402 287.673 334.492 287.54 334.553C287.407 334.614 287.262 334.644 287.116 334.64C284.519 334.6 282.63 334.447 279.357 334.447C277.347 334.447 271.317 334.656 268.511 334.656C265.706 334.656 265.344 331.907 266.477 331.657C271.567 330.548 275.394 329.012 277.01 327.541C277.311 327.275 277.701 327.132 278.103 327.139Z" fill="#263238"/>
<path d="M229.984 316.1L237.059 317.612C237.188 317.639 237.304 317.71 237.387 317.813C237.471 317.915 237.517 318.043 237.517 318.175L237.622 324.197C237.626 324.342 237.596 324.486 237.536 324.618C237.475 324.75 237.385 324.866 237.272 324.958C237.16 325.049 237.028 325.114 236.886 325.147C236.745 325.179 236.597 325.179 236.456 325.145C233.907 324.558 230.249 323.618 227.041 322.926C223.287 322.122 220.963 321.367 216.589 320.418C213.928 319.847 213.743 317.009 214.901 317.001C220.199 317.001 223.407 318.022 228.344 316.269C228.864 316.062 229.432 316.003 229.984 316.1Z" fill="#263238"/>
<path d="M272 131.052C269.974 134.139 267.908 137.211 265.801 140.266L259.482 149.375C258.453 150.895 257.375 152.39 256.395 153.878C255.647 155.01 254.74 156.028 253.701 156.901C252.431 157.975 250.9 158.696 249.263 158.991C248.431 159.126 247.584 159.145 246.747 159.047C245.995 158.951 245.258 158.765 244.552 158.493C243.348 158.023 242.229 157.361 241.239 156.531C240.372 155.811 239.583 155.002 238.883 154.119C238.538 153.701 238.232 153.267 237.935 152.824C237.637 152.382 237.388 151.956 237.066 151.401L241.006 148.378L241.971 149.07L242.984 149.745C243.623 150.154 244.295 150.51 244.994 150.806C245.528 151.056 246.103 151.206 246.69 151.249C247.149 151.249 247.39 151.16 247.494 151.031C247.641 150.863 247.778 150.686 247.904 150.501C248.113 150.187 248.347 149.777 248.668 149.174C249.617 147.478 250.55 145.854 251.53 144.238C253.471 141.022 255.451 137.843 257.472 134.702C258.493 133.134 259.506 131.575 260.559 130.031C261.613 128.487 262.634 126.936 263.727 125.416L272 131.052Z" fill="#803E3C"/>
<path d="M275.353 127.032C276.423 133.279 262.055 148.137 262.055 148.137L250.438 138.489C253.416 133.568 256.921 128.985 260.889 124.821C266.767 118.904 274.164 120.206 275.353 127.032Z" fill="#FFC100"/>
<path opacity="0.7" d="M275.353 127.032C276.423 133.279 262.055 148.137 262.055 148.137L250.438 138.489C253.416 133.568 256.921 128.985 260.889 124.821C266.767 118.904 274.164 120.206 275.353 127.032Z" fill="white"/>
<path opacity="0.2" d="M266.244 134.308C262.867 135.369 258.791 140.362 257.754 144.583L262.063 148.169C265.494 144.577 268.654 140.737 271.518 136.68C270.739 134.983 270.144 133.086 266.244 134.308Z" fill="black"/>
<path opacity="0.2" d="M233.642 302.352L231.873 310.094L238.104 312.353L239.873 304.619L233.642 302.352Z" fill="black"/>
<path opacity="0.2" d="M283.707 312.587H277.09L278.063 320.482H284.68L283.707 312.587Z" fill="black"/>
<path d="M304.917 128.093C302.132 134.929 299.866 141.965 298.139 149.141C296.901 154.15 295.944 158.958 295.18 163.332C293.387 173.583 292.664 181.478 292.037 184.107L257.336 177.08C257.087 139.091 268.536 121.058 268.536 121.058C271.367 120.903 274.205 120.922 277.034 121.114C277.629 121.154 278.24 121.21 278.851 121.283C283.822 121.992 288.748 122.988 293.604 124.266C294.529 124.499 295.454 124.764 296.362 125.029C300.929 126.412 304.917 128.093 304.917 128.093Z" fill="#FFC100"/>
<path opacity="0.7" d="M304.917 128.093C302.132 134.929 299.866 141.965 298.139 149.141C296.901 154.15 295.944 158.958 295.18 163.332C293.387 173.583 292.664 181.478 292.037 184.107L257.336 177.08C257.087 139.091 268.536 121.058 268.536 121.058C271.367 120.903 274.205 120.922 277.034 121.114C277.629 121.154 278.24 121.21 278.851 121.283C283.822 121.992 288.748 122.988 293.604 124.266C294.529 124.499 295.454 124.764 296.362 125.029C300.929 126.412 304.917 128.093 304.917 128.093Z" fill="white"/>
<path d="M279.576 128.406C278.217 130.818 276.36 132.7 274.004 139.26C274.149 140.748 274.374 142.259 274.655 143.787C275.727 142.559 276.853 141.343 278.032 140.137C279.728 133.705 279.415 131.871 280.95 128.736L279.576 128.406Z" fill="#FFC100"/>
<path d="M279.244 130.521L278.682 127.016L281.23 126.461L282.774 127.892L279.244 130.521Z" fill="#FFC100"/>
<path d="M296.339 125.03C287.728 130.955 280.412 137.186 274.631 143.787C273.119 135.699 273.481 128.085 276.174 121.066C273.614 120.919 271.048 120.919 268.488 121.066C268.488 121.066 257.063 139.116 257.313 177.089L292.037 184.116C292.664 181.487 293.388 173.592 295.181 163.341C295.945 158.967 296.902 154.159 298.14 149.15C299.867 141.973 302.132 134.937 304.917 128.101C304.917 128.101 300.93 126.413 296.339 125.03Z" fill="#263238"/>
<path d="M295.31 107.358C293.468 111.917 290.863 120.423 293.581 124.242C291.82 125.473 289.815 126.308 287.702 126.693C285.588 127.077 283.417 127.001 281.336 126.469C277.268 125.553 277.614 122.65 278.828 121.26C284.367 121.067 284.986 117.111 284.769 113.22L295.31 107.358Z" fill="#7F3E3B"/>
<path d="M281.23 126.469C281.23 126.469 282.372 128.752 283.787 131.076C286.762 130.216 293.837 127.731 294.336 124.154C294.129 123.347 293.649 122.636 292.977 122.144C289.318 124.204 285.352 125.664 281.23 126.469Z" fill="white"/>
<path d="M281.231 126.469C279.657 127.311 278.209 128.369 276.929 129.613C275.281 127.86 277.733 121.533 278.642 120.962C279.52 120.564 280.502 120.451 281.448 120.64C281.448 120.64 278.312 125.054 281.231 126.469Z" fill="white"/>
<path opacity="0.2" d="M291.047 109.762L284.808 113.251C284.869 114.154 284.853 115.06 284.76 115.961C286.834 116.081 290.042 114.425 290.661 112.351C290.945 111.518 291.075 110.641 291.047 109.762Z" fill="black"/>
<path d="M283.274 90.8517C281.473 92.8215 279.664 97.75 283.604 97.7098C287.543 97.6696 286.37 87.4588 283.274 90.8517Z" fill="#263238"/>
<path d="M298.444 101.714C296.032 107.817 294.93 111.507 290.75 113.646C284.462 116.862 277.725 111.427 278.271 104.713C278.762 98.6671 282.621 89.7105 289.527 89.2844C291.052 89.1941 292.575 89.4912 293.953 90.1482C295.332 90.8051 296.522 91.8005 297.412 93.0414C298.302 94.2824 298.864 95.7285 299.044 97.245C299.225 98.7616 299.018 100.299 298.444 101.714Z" fill="#7F3E3B"/>
<path d="M284.937 93.2638C280.845 91.2217 279.567 85.5133 286.344 84.0419C287.917 83.7699 289.524 83.7699 291.096 84.0419C291.096 84.0419 289.327 85.1354 289.938 86.7755C290.959 85.7869 292.271 85.1536 293.681 84.9697C295.09 84.7857 296.521 85.0609 297.761 85.7545C296.491 86.7514 296.209 89.8629 298.565 89.9272C302.119 90.0237 306.251 92.6045 304.193 96.1823C307.192 99.937 302.513 105.155 295.88 105.686C294.071 102.043 296.989 96.6567 296.989 96.6567C293.645 96.5683 288.636 95.0969 284.937 93.2638Z" fill="#263238"/>
<path d="M303.188 96.2869C303.188 96.2869 306.219 95.8688 305.189 93.0146C307.449 94.9121 305.792 96.6648 303.188 96.2869Z" fill="#263238"/>
<path d="M302.561 96.7611C302.561 96.7611 305.503 95.9008 305.728 98.9239C307.015 96.2626 304.796 95.3461 302.561 96.7611Z" fill="#263238"/>
<path d="M299.151 107.688C298.678 108.346 298.08 108.904 297.389 109.329C296.699 109.754 295.932 110.038 295.131 110.164C292.969 110.477 292.149 108.467 292.969 106.57C293.7 104.858 295.702 102.63 297.793 103.185C299.883 103.74 300.317 106.039 299.151 107.688Z" fill="#7F3E3B"/>
<path d="M230.041 307.811L240.598 311.638C240.598 311.638 248.839 275.345 253.22 255.229C254.555 249.103 257.24 240.693 260.408 231.72C264.428 220.464 269.188 208.276 273.047 198.756C277.115 188.747 280.146 181.679 280.146 181.679L257.337 177.064C257.337 177.064 239.93 227.154 236.015 246.948C231.946 267.547 230.041 307.811 230.041 307.811Z" fill="#FFC100"/>
<g opacity="0.3">
<path d="M230.041 307.811L240.598 311.638C240.598 311.638 248.839 275.345 253.22 255.229C254.555 249.103 257.24 240.693 260.408 231.72C264.428 220.464 269.188 208.276 273.047 198.756C277.115 188.747 280.146 181.679 280.146 181.679L257.337 177.064C257.337 177.064 239.93 227.154 236.015 246.948C231.946 267.547 230.041 307.811 230.041 307.811Z" fill="black"/>
</g>
<path opacity="0.2" d="M260.408 231.721C264.428 220.465 269.188 208.276 273.047 198.757L271.278 193.298C264.758 199.392 260.682 220.168 260.408 231.721Z" fill="black"/>
<path d="M269.637 179.573C269.637 179.573 265.569 236.657 265.32 256.09C265.054 277.34 274.968 318.955 274.968 318.955H287.076C287.076 318.955 282.252 281.4 283.86 260.351C285.661 236.81 292.012 184.108 292.012 184.108L269.637 179.573Z" fill="#FFC100"/>
<g opacity="0.3">
<path d="M269.637 179.573C269.637 179.573 265.569 236.657 265.32 256.09C265.054 277.34 274.968 318.955 274.968 318.955H287.076C287.076 318.955 282.252 281.4 283.86 260.351C285.661 236.81 292.012 184.108 292.012 184.108L269.637 179.573Z" fill="black"/>
</g>
<path d="M273.544 319.22H287.807L287.767 314.959L272.869 314.099L273.544 319.22Z" fill="#263238"/>
<path d="M228.633 307.675L241.272 312.057L242.647 307.98L228.826 302.947L228.633 307.675Z" fill="#263238"/>
<path d="M288.452 100.283C288.291 100.79 287.889 101.087 287.559 100.999C287.23 100.91 287.093 100.387 287.262 99.8729C287.431 99.3584 287.825 99.0689 288.154 99.1574C288.484 99.2458 288.637 99.7765 288.452 100.283Z" fill="#263238"/>
<path d="M282.761 98.3571C282.922 97.8493 282.782 97.3515 282.448 97.2452C282.114 97.1389 281.712 97.4644 281.55 97.9722C281.389 98.4799 281.529 98.9778 281.863 99.0841C282.197 99.1904 282.599 98.8649 282.761 98.3571Z" fill="#263238"/>
<path d="M284.471 99.2217C283.358 100.509 282.073 101.637 280.652 102.574C280.924 102.924 281.266 103.213 281.657 103.422C282.047 103.632 282.478 103.756 282.92 103.788L284.471 99.2217Z" fill="#630F0F"/>
<path d="M285.082 108.13C284.856 108.084 284.634 108.025 284.415 107.953C284.375 107.938 284.343 107.91 284.324 107.872C284.304 107.835 284.3 107.792 284.31 107.752C284.325 107.713 284.354 107.681 284.391 107.663C284.429 107.645 284.472 107.642 284.511 107.655C285.133 107.883 285.801 107.959 286.458 107.876C287.115 107.794 287.744 107.555 288.29 107.181C288.304 107.167 288.321 107.155 288.34 107.148C288.358 107.14 288.378 107.136 288.399 107.136C288.419 107.136 288.439 107.14 288.457 107.148C288.476 107.155 288.493 107.167 288.507 107.181C288.522 107.195 288.535 107.211 288.543 107.23C288.552 107.249 288.556 107.269 288.556 107.29C288.556 107.31 288.552 107.33 288.543 107.349C288.535 107.368 288.522 107.385 288.507 107.398C288.018 107.751 287.461 107.998 286.871 108.124C286.282 108.25 285.672 108.252 285.082 108.13Z" fill="#263238"/>
<path d="M290.823 99.0202C290.769 99.0116 290.718 98.9884 290.675 98.953C290.633 98.9176 290.601 98.8714 290.582 98.8192C290.46 98.4434 290.25 98.1019 289.971 97.8225C289.692 97.5431 289.35 97.3336 288.974 97.2112C288.893 97.1903 288.822 97.1381 288.779 97.0659C288.735 96.9937 288.722 96.9073 288.741 96.8252C288.764 96.7454 288.817 96.6776 288.889 96.6369C288.962 96.5963 289.047 96.5859 289.127 96.6082C289.602 96.7633 290.033 97.0295 290.384 97.3847C290.735 97.7399 290.996 98.1738 291.145 98.6503C291.159 98.6893 291.164 98.7307 291.162 98.772C291.159 98.8133 291.148 98.8535 291.129 98.8903C291.11 98.9272 291.084 98.9598 291.052 98.9863C291.021 99.0127 290.984 99.0325 290.944 99.0443C290.903 99.0464 290.861 99.0382 290.823 99.0202Z" fill="#263238"/>
<path d="M280.918 95.5552C280.856 95.544 280.799 95.5129 280.757 95.4668C280.727 95.4383 280.703 95.404 280.687 95.366C280.67 95.328 280.662 95.287 280.662 95.2457C280.662 95.2044 280.67 95.1634 280.687 95.1254C280.703 95.0874 280.727 95.0531 280.757 95.0246C281.092 94.6595 281.511 94.3815 281.977 94.2148C282.444 94.0481 282.944 93.9977 283.434 94.0678C283.515 94.0853 283.587 94.1336 283.633 94.2025C283.68 94.2715 283.698 94.3558 283.683 94.4377C283.668 94.5183 283.621 94.5896 283.553 94.6363C283.486 94.6829 283.402 94.7011 283.322 94.6869C282.93 94.6378 282.533 94.6855 282.164 94.8256C281.796 94.9658 281.467 95.1942 281.207 95.4909C281.167 95.523 281.12 95.5454 281.07 95.5565C281.02 95.5677 280.968 95.5672 280.918 95.5552Z" fill="#263238"/>
<path d="M275.925 328.289C275.473 328.326 275.022 328.207 274.647 327.952C274.533 327.853 274.444 327.729 274.387 327.589C274.329 327.449 274.306 327.298 274.317 327.148C274.318 327.057 274.343 326.968 274.39 326.89C274.436 326.813 274.503 326.749 274.583 326.705C275.306 326.328 277.453 327.646 277.694 327.791C277.721 327.807 277.743 327.831 277.758 327.86C277.772 327.888 277.778 327.92 277.775 327.952C277.769 327.983 277.755 328.011 277.733 328.034C277.712 328.057 277.684 328.073 277.654 328.08C277.088 328.215 276.508 328.285 275.925 328.289ZM274.928 326.923C274.859 326.921 274.791 326.935 274.727 326.963C274.696 326.982 274.67 327.009 274.653 327.042C274.636 327.074 274.629 327.111 274.631 327.148C274.617 327.253 274.63 327.361 274.667 327.461C274.705 327.56 274.767 327.649 274.848 327.719C275.21 328.016 276.078 328.056 277.196 327.831C276.517 327.391 275.762 327.083 274.969 326.923H274.928Z" fill="#FFC100"/>
<path d="M277.614 328.032C277.59 328.04 277.565 328.04 277.542 328.032C276.858 327.662 275.516 326.207 275.652 325.475C275.673 325.36 275.733 325.256 275.823 325.181C275.913 325.107 276.026 325.065 276.143 325.065C276.262 325.047 276.384 325.055 276.499 325.09C276.615 325.125 276.721 325.185 276.81 325.266C277.614 325.894 277.767 327.799 277.775 327.879C277.777 327.901 277.775 327.924 277.768 327.945C277.76 327.966 277.749 327.985 277.734 328.001C277.718 328.017 277.7 328.03 277.679 328.038C277.658 328.046 277.636 328.05 277.614 328.048V328.032ZM276.255 325.355H276.183C275.982 325.355 275.966 325.475 275.958 325.516C275.877 325.95 276.762 327.043 277.421 327.566C277.364 326.81 277.085 326.088 276.617 325.492C276.514 325.411 276.386 325.371 276.255 325.379V325.355Z" fill="#FFC100"/>
<path d="M229.141 316.856C228.055 316.856 226.142 316.695 225.563 315.916C225.477 315.803 225.419 315.67 225.395 315.53C225.371 315.39 225.382 315.247 225.426 315.112C225.446 315.029 225.488 314.953 225.548 314.892C225.607 314.832 225.682 314.788 225.764 314.766C226.648 314.484 228.98 316.374 229.237 316.583C229.263 316.603 229.282 316.631 229.291 316.663C229.299 316.695 229.297 316.729 229.285 316.76C229.275 316.789 229.255 316.815 229.229 316.832C229.203 316.85 229.172 316.858 229.141 316.856ZM225.925 315.039H225.868C225.834 315.046 225.803 315.064 225.78 315.09C225.757 315.116 225.742 315.149 225.74 315.184C225.708 315.272 225.698 315.367 225.713 315.459C225.727 315.552 225.764 315.64 225.82 315.715C226.15 316.149 227.203 316.438 228.682 316.519C227.742 315.819 226.439 314.975 225.925 315.039Z" fill="#FFC100"/>
<path d="M229.14 316.856C229.104 316.867 229.064 316.867 229.028 316.856C228.312 316.341 227.05 314.605 227.323 313.905C227.38 313.736 227.548 313.551 227.983 313.6C228.14 313.615 228.292 313.662 228.43 313.738C228.568 313.814 228.689 313.918 228.787 314.042C229.47 314.894 229.285 316.671 229.277 316.751C229.274 316.777 229.264 316.802 229.249 316.823C229.233 316.844 229.212 316.861 229.189 316.872L229.14 316.856ZM227.782 313.873C227.645 313.873 227.621 313.961 227.613 313.986C227.452 314.404 228.28 315.73 228.98 316.398C229.061 315.642 228.904 314.88 228.529 314.219C228.46 314.128 228.372 314.052 228.273 313.996C228.174 313.939 228.064 313.903 227.95 313.889L227.782 313.873Z" fill="#FFC100"/>
<path d="M241.272 148.37L236.376 143.723L234.068 150.838C234.068 150.838 238.683 154.713 240.581 152.261L241.272 148.37Z" fill="#7F3E3B"/>
<path d="M229.855 142.315L229.952 149.109L234.076 150.838L236.384 143.722L229.855 142.315Z" fill="#7F3E3B"/>
<path d="M252.457 132.314L202.247 121.862L197.785 143.192L247.995 153.644C251.127 154.297 253.872 156.167 255.625 158.843C257.379 161.52 257.998 164.783 257.345 167.915C256.693 171.048 254.823 173.793 252.146 175.546C249.47 177.3 246.207 177.918 243.074 177.266L192.864 166.814L188.41 188.136L238.62 198.588C247.408 200.392 256.553 198.645 264.057 193.727C271.56 188.81 276.813 181.123 278.667 172.345L280.38 164.096L252.457 132.314Z" fill="#FFC100"/>
<path opacity="0.1" d="M252.457 132.314L202.247 121.862L197.785 143.192L247.995 153.644C251.127 154.297 253.872 156.167 255.625 158.843C257.379 161.52 257.998 164.783 257.345 167.915C256.693 171.048 254.823 173.793 252.146 175.546C249.47 177.3 246.207 177.918 243.074 177.266L192.864 166.814L188.41 188.136L238.62 198.588C247.408 200.392 256.553 198.645 264.057 193.727C271.56 188.81 276.813 181.123 278.667 172.345L280.38 164.096L252.457 132.314Z" fill="black"/>
<path d="M280.177 165.085C278.328 173.868 273.078 181.561 265.574 186.483C258.069 191.405 248.921 193.155 240.13 191.352L189.92 180.9L194.366 159.562L244.576 170.014C246.132 170.352 247.74 170.379 249.307 170.092C250.874 169.806 252.368 169.211 253.704 168.344C255.04 167.477 256.191 166.353 257.09 165.039C257.99 163.724 258.62 162.245 258.944 160.685C259.269 159.126 259.281 157.518 258.98 155.954C258.68 154.39 258.072 152.9 257.193 151.572C256.314 150.244 255.181 149.103 253.858 148.216C252.536 147.328 251.05 146.711 249.488 146.401L199.278 135.949L203.717 114.61L253.934 125.062C262.709 126.922 270.392 132.176 275.308 139.678C280.224 147.18 281.974 156.322 280.177 165.11V165.085Z" fill="#FFC100"/>
<path opacity="0.5" d="M222.83 118.566L203.719 114.587L197.764 143.191L216.875 147.17L222.83 118.566Z" fill="white"/>
<path opacity="0.5" d="M213.469 163.528L194.357 159.55L188.403 188.154L207.514 192.133L213.469 163.528Z" fill="white"/>
<path d="M308.029 133.906C308.704 136.318 309.219 138.553 309.741 140.893C310.264 143.233 310.666 145.58 311.044 147.96C311.422 150.34 311.695 152.784 311.848 155.252C312.049 157.896 311.974 160.552 311.623 163.18C311.505 163.959 311.336 164.73 311.116 165.487C310.986 165.921 310.833 166.348 310.658 166.766C310.569 167.003 310.464 167.234 310.344 167.457L310.159 167.819L309.902 168.245C309.242 169.275 308.364 170.148 307.329 170.802C306.509 171.315 305.621 171.713 304.692 171.984C303.224 172.399 301.707 172.616 300.182 172.627C298.86 172.642 297.538 172.569 296.226 172.41C291.366 171.758 286.613 170.465 282.092 168.567L283.434 163.783L286.763 164.153C287.889 164.273 289.006 164.354 290.116 164.442C292.276 164.617 294.445 164.682 296.612 164.635C297.608 164.61 298.601 164.524 299.587 164.378C300.378 164.287 301.152 164.084 301.886 163.775C302.062 163.697 302.223 163.588 302.361 163.453C302.401 163.389 302.304 163.453 302.192 163.55C302.189 163.566 302.189 163.582 302.192 163.598V163.493C302.192 163.405 302.24 163.276 302.272 163.132C302.34 162.767 302.389 162.4 302.417 162.03C302.513 160.049 302.435 158.064 302.184 156.097C301.926 153.982 301.605 151.811 301.195 149.665C300.391 145.323 299.402 140.821 298.357 136.592L308.029 133.906Z" fill="#803E3C"/>
<path d="M306.702 129.057C311.888 132.7 313.6 151.569 313.6 151.569L297.52 153.523C296.313 148.077 295.597 142.534 295.381 136.961C295.164 128.004 300.415 124.619 306.702 129.057Z" fill="#FFC100"/>
<path opacity="0.7" d="M306.702 129.057C311.888 132.7 313.6 151.569 313.6 151.569L297.52 153.523C296.313 148.077 295.597 142.534 295.381 136.961C295.164 128.004 300.415 124.619 306.702 129.057Z" fill="white"/>
<path d="M285.067 164.015L280.348 159.191L277.381 167.231C277.381 167.231 282.293 170.383 284.247 167.939L285.067 164.015Z" fill="#7F3E3B"/>
<path d="M274.896 158.524L272.773 165.222L277.413 167.192L280.347 159.224L274.896 158.524Z" fill="#7F3E3B"/>
<path d="M183.07 82.9088V113.806C183.068 114.716 182.706 115.588 182.062 116.232C181.419 116.875 180.547 117.237 179.637 117.24H126.798C125.888 117.237 125.016 116.875 124.373 116.232C123.73 115.588 123.367 114.716 123.365 113.806V82.9088C123.365 82.4705 123.449 82.0364 123.614 81.6304C123.873 80.9907 124.318 80.4435 124.892 80.0593C125.465 79.6752 126.14 79.4719 126.83 79.4757H179.669C180.36 79.4708 181.036 79.6737 181.609 80.0579C182.183 80.4422 182.627 80.9901 182.885 81.6304C183.028 82.0407 183.091 82.4747 183.07 82.9088Z" fill="#FFC100"/>
<path opacity="0.3" d="M182.822 81.6304L154.626 105.035C154.229 105.362 153.732 105.54 153.219 105.54C152.705 105.54 152.208 105.362 151.812 105.035L123.615 81.6304C123.874 80.9907 124.319 80.4434 124.892 80.0593C125.466 79.6752 126.141 79.4719 126.831 79.4756H179.67C180.349 79.4835 181.011 79.6924 181.572 80.0758C182.133 80.4593 182.568 81.0002 182.822 81.6304Z" fill="black"/>
<path d="M162.408 62.9932H134.316V90.506L151.811 105.034C152.208 105.361 152.705 105.54 153.218 105.54C153.732 105.54 154.229 105.361 154.625 105.034L172.129 90.506V69.1438L162.408 62.9932Z" fill="white"/>
<path d="M153.219 106.032C152.589 106.032 151.98 105.81 151.498 105.404L134.003 90.852C133.948 90.8055 133.904 90.7477 133.873 90.6825C133.843 90.6172 133.827 90.5461 133.826 90.4741V62.9934C133.826 62.8633 133.878 62.7386 133.97 62.6466C134.062 62.5546 134.187 62.503 134.317 62.503H162.408C162.499 62.5019 162.589 62.527 162.666 62.5753L172.426 68.7098C172.497 68.7542 172.554 68.816 172.594 68.8893C172.633 68.9625 172.653 69.0447 172.651 69.1279V90.5063C172.651 90.5783 172.635 90.6494 172.604 90.7146C172.574 90.7799 172.529 90.8377 172.474 90.8842L154.939 105.404C154.458 105.81 153.848 106.032 153.219 106.032ZM134.799 90.2731L152.125 104.657C152.433 104.912 152.819 105.051 153.219 105.051C153.618 105.051 154.005 104.912 154.312 104.657L171.638 90.2731V69.3691L162.223 63.516H134.799V90.2731Z" fill="#FFC100"/>
<path d="M172.128 69.1279L162.367 62.9854L165.527 71.1218L172.128 69.1279Z" fill="#EBEBEB"/>
<path d="M165.527 71.6122C165.428 71.6113 165.331 71.581 165.25 71.5251C165.168 71.4693 165.105 71.3905 165.068 71.2986L161.909 63.1622C161.874 63.0667 161.869 62.9628 161.896 62.8648C161.923 62.7668 161.98 62.6796 162.058 62.6151C162.137 62.5507 162.233 62.5123 162.335 62.5051C162.436 62.498 162.537 62.5225 162.624 62.5752L172.385 68.7098C172.464 68.7607 172.527 68.833 172.567 68.9184C172.607 69.0038 172.622 69.0987 172.61 69.1922C172.598 69.2856 172.559 69.3735 172.497 69.4449C172.436 69.5164 172.355 69.5682 172.264 69.5942L165.663 71.5559C165.622 71.5835 165.575 71.6026 165.527 71.6122ZM163.356 64.1913L165.816 70.5188L170.954 68.967L163.356 64.1913Z" fill="#FFC100"/>
<path d="M160.872 89.0427H163.091C162.283 90.4601 161.082 91.6133 159.633 92.3632C157.731 93.3231 155.621 93.7955 153.491 93.7381C151.477 93.7968 149.476 93.3982 147.638 92.5723C146.108 91.8808 144.878 90.6623 144.173 89.1392C143.485 87.5901 143.208 85.8899 143.369 84.2026C143.517 82.2601 144.138 80.3832 145.178 78.7354C146.163 77.1155 147.58 75.8016 149.27 74.9406C151.018 74.0764 152.948 73.6409 154.898 73.6702C156.488 73.6362 158.063 73.9864 159.489 74.6913C160.747 75.3203 161.766 76.342 162.391 77.6018C163.033 78.8737 163.311 80.2983 163.195 81.7183C163.061 83.5005 162.356 85.1922 161.185 86.5423C160.541 87.3857 159.711 88.0695 158.761 88.5407C157.81 89.0119 156.763 89.258 155.702 89.2598C155.255 89.2915 154.808 89.1848 154.424 88.9543C154.284 88.8483 154.166 88.7155 154.078 88.5637C153.989 88.4119 153.932 88.244 153.909 88.0699C153.117 88.8246 152.068 89.25 150.974 89.2598C150.451 89.2791 149.93 89.1816 149.448 88.9744C148.967 88.7672 148.538 88.4555 148.193 88.0618C147.828 87.6178 147.559 87.1022 147.406 86.5483C147.252 85.9944 147.216 85.4145 147.3 84.8458C147.42 83.2162 148.019 81.6583 149.021 80.3676C149.51 79.6254 150.173 79.0135 150.952 78.5849C151.731 78.1562 152.602 77.9237 153.491 77.9073C154.02 77.8663 154.549 77.9779 155.017 78.2287C155.484 78.4795 155.87 78.859 156.128 79.3224L156.474 78.1646H159.231L157.077 85.6498C156.979 85.9489 156.907 86.2555 156.86 86.5664C156.836 86.7042 156.868 86.8458 156.948 86.9604C156.983 87.0009 157.026 87.0333 157.075 87.0555C157.123 87.0777 157.176 87.0892 157.23 87.089C157.723 87.0215 158.187 86.8121 158.564 86.486C159.345 85.9259 159.991 85.1978 160.454 84.3554C160.945 83.5095 161.242 82.5647 161.322 81.5896C161.409 80.8057 161.318 80.0123 161.054 79.2687C160.791 78.5252 160.363 77.8509 159.802 77.2963C158.596 76.1492 156.881 75.5757 154.657 75.5757C152.958 75.5323 151.277 75.9283 149.776 76.7254C148.423 77.4738 147.309 78.5885 146.56 79.9414C145.804 81.2795 145.348 82.7667 145.226 84.2991C145.092 85.6891 145.371 87.0877 146.03 88.3191C146.661 89.5117 147.691 90.445 148.94 90.9562C150.382 91.5273 151.925 91.8008 153.475 91.7602C154.952 91.7897 156.422 91.5556 157.816 91.0688C158.988 90.6593 160.038 89.9627 160.872 89.0427ZM149.921 84.7574C149.808 85.4313 149.945 86.1234 150.307 86.7031C150.456 86.9027 150.65 87.0638 150.874 87.1729C151.098 87.282 151.345 87.3359 151.593 87.3302C151.989 87.3282 152.379 87.2288 152.727 87.0408C153.028 86.865 153.3 86.6425 153.531 86.3815C154.005 85.8337 154.376 85.2044 154.625 84.5242C154.939 83.802 155.135 83.0337 155.203 82.2489C155.304 81.6168 155.16 80.9702 154.801 80.4399C154.646 80.235 154.444 80.0704 154.211 79.9599C153.979 79.8494 153.724 79.7962 153.467 79.8048C152.829 79.8183 152.219 80.0675 151.754 80.5042C151.156 81.0392 150.707 81.7209 150.452 82.4821C150.168 83.2116 149.99 83.9777 149.921 84.7574Z" fill="#FFC100"/>
<path d="M143.489 157.681V185.346C143.489 186.162 143.166 186.944 142.59 187.521C142.014 188.098 141.233 188.423 140.418 188.426H93.1106C92.2945 188.423 91.5125 188.098 90.9355 187.521C90.3585 186.944 90.0334 186.162 90.0313 185.346V157.681C90.0312 157.289 90.1077 156.901 90.2564 156.539C90.4856 155.969 90.8798 155.481 91.3884 155.138C91.8969 154.794 92.4967 154.61 93.1106 154.609H140.418C141.03 154.61 141.628 154.793 142.135 155.135C142.642 155.478 143.035 155.964 143.264 156.531C143.416 156.895 143.492 157.286 143.489 157.681Z" fill="#FFC100"/>
<path opacity="0.3" d="M143.264 156.531L118.018 177.491C117.664 177.783 117.219 177.943 116.76 177.943C116.301 177.943 115.856 177.783 115.501 177.491L90.2559 156.539C90.4851 155.969 90.8793 155.481 91.3878 155.138C91.8964 154.794 92.4962 154.61 93.1101 154.609H140.417C141.029 154.61 141.627 154.793 142.134 155.135C142.641 155.478 143.035 155.964 143.264 156.531Z" fill="black"/>
<path d="M124.957 139.848H99.832V164.482L115.502 177.491C115.854 177.787 116.3 177.95 116.76 177.95C117.221 177.95 117.666 177.787 118.019 177.491L133.688 164.482V145.339L124.957 139.848Z" fill="white"/>
<path d="M116.765 178.383C116.201 178.384 115.655 178.188 115.221 177.828L99.5512 164.82C99.5028 164.778 99.4641 164.726 99.4377 164.668C99.4114 164.609 99.398 164.546 99.3985 164.482V139.847C99.3984 139.732 99.4439 139.62 99.5251 139.538C99.6063 139.455 99.7167 139.407 99.8326 139.405H124.958C125.041 139.406 125.122 139.431 125.191 139.478L133.922 144.969C133.986 145.008 134.038 145.062 134.075 145.127C134.112 145.191 134.131 145.264 134.131 145.339V164.482C134.13 164.547 134.115 164.61 134.088 164.668C134.06 164.727 134.02 164.778 133.97 164.82L118.3 177.828C117.869 178.186 117.326 178.382 116.765 178.383ZM100.275 164.281L115.784 177.145C116.059 177.375 116.406 177.502 116.765 177.502C117.124 177.502 117.471 177.375 117.746 177.145L133.255 164.281V145.58L124.829 140.282H100.275V164.281Z" fill="#FFC100"/>
<path d="M133.688 145.339L124.957 139.848L127.779 147.124L133.688 145.339Z" fill="#EBEBEB"/>
<path d="M127.778 147.566C127.691 147.565 127.605 147.538 127.534 147.488C127.462 147.438 127.407 147.367 127.376 147.285L124.546 140.001C124.512 139.916 124.506 139.823 124.53 139.734C124.553 139.646 124.604 139.567 124.675 139.51C124.749 139.455 124.839 139.426 124.932 139.426C125.025 139.426 125.115 139.455 125.189 139.51L133.921 145.002C133.992 145.047 134.049 145.112 134.085 145.189C134.121 145.266 134.133 145.352 134.122 145.436C134.11 145.518 134.075 145.595 134.021 145.657C133.967 145.72 133.896 145.766 133.816 145.789L127.907 147.574C127.864 147.58 127.82 147.577 127.778 147.566ZM125.841 140.917L128.044 146.593L132.658 145.203L125.841 140.917Z" fill="#FFC100"/>
<path d="M123.614 163.212H125.6C124.879 164.483 123.804 165.517 122.505 166.187C120.801 167.046 118.912 167.468 117.005 167.417C115.202 167.467 113.411 167.113 111.763 166.38C110.396 165.757 109.297 164.664 108.668 163.3C108.037 161.917 107.776 160.393 107.912 158.878C108.038 157.142 108.591 155.463 109.52 153.99C110.399 152.535 111.67 151.357 113.186 150.589C114.743 149.813 116.464 149.421 118.203 149.447C119.629 149.416 121.041 149.731 122.32 150.364C123.446 150.926 124.358 151.841 124.917 152.969C125.477 154.111 125.713 155.384 125.6 156.651C125.479 158.244 124.847 159.755 123.799 160.961C123.222 161.713 122.479 162.321 121.629 162.74C120.778 163.158 119.842 163.375 118.895 163.373C118.493 163.403 118.092 163.31 117.745 163.107C117.618 163.011 117.512 162.89 117.434 162.752C117.355 162.614 117.305 162.461 117.287 162.303C116.577 162.978 115.637 163.357 114.657 163.365C114.189 163.383 113.722 163.296 113.291 163.111C112.86 162.926 112.475 162.647 112.165 162.295C111.842 161.902 111.605 161.446 111.466 160.956C111.328 160.466 111.292 159.953 111.361 159.449C111.476 157.988 112.012 156.592 112.905 155.429C113.345 154.762 113.941 154.213 114.642 153.829C115.342 153.445 116.126 153.238 116.925 153.226C117.399 153.187 117.875 153.287 118.294 153.512C118.714 153.737 119.059 154.079 119.289 154.497L119.602 153.459H122.062L120.133 160.157C120.02 160.585 119.956 160.853 119.94 160.961C119.922 161.084 119.951 161.21 120.02 161.314C120.051 161.35 120.09 161.378 120.133 161.398C120.176 161.417 120.222 161.427 120.269 161.427C120.713 161.368 121.129 161.181 121.467 160.888C122.166 160.386 122.746 159.735 123.164 158.983C123.609 158.226 123.884 157.381 123.968 156.507C124.044 155.804 123.961 155.094 123.724 154.428C123.488 153.763 123.104 153.16 122.601 152.663C121.99 152.114 121.274 151.693 120.496 151.426C119.718 151.159 118.895 151.052 118.074 151.112C116.551 151.072 115.044 151.429 113.701 152.149C112.484 152.822 111.486 153.829 110.822 155.051C110.147 156.249 109.741 157.58 109.632 158.951C109.514 160.193 109.763 161.443 110.348 162.545C110.917 163.611 111.841 164.445 112.961 164.9C114.237 165.416 115.605 165.668 116.981 165.64C118.305 165.671 119.623 165.461 120.872 165.021C121.924 164.659 122.867 164.037 123.614 163.212ZM113.805 159.377C113.705 159.982 113.831 160.603 114.159 161.121C114.29 161.3 114.463 161.444 114.661 161.542C114.86 161.64 115.079 161.689 115.301 161.684C115.658 161.684 116.009 161.593 116.322 161.419C116.604 161.27 116.858 161.071 117.069 160.832C117.499 160.344 117.832 159.78 118.05 159.168C118.328 158.521 118.504 157.835 118.573 157.134C118.652 156.57 118.52 155.998 118.203 155.526C118.064 155.343 117.884 155.197 117.677 155.099C117.47 155.001 117.242 154.955 117.013 154.963C116.443 154.976 115.897 155.196 115.478 155.582C114.945 156.063 114.544 156.672 114.312 157.351C114.055 157.987 113.885 158.655 113.805 159.337V159.377Z" fill="#FFC100"/>
<path d="M101.802 102.405V126.357C101.8 127.062 101.519 127.737 101.02 128.236C100.521 128.735 99.8458 129.016 99.1407 129.018H58.1849C57.4784 129.018 56.8006 128.738 56.3003 128.239C55.7999 127.74 55.5178 127.063 55.5156 126.357V102.405C55.5163 102.066 55.5846 101.729 55.7166 101.416C55.9141 100.923 56.2547 100.5 56.6946 100.202C57.1345 99.9042 57.6535 99.7446 58.1849 99.7441H99.1407C99.6706 99.7461 100.188 99.9053 100.627 100.202C101.067 100.498 101.408 100.918 101.609 101.408C101.738 101.725 101.804 102.064 101.802 102.405Z" fill="#FFC100"/>
<path opacity="0.3" d="M101.609 101.408L79.7484 119.555C79.4416 119.808 79.0565 119.946 78.6589 119.946C78.2614 119.946 77.8762 119.808 77.5695 119.555L55.7168 101.416C55.9143 100.923 56.2549 100.5 56.6948 100.202C57.1347 99.9042 57.6537 99.7446 58.1851 99.7441H99.1408C99.6708 99.7461 100.188 99.9053 100.628 100.202C101.067 100.498 101.409 100.918 101.609 101.408Z" fill="black"/>
<path d="M85.7549 86.9609H64.0469V108.299L77.6104 119.555C77.915 119.812 78.301 119.954 78.6998 119.954C79.0986 119.954 79.4845 119.812 79.7892 119.555L93.3607 108.299V91.7206L85.7549 86.9609Z" fill="white"/>
<path d="M78.6637 120.327C78.1761 120.327 77.7037 120.157 77.3291 119.844L63.7656 108.588C63.7226 108.554 63.688 108.509 63.6643 108.459C63.6407 108.409 63.6286 108.354 63.6289 108.299V86.9609C63.6289 86.8607 63.6687 86.7646 63.7396 86.6937C63.8105 86.6228 63.9066 86.583 64.0068 86.583H85.755C85.8268 86.5845 85.8967 86.6068 85.956 86.6473L93.5216 91.399C93.5745 91.4347 93.6182 91.4825 93.6489 91.5384C93.6797 91.5943 93.6967 91.6568 93.6985 91.7206V108.299C93.6973 108.354 93.6844 108.408 93.6609 108.458C93.6373 108.508 93.6036 108.552 93.5618 108.588L79.9984 119.844C79.6237 120.157 79.1514 120.327 78.6637 120.327ZM64.3847 108.114L77.8115 119.266C78.0497 119.464 78.3498 119.572 78.6597 119.572C78.9696 119.572 79.2697 119.464 79.5079 119.266L92.9347 108.114V91.9296L85.6424 87.3468H64.3847V108.114Z" fill="#FFC100"/>
<path d="M93.3195 91.7206L85.7539 86.9609L88.1981 93.2643L93.3195 91.7206Z" fill="#EBEBEB"/>
<path d="M88.1986 93.6498C88.1223 93.649 88.0481 93.6246 87.9862 93.58C87.9243 93.5354 87.8777 93.4727 87.8528 93.4006L85.4408 87.0972C85.4139 87.0233 85.4107 86.9429 85.4316 86.8671C85.4526 86.7912 85.4967 86.7239 85.5577 86.6743C85.6188 86.6248 85.6938 86.5955 85.7723 86.5906C85.8508 86.5857 85.9288 86.6054 85.9956 86.647L93.5612 91.3986C93.6224 91.439 93.6707 91.4961 93.7006 91.563C93.7305 91.6299 93.7407 91.704 93.7301 91.7765C93.7213 91.848 93.6914 91.9154 93.6441 91.9698C93.5969 92.0242 93.5344 92.0633 93.4648 92.082L88.3513 93.6337L88.1986 93.6498ZM86.5182 87.8932L88.4317 92.8056L92.4517 91.5996L86.5182 87.8932Z" fill="#FFC100"/>
<path d="M84.596 107.157H86.3166C85.6898 108.257 84.7568 109.151 83.6312 109.73C82.1583 110.477 80.5223 110.844 78.8715 110.799C77.3114 110.845 75.7612 110.537 74.337 109.899C73.151 109.364 72.1976 108.419 71.6516 107.238C71.1089 106.039 70.8846 104.721 71.0004 103.411C71.1159 101.904 71.599 100.45 72.4074 99.1735C73.1662 97.9148 74.264 96.895 75.5751 96.2309C76.9255 95.5593 78.4168 95.2203 79.9248 95.2419C81.1598 95.2158 82.3825 95.4918 83.4865 96.0459C84.4604 96.5335 85.2502 97.3233 85.7377 98.2971C86.2257 99.2946 86.4288 100.408 86.3246 101.513C86.2192 102.892 85.6723 104.2 84.7649 105.244C84.2668 105.897 83.6247 106.428 82.8884 106.793C82.1522 107.158 81.3416 107.349 80.5197 107.35C80.1704 107.376 79.8216 107.292 79.5228 107.109C79.4151 107.027 79.3248 106.924 79.2571 106.807C79.1895 106.69 79.1459 106.56 79.1288 106.426C78.5146 107.01 77.7016 107.341 76.8535 107.35C76.4475 107.365 76.0434 107.289 75.6706 107.128C75.2977 106.966 74.9657 106.724 74.6988 106.418C74.4201 106.077 74.2142 105.683 74.0939 105.26C73.9736 104.837 73.9414 104.393 73.9993 103.957C74.1002 102.694 74.5667 101.487 75.342 100.484C75.7203 99.9097 76.2328 99.436 76.8351 99.1041C77.4374 98.7721 78.1115 98.5917 78.7992 98.5785C79.2096 98.5452 79.6209 98.6314 79.9833 98.8269C80.3458 99.0224 80.6438 99.3187 80.8413 99.68L81.1147 98.7795H83.2533L81.581 104.52C81.5068 104.751 81.4504 104.988 81.4122 105.228C81.3973 105.335 81.4231 105.444 81.4845 105.533C81.5111 105.565 81.5445 105.589 81.582 105.606C81.6196 105.623 81.6605 105.631 81.7016 105.63C82.0854 105.579 82.4459 105.417 82.7388 105.163C83.3424 104.717 83.8449 104.148 84.2134 103.494C84.582 102.84 84.8082 102.116 84.8774 101.368C84.9364 100.768 84.861 100.162 84.6565 99.5949C84.4521 99.0275 84.1238 98.5128 83.6955 98.0881C83.164 97.6146 82.5429 97.2525 81.869 97.0232C81.1951 96.794 80.482 96.7022 79.772 96.7535C78.4565 96.7194 77.1545 97.0268 75.9932 97.6459C74.9373 98.2271 74.0718 99.101 73.5008 100.162C72.9105 101.198 72.5563 102.351 72.4636 103.539C72.3638 104.612 72.579 105.69 73.0827 106.643C73.5778 107.567 74.3796 108.289 75.35 108.685C76.4659 109.134 77.661 109.353 78.8635 109.328C80.0071 109.353 81.1458 109.171 82.2242 108.789C83.1419 108.458 83.9588 107.896 84.596 107.157ZM76.1058 103.837C76.0157 104.349 76.1127 104.877 76.3791 105.324C76.4951 105.478 76.646 105.602 76.8194 105.686C76.9927 105.769 77.1836 105.811 77.3761 105.807C77.6852 105.807 77.9894 105.73 78.2605 105.581C78.5031 105.452 78.7208 105.28 78.9037 105.075C79.2723 104.651 79.5611 104.163 79.7559 103.636C79.993 103.072 80.1448 102.476 80.2062 101.867C80.2756 101.377 80.161 100.878 79.8846 100.468C79.7649 100.31 79.6089 100.183 79.4298 100.097C79.2507 100.012 79.0537 99.9708 78.8555 99.9775C78.3598 99.9884 77.8852 100.18 77.5208 100.516C77.0623 100.954 76.7245 101.502 76.5399 102.108C76.3166 102.662 76.1705 103.243 76.1058 103.837Z" fill="#FFC100"/>
<path d="M141.077 121.228H120.189V122.064H141.077V121.228Z" fill="#FFC100"/>
<path d="M146.351 126.55H131.654V127.386H146.351V126.55Z" fill="#FFC100"/>
<path d="M74.9651 188.008H61.4258V188.844H74.9651V188.008Z" fill="#FFC100"/>
<path d="M80.2392 193.322H72.8906V194.158H80.2392V193.322Z" fill="#FFC100"/>
<path d="M68.7743 146.706H61.4258V147.542H68.7743V146.706Z" fill="#FFC100"/>
<path d="M116.345 121.228H111.867V122.064H116.345V121.228Z" fill="#FFC100"/>
</svg>
