<svg width="355" height="355" viewBox="0 0 355 355" fill="none" xmlns="http://www.w3.org/2000/svg">
<path d="M305.817 132.415C303.94 126.308 301.486 120.393 298.49 114.75C283.041 86.0373 255.947 64.3752 226.312 51.5597C202.782 41.3996 173.686 36.0888 148.723 45.2407C136.099 49.8699 124.214 58.7307 117.447 70.5522C108.629 85.9876 109.46 105.08 102.459 121.303C96.7791 134.431 82.6643 142.319 71.6025 150.413C54.3424 162.994 37.3379 177.869 31.3526 199.147C23.3722 227.512 25.7365 261.28 41.889 286.506C53.959 305.328 74.62 310.98 95.9413 311.356C116.063 311.718 140.671 306.634 159.451 315.815C191.443 331.435 233.66 348.972 269.458 336.611C306.378 323.866 324.462 299.044 329.808 266.846C335.155 234.647 320.422 207.824 315.722 182.356C312.797 166.246 310.858 148.461 305.817 132.415Z" fill="#FFC100"/>
<path opacity="0.8" d="M305.817 132.415C303.94 126.308 301.486 120.393 298.49 114.75C283.041 86.0373 255.947 64.3752 226.312 51.5597C202.782 41.3996 173.686 36.0888 148.723 45.2407C136.099 49.8699 124.214 58.7307 117.447 70.5522C108.629 85.9876 109.46 105.08 102.459 121.303C96.7791 134.431 82.6643 142.319 71.6025 150.413C54.3424 162.994 37.3379 177.869 31.3526 199.147C23.3722 227.512 25.7365 261.28 41.889 286.506C53.959 305.328 74.62 310.98 95.9413 311.356C116.063 311.718 140.671 306.634 159.451 315.815C191.443 331.435 233.66 348.972 269.458 336.611C306.378 323.866 324.462 299.044 329.808 266.846C335.155 234.647 320.422 207.824 315.722 182.356C312.797 166.246 310.858 148.461 305.817 132.415Z" fill="#FFB34E"/>
<path d="M36.6434 229.089C36.4588 227.037 36.4162 225.148 36.3949 223.473C36.3949 222.521 36.3949 221.662 36.3949 220.86C37.1049 220.256 40.0656 217.807 40.8821 216.153C41.6986 214.498 42.2524 212.248 41.3862 210.515C41.1997 210.102 40.9288 209.733 40.591 209.43C40.2533 209.128 39.856 208.9 39.4248 208.76C38.9936 208.62 38.5379 208.572 38.087 208.619C37.6362 208.666 37.2001 208.806 36.8067 209.031C34.5134 210.451 34.3217 215.357 34.9394 217.722C34.9891 217.928 36.189 221.023 36.2245 220.995L36.2742 220.959C36.2387 221.733 36.2032 222.564 36.189 223.466C36.189 225.141 36.189 227.016 36.3168 229.103C36.3168 229.444 36.3665 229.813 36.3949 230.161C36.6505 230.544 36.7925 230.793 36.7925 230.793C36.7641 230.218 36.6931 229.636 36.6434 229.089Z" fill="#BABABA"/>
<path d="M29.2662 223.885C26.1848 224.389 25.7872 227.278 28.6627 229.124C31.098 230.686 35.2586 230.793 36.4727 230.793C36.4727 230.58 36.4727 230.367 36.423 230.161C35.2586 228.379 31.7938 223.466 29.2662 223.885Z" fill="#BABABA"/>
<path d="M90.575 210.324C87.8557 210.238 84.9873 214.172 84.185 216.458C84.114 216.657 83.4182 219.88 83.475 219.873H83.5318C83.0703 220.491 82.5875 221.158 82.1118 221.904C81.1746 223.281 80.1309 224.843 79.1156 226.618L78.7606 227.236C78.7109 227.733 78.6683 228.031 78.6683 228.031L78.4269 227.832C77.5692 229.356 76.7896 230.922 76.091 232.525C75.0825 234.792 74.2793 237.144 73.6912 239.554C73.6912 239.554 73.6912 239.611 73.6912 239.64C73.6344 238.844 73.393 236.622 73.3575 236.459C72.825 234.073 70.411 229.763 67.6775 229.472C67.2291 229.435 66.7778 229.493 66.3537 229.643C65.9296 229.793 65.5424 230.032 65.218 230.344C64.8935 230.656 64.6391 231.033 64.4719 231.451C64.3047 231.869 64.2284 232.317 64.2482 232.767C64.2482 234.691 65.8244 236.501 67.2799 237.602C68.9271 238.851 73.2652 239.853 73.606 239.931C73.072 242.405 72.702 244.912 72.4984 247.435C72.3706 248.905 72.2925 250.389 72.2286 251.887C72.1505 251.177 72.0866 250.581 72.0653 250.467C71.5328 248.089 69.1188 243.779 66.3853 243.488C65.9372 243.45 65.4862 243.508 65.0625 243.658C64.6387 243.809 64.2519 244.048 63.928 244.36C63.6041 244.672 63.3504 245.049 63.184 245.467C63.0176 245.885 62.9423 246.333 62.9631 246.782C62.9631 248.706 64.5393 250.51 65.9948 251.617C67.4503 252.725 71.1565 253.669 72.1363 253.896C72.1363 254.471 72.0937 255.039 72.0795 255.615C72.0014 258.362 71.9304 261.103 71.7884 263.794C71.7387 264.738 71.6535 265.668 71.5683 266.598C71.5044 265.988 71.4476 265.476 71.4263 265.398C70.9009 263.02 68.4798 258.71 65.7463 258.419C65.298 258.38 64.8465 258.437 64.4222 258.587C63.9979 258.737 63.6106 258.976 63.2864 259.288C62.9622 259.601 62.7086 259.978 62.5426 260.397C62.3766 260.815 62.3021 261.264 62.3241 261.713C62.3241 263.638 63.8932 265.441 65.3487 266.549C66.8042 267.656 70.1554 268.501 71.3127 268.785C71.2346 269.438 71.1565 270.091 71.0642 270.73C71.476 270.851 71.8949 270.951 72.328 271.036C72.4842 269.8 72.6049 268.544 72.7043 267.273C73.7125 267.557 77.3193 268.515 79.0943 268.253C80.8693 267.99 83.0845 267.159 83.9862 265.469C84.2087 265.075 84.3466 264.639 84.3911 264.188C84.4357 263.738 84.3859 263.283 84.245 262.853C84.104 262.423 83.875 262.027 83.5725 261.69C83.27 261.353 82.9007 261.083 82.4881 260.897C79.9605 259.832 75.8567 262.452 74.2947 264.291C74.2024 264.404 73.2297 265.853 72.7114 266.655C72.7753 265.725 72.8392 264.802 72.8676 263.865C72.9599 261.145 72.967 258.391 72.9812 255.65C72.9812 254.805 72.9812 253.967 72.9812 253.13C73.3433 253.236 77.6033 254.464 79.6197 254.166C81.416 253.903 83.6099 253.073 84.5116 251.39C84.7349 250.996 84.8734 250.559 84.918 250.108C84.9627 249.657 84.9125 249.201 84.7708 248.771C84.6291 248.34 84.3989 247.944 84.095 247.608C83.7912 247.271 83.4204 247.002 83.0064 246.818C80.4859 245.753 76.3821 248.365 74.8201 250.204C74.7065 250.346 73.3149 252.427 72.9883 252.973C72.9883 251.127 73.0593 249.288 73.1729 247.478C73.3191 245.033 73.6226 242.599 74.0817 240.193C74.2521 240.243 78.6967 241.542 80.7557 241.244C82.552 240.981 84.753 240.144 85.6476 238.461C85.8701 238.067 86.008 237.63 86.0525 237.18C86.0971 236.729 86.0473 236.275 85.9064 235.844C85.7654 235.414 85.5364 235.018 85.2339 234.681C84.9314 234.345 84.5621 234.075 84.1495 233.889C81.629 232.824 77.5181 235.443 75.9561 237.282C75.8354 237.424 74.3444 239.668 74.0959 240.122C74.0959 239.98 74.1385 239.831 74.1669 239.696C74.6967 237.303 75.4404 234.963 76.3892 232.703C76.8933 231.446 77.4471 230.282 78.0151 229.153C78.8174 229.479 82.5094 230.935 84.4051 230.871C86.3008 230.807 88.5018 230.225 89.581 228.649C89.8468 228.282 90.0328 227.864 90.127 227.421C90.2212 226.978 90.2214 226.521 90.1278 226.078C90.0341 225.635 89.8486 225.217 89.5832 224.85C89.3178 224.483 88.9784 224.176 88.587 223.949C86.1943 222.614 81.8136 224.758 80.067 226.412C79.9747 226.497 79.1085 227.527 78.4837 228.28C78.7464 227.775 79.0091 227.25 79.2718 226.774C80.2516 224.978 81.2598 223.395 82.1615 222.003C82.6798 221.215 83.1697 220.512 83.6312 219.873C84.5755 219.788 88.4024 219.383 90.0212 218.453C91.64 217.523 93.3227 215.989 93.5712 214.087C93.6389 213.64 93.6138 213.185 93.4973 212.748C93.3808 212.312 93.1755 211.905 92.8942 211.551C92.613 211.198 92.2618 210.907 91.8627 210.695C91.4636 210.484 91.0252 210.358 90.575 210.324Z" fill="#BABABA"/>
<path d="M53.2505 268.941C53.4351 269.304 53.6126 269.651 53.7901 270.035L55.0042 269.637C54.5427 268.721 54.067 267.805 53.5842 266.904C54.5711 266.584 58.0785 265.399 59.4133 264.184C60.7481 262.97 62.1042 261.053 61.9196 259.143C61.8892 258.69 61.7654 258.249 61.5558 257.846C61.3463 257.443 61.0556 257.088 60.702 256.804C60.3485 256.519 59.9398 256.31 59.5017 256.191C59.0637 256.072 58.6057 256.045 58.1566 256.112C55.487 256.609 53.5416 261.082 53.2718 263.489C53.2718 263.645 53.2718 265.399 53.2718 266.329C52.8032 265.519 52.3488 264.703 51.8518 263.893C50.4318 261.55 48.9124 259.229 47.4072 256.907L46.044 254.777C46.399 254.67 50.5951 253.357 52.0932 251.987C53.428 250.78 54.7841 248.863 54.5995 246.953C54.5702 246.499 54.447 246.057 54.2378 245.654C54.0286 245.251 53.7378 244.895 53.3841 244.61C53.0303 244.325 52.6212 244.117 52.1826 243.998C51.7441 243.879 51.2857 243.853 50.8365 243.921C48.1669 244.418 46.2215 248.891 45.9517 251.298C45.9517 251.483 45.9517 254.003 45.9517 254.649C44.9506 253.073 43.9708 251.497 43.0691 249.906C41.8415 247.765 40.7507 245.547 39.8031 243.268C39.9664 243.218 44.3542 241.848 45.8878 240.463C47.2226 239.256 48.5787 237.339 48.3941 235.422C48.3638 234.97 48.24 234.528 48.0303 234.126C47.8207 233.723 47.5299 233.369 47.1762 233.084C46.8225 232.8 46.4138 232.592 45.9757 232.474C45.5376 232.356 45.0798 232.33 44.6311 232.398C41.9615 232.895 40.0161 237.368 39.7463 239.775C39.7463 239.966 39.7463 242.679 39.7463 243.176C39.6966 243.041 39.6256 242.906 39.5759 242.778C38.6936 240.475 38.0142 238.099 37.5453 235.678C37.2684 234.343 37.0838 233.051 36.9276 231.787C37.7725 231.624 41.6207 230.807 43.1472 229.714C44.6737 228.621 46.1647 226.874 46.1931 224.985C46.2121 224.531 46.1368 224.079 45.972 223.655C45.8072 223.232 45.5565 222.847 45.2356 222.526C44.9147 222.204 44.5306 221.953 44.1076 221.787C43.6847 221.621 43.2319 221.545 42.778 221.563C40.0658 221.762 37.6376 225.986 37.098 228.351C37.098 228.479 36.9134 229.82 36.814 230.8H36.4661C36.601 232.376 36.7927 234.038 37.1051 235.77C37.5193 238.241 38.1538 240.669 39.0008 243.026C39.0083 243.054 39.0203 243.081 39.0363 243.105C38.5464 242.466 37.1264 240.726 37.0057 240.605C35.252 238.894 30.8855 236.594 28.4857 237.843C28.0933 238.065 27.7524 238.368 27.4852 238.731C27.218 239.094 27.0306 239.509 26.9354 239.95C26.8402 240.39 26.8392 240.846 26.9327 241.287C27.0261 241.728 27.2118 242.144 27.4775 242.508C28.5567 244.12 30.8358 244.787 32.6463 244.908C34.6911 245.057 38.8233 243.488 39.1499 243.381C40.069 245.763 41.1459 248.08 42.3733 250.318C43.0833 251.632 43.8288 252.931 44.6027 254.223C44.1625 253.684 43.7649 253.201 43.701 253.144C41.9544 251.426 37.5808 249.125 35.181 250.375C34.7876 250.597 34.4456 250.899 34.1777 251.263C33.9098 251.627 33.7221 252.043 33.6268 252.484C33.5315 252.926 33.5309 253.382 33.6251 253.824C33.7192 254.266 33.9059 254.682 34.1728 255.047C35.2449 256.658 37.5311 257.319 39.3416 257.447C41.1521 257.574 44.7305 256.311 45.6748 255.956C45.9801 256.445 46.2712 256.942 46.5765 257.432C47.9965 259.79 49.4875 262.14 50.8365 264.483C51.3122 265.313 51.7595 266.144 52.1997 266.975C51.8092 266.492 51.4897 266.094 51.4258 266.038C49.6721 264.326 45.2985 262.026 42.9058 263.276C42.5129 263.497 42.1712 263.799 41.9033 264.162C41.6354 264.524 41.4473 264.94 41.3514 265.38C41.2555 265.821 41.254 266.277 41.3469 266.718C41.4398 267.159 41.6251 267.576 41.8905 267.94C42.9626 269.552 45.2488 270.219 47.0593 270.347C48.8698 270.475 52.1216 269.339 53.2505 268.941Z" fill="#BABABA"/>
<path d="M77.1482 217.892C74.4431 216.338 72.306 218.333 73.371 221.577C74.2798 224.353 77.4961 227.101 78.4049 227.825L78.7386 227.229C78.9658 225.071 79.3563 219.156 77.1482 217.892Z" fill="#BABABA"/>
<path d="M240.91 330.548C237.914 330.626 235.01 335.163 234.293 337.747C234.258 337.882 234.023 339.295 233.867 340.367C235.287 340.495 236.707 340.594 238.127 340.665C239.097 340.432 240.029 340.064 240.896 339.572C242.565 338.486 244.375 336.633 244.503 334.51C244.551 334.008 244.495 333.503 244.336 333.025C244.178 332.547 243.921 332.107 243.583 331.734C243.245 331.361 242.832 331.063 242.372 330.859C241.912 330.654 241.414 330.548 240.91 330.548Z" fill="#BABABA"/>
<path d="M215.052 290.39C211.602 290.39 210.665 293.485 213.483 295.999C215.862 298.129 220.385 298.974 221.705 299.187L221.769 298.477C220.811 296.311 217.885 290.347 215.052 290.39Z" fill="#BABABA"/>
<path d="M270.617 330.037C270.929 329.645 271.156 329.193 271.284 328.709C271.412 328.225 271.437 327.719 271.358 327.225C271.279 326.73 271.098 326.258 270.826 325.837C270.554 325.417 270.198 325.058 269.779 324.783C267.216 323.185 262.274 325.322 260.258 327.055C260.102 327.183 258.227 329.22 257.773 329.76C258.121 327.743 258.483 325.748 258.938 323.789C259.518 321.139 260.272 318.53 261.195 315.979C261.373 316.064 265.988 318.258 268.295 318.293C270.297 318.293 272.839 317.789 274.11 316.114C274.422 315.722 274.65 315.27 274.777 314.786C274.905 314.302 274.93 313.796 274.851 313.302C274.772 312.807 274.591 312.335 274.319 311.914C274.048 311.494 273.691 311.134 273.272 310.86C270.709 309.262 265.768 311.399 263.751 313.132C263.588 313.267 261.572 315.453 261.231 315.879C261.288 315.73 261.323 315.574 261.38 315.425C262.376 312.907 263.595 310.484 265.022 308.183C265.789 306.905 266.598 305.726 267.415 304.633C268.231 305.13 272.009 307.359 274.082 307.615C276.155 307.871 278.661 307.615 280.11 306.096C280.463 305.742 280.738 305.318 280.918 304.851C281.097 304.384 281.178 303.885 281.153 303.386C281.128 302.886 280.999 302.397 280.774 301.951C280.549 301.504 280.233 301.109 279.847 300.792C277.468 298.917 272.321 300.501 270.12 301.992C269.999 302.077 268.877 303.043 268.068 303.753C268.437 303.248 268.821 302.723 269.183 302.247C270.567 300.458 271.938 298.91 273.166 297.547C273.876 296.78 274.522 296.127 275.14 295.467C276.19 295.538 280.436 295.765 282.346 295.048C284.256 294.331 286.379 292.918 286.954 290.894C287.105 290.416 287.155 289.912 287.1 289.413C287.046 288.915 286.889 288.433 286.638 287.998C286.388 287.564 286.05 287.186 285.646 286.889C285.242 286.592 284.781 286.382 284.292 286.272C281.345 285.697 277.532 289.496 276.276 291.853C276.169 292.059 274.856 295.446 274.898 295.453H274.962C274.359 296.042 273.713 296.688 273.024 297.405C271.767 298.747 270.354 300.245 268.927 302.034L268.437 302.645C268.295 303.177 268.203 303.49 268.203 303.49C268.203 303.49 268.111 303.398 267.969 303.234C266.84 304.654 265.69 306.23 264.603 307.942C263.108 310.24 261.823 312.669 260.762 315.198C260.762 315.198 260.762 315.262 260.762 315.29C260.84 314.41 260.968 311.946 260.954 311.74C260.798 309.049 258.909 303.93 255.984 303.135C255.501 303.017 254.999 303.003 254.51 303.094C254.022 303.185 253.558 303.379 253.151 303.663C252.743 303.947 252.4 304.315 252.146 304.742C251.891 305.168 251.731 305.644 251.674 306.138C251.362 308.268 252.739 310.476 254.138 311.939C255.714 313.586 260.272 315.432 260.634 315.581C259.615 318.186 258.773 320.857 258.114 323.576C257.723 325.152 257.404 326.764 257.042 328.375C257.084 327.616 257.113 326.955 257.106 326.842C256.942 324.151 255.061 319.032 252.136 318.237C251.653 318.116 251.151 318.1 250.662 318.19C250.173 318.279 249.709 318.473 249.301 318.756C248.893 319.04 248.55 319.408 248.295 319.835C248.041 320.262 247.881 320.739 247.826 321.233C247.514 323.363 248.891 325.578 250.29 327.041C251.688 328.503 255.565 330.172 256.587 330.591L256.225 332.451C255.742 335 255.267 337.541 254.741 340.048L256.019 339.87C256.46 337.478 256.864 335.064 257.262 332.65C257.411 331.734 257.574 330.825 257.738 329.909C258.107 330.086 262.544 332.167 264.795 332.202C266.804 332.238 269.346 331.712 270.617 330.037Z" fill="#BABABA"/>
<path d="M268.331 292.172C265.647 290.007 262.978 291.81 263.567 295.531C264.078 298.726 267.117 302.276 267.969 303.227L268.437 302.638C269.091 300.33 270.511 293.94 268.331 292.172Z" fill="#BABABA"/>
<path d="M222.229 297.32C222.386 295.055 222.67 292.982 222.939 291.158C223.096 290.121 223.259 289.184 223.422 288.318C224.331 287.792 227.959 285.627 229.138 283.965C230.316 282.304 231.31 279.947 230.671 277.909C230.539 277.426 230.308 276.976 229.992 276.588C229.677 276.199 229.283 275.881 228.838 275.653C228.392 275.426 227.904 275.293 227.404 275.265C226.904 275.236 226.404 275.312 225.936 275.488C223.181 276.645 222.123 281.956 222.386 284.64C222.386 284.874 223.174 288.46 223.223 288.438L223.28 288.403C223.103 289.241 222.925 290.142 222.755 291.129C222.442 292.954 222.116 295.02 221.91 297.299C221.874 297.675 221.839 298.073 221.811 298.463C222.016 298.932 222.137 299.223 222.137 299.223C222.123 298.584 222.151 297.931 222.229 297.32Z" fill="#BABABA"/>
<path d="M223.082 335.709C222.486 335.91 221.959 336.276 221.563 336.765C221.167 337.254 220.918 337.846 220.846 338.471C224.516 339.181 228.187 339.77 231.851 340.161C230.218 337.96 225.894 334.772 223.082 335.709Z" fill="#BABABA"/>
<path d="M248.87 334.411C248.388 334.29 247.885 334.274 247.396 334.364C246.907 334.453 246.443 334.647 246.035 334.93C245.627 335.214 245.284 335.582 245.03 336.009C244.775 336.436 244.615 336.913 244.56 337.407C244.441 338.573 244.689 339.747 245.27 340.765C247.954 340.708 250.619 340.531 253.265 340.233C252.477 337.733 250.936 334.986 248.87 334.411Z" fill="#BABABA"/>
<path d="M232.674 337.96C231.531 335.162 230.282 332.358 229.053 329.561C228.677 328.709 228.308 327.849 227.939 326.99C228.343 326.934 233.15 326.231 235.039 325.002C236.707 323.916 238.518 322.063 238.646 319.94C238.693 319.443 238.636 318.941 238.48 318.467C238.324 317.993 238.071 317.556 237.737 317.185C237.404 316.813 236.997 316.515 236.542 316.308C236.087 316.102 235.595 315.992 235.096 315.985C232.099 316.056 229.195 320.6 228.478 323.178C228.422 323.376 227.981 326.131 227.91 326.834C227.094 324.946 226.299 323.057 225.596 321.154C224.626 318.605 223.822 315.997 223.189 313.344C223.373 313.344 228.393 312.634 230.289 311.356C231.95 310.27 233.768 308.41 233.896 306.294C233.943 305.796 233.886 305.295 233.73 304.82C233.574 304.345 233.321 303.908 232.987 303.536C232.654 303.164 232.247 302.865 231.793 302.658C231.338 302.45 230.845 302.34 230.346 302.332C227.349 302.41 224.446 306.947 223.728 309.531C223.672 309.73 223.203 312.698 223.16 313.238C223.125 313.089 223.068 312.932 223.033 312.776C222.474 310.102 222.15 307.384 222.067 304.654C221.996 303.149 222.017 301.707 222.067 300.309C223.011 300.273 227.349 300.053 229.21 299.123C231.07 298.193 232.994 296.588 233.349 294.501C233.45 294.009 233.447 293.503 233.342 293.012C233.237 292.522 233.031 292.059 232.737 291.652C232.443 291.246 232.068 290.905 231.636 290.651C231.203 290.397 230.723 290.235 230.225 290.177C227.236 289.914 223.835 294.103 222.848 296.567C222.798 296.702 222.401 298.143 222.138 299.194L221.748 299.137C221.62 300.877 221.542 302.687 221.584 304.647C221.608 307.413 221.876 310.171 222.387 312.89V312.982C221.968 312.201 220.718 310.057 220.604 309.901C218.993 307.728 214.626 304.455 211.793 305.399C211.328 305.576 210.905 305.848 210.552 306.199C210.198 306.549 209.923 306.97 209.743 307.434C209.562 307.898 209.482 308.395 209.506 308.892C209.53 309.389 209.659 309.875 209.883 310.32C210.771 312.258 213.149 313.387 215.102 313.87C217.303 314.381 222.081 313.408 222.465 313.33C223.053 316.087 223.821 318.803 224.765 321.459C225.312 323.014 225.908 324.562 226.519 326.103C226.135 325.443 225.809 324.846 225.731 324.775C224.119 322.595 219.752 319.329 216.92 320.274C216.455 320.45 216.033 320.722 215.68 321.072C215.328 321.422 215.052 321.843 214.872 322.306C214.692 322.769 214.612 323.265 214.635 323.761C214.659 324.257 214.786 324.743 215.01 325.187C215.897 327.132 218.269 328.254 220.228 328.737C222.188 329.22 226.299 328.453 227.378 328.24C227.619 328.829 227.854 329.419 228.088 330.008C229.259 332.848 230.445 335.652 231.517 338.45C231.744 339.046 231.957 339.643 232.17 340.232L233.59 340.374C233.299 339.55 233.001 338.755 232.674 337.96Z" fill="#BABABA"/>
<path d="M230.849 114.75L231.318 117.555L234.442 117.831L235.379 115.176C236.403 115.084 237.412 114.865 238.382 114.523L240.356 116.525L243.068 114.956L242.323 112.258C243.108 111.59 243.807 110.827 244.403 109.986L247.158 110.497L248.486 107.657L246.32 105.875C246.577 104.878 246.708 103.852 246.711 102.822L249.281 101.658L248.734 98.5691L245.894 98.349C245.534 97.3991 245.057 96.4976 244.474 95.6652L245.937 93.1944L243.722 90.9792L241.237 92.456C239.804 91.4889 238.187 90.829 236.487 90.5177L235.777 87.6777H232.638L231.928 90.5177C230.949 90.6988 229.995 90.9993 229.088 91.4123L226.852 89.474L224.282 91.2703L225.34 94.0393C224.649 94.7428 224.046 95.5272 223.543 96.3752L220.59 96.0699L219.518 99.0164L221.96 100.671C221.845 101.358 221.788 102.054 221.79 102.751C221.79 103.049 221.79 103.34 221.79 103.631L219.227 105.051L220.036 108.076L222.94 108.041C223.371 108.945 223.908 109.796 224.537 110.575L223.281 113.188L225.68 115.197L228.052 113.6M241.073 98.9596C241.914 100.455 242.239 102.185 241.998 103.883C241.757 105.581 240.964 107.153 239.741 108.355C238.518 109.558 236.934 110.324 235.232 110.536C233.53 110.749 231.805 110.395 230.325 109.53C228.844 108.664 227.689 107.336 227.039 105.749C226.388 104.162 226.278 102.405 226.726 100.749C227.173 99.0935 228.153 97.6311 229.514 96.5878C230.875 95.5445 232.542 94.9783 234.257 94.9765C234.633 94.9759 235.008 95.0043 235.379 95.0617M238.027 95.9421C238.628 96.2744 239.182 96.6851 239.675 97.1633" stroke="black" stroke-miterlimit="10"/>
<path d="M238.249 274.67L238.717 277.474L241.841 277.751L242.779 275.096C243.803 275.004 244.812 274.785 245.782 274.443L247.756 276.445L250.468 274.876L249.758 272.178C250.543 271.51 251.242 270.747 251.838 269.906L254.593 270.417L255.921 267.577L253.791 265.795C254.048 264.798 254.179 263.772 254.181 262.742L256.751 261.578L256.205 258.489L253.365 258.269C253.007 257.318 252.53 256.416 251.945 255.585L253.407 253.114L251.192 250.899L248.707 252.376C247.275 251.409 245.657 250.749 243.957 250.438L243.247 247.598H240.109L239.399 250.438C238.419 250.619 237.466 250.919 236.559 251.332L234.301 249.415L231.731 251.212L232.789 253.981C232.098 254.684 231.495 255.468 230.993 256.316L228.039 256.011L226.967 258.958L229.409 260.612C229.295 261.299 229.238 261.995 229.239 262.692C229.239 262.99 229.239 263.282 229.239 263.573L226.676 264.993L227.485 268.017L230.389 267.982C230.821 268.886 231.357 269.737 231.987 270.516L230.751 273.143L233.151 275.153L235.48 273.491M248.501 258.851C249.342 260.346 249.666 262.076 249.426 263.774C249.185 265.472 248.392 267.044 247.169 268.247C245.946 269.449 244.362 270.216 242.66 270.428C240.958 270.64 239.233 270.286 237.753 269.421C236.272 268.556 235.117 267.227 234.467 265.64C233.816 264.053 233.706 262.296 234.153 260.641C234.601 258.985 235.581 257.523 236.942 256.479C238.303 255.436 239.97 254.87 241.685 254.868C242.061 254.867 242.436 254.896 242.807 254.953M245.455 255.834C246.056 256.166 246.61 256.577 247.102 257.055" stroke="black" stroke-miterlimit="10"/>
<path d="M253.469 81.1101L253.881 82.1893C253.675 82.3952 253.476 82.6153 253.285 82.8354M252.241 84.2554C252.184 84.3406 252.135 84.4258 252.085 84.511L249.131 84.2128L248.059 87.1522L250.502 88.8065C250.385 89.4938 250.326 90.1896 250.324 90.8868C250.324 91.185 250.324 91.4761 250.324 91.7672L247.754 93.1872L248.57 96.2118H251.474C251.902 97.1208 252.438 97.9744 253.072 98.7536L251.815 101.359L254.215 103.376L256.544 101.707C257.424 102.215 258.364 102.613 259.341 102.893L259.81 105.697L262.927 105.967L263.871 103.312C264.895 103.222 265.904 103.005 266.874 102.666L268.841 104.661L271.553 103.099L270.843 100.401C271.627 99.7311 272.325 98.9681 272.923 98.1288L275.678 98.6329L277.006 95.7929L274.84 94.0037C275.094 93.008 275.225 91.9852 275.231 90.9578L277.801 89.7863L277.254 86.7049L274.414 86.4848C274.053 85.5333 273.576 84.6296 272.994 83.7939L274.457 81.3302L272.242 79.115L269.757 80.5918C268.327 79.6187 266.709 78.9583 265.007 78.6535L264.297 75.8135H261.166L260.456 78.6535C259.477 78.8379 258.524 79.1383 257.616 79.5481L255.372 77.6098L252.809 79.4061L253.136 80.2581M270.424 92.4985C270.318 93.0131 270.159 93.5152 269.948 93.9966M269.359 95.0971C268.35 96.6825 266.803 97.8509 265.003 98.3879C263.202 98.925 261.268 98.7948 259.555 98.0211C257.842 97.2474 256.466 95.8822 255.679 94.1759C254.892 92.4695 254.746 90.5365 255.269 88.7315C255.791 86.9264 256.947 85.3703 258.525 84.3487C260.102 83.327 261.995 82.9084 263.856 83.1695C265.717 83.4306 267.421 84.3539 268.656 85.7701C269.891 87.1863 270.575 89.0005 270.58 90.8797C270.58 91.069 270.58 91.2607 270.58 91.4548" stroke="black" stroke-miterlimit="10"/>
<path d="M66.1935 177.706L63.8434 182.583L68.3306 186.346L72.6758 183.23C74.3239 184.182 76.084 184.926 77.9156 185.445L78.7818 190.685L84.618 191.196L86.3717 186.226C88.2874 186.055 90.1742 185.645 91.9878 185.005L95.6656 188.746L100.735 185.821L99.315 180.78C100.784 179.525 102.093 178.095 103.213 176.52L108.36 177.464L110.838 172.161L106.798 168.824C107.269 166.967 107.508 165.059 107.508 163.144L112.308 160.957L111.293 155.192L105.996 154.78C105.319 153.006 104.43 151.32 103.348 149.76L106.074 145.145L101.935 141.006L97.2844 143.768C94.6134 141.951 91.5893 140.717 88.4094 140.147L87.0675 134.836H81.21L79.861 140.175C78.0469 140.522 76.2807 141.085 74.5999 141.851L70.4109 138.23L65.6184 141.588L67.5922 146.764C66.3046 148.079 65.1773 149.543 64.2339 151.123L58.7172 150.555L56.715 156.058L61.2803 159.153C61.0634 160.439 60.9542 161.74 60.9537 163.044C60.9537 163.598 60.975 164.145 61.0176 164.684L56.2109 167.368L57.7303 173.048L63.1618 172.984C63.7623 174.264 64.4751 175.487 65.2918 176.641M79.3072 149.292C79.9451 149.068 80.5975 148.887 81.2597 148.752M84.8665 148.468C88.4433 148.633 91.8348 150.106 94.3967 152.608C96.9585 155.109 98.5122 158.465 98.7624 162.036C99.0126 165.608 97.942 169.148 95.754 171.982C93.566 174.816 90.413 176.748 86.8942 177.41C83.3754 178.072 79.7359 177.418 76.6674 175.573C73.5988 173.728 71.315 170.82 70.2499 167.402C69.1847 163.983 69.4125 160.293 70.8899 157.031C72.3673 153.769 74.9914 151.164 78.2635 149.71" stroke="black" stroke-miterlimit="10"/>
<path d="M141.204 161.944L135.396 158.195" stroke="#263238" stroke-width="3" stroke-linecap="round" stroke-linejoin="round"/>
<path d="M151.294 150.67L149.789 149.413" stroke="#263238" stroke-width="3" stroke-linecap="round" stroke-linejoin="round"/>
<path d="M134.339 183.727L122.318 180.717" stroke="#263238" stroke-width="3" stroke-linecap="round" stroke-linejoin="round"/>
<path d="M199.303 257.609C199.215 257.608 199.126 257.597 199.041 257.574C198.764 257.502 198.526 257.323 198.38 257.077C198.011 256.431 197.812 256.083 200.809 252.646C194.348 256.601 193.659 256.438 193.283 256.345C192.988 256.258 192.735 256.067 192.573 255.806C191.976 254.776 191.863 254.57 203.819 244.787C201.902 246.029 199.907 247.364 198.139 248.543C187.617 255.564 184.344 257.56 182.895 257.226C182.72 257.186 182.554 257.111 182.409 257.004C182.264 256.898 182.142 256.763 182.05 256.608C181.411 255.501 181.411 255.501 195.54 245.291L198.338 243.274C196.705 244.361 195.079 245.468 193.588 246.484C182.469 254.045 177.407 257.311 175.511 256.885C175.313 256.841 175.127 256.754 174.966 256.632C174.804 256.509 174.671 256.354 174.574 256.175C173.864 254.975 173.722 254.705 194.27 240.747L167.247 256.367C167.006 256.501 166.723 256.535 166.457 256.462C166.192 256.389 165.965 256.215 165.827 255.976C165.351 255.153 165.72 254.144 167.673 252.426C164.563 254.215 162.76 254.933 161.872 254.727C161.688 254.684 161.513 254.605 161.36 254.494C161.206 254.383 161.076 254.243 160.978 254.081C160.388 253.058 160.616 252.114 168.134 247.059C160.381 251.908 157.52 253.335 156.405 253.072C156.24 253.033 156.084 252.961 155.947 252.86C155.81 252.758 155.695 252.63 155.61 252.483C155.092 251.596 155.575 251.276 157.357 250.097L161.283 247.534L167.29 243.651C160.672 247.087 159.678 246.853 159.125 246.718C158.938 246.675 158.762 246.596 158.607 246.483C158.452 246.371 158.321 246.229 158.223 246.065C158.092 245.824 158.059 245.542 158.13 245.278C158.201 245.013 158.372 244.787 158.606 244.645C179.445 232.291 211.615 212.475 219.368 205.921C211.636 209.436 188.519 223.792 175.348 231.992C158.386 242.536 158.308 242.515 157.598 242.33C157.451 242.297 157.313 242.235 157.191 242.147C157.069 242.059 156.966 241.948 156.888 241.819C156.313 240.825 156.341 240.186 163.129 235.983C160.005 237.452 157.946 238.113 157.037 237.9C156.838 237.853 156.651 237.766 156.487 237.644C156.324 237.522 156.187 237.367 156.086 237.19C155.95 236.954 155.91 236.674 155.975 236.41C156.04 236.145 156.204 235.916 156.434 235.77C177.464 222.372 207.05 203.401 219.12 195.385C215.761 197.096 211.253 199.645 206.24 202.648C202.186 205.254 197.379 208.286 191.692 211.821C184.18 216.5 176.583 221.137 170.257 224.971C154.978 234.612 154.794 234.57 154.048 234.385C153.901 234.35 153.763 234.286 153.641 234.197C153.519 234.108 153.416 233.996 153.338 233.867C153.207 233.626 153.174 233.345 153.245 233.08C153.317 232.816 153.487 232.589 153.721 232.447C158.322 229.713 163.399 226.667 168.667 223.472L171.436 221.726C160.403 228.038 154.304 230.8 152.507 230.359C152.3 230.319 152.103 230.235 151.93 230.112C151.758 229.99 151.613 229.832 151.506 229.649C150.846 228.513 151.783 227.065 159.565 221.981C154.545 225.042 152.557 225.95 151.712 225.744C151.551 225.708 151.399 225.639 151.266 225.541C151.133 225.444 151.021 225.319 150.938 225.176C150.491 224.403 150.129 223.756 155.326 219.986C152.529 221.406 150.761 221.981 149.916 221.776C149.724 221.734 149.543 221.653 149.384 221.538C149.226 221.424 149.092 221.277 148.993 221.108C148.921 220.986 148.875 220.851 148.857 220.711C148.839 220.57 148.849 220.428 148.886 220.292C148.961 220.02 149.14 219.788 149.383 219.646C172.423 206.546 207.312 185.8 217.934 177.429C206.283 183.862 174.162 202.719 151.748 216.01C151.627 216.082 151.493 216.129 151.353 216.148C151.214 216.167 151.072 216.159 150.936 216.123C150.801 216.088 150.673 216.025 150.561 215.94C150.449 215.855 150.356 215.749 150.285 215.627C150.176 215.432 150.108 215.217 150.085 214.995C150.062 214.773 150.084 214.548 150.15 214.335C150.545 213.434 151.143 212.638 151.897 212.006C150.242 212.68 149.135 212.929 148.503 212.773C148.306 212.725 148.122 212.637 147.961 212.515C147.799 212.393 147.665 212.239 147.566 212.063C146.927 210.962 148.148 210.11 149.994 208.825C151.414 207.867 153.423 206.539 156.235 204.778C161.482 201.498 168.681 197.153 176.307 192.559C184.876 187.39 195.058 181.249 203.145 176.165C185.842 186.105 158.592 202.023 145.507 209.677C145.259 209.818 144.966 209.856 144.69 209.784C144.555 209.748 144.428 209.686 144.317 209.6C144.206 209.515 144.113 209.408 144.044 209.287C143.497 208.335 143.334 208.058 152.742 202.137C149.057 204.16 146.728 205.034 145.542 204.757C145.318 204.71 145.107 204.617 144.921 204.484C144.735 204.351 144.579 204.18 144.463 203.983C143.753 202.762 143.753 202.762 160.836 192.843C168.738 188.256 178.167 182.775 186.843 177.507C194.128 172.665 199.829 168.987 204.153 166.431C206.421 164.922 208.573 163.247 210.592 161.418C201.725 165.402 166.707 186.574 144.562 200.348C144.323 200.498 144.034 200.548 143.758 200.485C143.483 200.423 143.243 200.253 143.093 200.014C142.942 199.775 142.893 199.486 142.955 199.21C143.018 198.935 143.187 198.695 143.426 198.544L150.299 194.171C144.619 197.089 142.489 197.579 141.616 197.359C141.418 197.313 141.231 197.226 141.069 197.103C140.906 196.981 140.771 196.826 140.672 196.649C140.534 196.413 140.493 196.133 140.558 195.868C140.623 195.603 140.789 195.374 141.02 195.229L156.15 185.53C143.781 192.516 142.78 192.268 142.17 192.112C142.007 192.074 141.854 192.003 141.72 191.905C141.586 191.806 141.473 191.681 141.389 191.537C141.256 191.299 141.219 191.019 141.287 190.755C141.354 190.49 141.52 190.262 141.751 190.117C157.697 180.255 180.354 165.977 193.581 157.024C182.895 163.179 167.311 172.324 156.348 178.771L144.129 185.871C141.417 187.454 140.104 188.228 139.401 188.583L139.216 188.697C138.726 188.931 138.606 188.895 138.4 188.839C138.199 188.785 138.019 188.674 137.881 188.52C137.742 188.365 137.652 188.174 137.621 187.968C137.59 187.763 137.62 187.554 137.707 187.365C137.793 187.177 137.933 187.018 138.109 186.907C155.021 176.449 179.999 160.687 191.188 152.934C185.231 156.385 176.335 162.057 169.178 166.637C149.114 179.417 143.015 183.095 141.247 182.655C141.079 182.615 140.92 182.541 140.781 182.439C140.642 182.336 140.525 182.207 140.437 182.058C139.997 181.284 139.678 180.738 146.345 175.931C144.527 176.733 143.299 177.038 142.582 176.868C142.379 176.822 142.187 176.735 142.019 176.613C141.851 176.491 141.709 176.336 141.602 176.158C141.47 175.92 141.433 175.642 141.499 175.378C141.565 175.114 141.729 174.886 141.957 174.738C155.056 166.495 174.965 153.573 181.809 148.227C175.817 151.159 162.738 159.587 155.042 164.514C142.468 172.53 141.999 172.729 141.197 172.53C141.05 172.496 140.911 172.432 140.789 172.343C140.667 172.254 140.564 172.141 140.487 172.012C139.919 171.039 139.422 170.173 151.733 161.71C150.214 162.675 148.659 163.676 147.069 164.699C146.937 164.805 146.783 164.88 146.618 164.918C146.454 164.957 146.282 164.957 146.117 164.919C145.977 164.885 145.846 164.823 145.731 164.737C145.616 164.65 145.52 164.54 145.45 164.415C144.69 163.101 145.784 161.972 154.424 155.348C154.266 155.314 154.116 155.248 153.985 155.152C153.854 155.057 153.745 154.935 153.665 154.794C153.533 154.549 153.502 154.263 153.577 153.995C153.653 153.728 153.829 153.5 154.069 153.36C154.269 153.251 154.496 153.204 154.723 153.225C155.846 152.573 156.933 151.862 157.981 151.095C161.446 148.66 162.426 148.078 163.271 148.255C163.436 148.291 163.592 148.361 163.728 148.46C163.865 148.559 163.98 148.685 164.066 148.83C164.677 149.895 164.201 150.534 158.386 155.036C160.005 154.034 161.673 152.998 163.356 151.975C179.771 141.936 181.042 142.234 181.816 142.419C181.986 142.456 182.147 142.528 182.288 142.63C182.428 142.733 182.546 142.864 182.633 143.015C182.766 143.253 182.804 143.532 182.738 143.796C182.672 144.06 182.507 144.289 182.278 144.435C174.269 149.405 165.948 154.787 158.968 159.438C175.171 149.093 182.959 144.528 185.153 145.081C185.343 145.124 185.523 145.205 185.681 145.32C185.838 145.435 185.97 145.581 186.069 145.749C186.744 146.92 187.233 147.772 164.819 162.526L161.595 164.656C166.111 161.816 170.683 158.834 174.375 156.42C188.753 147.091 191.082 145.72 192.168 145.976C192.317 146.015 192.456 146.083 192.578 146.177C192.7 146.271 192.802 146.389 192.878 146.523C193.014 146.759 193.054 147.038 192.989 147.302C192.924 147.567 192.76 147.796 192.53 147.943C178.628 156.803 158.322 170.031 148.283 177.138C153.679 173.957 161.326 169.079 167.985 164.834C189.094 151.344 195.981 147.261 197.926 147.73C198.1 147.771 198.264 147.847 198.408 147.954C198.552 148.06 198.673 148.194 198.764 148.347C199.282 149.249 199.658 149.888 187.312 158.131C204.614 148.092 204.948 148.191 205.495 148.319C205.634 148.355 205.764 148.418 205.879 148.504C205.993 148.591 206.09 148.699 206.162 148.823C206.872 150.051 207.376 150.953 174.73 171.813C172.359 173.332 169.98 174.845 167.63 176.321C180.552 168.682 195.952 159.281 207.618 151.997C207.74 151.922 207.875 151.873 208.017 151.851C208.158 151.829 208.302 151.835 208.441 151.869C208.72 151.94 208.96 152.119 209.109 152.366C209.613 153.246 208.867 153.786 208.079 154.326C207.596 154.659 206.886 155.142 205.949 155.746C204.231 156.889 201.689 158.586 198.409 160.716C192.885 164.315 185.167 169.307 175.469 175.555C166.125 181.568 156.711 187.625 150.257 191.75C158.784 187.241 175.369 177.5 207.319 157.087C211.92 154.155 211.92 154.155 212.389 154.247C212.529 154.282 212.661 154.344 212.777 154.431C212.893 154.518 212.99 154.627 213.063 154.752C213.326 155.206 213.475 155.462 212.623 156.221C211.487 157.215 208.661 159.061 202.214 163.25C211.345 158.245 212.197 158.451 212.751 158.593C212.912 158.629 213.064 158.698 213.197 158.796C213.33 158.894 213.442 159.018 213.525 159.161C213.908 159.828 214 160.63 212.58 162.221C213.14 162.046 213.733 162.002 214.313 162.093C214.544 162.141 214.763 162.238 214.955 162.376C215.147 162.514 215.308 162.691 215.428 162.895C216.138 164.116 216.493 164.741 195.398 178.047C217.735 165.11 217.955 165.167 218.488 165.309C218.624 165.344 218.753 165.406 218.865 165.491C218.977 165.577 219.071 165.684 219.141 165.806C219.851 166.985 218.573 168.171 215.52 170.4C213.553 171.82 210.777 173.694 207.057 176.08C219.46 168.334 222.57 166.729 223.678 166.999C223.834 167.037 223.982 167.107 224.111 167.203C224.24 167.299 224.349 167.421 224.43 167.56C224.502 167.681 224.548 167.815 224.566 167.954C224.584 168.093 224.574 168.234 224.537 168.369C224.501 168.506 224.438 168.635 224.351 168.747C224.265 168.859 224.156 168.953 224.033 169.023C216.791 173.126 209.428 177.372 202.314 181.561L194.944 186.219C180.453 195.392 169.881 201.988 162.462 206.305C160.111 207.916 158.102 209.351 156.49 210.565C163.093 206.66 174.34 200.021 185.6 193.454C221.1 172.679 221.64 172.828 222.315 173.006C222.454 173.041 222.584 173.104 222.699 173.191C222.813 173.277 222.91 173.386 222.982 173.51C223.085 173.691 223.15 173.892 223.173 174.1C223.196 174.307 223.177 174.517 223.117 174.717C222.907 175.404 222.506 176.018 221.96 176.485C224.395 175.271 225.921 174.774 226.674 174.951C226.857 174.993 227.029 175.072 227.181 175.183C227.332 175.294 227.459 175.435 227.554 175.597C228.122 176.577 227.327 177.109 225.573 178.274C224.516 178.984 222.954 179.971 220.788 181.32L220.369 181.582C223.678 179.999 225.999 179.254 227.164 179.538C227.402 179.587 227.627 179.685 227.825 179.825C228.023 179.966 228.189 180.146 228.314 180.354C229.294 182.051 228.314 183.13 193.673 203.621C179.125 212.29 159.906 223.65 154.666 227.91C157.555 226.895 164.755 223.416 182.647 212.588C197.23 203.763 213.29 193.461 220.987 188.512C226.333 185.083 226.326 185.09 226.802 185.203C227.085 185.275 227.327 185.457 227.476 185.708C227.909 186.46 228.35 187.22 222.506 191.572C223.331 191.199 224.238 191.043 225.14 191.118C225.339 191.165 225.526 191.252 225.69 191.374C225.853 191.496 225.99 191.651 226.092 191.828C226.717 192.914 226.717 192.914 215.229 200.44C209.549 204.146 201.668 209.265 191.728 215.655C182.143 221.818 172.48 228.002 165.862 232.227C179.267 225.042 204.387 209.109 215.562 202.023C225.502 195.74 225.502 195.74 226.042 195.875C226.181 195.911 226.312 195.973 226.426 196.06C226.541 196.147 226.637 196.255 226.709 196.379C227.469 197.699 226.262 199.574 221.59 203.046C221.727 203.026 221.866 203.026 222.002 203.046C222.176 203.087 222.34 203.163 222.484 203.27C222.628 203.376 222.749 203.51 222.84 203.663C223.585 204.956 224.43 206.418 192.921 226.149C201.98 220.569 211.381 214.633 218.97 209.713C219.092 209.634 219.228 209.58 219.371 209.555C219.514 209.531 219.66 209.536 219.801 209.569C219.942 209.603 220.074 209.666 220.19 209.753C220.306 209.839 220.403 209.949 220.476 210.075C220.994 210.984 220.277 211.495 219.056 212.347C218.346 212.851 217.274 213.589 215.868 214.526C214.462 215.464 212.715 216.656 210.607 218.02C213.546 216.529 215.364 215.925 216.287 216.152C216.487 216.198 216.676 216.284 216.841 216.406C217.006 216.529 217.144 216.684 217.245 216.862C217.842 217.892 217.707 218.282 210.521 222.926C212.034 222.28 213.106 222.045 213.795 222.216C214.008 222.262 214.211 222.352 214.388 222.48C214.565 222.609 214.714 222.772 214.824 222.961C215.662 224.381 215.03 225.049 195.789 236.7C190.279 240.037 183.343 244.233 177.727 247.854L215.506 226.05C215.626 225.978 215.76 225.932 215.899 225.913C216.039 225.895 216.18 225.905 216.315 225.943C216.586 226.016 216.818 226.192 216.961 226.433C217.487 227.349 216.741 227.896 215.506 228.805C214.76 229.351 213.667 230.125 212.162 231.162C209.357 233.107 205.459 235.741 201.334 238.539C196.527 241.79 190.478 245.887 185.522 249.331C187.801 247.826 190.173 246.214 192.282 244.78C203.265 237.31 207.902 234.321 209.712 234.719C209.902 234.76 210.081 234.841 210.238 234.954C210.396 235.068 210.529 235.212 210.628 235.379C211.246 236.458 211.274 236.508 198.679 245.632C207.816 239.554 210.805 237.822 212.169 238.127C212.344 238.167 212.51 238.242 212.655 238.348C212.8 238.455 212.922 238.589 213.014 238.745C213.511 239.611 213.511 239.611 207.156 244.801C205.239 246.363 202.577 248.535 200.177 250.545C202.122 249.345 204.266 247.982 206.304 246.661C206.425 246.582 206.562 246.528 206.705 246.504C206.847 246.479 206.994 246.484 207.135 246.518C207.276 246.552 207.408 246.614 207.524 246.701C207.64 246.788 207.737 246.897 207.809 247.023C208.207 247.733 208.058 247.875 206.602 249.437C205.417 250.708 204.401 251.823 203.542 252.774C209.989 248.933 210.223 248.997 210.678 249.111C210.816 249.146 210.945 249.21 211.059 249.296C211.172 249.383 211.267 249.491 211.338 249.615C211.409 249.736 211.455 249.869 211.474 250.008C211.493 250.147 211.484 250.289 211.447 250.424C211.411 250.56 211.348 250.686 211.262 250.797C211.176 250.908 211.069 251.001 210.947 251.07C210.845 251.132 210.732 251.175 210.614 251.198C209.669 251.624 204.423 254.712 199.8 257.51C199.645 257.581 199.475 257.615 199.303 257.609ZM209.549 250.63C209.661 250.82 209.83 250.972 210.032 251.063C209.832 250.969 209.664 250.818 209.549 250.63ZM183.336 239.788C177.201 243.615 171.166 247.449 167.233 250.183C171.514 247.634 177.734 243.53 183.336 239.788ZM209.74 220.881C202.775 224.743 191.508 232 182.945 237.53C186.097 235.564 189.69 233.341 193.773 230.828C199.396 227.37 205.452 223.65 209.74 220.881ZM209.286 225.851C205.502 227.867 199.758 231.531 194.156 235.187L194.745 234.832C199.978 231.652 205.658 228.208 209.286 225.837V225.851ZM174.375 209.904C169.689 212.837 165.429 215.599 161.879 217.97C165.557 215.62 169.917 212.801 174.375 209.904ZM224.92 181.98C222.861 182.69 218.495 184.678 209.258 190.223C200.021 195.768 188.859 203.06 178.919 209.521C174.581 212.361 170.932 214.704 167.85 216.678C173.829 213 181.859 208.193 192.587 201.846C205.644 194.1 220.241 185.466 224.92 181.98ZM218.253 202.811L216.748 203.77C211.778 206.927 207.071 209.897 202.626 212.68C208.555 209.116 214.157 205.63 218.253 202.811ZM171.166 198.09C164.655 202.023 158.329 205.9 154.126 208.548C156.256 207.462 158.819 206.006 161.716 204.288C164.563 202.35 167.751 200.255 171.166 198.09ZM187.837 179.332C185.111 181.149 182.427 182.953 179.913 184.635C174.943 187.987 170.527 190.912 166.7 193.425L170.612 191.011C184.99 182.15 205.75 169.342 211.856 164.699C209.598 165.708 207.409 166.866 205.303 168.163C202.875 169.86 199.786 171.898 195.874 174.369C193.325 175.966 190.62 177.628 187.837 179.318V179.332Z" fill="#FFC100"/>
<g opacity="0.4">
<path d="M199.303 257.609C199.215 257.608 199.126 257.597 199.041 257.574C198.764 257.502 198.526 257.323 198.38 257.077C198.011 256.431 197.812 256.083 200.809 252.646C194.348 256.601 193.659 256.438 193.283 256.345C192.988 256.258 192.735 256.067 192.573 255.806C191.976 254.776 191.863 254.57 203.819 244.787C201.902 246.029 199.907 247.364 198.139 248.543C187.617 255.564 184.344 257.56 182.895 257.226C182.72 257.186 182.554 257.111 182.409 257.004C182.264 256.898 182.142 256.763 182.05 256.608C181.411 255.501 181.411 255.501 195.54 245.291L198.338 243.274C196.705 244.361 195.079 245.468 193.588 246.484C182.469 254.045 177.407 257.311 175.511 256.885C175.313 256.841 175.127 256.754 174.966 256.632C174.804 256.509 174.671 256.353 174.574 256.175C173.864 254.975 173.722 254.705 194.27 240.747L167.247 256.367C167.006 256.501 166.723 256.535 166.457 256.462C166.192 256.389 165.965 256.214 165.827 255.976C165.351 255.153 165.72 254.144 167.673 252.426C164.563 254.215 162.76 254.933 161.872 254.727C161.688 254.684 161.513 254.605 161.36 254.494C161.206 254.383 161.076 254.243 160.978 254.081C160.388 253.058 160.616 252.114 168.134 247.059C160.381 251.908 157.52 253.335 156.405 253.072C156.24 253.034 156.084 252.961 155.947 252.86C155.81 252.758 155.695 252.63 155.61 252.483C155.092 251.596 155.575 251.276 157.357 250.097L161.283 247.534L167.29 243.651C160.672 247.087 159.678 246.853 159.125 246.718C158.938 246.675 158.762 246.596 158.607 246.483C158.452 246.371 158.321 246.229 158.223 246.065C158.092 245.824 158.059 245.542 158.13 245.278C158.201 245.013 158.372 244.787 158.606 244.645C179.445 232.291 211.615 212.475 219.368 205.921C211.636 209.436 188.519 223.792 175.348 231.992C158.386 242.536 158.308 242.515 157.598 242.33C157.451 242.297 157.313 242.235 157.191 242.147C157.069 242.059 156.966 241.948 156.888 241.819C156.313 240.825 156.341 240.186 163.129 235.983C160.005 237.452 157.946 238.113 157.037 237.9C156.838 237.853 156.651 237.766 156.487 237.644C156.324 237.522 156.187 237.367 156.086 237.19C155.95 236.954 155.91 236.674 155.975 236.41C156.04 236.145 156.204 235.916 156.434 235.77C177.464 222.372 207.05 203.401 219.12 195.385C215.761 197.096 211.253 199.645 206.24 202.648C202.186 205.254 197.379 208.286 191.692 211.821C184.18 216.5 176.583 221.137 170.257 224.971C154.978 234.612 154.794 234.57 154.048 234.385C153.901 234.35 153.763 234.286 153.641 234.197C153.519 234.108 153.416 233.996 153.338 233.867C153.207 233.626 153.174 233.345 153.245 233.08C153.317 232.816 153.487 232.589 153.721 232.447C158.322 229.713 163.399 226.667 168.667 223.472L171.436 221.726C160.403 228.038 154.304 230.8 152.507 230.359C152.3 230.319 152.103 230.235 151.93 230.112C151.758 229.99 151.613 229.832 151.506 229.649C150.846 228.513 151.783 227.065 159.565 221.981C154.545 225.042 152.557 225.95 151.712 225.744C151.551 225.708 151.399 225.639 151.266 225.541C151.133 225.444 151.021 225.319 150.938 225.176C150.491 224.403 150.129 223.756 155.326 219.986C152.529 221.406 150.761 221.981 149.916 221.776C149.724 221.734 149.543 221.653 149.384 221.538C149.226 221.424 149.092 221.277 148.993 221.108C148.921 220.986 148.875 220.851 148.857 220.711C148.839 220.57 148.849 220.428 148.886 220.292C148.961 220.02 149.14 219.788 149.383 219.646C172.423 206.546 207.312 185.8 217.934 177.429C206.283 183.862 174.162 202.719 151.748 216.01C151.627 216.082 151.493 216.129 151.353 216.148C151.214 216.167 151.072 216.159 150.936 216.123C150.801 216.088 150.673 216.025 150.561 215.94C150.449 215.855 150.356 215.749 150.285 215.627C150.176 215.432 150.108 215.217 150.085 214.995C150.062 214.773 150.084 214.548 150.15 214.335C150.545 213.434 151.143 212.638 151.897 212.006C150.242 212.68 149.135 212.929 148.503 212.773C148.306 212.725 148.122 212.637 147.961 212.515C147.799 212.393 147.665 212.239 147.566 212.063C146.927 210.962 148.148 210.11 149.994 208.825C151.414 207.867 153.423 206.539 156.235 204.778C161.482 201.498 168.681 197.153 176.307 192.559C184.876 187.39 195.058 181.249 203.145 176.165C185.842 186.105 158.592 202.023 145.507 209.677C145.259 209.818 144.966 209.856 144.69 209.784C144.555 209.748 144.428 209.686 144.317 209.6C144.206 209.515 144.113 209.408 144.044 209.287C143.497 208.335 143.334 208.058 152.742 202.137C149.057 204.16 146.728 205.034 145.542 204.757C145.318 204.71 145.107 204.617 144.921 204.484C144.735 204.351 144.579 204.18 144.463 203.983C143.753 202.762 143.753 202.762 160.836 192.843C168.738 188.256 178.167 182.775 186.843 177.507C194.128 172.665 199.829 168.987 204.153 166.431C206.421 164.922 208.573 163.247 210.592 161.418C201.725 165.402 166.707 186.574 144.562 200.348C144.323 200.498 144.034 200.548 143.758 200.485C143.483 200.423 143.243 200.253 143.093 200.014C142.942 199.775 142.893 199.486 142.955 199.21C143.018 198.935 143.187 198.695 143.426 198.544L150.299 194.171C144.619 197.089 142.489 197.579 141.616 197.359C141.418 197.313 141.231 197.226 141.069 197.103C140.906 196.981 140.771 196.826 140.672 196.649C140.534 196.413 140.493 196.133 140.558 195.868C140.623 195.603 140.789 195.374 141.02 195.229L156.15 185.53C143.781 192.516 142.78 192.268 142.17 192.112C142.007 192.074 141.854 192.003 141.72 191.905C141.586 191.806 141.473 191.681 141.389 191.537C141.256 191.299 141.219 191.019 141.287 190.755C141.354 190.49 141.52 190.262 141.751 190.117C157.697 180.255 180.354 165.977 193.581 157.024C182.895 163.179 167.311 172.324 156.348 178.771L144.129 185.871C141.417 187.454 140.104 188.228 139.401 188.583L139.216 188.697C138.726 188.931 138.606 188.895 138.4 188.839C138.199 188.785 138.019 188.674 137.881 188.52C137.742 188.365 137.652 188.174 137.621 187.968C137.59 187.763 137.62 187.554 137.707 187.365C137.793 187.177 137.933 187.018 138.109 186.907C155.021 176.449 179.999 160.687 191.188 152.934C185.231 156.385 176.335 162.057 169.178 166.637C149.114 179.417 143.015 183.095 141.247 182.655C141.079 182.615 140.92 182.541 140.781 182.439C140.642 182.336 140.525 182.207 140.437 182.058C139.997 181.284 139.678 180.738 146.345 175.931C144.527 176.733 143.299 177.038 142.582 176.868C142.379 176.822 142.187 176.735 142.019 176.613C141.851 176.491 141.709 176.336 141.602 176.158C141.47 175.92 141.433 175.642 141.499 175.378C141.565 175.114 141.729 174.886 141.957 174.738C155.056 166.495 174.965 153.573 181.809 148.227C175.817 151.159 162.738 159.587 155.042 164.514C142.468 172.53 141.999 172.729 141.197 172.53C141.05 172.496 140.911 172.432 140.789 172.343C140.667 172.254 140.564 172.141 140.487 172.012C139.919 171.039 139.422 170.173 151.733 161.71C150.214 162.675 148.659 163.676 147.069 164.699C146.937 164.805 146.783 164.88 146.618 164.918C146.454 164.957 146.282 164.957 146.117 164.919C145.977 164.885 145.846 164.823 145.731 164.737C145.616 164.65 145.52 164.54 145.45 164.415C144.69 163.101 145.784 161.972 154.424 155.348C154.266 155.314 154.116 155.248 153.985 155.152C153.854 155.057 153.745 154.935 153.665 154.794C153.533 154.549 153.502 154.263 153.577 153.995C153.653 153.728 153.829 153.5 154.069 153.36C154.269 153.251 154.496 153.204 154.723 153.225C155.846 152.573 156.933 151.862 157.981 151.095C161.446 148.66 162.426 148.078 163.271 148.255C163.436 148.291 163.592 148.361 163.728 148.46C163.865 148.559 163.98 148.685 164.066 148.83C164.677 149.895 164.201 150.534 158.386 155.036C160.005 154.034 161.673 152.998 163.356 151.975C179.771 141.936 181.042 142.234 181.816 142.419C181.986 142.456 182.147 142.528 182.288 142.63C182.428 142.733 182.546 142.864 182.633 143.015C182.766 143.253 182.804 143.532 182.738 143.796C182.672 144.06 182.507 144.289 182.278 144.435C174.269 149.405 165.948 154.787 158.968 159.438C175.171 149.093 182.959 144.528 185.153 145.081C185.343 145.124 185.523 145.205 185.681 145.32C185.838 145.435 185.97 145.581 186.069 145.749C186.744 146.92 187.233 147.772 164.819 162.526L161.595 164.656C166.111 161.816 170.683 158.834 174.375 156.42C188.753 147.091 191.082 145.72 192.168 145.976C192.317 146.015 192.456 146.083 192.578 146.177C192.7 146.271 192.802 146.389 192.878 146.523C193.014 146.759 193.054 147.038 192.989 147.302C192.924 147.567 192.76 147.796 192.53 147.943C178.628 156.803 158.322 170.031 148.283 177.138C153.679 173.957 161.326 169.079 167.985 164.834C189.094 151.344 195.981 147.261 197.926 147.73C198.1 147.771 198.264 147.847 198.408 147.954C198.552 148.06 198.673 148.194 198.764 148.347C199.282 149.249 199.658 149.888 187.312 158.131C204.614 148.092 204.948 148.191 205.495 148.319C205.634 148.355 205.764 148.418 205.879 148.504C205.993 148.591 206.09 148.699 206.162 148.823C206.872 150.051 207.376 150.953 174.73 171.813C172.359 173.332 169.98 174.845 167.63 176.321C180.552 168.682 195.952 159.281 207.618 151.997C207.74 151.922 207.875 151.873 208.017 151.851C208.158 151.829 208.302 151.835 208.441 151.869C208.72 151.94 208.96 152.119 209.109 152.366C209.613 153.246 208.867 153.786 208.079 154.326C207.596 154.659 206.886 155.142 205.949 155.746C204.231 156.889 201.689 158.586 198.409 160.716C192.885 164.315 185.167 169.307 175.469 175.555C166.125 181.568 156.711 187.625 150.257 191.75C158.784 187.241 175.369 177.5 207.319 157.087C211.92 154.155 211.92 154.155 212.389 154.247C212.529 154.282 212.661 154.344 212.777 154.431C212.893 154.518 212.99 154.627 213.063 154.752C213.326 155.206 213.475 155.462 212.623 156.221C211.487 157.215 208.661 159.061 202.214 163.25C211.345 158.245 212.197 158.451 212.751 158.593C212.912 158.629 213.064 158.698 213.197 158.796C213.33 158.894 213.442 159.018 213.525 159.161C213.908 159.828 214 160.63 212.58 162.221C213.14 162.046 213.733 162.002 214.313 162.093C214.544 162.141 214.763 162.238 214.955 162.376C215.147 162.514 215.308 162.691 215.428 162.895C216.138 164.116 216.493 164.741 195.398 178.047C217.735 165.11 217.955 165.167 218.488 165.309C218.624 165.344 218.753 165.406 218.865 165.491C218.977 165.577 219.071 165.684 219.141 165.806C219.851 166.985 218.573 168.171 215.52 170.4C213.553 171.82 210.777 173.694 207.057 176.08C219.46 168.334 222.57 166.729 223.678 166.999C223.834 167.037 223.982 167.107 224.111 167.203C224.24 167.299 224.349 167.421 224.43 167.56C224.502 167.681 224.548 167.815 224.566 167.954C224.584 168.093 224.574 168.234 224.537 168.369C224.501 168.506 224.438 168.635 224.351 168.747C224.265 168.859 224.156 168.953 224.033 169.023C216.791 173.126 209.428 177.372 202.314 181.561L194.944 186.219C180.453 195.392 169.881 201.988 162.462 206.305C160.111 207.916 158.102 209.351 156.49 210.565C163.093 206.66 174.34 200.021 185.6 193.454C221.1 172.679 221.64 172.828 222.315 173.006C222.454 173.041 222.584 173.104 222.699 173.191C222.813 173.277 222.91 173.386 222.982 173.51C223.085 173.691 223.15 173.892 223.173 174.1C223.196 174.307 223.177 174.517 223.117 174.717C222.907 175.404 222.506 176.018 221.96 176.485C224.395 175.271 225.921 174.774 226.674 174.951C226.857 174.993 227.029 175.072 227.181 175.183C227.332 175.294 227.459 175.435 227.554 175.597C228.122 176.577 227.327 177.109 225.573 178.274C224.516 178.984 222.954 179.971 220.788 181.32L220.369 181.582C223.678 179.999 225.999 179.254 227.164 179.538C227.402 179.587 227.627 179.685 227.825 179.825C228.023 179.966 228.189 180.146 228.314 180.354C229.294 182.051 228.314 183.13 193.673 203.621C179.125 212.29 159.906 223.65 154.666 227.91C157.555 226.895 164.755 223.416 182.647 212.588C197.23 203.763 213.29 193.461 220.987 188.512C226.333 185.083 226.326 185.09 226.802 185.203C227.085 185.275 227.327 185.457 227.476 185.708C227.909 186.46 228.35 187.22 222.506 191.572C223.331 191.199 224.238 191.043 225.14 191.118C225.339 191.165 225.526 191.252 225.69 191.374C225.853 191.496 225.99 191.651 226.092 191.828C226.717 192.914 226.717 192.914 215.229 200.44C209.549 204.146 201.668 209.265 191.728 215.655C182.143 221.818 172.48 228.002 165.862 232.227C179.267 225.042 204.387 209.109 215.562 202.023C225.502 195.74 225.502 195.74 226.042 195.875C226.181 195.911 226.312 195.973 226.426 196.06C226.541 196.147 226.637 196.255 226.709 196.379C227.469 197.699 226.262 199.574 221.59 203.046C221.727 203.026 221.866 203.026 222.002 203.046C222.176 203.087 222.34 203.163 222.484 203.27C222.628 203.376 222.749 203.51 222.84 203.663C223.585 204.956 224.43 206.418 192.921 226.149C201.98 220.569 211.381 214.633 218.97 209.713C219.092 209.634 219.228 209.58 219.371 209.555C219.514 209.531 219.66 209.536 219.801 209.569C219.942 209.603 220.074 209.666 220.19 209.753C220.306 209.839 220.403 209.949 220.476 210.075C220.994 210.984 220.277 211.495 219.056 212.347C218.346 212.851 217.274 213.589 215.868 214.526C214.462 215.464 212.715 216.656 210.607 218.02C213.546 216.529 215.364 215.925 216.287 216.152C216.487 216.198 216.676 216.284 216.841 216.406C217.006 216.529 217.144 216.684 217.245 216.862C217.842 217.892 217.707 218.282 210.521 222.926C212.034 222.28 213.106 222.045 213.795 222.216C214.008 222.262 214.211 222.352 214.388 222.48C214.565 222.609 214.714 222.772 214.824 222.961C215.662 224.381 215.03 225.049 195.789 236.7C190.279 240.037 183.343 244.233 177.727 247.854L215.506 226.05C215.626 225.978 215.76 225.932 215.899 225.913C216.039 225.895 216.18 225.905 216.315 225.943C216.586 226.016 216.818 226.192 216.961 226.433C217.487 227.349 216.741 227.896 215.506 228.805C214.76 229.351 213.667 230.125 212.162 231.162C209.357 233.107 205.459 235.741 201.334 238.539C196.527 241.79 190.478 245.887 185.522 249.331C187.801 247.825 190.173 246.214 192.282 244.78C203.265 237.31 207.902 234.321 209.712 234.719C209.902 234.76 210.081 234.841 210.238 234.954C210.396 235.068 210.529 235.212 210.628 235.379C211.246 236.458 211.274 236.508 198.679 245.632C207.816 239.554 210.805 237.822 212.169 238.127C212.344 238.167 212.51 238.242 212.655 238.348C212.8 238.455 212.922 238.59 213.014 238.745C213.511 239.611 213.511 239.611 207.156 244.801C205.239 246.363 202.577 248.535 200.177 250.545C202.122 249.345 204.266 247.982 206.304 246.661C206.425 246.582 206.562 246.528 206.705 246.504C206.847 246.479 206.994 246.484 207.135 246.518C207.276 246.552 207.408 246.614 207.524 246.701C207.64 246.788 207.737 246.897 207.809 247.023C208.207 247.733 208.058 247.875 206.602 249.437C205.417 250.708 204.401 251.823 203.542 252.774C209.989 248.933 210.223 248.997 210.678 249.111C210.816 249.146 210.945 249.21 211.059 249.296C211.172 249.383 211.267 249.491 211.338 249.615C211.409 249.736 211.455 249.869 211.474 250.008C211.493 250.147 211.484 250.289 211.447 250.424C211.411 250.56 211.348 250.686 211.262 250.797C211.176 250.908 211.069 251.001 210.947 251.07C210.845 251.132 210.732 251.175 210.614 251.198C209.669 251.624 204.423 254.712 199.8 257.51C199.645 257.581 199.475 257.615 199.303 257.609ZM209.549 250.63C209.661 250.82 209.83 250.972 210.032 251.063C209.832 250.969 209.664 250.818 209.549 250.63ZM183.336 239.788C177.201 243.615 171.166 247.449 167.233 250.183C171.514 247.634 177.734 243.53 183.336 239.788ZM209.74 220.881C202.775 224.743 191.508 232 182.945 237.53C186.097 235.564 189.69 233.341 193.773 230.828C199.396 227.37 205.452 223.65 209.74 220.881ZM209.286 225.851C205.502 227.867 199.758 231.531 194.156 235.187L194.745 234.832C199.978 231.652 205.658 228.208 209.286 225.837V225.851ZM174.375 209.904C169.689 212.837 165.429 215.599 161.879 217.97C165.557 215.62 169.917 212.801 174.375 209.904ZM224.92 181.98C222.861 182.69 218.495 184.678 209.258 190.223C200.021 195.768 188.859 203.06 178.919 209.521C174.581 212.361 170.932 214.704 167.85 216.678C173.829 213 181.859 208.193 192.587 201.846C205.644 194.1 220.241 185.466 224.92 181.98ZM218.253 202.811L216.748 203.77C211.778 206.927 207.071 209.897 202.626 212.68C208.555 209.116 214.157 205.63 218.253 202.811ZM171.166 198.09C164.655 202.023 158.329 205.9 154.126 208.548C156.256 207.462 158.819 206.006 161.716 204.288C164.563 202.35 167.751 200.255 171.166 198.09ZM187.837 179.332C185.111 181.149 182.427 182.953 179.913 184.635C174.943 187.987 170.527 190.912 166.7 193.425L170.612 191.011C184.99 182.15 205.75 169.342 211.856 164.699C209.598 165.708 207.409 166.866 205.303 168.163C202.875 169.86 199.786 171.898 195.874 174.369C193.325 175.966 190.62 177.628 187.837 179.318V179.332Z" fill="white"/>
</g>
<path d="M184.222 143.811H183.747C158.002 144.286 138.598 163.982 138.598 188.214C138.586 195.45 140.351 202.579 143.738 208.974C145.158 212.347 148.595 220.604 151.995 231.283C155.148 241.137 156.795 251.056 156.795 252.583C156.795 252.725 156.795 252.874 156.795 253.037C156.781 253.483 156.856 253.926 157.017 254.342C157.177 254.758 157.419 255.138 157.729 255.458C158.039 255.779 158.41 256.034 158.821 256.208C159.231 256.382 159.672 256.473 160.118 256.473H206.225C206.671 256.473 207.112 256.382 207.522 256.208C207.933 256.034 208.304 255.779 208.614 255.458C208.924 255.138 209.166 254.758 209.326 254.342C209.487 253.926 209.562 253.483 209.548 253.037C209.548 252.874 209.548 252.725 209.548 252.583C209.548 251.084 211.195 241.166 214.341 231.283C217.749 220.633 221.149 212.347 222.598 208.974C226.139 202.275 227.907 194.781 227.734 187.206C227.561 179.63 225.453 172.225 221.611 165.694C217.768 159.163 212.319 153.724 205.781 149.894C199.243 146.063 191.834 143.969 184.258 143.811H184.222Z" stroke="#263238" stroke-width="2" stroke-linecap="round" stroke-linejoin="round"/>
<path d="M199.78 150.94C198.494 150.362 197.176 149.86 195.832 149.435" stroke="#263238" stroke-width="3" stroke-linecap="round" stroke-linejoin="round"/>
<path d="M214.576 162.214C214.576 162.214 210.955 156.463 202.996 152.551" stroke="#263238" stroke-width="3" stroke-linecap="round" stroke-linejoin="round"/>
<path d="M180.226 236.338V213.533C180.226 213.533 181.98 202.429 176.207 202.429C170.435 202.429 170.875 208.208 177.535 214.421C184.195 220.633 194.419 214.868 195.754 209.983C197.088 205.098 193.531 202.883 191.309 206.873C189.087 210.864 191.309 256.183 191.309 256.183" stroke="#263238" stroke-width="3" stroke-linecap="round" stroke-linejoin="round"/>
<path d="M167.879 132.273L170.336 140.005" stroke="#263238" stroke-width="3" stroke-linecap="round" stroke-linejoin="round"/>
<path d="M228.073 149.136L219.986 155.462" stroke="#263238" stroke-width="3" stroke-linecap="round" stroke-linejoin="round"/>
<path d="M198.089 126.629L195.043 140.005" stroke="#263238" stroke-width="3" stroke-linecap="round" stroke-linejoin="round"/>
<path d="M207.511 259.797H158.812C158.189 259.797 157.684 260.302 157.684 260.926V261.487C157.684 262.11 158.189 262.616 158.812 262.616H207.511C208.135 262.616 208.64 262.11 208.64 261.487V260.926C208.64 260.302 208.135 259.797 207.511 259.797Z" fill="#263238" stroke="#263238" stroke-linecap="round" stroke-linejoin="round"/>
<path d="M207.511 266.144H158.812C158.189 266.144 157.684 266.649 157.684 267.272V267.833C157.684 268.457 158.189 268.962 158.812 268.962H207.511C208.135 268.962 208.64 268.457 208.64 267.833V267.272C208.64 266.649 208.135 266.144 207.511 266.144Z" fill="#263238" stroke="#263238" stroke-linecap="round" stroke-linejoin="round"/>
<path d="M207.511 272.491H158.812C158.189 272.491 157.684 272.997 157.684 273.62V274.181C157.684 274.804 158.189 275.31 158.812 275.31H207.511C208.135 275.31 208.64 274.804 208.64 274.181V273.62C208.64 272.997 208.135 272.491 207.511 272.491Z" fill="#263238" stroke="#263238" stroke-linecap="round" stroke-linejoin="round"/>
<path d="M184.657 278.689H159.65L166.85 288.629C167.467 289.483 168.278 290.178 169.216 290.657C170.154 291.136 171.193 291.385 172.246 291.384H194.256C195.311 291.383 196.351 291.132 197.291 290.651C198.23 290.169 199.042 289.472 199.659 288.615L206.801 278.725L184.657 278.689Z" fill="#263238" stroke="#263238" stroke-linecap="round" stroke-linejoin="round"/>
<path d="M238.341 172.53C238.341 172.53 233.797 177.5 230.077 179.971C226.356 182.442 223.765 185.729 227.18 187.412C229.232 188.42 232.15 187 232.15 187C232.15 187 227.599 188.235 226.775 192.375C225.952 196.514 235.011 194.838 235.011 194.838C235.011 194.838 228.401 199.382 230.467 201.037C232.533 202.691 236.665 201.449 238.732 201.449C240.798 201.449 251.135 194.838 253.642 194.838C256.148 194.838 261.082 200.213 261.082 204.345C261.082 208.478 267.671 208.066 268.516 195.25C269.361 182.435 266.038 171.692 260.663 168.384C255.289 165.075 238.341 172.53 238.341 172.53Z" fill="white" stroke="#263238" stroke-miterlimit="10" stroke-linecap="round"/>
<path d="M235.863 186.567L252.357 180.404C252.357 180.404 259.599 178.835 264.796 187.397" stroke="#263238" stroke-miterlimit="10" stroke-linecap="round"/>
<path d="M238.752 191.529L253.662 189.052C253.662 189.052 260.279 188.64 264.411 196.492" stroke="#263238" stroke-miterlimit="10" stroke-linecap="round"/>
<path d="M256.942 201.449L245.781 203.934L252.391 230.381C252.391 230.381 258.185 241.954 259.832 246.917C261.479 251.88 278.434 268.38 278.434 268.38L298.271 249.367C298.271 249.367 289.183 238.624 288.772 236.139C288.36 233.654 286.698 204.729 286.698 200.597C286.698 196.464 278.434 186.539 278.434 186.539C278.434 186.539 275.04 181.675 273.386 173.411C271.732 165.146 264.156 161.745 260.01 162.157C255.863 162.569 244.539 163.812 239.995 167.127C235.451 170.443 231.311 174.568 235.451 175.811C242.316 177.87 253.549 168.711 258.966 175.044C261.451 177.933 264.383 190.664 264.795 192.346C264.795 192.346 262.729 200.199 256.942 201.434" fill="white"/>
<path d="M256.942 201.449L245.781 203.934L252.391 230.381C252.391 230.381 258.185 241.954 259.832 246.917C261.479 251.88 278.434 268.38 278.434 268.38L298.271 249.367C298.271 249.367 289.183 238.624 288.772 236.139C288.36 233.654 286.698 204.729 286.698 200.597C286.698 196.464 278.434 186.539 278.434 186.539C278.434 186.539 275.04 181.675 273.386 173.411C271.732 165.146 264.156 161.745 260.01 162.157C255.863 162.569 244.539 163.812 239.995 167.127C235.451 170.443 231.311 174.568 235.451 175.811C242.316 177.87 253.549 168.711 258.966 175.044C261.451 177.933 264.383 190.664 264.795 192.346C264.795 192.346 262.729 200.199 256.942 201.434" stroke="#263238" stroke-miterlimit="10" stroke-linecap="round"/>
<path d="M215.322 163.031C215.449 162.898 215.619 162.815 215.801 162.797C215.983 162.779 216.166 162.826 216.316 162.931L218.006 164.103C218.173 164.22 218.287 164.399 218.323 164.599C218.358 164.8 218.314 165.007 218.198 165.175C218.082 165.341 217.905 165.455 217.705 165.491C217.505 165.526 217.3 165.482 217.133 165.366L215.443 164.188C215.277 164.072 215.163 163.895 215.127 163.695C215.091 163.495 215.136 163.29 215.251 163.123C215.271 163.089 215.295 163.058 215.322 163.031Z" fill="#263238" stroke="#263238" stroke-miterlimit="10" stroke-linecap="round"/>
<path d="M217.261 164.393C217.548 164.087 217.936 163.894 218.353 163.851C218.771 163.808 219.19 163.917 219.533 164.159L224.83 166.885L276.83 201.093C277.274 201.401 277.652 201.794 277.944 202.248C278.235 202.702 278.435 203.21 278.53 203.741C278.626 204.273 278.616 204.818 278.501 205.345C278.386 205.873 278.168 206.372 277.86 206.816C277.552 207.259 277.159 207.637 276.705 207.929C276.25 208.221 275.743 208.42 275.212 208.516C274.68 208.611 274.135 208.601 273.608 208.486C273.08 208.371 272.58 208.153 272.137 207.845L221.67 170.613L217.545 167.063C217.356 166.932 217.194 166.764 217.07 166.57C216.945 166.376 216.86 166.16 216.819 165.933C216.778 165.706 216.782 165.473 216.831 165.248C216.88 165.023 216.973 164.81 217.105 164.62C217.15 164.54 217.202 164.464 217.261 164.393Z" fill="#FFC100" stroke="#263238" stroke-miterlimit="10" stroke-linecap="round"/>
<path d="M276.837 201.094L261.827 191.225C260.669 191.56 259.648 192.256 258.911 193.211C258.175 194.166 257.761 195.33 257.73 196.535C257.732 196.773 257.751 197.011 257.787 197.245L272.143 207.839C273.039 208.461 274.145 208.702 275.218 208.509C276.291 208.316 277.244 207.705 277.866 206.809C278.488 205.914 278.73 204.808 278.537 203.735C278.343 202.661 277.732 201.709 276.837 201.087V201.094Z" fill="#263238" stroke="#263238" stroke-miterlimit="10" stroke-linecap="round"/>
<path d="M259.861 246.917C255.317 240.307 249.531 223.359 247.081 220.051C244.632 216.742 237.951 209.401 235.473 201.988C232.995 194.576 231.369 188.64 231.369 182.435C231.369 176.229 236.701 175.164 240.833 181.782C244.966 188.399 249.921 198.559 249.921 198.559C249.921 198.559 253.23 202.691 259.861 201.449" fill="white"/>
<path d="M259.861 246.917C255.317 240.307 249.531 223.359 247.081 220.051C244.632 216.742 237.951 209.401 235.473 201.988C232.995 194.576 231.369 188.64 231.369 182.435C231.369 176.229 236.701 175.164 240.833 181.782C244.966 188.399 249.921 198.559 249.921 198.559C249.921 198.559 253.23 202.691 259.861 201.449" stroke="#263238" stroke-miterlimit="10" stroke-linecap="round"/>
<path d="M236.494 179.85L237.914 182.612C237.914 182.612 237.602 182.612 235.393 183.869C234.076 184.62 232.969 185.692 232.177 186.986C232.177 186.986 230.047 181.036 231.929 179.176C232.386 178.693 232.99 178.376 233.647 178.274C234.226 178.214 234.809 178.332 235.319 178.614C235.828 178.896 236.238 179.328 236.494 179.85Z" fill="white" stroke="#263238" stroke-miterlimit="10" stroke-linecap="round"/>
<path d="M293.94 240.946C293.94 240.946 282.999 244.184 277.319 249.864C273.557 253.697 270.036 257.759 266.775 262.026L276.914 273.784C276.914 273.784 285.434 264.05 291.114 259.584C294.983 256.613 299.046 253.904 303.276 251.476L293.94 240.946Z" fill="white" stroke="#263238" stroke-miterlimit="10" stroke-linecap="round"/>
<path d="M304.1 326.486L272.072 274.997C272.072 274.997 280.18 262.835 287.075 256.757C293.969 250.68 302.886 249.054 302.886 249.054L342.93 287.486" fill="#CA8C29"/>
<path d="M304.1 326.486L272.072 274.997C272.072 274.997 280.18 262.835 287.075 256.757C293.969 250.68 302.886 249.054 302.886 249.054L342.93 287.486" stroke="#CA8C29" stroke-miterlimit="10" stroke-linecap="round"/>
<path d="M242.395 194.888L243.105 194.817" stroke="#263238" stroke-miterlimit="10" stroke-linecap="round"/>
<path d="M236.211 198.325C236.211 198.325 236.587 196.06 241.138 195.108" stroke="#263238" stroke-miterlimit="10" stroke-linecap="round"/>
<path d="M241.152 196.728C241.152 196.728 240.832 197.686 237.645 198.964" stroke="#263238" stroke-miterlimit="10" stroke-linecap="round"/>
<path d="M241.024 193.695C239.429 193.946 237.913 194.56 236.594 195.492" stroke="#263238" stroke-miterlimit="10" stroke-linecap="round"/>
<path d="M141.118 123.078C141.118 123.078 147.821 123.624 152.067 125.037C156.312 126.45 160.487 126.457 159.713 122.751C159.252 120.515 156.341 119.088 156.341 119.088C156.341 119.088 160.111 121.928 163.881 120.032C167.651 118.136 160.764 111.988 160.764 111.988C160.764 111.988 168.418 114.416 168.454 111.767C168.489 109.119 164.975 106.62 163.704 104.987C162.433 103.354 150.874 99.2572 149.347 97.3047C147.821 95.3522 149.021 88.1315 152.287 85.5897C155.553 83.0479 151.165 78.0992 140.579 85.2986C129.993 92.498 123.539 101.721 124.185 108.019C124.831 114.316 141.118 123.078 141.118 123.078Z" fill="white" stroke="#263238" stroke-miterlimit="10" stroke-linecap="round"/>
<path d="M153.736 116.439L138.741 107.209C138.741 107.209 133.061 102.459 136.611 93.1016" stroke="#263238" stroke-miterlimit="10" stroke-linecap="round"/>
<path d="M155.873 111.079L144.782 100.855C144.782 100.855 140.395 95.8855 144.072 87.8057" stroke="#263238" stroke-miterlimit="10" stroke-linecap="round"/>
<path d="M152.543 90.6315L161.347 97.9232L178.21 76.4599C178.21 76.4599 189.073 71.5822 191.934 67.2299C194.795 62.8776 197.23 39.3056 197.23 39.3056L169.974 35.5C169.974 35.5 167.197 49.3024 165.508 51.1697C163.818 53.037 136.88 65.107 133.622 67.6488C130.363 70.1906 127.601 82.8002 127.601 82.8002C126.148 87.9269 124.247 92.9161 121.921 97.7102C115.708 110.291 116.816 109.326 119.677 112.336C122.538 115.347 129.504 121.467 134.907 123.029C140.31 124.591 147.026 130.171 145.521 123.348C143.973 116.355 128.808 113.408 130.476 105.258C131.236 101.523 139.507 91.377 140.558 90.0351C140.558 90.0351 148.02 86.8472 152.557 90.6528" fill="white"/>
<path d="M152.543 90.6315L161.347 97.9232L178.21 76.4599C178.21 76.4599 189.073 71.5822 191.934 67.2299C194.795 62.8776 197.23 39.3056 197.23 39.3056L169.974 35.5C169.974 35.5 167.197 49.3024 165.508 51.1697C163.818 53.037 136.88 65.107 133.622 67.6488C130.363 70.1906 127.601 82.8002 127.601 82.8002C126.148 87.9269 124.247 92.9161 121.921 97.7102C115.708 110.291 116.816 109.326 119.677 112.336C122.538 115.347 129.504 121.467 134.907 123.029C140.31 124.591 147.026 130.171 145.521 123.348C143.973 116.355 128.808 113.408 130.476 105.258C131.236 101.523 139.507 91.377 140.558 90.0351C140.558 90.0351 148.02 86.8472 152.557 90.6528" stroke="#263238" stroke-miterlimit="10" stroke-linecap="round"/>
<path d="M147.765 147.076C147.581 147.063 147.408 146.984 147.277 146.853C147.147 146.723 147.068 146.55 147.055 146.366L146.948 144.307C146.934 144.202 146.942 144.096 146.971 143.994C147 143.892 147.05 143.798 147.117 143.716C147.184 143.634 147.268 143.568 147.362 143.52C147.457 143.472 147.56 143.445 147.665 143.439C147.771 143.433 147.877 143.449 147.976 143.486C148.075 143.523 148.165 143.58 148.241 143.653C148.317 143.727 148.377 143.815 148.418 143.913C148.458 144.011 148.477 144.116 148.475 144.222L148.588 146.281C148.6 146.482 148.532 146.68 148.399 146.831C148.266 146.982 148.079 147.076 147.878 147.09L147.765 147.076Z" fill="#263238" stroke="#263238" stroke-miterlimit="10" stroke-linecap="round"/>
<path d="M147.679 144.697C147.261 144.66 146.87 144.473 146.579 144.17C146.288 143.867 146.116 143.47 146.096 143.05L145.002 137.193L140.082 75.1458C140.024 74.0565 140.4 72.9886 141.129 72.177C141.858 71.3655 142.88 70.8768 143.969 70.8184C145.059 70.76 146.127 71.1368 146.938 71.8658C147.75 72.5948 148.238 73.6163 148.297 74.7056L149.887 137.406L149.589 142.866C149.601 143.095 149.568 143.325 149.492 143.541C149.416 143.758 149.297 143.958 149.143 144.128C148.99 144.299 148.804 144.438 148.596 144.537C148.389 144.636 148.164 144.693 147.935 144.705C147.849 144.709 147.764 144.707 147.679 144.697Z" fill="#FFC100" stroke="#263238" stroke-miterlimit="10" stroke-linecap="round"/>
<path d="M140.047 75.1458L141.467 93.052C142.44 93.7644 143.615 94.1485 144.822 94.1485C146.028 94.1485 147.203 93.7644 148.176 93.052C148.365 92.9041 148.543 92.7427 148.709 92.5692L148.262 74.734C148.203 73.6446 147.715 72.6231 146.903 71.8941C146.091 71.1651 145.024 70.7883 143.934 70.8467C142.845 70.9051 141.823 71.3938 141.094 72.2054C140.365 73.0169 139.989 74.0848 140.047 75.1742V75.1458Z" fill="#263238" stroke="#263238" stroke-miterlimit="10" stroke-linecap="round"/>
<path d="M191.898 67.2012C189.57 74.8763 179.289 85.4269 177.5 89.1473C173.488 97.5767 168.845 105.691 163.612 113.422C161.844 116.07 159.934 116.447 158.77 117.398C157.066 118.818 156.192 120.274 153.281 122.531C148.39 126.337 144.272 122.794 146.955 115.474C149.639 108.154 154.567 97.9797 154.567 97.9797C154.567 97.9797 155.802 92.8322 150.768 88.3734" fill="white"/>
<path d="M191.898 67.2012C189.57 74.8763 179.289 85.4269 177.5 89.1473C173.488 97.5767 168.845 105.691 163.612 113.422C161.844 116.07 159.934 116.447 158.77 117.398C157.066 118.818 156.192 120.274 153.281 122.531C148.39 126.337 144.272 122.794 146.955 115.474C149.639 108.154 154.567 97.9797 154.567 97.9797C154.567 97.9797 155.802 92.8322 150.768 88.3734" stroke="#263238" stroke-miterlimit="10" stroke-linecap="round"/>
<path d="M148.035 120.032L149.37 117.249C149.37 117.249 149.561 117.498 151.911 118.463C153.312 119.042 154.836 119.257 156.342 119.088C156.342 119.088 152.955 124.427 150.307 124.093C149.647 124.031 149.026 123.748 148.546 123.291C148.132 122.869 147.86 122.328 147.769 121.743C147.677 121.159 147.77 120.561 148.035 120.032Z" fill="white" stroke="#263238" stroke-miterlimit="10" stroke-linecap="round"/>
<path d="M167.674 13.2554L162.029 49.9127C162.029 49.9127 168.838 55.898 177.884 57.5097C186.929 59.1214 203.444 61.5638 203.444 61.5638L217.899 13.2412" fill="#CA8C29"/>
<path d="M167.674 13.2554L162.029 49.9127C162.029 49.9127 168.838 55.898 177.884 57.5097C186.929 59.1214 203.444 61.5638 203.444 61.5638L217.899 13.2412" stroke="#CA8C29" stroke-miterlimit="10" stroke-linecap="round"/>
<path d="M200.532 53.3704C200.532 53.9222 200.368 54.4617 200.062 54.9206C199.755 55.3795 199.319 55.7371 198.809 55.9483C198.299 56.1595 197.738 56.2147 197.197 56.1071C196.656 55.9994 196.159 55.7336 195.768 55.3434C195.378 54.9532 195.112 54.456 195.005 53.9147C194.897 53.3735 194.952 52.8124 195.164 52.3026C195.375 51.7927 195.732 51.3569 196.191 51.0503C196.65 50.7437 197.19 50.5801 197.741 50.5801C198.482 50.5801 199.191 50.8741 199.715 51.3973C200.238 51.9206 200.532 52.6303 200.532 53.3704Z" fill="white" stroke="#263238" stroke-width="2" stroke-linecap="round" stroke-linejoin="round"/>
<path d="M154.218 110.98L153.742 110.497" stroke="#263238" stroke-miterlimit="10" stroke-linecap="round"/>
<path d="M160.721 113.756C160.721 113.756 158.705 114.849 155.162 111.846" stroke="#263238" stroke-miterlimit="10" stroke-linecap="round"/>
<path d="M156.428 110.831C156.428 110.831 157.379 110.497 160.347 112.251" stroke="#263238" stroke-miterlimit="10" stroke-linecap="round"/>
<path d="M154.119 112.805C155.296 113.906 156.71 114.722 158.251 115.19" stroke="#263238" stroke-miterlimit="10" stroke-linecap="round"/>
<path d="M156.158 232.291C156.158 232.291 156.804 238.986 158.288 243.211C159.772 247.435 159.857 251.61 156.115 250.893C153.872 250.46 152.402 247.577 152.402 247.577C152.402 247.577 155.292 251.305 153.46 255.096C151.628 258.887 145.366 252.1 145.366 252.1C145.366 252.1 147.908 259.711 145.267 259.789C142.625 259.867 140.062 256.388 138.415 255.146C136.768 253.903 132.494 242.366 130.513 240.903C128.532 239.441 121.34 240.711 118.855 244.013C116.37 247.314 111.329 243.005 118.386 232.277C125.443 221.549 134.553 214.953 140.829 215.549C147.105 216.145 156.158 232.291 156.158 232.291Z" fill="white" stroke="#263238" stroke-miterlimit="10" stroke-linecap="round"/>
<path d="M149.677 245.007L140.219 230.147C140.219 230.147 135.384 224.531 126.076 228.244" stroke="#263238" stroke-miterlimit="10" stroke-linecap="round"/>
<path d="M144.38 247.222L133.992 236.281C133.992 236.281 128.959 231.972 120.936 235.756" stroke="#263238" stroke-miterlimit="10" stroke-linecap="round"/>
<path d="M123.889 244.19L131.301 252.895L110.094 270.034C110.094 270.034 98.5064 275.785 94.2038 278.753C89.9012 281.721 66.4073 284.71 66.4073 284.71L62.0195 257.588C62.0195 257.588 75.7509 254.485 77.5685 252.753C79.3861 251.021 98.1585 228.918 100.622 225.617C103.086 222.315 115.688 219.369 115.688 219.369C115.688 219.369 121.326 217.53 127.624 211.928C133.921 206.326 142.022 208.179 145.075 210.998C148.128 213.817 156.435 221.648 158.075 227.001C159.716 232.355 160.525 238.17 156.478 236.672C149.754 234.179 146.297 220.114 138.16 221.896C134.44 222.713 124.414 231.126 123.094 232.206C123.094 232.206 120.012 239.717 123.889 244.19Z" fill="white" stroke="#263238" stroke-miterlimit="10" stroke-linecap="round"/>
<path d="M180.248 238.56C180.235 238.376 180.156 238.203 180.026 238.073C179.895 237.942 179.722 237.863 179.538 237.85L177.479 237.772C177.379 237.768 177.278 237.784 177.184 237.82C177.089 237.855 177.003 237.908 176.929 237.977C176.855 238.045 176.795 238.128 176.753 238.219C176.711 238.311 176.688 238.41 176.684 238.51C176.68 238.611 176.697 238.712 176.732 238.806C176.767 238.9 176.82 238.987 176.889 239.061C176.957 239.135 177.04 239.194 177.131 239.236C177.223 239.278 177.322 239.302 177.423 239.306L179.482 239.384C179.68 239.39 179.873 239.32 180.021 239.187C180.169 239.055 180.26 238.871 180.277 238.674C180.271 238.635 180.262 238.597 180.248 238.56Z" fill="#263238" stroke="#263238" stroke-miterlimit="10" stroke-linecap="round"/>
<path d="M177.877 238.496C177.832 238.078 177.637 237.691 177.33 237.404C177.022 237.117 176.622 236.951 176.202 236.934L170.33 235.926L108.219 231.929C107.679 231.908 107.141 231.993 106.634 232.181C106.127 232.368 105.662 232.653 105.265 233.02C104.869 233.387 104.548 233.828 104.322 234.319C104.096 234.81 103.969 235.34 103.948 235.88C103.927 236.42 104.013 236.959 104.2 237.465C104.387 237.972 104.673 238.437 105.04 238.834C105.406 239.23 105.848 239.551 106.339 239.777C106.829 240.003 107.36 240.13 107.9 240.151L170.614 240.804L176.067 240.435C176.531 240.452 176.983 240.285 177.323 239.969C177.664 239.654 177.866 239.216 177.884 238.752C177.889 238.667 177.887 238.581 177.877 238.496Z" fill="#FFC100" stroke="#263238" stroke-miterlimit="10" stroke-linecap="round"/>
<path d="M108.219 231.929L126.14 233.086C126.864 234.051 127.261 235.222 127.275 236.428C127.289 237.634 126.919 238.814 126.218 239.796C126.069 239.984 125.91 240.164 125.742 240.335L107.921 240.151C107.381 240.13 106.851 240.003 106.36 239.777C105.869 239.551 105.428 239.23 105.061 238.834C104.694 238.437 104.409 237.972 104.222 237.465C104.034 236.959 103.949 236.42 103.97 235.88C103.991 235.34 104.118 234.81 104.344 234.319C104.57 233.828 104.89 233.387 105.287 233.02C105.683 232.653 106.148 232.368 106.655 232.181C107.162 231.993 107.701 231.908 108.241 231.929H108.219Z" fill="#263238" stroke="#263238" stroke-miterlimit="10" stroke-linecap="round"/>
<path d="M94.2031 278.753C101.814 276.211 116.639 266.165 120.608 265.015C124.577 263.864 134.29 262.033 140.751 257.588C147.212 253.143 152.061 249.395 155.796 244.439C159.53 239.483 155.923 235.429 148.639 238.219C141.354 241.01 131.237 246.115 131.237 246.115C131.237 246.115 126.111 247.421 121.574 242.451" fill="white"/>
<path d="M94.2031 278.753C101.814 276.211 116.639 266.165 120.608 265.015C124.577 263.864 134.29 262.033 140.751 257.588C147.212 253.143 152.061 249.395 155.796 244.439C159.53 239.483 155.923 235.429 148.639 238.219C141.354 241.01 131.237 246.115 131.237 246.115C131.237 246.115 126.111 247.421 121.574 242.451" stroke="#263238" stroke-miterlimit="10" stroke-linecap="round"/>
<path d="M153.218 239.27L150.449 240.64C150.449 240.64 150.705 240.832 151.706 243.161C152.313 244.554 152.557 246.078 152.416 247.591C152.416 247.591 157.705 244.126 157.329 241.478C157.256 240.819 156.967 240.202 156.506 239.724C156.074 239.314 155.525 239.049 154.935 238.967C154.345 238.886 153.745 238.992 153.218 239.27Z" fill="white" stroke="#263238" stroke-miterlimit="10" stroke-linecap="round"/>
<path d="M76.0982 251.745C76.0982 251.745 82.8858 260.925 84.0005 268.877C84.6962 274.201 85.0613 279.562 85.0939 284.931L64.369 289.901C64.369 289.901 63.4318 277.007 61.5858 270.021C60.286 265.32 58.673 260.711 56.7578 256.225L76.0982 251.745Z" fill="white" stroke="#263238" stroke-miterlimit="10" stroke-linecap="round"/>
<path d="M77.0428 267.762C75.1968 258.76 69.0553 252.093 69.0553 252.093L20.0156 259.903V315.283L78.0368 291.349C78.0368 291.349 78.8817 276.765 77.0428 267.762Z" fill="#CA8C29" stroke="#CA8C29" stroke-miterlimit="10" stroke-linecap="round"/>
<path d="M63.9014 291.81C63.9098 292.243 63.7885 292.669 63.5531 293.033C63.3176 293.397 62.9788 293.682 62.5801 293.851C62.1814 294.021 61.7411 294.068 61.3157 293.985C60.8904 293.903 60.4994 293.695 60.193 293.389C59.8866 293.082 59.6788 292.691 59.5964 292.266C59.5139 291.84 59.5605 291.4 59.7302 291.001C59.8999 290.603 60.1849 290.264 60.5487 290.028C60.9124 289.793 61.3382 289.672 61.7714 289.68C62.3329 289.691 62.8684 289.919 63.2655 290.316C63.6626 290.713 63.8905 291.249 63.9014 291.81Z" fill="white"/>
<path d="M69.9917 289.226C69.9903 289.655 69.8617 290.074 69.6221 290.431C69.3825 290.787 69.0427 291.064 68.6456 291.228C68.2485 291.391 67.8119 291.433 67.3909 291.348C66.9699 291.264 66.5835 291.056 66.2803 290.752C65.9772 290.448 65.771 290.061 65.6877 289.64C65.6045 289.218 65.6479 288.782 65.8125 288.385C65.9772 287.989 66.2557 287.65 66.6128 287.412C66.9699 287.173 67.3897 287.046 67.8191 287.046C68.105 287.046 68.3881 287.102 68.6521 287.212C68.9162 287.322 69.156 287.482 69.3578 287.685C69.5597 287.887 69.7196 288.128 69.8283 288.392C69.9371 288.656 69.9926 288.94 69.9917 289.226Z" fill="white"/>
<path d="M139.446 247.712L138.963 247.243" stroke="#263238" stroke-miterlimit="10" stroke-linecap="round"/>
<path d="M142.319 254.181C142.319 254.181 143.384 252.143 140.324 248.643" stroke="#263238" stroke-miterlimit="10" stroke-linecap="round"/>
<path d="M139.338 249.92C139.338 249.92 139.011 250.878 140.793 253.818" stroke="#263238" stroke-miterlimit="10" stroke-linecap="round"/>
<path d="M141.291 247.584C142.413 248.745 143.251 250.149 143.741 251.688" stroke="#263238" stroke-miterlimit="10" stroke-linecap="round"/>
</svg>
