<svg width="418" height="407" viewBox="0 0 418 407" fill="none" xmlns="http://www.w3.org/2000/svg">
<path d="M376.116 324.371H348.428V324.574H376.116V324.371Z" fill="#EBEBEB"/>
<path d="M276.9 326.586H269.635V326.789H276.9V326.586Z" fill="#EBEBEB"/>
<path d="M347.592 316.816H331.549V317.019H347.592V316.816Z" fill="#EBEBEB"/>
<path d="M79.9643 318.184H43.8574V318.387H79.9643V318.184Z" fill="#EBEBEB"/>
<path d="M92.704 318.184H87.4121V318.387H92.704V318.184Z" fill="#EBEBEB"/>
<path d="M188.225 321.617H109.908V321.82H188.225V321.617Z" fill="#EBEBEB"/>
<path d="M418 311.273H0V311.476H418V311.273Z" fill="#EBEBEB"/>
<path d="M213.347 228.596C212.384 228.599 211.442 228.324 210.64 227.806C209.838 227.288 209.212 226.55 208.841 225.685C208.47 224.82 208.371 223.867 208.556 222.947C208.741 222.028 209.202 221.182 209.881 220.517C210.56 219.853 211.426 219.399 212.37 219.214C213.314 219.029 214.292 219.121 215.183 219.478C216.073 219.835 216.834 220.441 217.371 221.219C217.907 221.997 218.194 222.913 218.196 223.85C218.196 225.105 217.686 226.308 216.777 227.197C215.869 228.087 214.635 228.59 213.347 228.596ZM213.347 221.563C212.88 221.56 212.422 221.692 212.032 221.943C211.642 222.193 211.337 222.551 211.156 222.971C210.976 223.39 210.927 223.853 211.017 224.299C211.106 224.746 211.331 225.156 211.66 225.479C211.99 225.801 212.411 226.021 212.869 226.11C213.328 226.199 213.803 226.153 214.234 225.978C214.666 225.804 215.035 225.508 215.293 225.13C215.552 224.751 215.69 224.305 215.688 223.85C215.684 223.246 215.436 222.668 214.998 222.241C214.56 221.813 213.967 221.569 213.347 221.563Z" fill="#263238"/>
<path d="M216.72 225.552L214.945 227.277L220.705 232.893L222.48 231.168L216.72 225.552Z" fill="#263238"/>
<path d="M372.542 88.638C374.759 75.3344 365.481 62.799 351.818 60.6395C338.155 58.48 325.281 67.5142 323.063 80.8178C320.845 94.1215 330.123 106.657 343.786 108.816C357.45 110.976 370.324 101.942 372.542 88.638Z" fill="#FFC71A"/>
<path d="M347.86 109.668C341.144 109.55 334.743 106.869 330.036 102.202C325.329 97.5355 322.691 91.2559 322.691 84.7149C322.691 78.1739 325.329 71.8943 330.036 67.2275C334.743 62.5608 341.144 59.8798 347.86 59.7617V60.8606C341.441 60.9761 335.325 63.54 330.827 68.001C326.33 72.462 323.81 78.4636 323.81 84.7149C323.81 90.9662 326.33 96.9678 330.827 101.429C335.325 105.89 341.441 108.454 347.86 108.569V109.668Z" fill="white"/>
<path d="M347.859 109.668V108.569C351.115 108.628 354.349 108.054 357.374 106.882C360.399 105.709 363.154 103.961 365.478 101.741C367.801 99.5197 369.647 96.8702 370.906 93.9469C372.166 91.0237 372.815 87.8853 372.815 84.7151C372.815 81.5448 372.166 78.4064 370.906 75.4832C369.647 72.5599 367.801 69.9104 365.478 67.6896C363.154 65.4687 360.399 63.721 357.374 62.5485C354.349 61.376 351.115 60.8022 347.859 60.8608V59.7619C351.264 59.702 354.646 60.3032 357.809 61.5303C360.973 62.7575 363.853 64.5859 366.282 66.909C368.712 69.232 370.641 72.0031 371.958 75.0603C373.276 78.1176 373.954 81.3997 373.954 84.7151C373.954 88.0304 373.276 91.3125 371.958 94.3698C370.641 97.427 368.712 100.198 366.282 102.521C363.853 104.844 360.973 106.673 357.809 107.9C354.646 109.127 351.264 109.728 347.859 109.668Z" fill="white"/>
<path d="M360.96 84.7193H359.831C359.831 76.6362 355.651 65.81 347.559 60.7795L348.169 59.8516C356.562 65.1181 360.96 76.3351 360.96 84.7193Z" fill="white"/>
<path d="M348.169 108.848L347.559 107.92C355.618 102.89 359.831 92.0635 359.831 83.9805H360.96C360.96 92.3647 356.562 103.598 348.169 108.848Z" fill="white"/>
<path d="M335.896 84.7193H334.768C334.768 76.3269 339.157 65.0937 347.558 59.8516L348.169 60.7714C340.11 65.81 335.896 76.6281 335.896 84.7193Z" fill="white"/>
<path d="M347.558 108.84C339.157 103.59 334.768 92.3569 334.768 83.9727H335.896C335.896 92.0638 340.076 102.882 348.169 107.912L347.558 108.84Z" fill="white"/>
<path d="M348.427 60.3086H347.299V109.116H348.427V60.3086Z" fill="white"/>
<path d="M369.086 71.168H326.65V72.2669H369.086V71.168Z" fill="white"/>
<path d="M101 105C133.13 118.469 129 145.5 161 163" stroke="white" stroke-dasharray="2 2"/>
<path d="M372.922 84.582H322.812V85.6809H372.922V84.582Z" fill="white"/>
<path d="M368.518 97.9883H327.211V99.0872H368.518V97.9883Z" fill="white"/>
<path d="M65.3223 54.1289L66.4268 59.4727L66.459 59.6299L66.6152 59.666C69.8739 60.4176 72.8297 62.0925 75.1094 64.4785L75.2197 64.5938L75.3701 64.543L80.6875 62.7432L83.2275 67.0273L79.0156 70.6279L78.8896 70.7354L78.9395 70.8936C79.4284 72.4514 79.672 74.0724 79.6631 75.7012V75.7031C79.6706 77.3321 79.4272 78.9533 78.9395 80.5117L78.8896 80.6699L79.0166 80.7773L83.2266 84.3281L80.6875 88.6123L75.3682 86.8604L75.2188 86.8115L75.1094 86.9258C72.8297 89.3118 69.8739 90.9867 66.6152 91.7383L66.459 91.7744L66.4268 91.9316L65.3223 97.2842H60.2373L59.1416 91.9316L59.1094 91.7744L58.9521 91.7383C55.691 90.9867 52.732 89.3121 50.4492 86.9258L50.3398 86.8115L50.1904 86.8613L44.8711 88.6279L42.3389 84.3438L46.5439 80.752L46.6689 80.6445L46.6201 80.4873C45.6544 77.3748 45.6544 74.0539 46.6201 70.9414L46.6689 70.7842L46.5439 70.6768L42.3389 67.0771L44.8721 62.791L50.1904 64.5439L50.3408 64.5928L50.4492 64.4795C52.7321 62.0931 55.6909 60.4176 58.9521 59.666L59.1094 59.6299L59.1416 59.4727L60.2373 54.1289H65.3223ZM66.2773 67.7949C64.6036 67.1203 62.7624 66.9445 60.9863 67.2891C59.2102 67.6337 57.5782 68.4837 56.2969 69.7324C55.0154 70.9813 54.1421 72.5731 53.7891 74.3066C53.4361 76.0402 53.6189 77.8369 54.3145 79.4688C55.01 81.1005 56.1868 82.4936 57.6943 83.4727C59.2019 84.4517 60.9733 84.9733 62.7842 84.9717C63.9857 84.9716 65.1758 84.741 66.2861 84.293C67.3967 83.8448 68.4065 83.1872 69.2568 82.3584C70.1072 81.5296 70.7822 80.5455 71.2422 79.4619C71.7022 78.3784 71.9386 77.2168 71.9375 76.0439L71.9307 75.7129C71.8678 74.0615 71.3355 72.4576 70.3906 71.0811C69.3828 69.6128 67.9511 68.4695 66.2773 67.7949Z" fill="#FFC100" stroke="white" stroke-width="0.5"/>
<path d="M92.3984 82.4219L93.1943 86.4453L93.2256 86.6045L93.3838 86.6406C95.852 87.2009 98.0929 88.4625 99.8213 90.2646L99.9307 90.3789L100.081 90.3291L104.068 89.0078L105.95 92.1787L102.766 94.8916L102.641 94.998L102.689 95.1562C103.052 96.3283 103.237 97.5456 103.238 98.7695L103.229 99.2285C103.188 100.3 103.007 101.363 102.689 102.392L102.641 102.549L102.767 102.655L105.949 105.359L104.068 108.538L100.081 107.218L99.9307 107.168L99.8213 107.281C98.0928 109.084 95.8522 110.346 93.3838 110.906L93.2256 110.942L93.1943 111.102L92.3984 115.125H88.6289L87.833 111.102L87.8018 110.942L87.6426 110.906C85.1718 110.346 82.9289 109.084 81.1973 107.281L81.0879 107.168L80.9385 107.218L76.9482 108.538L75.0605 105.359L78.2441 102.655L78.3701 102.549L78.3213 102.391C77.5893 100.032 77.5893 97.5152 78.3213 95.1562L78.3701 94.999L78.2441 94.8916L75.0605 92.1787L76.9482 89.0078L80.9385 90.3291L81.0879 90.3789L81.1973 90.2656C82.9289 88.463 85.1718 87.2009 87.6426 86.6406L87.8018 86.6045L87.833 86.4453L88.6289 82.4219H92.3984ZM93.125 92.6846C91.8396 92.1653 90.4251 92.0292 89.0605 92.293C87.6957 92.5569 86.4403 93.2096 85.4551 94.1689C84.4699 95.1283 83.7982 96.352 83.5264 97.6846C83.2546 99.0172 83.3951 100.399 83.9297 101.653C84.4643 102.908 85.3689 103.978 86.5273 104.73C87.6134 105.436 88.8777 105.832 90.1777 105.877L90.4385 105.882C92.3008 105.882 94.0884 105.161 95.4072 103.877C96.7261 102.593 97.4686 100.849 97.4688 99.0303C97.4705 97.6713 97.0577 96.3424 96.2842 95.2129C95.5107 94.0836 94.4106 93.204 93.125 92.6846Z" fill="#FFC100" stroke="white" stroke-width="0.5"/>
<path d="M170.254 77.8906L170.312 78.0068L170.441 78.0254L174.895 78.6533L171.676 81.707L171.578 81.7998L171.602 81.9316L172.366 86.2471L168.375 84.2061L168.261 84.1475L168.146 84.2061L164.164 86.2539L164.921 81.9395L164.944 81.8076L164.847 81.7148L161.627 78.6602L166.072 78.0332L166.202 78.0156L166.261 77.8984L168.253 73.9512L170.254 77.8906Z" fill="#FFC71A" stroke="white" stroke-width="0.5"/>
<path d="M190.459 77.8906L190.519 78.0068L190.647 78.0254L195.093 78.6523L191.881 81.707L191.784 81.7998L191.808 81.9316L192.572 86.2471L188.581 84.2061L188.467 84.1475L188.353 84.2061L184.36 86.2549L185.118 81.9395L185.142 81.8076L185.044 81.7148L181.824 78.6611L186.278 78.0332L186.407 78.0156L186.467 77.8984L188.458 73.9512L190.459 77.8906Z" fill="#FFC71A" stroke="white" stroke-width="0.5"/>
<path d="M210.658 77.8906L210.717 78.0068L210.846 78.0254L215.299 78.6533L212.088 81.707L211.991 81.7998L212.015 81.9316L212.779 86.2471L208.788 84.2061L208.674 84.1475L208.56 84.2061L204.567 86.2549L205.325 81.9395L205.349 81.8076L205.251 81.7148L202.031 78.6602L206.477 78.0332L206.606 78.0156L206.665 77.8984L208.657 73.9512L210.658 77.8906Z" fill="#FFC71A" stroke="white" stroke-width="0.5"/>
<path d="M230.865 77.8906L230.924 78.0068L231.053 78.0254L235.506 78.6533L232.287 81.707L232.189 81.7998L232.213 81.9316L232.978 86.2471L228.986 84.2061L228.872 84.1475L228.758 84.2061L224.775 86.2539L225.532 81.9395L225.556 81.8076L225.458 81.7148L222.238 78.6602L226.684 78.0332L226.813 78.0156L226.872 77.8984L228.864 73.9512L230.865 77.8906Z" fill="#FFC71A" stroke="white" stroke-width="0.5"/>
<path d="M251.07 77.8906L251.13 78.0068L251.259 78.0254L255.704 78.6523L252.492 81.707L252.396 81.7998L252.419 81.9316L253.184 86.2471L249.192 84.2061L249.078 84.1475L248.964 84.2061L244.972 86.2549L245.729 81.9395L245.753 81.8076L245.655 81.7148L242.436 78.6611L246.89 78.0332L247.019 78.0156L247.078 77.8984L249.069 73.9512L251.07 77.8906Z" fill="#FFC71A" stroke="white" stroke-width="0.5"/>
<path d="M274.5 124.5C255.5 128 240.725 148.416 234.5 163.5" stroke="white" stroke-dasharray="2 2"/>
<path d="M227 86C222 118.5 235.516 132.403 227 163" stroke="white" stroke-dasharray="2 2"/>
<path d="M204.971 344.9C294.492 344.9 367.063 340.774 367.063 335.685C367.063 330.596 294.492 326.471 204.971 326.471C115.45 326.471 42.8789 330.596 42.8789 335.685C42.8789 340.774 115.45 344.9 204.971 344.9Z" fill="#F5F5F5"/>
<path d="M150.194 327.578L150.027 329.45C150.009 329.681 150.035 329.912 150.102 330.134C150.133 330.237 150.178 330.336 150.236 330.427C150.297 330.518 150.364 330.605 150.437 330.688C150.51 330.771 150.595 330.845 150.687 330.907C150.971 331.103 151.31 331.209 151.657 331.209H220.544C220.708 331.209 220.872 331.184 221.028 331.135C221.138 331.103 221.244 331.062 221.346 331.013C221.71 330.84 222.004 330.553 222.182 330.199C222.288 330.002 222.354 329.786 222.374 329.564L222.533 327.765C222.559 327.551 222.534 327.333 222.458 327.13C222.426 327.037 222.384 326.947 222.333 326.862C222.203 326.649 222.018 326.472 221.798 326.349C221.703 326.299 221.606 326.255 221.505 326.219C221.351 326.17 221.19 326.145 221.028 326.145H203.874C203.658 326.148 203.442 326.129 203.23 326.088L202.988 326.023C202.896 325.998 202.806 325.965 202.72 325.926C202.636 325.9 202.557 325.861 202.486 325.812C202.366 325.751 202.251 325.68 202.143 325.6C202.013 325.5 201.893 325.388 201.784 325.266C201.725 325.193 201.667 325.128 201.608 325.047L201.491 324.884L201.449 324.819C201.399 324.744 201.357 324.665 201.324 324.583L201.224 324.363C201.227 324.347 201.227 324.33 201.224 324.314C201.229 324.295 201.229 324.276 201.224 324.257C201.199 324.194 201.182 324.128 201.173 324.062C201.165 323.97 201.165 323.877 201.173 323.785C201.173 323.703 201.173 323.614 201.173 323.524C201.173 323.435 201.173 323.353 201.173 323.264V323.158C201.169 323.071 201.169 322.984 201.173 322.898C201.173 322.8 201.215 322.719 201.232 322.629L207.97 297.46L209.266 292.625L210.277 288.84H171.153L169.054 292.625L166.379 297.46L151.164 324.924C151.114 325.022 151.064 325.12 151.005 325.218L150.855 325.551C150.813 325.665 150.763 325.771 150.721 325.893L150.646 326.121C150.44 326.589 150.289 327.078 150.194 327.578Z" fill="#263238"/>
<path opacity="0.2" d="M222.51 327.78L222.351 329.596C222.308 330.035 222.1 330.445 221.767 330.745C221.434 331.045 220.999 331.216 220.545 331.224H151.675C151.444 331.224 151.215 331.178 151.003 331.088C150.791 330.999 150.6 330.867 150.443 330.702C150.286 330.536 150.166 330.341 150.09 330.128C150.014 329.916 149.985 329.69 150.003 329.465L150.171 327.593C150.214 327.093 150.315 326.598 150.472 326.12C150.613 325.701 150.792 325.295 151.007 324.907L171.004 288.822H210.129L201.083 322.611C201.023 322.805 200.987 323.004 200.974 323.206C200.917 323.873 201.112 324.538 201.523 325.074C201.935 325.611 202.533 325.983 203.206 326.12C203.417 326.167 203.634 326.189 203.85 326.185H220.98C221.192 326.179 221.402 326.218 221.598 326.297C221.793 326.377 221.969 326.496 222.114 326.647C222.258 326.798 222.369 326.977 222.437 327.172C222.505 327.368 222.53 327.575 222.51 327.78Z" fill="white"/>
<path d="M148.806 324.892L168.795 288.799H171.011L151.013 324.892C150.55 325.722 150.265 326.636 150.177 327.578L150.01 329.45C149.985 329.675 150.01 329.904 150.083 330.119C150.156 330.334 150.276 330.532 150.435 330.698C150.594 330.864 150.787 330.994 151.002 331.081C151.218 331.168 151.449 331.208 151.682 331.2H149.467C149.234 331.208 149.002 331.168 148.787 331.081C148.572 330.994 148.378 330.864 148.22 330.698C148.061 330.532 147.941 330.334 147.868 330.119C147.794 329.904 147.769 329.675 147.795 329.45L147.962 327.578C148.049 326.635 148.337 325.72 148.806 324.892Z" fill="#263238"/>
<path opacity="0.3" d="M171.028 288.799H210.144L207.837 297.427H166.246L171.028 288.799Z" fill="black"/>
<path d="M104.65 169.214V286.649C104.649 287.429 104.806 288.202 105.112 288.923C105.418 289.644 105.866 290.299 106.432 290.851C106.998 291.403 107.671 291.84 108.411 292.139C109.151 292.438 109.944 292.592 110.745 292.592H277.669C278.47 292.592 279.263 292.438 280.003 292.139C280.743 291.84 281.415 291.403 281.981 290.851C282.547 290.299 282.996 289.644 283.302 288.923C283.608 288.202 283.764 287.429 283.763 286.649V169.214C283.764 168.433 283.607 167.66 283.301 166.938C282.995 166.217 282.545 165.562 281.978 165.01C281.411 164.458 280.738 164.02 279.997 163.722C279.256 163.423 278.462 163.27 277.661 163.271H110.762C109.419 163.273 108.114 163.705 107.05 164.501C106.9 164.608 106.758 164.725 106.623 164.851C106.212 165.214 105.857 165.633 105.57 166.096C105.368 166.401 105.2 166.726 105.068 167.065C104.797 167.751 104.655 168.479 104.65 169.214Z" fill="#263238"/>
<path d="M283.763 273.951V286.65C283.763 288.226 283.12 289.737 281.975 290.851C280.831 291.966 279.279 292.592 277.66 292.592H110.761C109.142 292.592 107.59 291.966 106.446 290.851C105.301 289.737 104.658 288.226 104.658 286.65V273.951H283.763Z" fill="#FFC100"/>
<path opacity="0.6" d="M283.763 273.951V286.65C283.763 288.226 283.12 289.737 281.975 290.851C280.831 291.966 279.279 292.592 277.66 292.592H110.761C109.142 292.592 107.59 291.966 106.446 290.851C105.301 289.737 104.658 288.226 104.658 286.65V273.951H283.763Z" fill="white"/>
<path d="M110.869 270.361H277.551C278.438 270.361 279.289 270.018 279.916 269.407C280.543 268.797 280.895 267.969 280.895 267.105V170.125C280.895 169.262 280.543 168.433 279.916 167.823C279.289 167.212 278.438 166.869 277.551 166.869H110.869C109.983 166.869 109.132 167.212 108.505 167.823C107.878 168.433 107.525 169.262 107.525 170.125V267.138C107.534 267.996 107.89 268.815 108.517 269.419C109.143 270.023 109.988 270.361 110.869 270.361Z" fill="#FFC100"/>
<path d="M107.066 163.271H110.761C109.142 163.271 107.59 163.898 106.445 165.012C105.301 166.126 104.658 167.638 104.658 169.214V286.649C104.658 288.225 105.301 289.737 106.445 290.851C107.59 291.966 109.142 292.592 110.761 292.592H107.066C105.447 292.592 103.895 291.966 102.75 290.851C101.606 289.737 100.963 288.225 100.963 286.649V169.214C100.963 167.638 101.606 166.126 102.75 165.012C103.895 163.898 105.447 163.271 107.066 163.271Z" fill="#263238"/>
<g opacity="0.2">
<path d="M107.066 163.271H110.761C109.142 163.271 107.59 163.898 106.445 165.012C105.301 166.126 104.658 167.638 104.658 169.214V286.649C104.658 288.225 105.301 289.737 106.445 290.851C107.59 291.966 109.142 292.592 110.761 292.592H107.066C105.447 292.592 103.895 291.966 102.75 290.851C101.606 289.737 100.963 288.225 100.963 286.649V169.214C100.963 167.638 101.606 166.126 102.75 165.012C103.895 163.898 105.447 163.271 107.066 163.271Z" fill="white"/>
</g>
<path opacity="0.5" d="M281.881 228.669C277.584 227.855 270.779 230.566 269.508 234.636C269.651 233.393 269.424 232.137 268.853 231.017C268.282 229.896 267.392 228.96 266.29 228.319C264.074 227.074 261.173 226.195 259.134 227.692C260.101 223.692 259.904 219.509 258.566 215.611C257.229 211.713 254.802 208.255 251.559 205.625C245.022 200.472 235.483 199.927 227.934 203.517C229.025 201.475 229.644 199.227 229.747 196.928C229.851 194.629 229.436 192.336 228.533 190.21C227.629 188.084 226.259 186.176 224.518 184.62C222.777 183.065 220.707 181.899 218.454 181.205C207.953 177.644 196.725 176.608 185.724 178.185C179.362 179.097 172.875 181.034 168.252 185.381C163.629 189.727 162.4 197.591 165.51 203.069C161.921 201.94 158.084 201.79 154.414 202.636C150.744 203.481 147.382 205.289 144.693 207.863C142.101 210.5 140.306 213.782 139.505 217.348C138.704 220.913 138.928 224.625 140.154 228.075C139.168 227.505 138.051 227.184 136.905 227.141C135.758 227.099 134.62 227.336 133.591 227.831C132.579 228.331 131.714 229.074 131.077 229.989C130.441 230.905 130.055 231.964 129.955 233.065C128.618 231.347 126.877 229.967 124.878 229.041C122.88 228.114 120.682 227.669 118.469 227.743C116.257 227.816 114.095 228.406 112.166 229.462C110.237 230.519 108.596 232.011 107.383 233.814V270.362H280.895L281.881 228.669Z" fill="white"/>
<path d="M243.217 212.625H153.832C149.284 212.625 145.598 216.215 145.598 220.643C145.598 225.071 149.284 228.661 153.832 228.661H243.217C247.765 228.661 251.452 225.071 251.452 220.643C251.452 216.215 247.765 212.625 243.217 212.625Z" fill="white"/>
<path d="M153.323 223.711C152.36 223.711 151.42 223.433 150.619 222.913C149.819 222.392 149.196 221.652 148.827 220.787C148.459 219.921 148.363 218.969 148.551 218.05C148.738 217.131 149.202 216.286 149.882 215.624C150.563 214.961 151.43 214.51 152.373 214.327C153.317 214.145 154.295 214.238 155.184 214.597C156.074 214.956 156.833 215.563 157.368 216.342C157.903 217.121 158.188 218.037 158.188 218.974C158.186 220.23 157.673 221.433 156.761 222.321C155.849 223.209 154.612 223.709 153.323 223.711ZM153.323 216.678C152.856 216.678 152.4 216.813 152.013 217.065C151.625 217.317 151.323 217.676 151.144 218.095C150.966 218.515 150.919 218.976 151.01 219.422C151.101 219.867 151.326 220.276 151.656 220.597C151.985 220.918 152.405 221.137 152.863 221.225C153.32 221.314 153.794 221.268 154.225 221.095C154.656 220.921 155.024 220.627 155.283 220.249C155.542 219.872 155.68 219.428 155.68 218.974C155.678 218.366 155.429 217.783 154.987 217.353C154.545 216.923 153.947 216.68 153.323 216.678Z" fill="#263238"/>
<path d="M156.689 220.657L154.914 222.383L160.674 227.999L162.448 226.273L156.689 220.657Z" fill="#263238"/>
<g opacity="0.1">
<path d="M224.439 166.861H230.843L244.144 270.361H237.732L224.439 166.861Z" fill="white"/>
<path d="M250.622 270.361L237.33 166.861H261.415L274.708 270.361H250.622Z" fill="white"/>
</g>
<path opacity="0.2" d="M162.074 327.798L161.924 329.515C161.899 329.73 161.921 329.948 161.99 330.154C162.058 330.36 162.171 330.55 162.32 330.71C162.47 330.87 162.653 330.998 162.857 331.083C163.061 331.169 163.282 331.212 163.504 331.208H220.544C220.998 331.2 221.433 331.03 221.766 330.73C222.099 330.429 222.307 330.02 222.35 329.58L222.509 327.781C222.535 327.575 222.516 327.365 222.451 327.166C222.387 326.967 222.279 326.784 222.136 326.63C221.992 326.475 221.816 326.353 221.619 326.27C221.422 326.188 221.21 326.148 220.996 326.153H203.866C203.652 326.154 203.439 326.129 203.231 326.08H163.939C163.466 326.096 163.016 326.279 162.673 326.596C162.33 326.912 162.117 327.339 162.074 327.798Z" fill="white"/>
<path opacity="0.2" d="M150.479 326.104H203.23C202.556 325.97 201.956 325.599 201.545 325.061C201.135 324.523 200.943 323.857 201.006 323.189H152.151L150.479 326.104Z" fill="black"/>
<path d="M177.457 203.002L178.611 200.503C180.039 201.465 181.731 201.987 183.468 202.001C185.483 202.001 186.302 201.341 186.302 200.462C186.302 197.784 177.75 199.648 177.75 194.308C177.75 191.866 179.764 189.848 183.944 189.848C185.734 189.812 187.5 190.251 189.052 191.118L187.999 193.633C186.762 192.92 185.356 192.533 183.919 192.51C181.905 192.51 181.127 193.242 181.127 194.138C181.127 196.775 189.679 194.952 189.679 200.21C189.679 202.603 187.64 204.654 183.434 204.654C181.316 204.706 179.232 204.13 177.457 203.002Z" fill="#263238"/>
<path d="M203.406 201.758V204.412H192.02V190.094H203.147V192.756H195.414V195.865H202.244V198.445H195.414V201.758H203.406Z" fill="#263238"/>
<path d="M205.154 197.257C205.154 193 208.557 189.85 213.197 189.85C217.836 189.85 221.247 192.984 221.247 197.257C221.247 201.531 217.82 204.664 213.197 204.664C208.574 204.664 205.154 201.514 205.154 197.257ZM217.803 197.257C217.777 196.377 217.485 195.523 216.964 194.803C216.443 194.083 215.715 193.529 214.873 193.209C214.03 192.889 213.109 192.817 212.225 193.003C211.341 193.19 210.532 193.625 209.901 194.256C209.269 194.886 208.842 195.684 208.673 196.549C208.504 197.414 208.601 198.309 208.95 199.121C209.3 199.933 209.888 200.627 210.64 201.117C211.392 201.606 212.275 201.869 213.18 201.872C213.802 201.891 214.422 201.784 215 201.557C215.577 201.331 216.1 200.989 216.535 200.555C216.969 200.121 217.307 199.604 217.525 199.036C217.743 198.468 217.838 197.862 217.803 197.257Z" fill="#263238"/>
<path opacity="0.8" d="M194.135 239.186H158.855C157.078 239.186 155.637 240.589 155.637 242.319V249.58C155.637 251.311 157.078 252.714 158.855 252.714H194.135C195.912 252.714 197.353 251.311 197.353 249.58V242.319C197.353 240.589 195.912 239.186 194.135 239.186Z" fill="white"/>
<path opacity="0.8" d="M245.299 239.186H210.019C208.242 239.186 206.801 240.589 206.801 242.319V249.58C206.801 251.311 208.242 252.714 210.019 252.714H245.299C247.076 252.714 248.517 251.311 248.517 249.58V242.319C248.517 240.589 247.076 239.186 245.299 239.186Z" fill="white"/>
<path d="M175.493 171.477L196.218 135.661C196.291 135.535 196.396 135.431 196.524 135.359C196.652 135.286 196.797 135.248 196.945 135.248C197.093 135.248 197.238 135.286 197.366 135.359C197.494 135.431 197.599 135.535 197.672 135.661L218.397 171.477C218.466 171.6 218.502 171.739 218.499 171.88C218.497 172.021 218.457 172.159 218.384 172.28C218.311 172.401 218.206 172.502 218.081 172.573C217.956 172.643 217.814 172.68 217.669 172.681H176.229C176.084 172.682 175.941 172.645 175.814 172.576C175.688 172.506 175.582 172.405 175.508 172.283C175.434 172.162 175.393 172.023 175.391 171.882C175.388 171.741 175.423 171.601 175.493 171.477Z" fill="#FFC100"/>
<path opacity="0.3" d="M175.493 171.477L196.218 135.661C196.291 135.535 196.396 135.431 196.524 135.359C196.652 135.286 196.797 135.248 196.945 135.248C197.093 135.248 197.238 135.286 197.366 135.359C197.494 135.431 197.599 135.535 197.672 135.661L218.397 171.477C218.466 171.6 218.502 171.739 218.499 171.88C218.497 172.021 218.457 172.159 218.384 172.28C218.311 172.401 218.206 172.502 218.081 172.573C217.956 172.643 217.814 172.68 217.669 172.681H176.229C176.084 172.682 175.941 172.645 175.814 172.576C175.688 172.506 175.582 172.405 175.508 172.283C175.434 172.162 175.393 172.023 175.391 171.882C175.388 171.741 175.423 171.601 175.493 171.477Z" fill="black"/>
<path d="M187.096 178.047L186.085 174.025H182.456L181.453 178.047C183.26 178.775 185.29 178.775 187.096 178.047Z" fill="#263238"/>
<path opacity="0.2" d="M182.457 174.025L182.223 174.961C183.56 175.344 184.982 175.344 186.319 174.961L186.085 174.025H182.457Z" fill="white"/>
<path opacity="0.4" d="M181.972 175.971C181.905 176.231 181.838 176.484 181.779 176.728C183.412 177.228 185.163 177.228 186.795 176.728L186.611 175.971C185.08 176.272 183.503 176.272 181.972 175.971Z" fill="white"/>
<path d="M188.099 173.74C185.647 174.726 182.894 174.726 180.441 173.74V143.866C180.439 142.194 180.776 140.538 181.433 138.993C182.09 137.448 183.054 136.044 184.27 134.863C185.486 136.044 186.45 137.448 187.108 138.993C187.765 140.538 188.102 142.194 188.099 143.866V173.74Z" fill="#FFC100"/>
<path d="M180.441 143.866V172.022C182.921 172.865 185.62 172.865 188.099 172.022V143.866C188.102 142.194 187.765 140.538 187.108 138.993C186.45 137.448 185.486 136.044 184.27 134.863C183.054 136.044 182.09 137.448 181.433 138.993C180.776 140.538 180.439 142.194 180.441 143.866Z" fill="#FFC100"/>
<path opacity="0.4" d="M180.441 143.866V172.022C182.921 172.865 185.62 172.865 188.099 172.022V143.866C188.102 142.194 187.765 140.538 187.108 138.993C186.45 137.448 185.486 136.044 184.27 134.863C183.054 136.044 182.09 137.448 181.433 138.993C180.776 140.538 180.439 142.194 180.441 143.866Z" fill="white"/>
<path d="M180.441 143.866V165.03C182.944 165.726 185.597 165.726 188.099 165.03V143.866C188.102 142.194 187.765 140.538 187.108 138.993C186.45 137.448 185.486 136.044 184.27 134.863C183.054 136.044 182.09 137.448 181.433 138.993C180.776 140.538 180.439 142.194 180.441 143.866Z" fill="#FFC100"/>
<path opacity="0.6" d="M180.441 143.866V165.03C182.944 165.726 185.597 165.726 188.099 165.03V143.866C188.102 142.194 187.765 140.538 187.108 138.993C186.45 137.448 185.486 136.044 184.27 134.863C183.054 136.044 182.09 137.448 181.433 138.993C180.776 140.538 180.439 142.194 180.441 143.866Z" fill="white"/>
<path d="M180.441 143.866V154.937C182.943 155.637 185.597 155.637 188.099 154.937V143.866C188.102 142.194 187.765 140.538 187.108 138.993C186.45 137.448 185.486 136.044 184.27 134.863C183.054 136.044 182.09 137.448 181.433 138.993C180.776 140.538 180.439 142.194 180.441 143.866Z" fill="#FFC100"/>
<path opacity="0.8" d="M180.441 143.866V154.937C182.943 155.637 185.597 155.637 188.099 154.937V143.866C188.102 142.194 187.765 140.538 187.108 138.993C186.45 137.448 185.486 136.044 184.27 134.863C183.054 136.044 182.09 137.448 181.433 138.993C180.776 140.538 180.439 142.194 180.441 143.866Z" fill="white"/>
<path d="M180.441 143.866V145.16C182.944 145.857 185.597 145.857 188.099 145.16V143.866C188.102 142.194 187.765 140.538 187.108 138.993C186.45 137.448 185.486 136.044 184.27 134.863C183.054 136.044 182.09 137.448 181.433 138.993C180.776 140.538 180.439 142.194 180.441 143.866Z" fill="#FFC100"/>
<path opacity="0.4" d="M180.441 143.866V145.16C182.944 145.857 185.597 145.857 188.099 145.16V143.866C188.102 142.194 187.765 140.538 187.108 138.993C186.45 137.448 185.486 136.044 184.27 134.863C183.054 136.044 182.09 137.448 181.433 138.993C180.776 140.538 180.439 142.194 180.441 143.866Z" fill="white"/>
<path d="M211.733 178.047L210.73 174.025H207.101L206.09 178.047C207.896 178.775 209.926 178.775 211.733 178.047Z" fill="#263238"/>
<path opacity="0.2" d="M207.101 174.025L206.867 174.961C208.204 175.344 209.626 175.344 210.964 174.961L210.73 174.025H207.101Z" fill="white"/>
<path opacity="0.4" d="M206.608 175.971C206.549 176.231 206.482 176.484 206.424 176.728C208.056 177.228 209.807 177.228 211.44 176.728L211.248 175.971C209.716 176.272 208.139 176.272 206.608 175.971Z" fill="white"/>
<path d="M212.744 173.74C210.292 174.726 207.538 174.726 205.086 173.74V143.866C205.083 142.194 205.42 140.538 206.078 138.993C206.735 137.448 207.699 136.044 208.915 134.863C210.131 136.044 211.095 137.448 211.752 138.993C212.409 140.538 212.746 142.194 212.744 143.866V173.74Z" fill="#FFC100"/>
<path d="M205.086 143.866V172.022C207.565 172.865 210.264 172.865 212.744 172.022V143.866C212.746 142.194 212.409 140.538 211.752 138.993C211.095 137.448 210.131 136.044 208.915 134.863C207.699 136.044 206.735 137.448 206.078 138.993C205.42 140.538 205.083 142.194 205.086 143.866Z" fill="#FFC100"/>
<path opacity="0.4" d="M205.086 143.866V172.022C207.565 172.865 210.264 172.865 212.744 172.022V143.866C212.746 142.194 212.409 140.538 211.752 138.993C211.095 137.448 210.131 136.044 208.915 134.863C207.699 136.044 206.735 137.448 206.078 138.993C205.42 140.538 205.083 142.194 205.086 143.866Z" fill="white"/>
<path d="M205.086 143.866V165.03C207.588 165.726 210.241 165.726 212.744 165.03V143.866C212.746 142.194 212.409 140.538 211.752 138.993C211.095 137.448 210.131 136.044 208.915 134.863C207.699 136.044 206.735 137.448 206.078 138.993C205.42 140.538 205.083 142.194 205.086 143.866Z" fill="#FFC100"/>
<path opacity="0.6" d="M205.086 143.866V165.03C207.588 165.726 210.241 165.726 212.744 165.03V143.866C212.746 142.194 212.409 140.538 211.752 138.993C211.095 137.448 210.131 136.044 208.915 134.863C207.699 136.044 206.735 137.448 206.078 138.993C205.42 140.538 205.083 142.194 205.086 143.866Z" fill="white"/>
<path d="M205.086 143.866V154.937C207.588 155.637 210.242 155.637 212.744 154.937V143.866C212.746 142.194 212.409 140.538 211.752 138.993C211.095 137.448 210.131 136.044 208.915 134.863C207.699 136.044 206.735 137.448 206.078 138.993C205.42 140.538 205.083 142.194 205.086 143.866Z" fill="#FFC100"/>
<path opacity="0.8" d="M205.086 143.866V154.937C207.588 155.637 210.242 155.637 212.744 154.937V143.866C212.746 142.194 212.409 140.538 211.752 138.993C211.095 137.448 210.131 136.044 208.915 134.863C207.699 136.044 206.735 137.448 206.078 138.993C205.42 140.538 205.083 142.194 205.086 143.866Z" fill="white"/>
<path d="M205.086 143.866V145.16C207.588 145.857 210.241 145.857 212.744 145.16V143.866C212.746 142.194 212.409 140.538 211.752 138.993C211.095 137.448 210.131 136.044 208.915 134.863C207.699 136.044 206.735 137.448 206.078 138.993C205.42 140.538 205.083 142.194 205.086 143.866Z" fill="#FFC100"/>
<path opacity="0.4" d="M205.086 143.866V145.16C207.588 145.857 210.241 145.857 212.744 145.16V143.866C212.746 142.194 212.409 140.538 211.752 138.993C211.095 137.448 210.131 136.044 208.915 134.863C207.699 136.044 206.735 137.448 206.078 138.993C205.42 140.538 205.083 142.194 205.086 143.866Z" fill="white"/>
<path d="M201.148 180.35L199.476 173.838H193.624L191.994 180.35C193.443 180.942 194.999 181.247 196.571 181.247C198.143 181.247 199.699 180.942 201.148 180.35Z" fill="#263238"/>
<path opacity="0.2" d="M193.668 173.862C193.668 173.862 193.425 174.838 193.283 175.376C195.445 175.99 197.742 175.99 199.904 175.376L199.52 173.854L193.668 173.862Z" fill="white"/>
<path opacity="0.4" d="M192.873 177.012L192.572 178.233C195.192 179.023 197.995 179.023 200.615 178.233L200.314 177.012C197.857 177.483 195.33 177.483 192.873 177.012Z" fill="white"/>
<path d="M202.779 173.381C200.819 174.178 198.716 174.588 196.593 174.588C194.469 174.588 192.366 174.178 190.406 173.381V125.176C190.404 122.477 190.949 119.804 192.01 117.31C193.072 114.817 194.629 112.552 196.593 110.646C198.556 112.552 200.113 114.817 201.175 117.31C202.237 119.804 202.782 122.477 202.779 125.176V173.381Z" fill="#FFC100"/>
<path d="M190.406 125.176V170.638C194.414 171.99 198.772 171.99 202.779 170.638V125.176C202.782 122.477 202.237 119.804 201.175 117.31C200.113 114.817 198.556 112.552 196.593 110.646C194.629 112.552 193.072 114.817 192.01 117.31C190.949 119.804 190.404 122.477 190.406 125.176Z" fill="#FFC100"/>
<path opacity="0.4" d="M190.406 125.176V170.638C194.414 171.99 198.772 171.99 202.779 170.638V125.176C202.782 122.477 202.237 119.804 201.175 117.31C200.113 114.817 198.556 112.552 196.593 110.646C194.629 112.552 193.072 114.817 192.01 117.31C190.949 119.804 190.404 122.477 190.406 125.176Z" fill="white"/>
<path d="M190.406 125.176V159.316C194.45 160.438 198.735 160.438 202.779 159.316V125.176C202.782 122.477 202.237 119.804 201.175 117.31C200.113 114.817 198.556 112.552 196.593 110.646C194.629 112.552 193.072 114.817 192.01 117.31C190.949 119.804 190.404 122.477 190.406 125.176Z" fill="#FFC100"/>
<path opacity="0.6" d="M190.406 125.176V159.316C194.45 160.438 198.735 160.438 202.779 159.316V125.176C202.782 122.477 202.237 119.804 201.175 117.31C200.113 114.817 198.556 112.552 196.593 110.646C194.629 112.552 193.072 114.817 192.01 117.31C190.949 119.804 190.404 122.477 190.406 125.176Z" fill="white"/>
<path d="M190.406 125.176V143.084C194.45 144.206 198.735 144.206 202.779 143.084V125.176C202.782 122.477 202.237 119.804 201.175 117.31C200.113 114.817 198.556 112.552 196.593 110.646C194.629 112.552 193.072 114.817 192.01 117.31C190.949 119.804 190.404 122.477 190.406 125.176Z" fill="#FFC100"/>
<path opacity="0.8" d="M190.406 125.176V143.084C194.45 144.206 198.735 144.206 202.779 143.084V125.176C202.782 122.477 202.237 119.804 201.175 117.31C200.113 114.817 198.556 112.552 196.593 110.646C194.629 112.552 193.072 114.817 192.01 117.31C190.949 119.804 190.404 122.477 190.406 125.176Z" fill="white"/>
<path d="M190.406 125.176V127.268C194.45 128.39 198.735 128.39 202.779 127.268V125.176C202.782 122.477 202.237 119.804 201.175 117.31C200.113 114.817 198.556 112.552 196.593 110.646C194.629 112.552 193.072 114.817 192.01 117.31C190.949 119.804 190.404 122.477 190.406 125.176Z" fill="#FFC100"/>
<path opacity="0.1" d="M190.406 125.176V127.268C194.45 128.39 198.735 128.39 202.779 127.268V125.176C202.782 122.477 202.237 119.804 201.175 117.31C200.113 114.817 198.556 112.552 196.593 110.646C194.629 112.552 193.072 114.817 192.01 117.31C190.949 119.804 190.404 122.477 190.406 125.176Z" fill="white"/>
<path d="M200.197 134.822C200.198 135.517 199.988 136.196 199.593 136.774C199.198 137.352 198.636 137.803 197.978 138.07C197.32 138.336 196.595 138.407 195.896 138.273C195.196 138.138 194.553 137.805 194.049 137.314C193.544 136.824 193.2 136.199 193.06 135.518C192.92 134.837 192.991 134.131 193.264 133.49C193.536 132.848 193.998 132.3 194.591 131.914C195.183 131.528 195.88 131.322 196.593 131.322C197.548 131.322 198.463 131.691 199.138 132.347C199.814 133.003 200.194 133.893 200.197 134.822Z" fill="#FFC100"/>
<path d="M196.592 138.33C195.682 138.332 194.804 137.997 194.138 137.392C193.472 136.788 193.067 135.959 193.006 135.074C193.006 135.164 193.006 135.253 193.006 135.335C193.006 136.265 193.385 137.158 194.061 137.815C194.737 138.473 195.653 138.843 196.609 138.843C197.565 138.843 198.481 138.473 199.157 137.815C199.833 137.158 200.212 136.265 200.212 135.335C200.212 135.253 200.212 135.164 200.212 135.074C200.148 135.964 199.738 136.796 199.065 137.401C198.393 138.006 197.508 138.339 196.592 138.33Z" fill="#FFC100"/>
<path opacity="0.3" d="M196.592 138.33C195.682 138.332 194.804 137.997 194.138 137.392C193.472 136.788 193.067 135.959 193.006 135.074C193.006 135.164 193.006 135.253 193.006 135.335C193.006 136.265 193.385 137.158 194.061 137.815C194.737 138.473 195.653 138.843 196.609 138.843C197.565 138.843 198.481 138.473 199.157 137.815C199.833 137.158 200.212 136.265 200.212 135.335C200.212 135.253 200.212 135.164 200.212 135.074C200.148 135.964 199.738 136.796 199.065 137.401C198.393 138.006 197.508 138.339 196.592 138.33Z" fill="black"/>
<path d="M196.593 137.305C198.001 137.305 199.143 136.194 199.143 134.823C199.143 133.451 198.001 132.34 196.593 132.34C195.185 132.34 194.043 133.451 194.043 134.823C194.043 136.194 195.185 137.305 196.593 137.305Z" fill="white"/>
<path d="M196.459 137.288L197.504 132.518C197.238 132.416 196.954 132.361 196.668 132.355L195.623 137.117C195.889 137.223 196.172 137.281 196.459 137.288Z" fill="#FFC100"/>
<path d="M197.412 137.167L198.314 133.007C198.198 132.904 198.072 132.811 197.938 132.73L196.943 137.273C197.102 137.25 197.259 137.214 197.412 137.167Z" fill="#FFC100"/>
<g opacity="0.7">
<path d="M196.459 137.288L197.504 132.518C197.238 132.416 196.954 132.361 196.668 132.355L195.623 137.117C195.889 137.223 196.172 137.281 196.459 137.288Z" fill="white"/>
<path d="M197.412 137.167L198.314 133.007C198.198 132.904 198.072 132.811 197.938 132.73L196.943 137.273C197.102 137.25 197.259 137.214 197.412 137.167Z" fill="white"/>
</g>
<path d="M288.896 228.948L287.935 229.152C287.505 229.236 287.112 229.45 286.812 229.762C286.513 230.074 286.32 230.47 286.263 230.894L286.179 231.553C286.136 231.882 286.175 232.217 286.295 232.527C286.414 232.838 286.61 233.116 286.865 233.336C288.445 234.679 292.173 237.17 296.688 235.566L300.291 232.921L299.697 228.183L292.173 227.125C291.718 227.141 291.281 227.301 290.928 227.581L288.896 228.948Z" fill="#FAB27B"/>
<path d="M300.316 232.92L310.323 232.432L308.777 227.133L299.723 228.183L300.316 232.92Z" fill="#FAB27B"/>
<path d="M306.275 227.174C305.865 227.921 305.724 228.781 305.874 229.616C306.056 230.968 306.614 232.245 307.488 233.311C305.801 233.336 304.143 233.734 302.639 234.475L302.555 234.516C297.339 231.048 300.348 226.938 300.348 226.938L300.691 226.986C302.541 227.236 304.412 227.298 306.275 227.174Z" fill="#FFC100"/>
<path d="M326.765 231.543C317.469 233.627 305.907 233.424 305.907 233.424C305.526 232.798 305.354 232.073 305.414 231.348C305.498 229.834 305.707 227.937 306.25 227.172C306.793 226.407 310.815 226 310.815 226C310.815 226 318.581 222.492 320.052 221.344C321.524 220.196 321.465 214.832 321.189 211.307C319.71 192.365 323.129 190.957 326.205 190.086C332.726 188.32 334.992 229.695 326.765 231.543Z" fill="#FFC100"/>
<path d="M263.071 235.604H289.054C289.89 235.604 290.283 234.937 289.89 234.114L283.403 219.845C283.2 219.429 282.889 219.073 282.5 218.811C282.111 218.55 281.659 218.393 281.187 218.355H255.196C254.36 218.355 253.967 219.023 254.36 219.845L260.881 234.114C261.081 234.527 261.388 234.882 261.772 235.144C262.157 235.405 262.604 235.564 263.071 235.604Z" fill="#FFC100"/>
<path opacity="0.2" d="M263.071 235.604H289.054C289.89 235.604 290.283 234.937 289.89 234.114L283.403 219.845C283.2 219.429 282.889 219.073 282.5 218.811C282.111 218.55 281.659 218.393 281.187 218.355H255.196C254.36 218.355 253.967 219.023 254.36 219.845L260.881 234.114C261.081 234.527 261.388 234.882 261.772 235.144C262.157 235.405 262.604 235.564 263.071 235.604Z" fill="black"/>
<path d="M254.068 218.355H255.196C254.36 218.355 253.967 219.023 254.36 219.845L260.881 234.114C261.082 234.53 261.392 234.886 261.779 235.147C262.167 235.409 262.618 235.566 263.088 235.604H261.968C261.497 235.567 261.044 235.41 260.655 235.148C260.266 234.887 259.955 234.53 259.752 234.114L253.24 219.845C252.847 219.023 253.223 218.355 254.068 218.355Z" fill="#FFC100"/>
<path opacity="0.4" d="M254.068 218.355H255.196C254.36 218.355 253.967 219.023 254.36 219.845L260.881 234.114C261.082 234.53 261.392 234.886 261.779 235.147C262.167 235.409 262.618 235.566 263.088 235.604H261.968C261.497 235.567 261.044 235.41 260.655 235.148C260.266 234.887 259.955 234.53 259.752 234.114L253.24 219.845C252.847 219.023 253.223 218.355 254.068 218.355Z" fill="black"/>
<path d="M263.556 233.969H287.073L280.694 219.992H257.178L263.556 233.969Z" fill="#263238"/>
<path opacity="0.8" d="M263.556 233.969H287.073L280.694 219.992H257.178L263.556 233.969Z" fill="white"/>
<path d="M340.937 234.491C340.937 234.491 341.58 242.842 341.672 245.773C342.299 265.349 325.889 266.839 313.817 264.682L270.094 252.781C268.363 258.438 248.149 289.59 248.149 289.59L237.523 283.648C237.523 283.648 248.542 257.934 255.656 240.034C259.711 229.818 292.758 236.884 304.93 238.992C308.625 239.961 307.915 234.336 307.915 234.336L340.937 234.491Z" fill="#263238"/>
<path d="M245.439 289.004L241.376 295.59L233.811 291.927L237.748 284.43L245.439 289.004Z" fill="#FAB27B"/>
<path d="M229.782 290.599C228.787 290.152 227.834 289.517 227.7 288.971C227.676 288.813 227.701 288.651 227.771 288.507C227.841 288.362 227.953 288.24 228.093 288.157C228.214 288.077 228.351 288.021 228.494 287.993C228.638 287.965 228.786 287.966 228.929 287.994C230.442 288.23 232.516 291.039 232.599 291.161C232.626 291.195 232.64 291.236 232.64 291.279C232.64 291.322 232.626 291.363 232.599 291.397C232.573 291.429 232.538 291.454 232.498 291.468C232.458 291.482 232.415 291.486 232.374 291.478C231.485 291.26 230.618 290.966 229.782 290.599ZM229.222 288.507C229.101 288.45 228.971 288.411 228.837 288.393C228.753 288.371 228.666 288.368 228.58 288.383C228.495 288.399 228.414 288.433 228.344 288.483C228.093 288.654 228.085 288.784 228.11 288.874C228.244 289.549 230.267 290.461 231.847 290.949C231.142 289.972 230.25 289.134 229.222 288.483V288.507Z" fill="#FFC100"/>
<path d="M232.315 291.414C232.291 291.424 232.264 291.424 232.24 291.414C231.479 290.6 230.342 288.02 230.927 287.214C231.044 287.011 231.328 286.824 231.88 287.011C232.081 287.079 232.265 287.187 232.421 287.327C232.578 287.467 232.704 287.636 232.791 287.825C233.427 289.103 232.649 291.309 232.616 291.406C232.603 291.441 232.581 291.472 232.552 291.495C232.522 291.518 232.486 291.532 232.449 291.537C232.418 291.527 232.39 291.512 232.367 291.491C232.344 291.469 232.326 291.443 232.315 291.414ZM231.838 287.344L231.738 287.287C231.379 287.157 231.295 287.288 231.261 287.328C230.961 287.833 231.604 289.721 232.332 290.739C232.652 289.809 232.672 288.807 232.39 287.865C232.278 287.632 232.082 287.446 231.838 287.344Z" fill="#FFC100"/>
<path d="M233.678 290.72L242.439 294.62C242.595 294.689 242.722 294.806 242.802 294.953C242.883 295.101 242.911 295.269 242.882 295.434L241.21 303.085C241.176 303.247 241.11 303.402 241.014 303.539C240.919 303.676 240.797 303.793 240.654 303.884C240.512 303.975 240.353 304.037 240.186 304.068C240.018 304.099 239.847 304.096 239.68 304.062C239.591 304.046 239.503 304.019 239.421 303.981C236.286 302.523 233.569 301.099 229.615 299.357C224.975 297.289 225.895 298.356 220.419 295.995C217.075 294.571 218.22 290.664 219.692 291.111C226.446 293.179 227.993 291.591 231.504 290.468C232.236 290.284 233.011 290.374 233.678 290.72Z" fill="#263238"/>
<path opacity="0.2" d="M243.376 292.35L245.441 289.004L237.75 284.43L235.844 288.052L243.376 292.35Z" fill="black"/>
<path d="M249.837 288.97L236.662 280.969C236.063 281.294 235.581 281.792 235.282 282.393C234.982 282.994 234.881 283.671 234.99 284.331L247.664 292.226C247.664 292.226 249.361 292.121 249.837 288.97Z" fill="#FFC100"/>
<path d="M267.862 321.766L266.266 329.067L258.123 328.025L259.31 319.918L267.862 321.766Z" fill="#FAB27B"/>
<path d="M253.984 328.043C252.922 327.937 251.844 327.644 251.535 327.164C251.467 327.034 251.441 326.887 251.459 326.742C251.476 326.597 251.538 326.461 251.635 326.35C251.802 326.136 252.048 325.993 252.32 325.951C253.783 325.707 256.601 327.644 256.726 327.734C256.759 327.757 256.785 327.79 256.798 327.828C256.811 327.866 256.813 327.907 256.801 327.945C256.789 327.984 256.764 328.019 256.732 328.045C256.699 328.071 256.659 328.087 256.617 328.092C255.74 328.149 254.859 328.132 253.984 328.043ZM252.789 326.293C252.658 326.272 252.526 326.272 252.396 326.293C252.311 326.299 252.229 326.324 252.155 326.365C252.082 326.405 252.018 326.461 251.969 326.529C251.794 326.765 251.836 326.887 251.886 326.96C252.228 327.538 254.394 327.774 255.99 327.717C255.026 327.044 253.94 326.556 252.789 326.277V326.293Z" fill="#FFC100"/>
<path d="M256.592 328.041C256.565 328.05 256.536 328.05 256.509 328.041C255.53 327.496 253.658 325.502 253.934 324.582C253.975 324.354 254.176 324.102 254.77 324.102C254.972 324.099 255.173 324.136 255.36 324.212C255.547 324.287 255.716 324.4 255.856 324.541C256.86 325.518 256.86 327.797 256.86 327.887C256.86 327.922 256.85 327.957 256.831 327.988C256.812 328.018 256.784 328.042 256.751 328.058C256.726 328.07 256.697 328.075 256.669 328.072C256.641 328.069 256.614 328.058 256.592 328.041ZM254.837 324.476H254.728C254.36 324.476 254.318 324.615 254.302 324.663C254.193 325.225 255.397 326.763 256.392 327.472C256.386 326.52 256.08 325.594 255.514 324.818C255.334 324.637 255.094 324.525 254.837 324.501V324.476Z" fill="#FFC100"/>
<path d="M257.612 326.954L266.933 327.849C267.104 327.865 267.265 327.937 267.388 328.054C267.512 328.171 267.59 328.326 267.61 328.492L268.555 336.038C268.595 336.359 268.504 336.683 268.3 336.939C268.097 337.195 267.798 337.363 267.468 337.405C267.379 337.414 267.29 337.414 267.201 337.405C263.857 337.023 260.872 336.591 256.692 336.168C251.751 335.696 252.947 336.388 247.128 335.916C243.625 335.623 243.375 331.691 244.879 331.642C251.751 331.463 252.663 329.534 255.513 327.418C256.132 327.02 256.878 326.855 257.612 326.954Z" fill="#263238"/>
<path opacity="0.2" d="M258.682 324.183L267.192 324.826L267.861 321.766L259.309 319.918L258.682 324.183Z" fill="black"/>
<path d="M270.279 318.878L270.036 319.798L257.555 318.838L257.688 317.918L270.279 318.878Z" fill="#263238"/>
<path d="M270.787 322.685L267.71 322.416L259.049 321.659L256.257 321.415C255.86 320.896 255.636 320.27 255.613 319.623C255.591 318.976 255.772 318.337 256.132 317.793L257.687 317.915L270.277 318.876L271.18 318.949C272.225 321.871 270.787 322.685 270.787 322.685Z" fill="#FFC100"/>
<path d="M321.466 271.94C310.172 272.909 284.122 273.316 280.594 272.811L270.278 318.875L257.688 317.915C257.688 317.915 259.017 278.086 264.568 261.619C269.032 248.383 340.443 251.126 340.443 251.126L340.694 254.854C341.187 267.699 334.399 270.825 321.466 271.94Z" fill="#263238"/>
<path opacity="0.1" d="M321.466 271.94C310.172 272.909 284.122 273.316 280.594 272.811L270.278 318.875L257.688 317.915C257.688 317.915 259.017 278.086 264.568 261.619C269.032 248.383 340.443 251.126 340.443 251.126L340.694 254.854C341.187 267.699 334.399 270.825 321.466 271.94Z" fill="black"/>
<path d="M264.367 266.431C264.362 266.358 264.362 266.284 264.367 266.211V266.431Z" fill="#263238"/>
<path d="M265.211 260.48L265.086 261.384C265.11 261.081 265.152 260.779 265.211 260.48Z" fill="#263238"/>
<path d="M305.189 188.516L308.659 193.449L316.459 186.953L311.585 181.125L305.189 188.516Z" fill="#FAB27B"/>
<path opacity="0.2" d="M306.927 190.85C308.432 188.693 307.763 185.348 307.763 185.348L306.392 187.049L305.205 188.514L306.927 190.85Z" fill="black"/>
<path d="M291.847 177.647C292.015 178.127 292.416 178.461 292.742 178.315C293.068 178.168 293.21 177.688 293.035 177.224C292.859 176.76 292.474 176.41 292.14 176.564C291.806 176.719 291.689 177.167 291.847 177.647Z" fill="#263238"/>
<path d="M293.652 177.793L292.549 182.4C293.107 182.514 293.684 182.499 294.236 182.358C294.787 182.216 295.297 181.952 295.726 181.586L293.652 177.793Z" fill="#ED893E"/>
<path d="M291.354 174.287C291.394 174.267 291.439 174.257 291.484 174.257C291.529 174.257 291.573 174.267 291.613 174.287C291.929 174.416 292.272 174.471 292.614 174.445C292.956 174.42 293.286 174.315 293.578 174.141C293.606 174.119 293.638 174.103 293.673 174.094C293.707 174.085 293.744 174.084 293.779 174.089C293.814 174.094 293.848 174.107 293.878 174.125C293.908 174.144 293.934 174.169 293.954 174.198C293.994 174.256 294.01 174.328 293.997 174.398C293.985 174.467 293.945 174.53 293.887 174.572C293.521 174.81 293.1 174.954 292.662 174.993C292.224 175.031 291.783 174.962 291.379 174.792C291.345 174.779 291.314 174.76 291.287 174.736C291.261 174.711 291.239 174.682 291.225 174.649C291.21 174.617 291.202 174.581 291.201 174.546C291.201 174.51 291.207 174.475 291.221 174.442C291.249 174.379 291.295 174.325 291.354 174.287Z" fill="#263238"/>
<path d="M310.381 169.313C312.889 175.606 314.135 178.219 312.413 182.867C309.027 188.361 301.227 191.698 296.78 186.31C292.783 181.426 289.314 172.008 294.38 166.611C296.072 164.762 298.446 163.639 300.984 163.487C303.522 163.334 306.02 164.165 307.932 165.797C309.026 166.761 309.866 167.967 310.381 169.313Z" fill="#FAB27B"/>
<path d="M316.501 171.185C316.148 173.297 315.933 175.429 315.857 177.567C315.797 179.54 315.135 181.452 313.954 183.057C312.773 184.662 311.128 185.888 309.228 186.578C309.228 186.578 300.115 186.472 296.245 175.312C295.174 175.411 294.095 175.251 293.102 174.847C292.11 174.444 291.235 173.809 290.554 172.998C289.873 172.187 289.408 171.225 289.199 170.198C288.99 169.171 289.044 168.109 289.356 167.107C290.1 164.73 293.185 163.249 295.735 163.159C296.571 162.102 297.66 161.261 298.908 160.71C300.156 160.16 301.524 159.916 302.891 160.001C305.649 160.218 308.312 161.078 310.657 162.508C312.774 163.539 314.565 165.109 315.841 167.05C316.522 168.32 316.754 169.774 316.501 171.185Z" fill="#263238"/>
<path d="M298.141 176.64C297.852 177.269 297.695 177.947 297.677 178.636C297.66 179.325 297.784 180.011 298.041 180.653C298.743 182.354 300.616 182.069 301.694 180.653C302.672 179.358 303.466 176.933 302.146 175.679C300.825 174.425 298.868 175.093 298.141 176.64Z" fill="#FAB27B"/>
<path d="M316.525 183.281C314.017 183.387 310.313 185.039 305.364 188.361C305.105 188.579 304.908 188.858 304.791 189.172C304.674 189.485 304.641 189.822 304.695 190.151C304.754 190.803 305.422 191.413 306.058 191.21C306.384 192.024 306.601 192.919 306.894 193.7C308.441 192.933 310.045 192.28 311.692 191.747C314.187 190.778 316.742 189.963 319.342 189.305C318.648 188.271 317.72 187.262 317.444 186.049C317.737 185.922 317.975 185.7 318.117 185.421C318.259 185.141 318.296 184.822 318.222 184.519C318.079 184.183 317.846 183.89 317.548 183.673C317.249 183.455 316.896 183.32 316.525 183.281Z" fill="#FFC100"/>
<path d="M316.525 183.281C314.017 183.387 310.313 185.039 305.364 188.361C305.105 188.579 304.908 188.858 304.791 189.172C304.674 189.485 304.641 189.822 304.695 190.151C304.754 190.803 305.422 191.413 306.058 191.21C306.384 192.024 306.601 192.919 306.894 193.7C308.441 192.933 310.045 192.28 311.692 191.747C314.187 190.778 316.742 189.963 319.342 189.305C318.648 188.271 317.72 187.262 317.444 186.049C317.737 185.922 317.975 185.7 318.117 185.421C318.259 185.141 318.296 184.822 318.222 184.519C318.079 184.183 317.846 183.89 317.548 183.673C317.249 183.455 316.896 183.32 316.525 183.281Z" fill="#FFC100"/>
<path d="M309.186 245.633C303.88 233.269 299.366 220.598 295.668 207.692C291.789 193.594 302.865 193.349 316.233 189.849C326.834 187.073 331.365 189.556 334.391 194.79C337.417 200.024 342.3 244.322 342.3 244.322L309.186 245.633Z" fill="#FFC100"/>
<path d="M309.186 245.633C303.88 233.269 299.366 220.598 295.668 207.692C291.789 193.594 302.865 193.349 316.233 189.849C326.834 187.073 331.365 189.556 334.391 194.79C337.417 200.024 342.3 244.322 342.3 244.322L309.186 245.633Z" fill="#FFC100"/>
<path opacity="0.3" d="M309.186 245.633C303.88 233.269 299.366 220.598 295.668 207.692C291.789 193.594 302.865 193.349 316.233 189.849C326.834 187.073 331.365 189.556 334.391 194.79C337.417 200.024 342.3 244.322 342.3 244.322L309.186 245.633Z" fill="black"/>
<path d="M260.83 225.316H259.894C259.477 225.332 259.075 225.474 258.744 225.722C258.413 225.97 258.169 226.312 258.046 226.7L257.854 227.303C257.755 227.605 257.734 227.926 257.792 228.239C257.85 228.551 257.986 228.844 258.189 229.093C259.451 230.616 262.527 233.562 267.05 232.781L270.904 230.876L271.155 226.318L264.283 224.112C263.851 224.055 263.411 224.135 263.029 224.34L260.83 225.316Z" fill="#FAB27B"/>
<path d="M270.922 230.91L280.419 232.074L279.867 226.832L271.173 226.352L270.922 230.91Z" fill="#FAB27B"/>
<path d="M277.552 226.465C277.021 227.107 276.726 227.904 276.716 228.728C276.658 230.031 276.964 231.325 277.602 232.472C276.01 232.22 274.38 232.326 272.837 232.782H272.753C268.439 228.671 271.976 225.293 271.976 225.293L272.293 225.391C274.003 225.925 275.766 226.285 277.552 226.465Z" fill="#FFC100"/>
<path d="M296.043 233.897C286.939 234.352 276.096 232.269 276.096 232.269C275.843 231.618 275.802 230.908 275.979 230.234C276.322 228.817 276.815 227.067 277.509 226.44C278.203 225.814 282.007 226.082 282.007 226.082C282.007 226.082 289.916 224.031 291.496 223.193C293.076 222.354 293.937 217.34 294.271 213.954C296.119 195.883 299.58 195.101 302.631 194.8C309.026 194.182 304.102 233.498 296.043 233.897Z" fill="#FFC100"/>
<path d="M326.039 336.834L319.727 285.47C319.418 282.959 318.175 280.646 316.232 278.967C314.289 277.289 311.782 276.362 309.185 276.362H288.36C285.836 276.353 283.391 277.224 281.469 278.816C279.546 280.409 278.272 282.619 277.877 285.047L269.383 336.183L267.711 335.922L276.213 284.803C276.67 281.993 278.144 279.436 280.369 277.592C282.593 275.748 285.422 274.74 288.343 274.75H309.202C312.207 274.753 315.108 275.826 317.356 277.768C319.605 279.71 321.046 282.386 321.407 285.291L327.719 336.655L326.039 336.834Z" fill="#263238"/>
<path d="M355.248 336.834L348.937 285.47C348.628 282.96 347.384 280.646 345.442 278.967C343.499 277.289 340.992 276.362 338.395 276.362H317.536C315.012 276.351 312.566 277.221 310.643 278.815C308.72 280.408 307.447 282.619 307.053 285.047L298.551 336.183L296.879 335.922L305.381 284.803C305.836 281.993 307.31 279.434 309.535 277.59C311.76 275.746 314.59 274.739 317.511 274.75H338.37C341.375 274.753 344.276 275.826 346.524 277.768C348.773 279.71 350.214 282.386 350.575 285.291L356.887 336.655L355.248 336.834Z" fill="#263238"/>
<path d="M299.504 321.871H270.787V323.499H299.504V321.871Z" fill="#263238"/>
<path d="M350.282 284.559H320.596V286.187H350.282V284.559Z" fill="#263238"/>
<path d="M326.04 276.711H347.885C351.946 276.711 355.858 275.221 358.841 272.537C361.824 269.853 363.658 266.172 363.978 262.23L367.088 224.021C367.206 222.559 367.013 221.089 366.522 219.703C366.03 218.317 365.249 217.044 364.229 215.965C363.209 214.887 361.971 214.024 360.593 213.433C359.215 212.841 357.726 212.533 356.22 212.527H344.098C337.239 212.527 330.564 214.683 325.064 218.674C319.565 222.664 315.536 228.277 313.575 234.676L305.215 261.953C304.534 264.182 303.132 266.136 301.217 267.525C299.302 268.914 296.977 269.664 294.59 269.662H279.308C277.389 269.664 275.55 270.408 274.194 271.73C272.838 273.051 272.076 274.843 272.076 276.711H326.04Z" fill="#FFC100"/>
<path opacity="0.7" d="M326.04 276.711H347.885C351.946 276.711 355.858 275.221 358.841 272.537C361.824 269.853 363.658 266.172 363.978 262.23L367.088 224.021C367.206 222.559 367.013 221.089 366.522 219.703C366.03 218.317 365.249 217.044 364.229 215.965C363.209 214.887 361.971 214.024 360.593 213.433C359.215 212.841 357.726 212.533 356.22 212.527H344.098C337.239 212.527 330.564 214.683 325.064 218.674C319.565 222.664 315.536 228.277 313.575 234.676L305.215 261.953C304.534 264.182 303.132 266.136 301.217 267.525C299.302 268.914 296.977 269.664 294.59 269.662H279.308C277.389 269.664 275.55 270.408 274.194 271.73C272.838 273.051 272.076 274.843 272.076 276.711H326.04Z" fill="white"/>
<path d="M280.998 166C280.998 166 319.498 154 318.998 137C318.498 120 356.998 108 356.998 108" stroke="white" stroke-dasharray="2 2"/>
<mask id="path-153-inside-1_1256_2007" fill="white">
<path d="M303.135 119.906V119.816C303.139 119.846 303.139 119.877 303.135 119.906Z"/>
</mask>
<path d="M303.135 119.906V119.816C303.139 119.846 303.139 119.877 303.135 119.906Z" fill="#FFC100"/>
<path d="M303.135 119.906H302.635L303.63 119.976L303.135 119.906ZM303.135 119.816L303.63 119.747L302.635 119.816H303.135ZM303.135 119.906H303.635V119.816H303.135H302.635V119.906H303.135ZM303.135 119.816L302.64 119.886C302.637 119.87 302.637 119.853 302.64 119.837L303.135 119.906L303.63 119.976C303.641 119.9 303.641 119.823 303.63 119.747L303.135 119.816Z" fill="white" mask="url(#path-153-inside-1_1256_2007)"/>
<path d="M263.356 109.641C260.633 112.161 258.624 115.324 257.525 118.825H256.467C257.014 114.956 258.506 111.272 260.818 108.079L263.356 109.641Z" fill="#FFC100" stroke="white" stroke-width="0.5"/>
<path opacity="0.6" d="M263.356 109.641C260.633 112.161 258.624 115.324 257.525 118.825H256.467C257.014 114.956 258.506 111.272 260.818 108.079L263.356 109.641Z" fill="white" stroke="white" stroke-width="0.5"/>
<path d="M272.275 104.569C269.1 105.495 266.18 107.111 263.74 109.299L261.114 107.677C263.483 104.519 266.555 101.924 270.101 100.085L272.275 104.569Z" fill="#FFC100" stroke="white" stroke-width="0.5"/>
<path opacity="0.5" d="M272.275 104.569C269.1 105.495 266.18 107.111 263.74 109.299L261.114 107.677C263.483 104.519 266.555 101.924 270.101 100.085L272.275 104.569Z" fill="white" stroke="white" stroke-width="0.5"/>
<path d="M281.74 97.25L281.051 103.98C280.054 103.825 279.046 103.748 278.037 103.75C276.256 103.752 274.483 103.982 272.764 104.432L270.546 99.874C273.768 98.2698 277.313 97.3776 280.927 97.2627L281.667 97.25H281.74Z" fill="#FFC100" stroke="white" stroke-width="0.5"/>
<path opacity="0.4" d="M281.74 97.25L281.051 103.98C280.054 103.825 279.046 103.748 278.037 103.75C276.256 103.752 274.483 103.982 272.764 104.432L270.546 99.874C273.768 98.2698 277.313 97.3776 280.927 97.2627L281.667 97.25H281.74Z" fill="white" stroke="white" stroke-width="0.5"/>
<path d="M282.242 97.2549C285.975 97.3187 289.625 98.322 292.84 100.166L288.263 106.703C286.233 105.384 283.947 104.485 281.546 104.062L282.242 97.2549Z" fill="#FFC100" stroke="white" stroke-width="0.5"/>
<path opacity="0.3" d="M282.242 97.2549C285.975 97.3187 289.625 98.322 292.84 100.166L288.263 106.703C286.233 105.384 283.947 104.485 281.546 104.062L282.242 97.2549Z" fill="white" stroke="white" stroke-width="0.5"/>
<path d="M293.255 100.423C296.369 102.329 298.902 105.008 300.595 108.186L293.417 111.927C292.191 109.982 290.574 108.3 288.662 106.982L293.255 100.423Z" fill="#FFC100" stroke="white" stroke-width="0.5"/>
<path opacity="0.2" d="M293.255 100.423C296.369 102.329 298.902 105.008 300.595 108.186L293.417 111.927C292.191 109.982 290.574 108.3 288.662 106.982L293.255 100.423Z" fill="white" stroke="white" stroke-width="0.5"/>
<path d="M300.823 108.631C302.471 111.966 303.195 115.661 302.926 119.353L295.943 119.276C295.69 116.84 294.918 114.483 293.676 112.354L300.823 108.631Z" fill="#FFC100" stroke="white" stroke-width="0.5"/>
<path opacity="0.1" d="M300.823 108.631C302.471 111.966 303.195 115.661 302.926 119.353L295.943 119.276C295.69 116.84 294.918 114.483 293.676 112.354L300.823 108.631Z" fill="white" stroke="white" stroke-width="0.5"/>
<path d="M302.896 119.851C302.897 119.857 302.897 119.865 302.896 119.872H302.896V119.877C302.606 122.332 301.971 124.737 301.012 127.024L295.432 125.795L295.864 123.801L295.866 123.792L295.867 123.783C295.909 123.492 295.952 123.192 295.978 122.891L295.979 122.88V122.7C296.067 121.728 296.073 120.75 295.999 119.776L302.896 119.851Z" fill="#FFC100" stroke="white" stroke-width="0.5"/>
<path d="M256.327 119.8L256.325 119.784C256.324 119.775 256.324 119.767 256.325 119.758L256.327 119.742V119.727C256.327 119.593 256.345 119.456 256.367 119.309H257.351C257.042 120.402 256.828 121.519 256.714 122.647L256.713 122.66V122.842C256.657 123.571 256.643 124.304 256.671 125.035L256.672 125.038C256.699 125.541 256.736 126.031 256.789 126.513C256.688 126.08 256.602 125.641 256.524 125.197C256.246 123.454 256.179 121.684 256.326 119.926L256.327 119.916V119.8Z" fill="#FFC100" stroke="white" stroke-width="0.5"/>
<path opacity="0.7" d="M256.327 119.8L256.325 119.784C256.324 119.775 256.324 119.767 256.325 119.758L256.327 119.742V119.727C256.327 119.593 256.345 119.456 256.367 119.309H257.351C257.042 120.402 256.828 121.519 256.714 122.647L256.713 122.66V122.842C256.657 123.571 256.643 124.304 256.671 125.035L256.672 125.038C256.699 125.541 256.736 126.031 256.789 126.513C256.688 126.08 256.602 125.641 256.524 125.197C256.246 123.454 256.179 121.684 256.326 119.926L256.327 119.916V119.8Z" fill="white" stroke="white" stroke-width="0.5"/>
<path d="M296.301 123.79L302.323 125.804L301.871 126.895L300.788 126.662H300.789L288.793 124.017L284.003 122.96C284.271 122.579 284.501 122.174 284.688 121.748L284.688 121.746C284.92 121.205 285.072 120.636 285.144 120.055L296.301 123.79Z" fill="#263238" stroke="white" stroke-width="0.5"/>
<path d="M284.659 119.908C284.541 120.977 284.131 121.995 283.472 122.858L279.269 121.929L280.546 118.534L284.659 119.908Z" fill="#263238" stroke="white" stroke-width="0.5"/>
<path d="M276.675 115.057C279.553 113.557 282.908 114.52 284.192 117.141V117.142C284.531 117.844 284.702 118.611 284.693 119.384L284.679 119.716C284.587 120.905 284.135 122.042 283.379 122.981C282.894 123.584 282.301 124.094 281.628 124.488L281.335 124.649C278.545 126.103 275.309 125.251 273.95 122.806L273.825 122.564C273.237 121.198 273.202 119.665 273.728 118.274C274.254 116.88 275.305 115.731 276.67 115.06L276.675 115.057Z" fill="#FFC100" stroke="white" stroke-width="0.5"/>
<path d="M92.8418 147.541L92.1797 152.675L92.1074 153.239H98.5156L98.5723 152.803L99.251 147.541H102.364L101.702 152.675L101.629 153.239H106.479V156.146H101.235L101.183 156.587L100.489 162.391L100.422 162.95H105.275V165.857H100.069L100.013 166.293L99.334 171.556H96.1621L96.8252 166.421L96.8975 165.857H90.4805L90.4238 166.293L89.7451 171.556H86.6562L87.3193 166.421L87.3926 165.857H82.5V162.95H87.7383L87.7959 162.516L88.5654 156.712L88.6396 156.146H83.7539V153.239H88.9941L89.0498 152.803L89.7295 147.541H92.8418ZM91.7295 156.575L90.8936 162.379L90.8115 162.95H97.2441L97.3008 162.516L98.0703 156.712L98.1455 156.146H91.791L91.7295 156.575Z" fill="#FFC100" stroke="white"/>
<path d="M118.626 147.502V171.59H113.665V151.166H108.516V147.502H118.626Z" fill="#FFC100" stroke="white"/>
<path d="M91.5083 230.109H50.2852V257.745H91.5083V230.109Z" fill="#263238"/>
<path d="M91.5083 230.109H50.2852V232.641H91.5083V230.109Z" fill="#FFC100"/>
<path d="M57.8344 245.398L64.5809 249.037C64.8336 249.157 65.0605 249.323 65.2497 249.525C65.3678 249.686 65.4267 249.881 65.4169 250.079C65.4189 250.216 65.3926 250.352 65.3395 250.48C65.2863 250.607 65.2075 250.722 65.1076 250.819C65.0134 250.917 64.8995 250.996 64.7729 251.049C64.6463 251.102 64.5098 251.129 64.3719 251.129C64.074 251.094 63.7881 250.994 63.5359 250.836L54.8415 246.123C54.7046 246.054 54.5897 245.951 54.5094 245.823C54.4292 245.695 54.3867 245.548 54.3867 245.398C54.3867 245.248 54.4292 245.101 54.5094 244.974C54.5897 244.846 54.7046 244.742 54.8415 244.674L63.5359 239.961C63.7902 239.808 64.0754 239.711 64.3719 239.676C64.6514 239.68 64.918 239.791 65.1149 239.984C65.3117 240.177 65.4231 240.437 65.4253 240.71C65.4408 240.908 65.3814 241.105 65.2581 241.263C65.072 241.471 64.8445 241.64 64.5893 241.76L57.8344 245.398Z" fill="white"/>
<path d="M75.1817 238.617L68.4937 252.61C68.3928 252.867 68.2359 253.101 68.0339 253.294C67.8544 253.435 67.6293 253.51 67.3985 253.505C67.2615 253.505 67.1258 253.479 66.9994 253.427C66.8731 253.375 66.7587 253.299 66.6628 253.204C66.5663 253.12 66.4889 253.017 66.4356 252.902C66.3823 252.787 66.3544 252.663 66.3535 252.536C66.378 252.252 66.4604 251.975 66.596 251.722L73.284 237.738C73.3857 237.483 73.5392 237.25 73.7354 237.054C73.9341 236.905 74.1818 236.831 74.4324 236.846C74.6831 236.861 74.9196 236.964 75.0981 237.136C75.195 237.219 75.2727 237.322 75.326 237.437C75.3793 237.552 75.4071 237.677 75.4074 237.803C75.3881 238.086 75.3114 238.363 75.1817 238.617Z" fill="white"/>
<path d="M83.5992 245.398L76.8276 241.76C76.5688 241.642 76.3381 241.473 76.1504 241.263C76.0335 241.102 75.9747 240.907 75.9832 240.71C75.9811 240.574 76.0083 240.439 76.063 240.314C76.1177 240.19 76.1988 240.077 76.3009 239.985C76.3951 239.887 76.5091 239.809 76.6357 239.756C76.7622 239.703 76.8987 239.675 77.0366 239.676C77.3335 239.709 77.619 239.807 77.8726 239.961L86.567 244.674C86.7039 244.742 86.8189 244.846 86.8991 244.974C86.9793 245.101 87.0218 245.248 87.0218 245.398C87.0218 245.548 86.9793 245.695 86.8991 245.823C86.8189 245.951 86.7039 246.054 86.567 246.123L77.8726 250.836C77.6208 250.995 77.3347 251.095 77.0366 251.129C76.8975 251.129 76.7599 251.102 76.632 251.048C76.5041 250.995 76.3887 250.917 76.2926 250.819C76.0939 250.621 75.9829 250.356 75.9832 250.079C75.9771 249.882 76.0357 249.688 76.1504 249.525C76.3414 249.321 76.5714 249.155 76.8276 249.037L83.5992 245.398Z" fill="white"/>
<path d="M82 231C86.2892 217.87 89.9781 213.114 100.5 212.5" stroke="white" stroke-dasharray="2 2"/>
<path d="M165.84 223V222.592H167.22C167.484 222.592 167.694 222.52 167.85 222.376C168.006 222.232 168.084 222.038 168.084 221.794C168.084 221.534 168.002 221.326 167.838 221.17C167.674 221.014 167.454 220.936 167.178 220.936H165.84V220.54H167.112C167.384 220.54 167.596 220.474 167.748 220.342C167.9 220.21 167.976 220.024 167.976 219.784C167.976 219.56 167.904 219.388 167.76 219.268C167.62 219.148 167.414 219.088 167.142 219.088H165.84V218.68H167.184C167.58 218.68 167.892 218.774 168.12 218.962C168.352 219.15 168.468 219.406 168.468 219.73C168.468 219.934 168.422 220.116 168.33 220.276C168.238 220.436 168.112 220.562 167.952 220.654C167.792 220.742 167.608 220.786 167.4 220.786L167.43 220.66C167.65 220.66 167.846 220.712 168.018 220.816C168.194 220.92 168.332 221.062 168.432 221.242C168.536 221.418 168.588 221.62 168.588 221.848C168.588 222.076 168.532 222.278 168.42 222.454C168.312 222.626 168.158 222.76 167.958 222.856C167.758 222.952 167.526 223 167.262 223H165.84ZM165.516 223V218.68H166.008V223H165.516ZM169.33 223V218.68H169.822V223H169.33ZM170.854 223V218.68H171.61L173.17 222.844H172.942L174.49 218.68H175.258V223H174.772V218.938H174.838L173.332 223H172.744L171.238 218.974H171.304V223H170.854ZM178.495 223.06C178.119 223.06 177.819 222.974 177.595 222.802C177.371 222.626 177.243 222.378 177.211 222.058H177.673C177.701 222.254 177.787 222.404 177.931 222.508C178.075 222.612 178.267 222.664 178.507 222.664C178.719 222.664 178.885 222.624 179.005 222.544C179.125 222.464 179.185 222.35 179.185 222.202C179.185 222.098 179.151 222.008 179.083 221.932C179.015 221.852 178.879 221.786 178.675 221.734L178.183 221.608C177.903 221.536 177.693 221.426 177.553 221.278C177.413 221.126 177.343 220.946 177.343 220.738C177.343 220.474 177.441 220.266 177.637 220.114C177.833 219.958 178.099 219.88 178.435 219.88C178.767 219.88 179.037 219.96 179.245 220.12C179.453 220.28 179.571 220.502 179.599 220.786H179.137C179.109 220.622 179.033 220.496 178.909 220.408C178.785 220.32 178.621 220.276 178.417 220.276C178.221 220.276 178.069 220.314 177.961 220.39C177.853 220.462 177.799 220.566 177.799 220.702C177.799 220.806 177.837 220.896 177.913 220.972C177.993 221.048 178.125 221.112 178.309 221.164L178.789 221.296C179.073 221.372 179.287 221.488 179.431 221.644C179.575 221.8 179.647 221.988 179.647 222.208C179.647 222.476 179.545 222.686 179.341 222.838C179.137 222.986 178.855 223.06 178.495 223.06ZM181.652 223.06C181.36 223.06 181.102 222.992 180.878 222.856C180.654 222.716 180.478 222.526 180.35 222.286C180.222 222.046 180.158 221.77 180.158 221.458C180.158 221.146 180.22 220.872 180.344 220.636C180.472 220.396 180.65 220.21 180.878 220.078C181.106 219.946 181.368 219.88 181.664 219.88C181.948 219.88 182.194 219.942 182.402 220.066C182.614 220.19 182.776 220.364 182.888 220.588C183.004 220.812 183.062 221.076 183.062 221.38C183.062 221.42 183.06 221.458 183.056 221.494C183.056 221.53 183.052 221.57 183.044 221.614H180.518V221.212H182.75L182.594 221.434C182.594 221.066 182.512 220.784 182.348 220.588C182.188 220.388 181.96 220.288 181.664 220.288C181.36 220.288 181.114 220.394 180.926 220.606C180.742 220.814 180.65 221.096 180.65 221.452C180.65 221.816 180.742 222.108 180.926 222.328C181.114 222.544 181.364 222.652 181.676 222.652C181.872 222.652 182.044 222.61 182.192 222.526C182.34 222.438 182.448 222.314 182.516 222.154H182.972C182.872 222.434 182.704 222.656 182.468 222.82C182.236 222.98 181.964 223.06 181.652 223.06ZM183.785 223V219.94H184.235V220.72H184.265V223H183.785ZM184.265 221.404L184.187 220.678C184.259 220.418 184.387 220.22 184.571 220.084C184.755 219.948 184.967 219.88 185.207 219.88C185.307 219.88 185.375 219.888 185.411 219.904V220.366C185.391 220.358 185.363 220.354 185.327 220.354C185.291 220.35 185.247 220.348 185.195 220.348C184.891 220.348 184.659 220.44 184.499 220.624C184.343 220.804 184.265 221.064 184.265 221.404ZM186.929 223L185.663 219.94H186.179L187.235 222.676H187.043L188.093 219.94H188.585L187.319 223H186.929ZM189.134 223V219.94H189.614V223H189.134ZM189.098 219.244V218.68H189.65V219.244H189.098ZM191.776 223.06C191.496 223.06 191.246 222.992 191.026 222.856C190.81 222.716 190.638 222.526 190.51 222.286C190.386 222.042 190.324 221.766 190.324 221.458C190.324 221.15 190.386 220.878 190.51 220.642C190.638 220.406 190.81 220.22 191.026 220.084C191.246 219.948 191.494 219.88 191.77 219.88C191.998 219.88 192.202 219.924 192.382 220.012C192.566 220.1 192.716 220.226 192.832 220.39C192.952 220.55 193.028 220.738 193.06 220.954H192.616C192.576 220.758 192.484 220.598 192.34 220.474C192.196 220.35 192.01 220.288 191.782 220.288C191.586 220.288 191.416 220.336 191.272 220.432C191.128 220.528 191.016 220.664 190.936 220.84C190.856 221.016 190.816 221.222 190.816 221.458C190.816 221.694 190.856 221.902 190.936 222.082C191.016 222.262 191.128 222.402 191.272 222.502C191.42 222.602 191.592 222.652 191.788 222.652C192.008 222.652 192.192 222.592 192.34 222.472C192.488 222.348 192.582 222.188 192.622 221.992H193.066C193.03 222.204 192.95 222.392 192.826 222.556C192.706 222.716 192.556 222.84 192.376 222.928C192.196 223.016 191.996 223.06 191.776 223.06ZM195.005 223.06C194.713 223.06 194.455 222.992 194.231 222.856C194.007 222.716 193.831 222.526 193.703 222.286C193.575 222.046 193.511 221.77 193.511 221.458C193.511 221.146 193.573 220.872 193.697 220.636C193.825 220.396 194.003 220.21 194.231 220.078C194.459 219.946 194.721 219.88 195.017 219.88C195.301 219.88 195.547 219.942 195.755 220.066C195.967 220.19 196.129 220.364 196.241 220.588C196.357 220.812 196.415 221.076 196.415 221.38C196.415 221.42 196.413 221.458 196.409 221.494C196.409 221.53 196.405 221.57 196.397 221.614H193.871V221.212H196.103L195.947 221.434C195.947 221.066 195.865 220.784 195.701 220.588C195.541 220.388 195.313 220.288 195.017 220.288C194.713 220.288 194.467 220.394 194.279 220.606C194.095 220.814 194.003 221.096 194.003 221.452C194.003 221.816 194.095 222.108 194.279 222.328C194.467 222.544 194.717 222.652 195.029 222.652C195.225 222.652 195.397 222.61 195.545 222.526C195.693 222.438 195.801 222.314 195.869 222.154H196.325C196.225 222.434 196.057 222.656 195.821 222.82C195.589 222.98 195.317 223.06 195.005 223.06ZM199.851 223.054C199.563 223.054 199.321 222.984 199.125 222.844C198.929 222.704 198.795 222.506 198.723 222.25L198.819 222.238V224.23H198.339V219.94H198.789V220.654L198.723 220.636C198.799 220.4 198.943 220.216 199.155 220.084C199.367 219.948 199.613 219.88 199.893 219.88C200.165 219.88 200.401 219.946 200.601 220.078C200.805 220.21 200.963 220.394 201.075 220.63C201.187 220.866 201.243 221.142 201.243 221.458C201.243 221.778 201.185 222.058 201.069 222.298C200.953 222.538 200.791 222.724 200.583 222.856C200.375 222.988 200.131 223.054 199.851 223.054ZM199.779 222.634C200.083 222.634 200.321 222.53 200.493 222.322C200.665 222.11 200.751 221.822 200.751 221.458C200.751 221.098 200.665 220.816 200.493 220.612C200.321 220.404 200.083 220.3 199.779 220.3C199.475 220.3 199.235 220.406 199.059 220.618C198.883 220.826 198.795 221.112 198.795 221.476C198.795 221.832 198.883 222.114 199.059 222.322C199.235 222.53 199.475 222.634 199.779 222.634ZM201.978 223V219.94H202.428V220.72H202.458V223H201.978ZM202.458 221.404L202.38 220.678C202.452 220.418 202.58 220.22 202.764 220.084C202.948 219.948 203.16 219.88 203.4 219.88C203.5 219.88 203.568 219.888 203.604 219.904V220.366C203.584 220.358 203.556 220.354 203.52 220.354C203.484 220.35 203.44 220.348 203.388 220.348C203.084 220.348 202.852 220.44 202.692 220.624C202.536 220.804 202.458 221.064 202.458 221.404ZM205.5 223.06C205.2 223.06 204.936 222.99 204.708 222.85C204.48 222.71 204.302 222.52 204.174 222.28C204.05 222.036 203.988 221.762 203.988 221.458C203.988 221.15 204.052 220.878 204.18 220.642C204.308 220.406 204.484 220.22 204.708 220.084C204.936 219.948 205.2 219.88 205.5 219.88C205.804 219.88 206.068 219.948 206.292 220.084C206.52 220.22 206.696 220.406 206.82 220.642C206.948 220.878 207.012 221.15 207.012 221.458C207.012 221.762 206.948 222.036 206.82 222.28C206.696 222.52 206.52 222.71 206.292 222.85C206.068 222.99 205.804 223.06 205.5 223.06ZM205.5 222.652C205.708 222.652 205.888 222.602 206.04 222.502C206.192 222.398 206.31 222.256 206.394 222.076C206.478 221.896 206.52 221.688 206.52 221.452C206.52 221.1 206.426 220.818 206.238 220.606C206.054 220.394 205.808 220.288 205.5 220.288C205.196 220.288 204.95 220.394 204.762 220.606C204.574 220.818 204.48 221.1 204.48 221.452C204.48 221.688 204.522 221.896 204.606 222.076C204.69 222.256 204.808 222.398 204.96 222.502C205.116 222.602 205.296 222.652 205.5 222.652ZM208.55 223L207.284 219.94H207.8L208.856 222.676H208.664L209.714 219.94H210.206L208.94 223H208.55ZM210.755 223V219.94H211.235V223H210.755ZM210.719 219.244V218.68H211.271V219.244H210.719ZM214.411 223V222.286L214.471 222.304C214.395 222.536 214.255 222.72 214.051 222.856C213.851 222.992 213.611 223.06 213.331 223.06C213.055 223.06 212.813 222.994 212.605 222.862C212.401 222.73 212.241 222.546 212.125 222.31C212.013 222.074 211.957 221.798 211.957 221.482C211.957 221.162 212.015 220.882 212.131 220.642C212.247 220.402 212.409 220.216 212.617 220.084C212.825 219.952 213.069 219.886 213.349 219.886C213.637 219.886 213.879 219.956 214.075 220.096C214.271 220.236 214.405 220.434 214.477 220.69L214.381 220.702V218.68H214.861V223H214.411ZM213.421 222.64C213.729 222.64 213.969 222.536 214.141 222.328C214.317 222.116 214.405 221.828 214.405 221.464C214.405 221.108 214.317 220.826 214.141 220.618C213.965 220.41 213.725 220.306 213.421 220.306C213.117 220.306 212.879 220.41 212.707 220.618C212.535 220.826 212.449 221.114 212.449 221.482C212.449 221.842 212.535 222.126 212.707 222.334C212.879 222.538 213.117 222.64 213.421 222.64ZM217.078 223.06C216.786 223.06 216.528 222.992 216.304 222.856C216.08 222.716 215.904 222.526 215.776 222.286C215.648 222.046 215.584 221.77 215.584 221.458C215.584 221.146 215.646 220.872 215.77 220.636C215.898 220.396 216.076 220.21 216.304 220.078C216.532 219.946 216.794 219.88 217.09 219.88C217.374 219.88 217.62 219.942 217.828 220.066C218.04 220.19 218.202 220.364 218.314 220.588C218.43 220.812 218.488 221.076 218.488 221.38C218.488 221.42 218.486 221.458 218.482 221.494C218.482 221.53 218.478 221.57 218.47 221.614H215.944V221.212H218.176L218.02 221.434C218.02 221.066 217.938 220.784 217.774 220.588C217.614 220.388 217.386 220.288 217.09 220.288C216.786 220.288 216.54 220.394 216.352 220.606C216.168 220.814 216.076 221.096 216.076 221.452C216.076 221.816 216.168 222.108 216.352 222.328C216.54 222.544 216.79 222.652 217.102 222.652C217.298 222.652 217.47 222.61 217.618 222.526C217.766 222.438 217.874 222.314 217.942 222.154H218.398C218.298 222.434 218.13 222.656 217.894 222.82C217.662 222.98 217.39 223.06 217.078 223.06ZM219.21 223V219.94H219.66V220.72H219.69V223H219.21ZM219.69 221.404L219.612 220.678C219.684 220.418 219.812 220.22 219.996 220.084C220.18 219.948 220.392 219.88 220.632 219.88C220.732 219.88 220.8 219.888 220.836 219.904V220.366C220.816 220.358 220.788 220.354 220.752 220.354C220.716 220.35 220.672 220.348 220.62 220.348C220.316 220.348 220.084 220.44 219.924 220.624C219.768 220.804 219.69 221.064 219.69 221.404ZM222.411 223.06C222.035 223.06 221.735 222.974 221.511 222.802C221.287 222.626 221.159 222.378 221.127 222.058H221.589C221.617 222.254 221.703 222.404 221.847 222.508C221.991 222.612 222.183 222.664 222.423 222.664C222.635 222.664 222.801 222.624 222.921 222.544C223.041 222.464 223.101 222.35 223.101 222.202C223.101 222.098 223.067 222.008 222.999 221.932C222.931 221.852 222.795 221.786 222.591 221.734L222.099 221.608C221.819 221.536 221.609 221.426 221.469 221.278C221.329 221.126 221.259 220.946 221.259 220.738C221.259 220.474 221.357 220.266 221.553 220.114C221.749 219.958 222.015 219.88 222.351 219.88C222.683 219.88 222.953 219.96 223.161 220.12C223.369 220.28 223.487 220.502 223.515 220.786H223.053C223.025 220.622 222.949 220.496 222.825 220.408C222.701 220.32 222.537 220.276 222.333 220.276C222.137 220.276 221.985 220.314 221.877 220.39C221.769 220.462 221.715 220.566 221.715 220.702C221.715 220.806 221.753 220.896 221.829 220.972C221.909 221.048 222.041 221.112 222.225 221.164L222.705 221.296C222.989 221.372 223.203 221.488 223.347 221.644C223.491 221.8 223.563 221.988 223.563 222.208C223.563 222.476 223.461 222.686 223.257 222.838C223.053 222.986 222.771 223.06 222.411 223.06ZM225.41 223V219.94H225.89V223H225.41ZM225.374 219.244V218.68H225.926V219.244H225.374ZM226.851 223V219.94H227.301V220.66H227.331V223H226.851ZM229.041 223V220.996C229.041 220.764 228.983 220.59 228.867 220.474C228.751 220.358 228.579 220.3 228.351 220.3C228.151 220.3 227.973 220.344 227.817 220.432C227.665 220.52 227.545 220.642 227.457 220.798C227.373 220.954 227.331 221.136 227.331 221.344L227.253 220.618C227.357 220.39 227.515 220.21 227.727 220.078C227.943 219.946 228.187 219.88 228.459 219.88C228.779 219.88 229.035 219.972 229.227 220.156C229.423 220.336 229.521 220.574 229.521 220.87V223H229.041ZM233.294 223.06C232.774 223.06 232.368 222.902 232.076 222.586C231.788 222.266 231.644 221.82 231.644 221.248V218.68H232.136V221.272C232.136 221.704 232.236 222.036 232.436 222.268C232.636 222.5 232.922 222.616 233.294 222.616C233.674 222.616 233.964 222.502 234.164 222.274C234.364 222.042 234.464 221.708 234.464 221.272V218.68H234.956V221.254C234.956 221.822 234.81 222.266 234.518 222.586C234.226 222.902 233.818 223.06 233.294 223.06ZM237.398 223.054C236.894 223.054 236.492 222.93 236.192 222.682C235.896 222.434 235.722 222.08 235.67 221.62H236.15C236.194 221.952 236.32 222.202 236.528 222.37C236.736 222.538 237.024 222.622 237.392 222.622C237.704 222.622 237.938 222.564 238.094 222.448C238.254 222.328 238.334 222.154 238.334 221.926C238.334 221.73 238.28 221.574 238.172 221.458C238.064 221.342 237.896 221.246 237.668 221.17L236.942 220.918C236.574 220.79 236.302 220.636 236.126 220.456C235.95 220.272 235.862 220.04 235.862 219.76C235.862 219.528 235.92 219.328 236.036 219.16C236.152 218.988 236.316 218.854 236.528 218.758C236.74 218.662 236.986 218.614 237.266 218.614C237.698 218.614 238.044 218.728 238.304 218.956C238.564 219.18 238.714 219.5 238.754 219.916H238.274C238.222 219.616 238.114 219.396 237.95 219.256C237.79 219.116 237.558 219.046 237.254 219.046C236.966 219.046 236.742 219.104 236.582 219.22C236.422 219.336 236.342 219.5 236.342 219.712C236.342 219.892 236.398 220.036 236.51 220.144C236.622 220.252 236.796 220.346 237.032 220.426L237.806 220.696C238.142 220.812 238.394 220.97 238.562 221.17C238.73 221.366 238.814 221.616 238.814 221.92C238.814 222.28 238.69 222.56 238.442 222.76C238.198 222.956 237.85 223.054 237.398 223.054ZM239.191 223L240.859 218.68H241.291L239.665 223H239.191ZM242.623 223L240.997 218.68H241.459L243.127 223H242.623ZM240.019 221.254H242.275V221.686H240.019V221.254Z" fill="black"/>
</svg>
