<svg width="387" height="387" viewBox="0 0 387 387" fill="none" xmlns="http://www.w3.org/2000/svg">
<path d="M387 295.978H0V296.171H387V295.978Z" fill="#E0E0E0"/>
<path d="M104.93 304.175H78.3047V304.368H104.93V304.175Z" fill="#E0E0E0"/>
<path d="M72.6331 304.268H57.6484V304.461H72.6331V304.268Z" fill="#E0E0E0"/>
<path d="M165.821 303.818H135.449V304.012H165.821V303.818Z" fill="#E0E0E0"/>
<path d="M243.469 301.063H153.855V301.257H243.469V301.063Z" fill="#E0E0E0"/>
<path d="M320.18 301.164H279.166V301.358H320.18V301.164Z" fill="#E0E0E0"/>
<path d="M183.438 261.458H33.986C32.8152 261.455 31.6931 260.989 30.8659 260.16C30.0388 259.332 29.5742 258.209 29.5742 257.038V46.9512C29.5844 45.7871 30.0535 44.674 30.8795 43.8538C31.7056 43.0335 32.8219 42.5723 33.986 42.5703H183.438C184.61 42.5703 185.734 43.0359 186.563 43.8648C187.392 44.6936 187.857 45.8177 187.857 46.9899V257.038C187.857 258.21 187.392 259.334 186.563 260.163C185.734 260.992 184.61 261.458 183.438 261.458ZM33.986 42.7251C32.8665 42.7272 31.7936 43.1733 31.0028 43.9656C30.2119 44.7579 29.7677 45.8317 29.7677 46.9512V257.038C29.7677 258.157 30.2119 259.231 31.0028 260.023C31.7936 260.816 32.8665 261.262 33.986 261.264H183.438C184.558 261.262 185.632 260.816 186.424 260.024C187.216 259.232 187.662 258.158 187.664 257.038V46.9512C187.662 45.831 187.216 44.7572 186.424 43.9652C185.632 43.1731 184.558 42.7272 183.438 42.7251H33.986Z" fill="#E0E0E0"/>
<path d="M350.861 261.458H201.402C200.23 261.455 199.108 260.989 198.279 260.161C197.451 259.332 196.984 258.209 196.982 257.038V46.9512C196.995 45.7864 197.465 44.6733 198.293 43.8533C199.12 43.0332 200.237 42.5723 201.402 42.5703H350.861C352.024 42.5743 353.138 43.0365 353.963 43.8565C354.787 44.6765 355.255 45.7884 355.265 46.9512V257.038C355.265 258.207 354.802 259.329 353.976 260.158C353.151 260.986 352.031 261.453 350.861 261.458ZM201.402 42.7251C200.282 42.7272 199.208 43.1731 198.416 43.9652C197.624 44.7572 197.178 45.831 197.176 46.9512V257.038C197.178 258.158 197.624 259.232 198.416 260.024C199.208 260.816 200.282 261.262 201.402 261.264H350.861C351.982 261.262 353.055 260.816 353.847 260.024C354.639 259.232 355.085 258.158 355.087 257.038V46.9512C355.085 45.831 354.639 44.7572 353.847 43.9652C353.055 43.1731 351.982 42.7272 350.861 42.7251H201.402Z" fill="#E0E0E0"/>
<path d="M165.436 220.288C165.01 220.288 164.584 220.288 164.151 220.327C161.454 220.517 158.832 221.302 156.474 222.625C154.116 223.947 152.08 225.776 150.512 227.978C148.944 230.18 147.882 232.702 147.403 235.363C146.924 238.024 147.04 240.758 147.742 243.369C149.741 251.165 150.707 259.191 150.613 267.239V290.676C150.613 291.497 150.94 292.284 151.52 292.865C152.101 293.445 152.888 293.772 153.709 293.772H228.106V220.288H165.436Z" fill="#E6E6E6"/>
<path d="M246.402 238.609C246.374 233.87 244.512 229.326 241.206 225.931C237.9 222.535 233.407 220.553 228.671 220.398C223.934 220.244 219.322 221.931 215.802 225.104C212.282 228.277 210.128 232.69 209.792 237.418C209.663 239.423 209.862 241.436 210.38 243.377C212.386 251.173 213.354 259.199 213.259 267.247V290.684C213.259 291.505 213.586 292.293 214.166 292.873C214.747 293.454 215.534 293.78 216.355 293.78H239.846C240.667 293.78 241.455 293.454 242.036 292.873C242.616 292.293 242.942 291.505 242.942 290.684V265.87C242.875 258.323 243.827 250.801 245.775 243.509C246.205 241.912 246.415 240.263 246.402 238.609Z" fill="#F0F0F0"/>
<path d="M202.834 249.151H136.061V293.757H202.834V249.151Z" fill="#E6E6E6"/>
<path d="M94.7373 176.944H156.348C158.174 176.936 159.985 177.289 161.675 177.982C163.365 178.676 164.901 179.696 166.195 180.985C167.49 182.274 168.517 183.806 169.218 185.492C169.919 187.179 170.28 188.988 170.28 190.815V259.236H80.875V190.815C80.875 187.137 82.3352 183.611 84.9347 181.01C87.5342 178.409 91.0601 176.947 94.7373 176.944Z" fill="#E0E0E0"/>
<path d="M111.534 176.944H174.507C176.24 176.944 177.956 177.286 179.557 177.949C181.158 178.612 182.613 179.584 183.838 180.81C185.064 182.035 186.036 183.49 186.699 185.091C187.362 186.692 187.704 188.408 187.704 190.141V259.228H98.2988V190.149C98.2978 188.412 98.6397 186.692 99.3048 185.087C99.97 183.483 100.945 182.025 102.175 180.799C103.405 179.572 104.864 178.6 106.47 177.939C108.076 177.277 109.797 176.939 111.534 176.944Z" fill="#F0F0F0"/>
<path d="M140.426 245.08H201.975C203.042 245.08 204.066 245.504 204.821 246.259C205.575 247.014 206 248.037 206 249.105V259.221C206 260.288 205.575 261.312 204.821 262.067C204.066 262.822 203.042 263.246 201.975 263.246H140.426C140.108 263.246 139.803 263.119 139.578 262.894C139.353 262.669 139.227 262.364 139.227 262.046V246.28C139.227 245.962 139.353 245.656 139.578 245.431C139.803 245.206 140.108 245.08 140.426 245.08Z" fill="#E0E0E0"/>
<path d="M74.3047 220.288C73.879 220.288 73.4533 220.288 73.0199 220.327C70.3229 220.517 67.7015 221.302 65.3436 222.625C62.9856 223.947 60.9495 225.776 59.3811 227.978C57.8128 230.18 56.7512 232.702 56.2723 235.363C55.7933 238.024 55.9091 240.758 56.6111 243.369C58.6106 251.165 59.5761 259.191 59.4826 267.239V290.676C59.4826 291.497 59.8088 292.284 60.3894 292.865C60.97 293.445 61.7575 293.772 62.5786 293.772H136.968V220.288H74.3047Z" fill="#E6E6E6"/>
<path d="M155.258 238.609C155.23 233.87 153.367 229.326 150.061 225.931C146.755 222.535 142.263 220.553 137.526 220.398C132.789 220.244 128.177 221.931 124.657 225.104C121.137 228.277 118.983 232.69 118.647 237.418C118.519 239.423 118.717 241.436 119.236 243.377C121.241 251.173 122.21 259.199 122.115 267.247V290.684C122.115 291.505 122.441 292.293 123.022 292.873C123.602 293.454 124.39 293.78 125.211 293.78H148.702C149.523 293.78 150.31 293.454 150.891 292.873C151.472 292.293 151.798 291.505 151.798 290.684V265.87C151.73 258.323 152.683 250.801 154.631 243.509C155.06 241.912 155.271 240.263 155.258 238.609Z" fill="#F0F0F0"/>
<path d="M226.782 295.986H75.5963C75.0051 295.986 74.4381 295.751 74.0201 295.333C73.602 294.915 73.3672 294.348 73.3672 293.757H229.003C229.003 294.347 228.769 294.913 228.353 295.33C227.937 295.748 227.372 295.984 226.782 295.986Z" fill="#E0E0E0"/>
<path d="M110.945 78.5303H66.4629V124.63H110.945V78.5303Z" fill="#E0E0E0"/>
<path d="M113.484 78.5303H70.1172V124.63H113.484V78.5303Z" fill="#F0F0F0"/>
<path d="M109.846 120.992V82.1602H73.7463V120.992H109.846Z" fill="#FAFAFA"/>
<path d="M91.7962 91.7656L81.9277 108.863H101.672L91.7962 91.7656Z" fill="#F0F0F0"/>
<path d="M170.242 97.9424H125.76V144.042H170.242V97.9424Z" fill="#E0E0E0"/>
<path d="M172.772 97.9424H129.404V144.042H172.772V97.9424Z" fill="#F0F0F0"/>
<path d="M169.135 140.412V101.58H133.035V140.412H169.135Z" fill="#FAFAFA"/>
<path d="M155.512 127.919L159.792 120.504C160.238 119.728 160.473 118.849 160.472 117.954C160.471 117.058 160.235 116.179 159.788 115.404C159.34 114.629 158.697 113.985 157.922 113.536C157.147 113.088 156.268 112.851 155.373 112.85H146.804C145.909 112.85 145.029 113.086 144.254 113.535C143.479 113.983 142.836 114.627 142.388 115.403C141.941 116.179 141.706 117.059 141.707 117.954C141.708 118.85 141.944 119.729 142.393 120.504L146.673 127.919C147.12 128.696 147.764 129.341 148.54 129.789C149.316 130.238 150.196 130.474 151.092 130.474C151.989 130.474 152.869 130.238 153.645 129.789C154.421 129.341 155.065 128.696 155.512 127.919Z" fill="#F0F0F0"/>
<path d="M273.277 186.108H261.117V292.309H273.277V186.108Z" fill="#E6E6E6"/>
<path d="M331.666 292.31H264.32V295.971H331.666V292.31Z" fill="#E6E6E6"/>
<path d="M273.268 292.317H334.871V186.117H273.268V292.317Z" fill="#F0F0F0"/>
<path d="M279.839 260.374H328.307V241.411H279.839V260.374Z" fill="#E6E6E6"/>
<path d="M279.839 285.196H328.307V266.233H279.839V285.196Z" fill="#E6E6E6"/>
<path d="M311.086 249.592H297.053C296.373 249.592 295.822 250.143 295.822 250.822V250.962C295.822 251.641 296.373 252.192 297.053 252.192H311.086C311.765 252.192 312.316 251.641 312.316 250.962V250.822C312.316 250.143 311.765 249.592 311.086 249.592Z" fill="#F0F0F0"/>
<path d="M311.086 274.414H297.053C296.373 274.414 295.822 274.965 295.822 275.645V275.784C295.822 276.464 296.373 277.015 297.053 277.015H311.086C311.765 277.015 312.316 276.464 312.316 275.784V275.645C312.316 274.965 311.765 274.414 311.086 274.414Z" fill="#F0F0F0"/>
<path d="M279.839 210.931H328.307V191.968H279.839V210.931Z" fill="#E6E6E6"/>
<path d="M279.839 235.56H328.307V216.597H279.839V235.56Z" fill="#E6E6E6"/>
<path d="M311.086 200.149H297.053C296.373 200.149 295.822 200.7 295.822 201.38V201.519C295.822 202.199 296.373 202.75 297.053 202.75H311.086C311.765 202.75 312.316 202.199 312.316 201.519V201.38C312.316 200.7 311.765 200.149 311.086 200.149Z" fill="#F0F0F0"/>
<path d="M311.086 224.77H297.053C296.373 224.77 295.822 225.321 295.822 226V226.14C295.822 226.819 296.373 227.37 297.053 227.37H311.086C311.765 227.37 312.316 226.819 312.316 226.14V226C312.316 225.321 311.765 224.77 311.086 224.77Z" fill="#F0F0F0"/>
<path d="M319.019 155.428H307.603C307.603 155.428 309.584 162.27 309.584 166.264C309.584 170.258 300.9 186.078 313.315 186.078C325.73 186.078 317.038 170.296 317.038 166.264C317.038 162.231 319.019 155.428 319.019 155.428Z" fill="#F0F0F0"/>
<path d="M289.307 164.623C289.299 165.693 288.975 166.736 288.375 167.622C287.775 168.508 286.926 169.196 285.935 169.601C284.945 170.005 283.856 170.107 282.808 169.893C281.76 169.68 280.798 169.161 280.044 168.401C279.29 167.642 278.778 166.677 278.572 165.627C278.366 164.577 278.476 163.49 278.887 162.502C279.298 161.514 279.992 160.67 280.883 160.076C281.773 159.483 282.819 159.166 283.889 159.166C285.329 159.176 286.707 159.756 287.722 160.778C288.737 161.8 289.307 163.182 289.307 164.623Z" fill="#F0F0F0"/>
<path d="M298.648 167.223C298.648 168.303 298.328 169.358 297.728 170.255C297.129 171.152 296.276 171.852 295.279 172.265C294.282 172.678 293.185 172.786 292.127 172.575C291.068 172.365 290.096 171.845 289.333 171.082C288.569 170.319 288.05 169.346 287.839 168.288C287.629 167.229 287.737 166.132 288.15 165.135C288.563 164.138 289.262 163.286 290.16 162.686C291.057 162.087 292.112 161.767 293.191 161.767C294.638 161.767 296.026 162.342 297.05 163.365C298.073 164.388 298.648 165.776 298.648 167.223Z" fill="#F0F0F0"/>
<path d="M306.628 165.118C306.628 166.197 306.308 167.252 305.709 168.149C305.109 169.047 304.257 169.746 303.26 170.159C302.263 170.572 301.165 170.68 300.107 170.47C299.049 170.259 298.076 169.739 297.313 168.976C296.55 168.213 296.03 167.241 295.82 166.182C295.609 165.124 295.717 164.027 296.13 163.03C296.543 162.033 297.243 161.18 298.14 160.581C299.037 159.981 300.092 159.661 301.172 159.661C302.619 159.661 304.007 160.236 305.03 161.259C306.053 162.283 306.628 163.671 306.628 165.118Z" fill="#F0F0F0"/>
<path d="M274.082 167.323V173.515C274.082 180.419 280.762 186.07 288.92 186.07H296.288C304.454 186.07 311.133 180.419 311.133 173.515V167.323H274.082Z" fill="#E6E6E6"/>
<path d="M250.281 135.451C246.169 135.451 242.226 133.817 239.318 130.91C236.411 128.003 234.777 124.059 234.777 119.948C234.777 115.836 236.411 111.893 239.318 108.985C242.226 106.078 246.169 104.444 250.281 104.444H252.185V135.451H250.281Z" fill="#E0E0E0"/>
<path d="M267.288 123.495C269.238 115.158 264.061 106.819 255.724 104.868C247.387 102.917 239.048 108.094 237.097 116.431C235.146 124.768 240.323 133.108 248.66 135.059C256.997 137.009 265.337 131.832 267.288 123.495Z" fill="#F0F0F0"/>
<path d="M252.88 121.89C252.367 121.89 251.875 121.686 251.512 121.323C251.149 120.96 250.945 120.468 250.945 119.955C250.945 119.441 251.149 118.949 251.512 118.586C251.875 118.223 252.367 118.02 252.88 118.02C257.318 118.016 261.573 116.251 264.711 113.114C267.85 109.977 269.616 105.723 269.622 101.286V75.5502C269.622 75.037 269.826 74.5449 270.189 74.182C270.552 73.8191 271.044 73.6152 271.557 73.6152C272.07 73.6152 272.562 73.8191 272.925 74.182C273.288 74.5449 273.492 75.037 273.492 75.5502V101.286C273.484 106.749 271.309 111.986 267.445 115.849C263.582 119.711 258.344 121.883 252.88 121.89Z" fill="#E0E0E0"/>
<path d="M289.854 101.232H253.26L257.346 67.7021H285.768L289.854 101.232Z" fill="#F0F0F0"/>
<path d="M193.501 330.932C276.382 330.932 343.571 327.009 343.571 322.17C343.571 317.331 276.382 313.408 193.501 313.408C110.619 313.408 43.4297 317.331 43.4297 322.17C43.4297 327.009 110.619 330.932 193.501 330.932Z" fill="#F5F5F5"/>
<path d="M310.598 252.858L309.274 242.571C309.075 241.04 308.326 239.634 307.167 238.614C306.008 237.595 304.518 237.031 302.974 237.029H268.686C267.142 237.031 265.651 236.47 264.492 235.451C263.332 234.432 262.583 233.026 262.385 231.495L255.272 176.325C255.156 175.43 255.231 174.52 255.494 173.657C255.757 172.794 256.201 171.997 256.797 171.319C257.393 170.641 258.126 170.099 258.948 169.727C259.771 169.356 260.663 169.164 261.565 169.165H292.572C293.474 169.165 294.366 168.972 295.189 168.6C296.011 168.227 296.744 167.684 297.34 167.006C297.936 166.327 298.38 165.53 298.642 164.666C298.905 163.803 298.981 162.893 298.864 161.998L297.548 151.704C297.351 150.173 296.602 148.766 295.442 147.748C294.283 146.729 292.791 146.168 291.248 146.169H256.967C255.424 146.169 253.934 145.606 252.776 144.586C251.617 143.566 250.871 142.159 250.675 140.628L244.08 89.5436C243.883 88.0121 243.134 86.6049 241.975 85.585C240.815 84.5651 239.324 84.0023 237.78 84.0018H227.594C226.691 84.0021 225.799 84.1948 224.976 84.5671C224.153 84.9394 223.42 85.4827 222.824 86.1609C222.227 86.8391 221.783 87.6365 221.519 88.5001C221.255 89.3637 221.178 90.2735 221.294 91.169L227.486 138.987C227.601 139.882 227.525 140.792 227.261 141.656C226.997 142.519 226.552 143.317 225.956 143.995C225.36 144.673 224.626 145.216 223.804 145.589C222.981 145.961 222.088 146.154 221.185 146.154H138.159C136.615 146.153 135.125 145.59 133.967 144.57C132.808 143.55 132.062 142.143 131.866 140.612L125.271 89.5282C125.076 87.9973 124.329 86.5902 123.171 85.5701C122.012 84.5501 120.522 83.987 118.979 83.9863H108.793C107.89 83.9866 106.997 84.1793 106.175 84.5516C105.352 84.9239 104.618 85.4673 104.022 86.1454C103.426 86.8236 102.981 87.621 102.718 88.4846C102.454 89.3482 102.377 90.258 102.493 91.1536L108.685 138.971C108.8 139.867 108.723 140.777 108.46 141.64C108.196 142.504 107.751 143.301 107.155 143.979C106.559 144.658 105.825 145.201 105.002 145.573C104.18 145.946 103.287 146.138 102.384 146.139H71.3546C70.452 146.138 69.5596 146.329 68.737 146.701C67.9143 147.072 67.1804 147.615 66.5841 148.292C65.9878 148.97 65.543 149.767 65.2791 150.63C65.0153 151.493 64.9386 152.403 65.0542 153.298L66.3855 163.584C66.5814 165.117 67.3294 166.525 68.4892 167.545C69.6491 168.565 71.1412 169.127 72.6858 169.126H106.966C108.51 169.125 110.001 169.686 111.161 170.705C112.32 171.723 113.069 173.13 113.267 174.66L120.387 229.831C120.503 230.726 120.426 231.636 120.163 232.499C119.899 233.362 119.454 234.159 118.858 234.837C118.261 235.514 117.527 236.057 116.705 236.428C115.882 236.8 114.99 236.991 114.087 236.991H83.0807C82.1777 236.991 81.2852 237.184 80.4626 237.556C79.64 237.928 78.9061 238.472 78.31 239.15C77.7138 239.828 77.269 240.625 77.0053 241.489C76.7415 242.352 76.6648 243.262 76.7803 244.158L78.1116 254.444C78.3073 255.975 79.0542 257.382 80.2124 258.402C81.3706 259.422 82.8608 259.985 84.4042 259.986H118.692C120.236 259.985 121.727 260.546 122.887 261.564C124.046 262.583 124.795 263.989 124.993 265.52L131.579 316.604C131.777 318.136 132.525 319.543 133.685 320.563C134.844 321.583 136.336 322.146 137.88 322.146H148.066C148.969 322.146 149.861 321.953 150.684 321.581C151.506 321.209 152.24 320.665 152.836 319.987C153.433 319.309 153.877 318.511 154.141 317.648C154.405 316.784 154.482 315.874 154.366 314.979L148.174 267.161C148.068 266.269 148.152 265.365 148.421 264.509C148.69 263.652 149.138 262.862 149.735 262.191C150.332 261.52 151.064 260.984 151.884 260.617C152.704 260.25 153.592 260.062 154.49 260.064H237.494C239.034 260.057 240.524 260.611 241.686 261.622C242.848 262.633 243.603 264.033 243.809 265.559L250.396 316.643C250.594 318.175 251.342 319.582 252.502 320.602C253.661 321.622 255.152 322.184 256.697 322.185H266.882C267.785 322.185 268.677 321.992 269.5 321.62C270.322 321.247 271.055 320.704 271.651 320.025C272.247 319.347 272.691 318.55 272.953 317.686C273.216 316.822 273.292 315.913 273.175 315.018L266.983 267.2C266.867 266.305 266.944 265.395 267.208 264.532C267.472 263.669 267.917 262.872 268.513 262.194C269.109 261.517 269.843 260.974 270.666 260.603C271.488 260.231 272.381 260.04 273.283 260.04H304.29C305.195 260.041 306.09 259.849 306.915 259.476C307.739 259.104 308.475 258.559 309.072 257.879C309.669 257.199 310.115 256.399 310.378 255.533C310.641 254.667 310.716 253.755 310.598 252.858ZM143.584 231.495L136.471 176.325C136.356 175.43 136.432 174.521 136.696 173.659C136.959 172.796 137.403 171.999 137.999 171.322C138.594 170.644 139.327 170.102 140.149 169.73C140.97 169.358 141.862 169.165 142.764 169.165H225.768C227.311 169.164 228.802 169.725 229.962 170.743C231.122 171.762 231.87 173.168 232.068 174.699L239.165 229.878C239.281 230.773 239.204 231.682 238.941 232.545C238.677 233.409 238.232 234.206 237.636 234.883C237.039 235.561 236.305 236.103 235.483 236.475C234.66 236.846 233.768 237.038 232.865 237.037H149.885C148.34 237.037 146.849 236.474 145.69 235.454C144.53 234.434 143.782 233.027 143.584 231.495Z" fill="#FFC100"/>
<path opacity="0.4" d="M310.598 252.858L309.274 242.571C309.075 241.04 308.326 239.634 307.167 238.614C306.008 237.595 304.518 237.031 302.974 237.029H268.686C267.142 237.031 265.651 236.47 264.492 235.451C263.332 234.432 262.583 233.026 262.385 231.495L255.272 176.325C255.156 175.43 255.231 174.52 255.494 173.657C255.757 172.794 256.201 171.997 256.797 171.319C257.393 170.641 258.126 170.099 258.948 169.727C259.771 169.356 260.663 169.164 261.565 169.165H292.572C293.474 169.165 294.366 168.972 295.189 168.6C296.011 168.227 296.744 167.684 297.34 167.006C297.936 166.327 298.38 165.53 298.642 164.666C298.905 163.803 298.981 162.893 298.864 161.998L297.548 151.704C297.351 150.173 296.602 148.766 295.442 147.748C294.283 146.729 292.791 146.168 291.248 146.169H256.967C255.424 146.169 253.934 145.606 252.776 144.586C251.617 143.566 250.871 142.159 250.675 140.628L244.08 89.5436C243.883 88.0121 243.134 86.6049 241.975 85.585C240.815 84.5651 239.324 84.0023 237.78 84.0018H227.594C226.691 84.0021 225.799 84.1948 224.976 84.5671C224.153 84.9394 223.42 85.4827 222.824 86.1609C222.227 86.8391 221.783 87.6365 221.519 88.5001C221.255 89.3637 221.178 90.2735 221.294 91.169L227.486 138.987C227.601 139.882 227.525 140.792 227.261 141.656C226.997 142.519 226.552 143.317 225.956 143.995C225.36 144.673 224.626 145.216 223.804 145.589C222.981 145.961 222.088 146.154 221.185 146.154H138.159C136.615 146.153 135.125 145.59 133.967 144.57C132.808 143.55 132.062 142.143 131.866 140.612L125.271 89.5282C125.076 87.9973 124.329 86.5902 123.171 85.5701C122.012 84.5501 120.522 83.987 118.979 83.9863H108.793C107.89 83.9866 106.997 84.1793 106.175 84.5516C105.352 84.9239 104.618 85.4673 104.022 86.1454C103.426 86.8236 102.981 87.621 102.718 88.4846C102.454 89.3482 102.377 90.258 102.493 91.1536L108.685 138.971C108.8 139.867 108.723 140.777 108.46 141.64C108.196 142.504 107.751 143.301 107.155 143.979C106.559 144.658 105.825 145.201 105.002 145.573C104.18 145.946 103.287 146.138 102.384 146.139H71.3546C70.452 146.138 69.5596 146.329 68.737 146.701C67.9143 147.072 67.1804 147.615 66.5841 148.292C65.9878 148.97 65.543 149.767 65.2791 150.63C65.0153 151.493 64.9386 152.403 65.0542 153.298L66.3855 163.584C66.5814 165.117 67.3294 166.525 68.4892 167.545C69.6491 168.565 71.1412 169.127 72.6858 169.126H106.966C108.51 169.125 110.001 169.686 111.161 170.705C112.32 171.723 113.069 173.13 113.267 174.66L120.387 229.831C120.503 230.726 120.426 231.636 120.163 232.499C119.899 233.362 119.454 234.159 118.858 234.837C118.261 235.514 117.527 236.057 116.705 236.428C115.882 236.8 114.99 236.991 114.087 236.991H83.0807C82.1777 236.991 81.2852 237.184 80.4626 237.556C79.64 237.928 78.9061 238.472 78.31 239.15C77.7138 239.828 77.269 240.625 77.0053 241.489C76.7415 242.352 76.6648 243.262 76.7803 244.158L78.1116 254.444C78.3073 255.975 79.0542 257.382 80.2124 258.402C81.3706 259.422 82.8608 259.985 84.4042 259.986H118.692C120.236 259.985 121.727 260.546 122.887 261.564C124.046 262.583 124.795 263.989 124.993 265.52L131.579 316.604C131.777 318.136 132.525 319.543 133.685 320.563C134.844 321.583 136.336 322.146 137.88 322.146H148.066C148.969 322.146 149.861 321.953 150.684 321.581C151.506 321.209 152.24 320.665 152.836 319.987C153.433 319.309 153.877 318.511 154.141 317.648C154.405 316.784 154.482 315.874 154.366 314.979L148.174 267.161C148.068 266.269 148.152 265.365 148.421 264.509C148.69 263.652 149.138 262.862 149.735 262.191C150.332 261.52 151.064 260.984 151.884 260.617C152.704 260.25 153.592 260.062 154.49 260.064H237.494C239.034 260.057 240.524 260.611 241.686 261.622C242.848 262.633 243.603 264.033 243.809 265.559L250.396 316.643C250.594 318.175 251.342 319.582 252.502 320.602C253.661 321.622 255.152 322.184 256.697 322.185H266.882C267.785 322.185 268.677 321.992 269.5 321.62C270.322 321.247 271.055 320.704 271.651 320.025C272.247 319.347 272.691 318.55 272.953 317.686C273.216 316.822 273.292 315.913 273.175 315.018L266.983 267.2C266.867 266.305 266.944 265.395 267.208 264.532C267.472 263.669 267.917 262.872 268.513 262.194C269.109 261.517 269.843 260.974 270.666 260.603C271.488 260.231 272.381 260.04 273.283 260.04H304.29C305.195 260.041 306.09 259.849 306.915 259.476C307.739 259.104 308.475 258.559 309.072 257.879C309.669 257.199 310.115 256.399 310.378 255.533C310.641 254.667 310.716 253.755 310.598 252.858ZM143.584 231.495L136.471 176.325C136.356 175.43 136.432 174.521 136.696 173.659C136.959 172.796 137.403 171.999 137.999 171.322C138.594 170.644 139.327 170.102 140.149 169.73C140.97 169.358 141.862 169.165 142.764 169.165H225.768C227.311 169.164 228.802 169.725 229.962 170.743C231.122 171.762 231.87 173.168 232.068 174.699L239.165 229.878C239.281 230.773 239.204 231.682 238.941 232.545C238.677 233.409 238.232 234.206 237.636 234.883C237.039 235.561 236.305 236.103 235.483 236.475C234.66 236.846 233.768 237.038 232.865 237.037H149.885C148.34 237.037 146.849 236.474 145.69 235.454C144.53 234.434 143.782 233.027 143.584 231.495Z" fill="black"/>
<path d="M164.436 290.025L163.662 284.143L164.436 284.042L165.21 289.925L164.436 290.025ZM273.028 210.923L270.303 189.831L271.077 189.738L273.794 210.822L273.028 210.923ZM144.296 133.956L143.189 125.488L143.963 125.388L145.062 133.902L144.296 133.956ZM142.531 120.279L140.674 105.906L141.448 105.806L143.298 120.179L142.531 120.279Z" fill="#FFC100"/>
<path opacity="0.3" d="M164.436 290.025L163.662 284.143L164.436 284.042L165.21 289.925L164.436 290.025ZM273.028 210.923L270.303 189.831L271.077 189.738L273.794 210.822L273.028 210.923ZM144.296 133.956L143.189 125.488L143.963 125.388L145.062 133.902L144.296 133.956ZM142.531 120.279L140.674 105.906L141.448 105.806L143.298 120.179L142.531 120.279Z" fill="black"/>
<path d="M321.984 252.858L320.653 242.571C320.456 241.04 319.707 239.633 318.548 238.613C317.388 237.593 315.897 237.03 314.353 237.029H280.064C278.522 237.029 277.033 236.467 275.875 235.449C274.717 234.43 273.969 233.025 273.772 231.495L266.651 176.325C266.537 175.43 266.614 174.521 266.879 173.658C267.143 172.795 267.588 171.999 268.184 171.322C268.78 170.644 269.513 170.102 270.335 169.73C271.157 169.358 272.049 169.166 272.951 169.165H303.958C304.861 169.165 305.753 168.972 306.576 168.6C307.399 168.228 308.132 167.684 308.729 167.006C309.325 166.328 309.769 165.53 310.033 164.667C310.297 163.803 310.374 162.893 310.258 161.998L308.888 151.704C308.692 150.174 307.945 148.767 306.787 147.749C305.628 146.73 304.138 146.168 302.596 146.17H268.307C266.763 146.169 265.272 145.606 264.112 144.586C262.953 143.567 262.205 142.159 262.007 140.628L255.42 89.5438C255.223 88.0123 254.474 86.605 253.315 85.5851C252.155 84.5652 250.664 84.0024 249.12 84.002H238.934C238.031 84.0022 237.139 84.195 236.316 84.5673C235.493 84.9396 234.76 85.4829 234.163 86.1611C233.567 86.8392 233.122 87.6367 232.859 88.5002C232.595 89.3638 232.518 90.2737 232.634 91.1692L238.826 138.987C238.941 139.882 238.865 140.792 238.601 141.656C238.337 142.519 237.892 143.317 237.296 143.995C236.7 144.673 235.966 145.217 235.143 145.589C234.321 145.961 233.428 146.154 232.525 146.154H149.506C147.963 146.158 146.471 145.6 145.308 144.585C144.146 143.569 143.393 142.166 143.19 140.636L136.604 89.5515C136.406 88.02 135.658 86.6128 134.498 85.5929C133.339 84.573 131.847 84.0102 130.303 84.0097H120.133C119.23 84.0098 118.338 84.2025 117.516 84.5749C116.693 84.9473 115.96 85.4907 115.364 86.1691C114.769 86.8474 114.325 87.645 114.062 88.5086C113.799 89.3721 113.724 90.2818 113.84 91.1769L120.032 138.995C120.148 139.89 120.071 140.8 119.807 141.664C119.543 142.527 119.099 143.325 118.503 144.003C117.906 144.681 117.173 145.224 116.35 145.597C115.527 145.969 114.635 146.162 113.732 146.162H82.7022C81.7996 146.161 80.9072 146.353 80.0846 146.724C79.262 147.096 78.5281 147.638 77.9318 148.316C77.3355 148.993 76.8906 149.79 76.6268 150.654C76.363 151.517 76.2863 152.426 76.4019 153.321L77.7254 163.608C77.9229 165.139 78.6713 166.547 79.8308 167.567C80.9903 168.586 82.4815 169.149 84.0258 169.15H118.314C119.857 169.148 121.349 169.709 122.508 170.728C123.668 171.747 124.417 173.153 124.614 174.684L131.727 229.878C131.844 230.772 131.769 231.682 131.506 232.545C131.243 233.408 130.799 234.205 130.203 234.883C129.607 235.561 128.874 236.104 128.052 236.475C127.229 236.847 126.337 237.038 125.435 237.037H94.4283C93.5256 237.037 92.6334 237.23 91.8111 237.602C90.9888 237.975 90.2554 238.518 89.6598 239.197C89.0643 239.875 88.6203 240.673 88.3574 241.536C88.0946 242.4 88.019 243.309 88.1357 244.204L89.4592 254.491C89.6567 256.022 90.4052 257.43 91.5647 258.45C92.7242 259.469 94.2154 260.032 95.7596 260.033H130.032C131.575 260.032 133.065 260.593 134.223 261.612C135.382 262.63 136.129 264.037 136.325 265.567L142.919 316.651C143.117 318.182 143.865 319.59 145.025 320.61C146.184 321.629 147.676 322.192 149.22 322.193H159.444C160.347 322.192 161.24 322 162.062 321.627C162.885 321.255 163.619 320.712 164.215 320.034C164.811 319.355 165.256 318.558 165.52 317.694C165.783 316.831 165.86 315.921 165.745 315.025L159.553 267.208C159.437 266.313 159.514 265.403 159.778 264.54C160.041 263.677 160.486 262.88 161.083 262.202C161.679 261.525 162.413 260.982 163.235 260.611C164.058 260.239 164.95 260.047 165.853 260.048H248.841C250.383 260.049 251.873 260.611 253.031 261.629C254.189 262.648 254.936 264.053 255.134 265.582L261.728 316.666C261.924 318.197 262.671 319.604 263.829 320.624C264.987 321.644 266.478 322.207 268.021 322.208H278.207C279.11 322.208 280.002 322.015 280.825 321.643C281.648 321.271 282.381 320.727 282.978 320.049C283.574 319.371 284.019 318.573 284.282 317.71C284.546 316.846 284.623 315.936 284.507 315.041L278.315 267.223C278.2 266.329 278.276 265.42 278.54 264.557C278.803 263.695 279.247 262.898 279.843 262.221C280.438 261.543 281.171 261 281.993 260.628C282.814 260.257 283.706 260.064 284.608 260.064H315.622C316.534 260.073 317.437 259.886 318.27 259.515C319.103 259.145 319.847 258.599 320.451 257.915C321.054 257.232 321.504 256.426 321.768 255.554C322.033 254.681 322.107 253.761 321.984 252.858ZM154.971 231.495L147.834 176.325C147.72 175.43 147.798 174.521 148.062 173.658C148.326 172.795 148.771 171.999 149.367 171.322C149.963 170.644 150.697 170.102 151.519 169.73C152.341 169.358 153.232 169.166 154.135 169.165H237.115C238.658 169.165 240.149 169.727 241.308 170.745C242.467 171.764 243.216 173.169 243.416 174.699L250.529 229.878C250.644 230.772 250.568 231.681 250.304 232.544C250.041 233.406 249.597 234.203 249.001 234.88C248.406 235.558 247.673 236.101 246.851 236.473C246.029 236.844 245.138 237.037 244.236 237.037H161.232C159.688 237.038 158.195 236.476 157.036 235.456C155.876 234.436 155.128 233.028 154.932 231.495H154.971Z" fill="#FFC100"/>
<path opacity="0.3" d="M321.984 252.858L320.653 242.571C320.456 241.04 319.707 239.633 318.548 238.613C317.388 237.593 315.897 237.03 314.353 237.029H280.064C278.522 237.029 277.033 236.467 275.875 235.449C274.717 234.43 273.969 233.025 273.772 231.495L266.651 176.325C266.537 175.43 266.614 174.521 266.879 173.658C267.143 172.795 267.588 171.999 268.184 171.322C268.78 170.644 269.513 170.102 270.335 169.73C271.157 169.358 272.049 169.166 272.951 169.165H303.958C304.861 169.165 305.753 168.972 306.576 168.6C307.399 168.228 308.132 167.684 308.729 167.006C309.325 166.328 309.769 165.53 310.033 164.667C310.297 163.803 310.374 162.893 310.258 161.998L308.888 151.704C308.692 150.174 307.945 148.767 306.787 147.749C305.628 146.73 304.138 146.168 302.596 146.17H268.307C266.763 146.169 265.272 145.606 264.112 144.586C262.953 143.567 262.205 142.159 262.007 140.628L255.42 89.5438C255.223 88.0123 254.474 86.605 253.315 85.5851C252.155 84.5652 250.664 84.0024 249.12 84.002H238.934C238.031 84.0022 237.139 84.195 236.316 84.5673C235.493 84.9396 234.76 85.4829 234.163 86.1611C233.567 86.8392 233.122 87.6367 232.859 88.5002C232.595 89.3638 232.518 90.2737 232.634 91.1692L238.826 138.987C238.941 139.882 238.865 140.792 238.601 141.656C238.337 142.519 237.892 143.317 237.296 143.995C236.7 144.673 235.966 145.217 235.143 145.589C234.321 145.961 233.428 146.154 232.525 146.154H149.506C147.963 146.158 146.471 145.6 145.308 144.585C144.146 143.569 143.393 142.166 143.19 140.636L136.604 89.5515C136.406 88.02 135.658 86.6128 134.498 85.5929C133.339 84.573 131.847 84.0102 130.303 84.0097H120.133C119.23 84.0098 118.338 84.2025 117.516 84.5749C116.693 84.9473 115.96 85.4907 115.364 86.1691C114.769 86.8474 114.325 87.645 114.062 88.5086C113.799 89.3721 113.724 90.2818 113.84 91.1769L120.032 138.995C120.148 139.89 120.071 140.8 119.807 141.664C119.543 142.527 119.099 143.325 118.503 144.003C117.906 144.681 117.173 145.224 116.35 145.597C115.527 145.969 114.635 146.162 113.732 146.162H82.7022C81.7996 146.161 80.9072 146.353 80.0846 146.724C79.262 147.096 78.5281 147.638 77.9318 148.316C77.3355 148.993 76.8906 149.79 76.6268 150.654C76.363 151.517 76.2863 152.426 76.4019 153.321L77.7254 163.608C77.9229 165.139 78.6713 166.547 79.8308 167.567C80.9903 168.586 82.4815 169.149 84.0258 169.15H118.314C119.857 169.148 121.349 169.709 122.508 170.728C123.668 171.747 124.417 173.153 124.614 174.684L131.727 229.878C131.844 230.772 131.769 231.682 131.506 232.545C131.243 233.408 130.799 234.205 130.203 234.883C129.607 235.561 128.874 236.104 128.052 236.475C127.229 236.847 126.337 237.038 125.435 237.037H94.4283C93.5256 237.037 92.6334 237.23 91.8111 237.602C90.9888 237.975 90.2554 238.518 89.6598 239.197C89.0643 239.875 88.6203 240.673 88.3574 241.536C88.0946 242.4 88.019 243.309 88.1357 244.204L89.4592 254.491C89.6567 256.022 90.4052 257.43 91.5647 258.45C92.7242 259.469 94.2154 260.032 95.7596 260.033H130.032C131.575 260.032 133.065 260.593 134.223 261.612C135.382 262.63 136.129 264.037 136.325 265.567L142.919 316.651C143.117 318.182 143.865 319.59 145.025 320.61C146.184 321.629 147.676 322.192 149.22 322.193H159.444C160.347 322.192 161.24 322 162.062 321.627C162.885 321.255 163.619 320.712 164.215 320.034C164.811 319.355 165.256 318.558 165.52 317.694C165.783 316.831 165.86 315.921 165.745 315.025L159.553 267.208C159.437 266.313 159.514 265.403 159.778 264.54C160.041 263.677 160.486 262.88 161.083 262.202C161.679 261.525 162.413 260.982 163.235 260.611C164.058 260.239 164.95 260.047 165.853 260.048H248.841C250.383 260.049 251.873 260.611 253.031 261.629C254.189 262.648 254.936 264.053 255.134 265.582L261.728 316.666C261.924 318.197 262.671 319.604 263.829 320.624C264.987 321.644 266.478 322.207 268.021 322.208H278.207C279.11 322.208 280.002 322.015 280.825 321.643C281.648 321.271 282.381 320.727 282.978 320.049C283.574 319.371 284.019 318.573 284.282 317.71C284.546 316.846 284.623 315.936 284.507 315.041L278.315 267.223C278.2 266.329 278.276 265.42 278.54 264.557C278.803 263.695 279.247 262.898 279.843 262.221C280.438 261.543 281.171 261 281.993 260.628C282.814 260.257 283.706 260.064 284.608 260.064H315.622C316.534 260.073 317.437 259.886 318.27 259.515C319.103 259.145 319.847 258.599 320.451 257.915C321.054 257.232 321.504 256.426 321.768 255.554C322.033 254.681 322.107 253.761 321.984 252.858ZM154.971 231.495L147.834 176.325C147.72 175.43 147.798 174.521 148.062 173.658C148.326 172.795 148.771 171.999 149.367 171.322C149.963 170.644 150.697 170.102 151.519 169.73C152.341 169.358 153.232 169.166 154.135 169.165H237.115C238.658 169.165 240.149 169.727 241.308 170.745C242.467 171.764 243.216 173.169 243.416 174.699L250.529 229.878C250.644 230.772 250.568 231.681 250.304 232.544C250.041 233.406 249.597 234.203 249.001 234.88C248.406 235.558 247.673 236.101 246.851 236.473C246.029 236.844 245.138 237.037 244.236 237.037H161.232C159.688 237.038 158.195 236.476 157.036 235.456C155.876 234.436 155.128 233.028 154.932 231.495H154.971Z" fill="black"/>
<path d="M278.205 319.94H268.019C267.017 319.939 266.05 319.573 265.298 318.91C264.546 318.248 264.06 317.335 263.933 316.341L257.338 265.257C257.068 263.19 256.055 261.291 254.488 259.916C252.922 258.54 250.909 257.781 248.824 257.78H165.836C164.616 257.779 163.41 258.038 162.298 258.539C161.187 259.041 160.195 259.775 159.389 260.69C158.583 261.606 157.982 262.683 157.625 263.85C157.269 265.016 157.165 266.245 157.322 267.455L163.514 315.273C163.589 315.854 163.539 316.444 163.367 317.005C163.195 317.565 162.906 318.083 162.519 318.522C162.131 318.962 161.654 319.314 161.119 319.554C160.585 319.795 160.005 319.918 159.419 319.917H149.226C148.222 319.917 147.253 319.552 146.499 318.89C145.746 318.227 145.259 317.313 145.131 316.318L138.545 265.234C138.271 263.168 137.257 261.271 135.691 259.896C134.126 258.521 132.114 257.761 130.031 257.757H95.7423C94.7398 257.754 93.7723 257.388 93.0193 256.726C92.2663 256.064 91.779 255.152 91.6479 254.158L90.3243 243.871C90.2495 243.29 90.2993 242.701 90.4705 242.141C90.6417 241.581 90.9303 241.064 91.317 240.625C91.7038 240.185 92.1798 239.833 92.7133 239.592C93.2469 239.351 93.8256 239.227 94.4111 239.227H125.425C126.645 239.227 127.85 238.967 128.961 238.465C130.072 237.963 131.064 237.229 131.869 236.314C132.675 235.399 133.276 234.322 133.633 233.156C133.99 231.99 134.094 230.762 133.939 229.552L126.818 174.389C126.548 172.321 125.536 170.422 123.969 169.045C122.403 167.668 120.39 166.908 118.304 166.905H84.0162C83.0153 166.904 82.0488 166.539 81.297 165.878C80.5451 165.217 80.0591 164.306 79.9295 163.313L78.5982 153.019C78.5233 152.438 78.5733 151.847 78.745 151.287C78.9166 150.726 79.2059 150.209 79.5935 149.77C79.9811 149.33 80.458 148.978 80.9925 148.738C81.527 148.497 82.1066 148.374 82.6927 148.375H113.699C114.919 148.376 116.125 148.117 117.237 147.615C118.348 147.114 119.34 146.38 120.146 145.465C120.952 144.549 121.553 143.472 121.909 142.305C122.266 141.139 122.369 139.91 122.213 138.7L116.021 90.8823C115.946 90.3017 115.996 89.7118 116.167 89.1519C116.339 88.5921 116.627 88.0752 117.014 87.6357C117.401 87.1962 117.877 86.8443 118.41 86.6033C118.944 86.3623 119.522 86.2379 120.108 86.2383H130.294C131.296 86.2409 132.264 86.6071 133.017 87.269C133.77 87.9309 134.257 88.8435 134.388 89.8374L140.975 140.921C141.247 142.988 142.26 144.885 143.826 146.26C145.392 147.636 147.405 148.395 149.489 148.398H232.508C233.728 148.399 234.934 148.141 236.046 147.639C237.157 147.137 238.149 146.403 238.955 145.488C239.761 144.572 240.362 143.495 240.718 142.329C241.075 141.162 241.178 139.933 241.022 138.723L234.83 90.9055C234.755 90.3249 234.805 89.735 234.976 89.1751C235.148 88.6153 235.436 88.0984 235.823 87.6589C236.21 87.2194 236.686 86.8675 237.219 86.6265C237.753 86.3855 238.331 86.2611 238.917 86.2615H249.103C250.105 86.2658 251.071 86.6326 251.824 87.2941C252.577 87.9557 253.064 88.8674 253.197 89.8606L259.784 140.945C260.054 143.012 261.067 144.91 262.634 146.286C264.2 147.661 266.213 148.42 268.298 148.421H302.633C303.634 148.424 304.601 148.791 305.352 149.453C306.104 150.115 306.59 151.027 306.719 152.021L308.051 162.284C308.125 162.865 308.075 163.456 307.904 164.016C307.732 164.576 307.443 165.094 307.055 165.533C306.668 165.973 306.191 166.325 305.656 166.565C305.122 166.806 304.542 166.929 303.956 166.928H272.911C271.692 166.928 270.486 167.188 269.375 167.69C268.264 168.192 267.273 168.925 266.467 169.841C265.662 170.756 265.06 171.833 264.703 172.999C264.346 174.165 264.242 175.393 264.397 176.603L271.518 231.774C271.788 233.841 272.801 235.739 274.367 237.114C275.934 238.49 277.947 239.249 280.032 239.25H314.32C315.323 239.251 316.291 239.617 317.045 240.279C317.798 240.941 318.285 241.855 318.414 242.849L319.738 253.136C319.813 253.717 319.763 254.306 319.592 254.866C319.421 255.426 319.132 255.943 318.745 256.382C318.359 256.822 317.883 257.174 317.349 257.415C316.815 257.656 316.237 257.78 315.651 257.78H284.637C283.417 257.776 282.209 258.033 281.096 258.534C279.983 259.036 278.991 259.769 278.184 260.685C277.378 261.601 276.777 262.679 276.421 263.847C276.066 265.015 275.964 266.245 276.123 267.455L282.315 315.273C282.387 315.853 282.336 316.443 282.163 317.002C281.99 317.562 281.701 318.078 281.314 318.517C280.927 318.956 280.451 319.308 279.918 319.549C279.384 319.79 278.806 319.916 278.221 319.917L278.205 319.94ZM165.836 257.602H248.84C250.969 257.606 253.025 258.384 254.623 259.791C256.222 261.198 257.256 263.137 257.532 265.249L264.126 316.333C264.248 317.276 264.707 318.143 265.418 318.773C266.13 319.403 267.045 319.755 267.996 319.762H278.182C278.739 319.759 279.288 319.638 279.795 319.406C280.301 319.174 280.752 318.837 281.118 318.418C281.484 317.998 281.757 317.506 281.918 316.973C282.079 316.44 282.124 315.879 282.052 315.327L275.86 267.509C275.7 266.273 275.806 265.017 276.17 263.824C276.535 262.632 277.149 261.531 277.972 260.595C278.796 259.659 279.809 258.909 280.945 258.396C282.081 257.882 283.313 257.617 284.56 257.617H315.566C316.123 257.614 316.673 257.493 317.179 257.261C317.685 257.03 318.136 256.693 318.502 256.273C318.868 255.854 319.141 255.361 319.302 254.828C319.463 254.295 319.509 253.734 319.436 253.182L318.105 242.896C317.983 241.953 317.524 241.086 316.813 240.456C316.101 239.826 315.185 239.474 314.235 239.467H279.947C277.818 239.461 275.763 238.682 274.164 237.276C272.566 235.87 271.532 233.931 271.255 231.82L264.134 176.649C263.974 175.413 264.08 174.157 264.444 172.965C264.809 171.772 265.423 170.672 266.246 169.735C267.069 168.799 268.083 168.05 269.219 167.536C270.355 167.023 271.587 166.757 272.834 166.758H303.84C304.397 166.755 304.946 166.633 305.453 166.401C305.959 166.17 306.41 165.833 306.776 165.413C307.142 164.994 307.415 164.501 307.576 163.968C307.737 163.436 307.782 162.874 307.71 162.322L306.503 152.021C306.378 151.079 305.918 150.214 305.207 149.584C304.496 148.955 303.582 148.602 302.633 148.592H268.344C266.214 148.587 264.157 147.81 262.557 146.403C260.957 144.997 259.922 143.057 259.645 140.945L253.058 89.8606C252.935 88.9185 252.475 88.0526 251.764 87.4225C251.053 86.7924 250.138 86.4406 249.188 86.4318H238.932C238.376 86.436 237.827 86.5582 237.321 86.7903C236.816 87.0224 236.365 87.3592 235.999 87.7784C235.634 88.1976 235.361 88.6897 235.199 89.222C235.038 89.7544 234.991 90.315 235.062 90.8668L241.254 138.685C241.419 139.927 241.316 141.191 240.951 142.39C240.586 143.589 239.969 144.696 239.14 145.637C238.311 146.577 237.29 147.329 236.146 147.841C235.002 148.354 233.762 148.615 232.508 148.607H149.504C147.374 148.603 145.318 147.825 143.717 146.419C142.117 145.012 141.082 143.072 140.805 140.96L134.218 89.8761C134.095 88.934 133.635 88.0681 132.924 87.438C132.213 86.8079 131.298 86.456 130.348 86.4473H120.131C119.574 86.4502 119.025 86.5716 118.518 86.8033C118.012 87.0351 117.561 87.3718 117.195 87.7913C116.829 88.2108 116.556 88.7034 116.395 89.2363C116.234 89.7692 116.189 90.3303 116.261 90.8823L122.453 138.7C122.616 139.941 122.51 141.203 122.144 142.401C121.779 143.598 121.161 144.703 120.332 145.642C119.503 146.58 118.483 147.331 117.341 147.842C116.198 148.354 114.959 148.614 113.707 148.607H82.7004C82.1441 148.611 81.595 148.734 81.0894 148.966C80.5838 149.198 80.1332 149.535 79.7674 149.954C79.4016 150.373 79.129 150.865 78.9675 151.397C78.8059 151.93 78.7592 152.49 78.8304 153.042L80.123 163.313C80.2462 164.255 80.7057 165.121 81.4168 165.751C82.128 166.381 83.0429 166.733 83.993 166.742H118.281C120.412 166.746 122.468 167.524 124.068 168.931C125.668 170.337 126.703 172.277 126.981 174.389L134.094 229.56C134.255 230.796 134.15 232.052 133.787 233.244C133.423 234.436 132.81 235.537 131.987 236.473C131.165 237.41 130.152 238.16 129.016 238.673C127.88 239.187 126.648 239.452 125.402 239.452H94.4265C93.8698 239.455 93.3201 239.576 92.8139 239.808C92.3077 240.039 91.8566 240.376 91.4906 240.796C91.1245 241.215 90.8519 241.708 90.6909 242.241C90.5299 242.774 90.484 243.335 90.5565 243.887L91.8801 254.173C92.0032 255.115 92.4627 255.981 93.1739 256.611C93.8851 257.241 94.8 257.593 95.7501 257.602H130.031C132.16 257.606 134.216 258.384 135.814 259.791C137.413 261.198 138.447 263.137 138.723 265.249L145.317 316.333C145.439 317.276 145.898 318.143 146.609 318.773C147.321 319.403 148.236 319.755 149.187 319.762H159.443C159.999 319.759 160.549 319.638 161.055 319.406C161.561 319.174 162.012 318.837 162.379 318.418C162.745 317.998 163.017 317.506 163.178 316.973C163.339 316.44 163.385 315.879 163.313 315.327L157.121 267.509C156.961 266.273 157.067 265.017 157.431 263.824C157.795 262.632 158.41 261.531 159.233 260.595C160.056 259.659 161.07 258.909 162.205 258.396C163.341 257.882 164.574 257.617 165.82 257.617L165.836 257.602ZM244.234 239.452H161.23C159.1 239.447 157.044 238.67 155.443 237.263C153.843 235.856 152.808 233.917 152.531 231.804L145.41 176.634C145.25 175.397 145.356 174.141 145.721 172.949C146.085 171.757 146.699 170.656 147.522 169.72C148.346 168.784 149.359 168.034 150.495 167.521C151.631 167.007 152.863 166.742 154.11 166.742H237.113C239.244 166.746 241.3 167.524 242.9 168.931C244.501 170.337 245.536 172.277 245.813 174.389L252.926 229.56C253.086 230.796 252.98 232.051 252.616 233.243C252.252 234.434 251.639 235.535 250.816 236.471C249.994 237.407 248.982 238.157 247.847 238.671C246.712 239.185 245.48 239.451 244.234 239.452ZM154.11 166.936C152.89 166.936 151.685 167.195 150.574 167.698C149.463 168.2 148.471 168.933 147.666 169.849C146.86 170.764 146.259 171.841 145.902 173.006C145.545 174.172 145.441 175.401 145.596 176.611L152.716 231.781C152.988 233.848 154.002 235.745 155.568 237.12C157.134 238.496 159.146 239.255 161.23 239.258H244.234C245.454 239.259 246.66 239 247.772 238.499C248.883 237.997 249.875 237.263 250.681 236.348C251.487 235.432 252.088 234.355 252.445 233.188C252.801 232.022 252.905 230.793 252.748 229.583L245.635 174.42C245.365 172.352 244.352 170.453 242.786 169.076C241.22 167.699 239.207 166.939 237.121 166.936H154.11Z" fill="#FFC100"/>
<path d="M213.561 290.126L219.636 293.679L228.808 280.149L222.732 276.589L213.561 290.126Z" fill="#E4897B"/>
<path d="M219.853 293.478L214.861 287.34C214.777 287.233 214.656 287.16 214.522 287.136C214.388 287.112 214.25 287.137 214.133 287.208L208.715 290.459C208.581 290.546 208.467 290.66 208.381 290.794C208.294 290.928 208.236 291.078 208.211 291.236C208.186 291.394 208.195 291.555 208.236 291.709C208.278 291.863 208.351 292.007 208.452 292.131C210.232 294.236 211.2 295.165 213.398 297.866C214.745 299.53 217.369 303.106 219.242 305.397C221.115 307.688 223.475 305.962 222.903 304.84C220.333 299.809 220.232 297.1 220.271 294.662C220.277 294.23 220.129 293.81 219.853 293.478Z" fill="#263238"/>
<path d="M222.137 297.324H221.99C220.999 297.169 219.947 295.436 219.413 294.422C219.401 294.401 219.396 294.376 219.399 294.352C219.402 294.329 219.412 294.306 219.428 294.288C219.445 294.27 219.466 294.258 219.489 294.253C219.513 294.248 219.537 294.25 219.56 294.259C219.885 294.398 222.749 295.66 222.927 296.581C222.942 296.664 222.936 296.75 222.908 296.83C222.881 296.909 222.834 296.981 222.772 297.038C222.691 297.126 222.593 297.197 222.484 297.246C222.375 297.295 222.257 297.322 222.137 297.324ZM219.815 294.6C220.628 296.063 221.464 296.984 222.06 297.076C222.166 297.095 222.274 297.086 222.376 297.051C222.477 297.016 222.568 296.955 222.64 296.875C222.673 296.844 222.698 296.805 222.713 296.762C222.728 296.719 222.732 296.673 222.725 296.628C222.578 296.008 220.775 295.056 219.815 294.6Z" fill="#FFC100"/>
<path d="M221.798 294.893C221 294.887 220.212 294.727 219.476 294.421C219.457 294.414 219.442 294.401 219.431 294.384C219.42 294.368 219.414 294.348 219.414 294.328C219.41 294.308 219.413 294.287 219.421 294.267C219.429 294.248 219.443 294.232 219.46 294.22C219.53 294.174 221.093 293.113 222.2 293.33C222.357 293.36 222.507 293.421 222.64 293.51C222.773 293.599 222.887 293.714 222.974 293.849C223.214 294.212 223.121 294.444 222.974 294.568C222.638 294.823 222.217 294.939 221.798 294.893ZM219.762 294.297C220.714 294.677 222.463 294.808 222.819 294.414C222.819 294.375 222.951 294.266 222.757 293.98C222.689 293.871 222.599 293.778 222.492 293.706C222.385 293.634 222.265 293.585 222.138 293.562C221.286 293.566 220.456 293.834 219.762 294.328V294.297Z" fill="#FFC100"/>
<path d="M204.027 183.538L204.321 184.715L204.654 185.984C204.878 186.835 205.133 187.694 205.389 188.554C205.905 190.272 206.449 191.988 207.022 193.701C207.626 195.403 208.206 197.122 208.864 198.817C209.181 199.66 209.499 200.52 209.832 201.363L210.226 202.377C210.309 202.552 210.413 202.716 210.536 202.865C211.501 203.836 212.673 204.577 213.965 205.032C215.549 205.676 217.182 206.194 218.849 206.58C220.567 206.983 222.332 207.315 224.12 207.594C225.908 207.873 227.742 208.089 229.538 208.283L229.6 211.928C225.74 212.33 221.849 212.33 217.99 211.928C215.97 211.726 213.972 211.34 212.022 210.775C210.957 210.458 209.922 210.052 208.926 209.56C207.785 209.008 206.739 208.276 205.83 207.393C205.303 206.869 204.848 206.278 204.476 205.636C204.371 205.468 204.275 205.295 204.189 205.117L204.011 204.753L203.702 204.111C203.284 203.252 202.866 202.393 202.479 201.518C201.705 199.769 200.931 198.012 200.249 196.216C199.568 194.421 198.91 192.609 198.322 190.798C198.036 189.869 197.765 188.933 197.548 187.989L197.177 186.549C197.068 186.046 196.968 185.612 196.859 185.001L204.027 183.538Z" fill="#E4897B"/>
<path d="M201.727 175.867C204.63 176.603 206.665 188.553 206.665 188.553L198.662 193.971C198.662 193.971 190.992 181.92 193.244 178.723C195.551 175.426 197.493 174.784 201.727 175.867Z" fill="#FFC100"/>
<path opacity="0.2" d="M201.727 175.867C204.63 176.603 206.665 188.553 206.665 188.553L198.662 193.971C198.662 193.971 190.992 181.92 193.244 178.723C195.551 175.426 197.493 174.784 201.727 175.867Z" fill="black"/>
<path d="M202.013 180.21L195.821 181.65L195.225 187.725C196.278 189.873 197.441 191.966 198.708 193.995L203.561 190.698C203.305 187.904 202.787 182.099 202.013 180.21Z" fill="#FFC100"/>
<path opacity="0.3" d="M202.013 180.21L195.821 181.65L195.225 187.725C196.278 189.873 197.441 191.966 198.708 193.995L203.561 190.698C203.305 187.904 202.787 182.099 202.013 180.21Z" fill="black"/>
<path d="M228.468 208.206L233.46 203.144L234.118 210.272C234.118 210.272 230.372 212.811 227.779 211.449L228.468 208.206Z" fill="#E4897B"/>
<path d="M239.336 202.377L239.56 208.383L234.119 210.264L233.461 203.135L239.336 202.377Z" fill="#E4897B"/>
<path d="M203.539 304.05H210.582L212.85 287.734H205.799L203.539 304.05Z" fill="#E4897B"/>
<path d="M211.046 301.945L204.08 298.222C203.961 298.157 203.822 298.137 203.69 298.167C203.557 298.197 203.44 298.274 203.36 298.385L199.622 303.485C199.533 303.617 199.473 303.767 199.445 303.924C199.417 304.081 199.423 304.242 199.462 304.397C199.5 304.552 199.571 304.697 199.669 304.822C199.768 304.948 199.891 305.051 200.032 305.126C202.486 306.38 203.74 306.86 206.812 308.493C208.701 309.499 213.438 312.278 216.054 313.671C218.67 315.064 220.172 312.549 219.212 311.736C214.901 308.098 212.811 305.134 211.905 302.881C211.742 302.475 211.437 302.142 211.046 301.945Z" fill="#263238"/>
<path d="M172.176 148.352C171.998 156.092 162.524 152.896 161.464 161.812C160.868 166.82 154.799 167.338 153.724 171.874C152.671 176.263 156.951 179.451 153.724 184.916C149.405 192.23 146.99 204.986 171.224 206.309C189.242 207.292 195.581 188.987 192.524 177.741C189.467 166.495 187.764 164.761 191.116 161.665C194.467 158.569 199.838 157.021 198.12 147.563C196.789 140.248 193.554 141.108 193.554 141.108C193.391 137.067 172.601 131.131 172.176 148.352Z" fill="#263238"/>
<path d="M228.809 280.149L224.08 287.123L217.996 283.57L222.725 276.589L228.809 280.149Z" fill="#CE6F64"/>
<path d="M205.798 287.742H212.849L211.672 296.148H204.629L205.798 287.742Z" fill="#CE6F64"/>
<path d="M201.727 175.868C201.727 175.868 205.086 177.052 198.36 218.384H169.722C170.202 206.774 170.21 199.56 164.645 175.659C168.651 174.834 172.713 174.302 176.796 174.064C181.123 173.755 185.466 173.755 189.792 174.064C195.396 174.575 201.727 175.868 201.727 175.868Z" fill="#FFC100"/>
<path opacity="0.2" d="M201.727 175.868C201.727 175.868 205.086 177.052 198.36 218.384H169.722C170.202 206.774 170.21 199.56 164.645 175.659C168.651 174.834 172.713 174.302 176.796 174.064C181.123 173.755 185.466 173.755 189.792 174.064C195.396 174.575 201.727 175.868 201.727 175.868Z" fill="black"/>
<path d="M178.113 159.443C178.933 163.623 179.754 171.278 176.828 174.072C176.828 174.072 177.974 178.313 185.737 178.313C193.214 178.313 189.824 174.072 189.824 174.072C185.18 172.957 185.28 169.498 186.093 166.247L178.113 159.443Z" fill="#E4897B"/>
<path d="M181.362 162.215L186.084 166.24C185.884 167.001 185.752 167.778 185.689 168.562C183.901 168.306 181.455 166.348 181.269 164.483C181.165 163.727 181.196 162.959 181.362 162.215Z" fill="#CE6F64"/>
<path d="M177.624 148.422C176.85 155.388 176.324 158.282 179.172 162.431C183.445 168.669 192.152 168.143 195.016 161.58C197.594 155.674 198.484 145.326 192.245 141.37C190.874 140.494 189.302 139.983 187.678 139.886C186.054 139.789 184.432 140.109 182.967 140.816C181.502 141.523 180.241 142.592 179.306 143.924C178.371 145.255 177.792 146.803 177.624 148.422Z" fill="#E4897B"/>
<path d="M177.587 152.524C178.57 154.351 193.616 146.03 191.906 141.564C190.195 137.098 185.714 138.716 185.714 138.716C185.714 138.716 177.765 140.527 176.426 144.653C175.087 148.778 177.587 152.524 177.587 152.524Z" fill="#263238"/>
<path d="M174.691 153.321C174.83 154.662 175.475 155.899 176.494 156.781C177.856 157.934 179.211 156.905 179.397 155.233C179.567 153.739 179.064 151.363 177.431 150.821C175.797 150.279 174.536 151.704 174.691 153.321Z" fill="#E4897B"/>
<path d="M198.36 218.384C198.36 218.384 242.895 222.672 242.431 244.15C241.951 266.496 225.906 286.62 225.906 286.62L217.493 281.86C217.493 281.86 226.781 262.192 226.301 248.794C225.914 237.339 183.205 235.141 183.205 235.141L177.314 218.384H198.36Z" fill="#FFC100"/>
<path opacity="0.6" d="M198.36 218.384C198.36 218.384 242.895 222.672 242.431 244.15C241.951 266.496 225.906 286.62 225.906 286.62L217.493 281.86C217.493 281.86 226.781 262.192 226.301 248.794C225.914 237.339 183.205 235.141 183.205 235.141L177.314 218.384H198.36Z" fill="#FAFAFA"/>
<path d="M213.879 230.977L214.777 240.11C221.007 242.06 225.799 244.754 226.271 248.361C227.323 240.28 221.689 235.504 213.879 230.977Z" fill="#FFC100"/>
<path opacity="0.4" d="M213.879 230.977L214.777 240.11C221.007 242.06 225.799 244.754 226.271 248.361C227.323 240.28 221.689 235.504 213.879 230.977Z" fill="#FAFAFA"/>
<path d="M190.807 218.384C190.807 218.384 221.364 228.508 222.138 241.039C223.562 264.112 213.415 294.522 213.415 294.522H203.771C203.771 294.522 204.313 274.344 205.466 253.438C206.906 227.176 160.574 253.074 169.754 218.384H190.807Z" fill="#FFC100"/>
<path opacity="0.6" d="M190.807 218.384C190.807 218.384 221.364 228.508 222.138 241.039C223.562 264.112 213.415 294.522 213.415 294.522H203.771C203.771 294.522 204.313 274.344 205.466 253.438C206.906 227.176 160.574 253.074 169.754 218.384H190.807Z" fill="#FAFAFA"/>
<path d="M187.702 152.207C187.602 152.764 187.818 153.267 188.182 153.337C188.546 153.407 188.956 152.996 189.026 152.439C189.096 151.882 188.91 151.371 188.546 151.309C188.182 151.247 187.803 151.642 187.702 152.207Z" fill="#263238"/>
<path d="M194.018 153.336C193.925 153.894 194.134 154.397 194.506 154.466C194.877 154.536 195.28 154.134 195.349 153.569C195.419 153.004 195.233 152.508 194.862 152.439C194.49 152.369 194.119 152.771 194.018 153.336Z" fill="#263238"/>
<path d="M194.699 152.477L196.108 152.33C196.108 152.33 195.233 153.251 194.699 152.477Z" fill="#263238"/>
<path d="M192.177 154.025C192.443 155.369 192.888 156.67 193.5 157.895C193.177 158.044 192.826 158.12 192.471 158.12C192.116 158.12 191.764 158.044 191.441 157.895L192.177 154.025Z" fill="#DE5753"/>
<path d="M188.252 159.397H188.206C187.081 158.868 186.2 157.929 185.744 156.773C185.739 156.76 185.738 156.746 185.739 156.732C185.74 156.718 185.743 156.704 185.75 156.692C185.757 156.679 185.766 156.669 185.777 156.66C185.788 156.651 185.8 156.645 185.814 156.641C185.827 156.637 185.84 156.634 185.854 156.635C185.867 156.635 185.881 156.639 185.893 156.644C185.905 156.65 185.916 156.658 185.925 156.668C185.934 156.679 185.941 156.691 185.945 156.703C186.382 157.796 187.21 158.687 188.267 159.203C188.293 159.215 188.312 159.236 188.322 159.262C188.333 159.288 188.332 159.317 188.322 159.343C188.314 159.356 188.305 159.368 188.293 159.377C188.281 159.387 188.267 159.393 188.252 159.397Z" fill="#263238"/>
<path d="M186.998 149.698C186.968 149.698 186.938 149.691 186.911 149.678C186.885 149.665 186.861 149.645 186.843 149.621C186.822 149.603 186.805 149.58 186.793 149.555C186.781 149.53 186.775 149.502 186.775 149.474C186.775 149.446 186.781 149.418 186.793 149.393C186.805 149.368 186.822 149.345 186.843 149.327C187.217 148.983 187.668 148.733 188.158 148.598C188.648 148.464 189.163 148.448 189.66 148.553C189.715 148.567 189.761 148.603 189.79 148.651C189.818 148.7 189.826 148.758 189.811 148.812C189.797 148.867 189.762 148.913 189.713 148.941C189.664 148.97 189.607 148.978 189.552 148.963C189.12 148.877 188.674 148.896 188.251 149.019C187.828 149.142 187.441 149.364 187.122 149.668C187.084 149.69 187.041 149.7 186.998 149.698Z" fill="#263238"/>
<path d="M197.47 150.821C197.429 150.818 197.389 150.805 197.355 150.781C197.321 150.758 197.294 150.727 197.276 150.69C197.112 150.283 196.853 149.921 196.522 149.633C196.192 149.346 195.797 149.14 195.372 149.033C195.316 149.024 195.265 148.992 195.232 148.946C195.199 148.9 195.185 148.842 195.194 148.785C195.205 148.731 195.237 148.682 195.284 148.65C195.33 148.619 195.386 148.606 195.442 148.615C195.938 148.73 196.399 148.963 196.786 149.294C197.173 149.626 197.474 150.046 197.663 150.519C197.676 150.544 197.683 150.572 197.684 150.6C197.686 150.628 197.681 150.656 197.671 150.683C197.661 150.709 197.645 150.733 197.625 150.753C197.605 150.772 197.581 150.788 197.555 150.798C197.529 150.814 197.5 150.822 197.47 150.821Z" fill="#263238"/>
<path d="M213.685 304.452C212.857 304.452 211.734 303.585 211.107 303.028C211.088 303.014 211.074 302.995 211.067 302.972C211.06 302.95 211.061 302.926 211.069 302.904C211.076 302.882 211.089 302.862 211.107 302.847C211.125 302.832 211.146 302.822 211.169 302.819C211.456 302.819 213.971 302.587 214.497 303.276C214.554 303.348 214.59 303.434 214.603 303.525C214.615 303.617 214.603 303.709 214.567 303.794C214.524 303.943 214.445 304.079 214.335 304.189C214.225 304.298 214.089 304.378 213.94 304.421C213.856 304.44 213.771 304.45 213.685 304.452ZM211.471 303.036C212.493 303.887 213.375 304.32 213.878 304.189C213.99 304.158 214.092 304.098 214.173 304.015C214.255 303.932 214.313 303.829 214.343 303.717C214.372 303.673 214.388 303.622 214.388 303.57C214.388 303.517 214.372 303.466 214.343 303.423C213.971 302.974 212.346 302.981 211.471 303.036Z" fill="#FFC100"/>
<path d="M211.185 303.059C211.164 303.061 211.143 303.056 211.125 303.045C211.107 303.033 211.093 303.017 211.085 302.997C211.075 302.979 211.07 302.959 211.07 302.939C211.07 302.919 211.075 302.899 211.085 302.881C211.123 302.811 212.075 301.039 213.051 300.807C213.168 300.773 213.291 300.767 213.411 300.79C213.531 300.813 213.643 300.864 213.74 300.938C213.848 300.995 213.934 301.088 213.981 301.201C214.027 301.315 214.033 301.441 213.995 301.558C213.786 302.27 212.045 303.036 211.193 303.059H211.185ZM213.26 301.016H213.097C212.401 301.178 211.673 302.316 211.394 302.773C212.207 302.649 213.6 301.999 213.763 301.465C213.763 301.38 213.802 301.248 213.6 301.109C213.499 301.043 213.38 301.011 213.26 301.016Z" fill="#FFC100"/>
<path d="M188.375 151.309L189.791 151.162C189.791 151.162 188.909 152.091 188.375 151.309Z" fill="#263238"/>
<path d="M169.32 216.72L169.096 219.281C168.995 219.483 169.228 219.684 169.56 219.684H198.5C198.763 219.684 198.972 219.56 198.988 219.398L199.251 216.836C199.251 216.658 199.042 216.503 198.763 216.503H169.785C169.696 216.498 169.606 216.515 169.525 216.553C169.444 216.591 169.374 216.648 169.32 216.72Z" fill="#263238"/>
<path d="M173.213 219.947H172.439C172.285 219.947 172.168 219.87 172.176 219.769L172.54 216.441C172.54 216.34 172.687 216.263 172.842 216.263H173.616C173.771 216.263 173.887 216.34 173.879 216.441L173.515 219.769C173.5 219.87 173.376 219.947 173.213 219.947Z" fill="#FFC100"/>
<path opacity="0.6" d="M173.213 219.947H172.439C172.285 219.947 172.168 219.87 172.176 219.769L172.54 216.441C172.54 216.34 172.687 216.263 172.842 216.263H173.616C173.771 216.263 173.887 216.34 173.879 216.441L173.515 219.769C173.5 219.87 173.376 219.947 173.213 219.947Z" fill="#FAFAFA"/>
<path d="M196.324 219.947H195.55C195.395 219.947 195.279 219.87 195.294 219.769L195.658 216.441C195.658 216.34 195.797 216.263 195.952 216.263H196.726C196.881 216.263 196.997 216.34 196.982 216.441L196.618 219.769C196.595 219.87 196.479 219.947 196.324 219.947Z" fill="#FFC100"/>
<path opacity="0.6" d="M196.324 219.947H195.55C195.395 219.947 195.279 219.87 195.294 219.769L195.658 216.441C195.658 216.34 195.797 216.263 195.952 216.263H196.726C196.881 216.263 196.997 216.34 196.982 216.441L196.618 219.769C196.595 219.87 196.479 219.947 196.324 219.947Z" fill="#FAFAFA"/>
<path d="M184.769 219.947H183.995C183.84 219.947 183.716 219.87 183.732 219.769L184.096 216.441C184.096 216.34 184.243 216.263 184.397 216.263H185.171C185.326 216.263 185.442 216.34 185.435 216.441L185.071 219.769C185.055 219.87 184.924 219.947 184.769 219.947Z" fill="#FFC100"/>
<path opacity="0.6" d="M184.769 219.947H183.995C183.84 219.947 183.716 219.87 183.732 219.769L184.096 216.441C184.096 216.34 184.243 216.263 184.397 216.263H185.171C185.326 216.263 185.442 216.34 185.435 216.441L185.071 219.769C185.055 219.87 184.924 219.947 184.769 219.947Z" fill="#FAFAFA"/>
<path d="M171.409 186.758L167.717 189.9C168.491 194.08 169.033 197.563 169.373 200.659C170.062 197.555 171.827 189.134 171.409 186.758Z" fill="#FFC100"/>
<path opacity="0.3" d="M171.409 186.758L167.717 189.9C168.491 194.08 169.033 197.563 169.373 200.659C170.062 197.555 171.827 189.134 171.409 186.758Z" fill="black"/>
<path d="M249.622 198.608H199.412L192.137 228.26H242.346L249.622 198.608Z" fill="#FAFAFA"/>
<path d="M224.18 222.741L193.476 229.901L173.77 224.374L173.971 222.741H224.18Z" fill="#FAFAFA"/>
<path d="M168.948 185.852C168.352 187.826 167.702 189.862 167.121 191.874C166.541 193.886 165.929 195.914 165.403 197.934C164.877 199.954 164.374 201.967 163.987 203.941C163.801 204.924 163.623 205.907 163.507 206.835C163.424 207.487 163.38 208.144 163.375 208.801C163.545 209.329 163.837 209.808 164.227 210.202C164.814 210.84 165.465 211.415 166.169 211.921C167.781 213.068 169.481 214.085 171.255 214.962C173.074 215.899 174.978 216.75 176.92 217.54C178.863 218.329 180.844 219.088 182.787 219.862L181.889 223.36C179.668 223.012 177.555 222.517 175.403 221.983C173.252 221.448 171.154 220.744 169.041 219.97C166.858 219.172 164.754 218.172 162.756 216.982C161.646 216.318 160.608 215.54 159.66 214.66C158.469 213.585 157.566 212.228 157.036 210.713C156.89 210.252 156.789 209.777 156.734 209.297V208.925V208.647V208.151C156.734 207.501 156.734 206.882 156.734 206.27C156.796 205.063 156.928 203.948 157.098 202.787C157.415 200.527 157.872 198.345 158.352 196.193C159.34 191.911 160.547 187.682 161.967 183.522L168.948 185.852Z" fill="#E4897B"/>
<path d="M164.676 175.697C161.812 176.572 157.424 187.826 157.424 187.826L168.546 195.775C168.546 195.775 173.546 186.154 172.339 182.446C171.054 178.553 167.958 174.668 164.676 175.697Z" fill="#FFC100"/>
<path opacity="0.2" d="M164.676 175.697C161.812 176.572 157.424 187.826 157.424 187.826L168.546 195.775C168.546 195.775 173.546 186.154 172.339 182.446C171.054 178.553 167.958 174.668 164.676 175.697Z" fill="black"/>
<path d="M181.34 220.079L188.027 218.384L184.838 224.8C184.838 224.8 180.326 224.994 178.832 222.478L181.34 220.079Z" fill="#E4897B"/>
<path d="M193.422 220.822L190.465 226.054L184.838 224.8L188.027 218.384L193.422 220.822Z" fill="#E4897B"/>
<path d="M251.171 198.608H200.961L193.686 228.26H243.895L251.171 198.608Z" fill="#263238"/>
<path d="M243.895 228.26L243.694 229.901H193.477L193.678 228.26H243.895Z" fill="#263238"/>
<path d="M190.706 144.289C197.47 146.998 198.028 150.891 197.672 148.159C197.161 144.234 193.902 141.409 191.565 140.457C190.195 139.885 187.749 143.104 190.706 144.289Z" fill="#263238"/>
<path d="M178.097 147.833L177.641 148.367C177.569 148.441 177.529 148.539 177.529 148.642C177.529 148.745 177.569 148.843 177.641 148.917L181.294 152.245C181.367 152.312 181.462 152.349 181.561 152.349C181.66 152.349 181.755 152.312 181.828 152.245L182.455 151.665C182.496 151.627 182.529 151.582 182.552 151.531C182.575 151.481 182.586 151.426 182.586 151.37C182.586 151.315 182.575 151.26 182.552 151.209C182.529 151.159 182.496 151.113 182.455 151.076L178.624 147.795C178.547 147.735 178.45 147.706 178.353 147.713C178.256 147.72 178.165 147.763 178.097 147.833Z" fill="#FFC100"/>
<path opacity="0.3" d="M178.097 147.833L177.641 148.367C177.569 148.441 177.529 148.539 177.529 148.642C177.529 148.745 177.569 148.843 177.641 148.917L181.294 152.245C181.367 152.312 181.462 152.349 181.561 152.349C181.66 152.349 181.755 152.312 181.828 152.245L182.455 151.665C182.496 151.627 182.529 151.582 182.552 151.531C182.575 151.481 182.586 151.426 182.586 151.37C182.586 151.315 182.575 151.26 182.552 151.209C182.529 151.159 182.496 151.113 182.455 151.076L178.624 147.795C178.547 147.735 178.45 147.706 178.353 147.713C178.256 147.72 178.165 147.763 178.097 147.833Z" fill="black"/>
<path d="M177.16 173.577C177.237 174.165 177.887 177.067 183.414 178.159C183.414 178.159 181.773 179.947 180.844 184.227C180.844 184.227 171.154 180.427 174.095 174.266C174.118 174.216 174.153 174.173 174.196 174.139C174.239 174.106 174.289 174.083 174.343 174.072L177.036 173.499C177.049 173.496 177.063 173.495 177.077 173.497C177.09 173.499 177.103 173.504 177.115 173.511C177.126 173.519 177.136 173.528 177.144 173.539C177.152 173.551 177.157 173.563 177.16 173.577Z" fill="#FFC100"/>
<path opacity="0.6" d="M177.16 173.577C177.237 174.165 177.887 177.067 183.414 178.159C183.414 178.159 181.773 179.947 180.844 184.227C180.844 184.227 171.154 180.427 174.095 174.266C174.118 174.216 174.153 174.173 174.196 174.139C174.239 174.106 174.289 174.083 174.343 174.072L177.036 173.499C177.049 173.496 177.063 173.495 177.077 173.497C177.09 173.499 177.103 173.504 177.115 173.511C177.126 173.519 177.136 173.528 177.144 173.539C177.152 173.551 177.157 173.563 177.16 173.577Z" fill="#FAFAFA"/>
<path d="M189.506 174.026C190.171 174.73 191.99 177.122 187.393 178.221C187.393 178.221 190.187 179.769 191.116 184.049C191.116 184.049 197.996 179.32 191.735 174.181C191.727 174.177 191.72 174.176 191.711 174.176C191.703 174.176 191.696 174.177 191.688 174.181L189.591 173.887C189.575 173.888 189.559 173.893 189.546 173.901C189.532 173.91 189.521 173.921 189.513 173.935C189.504 173.948 189.499 173.964 189.498 173.979C189.497 173.995 189.499 174.011 189.506 174.026Z" fill="#FFC100"/>
<path opacity="0.6" d="M189.506 174.026C190.171 174.73 191.99 177.122 187.393 178.221C187.393 178.221 190.187 179.769 191.116 184.049C191.116 184.049 197.996 179.32 191.735 174.181C191.727 174.177 191.72 174.176 191.711 174.176C191.703 174.176 191.696 174.177 191.688 174.181L189.591 173.887C189.575 173.888 189.559 173.893 189.546 173.901C189.532 173.91 189.521 173.921 189.513 173.935C189.504 173.948 189.499 173.964 189.498 173.979C189.497 173.995 189.499 174.011 189.506 174.026Z" fill="#FAFAFA"/>
<path d="M255.197 129.49C254.02 117.331 243.331 107.478 231.326 107.485C219.322 107.493 210.529 117.346 211.729 129.506C212.162 133.451 213.533 137.235 215.728 140.543C217.923 143.85 220.878 146.583 224.345 148.515L224.151 156.255L230.591 150.953C232.233 151.333 233.913 151.528 235.599 151.534C247.604 151.51 256.381 141.642 255.197 129.49Z" fill="#FFC100"/>
<path opacity="0.6" d="M255.197 129.49C254.02 117.331 243.331 107.478 231.326 107.485C219.322 107.493 210.529 117.346 211.729 129.506C212.162 133.451 213.533 137.235 215.728 140.543C217.923 143.85 220.878 146.583 224.345 148.515L224.151 156.255L230.591 150.953C232.233 151.333 233.913 151.528 235.599 151.534C247.604 151.51 256.381 141.642 255.197 129.49Z" fill="#FAFAFA"/>
<path d="M235.297 125.666C229.979 124.064 226.225 118.375 226.225 118.375C226.225 118.375 224.584 118.282 224.677 119.784C224.849 121.863 225.803 123.799 227.348 125.202L224.855 125.063C223.979 125.013 223.1 125.11 222.255 125.349L221.481 125.573C221.149 125.674 220.842 125.843 220.579 126.068C220.316 126.293 220.103 126.571 219.952 126.883C219.802 127.195 219.718 127.534 219.705 127.88C219.692 128.227 219.751 128.572 219.878 128.894L221.535 133.778C222.084 135.358 223.183 136.687 224.631 137.524C225.857 138.255 227.296 138.547 228.71 138.352C231.202 137.973 235.08 137.392 235.745 137.268L237.533 137.114L237.007 126.162L235.297 125.666Z" fill="#FAFAFA"/>
<path d="M244.647 138.592H237.681C237.412 138.583 237.156 138.478 236.959 138.296C236.762 138.114 236.636 137.868 236.605 137.602L235.397 125.14C235.382 125.016 235.393 124.889 235.431 124.769C235.468 124.649 235.531 124.539 235.614 124.445C235.698 124.351 235.8 124.276 235.915 124.225C236.03 124.174 236.154 124.148 236.28 124.149H243.246C243.516 124.157 243.775 124.262 243.974 124.446C244.173 124.629 244.3 124.879 244.329 125.148L245.537 137.602C245.551 137.727 245.538 137.853 245.5 137.973C245.462 138.093 245.399 138.203 245.314 138.297C245.23 138.391 245.127 138.465 245.012 138.516C244.897 138.567 244.772 138.593 244.647 138.592Z" fill="#FFC100"/>
<path d="M142.331 189.026L135.365 182.424C135.465 181.047 135.45 179.665 135.318 178.291C134.01 164.854 122.199 153.964 108.933 153.972C95.6665 153.979 85.976 164.877 87.2608 178.314C88.5457 191.751 100.372 202.641 113.639 202.633C117.728 202.701 121.75 201.591 125.226 199.437C128.702 197.282 131.486 194.174 133.244 190.481L142.331 189.026Z" fill="#FFC100"/>
<path d="M122.432 169.599C118.802 166.247 113.446 166.255 110.474 169.599C106.844 166.255 101.488 166.255 98.5077 169.599C95.5278 172.942 96.0541 178.376 99.6842 181.719L112.842 193.832L123.624 181.712C126.588 178.368 126.062 172.942 122.432 169.599Z" fill="#FFC100"/>
<path opacity="0.6" d="M122.432 169.599C118.802 166.247 113.446 166.255 110.474 169.599C106.844 166.255 101.488 166.255 98.5077 169.599C95.5278 172.942 96.0541 178.376 99.6842 181.719L112.842 193.832L123.624 181.712C126.588 178.368 126.062 172.942 122.432 169.599Z" fill="#FAFAFA"/>
</svg>
