<svg width="1330" height="1255" viewBox="0 0 1330 1255" fill="none" xmlns="http://www.w3.org/2000/svg">
<path d="M351.96 74.4131C792.548 -146.691 1328.47 154.689 1328.74 627.515C1329.08 1115.52 758.33 1416.15 318.173 1162.41L318.171 1162.4C-59.5425 947.251 -111.425 438.332 221.839 160.082L221.841 160.081C261.315 126.8 305.198 97.8518 351.959 74.4131H351.96Z" fill="url(#paint0_linear_2034_125)" fill-opacity="0.5" stroke="white"/>
<path d="M1326.91 630.404C1326.38 805.094 1243.76 967.697 1118.46 1079.67C1074.93 1118.58 901.964 1118.04 955.147 977.058C981.899 906.138 952.257 891.045 858.08 850.894C763.97 810.742 763.738 756.673 944.601 759.898C1125.49 763.091 1168.23 532.075 1051.1 555.999C933.989 579.913 846.166 547.917 814.517 497.437C802.856 478.817 776.987 471.037 750.048 465.929C703.98 457.192 654.757 456.235 668.095 422.179C690.423 367.485 799.05 375.183 853.679 336.321C921.335 288.202 821.643 263.539 831.207 185.348C836.326 150.512 862.857 109.227 895.632 43.8507C1157.43 138.217 1331.51 361.369 1326.91 630.404Z" fill="url(#paint1_linear_2034_125)" fill-opacity="0.5"/>
<path d="M672.884 141.809C613.622 140.114 675.664 80.4377 604.488 80.4377C559.259 80.4377 505.347 127.569 462.567 127.007C420.007 126.456 432.826 97.8714 441.188 87.2822C472.264 47.9734 538.751 25.4324 620.263 10.1936C329.791 23.5289 74.1453 225.014 14.7734 502.319C18.8882 483.085 83.0589 431.898 95.1053 490.055C103.875 544.436 133.948 539.786 180.699 522.665C217.964 509.028 197.986 486.674 143.214 479.705C88.4091 472.704 117.621 401.815 180.611 401.16C243.601 400.473 376.09 371.358 306.062 349.14C236.078 326.89 256.343 307.189 364.485 295.695C461.022 285.283 368.148 237.517 370.63 191.749C373.057 147 403.669 181.763 465.093 176.021C530.532 169.905 585.9 87.251 606.032 147.634C626.165 208.007 735.775 196.929 735.775 173.004C735.775 151.16 709.299 142.839 672.895 141.799L672.884 141.809Z" fill="#97AEEF" fill-opacity="0.5"/>
<defs>
<linearGradient id="paint0_linear_2034_125" x1="664.621" y1="0" x2="664.621" y2="1255" gradientUnits="userSpaceOnUse">
<stop stop-color="#B8D2FF"/>
<stop offset="1" stop-color="white" stop-opacity="0"/>
</linearGradient>
<linearGradient id="paint1_linear_2034_125" x1="996.438" y1="43.8507" x2="996.438" y2="1101.71" gradientUnits="userSpaceOnUse">
<stop stop-color="#97AEEF"/>
<stop offset="1" stop-color="white" stop-opacity="0"/>
</linearGradient>
</defs>
</svg>
