<svg width="99" height="99" viewBox="0 0 99 99" fill="none" xmlns="http://www.w3.org/2000/svg">
<path d="M49.5 0C58.4805 0 66.7627 2.21289 74.3467 6.63867C81.9307 11.0645 87.9355 17.0693 92.3613 24.6533C96.7871 32.2373 99 40.5195 99 49.5C99 58.4805 96.7871 66.7627 92.3613 74.3467C87.9355 81.9307 81.9307 87.9355 74.3467 92.3613C66.7627 96.7871 58.4805 99 49.5 99C40.5195 99 32.2373 96.7871 24.6533 92.3613C17.0693 87.9355 11.0645 81.9307 6.63867 74.3467C2.21289 66.7627 0 58.4805 0 49.5C0 40.5195 2.21289 32.2373 6.63867 24.6533C11.0645 17.0693 17.0693 11.0645 24.6533 6.63867C32.2373 2.21289 40.5195 0 49.5 0ZM67.1602 33.5801C67.0742 33.623 66.8701 33.8271 66.5479 34.1924C66.2256 34.5576 65.9355 34.7617 65.6777 34.8047C65.7637 34.8047 65.8604 34.6973 65.9678 34.4824C66.0752 34.2676 66.1826 34.0312 66.29 33.7734C66.3975 33.5156 66.4727 33.3652 66.5156 33.3223C66.7734 33.0215 67.2461 32.6992 67.9336 32.3555C68.5352 32.0977 69.6523 31.8398 71.2852 31.582C72.7461 31.2383 73.8418 31.4746 74.5723 32.291C74.4863 32.2051 74.6904 31.9258 75.1846 31.4531C75.6787 30.9805 75.9902 30.7227 76.1191 30.6797C76.248 30.5938 76.5703 30.4971 77.0859 30.3896C77.6016 30.2822 77.9238 30.1211 78.0527 29.9062L78.1816 28.4883C77.666 28.5312 77.29 28.3809 77.0537 28.0371C76.8174 27.6934 76.6777 27.2422 76.6348 26.6836C76.6348 26.7695 76.5059 26.9414 76.248 27.1992C76.248 26.8984 76.1514 26.7266 75.958 26.6836C75.7646 26.6406 75.5176 26.6621 75.2168 26.748C74.916 26.834 74.7227 26.8555 74.6367 26.8125C74.207 26.6836 73.8848 26.5225 73.6699 26.3291C73.4551 26.1357 73.2832 25.7812 73.1543 25.2656C73.0254 24.75 72.9395 24.4277 72.8965 24.2988C72.8105 24.084 72.6064 23.8477 72.2842 23.5898C71.9619 23.332 71.7578 23.1172 71.6719 22.9453C71.6289 22.8594 71.5752 22.7412 71.5107 22.5908C71.4463 22.4404 71.3818 22.3008 71.3174 22.1719C71.2529 22.043 71.167 21.9248 71.0596 21.8174C70.9521 21.71 70.834 21.6562 70.7051 21.6562C70.5762 21.6562 70.4258 21.7637 70.2539 21.9785C70.082 22.1934 69.9209 22.4082 69.7705 22.623C69.6201 22.8379 69.5234 22.9453 69.4805 22.9453C69.3516 22.8594 69.2227 22.8271 69.0938 22.8486C68.9648 22.8701 68.8682 22.8916 68.8037 22.9131C68.7393 22.9346 68.6426 22.999 68.5137 23.1064C68.3848 23.2139 68.2773 23.2891 68.1914 23.332C68.0625 23.418 67.8799 23.4824 67.6436 23.5254C67.4072 23.5684 67.2246 23.6113 67.0957 23.6543C67.7402 23.4395 67.7188 23.2031 67.0312 22.9453C66.6016 22.7734 66.2578 22.709 66 22.752C66.3867 22.5801 66.5479 22.3223 66.4834 21.9785C66.4189 21.6348 66.2363 21.334 65.9355 21.0762H66.2578C66.2148 20.9043 66.0322 20.7217 65.71 20.5283C65.3877 20.335 65.0117 20.1523 64.582 19.9805C64.1523 19.8086 63.873 19.6797 63.7441 19.5938C63.4004 19.3789 62.6699 19.1748 61.5527 18.9814C60.4355 18.7881 59.7266 18.7773 59.4258 18.9492C59.2109 19.207 59.1143 19.4326 59.1357 19.626C59.1572 19.8193 59.2432 20.1201 59.3936 20.5283C59.5439 20.9365 59.6191 21.2051 59.6191 21.334C59.6621 21.5918 59.5439 21.8711 59.2646 22.1719C58.9854 22.4727 58.8457 22.7305 58.8457 22.9453C58.8457 23.2461 59.1465 23.5791 59.748 23.9443C60.3496 24.3096 60.5645 24.7715 60.3926 25.3301C60.2637 25.6738 59.9199 26.0176 59.3613 26.3613C58.8027 26.7051 58.459 26.9629 58.3301 27.1348C58.1152 27.4785 58.083 27.876 58.2334 28.3271C58.3838 28.7783 58.6094 29.1328 58.9102 29.3906C58.9961 29.4766 59.0283 29.5625 59.0068 29.6484C58.9854 29.7344 58.9102 29.8311 58.7812 29.9385C58.6523 30.0459 58.5342 30.1318 58.4268 30.1963C58.3193 30.2607 58.1797 30.3359 58.0078 30.4219L57.8145 30.5508C57.3418 30.7656 56.9014 30.6367 56.4932 30.1641C56.085 29.6914 55.7949 29.1328 55.623 28.4883C55.3223 27.4141 54.9785 26.7695 54.5918 26.5547C53.6035 26.2109 52.9805 26.2324 52.7227 26.6191C52.5078 26.0605 51.627 25.502 50.0801 24.9434C49.0059 24.5566 47.7598 24.4707 46.3418 24.6855C46.5996 24.6426 46.5996 24.3203 46.3418 23.7188C46.041 23.0742 45.6328 22.8164 45.1172 22.9453C45.2461 22.6875 45.332 22.3115 45.375 21.8174C45.418 21.3232 45.4395 21.0332 45.4395 20.9473C45.5684 20.3887 45.8262 19.8945 46.2129 19.4648C46.2559 19.4219 46.4062 19.2393 46.6641 18.917C46.9219 18.5947 47.126 18.3047 47.2764 18.0469C47.4268 17.7891 47.4375 17.6602 47.3086 17.6602C48.8125 17.832 49.8867 17.5957 50.5312 16.9512C50.7461 16.7363 50.9932 16.3711 51.2725 15.8555C51.5518 15.3398 51.7773 14.9746 51.9492 14.7598C52.3359 14.502 52.6367 14.3838 52.8516 14.4053C53.0664 14.4268 53.3779 14.5449 53.7861 14.7598C54.1943 14.9746 54.5059 15.082 54.7207 15.082C55.3223 15.125 55.6553 14.8887 55.7197 14.373C55.7842 13.8574 55.623 13.4277 55.2363 13.084C55.752 13.127 55.8164 12.7617 55.4297 11.9883C55.2578 11.6875 55.0859 11.4941 54.9141 11.4082C54.3984 11.2363 53.8184 11.3438 53.1738 11.7305C52.8301 11.9023 52.873 12.0742 53.3027 12.2461C53.2598 12.2031 53.0557 12.4287 52.6904 12.9229C52.3252 13.417 51.9707 13.793 51.627 14.0508C51.2832 14.3086 50.9395 14.2012 50.5957 13.7285C50.5527 13.6855 50.4346 13.3955 50.2412 12.8584C50.0479 12.3213 49.8438 12.0312 49.6289 11.9883C49.2852 11.9883 48.9414 12.3105 48.5977 12.9551C48.7266 12.6113 48.4902 12.2891 47.8887 11.9883C47.2871 11.6875 46.7715 11.5156 46.3418 11.4727C47.1582 10.957 46.9863 10.377 45.8262 9.73242C45.5254 9.56055 45.085 9.45312 44.5049 9.41016C43.9248 9.36719 43.5059 9.45312 43.248 9.66797C43.0332 9.96875 42.915 10.2158 42.8936 10.4092C42.8721 10.6025 42.9795 10.7744 43.2158 10.9248C43.4521 11.0752 43.6777 11.1934 43.8926 11.2793C44.1074 11.3652 44.3545 11.4512 44.6338 11.5371C44.9131 11.623 45.0957 11.6875 45.1816 11.7305C45.7832 12.1602 45.9551 12.4609 45.6973 12.6328C45.6113 12.6758 45.4287 12.751 45.1494 12.8584C44.8701 12.9658 44.623 13.0625 44.4082 13.1484C44.1934 13.2344 44.0645 13.3203 44.0215 13.4062C43.8926 13.5781 43.8926 13.8789 44.0215 14.3086C44.1504 14.7383 44.1074 15.0391 43.8926 15.2109C43.6777 14.9961 43.4844 14.6201 43.3125 14.083C43.1406 13.5459 42.9902 13.1914 42.8613 13.0195C43.1621 13.4062 42.625 13.5352 41.25 13.4062L40.6055 13.3418C40.4336 13.3418 40.0898 13.3848 39.5742 13.4707C39.0586 13.5566 38.6182 13.5781 38.2529 13.5352C37.8877 13.4922 37.5977 13.3203 37.3828 13.0195C37.2109 12.6758 37.2109 12.2461 37.3828 11.7305C37.4258 11.5586 37.5117 11.5156 37.6406 11.6016C37.4688 11.4727 37.2324 11.2686 36.9316 10.9893C36.6309 10.71 36.416 10.5273 36.2871 10.4414C34.3105 11.0859 32.291 11.9668 30.2285 13.084C30.4863 13.127 30.7441 13.1055 31.002 13.0195C31.2168 12.9336 31.4961 12.7939 31.8398 12.6006C32.1836 12.4072 32.3984 12.2891 32.4844 12.2461C33.9453 11.6445 34.8477 11.4941 35.1914 11.7949L35.5137 11.4727C36.1152 12.1602 36.5449 12.6973 36.8027 13.084C36.502 12.9121 35.8574 12.8906 34.8691 13.0195C34.0098 13.2773 33.5371 13.5352 33.4512 13.793C33.752 14.3086 33.8594 14.6953 33.7734 14.9531C33.6016 14.8242 33.3545 14.6094 33.0322 14.3086C32.71 14.0078 32.3984 13.7715 32.0977 13.5996C31.7969 13.4277 31.4746 13.3203 31.1309 13.2773C30.4434 13.2773 29.9707 13.2988 29.7129 13.3418C23.4395 16.7793 18.3906 21.5488 14.5664 27.6504C14.8672 27.9512 15.125 28.123 15.3398 28.166C15.5117 28.209 15.6191 28.4023 15.6621 28.7461C15.7051 29.0898 15.7588 29.3262 15.8232 29.4551C15.8877 29.584 16.1348 29.5195 16.5645 29.2617C16.9512 29.6055 17.0156 30.0137 16.7578 30.4863C16.8008 30.4434 17.7461 31.0234 19.5938 32.2266C20.4102 32.957 20.8613 33.4082 20.9473 33.5801C21.0762 34.0527 20.8613 34.4395 20.3027 34.7402C20.2598 34.6543 20.0664 34.4609 19.7227 34.1602C19.3789 33.8594 19.1855 33.7734 19.1426 33.9023C19.0137 34.1172 19.0244 34.5146 19.1748 35.0947C19.3252 35.6748 19.5508 35.9434 19.8516 35.9004C19.5508 35.9004 19.3467 36.2441 19.2393 36.9316C19.1318 37.6191 19.0781 38.3818 19.0781 39.2197C19.0781 40.0576 19.0566 40.5625 19.0137 40.7344L19.1426 40.7988C19.0137 41.3145 19.1318 42.0557 19.4971 43.0225C19.8623 43.9893 20.3242 44.4082 20.8828 44.2793C20.3242 44.4082 20.7539 45.332 22.1719 47.0508C22.4297 47.3945 22.6016 47.5879 22.6875 47.6309C22.8164 47.7168 23.0742 47.8779 23.4609 48.1143C23.8477 48.3506 24.1699 48.5654 24.4277 48.7588C24.6855 48.9521 24.9004 49.1777 25.0723 49.4355C25.2441 49.6504 25.459 50.1338 25.7168 50.8857C25.9746 51.6377 26.2754 52.1426 26.6191 52.4004C26.5332 52.6582 26.7373 53.0879 27.2314 53.6895C27.7256 54.291 27.9512 54.7852 27.9082 55.1719C27.8652 55.1719 27.8115 55.1934 27.7471 55.2363C27.6826 55.2793 27.6289 55.3008 27.5859 55.3008C27.7148 55.6016 28.0479 55.9023 28.585 56.2031C29.1221 56.5039 29.4551 56.7832 29.584 57.041C29.627 57.1699 29.6699 57.3848 29.7129 57.6855C29.7559 57.9863 29.8203 58.2227 29.9062 58.3945C29.9922 58.5664 30.1641 58.6094 30.4219 58.5234C30.5078 57.6641 29.9922 56.332 28.875 54.5273C28.2305 53.4531 27.8652 52.8301 27.7793 52.6582C27.6504 52.4434 27.5322 52.1104 27.4248 51.6592C27.3174 51.208 27.2207 50.8965 27.1348 50.7246C27.2207 50.7246 27.3496 50.7568 27.5215 50.8213C27.6934 50.8857 27.876 50.9609 28.0693 51.0469C28.2627 51.1328 28.4238 51.2188 28.5527 51.3047C28.6816 51.3906 28.7246 51.4551 28.6816 51.498C28.5527 51.7988 28.5957 52.1748 28.8105 52.626C29.0254 53.0771 29.2832 53.4746 29.584 53.8184C29.8848 54.1621 30.25 54.5703 30.6797 55.043C31.1094 55.5156 31.3672 55.7949 31.4531 55.8809C31.7109 56.1387 32.0117 56.5576 32.3555 57.1377C32.6992 57.7178 32.6992 58.0078 32.3555 58.0078C32.7422 58.0078 33.1719 58.2334 33.6445 58.6846C34.1172 59.1357 34.4824 59.5547 34.7402 59.9414C34.9551 60.2852 35.127 60.8438 35.2559 61.6172C35.3848 62.3906 35.4922 62.9062 35.5781 63.1641C35.6641 63.4648 35.8467 63.7549 36.126 64.0342C36.4053 64.3135 36.6738 64.5176 36.9316 64.6465L37.9629 65.1621L38.8008 65.6133C39.0156 65.6992 39.4131 65.9248 39.9932 66.29C40.5732 66.6553 41.0352 66.9023 41.3789 67.0312C41.8086 67.2031 42.1523 67.2891 42.4102 67.2891C42.668 67.2891 42.9795 67.2354 43.3447 67.1279C43.71 67.0205 44 66.9453 44.2148 66.9023C44.8594 66.8164 45.4824 67.1387 46.084 67.8691C46.6855 68.5996 47.1367 69.0508 47.4375 69.2227C48.9844 70.0391 50.166 70.2754 50.9824 69.9316C50.8965 69.9746 50.9072 70.1357 51.0146 70.415C51.1221 70.6943 51.2939 71.0273 51.5303 71.4141C51.7666 71.8008 51.96 72.1123 52.1104 72.3486C52.2607 72.585 52.3789 72.7676 52.4648 72.8965C52.6797 73.1543 53.0664 73.4766 53.625 73.8633C54.1836 74.25 54.5703 74.5723 54.7852 74.8301C55.043 74.6582 55.1934 74.4648 55.2363 74.25C55.1074 74.5938 55.2578 75.0234 55.6875 75.5391C56.1172 76.0547 56.5039 76.2695 56.8477 76.1836C57.4492 76.0547 57.75 75.3672 57.75 74.1211C56.418 74.7656 55.3652 74.3789 54.5918 72.9609C54.5918 72.918 54.5381 72.7998 54.4307 72.6064C54.3232 72.4131 54.2373 72.2305 54.1729 72.0586C54.1084 71.8867 54.0547 71.7041 54.0117 71.5107C53.9688 71.3174 53.9688 71.1562 54.0117 71.0273C54.0547 70.8984 54.1621 70.834 54.334 70.834C54.7207 70.834 54.9355 70.7588 54.9785 70.6084C55.0215 70.458 54.9785 70.1895 54.8496 69.8027C54.7207 69.416 54.6348 69.1367 54.5918 68.9648C54.5488 68.6211 54.3125 68.1914 53.8828 67.6758C53.4531 67.1602 53.1953 66.8379 53.1094 66.709C52.8945 67.0957 52.5508 67.2676 52.0781 67.2246C51.6055 67.1816 51.2617 66.9883 51.0469 66.6445C51.0469 66.6875 51.0146 66.8057 50.9502 66.999C50.8857 67.1924 50.8535 67.332 50.8535 67.418C50.2949 67.418 49.9727 67.3965 49.8867 67.3535C49.9297 67.2246 49.9834 66.8486 50.0479 66.2256C50.1123 65.6025 50.1875 65.1191 50.2734 64.7754C50.3164 64.6035 50.4346 64.3457 50.6279 64.002C50.8213 63.6582 50.9824 63.3467 51.1113 63.0674C51.2402 62.7881 51.3262 62.5195 51.3691 62.2617C51.4121 62.0039 51.3154 61.7998 51.0791 61.6494C50.8428 61.499 50.4668 61.4453 49.9512 61.4883C49.1348 61.5312 48.5762 61.9609 48.2754 62.7773C48.2324 62.9062 48.168 63.1318 48.082 63.4541C47.9961 63.7764 47.8887 64.0234 47.7598 64.1953C47.6309 64.3672 47.4375 64.5176 47.1797 64.6465C46.8789 64.7754 46.3633 64.8184 45.6328 64.7754C44.9023 64.7324 44.3867 64.625 44.0859 64.4531C43.5273 64.1094 43.0439 63.4863 42.6357 62.584C42.2275 61.6816 42.0234 60.8867 42.0234 60.1992C42.0234 59.7695 42.0771 59.2002 42.1846 58.4912C42.292 57.7822 42.3564 57.2451 42.3779 56.8799C42.3994 56.5146 42.2812 55.9883 42.0234 55.3008C42.1523 55.2148 42.3457 55.0107 42.6035 54.6885C42.8613 54.3662 43.0762 54.1406 43.248 54.0117C43.334 53.9688 43.4307 53.9365 43.5381 53.915C43.6455 53.8936 43.7422 53.8936 43.8281 53.915C43.9141 53.9365 44 53.9043 44.0859 53.8184C44.1719 53.7324 44.2363 53.6035 44.2793 53.4316C44.2363 53.3887 44.1504 53.3242 44.0215 53.2383C43.8926 53.1094 43.8066 53.0449 43.7637 53.0449C44.0645 53.1738 44.6768 53.1416 45.6006 52.9482C46.5244 52.7549 47.1152 52.7871 47.373 53.0449C48.0176 53.5176 48.4902 53.4746 48.791 52.916C48.791 52.873 48.7373 52.6689 48.6299 52.3037C48.5225 51.9385 48.5117 51.6484 48.5977 51.4336C48.8125 52.5938 49.4355 52.7871 50.4668 52.0137C50.5957 52.1426 50.9287 52.25 51.4658 52.3359C52.0029 52.4219 52.3789 52.5293 52.5938 52.6582C52.7227 52.7441 52.873 52.8623 53.0449 53.0127C53.2168 53.1631 53.335 53.2598 53.3994 53.3027C53.4639 53.3457 53.5713 53.335 53.7217 53.2705C53.8721 53.2061 54.0547 53.0664 54.2695 52.8516C54.6992 53.4531 54.957 53.9688 55.043 54.3984C55.5156 56.1172 55.9238 57.0625 56.2676 57.2344C56.5684 57.3633 56.8047 57.4062 56.9766 57.3633C57.1484 57.3203 57.2451 57.1162 57.2666 56.751C57.2881 56.3857 57.2881 56.085 57.2666 55.8486C57.2451 55.6123 57.2129 55.3438 57.1699 55.043L57.1055 54.5273V53.3672L57.041 52.8516C56.3965 52.7227 55.999 52.4648 55.8486 52.0781C55.6982 51.6914 55.7305 51.2939 55.9453 50.8857C56.1602 50.4775 56.4824 50.0801 56.9121 49.6934C56.9551 49.6504 57.127 49.5752 57.4277 49.4678C57.7285 49.3604 58.0615 49.2207 58.4268 49.0488C58.792 48.877 59.0605 48.7051 59.2324 48.5332C60.1348 47.7168 60.457 46.9648 60.1992 46.2773C60.5 46.2773 60.7363 46.084 60.9082 45.6973C60.8652 45.6973 60.7578 45.6328 60.5859 45.5039C60.4141 45.375 60.2529 45.2676 60.1025 45.1816C59.9521 45.0957 59.8555 45.0527 59.8125 45.0527C60.1992 44.8379 60.2422 44.4941 59.9414 44.0215C60.1562 43.8926 60.3174 43.6562 60.4248 43.3125C60.5322 42.9688 60.6934 42.7539 60.9082 42.668C61.2949 43.1836 61.7461 43.2266 62.2617 42.7969C62.6055 42.4531 62.627 42.1094 62.3262 41.7656C62.541 41.4648 62.9814 41.2393 63.6475 41.0889C64.3135 40.9385 64.7109 40.7344 64.8398 40.4766C65.1406 40.5625 65.3125 40.5195 65.3555 40.3477C65.3984 40.1758 65.4199 39.918 65.4199 39.5742C65.4199 39.2305 65.4844 38.9727 65.6133 38.8008C65.7852 38.5859 66.1074 38.3926 66.5801 38.2207C67.0527 38.0488 67.332 37.9414 67.418 37.8984L68.5137 37.1895C68.6426 37.0176 68.6426 36.9316 68.5137 36.9316C69.2871 37.0176 69.9531 36.7812 70.5117 36.2227C70.9414 35.75 70.8125 35.3203 70.125 34.9336C70.2539 34.6758 70.1895 34.4717 69.9316 34.3213C69.6738 34.1709 69.3516 34.0527 68.9648 33.9668C69.0938 33.9238 69.3408 33.9131 69.7061 33.9346C70.0713 33.9561 70.2969 33.9238 70.3828 33.8379C71.0273 33.4082 70.877 33.0645 69.9316 32.8066C69.2012 32.5918 68.2773 32.8496 67.1602 33.5801ZM56.6543 90.1055C65.5059 88.5586 73.0469 84.498 79.2773 77.9238C79.1484 77.7949 78.8799 77.6982 78.4717 77.6338C78.0635 77.5693 77.7949 77.4941 77.666 77.4082C76.8926 77.1074 76.377 76.9355 76.1191 76.8926C76.1621 76.5918 76.1084 76.3125 75.958 76.0547C75.8076 75.7969 75.6357 75.6035 75.4424 75.4746C75.249 75.3457 74.9805 75.1738 74.6367 74.959C74.293 74.7441 74.0566 74.5938 73.9277 74.5078C73.8418 74.4219 73.6914 74.293 73.4766 74.1211C73.2617 73.9492 73.1113 73.8311 73.0254 73.7666C72.9395 73.7021 72.7783 73.6055 72.542 73.4766C72.3057 73.3477 72.123 73.3047 71.9941 73.3477C71.8652 73.3906 71.6504 73.4121 71.3496 73.4121L71.1562 73.4766C71.0273 73.5195 70.9092 73.5732 70.8018 73.6377C70.6943 73.7021 70.5762 73.7666 70.4473 73.8311C70.3184 73.8955 70.2324 73.96 70.1895 74.0244C70.1465 74.0889 70.1465 74.1426 70.1895 74.1855C69.2871 73.4551 68.5137 72.9824 67.8691 72.7676C67.6543 72.7246 67.418 72.6064 67.1602 72.4131C66.9023 72.2197 66.6768 72.0693 66.4834 71.9619C66.29 71.8545 66.0752 71.8223 65.8389 71.8652C65.6025 71.9082 65.3555 72.0586 65.0977 72.3164C64.8828 72.5312 64.7539 72.8535 64.7109 73.2832C64.668 73.7129 64.625 73.9922 64.582 74.1211C64.2812 73.9062 64.2812 73.5303 64.582 72.9932C64.8828 72.4561 64.9258 72.0586 64.7109 71.8008C64.582 71.543 64.3564 71.4463 64.0342 71.5107C63.7119 71.5752 63.4541 71.6719 63.2607 71.8008C63.0674 71.9297 62.8203 72.1123 62.5195 72.3486C62.2188 72.585 62.0254 72.7246 61.9395 72.7676C61.8535 72.8105 61.6709 72.9287 61.3916 73.1221C61.1123 73.3154 60.9297 73.4766 60.8438 73.6055C60.7148 73.7773 60.5859 74.0352 60.457 74.3789C60.3281 74.7227 60.2207 74.959 60.1348 75.0879C60.0488 74.916 59.8018 74.7764 59.3936 74.6689C58.9854 74.5615 58.7812 74.4434 58.7812 74.3145C58.8672 74.7441 58.9531 75.4961 59.0391 76.5703C59.125 77.6445 59.2324 78.4609 59.3613 79.0195C59.6621 80.3516 59.4043 81.3828 58.5879 82.1133C57.4277 83.1875 56.8047 84.0469 56.7188 84.6914C56.5469 85.6367 56.8047 86.1953 57.4922 86.3672C57.4922 86.668 57.3203 87.1084 56.9766 87.6885C56.6328 88.2686 56.4824 88.7305 56.5254 89.0742C56.5254 89.332 56.5684 89.6758 56.6543 90.1055Z" fill="url(#paint0_linear_1291_752)"/>
<defs>
<linearGradient id="paint0_linear_1291_752" x1="49.5" y1="0" x2="49.5" y2="99" gradientUnits="userSpaceOnUse">
<stop stop-color="#716EF5"/>
<stop offset="1" stop-color="#42408F"/>
</linearGradient>
</defs>
</svg>
