<svg width="1280" height="1045" viewBox="0 0 1280 1045" fill="none" xmlns="http://www.w3.org/2000/svg">
<g clip-path="url(#clip0_2091_60)">
<rect width="1280" height="1045" fill="url(#paint0_linear_2091_60)"/>
<g filter="url(#filter0_f_2091_60)">
<ellipse cx="87.5" cy="119" rx="340.5" ry="375" fill="#C8BAFF" fill-opacity="0.8"/>
</g>
<g filter="url(#filter1_f_2091_60)">
<ellipse cx="123.5" cy="1119" rx="340.5" ry="375" fill="url(#paint1_linear_2091_60)" fill-opacity="0.8"/>
</g>
<line x1="0.5" y1="-24" x2="0.499952" y2="1069" stroke="white"/>
<line x1="664.691" y1="-24" x2="664.691" y2="1069" stroke="white"/>
<line x1="111.201" y1="-24" x2="111.201" y2="1069" stroke="white"/>
<line x1="775.391" y1="-24" x2="775.391" y2="1069" stroke="white"/>
<line x1="221.9" y1="-24" x2="221.9" y2="1069" stroke="white"/>
<line x1="886.088" y1="-24" x2="886.088" y2="1069" stroke="white"/>
<line x1="332.596" y1="-24" x2="332.596" y2="1069" stroke="white"/>
<line x1="996.787" y1="-24" x2="996.787" y2="1069" stroke="white"/>
<line x1="553.996" y1="-24" x2="553.996" y2="1069" stroke="white"/>
<line x1="1218.18" y1="-24" x2="1218.18" y2="1069" stroke="white"/>
<line x1="664.691" y1="-24" x2="664.691" y2="1069" stroke="white"/>
<line x1="443.295" y1="-24" x2="443.295" y2="1069" stroke="white"/>
<line x1="1107.49" y1="-24" x2="1107.49" y2="1069" stroke="white"/>
<line y1="-0.5" x2="1320.75" y2="-0.5" transform="matrix(-1 0 0 1 1324.57 744.288)" stroke="white"/>
<line y1="-0.5" x2="1321.17" y2="-0.5" transform="matrix(-1 0 0 1 1324.14 616.324)" stroke="white"/>
<line y1="-0.5" x2="1321.6" y2="-0.5" transform="matrix(-1 0 0 1 1323.72 488.36)" stroke="white"/>
<line y1="-0.5" x2="1321.6" y2="-0.5" transform="matrix(-1 0 0 1 1323.29 360.397)" stroke="white"/>
<line y1="-0.5" x2="1321.17" y2="-0.5" transform="matrix(-1 0 0 1 1325.41 872.757)" stroke="white"/>
<line y1="-0.5" x2="1321.6" y2="-0.5" transform="matrix(-1 0 0 1 1322.02 103.964)" stroke="white"/>
<line y1="-0.5" x2="1320.75" y2="-0.5" transform="matrix(-1 0 0 1 1324.57 744.288)" stroke="white"/>
<line y1="-0.5" x2="1321.6" y2="-0.5" transform="matrix(-1 0 0 1 1326.26 1000.72)" stroke="white"/>
<line y1="-0.5" x2="1321.17" y2="-0.5" transform="matrix(-1 0 0 1 1322.45 231.927)" stroke="white"/>
<circle cx="18.5" cy="103.5" r="4.5" fill="white"/>
<circle cx="661" cy="1001" r="9" fill="white"/>
<circle cx="886" cy="360" r="9" fill="white"/>
<circle cx="332" cy="1001" r="9" fill="white"/>
</g>
<defs>
<filter id="filter0_f_2091_60" x="-453" y="-456" width="1081" height="1150" filterUnits="userSpaceOnUse" color-interpolation-filters="sRGB">
<feFlood flood-opacity="0" result="BackgroundImageFix"/>
<feBlend mode="normal" in="SourceGraphic" in2="BackgroundImageFix" result="shape"/>
<feGaussianBlur stdDeviation="100" result="effect1_foregroundBlur_2091_60"/>
</filter>
<filter id="filter1_f_2091_60" x="-417" y="544" width="1081" height="1150" filterUnits="userSpaceOnUse" color-interpolation-filters="sRGB">
<feFlood flood-opacity="0" result="BackgroundImageFix"/>
<feBlend mode="normal" in="SourceGraphic" in2="BackgroundImageFix" result="shape"/>
<feGaussianBlur stdDeviation="100" result="effect1_foregroundBlur_2091_60"/>
</filter>
<linearGradient id="paint0_linear_2091_60" x1="209.03" y1="1.01608e-05" x2="1056.05" y2="1292.64" gradientUnits="userSpaceOnUse">
<stop stop-color="white"/>
<stop offset="1" stop-color="#C8D0E9"/>
</linearGradient>
<linearGradient id="paint1_linear_2091_60" x1="214.705" y1="1119" x2="535.128" y2="1423.84" gradientUnits="userSpaceOnUse">
<stop stop-color="#BAC7FF"/>
<stop offset="1" stop-color="#AEBDFF"/>
</linearGradient>
<clipPath id="clip0_2091_60">
<rect width="1280" height="1045" fill="white"/>
</clipPath>
</defs>
</svg>
