<svg width="1383" height="832" viewBox="0 0 1383 832" fill="none" xmlns="http://www.w3.org/2000/svg">
<path d="M73 737.5C373 52.5 1076.5 841 1344.5 2" stroke="white" stroke-width="7" stroke-dasharray="16 16"/>
<path d="M44 822.5C344 137.5 1112.5 972.5 1380.5 133.5" stroke="white" stroke-width="5" stroke-dasharray="16 16"/>
<g filter="url(#filter0_d_2268_1969)">
<mask id="path-3-inside-1_2268_1969" fill="white">
<path d="M42.6672 805.121C19.1025 790.604 11.7679 759.733 26.2847 736.168C40.8016 712.603 71.6725 705.268 95.2374 719.785C118.802 734.302 126.138 765.173 111.621 788.738C97.1044 812.303 66.2323 819.638 42.6672 805.121ZM57.3522 781.866C67.8415 788.328 81.5837 785.063 88.0455 774.574C94.5071 764.084 91.2416 750.343 80.7523 743.881C70.263 737.419 56.5222 740.684 50.0604 751.173C43.5986 761.663 46.863 775.404 57.3522 781.866Z"/>
</mask>
<path d="M42.6672 805.121C19.1025 790.604 11.7679 759.733 26.2847 736.168C40.8016 712.603 71.6725 705.268 95.2374 719.785C118.802 734.302 126.138 765.173 111.621 788.738C97.1044 812.303 66.2323 819.638 42.6672 805.121ZM57.3522 781.866C67.8415 788.328 81.5837 785.063 88.0455 774.574C94.5071 764.084 91.2416 750.343 80.7523 743.881C70.263 737.419 56.5222 740.684 50.0604 751.173C43.5986 761.663 46.863 775.404 57.3522 781.866Z" fill="url(#paint0_linear_2268_1969)"/>
<path d="M42.6672 805.121L42.1427 805.973L42.1427 805.973L42.6672 805.121ZM26.2847 736.168L25.4333 735.643L25.4333 735.643L26.2847 736.168ZM95.2374 719.785L95.7619 718.933L95.7619 718.933L95.2374 719.785ZM111.621 788.738L112.473 789.263L112.473 789.263L111.621 788.738ZM57.3522 781.866L56.8277 782.718L56.8277 782.718L57.3522 781.866ZM88.0455 774.574L88.8969 775.098L88.8969 775.098L88.0455 774.574ZM80.7523 743.881L81.2768 743.03L81.2768 743.03L80.7523 743.881ZM50.0604 751.173L49.209 750.649L49.209 750.649L50.0604 751.173ZM42.6672 805.121L43.1917 804.27C20.0972 790.043 12.909 759.787 27.1361 736.692L26.2847 736.168L25.4333 735.643C10.6269 759.679 18.1077 791.166 42.1427 805.973L42.6672 805.121ZM26.2847 736.168L27.1361 736.692C41.3633 713.598 71.6182 706.409 94.7129 720.636L95.2374 719.785L95.7619 718.933C71.7268 704.127 40.2399 711.609 25.4333 735.643L26.2847 736.168ZM95.2374 719.785L94.7129 720.636C117.808 734.863 124.997 765.119 110.77 788.214L111.621 788.738L112.473 789.263C127.279 765.227 119.797 733.74 95.7619 718.933L95.2374 719.785ZM111.621 788.738L110.77 788.214C96.5427 811.308 66.2866 818.497 43.1917 804.27L42.6672 805.121L42.1427 805.973C66.178 820.779 97.6662 813.298 112.473 789.263L111.621 788.738ZM57.3522 781.866L56.8277 782.718C67.7873 789.469 82.1454 786.058 88.8969 775.098L88.0455 774.574L87.1941 774.049C81.022 784.068 67.8958 787.187 57.8767 781.015L57.3522 781.866ZM88.0455 774.574L88.8969 775.098C95.6483 764.138 92.2363 749.781 81.2768 743.03L80.7523 743.881L80.2278 744.733C90.2469 750.905 93.366 764.03 87.1941 774.049L88.0455 774.574ZM80.7523 743.881L81.2768 743.03C70.3173 736.278 55.9604 739.69 49.209 750.649L50.0604 751.173L50.9118 751.698C57.0839 741.679 70.2087 738.561 80.2278 744.733L80.7523 743.881ZM50.0604 751.173L49.209 750.649C42.4576 761.608 45.8682 775.966 56.8277 782.718L57.3522 781.866L57.8767 781.015C47.8577 774.843 44.7397 761.717 50.9118 751.698L50.0604 751.173Z" fill="white" mask="url(#path-3-inside-1_2268_1969)"/>
</g>
<defs>
<filter id="filter0_d_2268_1969" x="5.93203" y="703.432" width="126.042" height="126.043" filterUnits="userSpaceOnUse" color-interpolation-filters="sRGB">
<feFlood flood-opacity="0" result="BackgroundImageFix"/>
<feColorMatrix in="SourceAlpha" type="matrix" values="0 0 0 0 0 0 0 0 0 0 0 0 0 0 0 0 0 0 127 0" result="hardAlpha"/>
<feOffset dy="4"/>
<feGaussianBlur stdDeviation="6.45"/>
<feComposite in2="hardAlpha" operator="out"/>
<feColorMatrix type="matrix" values="0 0 0 0 0.386625 0 0 0 0 0.458185 0 0 0 0 1 0 0 0 0.25 0"/>
<feBlend mode="normal" in2="BackgroundImageFix" result="effect1_dropShadow_2268_1969"/>
<feBlend mode="normal" in="SourceGraphic" in2="effect1_dropShadow_2268_1969" result="shape"/>
</filter>
<linearGradient id="paint0_linear_2268_1969" x1="42.6677" y1="805.122" x2="95.2378" y2="719.785" gradientUnits="userSpaceOnUse">
<stop stop-color="#F2F5FF"/>
<stop offset="1" stop-color="#8DADED"/>
</linearGradient>
</defs>
</svg>
