<svg width="1280" height="395" viewBox="0 0 1280 395" fill="none" xmlns="http://www.w3.org/2000/svg">
<g clip-path="url(#clip0_2162_384)">
<rect width="1280" height="395" fill="url(#paint0_linear_2162_384)"/>
<circle cx="18.5" cy="103.5" r="4.5" fill="white"/>
<g filter="url(#filter0_f_2162_384)">
<ellipse cx="41.5" cy="257" rx="340.5" ry="375" fill="#C8BAFF" fill-opacity="0.55"/>
</g>
<g filter="url(#filter1_f_2162_384)">
<ellipse cx="1178.5" cy="126" rx="340.5" ry="375" fill="url(#paint1_linear_2162_384)" fill-opacity="0.8"/>
</g>
<line x1="640.441" y1="-71.708" x2="640.441" y2="593.041" stroke="white" stroke-width="0.5"/>
<line x1="86.9492" y1="-71.708" x2="86.9492" y2="593.041" stroke="white" stroke-width="0.5"/>
<line x1="751.141" y1="-71.708" x2="751.141" y2="593.041" stroke="white" stroke-width="0.5"/>
<line x1="197.648" y1="-71.708" x2="197.648" y2="593.041" stroke="white" stroke-width="0.5"/>
<line x1="861.836" y1="-71.708" x2="861.836" y2="593.041" stroke="white" stroke-width="0.5"/>
<line x1="308.344" y1="-71.708" x2="308.344" y2="593.041" stroke="white" stroke-width="0.5"/>
<line x1="972.535" y1="-71.708" x2="972.535" y2="593.041" stroke="white" stroke-width="0.5"/>
<line x1="529.746" y1="-71.708" x2="529.746" y2="593.041" stroke="white" stroke-width="0.5"/>
<line x1="1193.93" y1="-71.708" x2="1193.93" y2="593.041" stroke="white" stroke-width="0.5"/>
<line x1="640.441" y1="-71.708" x2="640.441" y2="593.041" stroke="white" stroke-width="0.5"/>
<line x1="419.047" y1="-71.708" x2="419.047" y2="593.041" stroke="white" stroke-width="0.5"/>
<line x1="1083.24" y1="-71.708" x2="1083.24" y2="593.041" stroke="white" stroke-width="0.5"/>
<line y1="-0.25" x2="1321.17" y2="-0.25" transform="matrix(-1 0 0 1 1300.14 317.729)" stroke="white" stroke-width="0.5"/>
<line y1="-0.25" x2="1321.6" y2="-0.25" transform="matrix(-1 0 0 1 1299.71 239.904)" stroke="white" stroke-width="0.5"/>
<line y1="-0.25" x2="1321.6" y2="-0.25" transform="matrix(-1 0 0 1 1299.29 162.078)" stroke="white" stroke-width="0.5"/>
<line y1="-0.25" x2="1321.6" y2="-0.25" transform="matrix(-1 0 0 1 1298.02 6.11914)" stroke="white" stroke-width="0.5"/>
<line y1="-0.25" x2="1321.17" y2="-0.25" transform="matrix(-1 0 0 1 1298.45 83.9424)" stroke="white" stroke-width="0.5"/>
</g>
<defs>
<filter id="filter0_f_2162_384" x="-499" y="-318" width="1081" height="1150" filterUnits="userSpaceOnUse" color-interpolation-filters="sRGB">
<feFlood flood-opacity="0" result="BackgroundImageFix"/>
<feBlend mode="normal" in="SourceGraphic" in2="BackgroundImageFix" result="shape"/>
<feGaussianBlur stdDeviation="100" result="effect1_foregroundBlur_2162_384"/>
</filter>
<filter id="filter1_f_2162_384" x="638" y="-449" width="1081" height="1150" filterUnits="userSpaceOnUse" color-interpolation-filters="sRGB">
<feFlood flood-opacity="0" result="BackgroundImageFix"/>
<feBlend mode="normal" in="SourceGraphic" in2="BackgroundImageFix" result="shape"/>
<feGaussianBlur stdDeviation="100" result="effect1_foregroundBlur_2162_384"/>
</filter>
<linearGradient id="paint0_linear_2162_384" x1="-62" y1="-69.5808" x2="-9.66126" y2="381.078" gradientUnits="userSpaceOnUse">
<stop stop-color="white"/>
<stop offset="1" stop-color="#C8D0E9"/>
</linearGradient>
<linearGradient id="paint1_linear_2162_384" x1="1269.71" y1="126" x2="1590.13" y2="430.839" gradientUnits="userSpaceOnUse">
<stop stop-color="#BAC7FF"/>
<stop offset="1" stop-color="#AEBDFF"/>
</linearGradient>
<clipPath id="clip0_2162_384">
<rect width="1280" height="395" fill="white"/>
</clipPath>
</defs>
</svg>
