<svg width="1284" height="396" viewBox="0 0 1284 396" fill="none" xmlns="http://www.w3.org/2000/svg">
<g clip-path="url(#clip0_2236_1519)">
<rect width="1283.24" height="396" fill="url(#paint0_linear_2236_1519)"/>
<path d="M895.677 136.247L895.676 136.238C895.652 136.099 895.651 135.781 895.674 135.227C895.697 134.677 895.742 133.906 895.808 132.872C895.938 130.812 896.148 127.709 896.409 123.237L896.492 123.145L896.494 123.142L955.518 51.2549C955.532 51.2541 955.549 51.254 955.569 51.2529C955.632 51.2495 955.726 51.2439 955.849 51.2373C956.093 51.224 956.453 51.2046 956.912 51.1797C957.831 51.1298 959.15 51.0588 960.75 50.9717C963.95 50.7974 968.274 50.5608 972.769 50.3135C981.751 49.8192 991.419 49.2792 994.171 49.0996V49.1006H1193.89V126.816H1010.52L1010.44 126.807C1010.38 126.8 1010.29 126.79 1010.18 126.78C1009.96 126.761 1009.63 126.739 1009.22 126.729C1008.39 126.708 1007.21 126.737 1005.79 126.929C1002.96 127.312 999.19 128.349 995.431 130.966C988.025 136.122 980.699 147.389 980.673 171.771L980.678 172.942V253.961C980.678 253.962 980.677 253.964 980.677 253.966C980.676 253.971 980.676 253.979 980.675 253.988C980.672 254.008 980.668 254.038 980.664 254.076C980.655 254.154 980.643 254.269 980.628 254.419C980.598 254.718 980.558 255.157 980.519 255.715C980.44 256.831 980.364 258.426 980.373 260.339C980.392 264.165 980.752 269.269 982.12 274.374C983.488 279.479 985.865 284.592 989.921 288.43C993.98 292.269 999.712 294.825 1007.77 294.825H1193.9V373.258H989.953V373.29C989.953 373.265 989.952 373.259 989.952 373.258H989.885C989.84 373.258 989.772 373.259 989.684 373.26C989.506 373.26 989.242 373.261 988.897 373.258C988.209 373.252 987.198 373.235 985.911 373.189C983.338 373.099 979.661 372.896 975.248 372.445C966.421 371.543 954.651 369.65 942.876 365.683C931.101 361.715 919.327 355.675 910.484 346.487C901.644 337.302 895.729 324.965 895.677 308.389V136.247Z" fill="url(#paint1_linear_2236_1519)" fill-opacity="0.5" stroke="white" stroke-width="0.200506"/>
<mask id="mask0_2236_1519" style="mask-type:luminance" maskUnits="userSpaceOnUse" x="895" y="49" width="299" height="325">
<path d="M895.349 136.267L895.348 136.258C895.324 136.12 895.323 135.801 895.346 135.247C895.369 134.697 895.414 133.926 895.479 132.892C895.61 130.832 895.82 127.729 896.081 123.257L896.164 123.165L896.166 123.162L955.189 51.275C955.203 51.2743 955.221 51.2742 955.241 51.2731C955.304 51.2697 955.398 51.2641 955.521 51.2574C955.765 51.2442 956.125 51.2248 956.584 51.1998C957.503 51.1499 958.822 51.079 960.422 50.9918C963.622 50.8175 967.945 50.581 972.44 50.3336C981.423 49.8393 991.09 49.2993 993.843 49.1198V49.1207H1193.57V126.837H1010.19L1010.11 126.827C1010.05 126.82 1009.97 126.81 1009.86 126.8C1009.63 126.781 1009.31 126.759 1008.89 126.749C1008.06 126.729 1006.88 126.757 1005.47 126.949C1002.63 127.332 998.862 128.369 995.103 130.986C987.697 136.142 980.371 147.409 980.345 171.792L980.35 172.963V253.981C980.349 253.982 980.349 253.984 980.349 253.986C980.348 253.991 980.348 253.999 980.347 254.008C980.344 254.028 980.34 254.058 980.336 254.096C980.327 254.174 980.315 254.289 980.3 254.439C980.27 254.738 980.23 255.177 980.19 255.735C980.112 256.851 980.036 258.446 980.045 260.359C980.063 264.185 980.424 269.289 981.792 274.394C983.16 279.499 985.536 284.612 989.593 288.45C993.651 292.289 999.384 294.845 1007.45 294.845H1193.57V373.278H989.625V373.31C989.624 373.285 989.624 373.279 989.624 373.278H989.557C989.512 373.278 989.444 373.28 989.355 373.28C989.178 373.281 988.914 373.281 988.569 373.278C987.88 373.272 986.87 373.255 985.583 373.21C983.01 373.119 979.333 372.916 974.92 372.465C966.093 371.563 954.323 369.67 942.548 365.703C930.773 361.735 918.999 355.696 910.156 346.507C901.316 337.322 895.401 324.985 895.349 308.409V136.267Z" fill="white" stroke="white" stroke-width="0.200506"/>
</mask>
<g mask="url(#mask0_2236_1519)">
<g filter="url(#filter0_d_2236_1519)">
<path d="M1194.01 49.0205H895.565V126.937H1194.01V49.0205Z" fill="url(#paint2_linear_2236_1519)" fill-opacity="0.5" shape-rendering="crispEdges"/>
<path d="M1193.91 49.1211V126.837H895.666V49.1211H1193.91Z" stroke="white" stroke-width="0.200506" shape-rendering="crispEdges"/>
</g>
</g>
<path d="M246.623 70.8447L207.51 152.624L102.865 371.609H14.1592L157.726 70.8447H246.623Z" fill="url(#paint3_linear_2236_1519)" fill-opacity="0.5" stroke="white" stroke-width="0.200506"/>
<g filter="url(#filter1_d_2236_1519)">
<path d="M202.943 152.667L311.281 371.71H403.134L254.685 70.7441H162.535L202.951 152.667H202.943Z" fill="url(#paint4_linear_2236_1519)" fill-opacity="0.5" shape-rendering="crispEdges"/>
<path d="M254.624 70.8447L402.973 371.609H311.343L203.104 152.768H203.112L203.041 152.623L162.696 70.8447H254.624Z" stroke="white" stroke-width="0.200506" shape-rendering="crispEdges"/>
</g>
<g filter="url(#filter2_d_2236_1519)">
<path d="M465.159 128.495C465.159 128.495 458.766 57.6584 541.053 51.6248H762.969V128.495H465.167H465.159Z" fill="url(#paint5_linear_2236_1519)" fill-opacity="0.5" shape-rendering="crispEdges"/>
<path d="M541.053 51.7253H762.868V128.394H465.251C465.249 128.365 465.246 128.328 465.243 128.284C465.234 128.15 465.22 127.952 465.207 127.693C465.18 127.174 465.152 126.411 465.145 125.438C465.13 123.493 465.202 120.706 465.545 117.343C466.231 110.615 468.001 101.584 472.339 92.365C481.011 73.9359 499.95 54.7403 541.053 51.7244V51.7253Z" stroke="white" stroke-width="0.200506" shape-rendering="crispEdges"/>
</g>
<path d="M762.757 170.735V248.665H551.23L551.222 248.755C549.937 261.572 551.466 270.794 554.489 277.417C557.513 284.042 562.03 288.059 566.709 290.469C571.386 292.878 576.221 293.681 579.886 293.881C581.718 293.981 583.26 293.931 584.343 293.856C584.884 293.818 585.311 293.774 585.604 293.74C585.749 293.722 585.862 293.707 585.938 293.697C585.975 293.691 586.004 293.688 586.023 293.685C586.033 293.683 586.041 293.682 586.046 293.681H762.861V371.612H544.822L542.896 371.581C523.142 371.122 508.352 366.238 497.278 359.121C485.847 351.775 478.369 342.046 473.479 332.336C468.589 322.626 466.287 312.937 465.208 305.674C464.669 302.044 464.436 299.02 464.337 296.905C464.287 295.847 464.271 295.016 464.268 294.45C464.266 294.167 464.268 293.95 464.27 293.804C464.27 293.731 464.272 293.676 464.272 293.639C464.273 293.621 464.273 293.607 464.273 293.598V248.806L499.694 210.895L499.721 210.866V210.747L535.844 170.735H762.757Z" fill="url(#paint6_linear_2236_1519)" fill-opacity="0.5" stroke="white" stroke-width="0.200506"/>
<circle cx="18.5" cy="103.5" r="4.5" fill="white"/>
<g filter="url(#filter3_f_2236_1519)">
<ellipse cx="41.5" cy="257" rx="340.5" ry="375" fill="#C8BAFF" fill-opacity="0.55"/>
</g>
<g filter="url(#filter4_f_2236_1519)">
<ellipse cx="1178.5" cy="126" rx="340.5" ry="375" fill="url(#paint7_linear_2236_1519)" fill-opacity="0.8"/>
</g>
</g>
<defs>
<filter id="filter0_d_2236_1519" x="891.555" y="49.0205" width="306.462" height="85.937" filterUnits="userSpaceOnUse" color-interpolation-filters="sRGB">
<feFlood flood-opacity="0" result="BackgroundImageFix"/>
<feColorMatrix in="SourceAlpha" type="matrix" values="0 0 0 0 0 0 0 0 0 0 0 0 0 0 0 0 0 0 127 0" result="hardAlpha"/>
<feOffset dy="4.01013"/>
<feGaussianBlur stdDeviation="2.00506"/>
<feComposite in2="hardAlpha" operator="out"/>
<feColorMatrix type="matrix" values="0 0 0 0 0 0 0 0 0 0 0 0 0 0 0 0 0 0 0.25 0"/>
<feBlend mode="normal" in2="BackgroundImageFix" result="effect1_dropShadow_2236_1519"/>
<feBlend mode="normal" in="SourceGraphic" in2="effect1_dropShadow_2236_1519" result="shape"/>
</filter>
<filter id="filter1_d_2236_1519" x="158.525" y="70.7441" width="248.619" height="308.986" filterUnits="userSpaceOnUse" color-interpolation-filters="sRGB">
<feFlood flood-opacity="0" result="BackgroundImageFix"/>
<feColorMatrix in="SourceAlpha" type="matrix" values="0 0 0 0 0 0 0 0 0 0 0 0 0 0 0 0 0 0 127 0" result="hardAlpha"/>
<feOffset dy="4.01013"/>
<feGaussianBlur stdDeviation="2.00506"/>
<feComposite in2="hardAlpha" operator="out"/>
<feColorMatrix type="matrix" values="0 0 0 0 0 0 0 0 0 0 0 0 0 0 0 0 0 0 0.25 0"/>
<feBlend mode="normal" in2="BackgroundImageFix" result="effect1_dropShadow_2236_1519"/>
<feBlend mode="normal" in="SourceGraphic" in2="effect1_dropShadow_2236_1519" result="shape"/>
</filter>
<filter id="filter2_d_2236_1519" x="461.033" y="47.6146" width="305.946" height="84.8904" filterUnits="userSpaceOnUse" color-interpolation-filters="sRGB">
<feFlood flood-opacity="0" result="BackgroundImageFix"/>
<feColorMatrix in="SourceAlpha" type="matrix" values="0 0 0 0 0 0 0 0 0 0 0 0 0 0 0 0 0 0 127 0" result="hardAlpha"/>
<feOffset/>
<feGaussianBlur stdDeviation="2.00506"/>
<feComposite in2="hardAlpha" operator="out"/>
<feColorMatrix type="matrix" values="0 0 0 0 0 0 0 0 0 0 0 0 0 0 0 0 0 0 0.25 0"/>
<feBlend mode="normal" in2="BackgroundImageFix" result="effect1_dropShadow_2236_1519"/>
<feBlend mode="normal" in="SourceGraphic" in2="effect1_dropShadow_2236_1519" result="shape"/>
</filter>
<filter id="filter3_f_2236_1519" x="-499" y="-318" width="1081" height="1150" filterUnits="userSpaceOnUse" color-interpolation-filters="sRGB">
<feFlood flood-opacity="0" result="BackgroundImageFix"/>
<feBlend mode="normal" in="SourceGraphic" in2="BackgroundImageFix" result="shape"/>
<feGaussianBlur stdDeviation="100" result="effect1_foregroundBlur_2236_1519"/>
</filter>
<filter id="filter4_f_2236_1519" x="638" y="-449" width="1081" height="1150" filterUnits="userSpaceOnUse" color-interpolation-filters="sRGB">
<feFlood flood-opacity="0" result="BackgroundImageFix"/>
<feBlend mode="normal" in="SourceGraphic" in2="BackgroundImageFix" result="shape"/>
<feGaussianBlur stdDeviation="100" result="effect1_foregroundBlur_2236_1519"/>
</filter>
<linearGradient id="paint0_linear_2236_1519" x1="-62.157" y1="-69.7569" x2="-9.68571" y2="382.043" gradientUnits="userSpaceOnUse">
<stop stop-color="white"/>
<stop offset="1" stop-color="#C8D0E9"/>
</linearGradient>
<linearGradient id="paint1_linear_2236_1519" x1="1044.78" y1="48.9908" x2="1044.78" y2="373.358" gradientUnits="userSpaceOnUse">
<stop stop-color="#C7D0EA"/>
<stop offset="1" stop-color="#7F6DC0"/>
</linearGradient>
<linearGradient id="paint2_linear_2236_1519" x1="895.565" y1="87.9743" x2="1370.85" y2="87.9743" gradientUnits="userSpaceOnUse">
<stop stop-color="#47099F"/>
<stop offset="1" stop-color="#F8AD1D"/>
</linearGradient>
<linearGradient id="paint3_linear_2236_1519" x1="130.391" y1="70.7526" x2="130.391" y2="371.719" gradientUnits="userSpaceOnUse">
<stop stop-color="#C7D0EA"/>
<stop offset="1" stop-color="#7F6DC0"/>
</linearGradient>
<linearGradient id="paint4_linear_2236_1519" x1="162.657" y1="220.982" x2="545.49" y2="221.666" gradientUnits="userSpaceOnUse">
<stop stop-color="#47099F"/>
<stop offset="1" stop-color="#F8AD1D"/>
</linearGradient>
<linearGradient id="paint5_linear_2236_1519" x1="465.043" y1="90.0598" x2="762.969" y2="90.0598" gradientUnits="userSpaceOnUse">
<stop stop-color="#533EB0"/>
<stop offset="1" stop-color="#8372C2"/>
</linearGradient>
<linearGradient id="paint6_linear_2236_1519" x1="613.563" y1="170.634" x2="613.563" y2="371.722" gradientUnits="userSpaceOnUse">
<stop stop-color="#C7D0EA"/>
<stop offset="1" stop-color="#7F6DC0"/>
</linearGradient>
<linearGradient id="paint7_linear_2236_1519" x1="1269.71" y1="126" x2="1590.13" y2="430.839" gradientUnits="userSpaceOnUse">
<stop stop-color="#BAC7FF"/>
<stop offset="1" stop-color="#AEBDFF"/>
</linearGradient>
<clipPath id="clip0_2236_1519">
<rect width="1283.24" height="396" fill="white"/>
</clipPath>
</defs>
</svg>
