<svg width="1284" height="297" viewBox="0 0 1284 297" fill="none" xmlns="http://www.w3.org/2000/svg">
<g clip-path="url(#clip0_2254_1169)">
<rect width="1283" height="297" transform="translate(0.120117)" fill="url(#paint0_linear_2254_1169)"/>
<circle cx="18.6201" cy="4.5" r="4.5" fill="white"/>
<g filter="url(#filter0_f_2254_1169)">
<ellipse cx="41.6201" cy="158" rx="340.5" ry="375" fill="#C8BAFF" fill-opacity="0.55"/>
</g>
<g filter="url(#filter1_f_2254_1169)">
<ellipse cx="1178.62" cy="27" rx="340.5" ry="375" fill="url(#paint1_linear_2254_1169)" fill-opacity="0.8"/>
</g>
<rect x="0.437758" y="-0.437758" width="93.1245" height="119.124" rx="41.1492" transform="matrix(1 0 0 -1 46 173.124)" fill="url(#paint2_linear_2254_1169)" stroke="url(#paint3_linear_2254_1169)" stroke-width="0.875515"/>
<rect x="0.437758" y="-0.437758" width="93.1245" height="119.124" rx="41.1492" transform="matrix(1 0 0 -1 1213 99.1245)" fill="url(#paint4_linear_2254_1169)" stroke="url(#paint5_linear_2254_1169)" stroke-width="0.875515"/>
<rect x="0.437758" y="-0.437758" width="93.1245" height="119.124" rx="41.1492" transform="matrix(1 0 0 -1 -1 319.124)" fill="url(#paint6_linear_2254_1169)" stroke="url(#paint7_linear_2254_1169)" stroke-width="0.875515"/>
<rect x="0.437758" y="-0.437758" width="93.1245" height="119.124" rx="41.1492" transform="matrix(1 0 0 -1 1156 258.124)" fill="url(#paint8_linear_2254_1169)" stroke="url(#paint9_linear_2254_1169)" stroke-width="0.875515"/>
<rect x="0.437758" y="-0.437758" width="93.1245" height="119.124" rx="41.1492" transform="matrix(1 0 0 -1 910 329.124)" fill="url(#paint10_linear_2254_1169)" stroke="url(#paint11_linear_2254_1169)" stroke-width="0.875515"/>
<path d="M851.266 110.994L851.265 110.985C851.248 110.894 851.247 110.679 851.264 110.296C851.28 109.918 851.313 109.387 851.36 108.675C851.454 107.257 851.603 105.123 851.79 102.048L851.842 101.992L851.845 101.989L894.153 52.4688C894.161 52.4684 894.169 52.4683 894.179 52.4678C894.224 52.4654 894.291 52.4626 894.379 52.458C894.554 52.4489 894.812 52.4352 895.142 52.418C895.8 52.3836 896.746 52.3345 897.893 52.2744C900.187 52.1543 903.287 51.9917 906.51 51.8213C912.949 51.4808 919.879 51.1082 921.854 50.9844V50.9854H1065.02V104.469H933.579C933.576 104.468 933.572 104.468 933.566 104.468C933.556 104.466 933.539 104.464 933.519 104.462C933.477 104.457 933.415 104.451 933.335 104.444C933.175 104.431 932.941 104.415 932.644 104.408C932.049 104.394 931.2 104.414 930.184 104.546C928.15 104.81 925.441 105.526 922.741 107.332C917.421 110.892 912.166 118.667 912.147 135.474L912.15 136.28V192.101C912.15 192.104 912.149 192.109 912.148 192.116C912.147 192.13 912.144 192.15 912.141 192.177C912.134 192.23 912.126 192.31 912.115 192.413C912.094 192.62 912.064 192.923 912.036 193.308C911.98 194.078 911.926 195.177 911.933 196.496C911.946 199.134 912.204 202.653 913.186 206.175C914.167 209.696 915.873 213.225 918.787 215.874C921.703 218.525 925.82 220.287 931.606 220.287H1065.02V274.265H918.816C918.808 274.265 918.796 274.265 918.78 274.266C918.748 274.266 918.699 274.265 918.636 274.266C918.508 274.266 918.319 274.267 918.072 274.265C917.579 274.261 916.854 274.249 915.932 274.218C914.087 274.156 911.451 274.016 908.288 273.705C901.961 273.084 893.524 271.78 885.085 269.047C876.645 266.314 868.208 262.154 861.873 255.828C855.54 249.505 851.303 241.013 851.266 229.602V110.994Z" fill="url(#paint12_linear_2254_1169)" fill-opacity="0.5" stroke="white" stroke-width="0.200506"/>
<mask id="mask0_2254_1169" style="mask-type:luminance" maskUnits="userSpaceOnUse" x="850" y="50" width="215" height="225">
<path d="M851.03 111.008L851.029 110.999C851.013 110.908 851.012 110.693 851.028 110.31C851.045 109.931 851.078 109.401 851.125 108.688C851.219 107.271 851.368 105.136 851.555 102.062L851.606 102.006L851.609 102.003L893.918 52.4824C893.925 52.482 893.934 52.4819 893.943 52.4814C893.989 52.4791 894.056 52.4763 894.144 52.4717C894.319 52.4625 894.577 52.4488 894.906 52.4316C895.565 52.3973 896.51 52.3481 897.657 52.2881C899.951 52.168 903.052 52.0054 906.274 51.835C912.713 51.4945 919.644 51.1218 921.618 50.998V50.999H1064.78V104.482H933.344C933.341 104.482 933.336 104.482 933.331 104.481C933.32 104.48 933.304 104.478 933.283 104.476C933.241 104.471 933.18 104.465 933.1 104.458C932.939 104.444 932.705 104.429 932.408 104.422C931.813 104.408 930.965 104.428 929.948 104.56C927.915 104.824 925.205 105.539 922.506 107.346C917.186 110.906 911.931 118.68 911.912 135.487L911.915 136.294V192.114C911.915 192.118 911.914 192.123 911.913 192.13C911.911 192.144 911.908 192.164 911.905 192.19C911.899 192.244 911.891 192.324 911.88 192.427C911.858 192.633 911.829 192.936 911.801 193.321C911.744 194.091 911.691 195.191 911.697 196.51C911.711 199.148 911.969 202.667 912.95 206.188C913.932 209.71 915.638 213.239 918.552 215.888C921.468 218.539 925.585 220.301 931.371 220.301H1064.79V274.278H918.581C918.573 274.278 918.561 274.279 918.545 274.279C918.513 274.28 918.464 274.279 918.4 274.279C918.273 274.28 918.084 274.28 917.837 274.278C917.343 274.274 916.618 274.263 915.696 274.231C913.852 274.169 911.216 274.029 908.053 273.719C901.725 273.097 893.289 271.793 884.85 269.061C876.409 266.328 867.973 262.168 861.638 255.842C855.305 249.518 851.068 241.026 851.03 229.615V111.008Z" fill="white" stroke="white" stroke-width="0.200506"/>
</mask>
<g mask="url(#mask0_2254_1169)">
<g filter="url(#filter2_d_2254_1169)">
<path d="M1065.13 50.8984H851.158V104.583H1065.13V50.8984Z" fill="url(#paint13_linear_2254_1169)" fill-opacity="0.5" shape-rendering="crispEdges"/>
<path d="M1065.03 50.999V104.482H851.259V50.999H1065.03Z" stroke="white" stroke-width="0.200506" shape-rendering="crispEdges"/>
</g>
</g>
<path d="M385.851 65.9658L357.832 122.265V122.266L282.814 273.128H219.282L322.182 65.9658H385.851Z" fill="url(#paint14_linear_2254_1169)" fill-opacity="0.5" stroke="white" stroke-width="0.200506"/>
<g filter="url(#filter3_d_2254_1169)">
<path d="M354.583 122.31L432.255 273.229H498.11L391.679 65.8652H325.612L354.588 122.31H354.583Z" fill="url(#paint15_linear_2254_1169)" fill-opacity="0.5" shape-rendering="crispEdges"/>
<path d="M391.618 65.9658L497.945 273.128H432.316L354.747 122.41H354.752L354.678 122.264L325.776 65.9658H391.618Z" stroke="white" stroke-width="0.200506" shape-rendering="crispEdges"/>
</g>
<g filter="url(#filter4_d_2254_1169)">
<path d="M542.578 105.655C542.578 105.655 537.995 56.8495 596.99 52.6924H756.093V105.655H542.584H542.578Z" fill="url(#paint16_linear_2254_1169)" fill-opacity="0.5" shape-rendering="crispEdges"/>
<path d="M596.99 52.793H755.993V105.555H542.671C542.67 105.541 542.668 105.525 542.667 105.508C542.66 105.416 542.65 105.279 542.641 105.101C542.622 104.744 542.602 104.219 542.597 103.55C542.587 102.21 542.638 100.291 542.884 97.9746C543.375 93.3424 544.643 87.1243 547.751 80.7773C553.963 68.091 567.531 54.8698 596.99 52.792V52.793Z" stroke="white" stroke-width="0.200506" shape-rendering="crispEdges"/>
</g>
<path d="M755.913 134.79V188.421H604.263L604.253 188.511C603.331 197.346 604.428 203.706 606.599 208.276C608.77 212.848 612.014 215.62 615.373 217.283C618.73 218.945 622.201 219.498 624.83 219.637C626.145 219.706 627.251 219.671 628.028 219.619C628.417 219.593 628.724 219.563 628.934 219.539C629.038 219.527 629.119 219.517 629.174 219.51C629.201 219.506 629.222 219.503 629.236 219.501L629.252 219.499H755.987V273.131H599.693C584.84 273.009 573.811 269.587 565.62 264.528C557.429 259.47 552.072 252.77 548.568 246.085C545.065 239.399 543.415 232.728 542.642 227.727C542.255 225.226 542.087 223.144 542.017 221.688C541.981 220.959 541.97 220.387 541.968 219.997C541.967 219.803 541.967 219.653 541.969 219.553C541.969 219.503 541.97 219.465 541.971 219.439C541.971 219.427 541.972 219.417 541.972 219.411V188.562L567.357 162.451L567.386 162.422V162.34L593.267 134.79H755.913Z" fill="url(#paint17_linear_2254_1169)" fill-opacity="0.5" stroke="white" stroke-width="0.200506"/>
</g>
<defs>
<filter id="filter0_f_2254_1169" x="-498.88" y="-417" width="1081" height="1150" filterUnits="userSpaceOnUse" color-interpolation-filters="sRGB">
<feFlood flood-opacity="0" result="BackgroundImageFix"/>
<feBlend mode="normal" in="SourceGraphic" in2="BackgroundImageFix" result="shape"/>
<feGaussianBlur stdDeviation="100" result="effect1_foregroundBlur_2254_1169"/>
</filter>
<filter id="filter1_f_2254_1169" x="638.12" y="-548" width="1081" height="1150" filterUnits="userSpaceOnUse" color-interpolation-filters="sRGB">
<feFlood flood-opacity="0" result="BackgroundImageFix"/>
<feBlend mode="normal" in="SourceGraphic" in2="BackgroundImageFix" result="shape"/>
<feGaussianBlur stdDeviation="100" result="effect1_foregroundBlur_2254_1169"/>
</filter>
<filter id="filter2_d_2254_1169" x="847.148" y="50.8984" width="221.987" height="61.7043" filterUnits="userSpaceOnUse" color-interpolation-filters="sRGB">
<feFlood flood-opacity="0" result="BackgroundImageFix"/>
<feColorMatrix in="SourceAlpha" type="matrix" values="0 0 0 0 0 0 0 0 0 0 0 0 0 0 0 0 0 0 127 0" result="hardAlpha"/>
<feOffset dy="4.01013"/>
<feGaussianBlur stdDeviation="2.00506"/>
<feComposite in2="hardAlpha" operator="out"/>
<feColorMatrix type="matrix" values="0 0 0 0 0 0 0 0 0 0 0 0 0 0 0 0 0 0 0.25 0"/>
<feBlend mode="normal" in2="BackgroundImageFix" result="effect1_dropShadow_2254_1169"/>
<feBlend mode="normal" in="SourceGraphic" in2="effect1_dropShadow_2254_1169" result="shape"/>
</filter>
<filter id="filter3_d_2254_1169" x="321.602" y="65.8652" width="180.517" height="215.384" filterUnits="userSpaceOnUse" color-interpolation-filters="sRGB">
<feFlood flood-opacity="0" result="BackgroundImageFix"/>
<feColorMatrix in="SourceAlpha" type="matrix" values="0 0 0 0 0 0 0 0 0 0 0 0 0 0 0 0 0 0 127 0" result="hardAlpha"/>
<feOffset dy="4.01013"/>
<feGaussianBlur stdDeviation="2.00506"/>
<feComposite in2="hardAlpha" operator="out"/>
<feColorMatrix type="matrix" values="0 0 0 0 0 0 0 0 0 0 0 0 0 0 0 0 0 0 0.25 0"/>
<feBlend mode="normal" in2="BackgroundImageFix" result="effect1_dropShadow_2254_1169"/>
<feBlend mode="normal" in="SourceGraphic" in2="effect1_dropShadow_2254_1169" result="shape"/>
</filter>
<filter id="filter4_d_2254_1169" x="538.485" y="48.6823" width="221.618" height="60.9831" filterUnits="userSpaceOnUse" color-interpolation-filters="sRGB">
<feFlood flood-opacity="0" result="BackgroundImageFix"/>
<feColorMatrix in="SourceAlpha" type="matrix" values="0 0 0 0 0 0 0 0 0 0 0 0 0 0 0 0 0 0 127 0" result="hardAlpha"/>
<feOffset/>
<feGaussianBlur stdDeviation="2.00506"/>
<feComposite in2="hardAlpha" operator="out"/>
<feColorMatrix type="matrix" values="0 0 0 0 0 0 0 0 0 0 0 0 0 0 0 0 0 0 0.25 0"/>
<feBlend mode="normal" in2="BackgroundImageFix" result="effect1_dropShadow_2254_1169"/>
<feBlend mode="normal" in="SourceGraphic" in2="effect1_dropShadow_2254_1169" result="shape"/>
</filter>
<linearGradient id="paint0_linear_2254_1169" x1="-62.1453" y1="-52.3177" x2="-32.4519" y2="288.516" gradientUnits="userSpaceOnUse">
<stop stop-color="white"/>
<stop offset="1" stop-color="#C8D0E9"/>
</linearGradient>
<linearGradient id="paint1_linear_2254_1169" x1="1269.83" y1="27" x2="1590.25" y2="331.839" gradientUnits="userSpaceOnUse">
<stop stop-color="#BAC7FF"/>
<stop offset="1" stop-color="#AEBDFF"/>
</linearGradient>
<linearGradient id="paint2_linear_2254_1169" x1="47" y1="0" x2="47" y2="120" gradientUnits="userSpaceOnUse">
<stop stop-color="#6989FF"/>
<stop offset="1" stop-color="#B1C2FF" stop-opacity="0"/>
</linearGradient>
<linearGradient id="paint3_linear_2254_1169" x1="47" y1="0" x2="47" y2="120" gradientUnits="userSpaceOnUse">
<stop stop-color="white"/>
<stop offset="1" stop-color="#999999" stop-opacity="0"/>
</linearGradient>
<linearGradient id="paint4_linear_2254_1169" x1="47" y1="0" x2="47" y2="120" gradientUnits="userSpaceOnUse">
<stop stop-color="#6989FF"/>
<stop offset="1" stop-color="#B1C2FF" stop-opacity="0"/>
</linearGradient>
<linearGradient id="paint5_linear_2254_1169" x1="47" y1="0" x2="47" y2="120" gradientUnits="userSpaceOnUse">
<stop stop-color="white"/>
<stop offset="1" stop-color="#999999" stop-opacity="0"/>
</linearGradient>
<linearGradient id="paint6_linear_2254_1169" x1="47" y1="0" x2="47" y2="120" gradientUnits="userSpaceOnUse">
<stop stop-color="#6989FF"/>
<stop offset="1" stop-color="#B1C2FF" stop-opacity="0"/>
</linearGradient>
<linearGradient id="paint7_linear_2254_1169" x1="47" y1="0" x2="47" y2="120" gradientUnits="userSpaceOnUse">
<stop stop-color="white"/>
<stop offset="1" stop-color="#999999" stop-opacity="0"/>
</linearGradient>
<linearGradient id="paint8_linear_2254_1169" x1="47" y1="0" x2="47" y2="120" gradientUnits="userSpaceOnUse">
<stop stop-color="#6989FF"/>
<stop offset="1" stop-color="#B1C2FF" stop-opacity="0"/>
</linearGradient>
<linearGradient id="paint9_linear_2254_1169" x1="47" y1="0" x2="47" y2="120" gradientUnits="userSpaceOnUse">
<stop stop-color="white"/>
<stop offset="1" stop-color="#999999" stop-opacity="0"/>
</linearGradient>
<linearGradient id="paint10_linear_2254_1169" x1="47" y1="0" x2="47" y2="120" gradientUnits="userSpaceOnUse">
<stop stop-color="#6989FF"/>
<stop offset="1" stop-color="#B1C2FF" stop-opacity="0"/>
</linearGradient>
<linearGradient id="paint11_linear_2254_1169" x1="47" y1="0" x2="47" y2="120" gradientUnits="userSpaceOnUse">
<stop stop-color="white"/>
<stop offset="1" stop-color="#999999" stop-opacity="0"/>
</linearGradient>
<linearGradient id="paint12_linear_2254_1169" x1="958.138" y1="50.8784" x2="958.138" y2="274.365" gradientUnits="userSpaceOnUse">
<stop stop-color="#C7D0EA"/>
<stop offset="1" stop-color="#7F6DC0"/>
</linearGradient>
<linearGradient id="paint13_linear_2254_1169" x1="851.158" y1="77.7373" x2="1191.92" y2="77.7373" gradientUnits="userSpaceOnUse">
<stop stop-color="#47099F"/>
<stop offset="1" stop-color="#F8AD1D"/>
</linearGradient>
<linearGradient id="paint14_linear_2254_1169" x1="302.567" y1="65.8711" x2="302.567" y2="273.234" gradientUnits="userSpaceOnUse">
<stop stop-color="#C7D0EA"/>
<stop offset="1" stop-color="#7F6DC0"/>
</linearGradient>
<linearGradient id="paint15_linear_2254_1169" x1="325.7" y1="169.378" x2="600.172" y2="169.888" gradientUnits="userSpaceOnUse">
<stop stop-color="#47099F"/>
<stop offset="1" stop-color="#F8AD1D"/>
</linearGradient>
<linearGradient id="paint16_linear_2254_1169" x1="542.495" y1="79.1738" x2="756.093" y2="79.1738" gradientUnits="userSpaceOnUse">
<stop stop-color="#533EB0"/>
<stop offset="1" stop-color="#8372C2"/>
</linearGradient>
<linearGradient id="paint17_linear_2254_1169" x1="648.977" y1="134.689" x2="648.977" y2="273.237" gradientUnits="userSpaceOnUse">
<stop stop-color="#C7D0EA"/>
<stop offset="1" stop-color="#7F6DC0"/>
</linearGradient>
<clipPath id="clip0_2254_1169">
<rect width="1283" height="297" fill="white" transform="translate(0.120117)"/>
</clipPath>
</defs>
</svg>
