<svg width="315" height="294" viewBox="0 0 315 294" fill="none" xmlns="http://www.w3.org/2000/svg">
<g filter="url(#filter0_d_2152_264)">
<mask id="path-1-inside-1_2152_264" fill="white">
<path d="M265.084 0C289.937 0 310.084 20.1472 310.084 45V174.242C307.474 173.771 304.786 173.524 302.04 173.524H249.04C224.187 173.524 204.04 193.672 204.04 218.524V265.901C204.04 273.125 205.745 279.95 208.771 286H49C24.1472 286 4 265.853 4 241V45C4 20.1472 24.1472 3.49014e-07 49 0H265.084Z"/>
</mask>
<path d="M265.084 0C289.937 0 310.084 20.1472 310.084 45V174.242C307.474 173.771 304.786 173.524 302.04 173.524H249.04C224.187 173.524 204.04 193.672 204.04 218.524V265.901C204.04 273.125 205.745 279.95 208.771 286H49C24.1472 286 4 265.853 4 241V45C4 20.1472 24.1472 3.49014e-07 49 0H265.084Z" fill="white" fill-opacity="0.56" shape-rendering="crispEdges"/>
<path d="M310.084 45H311.084H310.084ZM310.084 174.242L309.906 175.226L311.084 175.439V174.242H310.084ZM302.04 173.524V172.524V173.524ZM204.04 218.524H203.04H204.04ZM204.04 265.901H203.04H204.04ZM208.771 286V287H210.389L209.665 285.553L208.771 286ZM49 286V287V286ZM4 241H3H4ZM4 45H3H4ZM49 0V-1V0ZM265.084 0V1C289.385 1 309.084 20.6995 309.084 45H310.084H311.084C311.084 19.5949 290.489 -1 265.084 -1V0ZM310.084 45H309.084V174.242H310.084H311.084V45H310.084ZM310.084 174.242L310.262 173.258C307.593 172.777 304.846 172.524 302.04 172.524V173.524V174.524C304.726 174.524 307.354 174.766 309.906 175.226L310.084 174.242ZM302.04 173.524V172.524H249.04V173.524V174.524H302.04V173.524ZM249.04 173.524V172.524C223.635 172.524 203.04 193.119 203.04 218.524H204.04H205.04C205.04 194.224 224.74 174.524 249.04 174.524V173.524ZM204.04 218.524H203.04V265.901H204.04H205.04V218.524H204.04ZM204.04 265.901H203.04C203.04 273.285 204.783 280.262 207.876 286.447L208.771 286L209.665 285.553C206.707 279.639 205.04 272.966 205.04 265.901H204.04ZM208.771 286V285H49V286V287H208.771V286ZM49 286V285C24.6995 285 5 265.301 5 241H4H3C3 266.405 23.5949 287 49 287V286ZM4 241H5V45H4H3V241H4ZM4 45H5C5 20.6995 24.6995 1 49 1V0V-1C23.5949 -1 3 19.5949 3 45H4ZM49 0V1H265.084V0V-1H49V0Z" fill="white" mask="url(#path-1-inside-1_2152_264)"/>
</g>
<defs>
<filter id="filter0_d_2152_264" x="0" y="0" width="314.086" height="294" filterUnits="userSpaceOnUse" color-interpolation-filters="sRGB">
<feFlood flood-opacity="0" result="BackgroundImageFix"/>
<feColorMatrix in="SourceAlpha" type="matrix" values="0 0 0 0 0 0 0 0 0 0 0 0 0 0 0 0 0 0 127 0" result="hardAlpha"/>
<feOffset dy="4"/>
<feGaussianBlur stdDeviation="2"/>
<feComposite in2="hardAlpha" operator="out"/>
<feColorMatrix type="matrix" values="0 0 0 0 0 0 0 0 0 0 0 0 0 0 0 0 0 0 0.25 0"/>
<feBlend mode="normal" in2="BackgroundImageFix" result="effect1_dropShadow_2152_264"/>
<feBlend mode="normal" in="SourceGraphic" in2="effect1_dropShadow_2152_264" result="shape"/>
</filter>
</defs>
</svg>
