<svg width="105" height="105" viewBox="0 0 105 105" fill="none" xmlns="http://www.w3.org/2000/svg">
<g filter="url(#filter0_d_2240_1218)">
<circle cx="52.4538" cy="49.2404" r="37.6472" fill="#96ADFF"/>
<circle cx="52.4538" cy="49.2404" r="37.2094" stroke="white" stroke-width="0.875515"/>
</g>
<path d="M63.473 63.0132L55.5632 55.1034L59.317 51.3497L67.2267 59.2594C67.7332 59.7658 67.9864 60.3915 67.9864 61.1363C67.9864 61.8811 67.7332 62.5067 67.2267 63.0132C66.7203 63.5196 66.0946 63.7728 65.3498 63.7728C64.605 63.7728 63.9794 63.5196 63.473 63.0132ZM38.8053 63.0132C38.2989 62.5067 38.0456 61.8811 38.0456 61.1363C38.0456 60.3915 38.2989 59.7658 38.8053 59.2594L49.2623 48.8025L46.2235 45.7637C45.8958 46.0914 45.4787 46.2552 44.9722 46.2552C44.4658 46.2552 44.0487 46.0914 43.721 45.7637L42.6932 44.7359V48.7578C42.6932 49.1748 42.5144 49.4579 42.1569 49.6068C41.7994 49.7558 41.4717 49.6813 41.1738 49.3834L36.3028 44.5124C36.0049 44.2145 35.9304 43.8868 36.0794 43.5293C36.2283 43.1718 36.5113 42.993 36.9284 42.993H40.9503L39.9672 42.0099C39.6097 41.6524 39.4309 41.2353 39.4309 40.7587C39.4309 40.282 39.6097 39.8649 39.9672 39.5074L45.0616 34.413C45.6574 33.8172 46.298 33.3852 46.9832 33.117C47.6684 32.8489 48.3685 32.7149 49.0835 32.7149C49.6793 32.7149 50.2382 32.8042 50.7602 32.983C51.2821 33.1617 51.7957 33.4299 52.301 33.7874C52.5394 33.9363 52.6663 34.1449 52.6818 34.413C52.6972 34.6811 52.6001 34.9195 52.3904 35.128L48.9941 38.5243L49.9773 39.5074C50.305 39.8351 50.4688 40.2522 50.4688 40.7587C50.4688 41.2651 50.305 41.6822 49.9773 42.0099L53.016 45.0487L57.0379 41.0268C56.9188 40.6991 56.8222 40.3565 56.7483 39.999C56.6745 39.6415 56.6369 39.284 56.6357 38.9265C56.6357 37.1687 57.2393 35.6863 58.4465 34.4791C59.6536 33.272 61.1355 32.669 62.892 32.6702C63.1304 32.6702 63.3538 32.6779 63.5623 32.6934C63.7709 32.7089 63.9794 32.7458 64.188 32.8042C64.4561 32.8936 64.6277 33.0801 64.7028 33.3637C64.7778 33.6473 64.7105 33.8928 64.5008 34.1002L61.5961 37.0049C61.4173 37.1836 61.3279 37.3922 61.3279 37.6305C61.3279 37.8688 61.4173 38.0774 61.5961 38.2561L63.5623 40.2224C63.7411 40.4012 63.9496 40.4905 64.188 40.4905C64.4263 40.4905 64.6348 40.4012 64.8136 40.2224L67.7183 37.3177C67.9268 37.1092 68.1729 37.0347 68.4565 37.0943C68.7402 37.1538 68.9261 37.3326 69.0142 37.6305C69.0738 37.8391 69.1114 38.0476 69.1269 38.2561C69.1423 38.4647 69.1495 38.6881 69.1483 38.9265C69.1483 40.6842 68.5453 42.166 67.3393 43.372C66.1334 44.578 64.6509 45.1815 62.892 45.1827C62.5345 45.1827 62.177 45.1529 61.8195 45.0934C61.462 45.0338 61.1194 44.9295 60.7917 44.7806L42.5591 63.0132C42.0526 63.5196 41.427 63.7728 40.6822 63.7728C39.9374 63.7728 39.3118 63.5196 38.8053 63.0132Z" fill="#343682"/>
<defs>
<filter id="filter0_d_2240_1218" x="0.360637" y="0.649319" width="104.186" height="104.186" filterUnits="userSpaceOnUse" color-interpolation-filters="sRGB">
<feFlood flood-opacity="0" result="BackgroundImageFix"/>
<feColorMatrix in="SourceAlpha" type="matrix" values="0 0 0 0 0 0 0 0 0 0 0 0 0 0 0 0 0 0 127 0" result="hardAlpha"/>
<feOffset dy="3.50206"/>
<feGaussianBlur stdDeviation="7.223"/>
<feComposite in2="hardAlpha" operator="out"/>
<feColorMatrix type="matrix" values="0 0 0 0 0.33175 0 0 0 0 0.474923 0 0 0 0 0.972262 0 0 0 1 0"/>
<feBlend mode="normal" in2="BackgroundImageFix" result="effect1_dropShadow_2240_1218"/>
<feBlend mode="normal" in="SourceGraphic" in2="effect1_dropShadow_2240_1218" result="shape"/>
</filter>
</defs>
</svg>
