<svg width="105" height="105" viewBox="0 0 105 105" fill="none" xmlns="http://www.w3.org/2000/svg">
<g filter="url(#filter0_d_2240_1219)">
<circle cx="52.6472" cy="49.2404" r="37.6472" fill="#96ADFF"/>
<circle cx="52.6472" cy="49.2404" r="37.2094" stroke="white" stroke-width="0.875515"/>
</g>
<path d="M70.4706 55.8615V53.5085H68C67.847 52.7723 67.5543 52.0722 67.1377 51.4462L68.8906 49.6932L67.2271 48.0297L65.4741 49.7827C64.848 49.3664 64.148 49.0741 63.4118 48.9215V46.4497H61.0588V48.9215C60.3227 49.0741 59.6226 49.3664 58.9965 49.7827L57.2435 48.0297L55.58 49.6932L57.333 51.4462C56.9163 52.0722 56.6236 52.7723 56.4706 53.5085H54V55.8615H56.4706C56.6235 56.6109 56.9224 57.3074 57.3318 57.9239L55.5788 59.6768L57.2424 61.3403L58.9953 59.5874C59.6217 60.0042 60.3222 60.2969 61.0588 60.4497V62.9203H63.4118V60.4497C64.148 60.2971 64.848 60.0048 65.4741 59.5886L67.2271 61.3415L68.8906 59.678L67.1377 57.925C67.5545 57.2987 67.8472 56.5982 68 55.8615H70.4706ZM62.2353 58.2144C61.2993 58.2144 60.4015 57.8426 59.7396 57.1807C59.0777 56.5188 58.7059 55.6211 58.7059 54.685C58.7059 53.749 59.0777 52.8512 59.7396 52.1893C60.4015 51.5275 61.2993 51.1556 62.2353 51.1556C63.1714 51.1556 64.0691 51.5275 64.731 52.1893C65.3929 52.8512 65.7647 53.749 65.7647 54.685C65.7647 55.6211 65.3929 56.5188 64.731 57.1807C64.0691 57.8426 63.1714 58.2144 62.2353 58.2144Z" fill="#343682"/>
<path d="M58.706 37.0379C58.706 33.7943 56.0671 31.1555 52.8236 31.1555C50.7295 31.1555 48.7777 32.2826 47.7294 34.0967C47.3548 34.7487 47.1035 35.4642 46.9883 36.2073C45.601 35.2176 43.9395 34.6854 42.2353 34.6849C37.6941 34.6849 34 38.3791 34 42.9203C34.0015 44.428 34.4169 45.9064 35.2008 47.1942C35.9848 48.4821 37.1073 49.53 38.4459 50.2238C37.1765 51.3038 36.3529 52.892 36.3529 54.685C36.3529 57.9285 38.9918 60.5674 42.2353 60.5674C43.0988 60.5674 43.9141 60.3697 44.653 60.0332C44.9789 62.9709 47.4471 65.2733 50.4706 65.2733C51.2435 65.2753 52.009 65.1242 52.7231 64.8286C53.4371 64.5329 54.0855 64.0987 54.6306 63.5509L52.9659 61.8862C52.6391 62.215 52.2502 62.4757 51.8219 62.6532C51.3936 62.8307 50.9343 62.9215 50.4706 62.9203C48.5247 62.9203 46.9412 61.3368 46.9412 59.3909C46.9412 57.445 48.5247 55.8615 50.4706 55.8615V53.5085C49.6059 53.5085 48.7918 53.7073 48.053 54.0426C47.8869 52.5587 47.1626 51.1935 46.0271 50.2238C47.3653 49.5297 48.4873 48.4816 49.2708 47.1938C50.0544 45.9059 50.4694 44.4277 50.4706 42.9203C50.4706 42.7473 50.4542 42.5779 50.4436 42.4073C51.173 42.732 51.9753 42.9203 52.8236 42.9203C56.0671 42.9203 58.706 40.2814 58.706 37.0379ZM49.7647 35.2732C50.0756 34.7371 50.5217 34.292 51.0585 33.9823C51.5953 33.6727 52.2039 33.5093 52.8236 33.5085C54.7695 33.5085 56.353 35.092 56.353 37.0379C56.353 38.9838 54.7695 40.5673 52.8236 40.5673C50.8777 40.5673 49.2942 38.9838 49.2942 37.0379H49.2589C49.3012 36.3602 49.4612 35.8002 49.7647 35.2732ZM45.7647 54.685C45.7647 56.6309 44.1812 58.2144 42.2353 58.2144C40.2894 58.2144 38.7059 56.6309 38.7059 54.685C38.7059 52.7391 40.2894 51.1556 42.2353 51.1556C44.1812 51.1556 45.7647 52.7391 45.7647 54.685ZM42.2353 48.8026C38.9918 48.8026 36.3529 46.1638 36.3529 42.9203C36.3529 39.6767 38.9918 37.0379 42.2353 37.0379C45.4789 37.0379 48.1177 39.6767 48.1177 42.9203C48.1177 46.1638 45.4789 48.8026 42.2353 48.8026Z" fill="#343682"/>
<defs>
<filter id="filter0_d_2240_1219" x="0.553996" y="0.649319" width="104.186" height="104.186" filterUnits="userSpaceOnUse" color-interpolation-filters="sRGB">
<feFlood flood-opacity="0" result="BackgroundImageFix"/>
<feColorMatrix in="SourceAlpha" type="matrix" values="0 0 0 0 0 0 0 0 0 0 0 0 0 0 0 0 0 0 127 0" result="hardAlpha"/>
<feOffset dy="3.50206"/>
<feGaussianBlur stdDeviation="7.223"/>
<feComposite in2="hardAlpha" operator="out"/>
<feColorMatrix type="matrix" values="0 0 0 0 0.33175 0 0 0 0 0.474923 0 0 0 0 0.972262 0 0 0 1 0"/>
<feBlend mode="normal" in2="BackgroundImageFix" result="effect1_dropShadow_2240_1219"/>
<feBlend mode="normal" in="SourceGraphic" in2="effect1_dropShadow_2240_1219" result="shape"/>
</filter>
</defs>
</svg>
