<svg width="229" height="231" viewBox="0 0 229 231" fill="none" xmlns="http://www.w3.org/2000/svg">
<g filter="url(#filter0_d_2159_123)">
<ellipse cx="114.342" cy="114.81" rx="107.5" ry="108" fill="white"/>
</g>
<g filter="url(#filter1_d_2159_123)">
<circle cx="114.842" cy="115.81" r="90" fill="white"/>
<circle cx="114.842" cy="115.81" r="89.5" stroke="#C2C2C2"/>
</g>
<g filter="url(#filter2_d_2159_123)">
<path d="M84.8301 69.8052V84.8052H69.8301V69.8052H84.8301ZM62.3301 62.3052V92.3052H92.3301V62.3052H62.3301ZM122.33 81.0552V96.0552H107.33V81.0552H122.33ZM99.8301 73.5552V103.555H129.83V73.5552H99.8301ZM84.8301 114.805V129.805H69.8301V114.805H84.8301ZM62.3301 107.305V137.305H92.3301V107.305H62.3301Z" fill="#432A66"/>
<path d="M137.33 92.3052V114.805H114.83V137.305H92.3301V167.305H167.33V92.3052H137.33ZM122.33 122.305H137.33V137.305H122.33V122.305ZM114.83 159.805H99.8301V144.805H114.83V159.805ZM137.33 159.805H122.33V144.805H137.33V159.805ZM159.83 159.805H144.83V144.805H159.83V159.805ZM159.83 137.305H144.83V122.305H159.83V137.305ZM144.83 114.805V99.8052H159.83V114.805H144.83Z" fill="#432A66"/>
</g>
<defs>
<filter id="filter0_d_2159_123" x="2.8418" y="6.81006" width="223" height="224" filterUnits="userSpaceOnUse" color-interpolation-filters="sRGB">
<feFlood flood-opacity="0" result="BackgroundImageFix"/>
<feColorMatrix in="SourceAlpha" type="matrix" values="0 0 0 0 0 0 0 0 0 0 0 0 0 0 0 0 0 0 127 0" result="hardAlpha"/>
<feOffset dy="4"/>
<feGaussianBlur stdDeviation="2"/>
<feComposite in2="hardAlpha" operator="out"/>
<feColorMatrix type="matrix" values="0 0 0 0 0 0 0 0 0 0 0 0 0 0 0 0 0 0 0.25 0"/>
<feBlend mode="normal" in2="BackgroundImageFix" result="effect1_dropShadow_2159_123"/>
<feBlend mode="normal" in="SourceGraphic" in2="effect1_dropShadow_2159_123" result="shape"/>
</filter>
<filter id="filter1_d_2159_123" x="20.8418" y="25.8101" width="188" height="188" filterUnits="userSpaceOnUse" color-interpolation-filters="sRGB">
<feFlood flood-opacity="0" result="BackgroundImageFix"/>
<feColorMatrix in="SourceAlpha" type="matrix" values="0 0 0 0 0 0 0 0 0 0 0 0 0 0 0 0 0 0 127 0" result="hardAlpha"/>
<feOffset dy="4"/>
<feGaussianBlur stdDeviation="2"/>
<feComposite in2="hardAlpha" operator="out"/>
<feColorMatrix type="matrix" values="0 0 0 0 0 0 0 0 0 0 0 0 0 0 0 0 0 0 0.25 0"/>
<feBlend mode="normal" in2="BackgroundImageFix" result="effect1_dropShadow_2159_123"/>
<feBlend mode="normal" in="SourceGraphic" in2="effect1_dropShadow_2159_123" result="shape"/>
</filter>
<filter id="filter2_d_2159_123" x="33.8301" y="48.8052" width="141" height="140" filterUnits="userSpaceOnUse" color-interpolation-filters="sRGB">
<feFlood flood-opacity="0" result="BackgroundImageFix"/>
<feColorMatrix in="SourceAlpha" type="matrix" values="0 0 0 0 0 0 0 0 0 0 0 0 0 0 0 0 0 0 127 0" result="hardAlpha"/>
<feOffset dx="-11" dy="4"/>
<feGaussianBlur stdDeviation="5"/>
<feComposite in2="hardAlpha" operator="out"/>
<feColorMatrix type="matrix" values="0 0 0 0 0 0 0 0 0 0 0 0 0 0 0 0 0 0 0.25 0"/>
<feBlend mode="normal" in2="BackgroundImageFix" result="effect1_dropShadow_2159_123"/>
<feBlend mode="normal" in="SourceGraphic" in2="effect1_dropShadow_2159_123" result="shape"/>
</filter>
</defs>
</svg>
