<svg width="105" height="105" viewBox="0 0 105 105" fill="none" xmlns="http://www.w3.org/2000/svg">
<g filter="url(#filter0_d_2240_1221)">
<circle cx="52.7595" cy="49.2404" r="37.6472" fill="#96ADFF"/>
<circle cx="52.7595" cy="49.2404" r="37.2094" stroke="white" stroke-width="0.875515"/>
</g>
<path d="M67.0966 62.592V38.7643C67.0966 36.9618 67.0966 36.0622 66.5779 35.3005C66.0608 34.5405 65.107 34.0414 63.1978 33.0417L60.7683 31.7711C57.774 30.2017 56.2752 29.4171 55.1212 29.903C53.9639 30.3889 53.9639 31.8039 53.9639 34.6308V41.2513" stroke="#343682" stroke-width="1.75103" stroke-linejoin="round"/>
<path d="M68.7381 62.5919H35.9062M67.0965 39.6096H63.8133M67.0965 44.5344H63.8133M67.0965 49.4592H63.8133" stroke="#343682" stroke-width="1.75103" stroke-linecap="round" stroke-linejoin="round"/>
<path d="M45.7559 47.8176C45.7559 44.7215 45.7559 43.1752 46.7178 42.2132C47.6798 41.2512 49.2262 41.2512 52.3222 41.2512C55.4183 41.2512 56.9646 41.2512 57.9266 42.2132C58.8886 43.1752 58.8886 44.7215 58.8886 47.8176V62.5919H45.7559V47.8176Z" stroke="#343682" stroke-width="1.75103" stroke-linejoin="round"/>
<path d="M51.501 47.8176H53.1426M51.501 52.7424H53.1426" stroke="#343682" stroke-width="1.75103" stroke-linecap="round"/>
<path d="M38.3686 52.7424C39.7286 52.7424 40.831 51.2725 40.831 49.4592C40.831 47.646 39.7286 46.176 38.3686 46.176C37.0087 46.176 35.9062 47.646 35.9062 49.4592C35.9062 51.2725 37.0087 52.7424 38.3686 52.7424Z" stroke="#343682" stroke-width="1.75103"/>
<path d="M38.3682 52.7424V62.592" stroke="#343682" stroke-width="1.75103" stroke-linecap="round"/>
<defs>
<filter id="filter0_d_2240_1221" x="0.666301" y="0.649319" width="104.186" height="104.186" filterUnits="userSpaceOnUse" color-interpolation-filters="sRGB">
<feFlood flood-opacity="0" result="BackgroundImageFix"/>
<feColorMatrix in="SourceAlpha" type="matrix" values="0 0 0 0 0 0 0 0 0 0 0 0 0 0 0 0 0 0 127 0" result="hardAlpha"/>
<feOffset dy="3.50206"/>
<feGaussianBlur stdDeviation="7.223"/>
<feComposite in2="hardAlpha" operator="out"/>
<feColorMatrix type="matrix" values="0 0 0 0 0.33175 0 0 0 0 0.474923 0 0 0 0 0.972262 0 0 0 1 0"/>
<feBlend mode="normal" in2="BackgroundImageFix" result="effect1_dropShadow_2240_1221"/>
<feBlend mode="normal" in="SourceGraphic" in2="effect1_dropShadow_2240_1221" result="shape"/>
</filter>
</defs>
</svg>
