<svg width="105" height="105" viewBox="0 0 105 105" fill="none" xmlns="http://www.w3.org/2000/svg">
<g filter="url(#filter0_d_2240_1222)">
<circle cx="52.4538" cy="49.0607" r="37.6472" fill="#96ADFF"/>
<circle cx="52.4538" cy="49.0607" r="37.2094" stroke="white" stroke-width="0.875515"/>
</g>
<path d="M52.4539 64.3761L33.9951 59.3419L43.2128 56.9272M52.4539 64.3761L70.9127 59.3419M52.4539 64.3761V67.8347M33.9951 66.9956V59.5517M70.9127 59.5517V66.9956M58.3271 39.096C58.3271 42.3397 57.3488 50.8425 52.4539 50.8425C47.559 50.8425 46.5807 42.3481 46.5807 39.096C46.5807 33.2228 52.4539 30.2861 52.4539 30.2861C52.4539 30.2861 58.3271 33.2228 58.3271 39.096Z" stroke="#343682" stroke-width="1.75103" stroke-linecap="round" stroke-linejoin="round"/>
<path d="M52.4543 38.8863C52.2317 38.8863 52.0183 38.7979 51.861 38.6406C51.7036 38.4832 51.6152 38.2698 51.6152 38.0473C51.6152 37.8248 51.7036 37.6113 51.861 37.454C52.0183 37.2967 52.2317 37.2083 52.4543 37.2083M52.4543 38.8863C52.6768 38.8863 52.8902 38.7979 53.0476 38.6406C53.2049 38.4832 53.2933 38.2698 53.2933 38.0473C53.2933 37.8248 53.2049 37.6113 53.0476 37.454C52.8902 37.2967 52.6768 37.2083 52.4543 37.2083" stroke="#343682" stroke-width="1.75103"/>
<path d="M49.1148 58.9295V57.238C49.2494 56.4371 49.6674 55.7114 50.2926 55.1931C50.9178 54.6749 51.7085 54.3987 52.5205 54.415C53.3324 54.4313 54.1114 54.7389 54.7153 55.2818C55.3192 55.8247 55.7079 56.5666 55.8103 57.3722V58.9295M48.566 49.3309L47.2102 50.0105C46.4442 50.4185 45.742 50.9363 45.126 51.5476C44.9787 51.7056 44.7881 51.8165 44.578 51.8664C44.3679 51.9164 44.1477 51.9032 43.9452 51.8284C43.7426 51.7536 43.5666 51.6207 43.4393 51.4462C43.312 51.2718 43.2391 51.0636 43.2298 50.8479C43.087 49.5906 43.3553 48.3209 43.9945 47.2289C44.6337 46.1369 45.6094 45.2812 46.7755 44.79M56.3422 49.3309L57.6981 50.0105C58.465 50.4183 59.1664 50.9351 59.7823 51.5476C59.9299 51.7048 60.1205 51.815 60.3303 51.8645C60.5401 51.914 60.7599 51.9006 60.9622 51.8259C61.1644 51.7513 61.3402 51.6187 61.4676 51.4448C61.595 51.2708 61.6684 51.0632 61.6785 50.8479C61.8212 49.5906 61.5529 48.3209 60.9137 47.2289C60.2745 46.1369 59.2988 45.2812 58.1327 44.79M70.9129 59.3423L61.6953 56.9275" stroke="#343682" stroke-width="1.75103" stroke-linecap="round" stroke-linejoin="round"/>
<defs>
<filter id="filter0_d_2240_1222" x="0.360637" y="0.469632" width="104.186" height="104.186" filterUnits="userSpaceOnUse" color-interpolation-filters="sRGB">
<feFlood flood-opacity="0" result="BackgroundImageFix"/>
<feColorMatrix in="SourceAlpha" type="matrix" values="0 0 0 0 0 0 0 0 0 0 0 0 0 0 0 0 0 0 127 0" result="hardAlpha"/>
<feOffset dy="3.50206"/>
<feGaussianBlur stdDeviation="7.223"/>
<feComposite in2="hardAlpha" operator="out"/>
<feColorMatrix type="matrix" values="0 0 0 0 0.33175 0 0 0 0 0.474923 0 0 0 0 0.972262 0 0 0 1 0"/>
<feBlend mode="normal" in2="BackgroundImageFix" result="effect1_dropShadow_2240_1222"/>
<feBlend mode="normal" in="SourceGraphic" in2="effect1_dropShadow_2240_1222" result="shape"/>
</filter>
</defs>
</svg>
