<svg width="105" height="105" viewBox="0 0 105 105" fill="none" xmlns="http://www.w3.org/2000/svg">
<g filter="url(#filter0_d_2240_1225)">
<circle cx="52.7595" cy="49.0607" r="37.6472" fill="#96ADFF"/>
<circle cx="52.7595" cy="49.0607" r="37.2094" stroke="white" stroke-width="0.875515"/>
</g>
<path d="M38.2442 33.8758C38.0664 33.8758 37.8959 33.9465 37.7702 34.0722C37.6445 34.1979 37.5738 34.3684 37.5738 34.5462V55.9963C37.5738 56.1741 37.6445 56.3446 37.7702 56.4703C37.8959 56.596 38.0664 56.6666 38.2442 56.6666H47.6286V59.3479H38.2442C37.804 59.3479 37.3682 59.2612 36.9616 59.0927C36.5549 58.9243 36.1855 58.6774 35.8742 58.3662C35.563 58.055 35.3161 57.6855 35.1477 57.2789C34.9793 56.8723 34.8926 56.4364 34.8926 55.9963V34.5462C34.8926 33.6573 35.2457 32.8048 35.8742 32.1762C36.5028 31.5477 37.3553 31.1946 38.2442 31.1946H46.288C47.1769 31.1946 48.0293 31.5477 48.6579 32.1762C49.2864 32.8048 49.6395 33.6573 49.6395 34.5462V39.9087C49.6395 40.0865 49.7102 40.257 49.8359 40.3827C49.9616 40.5084 50.1321 40.579 50.3099 40.579H51.6505C52.5394 40.579 53.3919 40.9321 54.0204 41.5607C54.649 42.1892 55.0021 43.0417 55.0021 43.9306V44.8516L52.3208 47.12V43.9306C52.3208 43.7528 52.2502 43.5823 52.1245 43.4566C51.9988 43.3309 51.8283 43.2603 51.6505 43.2603H50.3099C49.421 43.2603 48.5685 42.9072 47.9399 42.2786C47.3114 41.6501 46.9583 40.7976 46.9583 39.9087V34.5462C46.9583 34.3684 46.8877 34.1979 46.7619 34.0722C46.6362 33.9465 46.4657 33.8758 46.288 33.8758H38.2442ZM61.968 44.8744C61.3488 44.3027 60.537 43.9852 59.6943 43.9852C58.8515 43.9852 58.0397 44.3027 57.4206 44.8744L50.7174 51.0628C50.3775 51.3766 50.1062 51.7575 49.9207 52.1813C49.7352 52.6052 49.6395 53.0628 49.6395 53.5255V62.6995C49.6395 63.5883 49.9927 64.4408 50.6212 65.0694C51.2497 65.6979 52.1022 66.051 52.9911 66.051H54.3318C55.2207 66.051 56.0731 65.6979 56.7017 65.0694C57.3302 64.4408 57.6833 63.5883 57.6833 62.6995V58.6776C57.6833 58.4998 57.754 58.3293 57.8797 58.2036C58.0054 58.0779 58.1759 58.0072 58.3537 58.0072H61.0349C61.2127 58.0072 61.3832 58.0779 61.5089 58.2036C61.6346 58.3293 61.7052 58.4998 61.7052 58.6776V62.6995C61.7052 63.5883 62.0583 64.4408 62.6869 65.0694C63.3154 65.6979 64.1679 66.051 65.0568 66.051H66.3975C67.2863 66.051 68.1388 65.6979 68.7674 65.0694C69.3959 64.4408 69.749 63.5883 69.749 62.6995V53.5255C69.7491 53.0628 69.6533 52.6052 69.4678 52.1813C69.2823 51.7575 69.0111 51.3766 68.6712 51.0628L61.968 44.8744ZM59.2398 46.8451C59.3636 46.7309 59.5259 46.6675 59.6943 46.6675C59.8627 46.6675 60.025 46.7309 60.1488 46.8451L66.8519 53.0321C66.9201 53.095 66.9744 53.1713 67.0116 53.2562C67.0487 53.3411 67.0679 53.4328 67.0678 53.5255V62.6995C67.0678 62.8772 66.9971 63.0477 66.8714 63.1734C66.7457 63.2991 66.5752 63.3698 66.3975 63.3698H65.0568C64.879 63.3698 64.7085 63.2991 64.5828 63.1734C64.4571 63.0477 64.3865 62.8772 64.3865 62.6995V58.6776C64.3865 57.7887 64.0334 56.9362 63.4048 56.3076C62.7763 55.6791 61.9238 55.326 61.0349 55.326H58.3537C57.4648 55.326 56.6123 55.6791 55.9837 56.3076C55.3552 56.9362 55.0021 57.7887 55.0021 58.6776V62.6995C55.0021 62.8772 54.9314 63.0477 54.8057 63.1734C54.68 63.2991 54.5095 63.3698 54.3318 63.3698H52.9911C52.8133 63.3698 52.6428 63.2991 52.5171 63.1734C52.3914 63.0477 52.3208 62.8772 52.3208 62.6995V53.5255C52.3205 53.4329 52.3395 53.3413 52.3764 53.2564C52.4133 53.1715 52.4674 53.0951 52.5353 53.0321L59.2398 46.8451ZM41.5957 36.5571C41.5957 36.9127 41.4545 37.2537 41.2031 37.5051C40.9517 37.7565 40.6107 37.8977 40.2551 37.8977C39.8996 37.8977 39.5586 37.7565 39.3071 37.5051C39.0557 37.2537 38.9145 36.9127 38.9145 36.5571C38.9145 36.2016 39.0557 35.8606 39.3071 35.6091C39.5586 35.3577 39.8996 35.2165 40.2551 35.2165C40.6107 35.2165 40.9517 35.3577 41.2031 35.6091C41.4545 35.8606 41.5957 36.2016 41.5957 36.5571ZM40.2551 43.2603C40.6107 43.2603 40.9517 43.119 41.2031 42.8676C41.4545 42.6162 41.5957 42.2752 41.5957 41.9196C41.5957 41.5641 41.4545 41.2231 41.2031 40.9717C40.9517 40.7203 40.6107 40.579 40.2551 40.579C39.8996 40.579 39.5586 40.7203 39.3071 40.9717C39.0557 41.2231 38.9145 41.5641 38.9145 41.9196C38.9145 42.2752 39.0557 42.6162 39.3071 42.8676C39.5586 43.119 39.8996 43.2603 40.2551 43.2603ZM41.5957 47.2822C41.5957 47.6377 41.4545 47.9787 41.2031 48.2301C40.9517 48.4816 40.6107 48.6228 40.2551 48.6228C39.8996 48.6228 39.5586 48.4816 39.3071 48.2301C39.0557 47.9787 38.9145 47.6377 38.9145 47.2822C38.9145 46.9266 39.0557 46.5856 39.3071 46.3342C39.5586 46.0828 39.8996 45.9415 40.2551 45.9415C40.6107 45.9415 40.9517 46.0828 41.2031 46.3342C41.4545 46.5856 41.5957 46.9266 41.5957 47.2822ZM44.277 37.8977C44.6326 37.8977 44.9736 37.7565 45.225 37.5051C45.4764 37.2537 45.6176 36.9127 45.6176 36.5571C45.6176 36.2016 45.4764 35.8606 45.225 35.6091C44.9736 35.3577 44.6326 35.2165 44.277 35.2165C43.9215 35.2165 43.5805 35.3577 43.329 35.6091C43.0776 35.8606 42.9364 36.2016 42.9364 36.5571C42.9364 36.9127 43.0776 37.2537 43.329 37.5051C43.5805 37.7565 43.9215 37.8977 44.277 37.8977ZM45.6176 41.9196C45.6176 42.2752 45.4764 42.6162 45.225 42.8676C44.9736 43.119 44.6326 43.2603 44.277 43.2603C43.9215 43.2603 43.5805 43.119 43.329 42.8676C43.0776 42.6162 42.9364 42.2752 42.9364 41.9196C42.9364 41.5641 43.0776 41.2231 43.329 40.9717C43.5805 40.7203 43.9215 40.579 44.277 40.579C44.6326 40.579 44.9736 40.7203 45.225 40.9717C45.4764 41.2231 45.6176 41.5641 45.6176 41.9196ZM44.9473 48.6228C45.3029 48.6228 45.6439 48.4816 45.8953 48.2301C46.1467 47.9787 46.288 47.6377 46.288 47.2822C46.288 46.9266 46.1467 46.5856 45.8953 46.3342C45.6439 46.0828 45.3029 45.9415 44.9473 45.9415C44.5918 45.9415 44.2508 46.0828 43.9994 46.3342C43.7479 46.5856 43.6067 46.9266 43.6067 47.2822C43.6067 47.6377 43.7479 47.9787 43.9994 48.2301C44.2508 48.4816 44.5918 48.6228 44.9473 48.6228Z" fill="#343682"/>
<defs>
<filter id="filter0_d_2240_1225" x="0.666301" y="0.469632" width="104.186" height="104.186" filterUnits="userSpaceOnUse" color-interpolation-filters="sRGB">
<feFlood flood-opacity="0" result="BackgroundImageFix"/>
<feColorMatrix in="SourceAlpha" type="matrix" values="0 0 0 0 0 0 0 0 0 0 0 0 0 0 0 0 0 0 127 0" result="hardAlpha"/>
<feOffset dy="3.50206"/>
<feGaussianBlur stdDeviation="7.223"/>
<feComposite in2="hardAlpha" operator="out"/>
<feColorMatrix type="matrix" values="0 0 0 0 0.33175 0 0 0 0 0.474923 0 0 0 0 0.972262 0 0 0 1 0"/>
<feBlend mode="normal" in2="BackgroundImageFix" result="effect1_dropShadow_2240_1225"/>
<feBlend mode="normal" in="SourceGraphic" in2="effect1_dropShadow_2240_1225" result="shape"/>
</filter>
</defs>
</svg>
