<svg width="699" height="699" viewBox="0 0 699 699" fill="none" xmlns="http://www.w3.org/2000/svg">
<g filter="url(#filter0_d_2142_221)">
<mask id="path-1-inside-1_2142_221" fill="white">
<path d="M349.599 13.2422C529.961 13.2422 676.174 159.455 676.174 339.817C676.174 520.18 529.961 666.393 349.599 666.393C169.236 666.392 23.0235 520.18 23.0234 339.817C23.0234 159.455 169.236 13.2423 349.599 13.2422ZM349.268 161.565C251.005 161.565 171.347 241.223 171.347 339.485C171.347 437.748 251.005 517.406 349.268 517.406C447.53 517.406 527.188 437.748 527.188 339.485C527.187 241.223 447.53 161.566 349.268 161.565Z"/>
</mask>
<path d="M349.599 13.2422C529.961 13.2422 676.174 159.455 676.174 339.817C676.174 520.18 529.961 666.393 349.599 666.393C169.236 666.392 23.0235 520.18 23.0234 339.817C23.0234 159.455 169.236 13.2423 349.599 13.2422ZM349.268 161.565C251.005 161.565 171.347 241.223 171.347 339.485C171.347 437.748 251.005 517.406 349.268 517.406C447.53 517.406 527.188 437.748 527.188 339.485C527.187 241.223 447.53 161.566 349.268 161.565Z" fill="url(#paint0_linear_2142_221)" fill-opacity="0.8" shape-rendering="crispEdges"/>
<path d="M349.599 13.2422L349.599 10.8409L349.599 10.8409L349.599 13.2422ZM676.174 339.817L678.575 339.817V339.817H676.174ZM349.599 666.393L349.599 668.794H349.599V666.393ZM23.0234 339.817L20.6221 339.817L20.6221 339.817L23.0234 339.817ZM349.268 161.565L349.268 159.164H349.268V161.565ZM171.347 339.485L168.945 339.485V339.485H171.347ZM349.268 517.406L349.268 519.808L349.268 519.808L349.268 517.406ZM527.188 339.485L529.589 339.485L529.589 339.485L527.188 339.485ZM349.599 13.2422V15.6435C528.635 15.6435 673.773 160.781 673.773 339.817H676.174H678.575C678.575 158.129 531.287 10.8409 349.599 10.8409V13.2422ZM676.174 339.817L673.773 339.817C673.772 518.854 528.635 663.991 349.599 663.991V666.393V668.794C531.287 668.794 678.575 521.506 678.575 339.817L676.174 339.817ZM349.599 666.393L349.599 663.991C170.563 663.991 25.4248 518.853 25.4247 339.817L23.0234 339.817L20.6221 339.817C20.6222 521.506 167.91 668.794 349.599 668.794L349.599 666.393ZM23.0234 339.817H25.4247C25.4247 160.781 170.562 15.6436 349.599 15.6435L349.599 13.2422L349.599 10.8409C167.91 10.841 20.6221 158.129 20.6221 339.817H23.0234ZM349.268 161.565V159.164C249.679 159.164 168.946 239.897 168.945 339.485L171.347 339.485L173.748 339.485C173.748 242.549 252.331 163.967 349.268 163.967V161.565ZM171.347 339.485H168.945C168.945 439.074 249.679 519.808 349.268 519.808V517.406V515.005C252.331 515.005 173.748 436.422 173.748 339.485H171.347ZM349.268 517.406L349.268 519.808C448.856 519.807 529.589 439.074 529.589 339.485H527.188H524.786C524.786 436.422 446.204 515.005 349.268 515.005L349.268 517.406ZM527.188 339.485L529.589 339.485C529.589 239.897 448.856 159.164 349.268 159.164L349.268 161.565L349.268 163.967C446.204 163.967 524.786 242.549 524.786 339.485L527.188 339.485Z" fill="white" mask="url(#path-1-inside-1_2142_221)"/>
</g>
<g filter="url(#filter1_d_2142_221)">
<path d="M241.145 399.447L345.2 226.555L454.059 399.447H241.145Z" stroke="white" stroke-width="3.20172" shape-rendering="crispEdges"/>
</g>
<circle cx="344.8" cy="223.749" r="10.0054" fill="white" stroke="#CCCCCC" stroke-width="0.800429"/>
<circle cx="454.456" cy="399.843" r="10.0054" fill="white" stroke="#CCCCCC" stroke-width="0.800429"/>
<circle cx="241.542" cy="399.046" r="10.0054" fill="white" stroke="#CCCCCC" stroke-width="0.800429"/>
<path d="M327.072 314V307.717L321.649 299.592H324.21L328.793 306.756H327.692L332.275 299.592H334.616L329.193 307.717V314H327.072ZM338.896 314.2C337.856 314.2 336.942 313.973 336.155 313.52C335.368 313.053 334.754 312.419 334.314 311.619C333.874 310.805 333.654 309.884 333.654 308.857C333.654 307.817 333.874 306.903 334.314 306.116C334.767 305.329 335.381 304.715 336.155 304.275C336.942 303.821 337.856 303.594 338.896 303.594C339.95 303.594 340.871 303.821 341.658 304.275C342.445 304.715 343.052 305.329 343.479 306.116C343.919 306.903 344.139 307.817 344.139 308.857C344.139 309.884 343.919 310.805 343.479 311.619C343.052 312.419 342.445 313.053 341.658 313.52C340.871 313.973 339.95 314.2 338.896 314.2ZM338.896 312.499C339.523 312.499 340.064 312.346 340.517 312.039C340.984 311.732 341.351 311.305 341.618 310.758C341.885 310.211 342.018 309.571 342.018 308.837C342.018 307.743 341.725 306.883 341.138 306.256C340.564 305.616 339.817 305.295 338.896 305.295C337.989 305.295 337.242 305.616 336.655 306.256C336.082 306.896 335.795 307.757 335.795 308.837C335.795 309.571 335.921 310.211 336.175 310.758C336.442 311.305 336.809 311.732 337.276 312.039C337.756 312.346 338.296 312.499 338.896 312.499ZM349.599 314.2C348.918 314.2 348.318 314.06 347.798 313.78C347.277 313.486 346.87 313.086 346.577 312.579C346.297 312.072 346.157 311.492 346.157 310.838V303.795H348.238V310.358C348.238 311.065 348.411 311.592 348.758 311.939C349.105 312.286 349.599 312.459 350.239 312.459C350.812 312.459 351.319 312.326 351.76 312.059C352.213 311.792 352.567 311.425 352.82 310.958C353.087 310.478 353.22 309.924 353.22 309.297L353.481 311.739C353.147 312.486 352.633 313.086 351.94 313.54C351.259 313.98 350.479 314.2 349.599 314.2ZM353.3 314V311.599H353.22V303.795H355.282V314H353.3ZM358.197 314V303.795H360.178V306.336H360.278V314H358.197ZM360.278 308.677L360.018 306.256C360.258 305.389 360.672 304.728 361.259 304.275C361.846 303.821 362.546 303.594 363.36 303.594C363.667 303.594 363.88 303.621 364 303.674V305.636C363.934 305.609 363.84 305.595 363.72 305.595C363.6 305.582 363.453 305.575 363.28 305.575C362.279 305.575 361.526 305.836 361.019 306.356C360.525 306.876 360.278 307.65 360.278 308.677ZM310.414 338.2C309.374 338.2 308.46 337.973 307.673 337.52C306.886 337.053 306.272 336.419 305.832 335.619C305.392 334.805 305.171 333.884 305.171 332.857C305.171 331.817 305.392 330.903 305.832 330.116C306.285 329.329 306.899 328.715 307.673 328.275C308.46 327.821 309.374 327.594 310.414 327.594C311.468 327.594 312.389 327.821 313.176 328.275C313.963 328.715 314.57 329.329 314.997 330.116C315.437 330.903 315.657 331.817 315.657 332.857C315.657 333.884 315.437 334.805 314.997 335.619C314.57 336.419 313.963 337.053 313.176 337.52C312.389 337.973 311.468 338.2 310.414 338.2ZM310.414 336.499C311.041 336.499 311.582 336.346 312.035 336.039C312.502 335.732 312.869 335.305 313.136 334.758C313.403 334.211 313.536 333.571 313.536 332.837C313.536 331.743 313.242 330.883 312.656 330.256C312.082 329.616 311.335 329.295 310.414 329.295C309.507 329.295 308.76 329.616 308.173 330.256C307.599 330.896 307.313 331.757 307.313 332.837C307.313 333.571 307.439 334.211 307.693 334.758C307.96 335.305 308.327 335.732 308.793 336.039C309.274 336.346 309.814 336.499 310.414 336.499ZM317.795 338V327.795H319.776V330.196H319.876V338H317.795ZM325.039 338V331.436C325.039 330.729 324.858 330.202 324.498 329.856C324.151 329.509 323.631 329.335 322.937 329.335C322.337 329.335 321.803 329.469 321.337 329.736C320.883 330.002 320.523 330.369 320.256 330.836C320.003 331.303 319.876 331.857 319.876 332.497L319.616 330.056C319.949 329.295 320.463 328.695 321.156 328.255C321.85 327.815 322.657 327.594 323.578 327.594C324.672 327.594 325.532 327.901 326.159 328.515C326.786 329.129 327.1 329.942 327.1 330.956V338H325.039ZM334.332 338.2C333.305 338.2 332.398 337.973 331.611 337.52C330.837 337.066 330.23 336.439 329.79 335.639C329.35 334.838 329.13 333.918 329.13 332.877C329.13 331.823 329.343 330.903 329.77 330.116C330.21 329.315 330.824 328.695 331.611 328.255C332.398 327.815 333.299 327.594 334.312 327.594C335.3 327.594 336.153 327.808 336.874 328.235C337.608 328.648 338.168 329.229 338.555 329.976C338.955 330.723 339.155 331.61 339.155 332.637C339.155 332.797 339.148 332.951 339.135 333.097C339.135 333.231 339.122 333.371 339.095 333.518H330.53V331.957H337.634L337.114 332.577C337.114 331.483 336.867 330.649 336.374 330.076C335.88 329.502 335.193 329.215 334.312 329.215C333.365 329.215 332.612 329.542 332.051 330.196C331.504 330.836 331.231 331.73 331.231 332.877C331.231 334.038 331.504 334.945 332.051 335.599C332.612 336.252 333.385 336.579 334.372 336.579C334.973 336.579 335.493 336.459 335.933 336.219C336.374 335.966 336.7 335.599 336.914 335.118H338.875C338.541 336.079 337.974 336.833 337.174 337.38C336.387 337.927 335.44 338.2 334.332 338.2ZM348.913 338.2C347.579 338.2 346.519 337.907 345.732 337.32C344.944 336.733 344.498 335.906 344.391 334.838H346.312C346.405 335.425 346.672 335.879 347.112 336.199C347.566 336.506 348.179 336.659 348.953 336.659C349.634 336.659 350.154 336.539 350.514 336.299C350.874 336.059 351.054 335.719 351.054 335.279C351.054 334.958 350.948 334.692 350.734 334.478C350.534 334.251 350.134 334.065 349.534 333.918L347.893 333.538C346.865 333.284 346.098 332.911 345.591 332.417C345.098 331.91 344.851 331.29 344.851 330.556C344.851 329.636 345.191 328.915 345.872 328.395C346.565 327.861 347.512 327.594 348.713 327.594C349.9 327.594 350.854 327.861 351.575 328.395C352.308 328.928 352.722 329.676 352.815 330.636H350.894C350.814 330.156 350.581 329.789 350.194 329.535C349.82 329.269 349.307 329.135 348.653 329.135C348.039 329.135 347.566 329.249 347.232 329.475C346.912 329.689 346.752 329.989 346.752 330.376C346.752 330.696 346.872 330.963 347.112 331.176C347.366 331.39 347.779 331.57 348.353 331.717L350.034 332.137C351.008 332.377 351.741 332.771 352.235 333.317C352.729 333.851 352.975 334.498 352.975 335.259C352.975 336.179 352.615 336.899 351.895 337.42C351.188 337.94 350.194 338.2 348.913 338.2ZM359.227 338.2C358.04 338.2 357.166 337.927 356.606 337.38C356.059 336.819 355.785 335.999 355.785 334.918V325.453L357.846 324.673V334.938C357.846 335.472 357.987 335.866 358.267 336.119C358.547 336.372 359 336.499 359.627 336.499C359.868 336.499 360.081 336.479 360.268 336.439C360.455 336.399 360.615 336.352 360.748 336.299V337.98C360.601 338.047 360.394 338.1 360.128 338.14C359.861 338.18 359.561 338.2 359.227 338.2ZM353.744 329.455V327.795H360.748V329.455H353.744ZM366.89 338.2C365.849 338.2 364.936 337.973 364.148 337.52C363.361 337.053 362.748 336.419 362.307 335.619C361.867 334.805 361.647 333.884 361.647 332.857C361.647 331.817 361.867 330.903 362.307 330.116C362.761 329.329 363.375 328.715 364.148 328.275C364.936 327.821 365.849 327.594 366.89 327.594C367.944 327.594 368.864 327.821 369.651 328.275C370.438 328.715 371.045 329.329 371.472 330.116C371.913 330.903 372.133 331.817 372.133 332.857C372.133 333.884 371.913 334.805 371.472 335.619C371.045 336.419 370.438 337.053 369.651 337.52C368.864 337.973 367.944 338.2 366.89 338.2ZM366.89 336.499C367.517 336.499 368.057 336.346 368.511 336.039C368.978 335.732 369.345 335.305 369.611 334.758C369.878 334.211 370.012 333.571 370.012 332.837C370.012 331.743 369.718 330.883 369.131 330.256C368.557 329.616 367.81 329.295 366.89 329.295C365.983 329.295 365.236 329.616 364.649 330.256C364.075 330.896 363.788 331.757 363.788 332.837C363.788 333.571 363.915 334.211 364.168 334.758C364.435 335.305 364.802 335.732 365.269 336.039C365.749 336.346 366.29 336.499 366.89 336.499ZM379.713 338.18C378.753 338.18 377.952 337.953 377.312 337.5C376.685 337.033 376.271 336.386 376.071 335.559L376.351 335.519V342.102H374.27V327.795H376.251V330.136L376.051 330.076C376.265 329.302 376.718 328.695 377.412 328.255C378.106 327.815 378.919 327.594 379.853 327.594C380.774 327.594 381.568 327.815 382.235 328.255C382.915 328.695 383.435 329.309 383.795 330.096C384.169 330.883 384.356 331.803 384.356 332.857C384.356 333.924 384.162 334.858 383.775 335.659C383.388 336.459 382.848 337.08 382.154 337.52C381.461 337.96 380.647 338.18 379.713 338.18ZM379.273 336.459C380.18 336.459 380.9 336.139 381.434 335.499C381.968 334.858 382.235 333.978 382.235 332.857C382.235 331.75 381.968 330.89 381.434 330.276C380.9 329.649 380.173 329.335 379.253 329.335C378.346 329.335 377.619 329.656 377.072 330.296C376.538 330.923 376.271 331.797 376.271 332.917C376.271 334.011 376.538 334.878 377.072 335.519C377.619 336.146 378.352 336.459 379.273 336.459ZM309.967 362.2C308.633 362.2 307.572 361.907 306.785 361.32C305.998 360.733 305.551 359.906 305.444 358.838H307.365C307.459 359.425 307.725 359.879 308.166 360.199C308.619 360.506 309.233 360.659 310.007 360.659C310.687 360.659 311.207 360.539 311.567 360.299C311.928 360.059 312.108 359.719 312.108 359.279C312.108 358.958 312.001 358.692 311.788 358.478C311.587 358.251 311.187 358.065 310.587 357.918L308.946 357.538C307.919 357.284 307.152 356.911 306.645 356.417C306.151 355.91 305.904 355.29 305.904 354.556C305.904 353.636 306.245 352.915 306.925 352.395C307.619 351.861 308.566 351.594 309.766 351.594C310.954 351.594 311.908 351.861 312.628 352.395C313.362 352.928 313.775 353.676 313.869 354.636H311.948C311.868 354.156 311.634 353.789 311.247 353.535C310.874 353.269 310.36 353.135 309.706 353.135C309.093 353.135 308.619 353.249 308.286 353.475C307.965 353.689 307.805 353.989 307.805 354.376C307.805 354.696 307.925 354.963 308.166 355.176C308.419 355.39 308.833 355.57 309.406 355.717L311.087 356.137C312.061 356.377 312.795 356.771 313.288 357.317C313.782 357.851 314.029 358.498 314.029 359.259C314.029 360.179 313.669 360.899 312.948 361.42C312.241 361.94 311.247 362.2 309.967 362.2ZM320.752 362.2C319.711 362.2 318.797 361.973 318.01 361.52C317.223 361.053 316.61 360.419 316.169 359.619C315.729 358.805 315.509 357.884 315.509 356.857C315.509 355.817 315.729 354.903 316.169 354.116C316.623 353.329 317.237 352.715 318.01 352.275C318.797 351.821 319.711 351.594 320.752 351.594C321.806 351.594 322.726 351.821 323.513 352.275C324.3 352.715 324.907 353.329 325.334 354.116C325.775 354.903 325.995 355.817 325.995 356.857C325.995 357.884 325.775 358.805 325.334 359.619C324.907 360.419 324.3 361.053 323.513 361.52C322.726 361.973 321.806 362.2 320.752 362.2ZM320.752 360.499C321.379 360.499 321.919 360.346 322.373 360.039C322.84 359.732 323.207 359.305 323.473 358.758C323.74 358.211 323.874 357.571 323.874 356.837C323.874 355.743 323.58 354.883 322.993 354.256C322.419 353.616 321.672 353.295 320.752 353.295C319.845 353.295 319.098 353.616 318.511 354.256C317.937 354.896 317.65 355.757 317.65 356.837C317.65 357.571 317.777 358.211 318.03 358.758C318.297 359.305 318.664 359.732 319.131 360.039C319.611 360.346 320.152 360.499 320.752 360.499ZM328.132 362V347.592H330.213V362H328.132ZM336.457 362.2C335.776 362.2 335.176 362.06 334.656 361.78C334.135 361.486 333.729 361.086 333.435 360.579C333.155 360.072 333.015 359.492 333.015 358.838V351.795H335.096V358.358C335.096 359.065 335.269 359.592 335.616 359.939C335.963 360.286 336.457 360.459 337.097 360.459C337.671 360.459 338.178 360.326 338.618 360.059C339.071 359.792 339.425 359.425 339.678 358.958C339.945 358.478 340.079 357.924 340.079 357.297L340.339 359.739C340.005 360.486 339.492 361.086 338.798 361.54C338.118 361.98 337.337 362.2 336.457 362.2ZM340.159 362V359.599H340.079V351.795H342.14V362H340.159ZM349.3 362.2C348.113 362.2 347.239 361.927 346.679 361.38C346.132 360.819 345.858 359.999 345.858 358.918V349.453L347.919 348.673V358.938C347.919 359.472 348.059 359.866 348.339 360.119C348.62 360.372 349.073 360.499 349.7 360.499C349.94 360.499 350.154 360.479 350.341 360.439C350.527 360.399 350.687 360.352 350.821 360.299V361.98C350.674 362.047 350.467 362.1 350.2 362.14C349.934 362.18 349.634 362.2 349.3 362.2ZM343.817 353.455V351.795H350.821V353.455H343.817ZM352.755 362V351.795H354.836V362H352.755ZM352.655 349.793V347.452H354.956V349.793H352.655ZM362.161 362.2C361.12 362.2 360.206 361.973 359.419 361.52C358.632 361.053 358.019 360.419 357.578 359.619C357.138 358.805 356.918 357.884 356.918 356.857C356.918 355.817 357.138 354.903 357.578 354.116C358.032 353.329 358.646 352.715 359.419 352.275C360.206 351.821 361.12 351.594 362.161 351.594C363.215 351.594 364.135 351.821 364.922 352.275C365.709 352.715 366.316 353.329 366.743 354.116C367.183 354.903 367.404 355.817 367.404 356.857C367.404 357.884 367.183 358.805 366.743 359.619C366.316 360.419 365.709 361.053 364.922 361.52C364.135 361.973 363.215 362.2 362.161 362.2ZM362.161 360.499C362.788 360.499 363.328 360.346 363.782 360.039C364.249 359.732 364.615 359.305 364.882 358.758C365.149 358.211 365.282 357.571 365.282 356.837C365.282 355.743 364.989 354.883 364.402 354.256C363.828 353.616 363.081 353.295 362.161 353.295C361.254 353.295 360.507 353.616 359.92 354.256C359.346 354.896 359.059 355.757 359.059 356.837C359.059 357.571 359.186 358.211 359.439 358.758C359.706 359.305 360.073 359.732 360.54 360.039C361.02 360.346 361.56 360.499 362.161 360.499ZM369.541 362V351.795H371.522V354.196H371.622V362H369.541ZM376.785 362V355.436C376.785 354.729 376.605 354.202 376.245 353.856C375.898 353.509 375.378 353.335 374.684 353.335C374.084 353.335 373.55 353.469 373.083 353.736C372.629 354.002 372.269 354.369 372.002 354.836C371.749 355.303 371.622 355.857 371.622 356.497L371.362 354.056C371.696 353.295 372.209 352.695 372.903 352.255C373.597 351.815 374.404 351.594 375.324 351.594C376.418 351.594 377.279 351.901 377.906 352.515C378.533 353.129 378.846 353.942 378.846 354.956V362H376.785ZM380.894 362V359.519H383.355V362H380.894Z" fill="#4B336D"/>
<defs>
<filter id="filter0_d_2142_221" x="0.931593" y="0.755493" width="697.334" height="697.334" filterUnits="userSpaceOnUse" color-interpolation-filters="sRGB">
<feFlood flood-opacity="0" result="BackgroundImageFix"/>
<feColorMatrix in="SourceAlpha" type="matrix" values="0 0 0 0 0 0 0 0 0 0 0 0 0 0 0 0 0 0 127 0" result="hardAlpha"/>
<feOffset dy="9.60515"/>
<feGaussianBlur stdDeviation="11.0459"/>
<feComposite in2="hardAlpha" operator="out"/>
<feColorMatrix type="matrix" values="0 0 0 0 0 0 0 0 0 0 0 0 0 0 0 0 0 0 0.25 0"/>
<feBlend mode="normal" in2="BackgroundImageFix" result="effect1_dropShadow_2142_221"/>
<feBlend mode="normal" in="SourceGraphic" in2="effect1_dropShadow_2142_221" result="shape"/>
</filter>
<filter id="filter1_d_2142_221" x="234.31" y="223.501" width="226.651" height="186.352" filterUnits="userSpaceOnUse" color-interpolation-filters="sRGB">
<feFlood flood-opacity="0" result="BackgroundImageFix"/>
<feColorMatrix in="SourceAlpha" type="matrix" values="0 0 0 0 0 0 0 0 0 0 0 0 0 0 0 0 0 0 127 0" result="hardAlpha"/>
<feOffset dy="4.80258"/>
<feGaussianBlur stdDeviation="2.00107"/>
<feComposite in2="hardAlpha" operator="out"/>
<feColorMatrix type="matrix" values="0 0 0 0 0 0 0 0 0 0 0 0 0 0 0 0 0 0 0.46 0"/>
<feBlend mode="normal" in2="BackgroundImageFix" result="effect1_dropShadow_2142_221"/>
<feBlend mode="normal" in="SourceGraphic" in2="effect1_dropShadow_2142_221" result="shape"/>
</filter>
<linearGradient id="paint0_linear_2142_221" x1="185.646" y1="-19.6814" x2="479.297" y2="722.928" gradientUnits="userSpaceOnUse">
<stop stop-color="#83A1FF"/>
<stop offset="0.5" stop-color="#674CD5"/>
<stop offset="1" stop-color="#FFAD12"/>
</linearGradient>
</defs>
</svg>
