<svg width="699" height="698" viewBox="0 0 699 698" fill="none" xmlns="http://www.w3.org/2000/svg">
<g filter="url(#filter0_d_2162_362)">
<mask id="path-1-inside-1_2162_362" fill="white">
<path d="M349.599 13C529.961 13 676.174 159.213 676.174 339.575C676.174 519.938 529.961 666.15 349.599 666.15C169.236 666.15 23.0235 519.937 23.0234 339.575C23.0234 159.213 169.236 13.0001 349.599 13ZM349.268 161.323C251.005 161.323 171.347 240.981 171.347 339.243C171.347 437.506 251.005 517.164 349.268 517.164C447.53 517.164 527.188 437.506 527.188 339.243C527.187 240.981 447.53 161.323 349.268 161.323Z"/>
</mask>
<path d="M349.599 13C529.961 13 676.174 159.213 676.174 339.575C676.174 519.938 529.961 666.15 349.599 666.15C169.236 666.15 23.0235 519.937 23.0234 339.575C23.0234 159.213 169.236 13.0001 349.599 13ZM349.268 161.323C251.005 161.323 171.347 240.981 171.347 339.243C171.347 437.506 251.005 517.164 349.268 517.164C447.53 517.164 527.188 437.506 527.188 339.243C527.187 240.981 447.53 161.323 349.268 161.323Z" fill="url(#paint0_linear_2162_362)" fill-opacity="0.8" shape-rendering="crispEdges"/>
<path d="M349.599 13L349.599 10.5987L349.599 10.5987L349.599 13ZM676.174 339.575L678.575 339.575V339.575H676.174ZM349.599 666.15L349.599 668.552H349.599V666.15ZM23.0234 339.575L20.6221 339.575L20.6221 339.575L23.0234 339.575ZM349.268 161.323L349.268 158.922H349.268V161.323ZM171.347 339.243L168.945 339.243V339.243H171.347ZM349.268 517.164L349.268 519.565L349.268 519.565L349.268 517.164ZM527.188 339.243L529.589 339.243L529.589 339.243L527.188 339.243ZM349.599 13V15.4013C528.635 15.4013 673.773 160.539 673.773 339.575H676.174H678.575C678.575 157.887 531.287 10.5987 349.599 10.5987V13ZM676.174 339.575L673.773 339.575C673.772 518.611 528.635 663.749 349.599 663.749V666.15V668.552C531.287 668.552 678.575 521.264 678.575 339.575L676.174 339.575ZM349.599 666.15L349.599 663.749C170.563 663.749 25.4248 518.611 25.4247 339.575L23.0234 339.575L20.6221 339.575C20.6222 521.264 167.91 668.552 349.599 668.552L349.599 666.15ZM23.0234 339.575H25.4247C25.4247 160.539 170.562 15.4014 349.599 15.4013L349.599 13L349.599 10.5987C167.91 10.5989 20.6221 157.887 20.6221 339.575H23.0234ZM349.268 161.323V158.922C249.679 158.922 168.946 239.654 168.945 339.243L171.347 339.243L173.748 339.243C173.748 242.307 252.331 163.725 349.268 163.725V161.323ZM171.347 339.243H168.945C168.945 438.832 249.679 519.565 349.268 519.565V517.164V514.763C252.331 514.763 173.748 436.18 173.748 339.243H171.347ZM349.268 517.164L349.268 519.565C448.856 519.565 529.589 438.832 529.589 339.243H527.188H524.786C524.786 436.18 446.204 514.763 349.268 514.763L349.268 517.164ZM527.188 339.243L529.589 339.243C529.589 239.655 448.856 158.922 349.268 158.922L349.268 161.323L349.268 163.725C446.204 163.725 524.786 242.307 524.786 339.243L527.188 339.243Z" fill="white" mask="url(#path-1-inside-1_2162_362)"/>
</g>
<g filter="url(#filter1_d_2162_362)">
<path d="M241.145 399.205L345.2 226.312L454.059 399.205H241.145Z" stroke="white" stroke-width="3.20172" shape-rendering="crispEdges"/>
</g>
<circle cx="344.8" cy="223.507" r="10.0054" fill="white" stroke="#CCCCCC" stroke-width="0.800429"/>
<circle cx="454.456" cy="399.601" r="10.0054" fill="white" stroke="#CCCCCC" stroke-width="0.800429"/>
<circle cx="241.542" cy="398.804" r="10.0054" fill="white" stroke="#CCCCCC" stroke-width="0.800429"/>
<path d="M327.072 313.758V307.474L321.649 299.35H324.21L328.793 306.514H327.692L332.275 299.35H334.616L329.193 307.474V313.758H327.072ZM338.896 313.958C337.856 313.958 336.942 313.731 336.155 313.278C335.368 312.811 334.754 312.177 334.314 311.377C333.874 310.563 333.654 309.642 333.654 308.615C333.654 307.574 333.874 306.661 334.314 305.874C334.767 305.086 335.381 304.473 336.155 304.033C336.942 303.579 337.856 303.352 338.896 303.352C339.95 303.352 340.871 303.579 341.658 304.033C342.445 304.473 343.052 305.086 343.479 305.874C343.919 306.661 344.139 307.574 344.139 308.615C344.139 309.642 343.919 310.563 343.479 311.377C343.052 312.177 342.445 312.811 341.658 313.278C340.871 313.731 339.95 313.958 338.896 313.958ZM338.896 312.257C339.523 312.257 340.064 312.104 340.517 311.797C340.984 311.49 341.351 311.063 341.618 310.516C341.885 309.969 342.018 309.329 342.018 308.595C342.018 307.501 341.725 306.641 341.138 306.014C340.564 305.373 339.817 305.053 338.896 305.053C337.989 305.053 337.242 305.373 336.655 306.014C336.082 306.654 335.795 307.514 335.795 308.595C335.795 309.329 335.921 309.969 336.175 310.516C336.442 311.063 336.809 311.49 337.276 311.797C337.756 312.104 338.296 312.257 338.896 312.257ZM349.599 313.958C348.918 313.958 348.318 313.818 347.798 313.538C347.277 313.244 346.87 312.844 346.577 312.337C346.297 311.83 346.157 311.25 346.157 310.596V303.552H348.238V310.116C348.238 310.823 348.411 311.35 348.758 311.697C349.105 312.044 349.599 312.217 350.239 312.217C350.812 312.217 351.319 312.084 351.76 311.817C352.213 311.55 352.567 311.183 352.82 310.716C353.087 310.236 353.22 309.682 353.22 309.055L353.481 311.497C353.147 312.244 352.633 312.844 351.94 313.298C351.259 313.738 350.479 313.958 349.599 313.958ZM353.3 313.758V311.357H353.22V303.552H355.282V313.758H353.3ZM358.197 313.758V303.552H360.178V306.094H360.278V313.758H358.197ZM360.278 308.435L360.018 306.014C360.258 305.147 360.672 304.486 361.259 304.033C361.846 303.579 362.546 303.352 363.36 303.352C363.667 303.352 363.88 303.379 364 303.432V305.393C363.934 305.367 363.84 305.353 363.72 305.353C363.6 305.34 363.453 305.333 363.28 305.333C362.279 305.333 361.526 305.593 361.019 306.114C360.525 306.634 360.278 307.408 360.278 308.435ZM310.414 337.958C309.374 337.958 308.46 337.731 307.673 337.278C306.886 336.811 306.272 336.177 305.832 335.377C305.392 334.563 305.171 333.642 305.171 332.615C305.171 331.574 305.392 330.661 305.832 329.874C306.285 329.086 306.899 328.473 307.673 328.033C308.46 327.579 309.374 327.352 310.414 327.352C311.468 327.352 312.389 327.579 313.176 328.033C313.963 328.473 314.57 329.086 314.997 329.874C315.437 330.661 315.657 331.574 315.657 332.615C315.657 333.642 315.437 334.563 314.997 335.377C314.57 336.177 313.963 336.811 313.176 337.278C312.389 337.731 311.468 337.958 310.414 337.958ZM310.414 336.257C311.041 336.257 311.582 336.104 312.035 335.797C312.502 335.49 312.869 335.063 313.136 334.516C313.403 333.969 313.536 333.329 313.536 332.595C313.536 331.501 313.242 330.641 312.656 330.014C312.082 329.373 311.335 329.053 310.414 329.053C309.507 329.053 308.76 329.373 308.173 330.014C307.599 330.654 307.313 331.514 307.313 332.595C307.313 333.329 307.439 333.969 307.693 334.516C307.96 335.063 308.327 335.49 308.793 335.797C309.274 336.104 309.814 336.257 310.414 336.257ZM317.795 337.758V327.552H319.776V329.954H319.876V337.758H317.795ZM325.039 337.758V331.194C325.039 330.487 324.858 329.96 324.498 329.613C324.151 329.267 323.631 329.093 322.937 329.093C322.337 329.093 321.803 329.227 321.337 329.493C320.883 329.76 320.523 330.127 320.256 330.594C320.003 331.061 319.876 331.615 319.876 332.255L319.616 329.814C319.949 329.053 320.463 328.453 321.156 328.013C321.85 327.572 322.657 327.352 323.578 327.352C324.672 327.352 325.532 327.659 326.159 328.273C326.786 328.886 327.1 329.7 327.1 330.714V337.758H325.039ZM334.332 337.958C333.305 337.958 332.398 337.731 331.611 337.278C330.837 336.824 330.23 336.197 329.79 335.397C329.35 334.596 329.13 333.676 329.13 332.635C329.13 331.581 329.343 330.661 329.77 329.874C330.21 329.073 330.824 328.453 331.611 328.013C332.398 327.572 333.299 327.352 334.312 327.352C335.3 327.352 336.153 327.566 336.874 327.993C337.608 328.406 338.168 328.986 338.555 329.734C338.955 330.481 339.155 331.368 339.155 332.395C339.155 332.555 339.148 332.708 339.135 332.855C339.135 332.989 339.122 333.129 339.095 333.275H330.53V331.715H337.634L337.114 332.335C337.114 331.241 336.867 330.407 336.374 329.834C335.88 329.26 335.193 328.973 334.312 328.973C333.365 328.973 332.612 329.3 332.051 329.954C331.504 330.594 331.231 331.488 331.231 332.635C331.231 333.796 331.504 334.703 332.051 335.357C332.612 336.01 333.385 336.337 334.372 336.337C334.973 336.337 335.493 336.217 335.933 335.977C336.374 335.723 336.7 335.357 336.914 334.876H338.875C338.541 335.837 337.974 336.591 337.174 337.137C336.387 337.684 335.44 337.958 334.332 337.958ZM348.913 337.958C347.579 337.958 346.519 337.664 345.732 337.077C344.944 336.49 344.498 335.663 344.391 334.596H346.312C346.405 335.183 346.672 335.637 347.112 335.957C347.566 336.264 348.179 336.417 348.953 336.417C349.634 336.417 350.154 336.297 350.514 336.057C350.874 335.817 351.054 335.477 351.054 335.036C351.054 334.716 350.948 334.449 350.734 334.236C350.534 334.009 350.134 333.822 349.534 333.676L347.893 333.295C346.865 333.042 346.098 332.668 345.591 332.175C345.098 331.668 344.851 331.048 344.851 330.314C344.851 329.393 345.191 328.673 345.872 328.153C346.565 327.619 347.512 327.352 348.713 327.352C349.9 327.352 350.854 327.619 351.575 328.153C352.308 328.686 352.722 329.433 352.815 330.394H350.894C350.814 329.914 350.581 329.547 350.194 329.293C349.82 329.026 349.307 328.893 348.653 328.893C348.039 328.893 347.566 329.006 347.232 329.233C346.912 329.447 346.752 329.747 346.752 330.134C346.752 330.454 346.872 330.721 347.112 330.934C347.366 331.148 347.779 331.328 348.353 331.474L350.034 331.895C351.008 332.135 351.741 332.528 352.235 333.075C352.729 333.609 352.975 334.256 352.975 335.016C352.975 335.937 352.615 336.657 351.895 337.178C351.188 337.698 350.194 337.958 348.913 337.958ZM359.227 337.958C358.04 337.958 357.166 337.684 356.606 337.137C356.059 336.577 355.785 335.757 355.785 334.676V325.211L357.846 324.431V334.696C357.846 335.23 357.987 335.623 358.267 335.877C358.547 336.13 359 336.257 359.627 336.257C359.868 336.257 360.081 336.237 360.268 336.197C360.455 336.157 360.615 336.11 360.748 336.057V337.738C360.601 337.805 360.394 337.858 360.128 337.898C359.861 337.938 359.561 337.958 359.227 337.958ZM353.744 329.213V327.552H360.748V329.213H353.744ZM366.89 337.958C365.849 337.958 364.936 337.731 364.148 337.278C363.361 336.811 362.748 336.177 362.307 335.377C361.867 334.563 361.647 333.642 361.647 332.615C361.647 331.574 361.867 330.661 362.307 329.874C362.761 329.086 363.375 328.473 364.148 328.033C364.936 327.579 365.849 327.352 366.89 327.352C367.944 327.352 368.864 327.579 369.651 328.033C370.438 328.473 371.045 329.086 371.472 329.874C371.913 330.661 372.133 331.574 372.133 332.615C372.133 333.642 371.913 334.563 371.472 335.377C371.045 336.177 370.438 336.811 369.651 337.278C368.864 337.731 367.944 337.958 366.89 337.958ZM366.89 336.257C367.517 336.257 368.057 336.104 368.511 335.797C368.978 335.49 369.345 335.063 369.611 334.516C369.878 333.969 370.012 333.329 370.012 332.595C370.012 331.501 369.718 330.641 369.131 330.014C368.557 329.373 367.81 329.053 366.89 329.053C365.983 329.053 365.236 329.373 364.649 330.014C364.075 330.654 363.788 331.514 363.788 332.595C363.788 333.329 363.915 333.969 364.168 334.516C364.435 335.063 364.802 335.49 365.269 335.797C365.749 336.104 366.29 336.257 366.89 336.257ZM379.713 337.938C378.753 337.938 377.952 337.711 377.312 337.258C376.685 336.791 376.271 336.144 376.071 335.317L376.351 335.276V341.86H374.27V327.552H376.251V329.894L376.051 329.834C376.265 329.06 376.718 328.453 377.412 328.013C378.106 327.572 378.919 327.352 379.853 327.352C380.774 327.352 381.568 327.572 382.235 328.013C382.915 328.453 383.435 329.066 383.795 329.854C384.169 330.641 384.356 331.561 384.356 332.615C384.356 333.682 384.162 334.616 383.775 335.417C383.388 336.217 382.848 336.837 382.154 337.278C381.461 337.718 380.647 337.938 379.713 337.938ZM379.273 336.217C380.18 336.217 380.9 335.897 381.434 335.256C381.968 334.616 382.235 333.736 382.235 332.615C382.235 331.508 381.968 330.647 381.434 330.034C380.9 329.407 380.173 329.093 379.253 329.093C378.346 329.093 377.619 329.413 377.072 330.054C376.538 330.681 376.271 331.554 376.271 332.675C376.271 333.769 376.538 334.636 377.072 335.276C377.619 335.903 378.352 336.217 379.273 336.217ZM309.967 361.958C308.633 361.958 307.572 361.664 306.785 361.077C305.998 360.49 305.551 359.663 305.444 358.596H307.365C307.459 359.183 307.725 359.637 308.166 359.957C308.619 360.264 309.233 360.417 310.007 360.417C310.687 360.417 311.207 360.297 311.567 360.057C311.928 359.817 312.108 359.477 312.108 359.036C312.108 358.716 312.001 358.449 311.788 358.236C311.587 358.009 311.187 357.822 310.587 357.676L308.946 357.295C307.919 357.042 307.152 356.668 306.645 356.175C306.151 355.668 305.904 355.048 305.904 354.314C305.904 353.393 306.245 352.673 306.925 352.153C307.619 351.619 308.566 351.352 309.766 351.352C310.954 351.352 311.908 351.619 312.628 352.153C313.362 352.686 313.775 353.433 313.869 354.394H311.948C311.868 353.914 311.634 353.547 311.247 353.293C310.874 353.026 310.36 352.893 309.706 352.893C309.093 352.893 308.619 353.006 308.286 353.233C307.965 353.447 307.805 353.747 307.805 354.134C307.805 354.454 307.925 354.721 308.166 354.934C308.419 355.148 308.833 355.328 309.406 355.474L311.087 355.895C312.061 356.135 312.795 356.528 313.288 357.075C313.782 357.609 314.029 358.256 314.029 359.016C314.029 359.937 313.669 360.657 312.948 361.178C312.241 361.698 311.247 361.958 309.967 361.958ZM320.752 361.958C319.711 361.958 318.797 361.731 318.01 361.278C317.223 360.811 316.61 360.177 316.169 359.377C315.729 358.563 315.509 357.642 315.509 356.615C315.509 355.574 315.729 354.661 316.169 353.874C316.623 353.086 317.237 352.473 318.01 352.033C318.797 351.579 319.711 351.352 320.752 351.352C321.806 351.352 322.726 351.579 323.513 352.033C324.3 352.473 324.907 353.086 325.334 353.874C325.775 354.661 325.995 355.574 325.995 356.615C325.995 357.642 325.775 358.563 325.334 359.377C324.907 360.177 324.3 360.811 323.513 361.278C322.726 361.731 321.806 361.958 320.752 361.958ZM320.752 360.257C321.379 360.257 321.919 360.104 322.373 359.797C322.84 359.49 323.207 359.063 323.473 358.516C323.74 357.969 323.874 357.329 323.874 356.595C323.874 355.501 323.58 354.641 322.993 354.014C322.419 353.373 321.672 353.053 320.752 353.053C319.845 353.053 319.098 353.373 318.511 354.014C317.937 354.654 317.65 355.514 317.65 356.595C317.65 357.329 317.777 357.969 318.03 358.516C318.297 359.063 318.664 359.49 319.131 359.797C319.611 360.104 320.152 360.257 320.752 360.257ZM328.132 361.758V347.35H330.213V361.758H328.132ZM336.457 361.958C335.776 361.958 335.176 361.818 334.656 361.538C334.135 361.244 333.729 360.844 333.435 360.337C333.155 359.83 333.015 359.25 333.015 358.596V351.552H335.096V358.116C335.096 358.823 335.269 359.35 335.616 359.697C335.963 360.044 336.457 360.217 337.097 360.217C337.671 360.217 338.178 360.084 338.618 359.817C339.071 359.55 339.425 359.183 339.678 358.716C339.945 358.236 340.079 357.682 340.079 357.055L340.339 359.497C340.005 360.244 339.492 360.844 338.798 361.298C338.118 361.738 337.337 361.958 336.457 361.958ZM340.159 361.758V359.357H340.079V351.552H342.14V361.758H340.159ZM349.3 361.958C348.113 361.958 347.239 361.684 346.679 361.137C346.132 360.577 345.858 359.757 345.858 358.676V349.211L347.919 348.431V358.696C347.919 359.23 348.059 359.623 348.339 359.877C348.62 360.13 349.073 360.257 349.7 360.257C349.94 360.257 350.154 360.237 350.341 360.197C350.527 360.157 350.687 360.11 350.821 360.057V361.738C350.674 361.805 350.467 361.858 350.2 361.898C349.934 361.938 349.634 361.958 349.3 361.958ZM343.817 353.213V351.552H350.821V353.213H343.817ZM352.755 361.758V351.552H354.836V361.758H352.755ZM352.655 349.551V347.21H354.956V349.551H352.655ZM362.161 361.958C361.12 361.958 360.206 361.731 359.419 361.278C358.632 360.811 358.019 360.177 357.578 359.377C357.138 358.563 356.918 357.642 356.918 356.615C356.918 355.574 357.138 354.661 357.578 353.874C358.032 353.086 358.646 352.473 359.419 352.033C360.206 351.579 361.12 351.352 362.161 351.352C363.215 351.352 364.135 351.579 364.922 352.033C365.709 352.473 366.316 353.086 366.743 353.874C367.183 354.661 367.404 355.574 367.404 356.615C367.404 357.642 367.183 358.563 366.743 359.377C366.316 360.177 365.709 360.811 364.922 361.278C364.135 361.731 363.215 361.958 362.161 361.958ZM362.161 360.257C362.788 360.257 363.328 360.104 363.782 359.797C364.249 359.49 364.615 359.063 364.882 358.516C365.149 357.969 365.282 357.329 365.282 356.595C365.282 355.501 364.989 354.641 364.402 354.014C363.828 353.373 363.081 353.053 362.161 353.053C361.254 353.053 360.507 353.373 359.92 354.014C359.346 354.654 359.059 355.514 359.059 356.595C359.059 357.329 359.186 357.969 359.439 358.516C359.706 359.063 360.073 359.49 360.54 359.797C361.02 360.104 361.56 360.257 362.161 360.257ZM369.541 361.758V351.552H371.522V353.954H371.622V361.758H369.541ZM376.785 361.758V355.194C376.785 354.487 376.605 353.96 376.245 353.613C375.898 353.267 375.378 353.093 374.684 353.093C374.084 353.093 373.55 353.227 373.083 353.493C372.629 353.76 372.269 354.127 372.002 354.594C371.749 355.061 371.622 355.615 371.622 356.255L371.362 353.814C371.696 353.053 372.209 352.453 372.903 352.013C373.597 351.572 374.404 351.352 375.324 351.352C376.418 351.352 377.279 351.659 377.906 352.273C378.533 352.886 378.846 353.7 378.846 354.714V361.758H376.785ZM380.894 361.758V359.276H383.355V361.758H380.894Z" fill="#4B336D"/>
<defs>
<filter id="filter0_d_2162_362" x="0.931593" y="0.513306" width="697.334" height="697.334" filterUnits="userSpaceOnUse" color-interpolation-filters="sRGB">
<feFlood flood-opacity="0" result="BackgroundImageFix"/>
<feColorMatrix in="SourceAlpha" type="matrix" values="0 0 0 0 0 0 0 0 0 0 0 0 0 0 0 0 0 0 127 0" result="hardAlpha"/>
<feOffset dy="9.60515"/>
<feGaussianBlur stdDeviation="11.0459"/>
<feComposite in2="hardAlpha" operator="out"/>
<feColorMatrix type="matrix" values="0 0 0 0 0 0 0 0 0 0 0 0 0 0 0 0 0 0 0.25 0"/>
<feBlend mode="normal" in2="BackgroundImageFix" result="effect1_dropShadow_2162_362"/>
<feBlend mode="normal" in="SourceGraphic" in2="effect1_dropShadow_2162_362" result="shape"/>
</filter>
<filter id="filter1_d_2162_362" x="234.31" y="223.259" width="226.651" height="186.352" filterUnits="userSpaceOnUse" color-interpolation-filters="sRGB">
<feFlood flood-opacity="0" result="BackgroundImageFix"/>
<feColorMatrix in="SourceAlpha" type="matrix" values="0 0 0 0 0 0 0 0 0 0 0 0 0 0 0 0 0 0 127 0" result="hardAlpha"/>
<feOffset dy="4.80258"/>
<feGaussianBlur stdDeviation="2.00107"/>
<feComposite in2="hardAlpha" operator="out"/>
<feColorMatrix type="matrix" values="0 0 0 0 0 0 0 0 0 0 0 0 0 0 0 0 0 0 0.46 0"/>
<feBlend mode="normal" in2="BackgroundImageFix" result="effect1_dropShadow_2162_362"/>
<feBlend mode="normal" in="SourceGraphic" in2="effect1_dropShadow_2162_362" result="shape"/>
</filter>
<linearGradient id="paint0_linear_2162_362" x1="185.646" y1="-19.9236" x2="479.297" y2="722.686" gradientUnits="userSpaceOnUse">
<stop stop-color="#83A1FF"/>
<stop offset="0.5" stop-color="#674CD5"/>
<stop offset="1" stop-color="#FFAD12"/>
</linearGradient>
</defs>
</svg>
