<svg width="506" height="506" viewBox="0 0 506 506" fill="none" xmlns="http://www.w3.org/2000/svg">
<g filter="url(#filter0_d_2172_367)">
<mask id="path-1-inside-1_2172_367" fill="white">
<path d="M252.927 9.2998C383.655 9.2998 489.631 115.276 489.631 246.004C489.631 376.732 383.655 482.709 252.927 482.709C122.199 482.709 16.2227 376.732 16.2227 246.004C16.2229 115.276 122.199 9.29983 252.927 9.2998ZM252.687 116.805C181.465 116.805 123.729 174.541 123.729 245.763C123.729 316.984 181.465 374.721 252.687 374.721C323.908 374.721 381.644 316.984 381.645 245.763C381.645 174.541 323.908 116.805 252.687 116.805Z"/>
</mask>
<path d="M252.927 9.2998C383.655 9.2998 489.631 115.276 489.631 246.004C489.631 376.732 383.655 482.709 252.927 482.709C122.199 482.709 16.2227 376.732 16.2227 246.004C16.2229 115.276 122.199 9.29983 252.927 9.2998ZM252.687 116.805C181.465 116.805 123.729 174.541 123.729 245.763C123.729 316.984 181.465 374.721 252.687 374.721C323.908 374.721 381.644 316.984 381.645 245.763C381.645 174.541 323.908 116.805 252.687 116.805Z" fill="#F2F5FF" fill-opacity="0.8" shape-rendering="crispEdges"/>
<path d="M252.927 9.2998L252.927 7.55933L252.927 7.55933L252.927 9.2998ZM489.631 246.004L491.371 246.004L491.371 246.004L489.631 246.004ZM252.927 482.709L252.927 484.449H252.927V482.709ZM16.2227 246.004L14.4822 246.004V246.004H16.2227ZM252.687 116.805L252.687 115.064H252.687V116.805ZM123.729 245.763L121.988 245.763L121.988 245.763L123.729 245.763ZM252.687 374.721L252.687 376.461L252.687 376.461L252.687 374.721ZM381.645 245.763L383.385 245.763V245.763H381.645ZM252.927 9.2998V11.0403C382.693 11.0403 487.89 116.237 487.89 246.004L489.631 246.004L491.371 246.004C491.371 114.315 384.616 7.55933 252.927 7.55933V9.2998ZM489.631 246.004H487.89C487.89 375.771 382.694 480.969 252.927 480.969V482.709V484.449C384.616 484.449 491.371 377.693 491.371 246.004H489.631ZM252.927 482.709L252.927 480.969C123.16 480.968 17.9631 375.771 17.9631 246.004H16.2227H14.4822C14.4822 377.693 121.237 484.449 252.927 484.449L252.927 482.709ZM16.2227 246.004L17.9631 246.004C17.9634 116.237 123.16 11.0403 252.927 11.0403L252.927 9.2998L252.927 7.55933C121.238 7.55936 14.4824 114.315 14.4822 246.004L16.2227 246.004ZM252.687 116.805V115.064C180.504 115.064 121.988 173.58 121.988 245.763H123.729H125.469C125.469 175.502 182.426 118.545 252.687 118.545V116.805ZM123.729 245.763L121.988 245.763C121.988 317.945 180.504 376.461 252.687 376.461V374.721V372.98C182.426 372.98 125.469 316.023 125.469 245.763L123.729 245.763ZM252.687 374.721L252.687 376.461C324.869 376.461 383.385 317.945 383.385 245.763L381.645 245.763L379.904 245.763C379.904 316.023 322.947 372.98 252.687 372.98L252.687 374.721ZM381.645 245.763H383.385C383.385 173.58 324.869 115.064 252.687 115.064L252.687 116.805L252.687 118.545C322.947 118.545 379.904 175.503 379.904 245.763H381.645Z" fill="white" mask="url(#path-1-inside-1_2172_367)"/>
</g>
<g filter="url(#filter1_d_2172_367)">
<path d="M174.316 289.226L249.737 163.912L328.638 289.226H174.316Z" stroke="white" stroke-width="2.32063" shape-rendering="crispEdges"/>
</g>
<circle cx="249.444" cy="161.882" r="7.25197" fill="white" stroke="#CCCCCC" stroke-width="0.580157"/>
<circle cx="328.929" cy="289.517" r="7.25197" fill="white" stroke="#CCCCCC" stroke-width="0.580157"/>
<circle cx="174.605" cy="288.936" r="7.25197" fill="white" stroke="#CCCCCC" stroke-width="0.580157"/>
<path d="M236.599 227.02V222.465L232.668 216.577H234.525L237.846 221.769H237.048L240.37 216.577H242.067L238.136 222.465V227.02H236.599ZM245.169 227.165C244.415 227.165 243.753 227 243.182 226.671C242.612 226.333 242.167 225.874 241.848 225.294C241.529 224.704 241.369 224.037 241.369 223.292C241.369 222.538 241.529 221.875 241.848 221.305C242.177 220.734 242.621 220.29 243.182 219.971C243.753 219.642 244.415 219.477 245.169 219.477C245.933 219.477 246.6 219.642 247.171 219.971C247.741 220.29 248.181 220.734 248.491 221.305C248.81 221.875 248.969 222.538 248.969 223.292C248.969 224.037 248.81 224.704 248.491 225.294C248.181 225.874 247.741 226.333 247.171 226.671C246.6 227 245.933 227.165 245.169 227.165ZM245.169 225.932C245.624 225.932 246.015 225.821 246.344 225.598C246.683 225.376 246.948 225.066 247.142 224.67C247.335 224.273 247.432 223.809 247.432 223.278C247.432 222.485 247.219 221.861 246.794 221.407C246.378 220.942 245.837 220.71 245.169 220.71C244.512 220.71 243.97 220.942 243.545 221.407C243.129 221.871 242.921 222.494 242.921 223.278C242.921 223.809 243.013 224.273 243.197 224.67C243.39 225.066 243.656 225.376 243.995 225.598C244.343 225.821 244.734 225.932 245.169 225.932ZM252.926 227.165C252.433 227.165 251.998 227.063 251.621 226.86C251.244 226.647 250.949 226.357 250.736 225.99C250.533 225.622 250.432 225.202 250.432 224.728V219.623H251.94V224.38C251.94 224.892 252.066 225.274 252.317 225.526C252.569 225.777 252.926 225.903 253.39 225.903C253.806 225.903 254.174 225.806 254.493 225.613C254.822 225.419 255.078 225.153 255.261 224.815C255.455 224.467 255.552 224.066 255.552 223.611L255.74 225.381C255.498 225.922 255.126 226.357 254.623 226.686C254.13 227.005 253.564 227.165 252.926 227.165ZM255.61 227.02V225.279H255.552V219.623H257.045V227.02H255.61ZM259.159 227.02V219.623H260.595V221.465H260.667V227.02H259.159ZM260.667 223.161L260.479 221.407C260.653 220.778 260.952 220.299 261.378 219.971C261.803 219.642 262.311 219.477 262.901 219.477C263.123 219.477 263.278 219.497 263.365 219.535V220.957C263.317 220.938 263.249 220.928 263.162 220.928C263.075 220.918 262.968 220.913 262.843 220.913C262.118 220.913 261.571 221.102 261.204 221.479C260.846 221.856 260.667 222.417 260.667 223.161ZM224.525 245.165C223.771 245.165 223.109 245 222.538 244.671C221.968 244.333 221.523 243.874 221.204 243.294C220.885 242.704 220.725 242.037 220.725 241.292C220.725 240.538 220.885 239.875 221.204 239.305C221.533 238.734 221.977 238.29 222.538 237.971C223.109 237.642 223.771 237.477 224.525 237.477C225.289 237.477 225.956 237.642 226.527 237.971C227.097 238.29 227.537 238.734 227.847 239.305C228.166 239.875 228.325 240.538 228.325 241.292C228.325 242.037 228.166 242.704 227.847 243.294C227.537 243.874 227.097 244.333 226.527 244.671C225.956 245 225.289 245.165 224.525 245.165ZM224.525 243.932C224.98 243.932 225.371 243.821 225.7 243.598C226.039 243.376 226.304 243.066 226.498 242.67C226.691 242.273 226.788 241.809 226.788 241.278C226.788 240.485 226.575 239.861 226.15 239.407C225.734 238.942 225.192 238.71 224.525 238.71C223.868 238.71 223.326 238.942 222.901 239.407C222.485 239.871 222.277 240.494 222.277 241.278C222.277 241.809 222.369 242.273 222.553 242.67C222.746 243.066 223.012 243.376 223.35 243.598C223.699 243.821 224.09 243.932 224.525 243.932ZM229.875 245.02V237.623H231.311V239.363H231.383V245.02H229.875ZM235.125 245.02V240.262C235.125 239.75 234.995 239.368 234.733 239.116C234.482 238.865 234.105 238.739 233.602 238.739C233.167 238.739 232.78 238.836 232.442 239.029C232.113 239.223 231.852 239.489 231.659 239.827C231.475 240.166 231.383 240.567 231.383 241.031L231.194 239.261C231.436 238.71 231.808 238.275 232.311 237.956C232.814 237.637 233.399 237.477 234.066 237.477C234.859 237.477 235.483 237.7 235.937 238.145C236.392 238.589 236.619 239.179 236.619 239.914V245.02H235.125ZM241.861 245.165C241.117 245.165 240.459 245 239.889 244.671C239.328 244.343 238.888 243.888 238.569 243.308C238.25 242.728 238.09 242.061 238.09 241.307C238.09 240.543 238.245 239.875 238.554 239.305C238.874 238.725 239.318 238.275 239.889 237.956C240.459 237.637 241.112 237.477 241.847 237.477C242.562 237.477 243.181 237.632 243.703 237.942C244.235 238.241 244.641 238.662 244.922 239.203C245.212 239.745 245.357 240.388 245.357 241.132C245.357 241.249 245.352 241.36 245.342 241.466C245.342 241.563 245.333 241.664 245.313 241.771H239.106V240.639H244.254L243.877 241.089C243.877 240.296 243.699 239.692 243.341 239.276C242.983 238.86 242.485 238.652 241.847 238.652C241.16 238.652 240.614 238.889 240.208 239.363C239.811 239.827 239.613 240.475 239.613 241.307C239.613 242.148 239.811 242.805 240.208 243.279C240.614 243.753 241.175 243.99 241.89 243.99C242.325 243.99 242.703 243.903 243.022 243.729C243.341 243.545 243.578 243.279 243.732 242.931H245.154C244.912 243.627 244.501 244.173 243.921 244.57C243.35 244.966 242.664 245.165 241.861 245.165ZM252.43 245.165C251.463 245.165 250.694 244.952 250.123 244.526C249.553 244.101 249.229 243.501 249.152 242.728H250.544C250.612 243.153 250.805 243.482 251.124 243.714C251.453 243.937 251.898 244.048 252.459 244.048C252.952 244.048 253.329 243.961 253.59 243.787C253.851 243.613 253.982 243.366 253.982 243.047C253.982 242.815 253.904 242.622 253.749 242.467C253.604 242.302 253.314 242.167 252.879 242.061L251.69 241.785C250.945 241.601 250.389 241.331 250.022 240.973C249.664 240.606 249.485 240.156 249.485 239.624C249.485 238.957 249.732 238.435 250.225 238.058C250.728 237.671 251.414 237.477 252.285 237.477C253.145 237.477 253.837 237.671 254.359 238.058C254.89 238.444 255.19 238.986 255.258 239.682H253.866C253.807 239.334 253.638 239.068 253.358 238.884C253.087 238.691 252.715 238.594 252.241 238.594C251.796 238.594 251.453 238.676 251.211 238.841C250.979 238.996 250.863 239.213 250.863 239.494C250.863 239.726 250.95 239.919 251.124 240.074C251.308 240.228 251.608 240.359 252.024 240.465L253.242 240.77C253.948 240.944 254.48 241.229 254.837 241.626C255.195 242.012 255.374 242.481 255.374 243.032C255.374 243.7 255.113 244.222 254.591 244.599C254.078 244.976 253.358 245.165 252.43 245.165ZM259.905 245.165C259.045 245.165 258.411 244.966 258.005 244.57C257.609 244.164 257.411 243.569 257.411 242.786V235.926L258.904 235.36V242.8C258.904 243.187 259.006 243.472 259.209 243.656C259.412 243.84 259.741 243.932 260.195 243.932C260.369 243.932 260.524 243.917 260.659 243.888C260.795 243.859 260.911 243.825 261.008 243.787V245.005C260.901 245.053 260.751 245.092 260.558 245.121C260.365 245.15 260.147 245.165 259.905 245.165ZM255.931 238.826V237.623H261.008V238.826H255.931ZM265.459 245.165C264.705 245.165 264.043 245 263.472 244.671C262.902 244.333 262.457 243.874 262.138 243.294C261.819 242.704 261.659 242.037 261.659 241.292C261.659 240.538 261.819 239.875 262.138 239.305C262.467 238.734 262.911 238.29 263.472 237.971C264.043 237.642 264.705 237.477 265.459 237.477C266.223 237.477 266.89 237.642 267.461 237.971C268.031 238.29 268.471 238.734 268.781 239.305C269.1 239.875 269.259 240.538 269.259 241.292C269.259 242.037 269.1 242.704 268.781 243.294C268.471 243.874 268.031 244.333 267.461 244.671C266.89 245 266.223 245.165 265.459 245.165ZM265.459 243.932C265.914 243.932 266.305 243.821 266.634 243.598C266.972 243.376 267.238 243.066 267.432 242.67C267.625 242.273 267.722 241.809 267.722 241.278C267.722 240.485 267.509 239.861 267.084 239.407C266.668 238.942 266.126 238.71 265.459 238.71C264.802 238.71 264.26 238.942 263.835 239.407C263.419 239.871 263.211 240.494 263.211 241.278C263.211 241.809 263.303 242.273 263.487 242.67C263.68 243.066 263.946 243.376 264.284 243.598C264.633 243.821 265.024 243.932 265.459 243.932ZM274.754 245.15C274.057 245.15 273.477 244.986 273.013 244.657C272.559 244.319 272.259 243.85 272.114 243.25L272.317 243.221V247.993H270.809V237.623H272.244V239.319L272.099 239.276C272.254 238.715 272.583 238.275 273.086 237.956C273.589 237.637 274.178 237.477 274.855 237.477C275.522 237.477 276.098 237.637 276.581 237.956C277.074 238.275 277.451 238.72 277.712 239.29C277.983 239.861 278.119 240.528 278.119 241.292C278.119 242.066 277.978 242.742 277.698 243.323C277.418 243.903 277.026 244.352 276.523 244.671C276.02 244.991 275.431 245.15 274.754 245.15ZM274.435 243.903C275.092 243.903 275.614 243.671 276.001 243.207C276.388 242.742 276.581 242.104 276.581 241.292C276.581 240.489 276.388 239.866 276.001 239.421C275.614 238.967 275.087 238.739 274.42 238.739C273.763 238.739 273.236 238.971 272.839 239.436C272.452 239.89 272.259 240.523 272.259 241.336C272.259 242.128 272.452 242.757 272.839 243.221C273.236 243.675 273.767 243.903 274.435 243.903ZM224.201 263.165C223.234 263.165 222.465 262.952 221.895 262.526C221.324 262.101 221 261.501 220.923 260.728H222.315C222.383 261.153 222.576 261.482 222.895 261.714C223.224 261.937 223.669 262.048 224.23 262.048C224.723 262.048 225.1 261.961 225.361 261.787C225.622 261.613 225.753 261.366 225.753 261.047C225.753 260.815 225.675 260.622 225.521 260.467C225.376 260.302 225.086 260.167 224.65 260.061L223.461 259.785C222.717 259.601 222.161 259.331 221.793 258.973C221.435 258.606 221.256 258.156 221.256 257.624C221.256 256.957 221.503 256.435 221.996 256.058C222.499 255.671 223.185 255.477 224.056 255.477C224.916 255.477 225.608 255.671 226.13 256.058C226.662 256.444 226.961 256.986 227.029 257.682H225.637C225.579 257.334 225.409 257.068 225.129 256.884C224.858 256.691 224.486 256.594 224.012 256.594C223.567 256.594 223.224 256.676 222.982 256.841C222.75 256.996 222.634 257.213 222.634 257.494C222.634 257.726 222.721 257.919 222.895 258.074C223.079 258.228 223.379 258.359 223.795 258.465L225.013 258.77C225.719 258.944 226.251 259.229 226.608 259.626C226.966 260.012 227.145 260.481 227.145 261.032C227.145 261.7 226.884 262.222 226.362 262.599C225.849 262.976 225.129 263.165 224.201 263.165ZM232.018 263.165C231.264 263.165 230.601 263 230.031 262.671C229.461 262.333 229.016 261.874 228.697 261.294C228.378 260.704 228.218 260.037 228.218 259.292C228.218 258.538 228.378 257.875 228.697 257.305C229.025 256.734 229.47 256.29 230.031 255.971C230.601 255.642 231.264 255.477 232.018 255.477C232.782 255.477 233.449 255.642 234.02 255.971C234.59 256.29 235.03 256.734 235.339 257.305C235.659 257.875 235.818 258.538 235.818 259.292C235.818 260.037 235.659 260.704 235.339 261.294C235.03 261.874 234.59 262.333 234.02 262.671C233.449 263 232.782 263.165 232.018 263.165ZM232.018 261.932C232.473 261.932 232.864 261.821 233.193 261.598C233.531 261.376 233.797 261.066 233.991 260.67C234.184 260.273 234.281 259.809 234.281 259.278C234.281 258.485 234.068 257.861 233.642 257.407C233.227 256.942 232.685 256.71 232.018 256.71C231.361 256.71 230.819 256.942 230.394 257.407C229.978 257.871 229.77 258.494 229.77 259.278C229.77 259.809 229.862 260.273 230.046 260.67C230.239 261.066 230.505 261.376 230.843 261.598C231.191 261.821 231.583 261.932 232.018 261.932ZM237.367 263.02V252.577H238.876V263.02H237.367ZM243.401 263.165C242.908 263.165 242.473 263.063 242.096 262.86C241.719 262.647 241.424 262.357 241.211 261.99C241.008 261.622 240.906 261.202 240.906 260.728V255.623H242.415V260.38C242.415 260.892 242.54 261.274 242.792 261.526C243.043 261.777 243.401 261.903 243.865 261.903C244.281 261.903 244.648 261.806 244.967 261.613C245.296 261.419 245.552 261.153 245.736 260.815C245.93 260.467 246.026 260.066 246.026 259.611L246.215 261.381C245.973 261.922 245.601 262.357 245.098 262.686C244.605 263.005 244.039 263.165 243.401 263.165ZM246.084 263.02V261.279H246.026V255.623H247.52V263.02H246.084ZM252.71 263.165C251.849 263.165 251.216 262.966 250.81 262.57C250.413 262.164 250.215 261.569 250.215 260.786V253.926L251.709 253.36V260.8C251.709 261.187 251.811 261.472 252.014 261.656C252.217 261.84 252.546 261.932 253 261.932C253.174 261.932 253.329 261.917 253.464 261.888C253.6 261.859 253.716 261.825 253.812 261.787V263.005C253.706 263.053 253.556 263.092 253.363 263.121C253.169 263.15 252.952 263.165 252.71 263.165ZM248.736 256.826V255.623H253.812V256.826H248.736ZM255.214 263.02V255.623H256.722V263.02H255.214ZM255.142 254.172V252.475H256.809V254.172H255.142ZM262.032 263.165C261.277 263.165 260.615 263 260.045 262.671C259.474 262.333 259.029 261.874 258.71 261.294C258.391 260.704 258.232 260.037 258.232 259.292C258.232 258.538 258.391 257.875 258.71 257.305C259.039 256.734 259.484 256.29 260.045 255.971C260.615 255.642 261.277 255.477 262.032 255.477C262.795 255.477 263.463 255.642 264.033 255.971C264.604 256.29 265.044 256.734 265.353 257.305C265.672 257.875 265.832 258.538 265.832 259.292C265.832 260.037 265.672 260.704 265.353 261.294C265.044 261.874 264.604 262.333 264.033 262.671C263.463 263 262.795 263.165 262.032 263.165ZM262.032 261.932C262.486 261.932 262.878 261.821 263.206 261.598C263.545 261.376 263.811 261.066 264.004 260.67C264.197 260.273 264.294 259.809 264.294 259.278C264.294 258.485 264.081 257.861 263.656 257.407C263.24 256.942 262.699 256.71 262.032 256.71C261.374 256.71 260.833 256.942 260.407 257.407C259.991 257.871 259.783 258.494 259.783 259.278C259.783 259.809 259.875 260.273 260.059 260.67C260.252 261.066 260.518 261.376 260.857 261.598C261.205 261.821 261.596 261.932 262.032 261.932ZM267.381 263.02V255.623H268.817V257.363H268.889V263.02H267.381ZM272.631 263.02V258.262C272.631 257.75 272.501 257.368 272.24 257.116C271.988 256.865 271.611 256.739 271.108 256.739C270.673 256.739 270.287 256.836 269.948 257.029C269.619 257.223 269.358 257.489 269.165 257.827C268.981 258.166 268.889 258.567 268.889 259.031L268.701 257.261C268.942 256.71 269.315 256.275 269.818 255.956C270.32 255.637 270.905 255.477 271.573 255.477C272.365 255.477 272.989 255.7 273.444 256.145C273.898 256.589 274.125 257.179 274.125 257.914V263.02H272.631ZM275.61 263.02V261.221H277.393V263.02H275.61Z" fill="#4B336D"/>
<defs>
<filter id="filter0_d_2172_367" x="0.21031" y="0.249348" width="505.435" height="505.434" filterUnits="userSpaceOnUse" color-interpolation-filters="sRGB">
<feFlood flood-opacity="0" result="BackgroundImageFix"/>
<feColorMatrix in="SourceAlpha" type="matrix" values="0 0 0 0 0 0 0 0 0 0 0 0 0 0 0 0 0 0 127 0" result="hardAlpha"/>
<feOffset dy="6.96189"/>
<feGaussianBlur stdDeviation="8.00617"/>
<feComposite in2="hardAlpha" operator="out"/>
<feColorMatrix type="matrix" values="0 0 0 0 0 0 0 0 0 0 0 0 0 0 0 0 0 0 0.25 0"/>
<feBlend mode="normal" in2="BackgroundImageFix" result="effect1_dropShadow_2172_367"/>
<feBlend mode="normal" in="SourceGraphic" in2="effect1_dropShadow_2172_367" result="shape"/>
</filter>
<filter id="filter1_d_2172_367" x="169.365" y="161.699" width="164.274" height="135.069" filterUnits="userSpaceOnUse" color-interpolation-filters="sRGB">
<feFlood flood-opacity="0" result="BackgroundImageFix"/>
<feColorMatrix in="SourceAlpha" type="matrix" values="0 0 0 0 0 0 0 0 0 0 0 0 0 0 0 0 0 0 127 0" result="hardAlpha"/>
<feOffset dy="3.48094"/>
<feGaussianBlur stdDeviation="1.45039"/>
<feComposite in2="hardAlpha" operator="out"/>
<feColorMatrix type="matrix" values="0 0 0 0 0 0 0 0 0 0 0 0 0 0 0 0 0 0 0.46 0"/>
<feBlend mode="normal" in2="BackgroundImageFix" result="effect1_dropShadow_2172_367"/>
<feBlend mode="normal" in="SourceGraphic" in2="effect1_dropShadow_2172_367" result="shape"/>
</filter>
</defs>
</svg>
