<svg width="1194" height="733" viewBox="0 0 1194 733" fill="none" xmlns="http://www.w3.org/2000/svg">
<path d="M155.643 612.72C288.22 359.868 722.539 830.778 1015.4 201.327" stroke="url(#paint0_linear_2266_1621)" stroke-width="7.00412" stroke-dasharray="14.01 14.01"/>
<g filter="url(#filter0_d_2266_1621)">
<mask id="path-2-inside-1_2266_1621" fill="white">
<path d="M1083.34 7.95061C1137.74 7.95061 1181.84 57.7606 1181.84 119.205C1181.84 180.649 1137.74 230.459 1083.34 230.459C1028.94 230.459 984.846 180.648 984.846 119.205C984.846 57.7608 1028.94 7.95083 1083.34 7.95061ZM1083.78 56.4076C1052.83 56.4076 1027.75 84.7448 1027.75 119.7C1027.75 154.654 1052.83 182.991 1083.78 182.991C1114.73 182.991 1139.81 154.654 1139.81 119.7C1139.81 84.7449 1114.73 56.4078 1083.78 56.4076Z"/>
</mask>
<path d="M1083.34 7.95061C1137.74 7.95061 1181.84 57.7606 1181.84 119.205C1181.84 180.649 1137.74 230.459 1083.34 230.459C1028.94 230.459 984.846 180.648 984.846 119.205C984.846 57.7608 1028.94 7.95083 1083.34 7.95061ZM1083.78 56.4076C1052.83 56.4076 1027.75 84.7448 1027.75 119.7C1027.75 154.654 1052.83 182.991 1083.78 182.991C1114.73 182.991 1139.81 154.654 1139.81 119.7C1139.81 84.7449 1114.73 56.4078 1083.78 56.4076Z" fill="url(#paint1_linear_2266_1621)"/>
<path d="M1083.34 7.95061L1083.34 7.07509L1083.34 7.07509L1083.34 7.95061ZM1181.84 119.205L1182.71 119.205L1182.71 119.205L1181.84 119.205ZM1083.34 230.459L1083.34 231.335H1083.34V230.459ZM984.846 119.205L983.97 119.205V119.205H984.846ZM1083.78 56.4076L1083.78 55.5321H1083.78V56.4076ZM1027.75 119.7L1026.87 119.7L1026.87 119.7L1027.75 119.7ZM1083.78 182.991L1083.78 183.866L1083.78 183.866L1083.78 182.991ZM1139.81 119.7L1140.69 119.7V119.7H1139.81ZM1083.34 7.95061V8.82612C1137.16 8.82612 1180.96 58.1409 1180.96 119.205L1181.84 119.205L1182.71 119.205C1182.71 57.3804 1138.32 7.07509 1083.34 7.07509V7.95061ZM1181.84 119.205H1180.96C1180.96 180.268 1137.16 229.584 1083.34 229.584V230.459V231.335C1138.32 231.335 1182.71 181.029 1182.71 119.205H1181.84ZM1083.34 230.459L1083.34 229.584C1029.52 229.584 985.721 180.268 985.721 119.205H984.846H983.97C983.97 181.029 1028.36 231.335 1083.34 231.335L1083.34 230.459ZM984.846 119.205L985.721 119.205C985.721 58.141 1029.52 8.82634 1083.34 8.82612L1083.34 7.95061L1083.34 7.07509C1028.36 7.07531 983.97 57.3805 983.97 119.205L984.846 119.205ZM1083.78 56.4076V55.5321C1052.25 55.5321 1026.87 84.3646 1026.87 119.7H1027.75H1028.62C1028.62 85.1251 1053.41 57.2832 1083.78 57.2832V56.4076ZM1027.75 119.7L1026.87 119.7C1026.87 155.035 1052.25 183.866 1083.78 183.866V182.991V182.115C1053.41 182.115 1028.62 154.274 1028.62 119.7L1027.75 119.7ZM1083.78 182.991L1083.78 183.866C1115.31 183.866 1140.69 155.034 1140.69 119.7L1139.81 119.7L1138.94 119.7C1138.94 154.274 1114.14 182.115 1083.78 182.115L1083.78 182.991ZM1139.81 119.7H1140.69C1140.69 84.3647 1115.31 55.5323 1083.78 55.5321L1083.78 56.4076L1083.78 57.2832C1114.14 57.2833 1138.94 85.1251 1138.94 119.7H1139.81Z" fill="white" mask="url(#path-2-inside-1_2266_1621)"/>
</g>
<g filter="url(#filter1_d_2266_1621)">
<mask id="path-4-inside-2_2266_1621" fill="white">
<path d="M83.9404 555.816C123.59 555.816 155.733 592.122 155.733 636.908C155.733 681.694 123.59 717.999 83.9404 717.999C44.2908 717.999 12.1484 681.693 12.1484 636.908C12.1485 592.122 44.2908 555.816 83.9404 555.816ZM83.5029 600.318C65.8541 600.318 51.5469 616.478 51.5469 636.414C51.547 656.348 65.8542 672.509 83.5029 672.509C101.152 672.509 115.46 656.349 115.46 636.414C115.46 616.478 101.152 600.318 83.5029 600.318Z"/>
</mask>
<path d="M83.9404 555.816C123.59 555.816 155.733 592.122 155.733 636.908C155.733 681.694 123.59 717.999 83.9404 717.999C44.2908 717.999 12.1484 681.693 12.1484 636.908C12.1485 592.122 44.2908 555.816 83.9404 555.816ZM83.5029 600.318C65.8541 600.318 51.5469 616.478 51.5469 636.414C51.547 656.348 65.8542 672.509 83.5029 672.509C101.152 672.509 115.46 656.349 115.46 636.414C115.46 616.478 101.152 600.318 83.5029 600.318Z" fill="url(#paint2_linear_2266_1621)"/>
<path d="M83.9404 555.816L83.9404 554.94L83.9404 554.94L83.9404 555.816ZM155.733 636.908L156.609 636.908L156.609 636.908L155.733 636.908ZM83.9404 717.999L83.9404 718.875H83.9404V717.999ZM12.1484 636.908L11.2729 636.908V636.908H12.1484ZM83.5029 600.318L83.5029 599.442L83.5029 599.442L83.5029 600.318ZM51.5469 636.414L50.6714 636.414L50.6714 636.414L51.5469 636.414ZM83.5029 672.509L83.5029 673.385H83.5029V672.509ZM115.46 636.414L116.335 636.414V636.414H115.46ZM83.9404 555.816V556.691C123.009 556.691 154.858 592.502 154.858 636.908L155.733 636.908L156.609 636.908C156.609 591.742 124.171 554.94 83.9404 554.94V555.816ZM155.733 636.908H154.858C154.858 681.313 123.009 717.124 83.9404 717.124V717.999V718.875C124.171 718.875 156.609 682.074 156.609 636.908H155.733ZM83.9404 717.999L83.9404 717.124C44.8715 717.124 13.024 681.313 13.024 636.908H12.1484H11.2729C11.2729 682.074 43.7101 718.875 83.9404 718.875L83.9404 717.999ZM12.1484 636.908L13.024 636.908C13.024 592.502 44.8716 556.692 83.9404 556.691L83.9404 555.816L83.9404 554.94C43.7101 554.941 11.273 591.742 11.2729 636.908L12.1484 636.908ZM83.5029 600.318L83.5029 599.442C65.2733 599.442 50.6714 616.098 50.6714 636.414H51.5469H52.4224C52.4224 616.859 66.4348 601.193 83.5029 601.193L83.5029 600.318ZM51.5469 636.414L50.6714 636.414C50.6715 656.729 65.2734 673.385 83.5029 673.385L83.5029 672.509L83.5029 671.634C66.4349 671.634 52.4225 655.968 52.4224 636.414L51.5469 636.414ZM83.5029 672.509V673.385C101.733 673.385 116.335 656.729 116.335 636.414L115.46 636.414L114.584 636.414C114.584 655.968 100.571 671.634 83.5029 671.634V672.509ZM115.46 636.414H116.335C116.335 616.098 101.733 599.442 83.5029 599.442V600.318V601.193C100.571 601.193 114.584 616.859 114.584 636.414H115.46Z" fill="white" mask="url(#path-4-inside-2_2266_1621)"/>
</g>
<defs>
<filter id="filter0_d_2266_1621" x="973.552" y="0.15852" width="219.579" height="245.097" filterUnits="userSpaceOnUse" color-interpolation-filters="sRGB">
<feFlood flood-opacity="0" result="BackgroundImageFix"/>
<feColorMatrix in="SourceAlpha" type="matrix" values="0 0 0 0 0 0 0 0 0 0 0 0 0 0 0 0 0 0 127 0" result="hardAlpha"/>
<feOffset dy="3.50206"/>
<feGaussianBlur stdDeviation="5.64707"/>
<feComposite in2="hardAlpha" operator="out"/>
<feColorMatrix type="matrix" values="0 0 0 0 0.386625 0 0 0 0 0.458185 0 0 0 0 1 0 0 0 0.25 0"/>
<feBlend mode="normal" in2="BackgroundImageFix" result="effect1_dropShadow_2266_1621"/>
<feBlend mode="normal" in="SourceGraphic" in2="effect1_dropShadow_2266_1621" result="shape"/>
</filter>
<filter id="filter1_d_2266_1621" x="0.854289" y="548.024" width="166.174" height="184.772" filterUnits="userSpaceOnUse" color-interpolation-filters="sRGB">
<feFlood flood-opacity="0" result="BackgroundImageFix"/>
<feColorMatrix in="SourceAlpha" type="matrix" values="0 0 0 0 0 0 0 0 0 0 0 0 0 0 0 0 0 0 127 0" result="hardAlpha"/>
<feOffset dy="3.50206"/>
<feGaussianBlur stdDeviation="5.64707"/>
<feComposite in2="hardAlpha" operator="out"/>
<feColorMatrix type="matrix" values="0 0 0 0 0.386625 0 0 0 0 0.458185 0 0 0 0 1 0 0 0 0.25 0"/>
<feBlend mode="normal" in2="BackgroundImageFix" result="effect1_dropShadow_2266_1621"/>
<feBlend mode="normal" in="SourceGraphic" in2="effect1_dropShadow_2266_1621" result="shape"/>
</filter>
<linearGradient id="paint0_linear_2266_1621" x1="585.521" y1="201.327" x2="585.521" y2="612.72" gradientUnits="userSpaceOnUse">
<stop stop-color="white"/>
<stop offset="1" stop-color="#819EFF"/>
</linearGradient>
<linearGradient id="paint1_linear_2266_1621" x1="1083.34" y1="7.95061" x2="1083.34" y2="230.459" gradientUnits="userSpaceOnUse">
<stop stop-color="#F2F5FF"/>
<stop offset="1" stop-color="#90A9FF"/>
</linearGradient>
<linearGradient id="paint2_linear_2266_1621" x1="83.9409" y1="555.816" x2="83.9409" y2="717.999" gradientUnits="userSpaceOnUse">
<stop stop-color="#F2F5FF"/>
<stop offset="1" stop-color="#90A9FF"/>
</linearGradient>
</defs>
</svg>
