<svg width="1280" height="8640" viewBox="0 0 1280 8640" fill="none" xmlns="http://www.w3.org/2000/svg">
<g clip-path="url(#clip0_2174_77)">
<rect width="1280" height="8640" fill="url(#paint0_linear_2174_77)"/>
<g filter="url(#filter0_f_2174_77)">
<ellipse cx="1147.5" cy="2192" rx="340.5" ry="375" fill="url(#paint1_linear_2174_77)" fill-opacity="0.8"/>
</g>
<g filter="url(#filter1_f_2174_77)">
<ellipse cx="110.5" cy="5081" rx="340.5" ry="375" fill="url(#paint2_linear_2174_77)" fill-opacity="0.8"/>
</g>
<g filter="url(#filter2_f_2174_77)">
<ellipse cx="1265.5" cy="8151" rx="340.5" ry="375" fill="url(#paint3_linear_2174_77)" fill-opacity="0.8"/>
</g>
<g filter="url(#filter3_f_2174_77)">
<ellipse cx="1186.5" cy="3578" rx="340.5" ry="375" fill="url(#paint4_linear_2174_77)" fill-opacity="0.8"/>
</g>
<g filter="url(#filter4_f_2174_77)">
<ellipse cx="115.5" cy="1160" rx="340.5" ry="375" fill="url(#paint5_linear_2174_77)" fill-opacity="0.8"/>
</g>
<g filter="url(#filter5_f_2174_77)">
<ellipse cx="1180.5" cy="197" rx="340.5" ry="375" fill="url(#paint6_linear_2174_77)" fill-opacity="0.8"/>
</g>
<line x1="0.5" y1="-198.431" x2="0.499952" y2="8838.43" stroke="white"/>
<line x1="664.691" y1="-198.431" x2="664.691" y2="8838.43" stroke="white"/>
<line x1="111.199" y1="-198.431" x2="111.199" y2="8838.43" stroke="white"/>
<line x1="775.391" y1="-198.431" x2="775.391" y2="8838.43" stroke="white"/>
<line x1="221.898" y1="-198.431" x2="221.898" y2="8838.43" stroke="white"/>
<line x1="886.09" y1="-198.431" x2="886.09" y2="8838.43" stroke="white"/>
<line x1="332.598" y1="-198.431" x2="332.598" y2="8838.43" stroke="white"/>
<line x1="996.789" y1="-198.431" x2="996.789" y2="8838.43" stroke="white"/>
<line x1="553.996" y1="-198.431" x2="553.996" y2="8838.43" stroke="white"/>
<line x1="1218.12" y1="-198.431" x2="1218.12" y2="8838.43" stroke="white"/>
<line x1="664.691" y1="-198.431" x2="664.691" y2="8838.43" stroke="white"/>
<line x1="443.297" y1="-198.431" x2="443.297" y2="8838.43" stroke="white"/>
<line x1="1107.43" y1="-198.431" x2="1107.43" y2="8838.43" stroke="white"/>
<line y1="-0.5" x2="1320.75" y2="-0.5" transform="matrix(-1 0 0 1 1324.51 6153.73)" stroke="white"/>
<line y1="-0.5" x2="1321.17" y2="-0.5" transform="matrix(-1 0 0 1 1324.08 5095.73)" stroke="white"/>
<line y1="-0.5" x2="1321.17" y2="-0.5" transform="matrix(-1 0 0 1 1324.09 4904)" stroke="white"/>
<line y1="-0.5" x2="1321.6" y2="-0.5" transform="matrix(-1 0 0 1 1323.66 4037.74)" stroke="white"/>
<line y1="-0.5" x2="1321.6" y2="-0.5" transform="matrix(-1 0 0 1 1338.59 3881)" stroke="white"/>
<line y1="-0.5" x2="1321.6" y2="-0.5" transform="matrix(-1 0 0 1 1338.59 3695)" stroke="white"/>
<line y1="-0.5" x2="1321.6" y2="-0.5" transform="matrix(-1 0 0 1 1338.6 3486)" stroke="white"/>
<line y1="-0.5" x2="1321.6" y2="-0.5" transform="matrix(-1 0 0 1 1323.24 2979.74)" stroke="white"/>
<line y1="-0.5" x2="1321.17" y2="-0.5" transform="matrix(-1 0 0 1 1325.16 7047)" stroke="white"/>
<line y1="-0.5" x2="1321.17" y2="-0.5" transform="matrix(-1 0 0 1 1325.16 7191)" stroke="white"/>
<line y1="-0.5" x2="1321.17" y2="-0.5" transform="matrix(-1 0 0 1 1332.14 7349)" stroke="white"/>
<line y1="-0.5" x2="1321.17" y2="-0.5" transform="matrix(-1 0 0 1 1332.15 7503)" stroke="white"/>
<line y1="-0.5" x2="1321.17" y2="-0.5" transform="matrix(-1 0 0 1 1332.15 7657)" stroke="white"/>
<line y1="-0.5" x2="1321.6" y2="-0.5" transform="matrix(-1 0 0 1 1321.96 859.566)" stroke="white"/>
<line y1="-0.5" x2="1320.75" y2="-0.5" transform="matrix(-1 0 0 1 1324.51 6153.73)" stroke="white"/>
<line y1="-0.5" x2="1321.6" y2="-0.5" transform="matrix(-1 0 0 1 1326.21 8273.9)" stroke="white"/>
<line y1="-0.5" x2="1321.6" y2="-0.5" transform="matrix(-1 0 0 1 1326.21 8125)" stroke="white"/>
<line y1="-0.5" x2="1321.6" y2="-0.5" transform="matrix(-1 0 0 1 1326.21 7819)" stroke="white"/>
<line y1="-0.5" x2="1321.6" y2="-0.5" transform="matrix(-1 0 0 1 1326.22 8421)" stroke="white"/>
<line y1="-0.5" x2="1321.6" y2="-0.5" transform="matrix(-1 0 0 1 1326.23 8562)" stroke="white"/>
<line y1="-0.5" x2="1321.17" y2="-0.5" transform="matrix(-1 0 0 1 1322.39 1917.56)" stroke="white"/>
<circle cx="221" cy="360" r="9" fill="white"/>
<circle cx="1218" cy="105" r="9" fill="white"/>
<circle cx="1106.5" cy="231.5" r="4.5" fill="white"/>
<circle cx="111.5" cy="364.5" r="4.5" fill="white"/>
<circle cx="18.5" cy="103.5" r="4.5" fill="white"/>
<circle cx="1103" cy="479" r="9" fill="white"/>
<circle cx="661" cy="1001" r="9" fill="white"/>
<circle cx="1218" cy="873" r="9" fill="white"/>
<circle cx="332" cy="1001" r="9" fill="white"/>
<circle cx="111" cy="873" r="9" fill="white"/>
<g filter="url(#filter6_f_2174_77)">
<ellipse cx="1156.5" cy="5836" rx="340.5" ry="375" fill="url(#paint7_linear_2174_77)" fill-opacity="0.8"/>
</g>
<g filter="url(#filter7_f_2174_77)">
<ellipse cx="140.5" cy="7793" rx="340.5" ry="375" fill="url(#paint8_linear_2174_77)" fill-opacity="0.8"/>
</g>
</g>
<defs>
<filter id="filter0_f_2174_77" x="607" y="1617" width="1081" height="1150" filterUnits="userSpaceOnUse" color-interpolation-filters="sRGB">
<feFlood flood-opacity="0" result="BackgroundImageFix"/>
<feBlend mode="normal" in="SourceGraphic" in2="BackgroundImageFix" result="shape"/>
<feGaussianBlur stdDeviation="100" result="effect1_foregroundBlur_2174_77"/>
</filter>
<filter id="filter1_f_2174_77" x="-430" y="4506" width="1081" height="1150" filterUnits="userSpaceOnUse" color-interpolation-filters="sRGB">
<feFlood flood-opacity="0" result="BackgroundImageFix"/>
<feBlend mode="normal" in="SourceGraphic" in2="BackgroundImageFix" result="shape"/>
<feGaussianBlur stdDeviation="100" result="effect1_foregroundBlur_2174_77"/>
</filter>
<filter id="filter2_f_2174_77" x="725" y="7576" width="1081" height="1150" filterUnits="userSpaceOnUse" color-interpolation-filters="sRGB">
<feFlood flood-opacity="0" result="BackgroundImageFix"/>
<feBlend mode="normal" in="SourceGraphic" in2="BackgroundImageFix" result="shape"/>
<feGaussianBlur stdDeviation="100" result="effect1_foregroundBlur_2174_77"/>
</filter>
<filter id="filter3_f_2174_77" x="646" y="3003" width="1081" height="1150" filterUnits="userSpaceOnUse" color-interpolation-filters="sRGB">
<feFlood flood-opacity="0" result="BackgroundImageFix"/>
<feBlend mode="normal" in="SourceGraphic" in2="BackgroundImageFix" result="shape"/>
<feGaussianBlur stdDeviation="100" result="effect1_foregroundBlur_2174_77"/>
</filter>
<filter id="filter4_f_2174_77" x="-425" y="585" width="1081" height="1150" filterUnits="userSpaceOnUse" color-interpolation-filters="sRGB">
<feFlood flood-opacity="0" result="BackgroundImageFix"/>
<feBlend mode="normal" in="SourceGraphic" in2="BackgroundImageFix" result="shape"/>
<feGaussianBlur stdDeviation="100" result="effect1_foregroundBlur_2174_77"/>
</filter>
<filter id="filter5_f_2174_77" x="640" y="-378" width="1081" height="1150" filterUnits="userSpaceOnUse" color-interpolation-filters="sRGB">
<feFlood flood-opacity="0" result="BackgroundImageFix"/>
<feBlend mode="normal" in="SourceGraphic" in2="BackgroundImageFix" result="shape"/>
<feGaussianBlur stdDeviation="100" result="effect1_foregroundBlur_2174_77"/>
</filter>
<filter id="filter6_f_2174_77" x="616" y="5261" width="1081" height="1150" filterUnits="userSpaceOnUse" color-interpolation-filters="sRGB">
<feFlood flood-opacity="0" result="BackgroundImageFix"/>
<feBlend mode="normal" in="SourceGraphic" in2="BackgroundImageFix" result="shape"/>
<feGaussianBlur stdDeviation="100" result="effect1_foregroundBlur_2174_77"/>
</filter>
<filter id="filter7_f_2174_77" x="-400" y="7218" width="1081" height="1150" filterUnits="userSpaceOnUse" color-interpolation-filters="sRGB">
<feFlood flood-opacity="0" result="BackgroundImageFix"/>
<feBlend mode="normal" in="SourceGraphic" in2="BackgroundImageFix" result="shape"/>
<feGaussianBlur stdDeviation="100" result="effect1_foregroundBlur_2174_77"/>
</filter>
<linearGradient id="paint0_linear_2174_77" x1="640" y1="0" x2="640" y2="5889.87" gradientUnits="userSpaceOnUse">
<stop stop-color="#D8DDED"/>
<stop offset="1" stop-color="#E1E8FF"/>
</linearGradient>
<linearGradient id="paint1_linear_2174_77" x1="1238.71" y1="2192" x2="1559.13" y2="2496.84" gradientUnits="userSpaceOnUse">
<stop stop-color="#FFF0E1"/>
<stop offset="1" stop-color="#AEBDFF"/>
</linearGradient>
<linearGradient id="paint2_linear_2174_77" x1="201.705" y1="5081" x2="522.128" y2="5385.84" gradientUnits="userSpaceOnUse">
<stop stop-color="#BAC7FF"/>
<stop offset="1" stop-color="#AEBDFF"/>
</linearGradient>
<linearGradient id="paint3_linear_2174_77" x1="1356.71" y1="8151" x2="1677.13" y2="8455.84" gradientUnits="userSpaceOnUse">
<stop stop-color="#BAC7FF"/>
<stop offset="1" stop-color="#AEBDFF"/>
</linearGradient>
<linearGradient id="paint4_linear_2174_77" x1="1277.71" y1="3578" x2="1598.13" y2="3882.84" gradientUnits="userSpaceOnUse">
<stop stop-color="#BAC7FF"/>
<stop offset="1" stop-color="#AEBDFF"/>
</linearGradient>
<linearGradient id="paint5_linear_2174_77" x1="206.705" y1="1160" x2="527.128" y2="1464.84" gradientUnits="userSpaceOnUse">
<stop stop-color="#BAC7FF"/>
<stop offset="1" stop-color="#AEBDFF"/>
</linearGradient>
<linearGradient id="paint6_linear_2174_77" x1="1271.71" y1="197" x2="1592.13" y2="501.839" gradientUnits="userSpaceOnUse">
<stop stop-color="#BAC7FF"/>
<stop offset="1" stop-color="#AEBDFF"/>
</linearGradient>
<linearGradient id="paint7_linear_2174_77" x1="1247.71" y1="5836" x2="1568.13" y2="6140.84" gradientUnits="userSpaceOnUse">
<stop stop-color="#FFF0E1"/>
<stop offset="1" stop-color="#AEBDFF"/>
</linearGradient>
<linearGradient id="paint8_linear_2174_77" x1="231.705" y1="7793" x2="552.128" y2="8097.84" gradientUnits="userSpaceOnUse">
<stop stop-color="#FFF0E1"/>
<stop offset="1" stop-color="#AEBDFF"/>
</linearGradient>
<clipPath id="clip0_2174_77">
<rect width="1280" height="8640" fill="white"/>
</clipPath>
</defs>
</svg>
