<svg width="36" height="36" viewBox="0 0 36 36" fill="none" xmlns="http://www.w3.org/2000/svg">
<g filter="url(#filter0_d_748_935)">
<path d="M24.8761 0.713867H10.496C6.99223 0.713867 4.15186 3.55424 4.15186 7.05801V21.4381C4.15186 24.9418 6.99223 27.7822 10.496 27.7822H24.8761C28.3798 27.7822 31.2202 24.9418 31.2202 21.4381V7.05801C31.2202 3.55424 28.3798 0.713867 24.8761 0.713867Z" fill="url(#paint0_radial_748_935)"/>
<path d="M24.8761 0.713867H10.496C6.99223 0.713867 4.15186 3.55424 4.15186 7.05801V21.4381C4.15186 24.9418 6.99223 27.7822 10.496 27.7822H24.8761C28.3798 27.7822 31.2202 24.9418 31.2202 21.4381V7.05801C31.2202 3.55424 28.3798 0.713867 24.8761 0.713867Z" fill="url(#paint1_radial_748_935)"/>
<path d="M17.6873 3.6748C14.8157 3.6748 14.4553 3.68739 13.3275 3.73867C12.2019 3.79027 11.4335 3.96843 10.7612 4.22992C10.0657 4.49997 9.47578 4.86127 8.8881 5.44916C8.29989 6.03694 7.93859 6.62684 7.66769 7.32205C7.40547 7.99453 7.22709 8.76323 7.17645 9.88837C7.12601 11.0163 7.11279 11.3768 7.11279 14.2485C7.11279 17.1202 7.12548 17.4795 7.17666 18.6072C7.22847 19.7329 7.40663 20.5013 7.66791 21.1735C7.93817 21.8691 8.29947 22.459 8.88736 23.0467C9.47493 23.6349 10.0648 23.997 10.7598 24.2671C11.4326 24.5285 12.2011 24.7067 13.3266 24.7583C14.4544 24.8096 14.8146 24.8222 17.6861 24.8222C20.5579 24.8222 20.9172 24.8096 22.045 24.7583C23.1707 24.7067 23.9399 24.5285 24.6127 24.2671C25.3079 23.997 25.897 23.6349 26.4844 23.0467C27.0726 22.459 27.4338 21.8691 27.7048 21.1739C27.9647 20.5013 28.1432 19.7327 28.1961 18.6074C28.2467 17.4797 28.2599 17.1202 28.2599 14.2485C28.2599 11.3768 28.2467 11.0165 28.1961 9.88858C28.1432 8.76292 27.9647 7.99464 27.7048 7.32237C27.4338 6.62684 27.0726 6.03694 26.4844 5.44916C25.8963 4.86105 25.3081 4.49976 24.6121 4.23002C23.938 3.96843 23.1692 3.79016 22.0435 3.73867C20.9156 3.68739 20.5566 3.6748 17.684 3.6748H17.6873ZM16.7388 5.58027C17.0203 5.57985 17.3345 5.58027 17.6873 5.58027C20.5106 5.58027 20.8451 5.59042 21.96 5.64107C22.9909 5.68823 23.5505 5.86047 23.9232 6.00522C24.4167 6.19681 24.7684 6.42594 25.1383 6.79612C25.5084 7.1662 25.7374 7.51862 25.9295 8.01209C26.0743 8.38428 26.2467 8.94383 26.2937 9.97475C26.3443 11.0894 26.3553 11.4242 26.3553 14.2461C26.3553 17.0679 26.3443 17.4028 26.2937 18.5174C26.2465 19.5483 26.0743 20.1078 25.9295 20.4801C25.7379 20.9736 25.5084 21.325 25.1383 21.6948C24.7682 22.0649 24.4169 22.2939 23.9232 22.4856C23.5509 22.631 22.9909 22.8028 21.96 22.85C20.8453 22.9006 20.5106 22.9116 17.6873 22.9116C14.864 22.9116 14.5293 22.9006 13.4147 22.85C12.3838 22.8024 11.8243 22.6302 11.4512 22.4854C10.9579 22.2937 10.6054 22.0647 10.2353 21.6946C9.8652 21.3245 9.63618 20.973 9.44405 20.4793C9.2993 20.107 9.12685 19.5474 9.0799 18.5165C9.02925 17.4018 9.0191 17.0671 9.0191 14.2434C9.0191 11.4197 9.02925 11.0868 9.0799 9.97211C9.12706 8.94119 9.2993 8.38163 9.44405 8.00891C9.63575 7.51544 9.8652 7.16303 10.2354 6.79295C10.6056 6.42288 10.9579 6.19375 11.4513 6.00173C11.8241 5.85634 12.3838 5.68452 13.4147 5.63715C14.3902 5.59306 14.7682 5.57985 16.7388 5.57763V5.58027ZM23.3315 7.33591C22.631 7.33591 22.0627 7.90371 22.0627 8.60431C22.0627 9.30481 22.631 9.87314 23.3315 9.87314C24.032 9.87314 24.6003 9.30481 24.6003 8.60431C24.6003 7.90381 24.032 7.33548 23.3315 7.33548V7.33591ZM17.6873 8.81843C14.6887 8.81843 12.2574 11.2497 12.2574 14.2485C12.2574 17.2473 14.6887 19.6774 17.6873 19.6774C20.6861 19.6774 23.1165 17.2473 23.1165 14.2485C23.1165 11.2498 20.6859 8.81843 17.6871 8.81843H17.6873ZM17.6873 10.7239C19.6338 10.7239 21.2119 12.3018 21.2119 14.2485C21.2119 16.195 19.6338 17.7731 17.6873 17.7731C15.7408 17.7731 14.1628 16.195 14.1628 14.2485C14.1628 12.3018 15.7407 10.7239 17.6873 10.7239Z" fill="white"/>
</g>
<defs>
<filter id="filter0_d_748_935" x="0.141729" y="0.713867" width="35.0886" height="35.0886" filterUnits="userSpaceOnUse" color-interpolation-filters="sRGB">
<feFlood flood-opacity="0" result="BackgroundImageFix"/>
<feColorMatrix in="SourceAlpha" type="matrix" values="0 0 0 0 0 0 0 0 0 0 0 0 0 0 0 0 0 0 127 0" result="hardAlpha"/>
<feOffset dy="4.01013"/>
<feGaussianBlur stdDeviation="2.00506"/>
<feComposite in2="hardAlpha" operator="out"/>
<feColorMatrix type="matrix" values="0 0 0 0 0 0 0 0 0 0 0 0 0 0 0 0 0 0 0.25 0"/>
<feBlend mode="normal" in2="BackgroundImageFix" result="effect1_dropShadow_748_935"/>
<feBlend mode="normal" in="SourceGraphic" in2="effect1_dropShadow_748_935" result="shape"/>
</filter>
<radialGradient id="paint0_radial_748_935" cx="0" cy="0" r="1" gradientUnits="userSpaceOnUse" gradientTransform="translate(11.3419 29.867) rotate(-90) scale(26.8267 24.951)">
<stop stop-color="#FFDD55"/>
<stop offset="0.1" stop-color="#FFDD55"/>
<stop offset="0.5" stop-color="#FF543E"/>
<stop offset="1" stop-color="#C837AB"/>
</radialGradient>
<radialGradient id="paint1_radial_748_935" cx="0" cy="0" r="1" gradientUnits="userSpaceOnUse" gradientTransform="translate(-0.382199 2.66374) rotate(78.681) scale(11.9917 49.4302)">
<stop stop-color="#3771C8"/>
<stop offset="0.128" stop-color="#3771C8"/>
<stop offset="1" stop-color="#6600FF" stop-opacity="0"/>
</radialGradient>
</defs>
</svg>
