<svg width="35" height="35" viewBox="0 0 35 35" fill="none" xmlns="http://www.w3.org/2000/svg">
<g filter="url(#filter0_d_748_936)">
<path d="M24.2145 0.713867H10.367C6.99298 0.713867 4.25781 3.44904 4.25781 6.82304V20.6705C4.25781 24.0445 6.99298 26.7797 10.367 26.7797H24.2145C27.5885 26.7797 30.3236 24.0445 30.3236 20.6705V6.82304C30.3236 3.44904 27.5885 0.713867 24.2145 0.713867Z" fill="white"/>
<path d="M24.2145 0.713867H10.367C6.99298 0.713867 4.25781 3.44904 4.25781 6.82304V20.6705C4.25781 24.0445 6.99298 26.7797 10.367 26.7797H24.2145C27.5885 26.7797 30.3236 24.0445 30.3236 20.6705V6.82304C30.3236 3.44904 27.5885 0.713867 24.2145 0.713867Z" fill="#0A66C2"/>
<path d="M23.0654 22.8785H26.0457C26.1537 22.8785 26.2573 22.8356 26.3336 22.7592C26.41 22.6829 26.4529 22.5793 26.453 22.4713L26.4545 16.1746C26.4545 12.8834 25.7453 10.3537 21.8993 10.3537C20.4373 10.2994 19.0585 11.053 18.3145 12.3115C18.3109 12.3176 18.3053 12.3224 18.2987 12.3251C18.2922 12.3277 18.2849 12.3282 18.278 12.3263C18.2711 12.3245 18.2651 12.3204 18.2607 12.3148C18.2564 12.3091 18.254 12.3022 18.2539 12.2951V11.0648C18.2539 10.9568 18.211 10.8532 18.1346 10.7769C18.0583 10.7005 17.9547 10.6576 17.8467 10.6576H15.0184C14.9104 10.6576 14.8068 10.7005 14.7304 10.7769C14.654 10.8532 14.6111 10.9568 14.6111 11.0648V22.4707C14.6111 22.5787 14.654 22.6823 14.7304 22.7587C14.8068 22.835 14.9104 22.878 15.0184 22.878H17.9985C18.1065 22.878 18.2101 22.835 18.2865 22.7587C18.3628 22.6823 18.4057 22.5787 18.4057 22.4707V16.8326C18.4057 15.2384 18.7081 13.6945 20.6846 13.6945C22.6329 13.6945 22.6581 15.5187 22.6581 16.9359V22.4712C22.6581 22.5792 22.701 22.6828 22.7774 22.7592C22.8538 22.8356 22.9574 22.8785 23.0654 22.8785ZM8.12695 6.78516C8.12695 7.99315 9.12143 8.98711 10.3295 8.98711C11.5373 8.98701 12.5312 7.99244 12.5312 6.78465C12.531 5.57687 11.537 4.58301 10.3291 4.58301C9.12092 4.58301 8.12695 5.57717 8.12695 6.78516ZM8.83552 22.8785H11.8195C11.9276 22.8785 12.0312 22.8356 12.1075 22.7592C12.1839 22.6828 12.2268 22.5792 12.2268 22.4712V11.0648C12.2268 10.9568 12.1839 10.8532 12.1075 10.7769C12.0312 10.7005 11.9276 10.6576 11.8195 10.6576H8.83552C8.7275 10.6576 8.62391 10.7005 8.54753 10.7769C8.47115 10.8532 8.42824 10.9568 8.42824 11.0648V22.4712C8.42824 22.5792 8.47115 22.6828 8.54753 22.7592C8.62391 22.8356 8.7275 22.8785 8.83552 22.8785Z" fill="white"/>
</g>
<defs>
<filter id="filter0_d_748_936" x="0.247686" y="0.713867" width="34.0862" height="34.0857" filterUnits="userSpaceOnUse" color-interpolation-filters="sRGB">
<feFlood flood-opacity="0" result="BackgroundImageFix"/>
<feColorMatrix in="SourceAlpha" type="matrix" values="0 0 0 0 0 0 0 0 0 0 0 0 0 0 0 0 0 0 127 0" result="hardAlpha"/>
<feOffset dy="4.01013"/>
<feGaussianBlur stdDeviation="2.00506"/>
<feComposite in2="hardAlpha" operator="out"/>
<feColorMatrix type="matrix" values="0 0 0 0 0 0 0 0 0 0 0 0 0 0 0 0 0 0 0.25 0"/>
<feBlend mode="normal" in2="BackgroundImageFix" result="effect1_dropShadow_748_936"/>
<feBlend mode="normal" in="SourceGraphic" in2="effect1_dropShadow_748_936" result="shape"/>
</filter>
</defs>
</svg>
