<svg width="51" height="51" viewBox="0 0 51 51" fill="none" xmlns="http://www.w3.org/2000/svg">
<g filter="url(#filter0_d_748_941)">
<path d="M12.5764 21.3383C12.5758 23.6069 13.1731 25.8219 14.309 27.7743L12.4678 34.445L19.3477 32.655C21.2506 33.6829 23.3827 34.2215 25.5493 34.2216H25.555C32.7073 34.2216 38.5295 28.4467 38.5326 21.3485C38.534 17.9089 37.1852 14.6746 34.7348 12.2412C32.2847 9.80808 29.0263 8.46739 25.5544 8.46582C18.4012 8.46582 12.5795 14.2405 12.5765 21.3383" fill="url(#paint0_linear_748_941)"/>
<path d="M12.1129 21.3342C12.1121 23.6844 12.7309 25.9787 13.9073 28.0009L12 34.9107L19.1266 33.0566C21.0902 34.1189 23.3011 34.679 25.5507 34.6799H25.5565C32.9655 34.6799 38.9968 28.6972 39 21.3449C39.0013 17.7817 37.604 14.4311 35.066 11.9106C32.5277 9.3904 29.1527 8.00147 25.5565 8C18.1463 8 12.1158 13.9819 12.1129 21.3342ZM16.357 27.6527L16.0909 27.2335C14.9723 25.4687 14.3819 23.4292 14.3827 21.3351C14.3851 15.224 19.3974 10.2521 25.5608 10.2521C28.5455 10.2533 31.3506 11.4079 33.4604 13.5026C35.5701 15.5975 36.7309 18.3822 36.7302 21.3441C36.7275 27.4552 31.7151 32.4277 25.5565 32.4277H25.5521C23.5468 32.4266 21.5801 31.8923 19.865 30.8825L19.4569 30.6423L15.2278 31.7425L16.357 27.6527Z" fill="url(#paint1_linear_748_941)"/>
<path d="M22.1966 15.7594C21.9449 15.2045 21.6801 15.1933 21.4408 15.1835C21.2448 15.1752 21.0208 15.1758 20.797 15.1758C20.573 15.1758 20.209 15.2594 19.9014 15.5927C19.5934 15.9264 18.7256 16.7326 18.7256 18.3724C18.7256 20.0121 19.9293 21.597 20.0971 21.8196C20.2651 22.0417 22.4209 25.5145 25.8351 26.8505C28.6727 27.9607 29.2501 27.7399 29.8659 27.6842C30.4819 27.6288 31.8534 26.8782 32.1332 26.0999C32.4132 25.3217 32.4132 24.6547 32.3293 24.5153C32.2453 24.3764 32.0213 24.293 31.6854 24.1264C31.3495 23.9598 29.6979 23.1534 29.3901 23.0421C29.0821 22.931 28.8582 22.8755 28.6342 23.2092C28.4101 23.5424 27.7669 24.293 27.5708 24.5153C27.375 24.7381 27.1789 24.7658 26.8431 24.5991C26.507 24.4319 25.4252 24.0803 24.1417 22.945C23.1431 22.0615 22.469 20.9705 22.273 20.6368C22.0771 20.3036 22.252 20.123 22.4205 19.9569C22.5714 19.8075 22.7565 19.5677 22.9246 19.3731C23.0921 19.1785 23.148 19.0396 23.26 18.8173C23.3721 18.5949 23.316 18.4002 23.2322 18.2335C23.148 18.0668 22.4952 16.4184 22.1966 15.7594Z" fill="white"/>
</g>
<defs>
<filter id="filter0_d_748_941" x="0.1" y="0.1" width="50.8" height="50.8" filterUnits="userSpaceOnUse" color-interpolation-filters="sRGB">
<feFlood flood-opacity="0" result="BackgroundImageFix"/>
<feColorMatrix in="SourceAlpha" type="matrix" values="0 0 0 0 0 0 0 0 0 0 0 0 0 0 0 0 0 0 127 0" result="hardAlpha"/>
<feOffset dy="4"/>
<feGaussianBlur stdDeviation="5.95"/>
<feComposite in2="hardAlpha" operator="out"/>
<feColorMatrix type="matrix" values="0 0 0 0 0 0 0 0 0 0 0 0 0 0 0 0 0 0 0.5 0"/>
<feBlend mode="normal" in2="BackgroundImageFix" result="effect1_dropShadow_748_941"/>
<feBlend mode="normal" in="SourceGraphic" in2="effect1_dropShadow_748_941" result="shape"/>
</filter>
<linearGradient id="paint0_linear_748_941" x1="1315.71" y1="2606.38" x2="1315.71" y2="8.46582" gradientUnits="userSpaceOnUse">
<stop stop-color="#1FAF38"/>
<stop offset="1" stop-color="#60D669"/>
</linearGradient>
<linearGradient id="paint1_linear_748_941" x1="1362" y1="2699.07" x2="1362" y2="8" gradientUnits="userSpaceOnUse">
<stop stop-color="#F9F9F9"/>
<stop offset="1" stop-color="white"/>
</linearGradient>
</defs>
</svg>
