<svg width="35" height="35" viewBox="0 0 35 35" fill="none" xmlns="http://www.w3.org/2000/svg">
<g filter="url(#filter0_d_748_940)">
<path d="M24.3185 0.713867H10.471C7.09699 0.713867 4.36182 3.44904 4.36182 6.82304V20.6705C4.36182 24.0445 7.09699 26.7797 10.471 26.7797H24.3185C27.6925 26.7797 30.4276 24.0445 30.4276 20.6705V6.82304C30.4276 3.44904 27.6925 0.713867 24.3185 0.713867Z" fill="#242938"/>
<path d="M8.6013 21.3858H11.841V13.5179L7.21289 10.0469V19.9974C7.21289 20.7656 7.83542 21.3858 8.6013 21.3858Z" fill="#4285F4"/>
<path d="M22.9487 21.3858H26.1885C26.9568 21.3858 27.5769 20.7634 27.5769 19.9974V10.0469L22.9487 13.5179" fill="#34A853"/>
<path d="M22.9487 7.50281V13.5194L27.5769 10.0484V8.19692C27.5769 6.47993 25.6169 5.50104 24.2447 6.53084" fill="#FBBC04"/>
<path d="M11.8408 13.5186V7.50205L17.3946 11.6674L22.9483 7.50195V13.5186L17.3946 17.684" fill="#EA4335"/>
<path d="M7.21289 8.19702V10.0482L11.841 13.5193V7.50281L10.5451 6.53084C9.17058 5.50104 7.21289 6.47993 7.21289 8.19702Z" fill="#C5221F"/>
</g>
<defs>
<filter id="filter0_d_748_940" x="0.35169" y="0.713867" width="34.0862" height="34.0857" filterUnits="userSpaceOnUse" color-interpolation-filters="sRGB">
<feFlood flood-opacity="0" result="BackgroundImageFix"/>
<feColorMatrix in="SourceAlpha" type="matrix" values="0 0 0 0 0 0 0 0 0 0 0 0 0 0 0 0 0 0 127 0" result="hardAlpha"/>
<feOffset dy="4.01013"/>
<feGaussianBlur stdDeviation="2.00506"/>
<feComposite in2="hardAlpha" operator="out"/>
<feColorMatrix type="matrix" values="0 0 0 0 0 0 0 0 0 0 0 0 0 0 0 0 0 0 0.25 0"/>
<feBlend mode="normal" in2="BackgroundImageFix" result="effect1_dropShadow_748_940"/>
<feBlend mode="normal" in="SourceGraphic" in2="effect1_dropShadow_748_940" result="shape"/>
</filter>
</defs>
</svg>
