<svg width="752" height="713" viewBox="0 0 752 713" fill="none" xmlns="http://www.w3.org/2000/svg">
<g filter="url(#filter0_d_2160_151)">
<path d="M221.88 130.432C285.203 177.674 348.526 224.916 411.849 272.158C388.553 288.025 347.475 320.821 317.978 376.713C272.477 462.954 285.281 545.957 290.472 572.332C213.68 531.223 136.848 490.078 60.0556 448.968C82.18 438.77 151.556 403.424 194.672 321.275C239.983 234.927 226.554 153.557 221.88 130.432Z" fill="url(#paint0_linear_2160_151)"/>
<path d="M316.565 201.695C348.041 225.177 379.516 248.659 410.991 272.14C387.561 288.179 346.842 320.949 317.536 376.479C272.532 461.776 284.469 543.904 289.783 571.396C251.695 551.006 213.597 530.608 175.5 510.21C137.387 489.803 99.2753 469.396 61.1724 448.999C84.2697 438.253 152.497 402.706 195.115 321.507C239.707 236.528 227.504 156.368 222.621 131.609C253.936 154.971 285.251 178.333 316.565 201.695Z" stroke="white"/>
</g>
<g filter="url(#filter1_d_2160_151)">
<path d="M684.231 438.197L462.851 522.846C461.883 494.685 456.209 442.424 424.778 387.602C376.299 302.989 299.331 269.393 274.248 259.678C350.067 216.808 425.922 173.899 501.741 131.029C498.527 155.155 491.227 232.715 537.544 313.079C586.245 397.572 662.154 429.738 684.231 438.197Z" fill="url(#paint1_linear_2160_151)"/>
<path d="M501.117 131.955C497.843 157.198 491.329 233.894 537.111 313.328C585.041 396.485 659.278 429.041 682.84 438.194L463.323 522.129C462.283 493.764 456.44 441.822 425.212 387.353C377.263 303.667 301.499 269.805 275.408 259.596C313.013 238.333 350.627 217.061 388.24 195.788C425.869 174.508 463.497 153.227 501.117 131.955Z" stroke="white"/>
</g>
<g filter="url(#filter2_d_2160_151)">
<path d="M187.219 677.028C201.951 599.42 216.681 521.775 231.413 444.167C255.88 458.143 303.33 480.701 366.534 482.751C464.008 485.891 532.986 438.02 554.432 421.799C551.111 508.843 547.828 595.923 544.507 682.966C525.662 667.535 463.475 620.632 370.744 617.867C273.277 614.951 206.021 662.693 187.256 677.027L187.219 677.028Z" fill="url(#paint2_linear_2160_151)"/>
<path d="M553.892 422.829C552.245 466.001 550.607 509.183 548.969 552.364C547.331 595.562 545.693 638.759 544.045 681.948C524.28 665.881 462.416 620.101 370.758 617.367C274.767 614.496 208.033 660.674 187.946 675.877C195.234 637.488 202.52 599.089 209.807 560.691C217.129 522.106 224.45 483.52 231.773 444.944C256.453 458.967 303.722 481.214 366.518 483.251C462.925 486.357 531.498 439.648 553.892 422.829Z" stroke="white"/>
</g>
<g filter="url(#filter3_d_2160_151)">
<path d="M367.125 303.45C449.595 300.835 514.331 231.859 511.716 149.388C509.101 66.9176 440.125 2.18174 357.655 4.79678C275.184 7.41183 210.448 76.3875 213.063 158.858C215.678 241.329 284.654 306.065 367.125 303.45Z" fill="url(#paint3_linear_2160_151)"/>
<path d="M357.67 5.29654C439.865 2.69025 508.61 67.2094 511.216 149.404C513.822 231.599 449.303 300.343 367.108 302.95C284.914 305.556 216.169 241.037 213.563 158.842C210.957 76.6476 275.476 7.90292 357.67 5.29654Z" stroke="white"/>
</g>
<g filter="url(#filter4_d_2160_151)">
<path d="M159.217 702.172C241.688 699.557 306.424 630.582 303.809 548.111C301.194 465.64 232.218 400.904 149.747 403.519C67.2766 406.134 2.54081 475.11 5.15585 557.581C7.77089 640.052 76.7465 704.787 159.217 702.172Z" fill="url(#paint4_linear_2160_151)"/>
<path d="M149.763 404.019C231.958 401.413 300.702 465.932 303.309 548.127C305.915 630.321 241.396 699.066 159.201 701.672C77.0066 704.279 8.26188 639.76 5.65559 557.565C3.04934 475.37 67.5684 406.626 149.763 404.019Z" stroke="white"/>
</g>
<g filter="url(#filter5_d_2160_151)">
<path d="M602.671 701.51C685.142 698.895 749.878 629.92 747.263 547.449C744.648 464.978 675.672 400.242 593.201 402.857C510.731 405.472 445.995 474.448 448.61 556.919C451.225 639.39 520.201 704.125 602.671 701.51Z" fill="url(#paint5_linear_2160_151)"/>
<path d="M593.217 403.357C675.412 400.751 744.156 465.27 746.763 547.465C749.369 629.659 684.85 698.404 602.655 701.01C520.461 703.616 451.716 639.097 449.11 556.903C446.504 474.708 511.023 405.963 593.217 403.357Z" stroke="white"/>
</g>
<path d="M369.578 396.697L344.397 444.004H323.004L357.565 379.004H379.004L369.578 396.697Z" fill="url(#paint6_linear_2160_151)"/>
<path d="M367.577 396.697L393.243 444.004H415.004L379.835 379.004H358.004L367.579 396.697H367.577Z" fill="url(#paint7_linear_2160_151)"/>
<defs>
<filter id="filter0_d_2160_151" x="56.0557" y="130.432" width="359.794" height="449.9" filterUnits="userSpaceOnUse" color-interpolation-filters="sRGB">
<feFlood flood-opacity="0" result="BackgroundImageFix"/>
<feColorMatrix in="SourceAlpha" type="matrix" values="0 0 0 0 0 0 0 0 0 0 0 0 0 0 0 0 0 0 127 0" result="hardAlpha"/>
<feOffset dy="4"/>
<feGaussianBlur stdDeviation="2"/>
<feComposite in2="hardAlpha" operator="out"/>
<feColorMatrix type="matrix" values="0 0 0 0 0 0 0 0 0 0 0 0 0 0 0 0 0 0 0.25 0"/>
<feBlend mode="normal" in2="BackgroundImageFix" result="effect1_dropShadow_2160_151"/>
<feBlend mode="normal" in="SourceGraphic" in2="effect1_dropShadow_2160_151" result="shape"/>
</filter>
<filter id="filter1_d_2160_151" x="270.248" y="131.029" width="417.983" height="399.817" filterUnits="userSpaceOnUse" color-interpolation-filters="sRGB">
<feFlood flood-opacity="0" result="BackgroundImageFix"/>
<feColorMatrix in="SourceAlpha" type="matrix" values="0 0 0 0 0 0 0 0 0 0 0 0 0 0 0 0 0 0 127 0" result="hardAlpha"/>
<feOffset dy="4"/>
<feGaussianBlur stdDeviation="2"/>
<feComposite in2="hardAlpha" operator="out"/>
<feColorMatrix type="matrix" values="0 0 0 0 0 0 0 0 0 0 0 0 0 0 0 0 0 0 0.25 0"/>
<feBlend mode="normal" in2="BackgroundImageFix" result="effect1_dropShadow_2160_151"/>
<feBlend mode="normal" in="SourceGraphic" in2="effect1_dropShadow_2160_151" result="shape"/>
</filter>
<filter id="filter2_d_2160_151" x="183.219" y="421.799" width="375.213" height="269.167" filterUnits="userSpaceOnUse" color-interpolation-filters="sRGB">
<feFlood flood-opacity="0" result="BackgroundImageFix"/>
<feColorMatrix in="SourceAlpha" type="matrix" values="0 0 0 0 0 0 0 0 0 0 0 0 0 0 0 0 0 0 127 0" result="hardAlpha"/>
<feOffset dy="4"/>
<feGaussianBlur stdDeviation="2"/>
<feComposite in2="hardAlpha" operator="out"/>
<feColorMatrix type="matrix" values="0 0 0 0 0 0 0 0 0 0 0 0 0 0 0 0 0 0 0.25 0"/>
<feBlend mode="normal" in2="BackgroundImageFix" result="effect1_dropShadow_2160_151"/>
<feBlend mode="normal" in="SourceGraphic" in2="effect1_dropShadow_2160_151" result="shape"/>
</filter>
<filter id="filter3_d_2160_151" x="208.986" y="4.72021" width="306.806" height="308.806" filterUnits="userSpaceOnUse" color-interpolation-filters="sRGB">
<feFlood flood-opacity="0" result="BackgroundImageFix"/>
<feColorMatrix in="SourceAlpha" type="matrix" values="0 0 0 0 0 0 0 0 0 0 0 0 0 0 0 0 0 0 127 0" result="hardAlpha"/>
<feOffset dy="6"/>
<feGaussianBlur stdDeviation="2"/>
<feComposite in2="hardAlpha" operator="out"/>
<feColorMatrix type="matrix" values="0 0 0 0 0 0 0 0 0 0 0 0 0 0 0 0 0 0 0.25 0"/>
<feBlend mode="normal" in2="BackgroundImageFix" result="effect1_dropShadow_2160_151"/>
<feBlend mode="normal" in="SourceGraphic" in2="effect1_dropShadow_2160_151" result="shape"/>
</filter>
<filter id="filter4_d_2160_151" x="1.0791" y="403.443" width="306.806" height="308.806" filterUnits="userSpaceOnUse" color-interpolation-filters="sRGB">
<feFlood flood-opacity="0" result="BackgroundImageFix"/>
<feColorMatrix in="SourceAlpha" type="matrix" values="0 0 0 0 0 0 0 0 0 0 0 0 0 0 0 0 0 0 127 0" result="hardAlpha"/>
<feOffset dy="6"/>
<feGaussianBlur stdDeviation="2"/>
<feComposite in2="hardAlpha" operator="out"/>
<feColorMatrix type="matrix" values="0 0 0 0 0 0 0 0 0 0 0 0 0 0 0 0 0 0 0.25 0"/>
<feBlend mode="normal" in2="BackgroundImageFix" result="effect1_dropShadow_2160_151"/>
<feBlend mode="normal" in="SourceGraphic" in2="effect1_dropShadow_2160_151" result="shape"/>
</filter>
<filter id="filter5_d_2160_151" x="444.533" y="402.781" width="306.807" height="308.806" filterUnits="userSpaceOnUse" color-interpolation-filters="sRGB">
<feFlood flood-opacity="0" result="BackgroundImageFix"/>
<feColorMatrix in="SourceAlpha" type="matrix" values="0 0 0 0 0 0 0 0 0 0 0 0 0 0 0 0 0 0 127 0" result="hardAlpha"/>
<feOffset dy="6"/>
<feGaussianBlur stdDeviation="2"/>
<feComposite in2="hardAlpha" operator="out"/>
<feColorMatrix type="matrix" values="0 0 0 0 0 0 0 0 0 0 0 0 0 0 0 0 0 0 0.25 0"/>
<feBlend mode="normal" in2="BackgroundImageFix" result="effect1_dropShadow_2160_151"/>
<feBlend mode="normal" in="SourceGraphic" in2="effect1_dropShadow_2160_151" result="shape"/>
</filter>
<linearGradient id="paint0_linear_2160_151" x1="353.503" y1="309.495" x2="57.1614" y2="357.693" gradientUnits="userSpaceOnUse">
<stop stop-color="#FFCD6E"/>
<stop offset="1" stop-color="#FFE8BD"/>
</linearGradient>
<linearGradient id="paint1_linear_2160_151" x1="276.588" y1="333.46" x2="680.504" y2="320.652" gradientUnits="userSpaceOnUse">
<stop stop-color="#DCE5FF"/>
<stop offset="1" stop-color="#BFCFFF"/>
</linearGradient>
<linearGradient id="paint2_linear_2160_151" x1="164.888" y1="564.577" x2="558.563" y2="552.094" gradientUnits="userSpaceOnUse">
<stop stop-color="#BAA9FF"/>
<stop offset="1" stop-color="#CEC2FF"/>
</linearGradient>
<linearGradient id="paint3_linear_2160_151" x1="213.063" y1="158.858" x2="511.716" y2="149.388" gradientUnits="userSpaceOnUse">
<stop stop-color="#DCE5FF"/>
<stop offset="1" stop-color="#BFCFFF"/>
</linearGradient>
<linearGradient id="paint4_linear_2160_151" x1="303.809" y1="548.111" x2="5.15585" y2="557.581" gradientUnits="userSpaceOnUse">
<stop stop-color="#FFCD6E"/>
<stop offset="1" stop-color="#FFE8BD"/>
</linearGradient>
<linearGradient id="paint5_linear_2160_151" x1="433.677" y1="557.392" x2="747.263" y2="547.449" gradientUnits="userSpaceOnUse">
<stop stop-color="#BAA9FF"/>
<stop offset="1" stop-color="#CEC2FF"/>
</linearGradient>
<linearGradient id="paint6_linear_2160_151" x1="351.004" y1="379.006" x2="351.004" y2="444.006" gradientUnits="userSpaceOnUse">
<stop stop-color="#C7D0EA"/>
<stop offset="1" stop-color="#7F6DC0"/>
</linearGradient>
<linearGradient id="paint7_linear_2160_151" x1="358.033" y1="411.451" x2="448.729" y2="411.629" gradientUnits="userSpaceOnUse">
<stop stop-color="#47099F"/>
<stop offset="1" stop-color="#F8AD1D"/>
</linearGradient>
</defs>
</svg>
