<svg width="101" height="106" viewBox="0 0 101 106" fill="none" xmlns="http://www.w3.org/2000/svg">
<g filter="url(#filter0_d_1_194)">
<mask id="path-1-outside-1_1_194" maskUnits="userSpaceOnUse" x="4" y="0" width="93" height="98" fill="black">
<rect fill="white" x="4" width="93" height="98"/>
<path d="M39.4219 96.4V0.999997H61.8219V96.4H39.4219ZM5.42188 59.6V38H95.6219V59.6H5.42188Z"/>
</mask>
<path d="M39.4219 96.4V0.999997H61.8219V96.4H39.4219ZM5.42188 59.6V38H95.6219V59.6H5.42188Z" fill="white" fill-opacity="0.5" shape-rendering="crispEdges"/>
<path d="M39.4219 96.4H38.4219V97.4H39.4219V96.4ZM39.4219 1V0H38.4219V1H39.4219ZM61.8219 1H62.8219V0H61.8219V1ZM61.8219 96.4V97.4H62.8219V96.4H61.8219ZM5.42188 59.6H4.42188V60.6H5.42188V59.6ZM5.42188 38V37H4.42188V38H5.42188ZM95.6219 38H96.6219V37H95.6219V38ZM95.6219 59.6V60.6H96.6219V59.6H95.6219ZM39.4219 96.4H40.4219V1H39.4219H38.4219V96.4H39.4219ZM39.4219 1V2H61.8219V1V0H39.4219V1ZM61.8219 1H60.8219V96.4H61.8219H62.8219V1H61.8219ZM61.8219 96.4V95.4H39.4219V96.4V97.4H61.8219V96.4ZM5.42188 59.6H6.42188V38H5.42188H4.42188V59.6H5.42188ZM5.42188 38V39H95.6219V38V37H5.42188V38ZM95.6219 38H94.6219V59.6H95.6219H96.6219V38H95.6219ZM95.6219 59.6V58.6H5.42188V59.6V60.6H95.6219V59.6Z" fill="white" mask="url(#path-1-outside-1_1_194)"/>
</g>
<defs>
<filter id="filter0_d_1_194" x="0.421875" y="0" width="100.2" height="105.4" filterUnits="userSpaceOnUse" color-interpolation-filters="sRGB">
<feFlood flood-opacity="0" result="BackgroundImageFix"/>
<feColorMatrix in="SourceAlpha" type="matrix" values="0 0 0 0 0 0 0 0 0 0 0 0 0 0 0 0 0 0 127 0" result="hardAlpha"/>
<feOffset dy="4"/>
<feGaussianBlur stdDeviation="2"/>
<feComposite in2="hardAlpha" operator="out"/>
<feColorMatrix type="matrix" values="0 0 0 0 0 0 0 0 0 0 0 0 0 0 0 0 0 0 0.25 0"/>
<feBlend mode="normal" in2="BackgroundImageFix" result="effect1_dropShadow_1_194"/>
<feBlend mode="normal" in="SourceGraphic" in2="effect1_dropShadow_1_194" result="shape"/>
</filter>
</defs>
</svg>
