<svg width="903" height="903" viewBox="0 0 903 903" fill="none" xmlns="http://www.w3.org/2000/svg">
<g filter="url(#filter0_d_2030_107)">
<circle cx="451.5" cy="447.5" r="447.5" fill="white"/>
</g>
<g filter="url(#filter1_d_2030_107)">
<ellipse cx="459" cy="447.5" rx="372" ry="371.5" fill="white" fill-opacity="0.36" shape-rendering="crispEdges"/>
<path d="M459 77.5C663.623 77.5 829.5 243.157 829.5 447.5C829.5 651.843 663.623 817.5 459 817.5C254.377 817.5 88.5 651.843 88.5 447.5C88.5 243.157 254.377 77.5 459 77.5Z" stroke="white" stroke-width="3" shape-rendering="crispEdges"/>
</g>
<path d="M343.63 461.363C351.653 528.273 395.413 555.008 414.312 574.416C433.239 593.881 429.849 597.757 428.578 626.303C428.366 629.835 428.878 633.373 430.083 636.699C431.289 640.025 433.161 643.069 435.585 645.643C438.01 648.216 440.935 650.266 444.18 651.664C447.425 653.063 450.922 653.781 454.455 653.775H529.544C533.074 653.769 536.567 653.042 539.808 651.64C543.049 650.237 545.97 648.188 548.395 645.617C550.819 643.047 552.694 640.008 553.907 636.688C555.12 633.367 555.645 629.834 555.449 626.303C555.449 598.295 552.85 591.788 569.687 574.416C591.157 552.915 641.668 522.558 641.668 439.069C641.797 418.331 637.635 397.792 629.444 378.745C621.253 359.698 609.211 342.557 594.077 328.402C578.943 314.247 561.045 303.386 541.511 296.502C521.977 289.619 501.231 286.863 480.581 288.407C459.931 289.952 439.824 295.764 421.528 305.477C403.233 315.191 387.144 328.594 374.278 344.843C361.411 361.093 352.045 379.835 346.771 399.889C341.496 419.943 340.427 440.874 343.63 461.363Z" stroke="url(#paint0_linear_2030_107)" stroke-width="22" stroke-linecap="round" stroke-linejoin="round"/>
<path d="M535.505 652.219V694.996C535.505 706.68 529.007 716.271 521.013 716.271H463.015C454.964 716.271 448.495 706.652 448.495 694.996V652.219M514.035 354.025C530.715 354.032 546.71 360.673 558.503 372.488C570.295 384.303 576.919 400.325 576.919 417.03M284.871 444.784H233.06M337.02 274.695L300.267 237.887M308.77 588.959L272.017 625.738M492 175.25V217.206M682.97 237.859L646.471 274.695M711.22 625.738L674.721 588.959M699.129 444.784H750.911" stroke="url(#paint1_linear_2030_107)" stroke-width="22" stroke-linecap="round" stroke-linejoin="round"/>
<path d="M700 45V43.5H698.849L698.551 44.6121L700 45ZM887 45C887 49.4183 890.582 53 895 53C899.418 53 903 49.4183 903 45C903 40.5817 899.418 37 895 37C890.582 37 887 40.5817 887 45ZM666 172L667.449 172.388L668.222 169.502L666.773 169.114L665.324 168.726L664.551 171.612L666 172ZM668.318 163.341L669.767 163.729L671.313 157.956L669.864 157.568L668.415 157.18L666.869 162.953L668.318 163.341ZM671.409 151.795L672.858 152.183L674.404 146.411L672.955 146.023L671.506 145.635L669.96 151.408L671.409 151.795ZM674.5 140.25L675.949 140.638L677.494 134.865L676.045 134.477L674.596 134.089L673.051 139.862L674.5 140.25ZM677.591 128.705L679.04 129.092L680.585 123.32L679.136 122.932L677.687 122.544L676.142 128.317L677.591 128.705ZM680.682 117.159L682.131 117.547L683.676 111.774L682.227 111.386L680.778 110.998L679.233 116.771L680.682 117.159ZM683.773 105.614L685.222 106.002L686.767 100.229L685.318 99.8409L683.869 99.453L682.324 105.226L683.773 105.614ZM686.864 94.0682L688.313 94.4561L689.858 88.6834L688.409 88.2954L686.96 87.9075L685.415 93.6803L686.864 94.0682ZM689.955 82.5227L691.404 82.9106L692.949 77.1379L691.5 76.75L690.051 76.3621L688.506 82.1348L689.955 82.5227ZM693.045 70.9773L694.494 71.3652L696.04 65.5924L694.591 65.2045L693.142 64.8166L691.596 70.5893L693.045 70.9773ZM696.136 59.4318L697.585 59.8197L699.131 54.047L697.682 53.6591L696.233 53.2712L694.687 59.0439L696.136 59.4318ZM699.227 47.8863L700.676 48.2743L701.449 45.3879L700 45L698.551 44.6121L697.778 47.4984L699.227 47.8863ZM700 45V46.5H703.047V45V43.5H700V45ZM709.141 45V46.5H715.234V45V43.5H709.141V45ZM721.328 45V46.5H727.422V45V43.5H721.328V45ZM733.516 45V46.5H739.609V45V43.5H733.516V45ZM745.703 45V46.5H751.797V45V43.5H745.703V45ZM757.891 45V46.5H763.984V45V43.5H757.891V45ZM770.078 45V46.5H776.172V45V43.5H770.078V45ZM782.266 45V46.5H788.359V45V43.5H782.266V45ZM794.453 45V46.5H800.547V45V43.5H794.453V45ZM806.641 45V46.5H812.734V45V43.5H806.641V45ZM818.828 45V46.5H824.922V45V43.5H818.828V45ZM831.016 45V46.5H837.109V45V43.5H831.016V45ZM843.203 45V46.5H849.297V45V43.5H843.203V45ZM855.391 45V46.5H861.484V45V43.5H855.391V45ZM867.578 45V46.5H873.672V45V43.5H867.578V45ZM879.766 45V46.5H885.859V45V43.5H879.766V45ZM891.953 45V46.5H895V45V43.5H891.953V45Z" fill="#9E5A5F"/>
<path d="M700 865V866.5H698.849L698.551 865.388L700 865ZM887 865C887 860.582 890.582 857 895 857C899.418 857 903 860.582 903 865C903 869.418 899.418 873 895 873C890.582 873 887 869.418 887 865ZM666 738L667.449 737.612L668.222 740.498L666.773 740.886L665.324 741.274L664.551 738.388L666 738ZM668.318 746.659L669.767 746.271L671.313 752.044L669.864 752.432L668.415 752.82L666.869 747.047L668.318 746.659ZM671.409 758.205L672.858 757.817L674.404 763.589L672.955 763.977L671.506 764.365L669.96 758.592L671.409 758.205ZM674.5 769.75L675.949 769.362L677.494 775.135L676.045 775.523L674.596 775.911L673.051 770.138L674.5 769.75ZM677.591 781.295L679.04 780.908L680.585 786.68L679.136 787.068L677.687 787.456L676.142 781.683L677.591 781.295ZM680.682 792.841L682.131 792.453L683.676 798.226L682.227 798.614L680.778 799.002L679.233 793.229L680.682 792.841ZM683.773 804.386L685.222 803.998L686.767 809.771L685.318 810.159L683.869 810.547L682.324 804.774L683.773 804.386ZM686.864 815.932L688.313 815.544L689.858 821.317L688.409 821.705L686.96 822.092L685.415 816.32L686.864 815.932ZM689.955 827.477L691.404 827.089L692.949 832.862L691.5 833.25L690.051 833.638L688.506 827.865L689.955 827.477ZM693.045 839.023L694.494 838.635L696.04 844.408L694.591 844.795L693.142 845.183L691.596 839.411L693.045 839.023ZM696.136 850.568L697.585 850.18L699.131 855.953L697.682 856.341L696.233 856.729L694.687 850.956L696.136 850.568ZM699.227 862.114L700.676 861.726L701.449 864.612L700 865L698.551 865.388L697.778 862.502L699.227 862.114ZM700 865V863.5H703.047V865V866.5H700V865ZM709.141 865V863.5H715.234V865V866.5H709.141V865ZM721.328 865V863.5H727.422V865V866.5H721.328V865ZM733.516 865V863.5H739.609V865V866.5H733.516V865ZM745.703 865V863.5H751.797V865V866.5H745.703V865ZM757.891 865V863.5H763.984V865V866.5H757.891V865ZM770.078 865V863.5H776.172V865V866.5H770.078V865ZM782.266 865V863.5H788.359V865V866.5H782.266V865ZM794.453 865V863.5H800.547V865V866.5H794.453V865ZM806.641 865V863.5H812.734V865V866.5H806.641V865ZM818.828 865V863.5H824.922V865V866.5H818.828V865ZM831.016 865V863.5H837.109V865V866.5H831.016V865ZM843.203 865V863.5H849.297V865V866.5H843.203V865ZM855.391 865V863.5H861.484V865V866.5H855.391V865ZM867.578 865V863.5H873.672V865V866.5H867.578V865ZM879.766 865V863.5H885.859V865V866.5H879.766V865ZM891.953 865V863.5H895V865V866.5H891.953V865Z" fill="#9E5A5F"/>
<path d="M797.5 456H897" stroke="#9B595D" stroke-width="3" stroke-dasharray="6 6"/>
<defs>
<filter id="filter0_d_2030_107" x="0" y="0" width="903" height="903" filterUnits="userSpaceOnUse" color-interpolation-filters="sRGB">
<feFlood flood-opacity="0" result="BackgroundImageFix"/>
<feColorMatrix in="SourceAlpha" type="matrix" values="0 0 0 0 0 0 0 0 0 0 0 0 0 0 0 0 0 0 127 0" result="hardAlpha"/>
<feOffset dy="4"/>
<feGaussianBlur stdDeviation="2"/>
<feComposite in2="hardAlpha" operator="out"/>
<feColorMatrix type="matrix" values="0 0 0 0 0 0 0 0 0 0 0 0 0 0 0 0 0 0 0.25 0"/>
<feBlend mode="normal" in2="BackgroundImageFix" result="effect1_dropShadow_2030_107"/>
<feBlend mode="normal" in="SourceGraphic" in2="effect1_dropShadow_2030_107" result="shape"/>
</filter>
<filter id="filter1_d_2030_107" x="78.1" y="76" width="765.8" height="766.9" filterUnits="userSpaceOnUse" color-interpolation-filters="sRGB">
<feFlood flood-opacity="0" result="BackgroundImageFix"/>
<feColorMatrix in="SourceAlpha" type="matrix" values="0 0 0 0 0 0 0 0 0 0 0 0 0 0 0 0 0 0 127 0" result="hardAlpha"/>
<feOffset dx="2" dy="13"/>
<feGaussianBlur stdDeviation="5.45"/>
<feComposite in2="hardAlpha" operator="out"/>
<feColorMatrix type="matrix" values="0 0 0 0 0 0 0 0 0 0 0 0 0 0 0 0 0 0 0.25 0"/>
<feBlend mode="normal" in2="BackgroundImageFix" result="effect1_dropShadow_2030_107"/>
<feBlend mode="normal" in="SourceGraphic" in2="effect1_dropShadow_2030_107" result="shape"/>
</filter>
<linearGradient id="paint0_linear_2030_107" x1="491.748" y1="287.99" x2="491.748" y2="653.775" gradientUnits="userSpaceOnUse">
<stop stop-color="#F8AD1D"/>
<stop offset="1" stop-color="#47099F"/>
</linearGradient>
<linearGradient id="paint1_linear_2030_107" x1="491.986" y1="175.25" x2="491.986" y2="716.271" gradientUnits="userSpaceOnUse">
<stop stop-color="#F8AD1D"/>
<stop offset="1" stop-color="#47099F"/>
</linearGradient>
</defs>
</svg>
