<svg width="1280" height="1998" viewBox="0 0 1280 1998" fill="none" xmlns="http://www.w3.org/2000/svg">
<g clip-path="url(#clip0_2174_384)">
<rect width="1280" height="1998" fill="url(#paint0_linear_2174_384)"/>
<g filter="url(#filter0_f_2174_384)">
<ellipse cx="750.5" cy="351" rx="609.5" ry="531" fill="url(#paint1_linear_2174_384)" fill-opacity="0.3"/>
</g>
<line x1="886" y1="-37" x2="886" y2="2056" stroke="white"/>
<line x1="1066.92" y1="-37" x2="1066.92" y2="2056" stroke="white"/>
<line x1="162.336" y1="-37" x2="162.336" y2="2056" stroke="white"/>
<line x1="1247.83" y1="-37" x2="1247.83" y2="2056" stroke="white"/>
<line x1="343.246" y1="-37" x2="343.246" y2="2056" stroke="white"/>
<line x1="705.09" y1="-37" x2="705.09" y2="2056" stroke="white"/>
<line x1="886" y1="-37" x2="886" y2="2056" stroke="white"/>
<line x1="524.172" y1="-37" x2="524.172" y2="2056" stroke="white"/>
<line y1="-0.5" x2="2158.52" y2="-0.5" transform="matrix(-1 0 0 1 1964.76 1434.21)" stroke="white"/>
<line y1="-0.5" x2="2159.22" y2="-0.5" transform="matrix(-1 0 0 1 1964.07 1189.16)" stroke="white"/>
<line y1="-0.5" x2="2159.91" y2="-0.5" transform="matrix(-1 0 0 1 1963.37 944.132)" stroke="white"/>
<line y1="-0.5" x2="2159.91" y2="-0.5" transform="matrix(-1 0 0 1 1962.68 699.088)" stroke="white"/>
<line y1="-0.5" x2="2159.22" y2="-0.5" transform="matrix(-1 0 0 1 1966.15 1680.21)" stroke="white"/>
<line y1="-0.5" x2="2159.91" y2="-0.5" transform="matrix(-1 0 0 1 1960.6 208.044)" stroke="white"/>
<line y1="-0.5" x2="2158.52" y2="-0.5" transform="matrix(-1 0 0 1 1964.76 1434.21)" stroke="white"/>
<line y1="-0.5" x2="2159.91" y2="-0.5" transform="matrix(-1 0 0 1 1967.53 1925.25)" stroke="white"/>
<line y1="-0.5" x2="2159.22" y2="-0.5" transform="matrix(-1 0 0 1 1961.3 453.073)" stroke="white"/>
<g filter="url(#filter1_f_2174_384)">
<ellipse cx="-17.5" cy="81" rx="340.5" ry="375" fill="#C8BAFF" fill-opacity="0.55"/>
</g>
<g filter="url(#filter2_f_2174_384)">
<ellipse cx="374" cy="1118" rx="587" ry="498" fill="#C8BAFF" fill-opacity="0.3"/>
</g>
<circle cx="18.5" cy="103.5" r="4.5" fill="white"/>
<circle cx="886" cy="413" r="9" fill="white"/>
<circle cx="332" cy="108" r="9" fill="white"/>
<g filter="url(#filter3_f_2174_384)">
<ellipse cx="66.5" cy="2028" rx="340.5" ry="375" fill="#C8BAFF" fill-opacity="0.55"/>
</g>
<circle cx="221" cy="1817" r="11" fill="white"/>
<ellipse cx="334" cy="1688.5" rx="8" ry="7.5" fill="white"/>
<ellipse cx="444" cy="1820.5" rx="8" ry="7.5" fill="white"/>
<ellipse cx="110" cy="1557.5" rx="8" ry="7.5" fill="white"/>
<ellipse cx="1218" cy="1561.5" rx="8" ry="7.5" fill="white"/>
<ellipse cx="886" cy="1816.5" rx="8" ry="7.5" fill="white"/>
</g>
<defs>
<filter id="filter0_f_2174_384" x="-59" y="-380" width="1619" height="1462" filterUnits="userSpaceOnUse" color-interpolation-filters="sRGB">
<feFlood flood-opacity="0" result="BackgroundImageFix"/>
<feBlend mode="normal" in="SourceGraphic" in2="BackgroundImageFix" result="shape"/>
<feGaussianBlur stdDeviation="100" result="effect1_foregroundBlur_2174_384"/>
</filter>
<filter id="filter1_f_2174_384" x="-558" y="-494" width="1081" height="1150" filterUnits="userSpaceOnUse" color-interpolation-filters="sRGB">
<feFlood flood-opacity="0" result="BackgroundImageFix"/>
<feBlend mode="normal" in="SourceGraphic" in2="BackgroundImageFix" result="shape"/>
<feGaussianBlur stdDeviation="100" result="effect1_foregroundBlur_2174_384"/>
</filter>
<filter id="filter2_f_2174_384" x="-413" y="420" width="1574" height="1396" filterUnits="userSpaceOnUse" color-interpolation-filters="sRGB">
<feFlood flood-opacity="0" result="BackgroundImageFix"/>
<feBlend mode="normal" in="SourceGraphic" in2="BackgroundImageFix" result="shape"/>
<feGaussianBlur stdDeviation="100" result="effect1_foregroundBlur_2174_384"/>
</filter>
<filter id="filter3_f_2174_384" x="-474" y="1453" width="1081" height="1150" filterUnits="userSpaceOnUse" color-interpolation-filters="sRGB">
<feFlood flood-opacity="0" result="BackgroundImageFix"/>
<feBlend mode="normal" in="SourceGraphic" in2="BackgroundImageFix" result="shape"/>
<feGaussianBlur stdDeviation="100" result="effect1_foregroundBlur_2174_384"/>
</filter>
<linearGradient id="paint0_linear_2174_384" x1="209.03" y1="1.94271e-05" x2="1931.42" y2="1374.79" gradientUnits="userSpaceOnUse">
<stop stop-color="white"/>
<stop offset="1" stop-color="#C8D0E9"/>
</linearGradient>
<linearGradient id="paint1_linear_2174_384" x1="913.759" y1="351" x2="1360.41" y2="888.173" gradientUnits="userSpaceOnUse">
<stop stop-color="#BAC7FF"/>
<stop offset="1" stop-color="#AEBDFF"/>
</linearGradient>
<clipPath id="clip0_2174_384">
<rect width="1280" height="1998" fill="white"/>
</clipPath>
</defs>
</svg>
