<svg width="25" height="21" viewBox="0 0 25 21" fill="none" xmlns="http://www.w3.org/2000/svg">
<path d="M13.7202 20.0201V15.6801C15.8202 15.4001 17.2202 14.7001 17.9202 13.5801C18.6202 12.4134 18.9702 10.7801 18.9702 8.68011L22.4002 9.38011H13.8602V0.000113249H24.0802V7.00011C24.0802 10.3601 23.2402 13.2301 21.5602 15.6101C19.9268 17.9901 17.3135 19.4601 13.7202 20.0201ZM0.00015644 20.0201V15.6801C2.10016 15.4001 3.50016 14.7001 4.20016 13.5801C4.90016 12.4134 5.25016 10.7801 5.25016 8.68011L8.68016 9.38011H0.140156V0.000113249H10.3602V7.00011C10.3602 10.3601 9.52016 13.2301 7.84016 15.6101C6.20682 17.9901 3.59349 19.4601 0.00015644 20.0201Z" fill="url(#paint0_linear_1093_998)"/>
<defs>
<linearGradient id="paint0_linear_1093_998" x1="-7.72414" y1="-57.3064" x2="88.9195" y2="-40.054" gradientUnits="userSpaceOnUse">
<stop offset="0.192308" stop-color="#47099F"/>
<stop offset="0.798077" stop-color="#F8AD1D"/>
</linearGradient>
</defs>
</svg>
