<svg width="99" height="100" viewBox="0 0 99 100" fill="none" xmlns="http://www.w3.org/2000/svg">
<g filter="url(#filter0_d_609_154)">
<path d="M57.4529 12.5248C58.9957 11.8938 60.677 11.7038 62.3172 11.9749C63.9574 12.246 65.4948 12.9682 66.7652 14.0642L67.3429 14.6039L89.0029 36.7745C90.1792 37.9773 91.0139 39.4847 91.4178 41.1356C91.8216 42.7865 91.7793 44.5187 91.2955 46.1468L91.0341 46.8978L80.1904 74.6486C79.582 76.2021 78.5789 77.5608 77.285 78.5841C75.9911 79.6073 74.4534 80.2578 72.8313 80.4682L49.5436 83.4483C48.9444 83.5203 48.3178 83.6079 47.6637 83.7112L45.6279 84.0491L44.5641 84.2462L41.2491 84.9032L38.9795 85.4007L35.5636 86.1845L31.1848 87.2545L24.0688 89.113L21.1068 89.9297C20.3593 90.14 19.5722 90.155 18.8176 89.9731C18.063 89.7912 17.3651 89.4184 16.7878 88.8887C16.2106 88.359 15.7725 87.6895 15.5137 86.9415C15.2549 86.1936 15.1837 85.391 15.3066 84.6076L15.4625 83.9224L16.8151 78.7035L18.0256 73.7851L19.071 69.3031L19.8367 65.8066L20.3181 63.4788L20.9646 60.0903L21.3315 57.9455L21.6249 55.9368L24.6511 31.1568C24.8417 29.6275 25.3974 28.1698 26.269 26.9125C27.1407 25.6552 28.3015 24.6371 29.6488 23.948L30.3412 23.6242L57.4529 12.5248ZM60.855 21.24L33.7479 32.3395L31.0702 54.2661L30.8501 56.1246C30.4001 59.5771 29.8112 63.0092 29.0849 66.4121L28.3008 70.1009L43.3766 54.6697C42.8539 52.6738 42.9893 50.5572 43.7617 48.6481C44.5342 46.739 45.9004 45.1441 47.6487 44.1109C49.3969 43.0776 51.4294 42.6637 53.4309 42.9334C55.4324 43.2031 57.291 44.1412 58.7184 45.6023C60.1459 47.0634 61.0624 48.9659 61.3259 51.0145C61.5894 53.0632 61.185 55.1436 60.1755 56.9331C59.1661 58.7225 57.608 60.121 55.7429 60.9116C53.8777 61.7023 51.8098 61.8408 49.8599 61.3059L34.7841 76.7371L36.5815 76.3288L40.1762 75.5544C42.4165 75.0862 44.6686 74.6793 46.9301 74.3342L71.6758 71.1616L82.5196 43.4154L60.855 21.24ZM71.6896 5.78066C72.4785 4.97191 73.5287 4.48563 74.643 4.41304C75.7573 4.34046 76.8592 4.68657 77.7419 5.38644L78.1729 5.78066L97.6229 25.6892C98.454 26.5318 98.939 27.6677 98.9786 28.8644C99.0183 30.061 98.6096 31.228 97.8363 32.1263C97.0629 33.0246 95.9833 33.5865 94.8185 33.6967C93.6537 33.807 92.4918 33.4575 91.5706 32.7196L91.1396 32.3254L71.6896 12.4168C70.83 11.5367 70.3471 10.3432 70.3471 9.09875C70.3471 7.85429 70.83 6.66077 71.6896 5.78066Z" fill="white"/>
</g>
<defs>
<filter id="filter0_d_609_154" x="0.202232" y="0.47857" width="98.779" height="98.7791" filterUnits="userSpaceOnUse" color-interpolation-filters="sRGB">
<feFlood flood-opacity="0" result="BackgroundImageFix"/>
<feColorMatrix in="SourceAlpha" type="matrix" values="0 0 0 0 0 0 0 0 0 0 0 0 0 0 0 0 0 0 127 0" result="hardAlpha"/>
<feOffset dx="-8.50416" dy="2.61666"/>
<feGaussianBlur stdDeviation="3.27083"/>
<feComposite in2="hardAlpha" operator="out"/>
<feColorMatrix type="matrix" values="0 0 0 0 0 0 0 0 0 0 0 0 0 0 0 0 0 0 0.25 0"/>
<feBlend mode="normal" in2="BackgroundImageFix" result="effect1_dropShadow_609_154"/>
<feBlend mode="normal" in="SourceGraphic" in2="effect1_dropShadow_609_154" result="shape"/>
</filter>
</defs>
</svg>
