<svg width="64" height="63" viewBox="0 0 64 63" fill="none" xmlns="http://www.w3.org/2000/svg">
<g filter="url(#filter0_i_640_337)">
<path d="M37.8468 20.0315L50.1779 32.3653C50.9004 33.0877 51.3952 34.0062 51.6007 35.007C51.8063 36.0079 51.7136 37.047 51.3342 37.9957L45.1609 53.4305C44.8145 54.2945 44.2434 55.0503 43.5068 55.6194C42.7702 56.1885 41.8948 56.5503 40.9713 56.6673L27.7135 58.3248C27.3724 58.3649 27.0157 58.4136 26.6433 58.471L25.4843 58.659L24.8787 58.7686L22.9915 59.134L21.6994 59.4081L19.7547 59.8466L17.2618 60.4418L13.2106 61.4755L11.5244 61.9297C11.0988 62.0467 10.6507 62.055 10.2211 61.9538C9.79152 61.8527 9.3942 61.6453 9.06557 61.3507C8.73695 61.0561 8.48753 60.6837 8.3402 60.2677C8.19287 59.8517 8.15234 59.4053 8.22232 58.9696L8.31107 58.5885L9.08111 55.6858L9.77023 52.9502L10.3654 50.4574L10.8013 48.5127L11.0754 47.218L11.4434 45.3333L11.6523 44.1404L11.8193 43.0232L13.5421 29.2407C13.6594 28.317 14.0216 27.4414 14.5912 26.7047C15.1608 25.9681 15.917 25.3972 16.7815 25.0512L32.2163 18.8778C33.165 18.4984 34.2042 18.4058 35.205 18.6113C36.2059 18.8169 37.1244 19.309 37.8468 20.0315ZM28.1625 34.6624C27.503 35.3223 27.0324 36.1468 26.7997 37.0503C26.5669 37.9537 26.5805 38.903 26.8391 39.7994C26.6488 39.9109 26.4733 40.0459 26.317 40.2014L15.7244 50.7941C15.6549 50.8645 15.607 50.9532 15.586 51.0499L15.3537 52.0549L14.8891 53.9943L14.6646 54.9105C14.6416 54.9986 14.6421 55.0912 14.6659 55.1791C14.6898 55.267 14.7362 55.3471 14.8006 55.4115C14.865 55.4758 14.9451 55.5223 15.0329 55.5461C15.1208 55.57 15.2134 55.5704 15.3015 55.5475L17.1731 55.0907L19.1647 54.626C19.2608 54.6039 19.3485 54.555 19.4179 54.4851L30.0106 43.8924C30.1659 43.7369 30.301 43.5624 30.4126 43.373C31.2971 43.6272 32.2331 43.6432 33.1257 43.4192C34.0184 43.1952 34.8359 42.7391 35.4956 42.0974C36.1552 41.4556 36.6334 40.6508 36.8818 39.7647C37.1303 38.8785 37.14 37.9424 36.9101 37.0513C36.6801 36.1601 36.2187 35.3456 35.5726 34.6902C34.9264 34.0349 34.1185 33.562 33.2307 33.3195C32.3429 33.0769 31.4068 33.0734 30.5172 33.3092C29.6276 33.5451 28.8162 34.0119 28.1651 34.6624H28.1625ZM40.3213 15.1268C40.7705 14.677 41.3683 14.4065 42.0027 14.3661C42.6371 14.3257 43.2644 14.5182 43.7669 14.9075L44.0123 15.1268L55.0879 26.1997C55.561 26.6684 55.8371 27.3001 55.8597 27.9657C55.8823 28.6313 55.6496 29.2803 55.2093 29.78C54.7691 30.2796 54.1545 30.5921 53.4913 30.6534C52.8282 30.7148 52.1667 30.5204 51.6423 30.11L51.3943 29.8907L40.3213 18.8178C39.832 18.3282 39.5571 17.6644 39.5571 16.9723C39.5571 16.2801 39.832 15.6163 40.3213 15.1268Z" fill="#6A82EE"/>
</g>
<defs>
<filter id="filter0_i_640_337" x="0.532715" y="0" width="62.6475" height="65.6666" filterUnits="userSpaceOnUse" color-interpolation-filters="sRGB">
<feFlood flood-opacity="0" result="BackgroundImageFix"/>
<feBlend mode="normal" in="SourceGraphic" in2="BackgroundImageFix" result="shape"/>
<feColorMatrix in="SourceAlpha" type="matrix" values="0 0 0 0 0 0 0 0 0 0 0 0 0 0 0 0 0 0 127 0" result="hardAlpha"/>
<feOffset dy="3.01916"/>
<feGaussianBlur stdDeviation="1.50958"/>
<feComposite in2="hardAlpha" operator="arithmetic" k2="-1" k3="1"/>
<feColorMatrix type="matrix" values="0 0 0 0 0 0 0 0 0 0 0 0 0 0 0 0 0 0 0.25 0"/>
<feBlend mode="normal" in2="shape" result="effect1_innerShadow_640_337"/>
</filter>
</defs>
</svg>
