<svg width="119" height="107" viewBox="0 0 119 107" fill="none" xmlns="http://www.w3.org/2000/svg">
<g filter="url(#filter0_d_609_156)">
<path d="M106.439 14.1979C105.294 13.4567 103.983 13.0083 102.624 12.8921C101.264 12.7759 99.897 12.9954 98.6421 13.5315L57.5233 29.7257C56.5508 30.1252 55.5091 30.329 54.4577 30.3255H28.1337C25.9243 30.3255 23.8055 31.2032 22.2432 32.7654C20.681 34.3277 19.8033 36.4466 19.8033 38.6559V39.3223H11.4729V59.3153H19.8033V60.1817C19.8555 62.3562 20.7562 64.424 22.3128 65.9433C23.8694 67.4626 25.9585 68.3127 28.1337 68.3121L38.1302 89.5046C38.8071 90.9318 39.8727 92.139 41.2048 92.9878C42.5369 93.8365 44.0814 94.2924 45.6608 94.3029H49.8594C52.0571 94.2854 54.1589 93.3999 55.7068 91.8396C57.2547 90.2792 58.1232 88.1704 58.1231 85.9726V69.1118L98.6421 85.3061C99.6401 85.6982 100.702 85.9015 101.774 85.9059C103.438 85.8753 105.057 85.3663 106.439 84.4398C107.536 83.6997 108.44 82.7092 109.077 81.5503C109.714 80.3915 110.067 79.0975 110.105 77.7755V21.0621C110.099 19.706 109.762 18.372 109.123 17.1757C108.484 15.9795 107.563 14.9573 106.439 14.1979ZM49.7927 38.6559V60.1817H28.1337V38.6559H49.7927ZM49.7927 85.9726H45.5942L37.3971 68.3121H49.7927V85.9726ZM60.5889 61.1813C59.7975 60.7772 58.9725 60.4428 58.1231 60.1817V38.1894C58.9641 38.0146 59.789 37.7694 60.5889 37.4563L101.774 21.0621V77.5755L60.5889 61.1813ZM110.305 40.9884V57.6492C112.514 57.6492 114.633 56.7715 116.195 55.2093C117.757 53.647 118.635 51.5282 118.635 49.3188C118.635 47.1095 117.757 44.9906 116.195 43.4283C114.633 41.8661 112.514 40.9884 110.305 40.9884Z" fill="white"/>
</g>
<defs>
<filter id="filter0_d_609_156" x="0.809997" y="-2.61003" width="118.021" height="117.488" filterUnits="userSpaceOnUse" color-interpolation-filters="sRGB">
<feFlood flood-opacity="0" result="BackgroundImageFix"/>
<feColorMatrix in="SourceAlpha" type="matrix" values="0 0 0 0 0 0 0 0 0 0 0 0 0 0 0 0 0 0 127 0" result="hardAlpha"/>
<feOffset dx="-5.23333" dy="2.61666"/>
<feGaussianBlur stdDeviation="2.71479"/>
<feComposite in2="hardAlpha" operator="out"/>
<feColorMatrix type="matrix" values="0 0 0 0 0 0 0 0 0 0 0 0 0 0 0 0 0 0 0.25 0"/>
<feBlend mode="normal" in2="BackgroundImageFix" result="effect1_dropShadow_609_156"/>
<feBlend mode="normal" in="SourceGraphic" in2="effect1_dropShadow_609_156" result="shape"/>
</filter>
</defs>
</svg>
