<svg width="1043" height="273" viewBox="0 0 1043 273" fill="none" xmlns="http://www.w3.org/2000/svg">
<line y1="139.5" x2="82" y2="139.5" stroke="white" stroke-width="5"/>
<g filter="url(#filter0_d_2023_252)">
<rect x="174" y="28" width="865" height="218" rx="44" fill="url(#paint0_linear_2023_252)"/>
<rect x="174.5" y="28.5" width="864" height="217" rx="43.5" stroke="white"/>
</g>
<g filter="url(#filter1_d_2023_252)">
<circle cx="173.229" cy="132.759" r="111.993" transform="rotate(173.999 173.229 132.759)" fill="white"/>
</g>
<g filter="url(#filter2_d_2023_252)">
<circle cx="173.5" cy="132.5" r="132.5" fill="white"/>
</g>
<g filter="url(#filter3_d_2023_252)">
<circle cx="173.229" cy="131.759" r="111.993" transform="rotate(173.999 173.229 131.759)" fill="#BFAFFF"/>
</g>
<g filter="url(#filter4_d_2023_252)">
<path d="M139.5 80.25V97.5H122.25V80.25H139.5ZM113.625 71.625V106.125H148.125V71.625H113.625ZM182.625 93.1875V110.438H165.375V93.1875H182.625ZM156.75 84.5625V119.062H191.25V84.5625H156.75ZM139.5 132V149.25H122.25V132H139.5ZM113.625 123.375V157.875H148.125V123.375H113.625Z" fill="white"/>
<path d="M199.875 106.125V132H174V157.875H148.125V192.375H234.375V106.125H199.875ZM182.625 140.625H199.875V157.875H182.625V140.625ZM174 183.75H156.75V166.5H174V183.75ZM199.875 183.75H182.625V166.5H199.875V183.75ZM225.75 183.75H208.5V166.5H225.75V183.75ZM225.75 157.875H208.5V140.625H225.75V157.875ZM208.5 132V114.75H225.75V132H208.5Z" fill="white"/>
</g>
<defs>
<filter id="filter0_d_2023_252" x="170" y="28" width="873" height="226" filterUnits="userSpaceOnUse" color-interpolation-filters="sRGB">
<feFlood flood-opacity="0" result="BackgroundImageFix"/>
<feColorMatrix in="SourceAlpha" type="matrix" values="0 0 0 0 0 0 0 0 0 0 0 0 0 0 0 0 0 0 127 0" result="hardAlpha"/>
<feOffset dy="4"/>
<feGaussianBlur stdDeviation="2"/>
<feComposite in2="hardAlpha" operator="out"/>
<feColorMatrix type="matrix" values="0 0 0 0 0 0 0 0 0 0 0 0 0 0 0 0 0 0 0.25 0"/>
<feBlend mode="normal" in2="BackgroundImageFix" result="effect1_dropShadow_2023_252"/>
<feBlend mode="normal" in="SourceGraphic" in2="effect1_dropShadow_2023_252" result="shape"/>
</filter>
<filter id="filter1_d_2023_252" x="57.2266" y="20.7566" width="232.004" height="232.004" filterUnits="userSpaceOnUse" color-interpolation-filters="sRGB">
<feFlood flood-opacity="0" result="BackgroundImageFix"/>
<feColorMatrix in="SourceAlpha" type="matrix" values="0 0 0 0 0 0 0 0 0 0 0 0 0 0 0 0 0 0 127 0" result="hardAlpha"/>
<feOffset dy="4"/>
<feGaussianBlur stdDeviation="2"/>
<feComposite in2="hardAlpha" operator="out"/>
<feColorMatrix type="matrix" values="0 0 0 0 0 0 0 0 0 0 0 0 0 0 0 0 0 0 0.25 0"/>
<feBlend mode="normal" in2="BackgroundImageFix" result="effect1_dropShadow_2023_252"/>
<feBlend mode="normal" in="SourceGraphic" in2="effect1_dropShadow_2023_252" result="shape"/>
</filter>
<filter id="filter2_d_2023_252" x="37" y="0" width="273" height="273" filterUnits="userSpaceOnUse" color-interpolation-filters="sRGB">
<feFlood flood-opacity="0" result="BackgroundImageFix"/>
<feColorMatrix in="SourceAlpha" type="matrix" values="0 0 0 0 0 0 0 0 0 0 0 0 0 0 0 0 0 0 127 0" result="hardAlpha"/>
<feOffset dy="4"/>
<feGaussianBlur stdDeviation="2"/>
<feComposite in2="hardAlpha" operator="out"/>
<feColorMatrix type="matrix" values="0 0 0 0 0 0 0 0 0 0 0 0 0 0 0 0 0 0 0.25 0"/>
<feBlend mode="normal" in2="BackgroundImageFix" result="effect1_dropShadow_2023_252"/>
<feBlend mode="normal" in="SourceGraphic" in2="effect1_dropShadow_2023_252" result="shape"/>
</filter>
<filter id="filter3_d_2023_252" x="57.2266" y="19.7566" width="232.004" height="232.004" filterUnits="userSpaceOnUse" color-interpolation-filters="sRGB">
<feFlood flood-opacity="0" result="BackgroundImageFix"/>
<feColorMatrix in="SourceAlpha" type="matrix" values="0 0 0 0 0 0 0 0 0 0 0 0 0 0 0 0 0 0 127 0" result="hardAlpha"/>
<feOffset dy="4"/>
<feGaussianBlur stdDeviation="2"/>
<feComposite in2="hardAlpha" operator="out"/>
<feColorMatrix type="matrix" values="0 0 0 0 0 0 0 0 0 0 0 0 0 0 0 0 0 0 0.25 0"/>
<feBlend mode="normal" in2="BackgroundImageFix" result="effect1_dropShadow_2023_252"/>
<feBlend mode="normal" in="SourceGraphic" in2="effect1_dropShadow_2023_252" result="shape"/>
</filter>
<filter id="filter4_d_2023_252" x="84" y="57" width="159" height="158" filterUnits="userSpaceOnUse" color-interpolation-filters="sRGB">
<feFlood flood-opacity="0" result="BackgroundImageFix"/>
<feColorMatrix in="SourceAlpha" type="matrix" values="0 0 0 0 0 0 0 0 0 0 0 0 0 0 0 0 0 0 127 0" result="hardAlpha"/>
<feOffset dx="-11" dy="4"/>
<feGaussianBlur stdDeviation="5"/>
<feComposite in2="hardAlpha" operator="out"/>
<feColorMatrix type="matrix" values="0 0 0 0 0 0 0 0 0 0 0 0 0 0 0 0 0 0 0.25 0"/>
<feBlend mode="normal" in2="BackgroundImageFix" result="effect1_dropShadow_2023_252"/>
<feBlend mode="normal" in="SourceGraphic" in2="effect1_dropShadow_2023_252" result="shape"/>
</filter>
<linearGradient id="paint0_linear_2023_252" x1="130.75" y1="137" x2="1039" y2="137" gradientUnits="userSpaceOnUse">
<stop stop-color="#BAA9FF"/>
<stop offset="1" stop-color="#CEC2FF"/>
</linearGradient>
</defs>
</svg>
