<svg width="1280" height="1998" viewBox="0 0 1280 1998" fill="none" xmlns="http://www.w3.org/2000/svg">
<g clip-path="url(#clip0_2173_77)">
<rect width="1280" height="1998" fill="url(#paint0_linear_2173_77)"/>
<g filter="url(#filter0_f_2173_77)">
<ellipse cx="72.5" cy="1400" rx="340.5" ry="375" fill="#FFDEBA" fill-opacity="0.34"/>
</g>
<g filter="url(#filter1_f_2173_77)">
<ellipse cx="1178.5" cy="1172" rx="340.5" ry="375" fill="url(#paint1_linear_2173_77)" fill-opacity="0.8"/>
</g>
<g filter="url(#filter2_f_2173_77)">
<ellipse cx="544.5" cy="592" rx="340.5" ry="375" fill="url(#paint2_linear_2173_77)" fill-opacity="0.8"/>
</g>
<line x1="0.5" y1="1048" x2="0.499909" y2="2141.89" stroke="white" stroke-opacity="0.5"/>
<line x1="664.691" y1="1048" x2="664.691" y2="2141.89" stroke="white" stroke-opacity="0.5"/>
<line x1="111.199" y1="1048" x2="111.199" y2="2141.89" stroke="white" stroke-opacity="0.5"/>
<line x1="775.391" y1="1048" x2="775.391" y2="2141.89" stroke="white" stroke-opacity="0.5"/>
<line x1="221.898" y1="1048" x2="221.898" y2="2141.89" stroke="white" stroke-opacity="0.5"/>
<line x1="886.086" y1="1048" x2="886.086" y2="2141.89" stroke="white" stroke-opacity="0.5"/>
<line x1="332.594" y1="1048" x2="332.594" y2="2141.89" stroke="white" stroke-opacity="0.5"/>
<line x1="996.785" y1="1048" x2="996.785" y2="2141.89" stroke="white" stroke-opacity="0.5"/>
<line x1="553.996" y1="1048" x2="553.996" y2="2141.89" stroke="white" stroke-opacity="0.5"/>
<line x1="1218.18" y1="1048" x2="1218.18" y2="2141.89" stroke="white" stroke-opacity="0.5"/>
<line x1="664.691" y1="1048" x2="664.691" y2="2141.89" stroke="white" stroke-opacity="0.5"/>
<line x1="443.297" y1="1048" x2="443.297" y2="2141.89" stroke="white" stroke-opacity="0.5"/>
<line x1="1107.49" y1="1048" x2="1107.49" y2="2141.89" stroke="white" stroke-opacity="0.5"/>
<line y1="-0.5" x2="1320.75" y2="-0.5" transform="matrix(-1 0 0 1 1324.57 1816.91)" stroke="white" stroke-opacity="0.5"/>
<line y1="-0.5" x2="1321.17" y2="-0.5" transform="matrix(-1 0 0 1 1324.14 1688.84)" stroke="white" stroke-opacity="0.5"/>
<line y1="-0.5" x2="1321.6" y2="-0.5" transform="matrix(-1 0 0 1 1323.71 1560.78)" stroke="white" stroke-opacity="0.5"/>
<line y1="-0.5" x2="1321.6" y2="-0.5" transform="matrix(-1 0 0 1 1323.29 1432.71)" stroke="white" stroke-opacity="0.5"/>
<line y1="-0.5" x2="1321.17" y2="-0.5" transform="matrix(-1 0 0 1 1325.41 1945.49)" stroke="white" stroke-opacity="0.5"/>
<line y1="-0.5" x2="1321.6" y2="-0.5" transform="matrix(-1 0 0 1 1322.02 1176.07)" stroke="white" stroke-opacity="0.5"/>
<line y1="-0.5" x2="1320.75" y2="-0.5" transform="matrix(-1 0 0 1 1324.57 1816.91)" stroke="white" stroke-opacity="0.5"/>
<line y1="-0.5" x2="1321.6" y2="-0.5" transform="matrix(-1 0 0 1 1321.6 1048)" stroke="white" stroke-opacity="0.5"/>
<line y1="-0.5" x2="1321.17" y2="-0.5" transform="matrix(-1 0 0 1 1322.45 1304.13)" stroke="white" stroke-opacity="0.5"/>
<line x1="0.5" y1="-46" x2="0.499909" y2="1047.89" stroke="white" stroke-opacity="0.5"/>
<line x1="664.691" y1="-46" x2="664.691" y2="1047.89" stroke="white" stroke-opacity="0.5"/>
<line x1="111.199" y1="-46" x2="111.199" y2="1047.89" stroke="white" stroke-opacity="0.5"/>
<line x1="775.391" y1="-46" x2="775.391" y2="1047.89" stroke="white" stroke-opacity="0.5"/>
<line x1="221.898" y1="-46" x2="221.898" y2="1047.89" stroke="white" stroke-opacity="0.5"/>
<line x1="886.086" y1="-46" x2="886.086" y2="1047.89" stroke="white" stroke-opacity="0.5"/>
<line x1="332.594" y1="-46" x2="332.594" y2="1047.89" stroke="white" stroke-opacity="0.5"/>
<line x1="996.785" y1="-46" x2="996.785" y2="1047.89" stroke="white" stroke-opacity="0.5"/>
<line x1="553.996" y1="-46" x2="553.996" y2="1047.89" stroke="white" stroke-opacity="0.5"/>
<line x1="1218.18" y1="-46" x2="1218.18" y2="1047.89" stroke="white" stroke-opacity="0.5"/>
<line x1="664.691" y1="-46" x2="664.691" y2="1047.89" stroke="white" stroke-opacity="0.5"/>
<line x1="443.297" y1="-46" x2="443.297" y2="1047.89" stroke="white" stroke-opacity="0.5"/>
<line x1="1107.49" y1="-46" x2="1107.49" y2="1047.89" stroke="white" stroke-opacity="0.5"/>
<line y1="-0.5" x2="1320.75" y2="-0.5" transform="matrix(-1 0 0 1 1324.57 722.914)" stroke="white" stroke-opacity="0.5"/>
<line y1="-0.5" x2="1321.17" y2="-0.5" transform="matrix(-1 0 0 1 1324.14 594.845)" stroke="white" stroke-opacity="0.5"/>
<line y1="-0.5" x2="1321.6" y2="-0.5" transform="matrix(-1 0 0 1 1323.71 466.78)" stroke="white" stroke-opacity="0.5"/>
<line y1="-0.5" x2="1321.6" y2="-0.5" transform="matrix(-1 0 0 1 1326.68 1047.89)" stroke="white" stroke-opacity="0.5"/>
<line y1="-0.5" x2="1321.6" y2="-0.5" transform="matrix(-1 0 0 1 1323.29 338.711)" stroke="white" stroke-opacity="0.5"/>
<line y1="-0.5" x2="1321.17" y2="-0.5" transform="matrix(-1 0 0 1 1325.41 851.486)" stroke="white" stroke-opacity="0.5"/>
<line y1="-0.5" x2="1321.6" y2="-0.5" transform="matrix(-1 0 0 1 1322.02 82.0693)" stroke="white" stroke-opacity="0.5"/>
<line y1="-0.5" x2="1320.75" y2="-0.5" transform="matrix(-1 0 0 1 1324.57 722.914)" stroke="white" stroke-opacity="0.5"/>
<line y1="-0.5" x2="1321.6" y2="-0.5" transform="matrix(-1 0 0 1 1326.26 979.556)" stroke="white" stroke-opacity="0.5"/>
<line y1="-0.5" x2="1321.17" y2="-0.5" transform="matrix(-1 0 0 1 1322.45 210.135)" stroke="white" stroke-opacity="0.5"/>
<g filter="url(#filter3_f_2173_77)">
<ellipse cx="-17.5" cy="81" rx="340.5" ry="375" fill="#C8BAFF" fill-opacity="0.55"/>
</g>
<circle cx="18.5" cy="103.5" r="4.5" fill="white"/>
<circle cx="661" cy="1001" r="9" fill="white"/>
<circle cx="886" cy="413" r="9" fill="white"/>
<circle cx="332" cy="1001" r="9" fill="white"/>
<circle cx="332" cy="108" r="9" fill="white"/>
<g filter="url(#filter4_f_2173_77)">
<ellipse cx="66.5" cy="2028" rx="340.5" ry="375" fill="#C8BAFF" fill-opacity="0.55"/>
</g>
<circle cx="221" cy="1817" r="11" fill="white"/>
<ellipse cx="334" cy="1688.5" rx="8" ry="7.5" fill="white"/>
<ellipse cx="444" cy="1820.5" rx="8" ry="7.5" fill="white"/>
<ellipse cx="110" cy="1557.5" rx="8" ry="7.5" fill="white"/>
<ellipse cx="1218" cy="1561.5" rx="8" ry="7.5" fill="white"/>
<ellipse cx="886" cy="1816.5" rx="8" ry="7.5" fill="white"/>
</g>
<defs>
<filter id="filter0_f_2173_77" x="-468" y="825" width="1081" height="1150" filterUnits="userSpaceOnUse" color-interpolation-filters="sRGB">
<feFlood flood-opacity="0" result="BackgroundImageFix"/>
<feBlend mode="normal" in="SourceGraphic" in2="BackgroundImageFix" result="shape"/>
<feGaussianBlur stdDeviation="100" result="effect1_foregroundBlur_2173_77"/>
</filter>
<filter id="filter1_f_2173_77" x="638" y="597" width="1081" height="1150" filterUnits="userSpaceOnUse" color-interpolation-filters="sRGB">
<feFlood flood-opacity="0" result="BackgroundImageFix"/>
<feBlend mode="normal" in="SourceGraphic" in2="BackgroundImageFix" result="shape"/>
<feGaussianBlur stdDeviation="100" result="effect1_foregroundBlur_2173_77"/>
</filter>
<filter id="filter2_f_2173_77" x="4" y="17" width="1081" height="1150" filterUnits="userSpaceOnUse" color-interpolation-filters="sRGB">
<feFlood flood-opacity="0" result="BackgroundImageFix"/>
<feBlend mode="normal" in="SourceGraphic" in2="BackgroundImageFix" result="shape"/>
<feGaussianBlur stdDeviation="100" result="effect1_foregroundBlur_2173_77"/>
</filter>
<filter id="filter3_f_2173_77" x="-558" y="-494" width="1081" height="1150" filterUnits="userSpaceOnUse" color-interpolation-filters="sRGB">
<feFlood flood-opacity="0" result="BackgroundImageFix"/>
<feBlend mode="normal" in="SourceGraphic" in2="BackgroundImageFix" result="shape"/>
<feGaussianBlur stdDeviation="100" result="effect1_foregroundBlur_2173_77"/>
</filter>
<filter id="filter4_f_2173_77" x="-474" y="1453" width="1081" height="1150" filterUnits="userSpaceOnUse" color-interpolation-filters="sRGB">
<feFlood flood-opacity="0" result="BackgroundImageFix"/>
<feBlend mode="normal" in="SourceGraphic" in2="BackgroundImageFix" result="shape"/>
<feGaussianBlur stdDeviation="100" result="effect1_foregroundBlur_2173_77"/>
</filter>
<linearGradient id="paint0_linear_2173_77" x1="-206.5" y1="-381" x2="1323.89" y2="250.856" gradientUnits="userSpaceOnUse">
<stop stop-color="white"/>
<stop offset="1" stop-color="#C8D0E9"/>
</linearGradient>
<linearGradient id="paint1_linear_2173_77" x1="1269.71" y1="1172" x2="1590.13" y2="1476.84" gradientUnits="userSpaceOnUse">
<stop stop-color="#BAC7FF"/>
<stop offset="1" stop-color="#AEBDFF"/>
</linearGradient>
<linearGradient id="paint2_linear_2173_77" x1="635.705" y1="592" x2="956.128" y2="896.839" gradientUnits="userSpaceOnUse">
<stop stop-color="#BAC7FF"/>
<stop offset="1" stop-color="#AEBDFF"/>
</linearGradient>
<clipPath id="clip0_2173_77">
<rect width="1280" height="1998" fill="white"/>
</clipPath>
</defs>
</svg>
