<svg width="1280" height="1172" viewBox="0 0 1280 1172" fill="none" xmlns="http://www.w3.org/2000/svg">
<g clip-path="url(#clip0_2170_223)">
<rect width="1280" height="1172" fill="url(#paint0_linear_2170_223)"/>
<g filter="url(#filter0_f_2170_223)">
<ellipse cx="1178.5" cy="1172" rx="340.5" ry="375" fill="url(#paint1_linear_2170_223)" fill-opacity="0.8"/>
</g>
<line x1="0.5" y1="614.743" x2="0.499946" y2="1256.4" stroke="white"/>
<line x1="664.691" y1="614.743" x2="664.691" y2="1256.4" stroke="white"/>
<line x1="111.199" y1="614.743" x2="111.199" y2="1256.4" stroke="white"/>
<line x1="775.391" y1="614.743" x2="775.391" y2="1256.4" stroke="white"/>
<line x1="221.898" y1="614.743" x2="221.898" y2="1256.4" stroke="white"/>
<line x1="886.086" y1="614.743" x2="886.086" y2="1256.4" stroke="white"/>
<line x1="332.594" y1="614.743" x2="332.594" y2="1256.4" stroke="white"/>
<line x1="996.785" y1="614.743" x2="996.785" y2="1256.4" stroke="white"/>
<line x1="553.996" y1="614.743" x2="553.996" y2="1256.4" stroke="white"/>
<line x1="1218.18" y1="614.743" x2="1218.18" y2="1256.4" stroke="white"/>
<line x1="664.691" y1="614.743" x2="664.691" y2="1256.4" stroke="white"/>
<line x1="443.297" y1="614.743" x2="443.297" y2="1256.4" stroke="white"/>
<line x1="1107.49" y1="614.743" x2="1107.49" y2="1256.4" stroke="white"/>
<line y1="-0.5" x2="1320.75" y2="-0.5" transform="matrix(-1 0 0 1 1324.57 1065.78)" stroke="white"/>
<line y1="-0.5" x2="1321.17" y2="-0.5" transform="matrix(-1 0 0 1 1324.14 990.654)" stroke="white"/>
<line y1="-0.5" x2="1321.6" y2="-0.5" transform="matrix(-1 0 0 1 1323.71 915.533)" stroke="white"/>
<line y1="-0.5" x2="1321.6" y2="-0.5" transform="matrix(-1 0 0 1 1323.29 840.409)" stroke="white"/>
<line y1="-0.5" x2="1321.17" y2="-0.5" transform="matrix(-1 0 0 1 1325.41 1141.2)" stroke="white"/>
<line y1="-0.5" x2="1321.6" y2="-0.5" transform="matrix(-1 0 0 1 1322.02 689.867)" stroke="white"/>
<line y1="-0.5" x2="1320.75" y2="-0.5" transform="matrix(-1 0 0 1 1324.57 1065.78)" stroke="white"/>
<line y1="-0.5" x2="1321.6" y2="-0.5" transform="matrix(-1 0 0 1 1321.6 614.743)" stroke="white"/>
<line y1="-0.5" x2="1321.17" y2="-0.5" transform="matrix(-1 0 0 1 1322.45 764.988)" stroke="white"/>
<line x1="0.5" y1="-26.9834" x2="0.499946" y2="614.678" stroke="white"/>
<line x1="664.691" y1="-26.9834" x2="664.691" y2="614.678" stroke="white"/>
<line x1="111.199" y1="-26.9834" x2="111.199" y2="614.678" stroke="white"/>
<line x1="775.391" y1="-26.9834" x2="775.391" y2="614.678" stroke="white"/>
<line x1="221.898" y1="-26.9834" x2="221.898" y2="614.678" stroke="white"/>
<line x1="886.086" y1="-26.9834" x2="886.086" y2="614.678" stroke="white"/>
<line x1="332.594" y1="-26.9834" x2="332.594" y2="614.678" stroke="white"/>
<line x1="996.785" y1="-26.9834" x2="996.785" y2="614.678" stroke="white"/>
<line x1="553.996" y1="-26.9834" x2="553.996" y2="614.678" stroke="white"/>
<line x1="1218.18" y1="-26.9834" x2="1218.18" y2="614.678" stroke="white"/>
<line x1="664.691" y1="-26.9834" x2="664.691" y2="614.678" stroke="white"/>
<line x1="443.297" y1="-26.9834" x2="443.297" y2="614.678" stroke="white"/>
<line x1="1107.49" y1="-26.9834" x2="1107.49" y2="614.678" stroke="white"/>
<line y1="-0.5" x2="1320.75" y2="-0.5" transform="matrix(-1 0 0 1 1324.57 424.052)" stroke="white"/>
<line y1="-0.5" x2="1321.17" y2="-0.5" transform="matrix(-1 0 0 1 1324.14 348.928)" stroke="white"/>
<line y1="-0.5" x2="1321.6" y2="-0.5" transform="matrix(-1 0 0 1 1323.71 273.807)" stroke="white"/>
<line y1="-0.5" x2="1321.6" y2="-0.5" transform="matrix(-1 0 0 1 1326.68 614.678)" stroke="white"/>
<line y1="-0.5" x2="1321.6" y2="-0.5" transform="matrix(-1 0 0 1 1323.29 198.683)" stroke="white"/>
<line y1="-0.5" x2="1321.17" y2="-0.5" transform="matrix(-1 0 0 1 1325.41 499.47)" stroke="white"/>
<line y1="-0.5" x2="1321.6" y2="-0.5" transform="matrix(-1 0 0 1 1322.02 48.1406)" stroke="white"/>
<line y1="-0.5" x2="1320.75" y2="-0.5" transform="matrix(-1 0 0 1 1324.57 424.052)" stroke="white"/>
<line y1="-0.5" x2="1321.6" y2="-0.5" transform="matrix(-1 0 0 1 1326.26 574.594)" stroke="white"/>
<line y1="-0.5" x2="1321.17" y2="-0.5" transform="matrix(-1 0 0 1 1322.45 123.262)" stroke="white"/>
<g filter="url(#filter1_f_2170_223)">
<ellipse cx="-17.5" cy="81" rx="340.5" ry="375" fill="#C8BAFF" fill-opacity="0.55"/>
</g>
<circle cx="18.5" cy="103.5" r="4.5" fill="white"/>
<circle cx="661" cy="1001" r="9" fill="white"/>
<circle cx="886" cy="413" r="9" fill="white"/>
<circle cx="332" cy="1001" r="9" fill="white"/>
<circle cx="332" cy="108" r="9" fill="white"/>
</g>
<defs>
<filter id="filter0_f_2170_223" x="638" y="597" width="1081" height="1150" filterUnits="userSpaceOnUse" color-interpolation-filters="sRGB">
<feFlood flood-opacity="0" result="BackgroundImageFix"/>
<feBlend mode="normal" in="SourceGraphic" in2="BackgroundImageFix" result="shape"/>
<feGaussianBlur stdDeviation="100" result="effect1_foregroundBlur_2170_223"/>
</filter>
<filter id="filter1_f_2170_223" x="-558" y="-494" width="1081" height="1150" filterUnits="userSpaceOnUse" color-interpolation-filters="sRGB">
<feFlood flood-opacity="0" result="BackgroundImageFix"/>
<feBlend mode="normal" in="SourceGraphic" in2="BackgroundImageFix" result="shape"/>
<feGaussianBlur stdDeviation="100" result="effect1_foregroundBlur_2170_223"/>
</filter>
<linearGradient id="paint0_linear_2170_223" x1="-599" y1="-438.767" x2="301.765" y2="695.456" gradientUnits="userSpaceOnUse">
<stop stop-color="white"/>
<stop offset="1" stop-color="#C8D0E9"/>
</linearGradient>
<linearGradient id="paint1_linear_2170_223" x1="1269.71" y1="1172" x2="1590.13" y2="1476.84" gradientUnits="userSpaceOnUse">
<stop stop-color="#BAC7FF"/>
<stop offset="1" stop-color="#AEBDFF"/>
</linearGradient>
<clipPath id="clip0_2170_223">
<rect width="1280" height="1172" fill="white"/>
</clipPath>
</defs>
</svg>
