<svg width="192" height="239" viewBox="0 0 192 239" fill="none" xmlns="http://www.w3.org/2000/svg">
<g filter="url(#filter0_d_2250_1217)">
<mask id="path-1-inside-1_2250_1217" fill="white">
<path d="M135.54 13C144.303 13.0002 151.406 20.1043 151.406 28.8672V82.0205H160.133C168.896 82.0205 176 89.1247 176 97.8877V204.195C176 212.958 168.896 220.062 160.133 220.062H31.6123C22.8493 220.062 15.7452 212.958 15.7451 204.195V97.8877C15.7451 89.1247 22.8493 82.0205 31.6123 82.0205H39.5449V28.8672C39.5449 20.1042 46.6491 13 55.4121 13H135.54Z"/>
</mask>
<path d="M135.54 13C144.303 13.0002 151.406 20.1043 151.406 28.8672V82.0205H160.133C168.896 82.0205 176 89.1247 176 97.8877V204.195C176 212.958 168.896 220.062 160.133 220.062H31.6123C22.8493 220.062 15.7452 212.958 15.7451 204.195V97.8877C15.7451 89.1247 22.8493 82.0205 31.6123 82.0205H39.5449V28.8672C39.5449 20.1042 46.6491 13 55.4121 13H135.54Z" fill="#FDF9EE"/>
<path d="M135.54 13L135.54 10.62H135.54V13ZM151.406 82.0205H149.026V84.4005H151.406V82.0205ZM176 204.195L178.38 204.195V204.195H176ZM15.7451 204.195L13.3651 204.195L13.3651 204.195L15.7451 204.195ZM39.5449 82.0205V84.4005H41.9249V82.0205H39.5449ZM55.4121 13L55.4121 10.62L55.4121 10.62L55.4121 13ZM135.54 13L135.54 15.38C142.988 15.3802 149.026 21.4187 149.026 28.8672H151.406H153.786C153.786 18.79 145.617 10.6202 135.54 10.62L135.54 13ZM151.406 28.8672H149.026V82.0205H151.406H153.786V28.8672H151.406ZM151.406 82.0205V84.4005H160.133V82.0205V79.6405H151.406V82.0205ZM160.133 82.0205V84.4005C167.581 84.4005 173.62 90.4391 173.62 97.8877H176H178.38C178.38 87.8102 170.21 79.6405 160.133 79.6405V82.0205ZM176 97.8877H173.62V204.195H176H178.38V97.8877H176ZM176 204.195L173.62 204.195C173.62 211.644 167.581 217.682 160.133 217.682V220.062V222.442C170.21 222.442 178.38 214.273 178.38 204.195L176 204.195ZM160.133 220.062V217.682H31.6123V220.062V222.442H160.133V220.062ZM31.6123 220.062V217.682C24.1636 217.682 18.1252 211.644 18.1251 204.195L15.7451 204.195L13.3651 204.195C13.3652 214.273 21.5351 222.442 31.6123 222.442V220.062ZM15.7451 204.195H18.1251V97.8877H15.7451H13.3651V204.195H15.7451ZM15.7451 97.8877H18.1251C18.1251 90.4391 24.1638 84.4005 31.6123 84.4005V82.0205V79.6405C21.5349 79.6405 13.3651 87.8102 13.3651 97.8877H15.7451ZM31.6123 82.0205V84.4005H39.5449V82.0205V79.6405H31.6123V82.0205ZM39.5449 82.0205H41.9249V28.8672H39.5449H37.1649V82.0205H39.5449ZM39.5449 28.8672H41.9249C41.9249 21.4187 47.9636 15.3801 55.4121 15.38L55.4121 13L55.4121 10.62C45.3347 10.62 37.1649 18.7897 37.1649 28.8672H39.5449ZM55.4121 13V15.38H135.54V13V10.62H55.4121V13Z" fill="white" mask="url(#path-1-inside-1_2250_1217)"/>
</g>
<path d="M55.228 144.688V127.552H59.1313L64.8433 144.069H63.5581L69.2226 127.552H73.1734V144.688H70.6744V128.575H71.0552L65.5335 144.688H62.7251L57.2035 128.718H57.5843V144.688H55.228ZM80.6311 144.926C79.8218 144.926 79.1078 144.759 78.489 144.426C77.8702 144.077 77.3863 143.601 77.0372 142.998C76.704 142.395 76.5374 141.705 76.5374 140.927V132.55H79.0126V140.356C79.0126 141.197 79.2189 141.824 79.6314 142.236C80.044 142.649 80.6311 142.855 81.3927 142.855C82.0749 142.855 82.6779 142.696 83.2015 142.379C83.741 142.062 84.1614 141.625 84.4629 141.07C84.7802 140.499 84.9389 139.84 84.9389 139.095L85.2483 141.998C84.8516 142.887 84.2408 143.601 83.4157 144.14C82.6065 144.664 81.6783 144.926 80.6311 144.926ZM85.0341 144.688V141.832H84.9389V132.55H87.3903V144.688H85.0341ZM95.9065 144.926C94.4944 144.926 93.4551 144.6 92.7887 143.95C92.1382 143.284 91.8129 142.308 91.8129 141.023V129.765L94.2643 128.837V141.046C94.2643 141.681 94.4309 142.149 94.7641 142.451C95.0973 142.752 95.6368 142.903 96.3825 142.903C96.6681 142.903 96.922 142.879 97.1441 142.831C97.3663 142.784 97.5567 142.728 97.7153 142.665V144.664C97.5408 144.743 97.2949 144.807 96.9775 144.854C96.6602 144.902 96.3032 144.926 95.9065 144.926ZM89.3853 134.525V132.55H97.7153V134.525H89.3853ZM100.016 144.688V132.55H102.491V144.688H100.016ZM99.8966 130.17V127.385H102.634V130.17H99.8966ZM112.439 144.902C111.297 144.902 110.345 144.632 109.583 144.093C108.838 143.537 108.346 142.768 108.108 141.784L108.441 141.737V149.567H105.966V132.55H108.322V135.334L108.084 135.263C108.338 134.343 108.877 133.621 109.702 133.097C110.527 132.573 111.495 132.312 112.606 132.312C113.701 132.312 114.645 132.573 115.438 133.097C116.247 133.621 116.866 134.351 117.295 135.287C117.739 136.223 117.961 137.318 117.961 138.571C117.961 139.84 117.731 140.951 117.271 141.903C116.811 142.855 116.168 143.593 115.343 144.117C114.518 144.64 113.55 144.902 112.439 144.902ZM111.916 142.855C112.995 142.855 113.851 142.474 114.486 141.713C115.121 140.951 115.438 139.904 115.438 138.571C115.438 137.254 115.121 136.231 114.486 135.501C113.851 134.755 112.987 134.382 111.892 134.382C110.813 134.382 109.948 134.763 109.298 135.525C108.663 136.27 108.346 137.31 108.346 138.642C108.346 139.944 108.663 140.975 109.298 141.737C109.948 142.482 110.821 142.855 111.916 142.855ZM120.562 144.688V127.552H123.037V144.688H120.562ZM131.748 144.926C130.526 144.926 129.447 144.656 128.511 144.117C127.591 143.577 126.869 142.831 126.345 141.879C125.822 140.927 125.56 139.832 125.56 138.595C125.56 137.341 125.814 136.247 126.322 135.31C126.845 134.358 127.575 133.621 128.511 133.097C129.447 132.573 130.518 132.312 131.724 132.312C132.898 132.312 133.914 132.565 134.771 133.073C135.643 133.565 136.31 134.255 136.77 135.144C137.246 136.032 137.484 137.088 137.484 138.309C137.484 138.5 137.476 138.682 137.46 138.857C137.46 139.015 137.444 139.182 137.412 139.356H127.226V137.5H135.675L135.056 138.238C135.056 136.937 134.763 135.945 134.176 135.263C133.589 134.581 132.771 134.239 131.724 134.239C130.598 134.239 129.701 134.628 129.035 135.406C128.384 136.167 128.059 137.23 128.059 138.595C128.059 139.975 128.384 141.054 129.035 141.832C129.701 142.609 130.621 142.998 131.796 142.998C132.51 142.998 133.128 142.855 133.652 142.57C134.176 142.268 134.564 141.832 134.818 141.261H137.151C136.754 142.403 136.08 143.299 135.128 143.95C134.191 144.6 133.065 144.926 131.748 144.926ZM57.0526 173.688V156.552H60.9558L66.6679 173.069H65.3826L71.0471 156.552H74.9979V173.688H72.4989V157.575H72.8797L67.3581 173.688H64.5496L59.028 157.718H59.4088V173.688H57.0526ZM83.7884 173.926C82.5508 173.926 81.4639 173.656 80.5278 173.117C79.5916 172.561 78.8618 171.808 78.3381 170.856C77.8145 169.888 77.5527 168.793 77.5527 167.571C77.5527 166.333 77.8145 165.247 78.3381 164.31C78.8776 163.374 79.6075 162.644 80.5278 162.121C81.4639 161.581 82.5508 161.312 83.7884 161.312C85.0419 161.312 86.1367 161.581 87.0728 162.121C88.009 162.644 88.7309 163.374 89.2387 164.31C89.7623 165.247 90.0241 166.333 90.0241 167.571C90.0241 168.793 89.7623 169.888 89.2387 170.856C88.7309 171.808 88.009 172.561 87.0728 173.117C86.1367 173.656 85.0419 173.926 83.7884 173.926ZM83.7884 171.903C84.5341 171.903 85.1767 171.72 85.7162 171.355C86.2716 170.99 86.7079 170.483 87.0252 169.832C87.3426 169.182 87.5012 168.42 87.5012 167.547C87.5012 166.246 87.1522 165.223 86.454 164.477C85.7718 163.715 84.8832 163.335 83.7884 163.335C82.7095 163.335 81.8209 163.715 81.1228 164.477C80.4405 165.239 80.0994 166.262 80.0994 167.547C80.0994 168.42 80.2501 169.182 80.5516 169.832C80.8689 170.483 81.3052 170.99 81.8606 171.355C82.4318 171.72 83.0744 171.903 83.7884 171.903ZM101.395 173.688V170.903L101.633 170.975C101.379 171.879 100.855 172.601 100.062 173.14C99.2685 173.664 98.3165 173.926 97.2058 173.926C96.111 173.926 95.151 173.664 94.326 173.14C93.5167 172.617 92.8821 171.887 92.4219 170.951C91.9777 170.015 91.7555 168.92 91.7555 167.666C91.7555 166.397 91.9856 165.286 92.4457 164.334C92.9059 163.382 93.5485 162.644 94.3736 162.121C95.1986 161.597 96.1665 161.335 97.2772 161.335C98.4355 161.335 99.3875 161.613 100.133 162.168C100.895 162.708 101.395 163.47 101.633 164.453L101.299 164.501V156.552H103.751V173.688H101.395ZM97.8246 171.855C98.9194 171.855 99.7841 171.482 100.419 170.737C101.053 169.975 101.371 168.928 101.371 167.595C101.371 166.294 101.046 165.27 100.395 164.525C99.7603 163.763 98.8956 163.382 97.8008 163.382C96.7218 163.382 95.865 163.763 95.2304 164.525C94.6116 165.27 94.3022 166.318 94.3022 167.666C94.3022 168.983 94.6116 170.015 95.2304 170.76C95.865 171.49 96.7298 171.855 97.8246 171.855ZM112.468 173.926C111.247 173.926 110.168 173.656 109.232 173.117C108.311 172.577 107.589 171.831 107.066 170.879C106.542 169.927 106.28 168.832 106.28 167.595C106.28 166.341 106.534 165.247 107.042 164.31C107.566 163.358 108.295 162.621 109.232 162.097C110.168 161.573 111.239 161.312 112.445 161.312C113.619 161.312 114.634 161.565 115.491 162.073C116.364 162.565 117.03 163.255 117.49 164.144C117.966 165.032 118.204 166.088 118.204 167.309C118.204 167.5 118.196 167.682 118.18 167.857C118.18 168.015 118.165 168.182 118.133 168.356H107.946V166.5H116.395L115.777 167.238C115.777 165.937 115.483 164.945 114.896 164.263C114.309 163.581 113.492 163.239 112.445 163.239C111.318 163.239 110.422 163.628 109.755 164.406C109.105 165.167 108.779 166.23 108.779 167.595C108.779 168.975 109.105 170.054 109.755 170.832C110.422 171.609 111.342 171.998 112.516 171.998C113.23 171.998 113.849 171.855 114.372 171.57C114.896 171.268 115.285 170.832 115.539 170.261H117.871C117.474 171.403 116.8 172.299 115.848 172.95C114.912 173.6 113.785 173.926 112.468 173.926ZM120.736 173.688V156.552H123.211V173.688H120.736ZM131.066 173.926C129.479 173.926 128.217 173.577 127.281 172.879C126.345 172.18 125.814 171.197 125.687 169.927H127.971C128.083 170.625 128.4 171.165 128.923 171.546C129.463 171.911 130.193 172.093 131.113 172.093C131.922 172.093 132.541 171.95 132.97 171.665C133.398 171.379 133.612 170.975 133.612 170.451C133.612 170.07 133.485 169.753 133.231 169.499C132.993 169.229 132.517 169.007 131.803 168.832L129.852 168.38C128.63 168.079 127.718 167.635 127.115 167.047C126.528 166.445 126.234 165.707 126.234 164.834C126.234 163.739 126.639 162.882 127.448 162.264C128.273 161.629 129.399 161.312 130.828 161.312C132.24 161.312 133.374 161.629 134.231 162.264C135.104 162.898 135.595 163.787 135.707 164.929H133.422C133.327 164.358 133.049 163.922 132.589 163.62C132.144 163.303 131.534 163.144 130.756 163.144C130.026 163.144 129.463 163.279 129.066 163.549C128.685 163.803 128.495 164.16 128.495 164.62C128.495 165.001 128.638 165.318 128.923 165.572C129.225 165.826 129.717 166.04 130.399 166.214L132.398 166.714C133.557 167 134.429 167.468 135.016 168.118C135.603 168.753 135.897 169.523 135.897 170.427C135.897 171.522 135.469 172.379 134.612 172.998C133.771 173.616 132.589 173.926 131.066 173.926Z" fill="#905D20"/>
<g filter="url(#filter1_i_2250_1217)">
<path d="M88.0384 41.3041L76.1201 36.8347L88.1392 32.5698L100.02 36.9165L88.0384 41.3041ZM88.815 51.6815C91.3619 50.8746 93.9392 50.9747 96.3216 51.7934L100.928 42.8834V38.2447L88.815 42.6806V51.6815ZM109.713 32.7072L109.735 68.543L124.947 62.1049L109.713 32.7072ZM97.7586 52.4099C100.83 54.1129 103.13 56.5974 103.478 60.3319C103.237 63.1693 102.067 65.7801 100.12 67.7742C98.037 69.9086 95.2238 71.1329 92.4023 71.1329C89.5603 71.1329 86.7321 70.0944 84.6428 68.2839C82.4931 66.421 81.3015 63.9241 81.2808 61.2461C81.3769 57.4351 83.0889 54.3322 87.2553 52.3044V42.676L75.2461 38.1726V54.0931L81.7651 57.0703C80.5031 59.0311 79.7706 61.365 79.7706 63.8701C79.7706 70.8185 85.4034 76.4513 92.3518 76.4513C98.2318 76.4513 103.169 72.4175 104.549 66.9664L107.967 68.5432L107.945 32.7074L97.7586 52.4099Z" fill="#FBC49D"/>
</g>
<defs>
<filter id="filter0_d_2250_1217" x="0.433637" y="0.861883" width="190.878" height="237.684" filterUnits="userSpaceOnUse" color-interpolation-filters="sRGB">
<feFlood flood-opacity="0" result="BackgroundImageFix"/>
<feColorMatrix in="SourceAlpha" type="matrix" values="0 0 0 0 0 0 0 0 0 0 0 0 0 0 0 0 0 0 127 0" result="hardAlpha"/>
<feOffset dy="3.17336"/>
<feGaussianBlur stdDeviation="7.65574"/>
<feComposite in2="hardAlpha" operator="out"/>
<feColorMatrix type="matrix" values="0 0 0 0 1 0 0 0 0 0.724632 0 0 0 0 0.386681 0 0 0 1 0"/>
<feBlend mode="normal" in2="BackgroundImageFix" result="effect1_dropShadow_2250_1217"/>
<feBlend mode="normal" in="SourceGraphic" in2="effect1_dropShadow_2250_1217" result="shape"/>
</filter>
<filter id="filter1_i_2250_1217" x="75.2461" y="29.6602" width="49.7012" height="52.0961" filterUnits="userSpaceOnUse" color-interpolation-filters="sRGB">
<feFlood flood-opacity="0" result="BackgroundImageFix"/>
<feBlend mode="normal" in="SourceGraphic" in2="BackgroundImageFix" result="shape"/>
<feColorMatrix in="SourceAlpha" type="matrix" values="0 0 0 0 0 0 0 0 0 0 0 0 0 0 0 0 0 0 127 0" result="hardAlpha"/>
<feOffset dy="2.39522"/>
<feGaussianBlur stdDeviation="1.19761"/>
<feComposite in2="hardAlpha" operator="arithmetic" k2="-1" k3="1"/>
<feColorMatrix type="matrix" values="0 0 0 0 0 0 0 0 0 0 0 0 0 0 0 0 0 0 0.25 0"/>
<feBlend mode="normal" in2="shape" result="effect1_innerShadow_2250_1217"/>
</filter>
</defs>
</svg>
