<svg width="192" height="239" viewBox="0 0 192 239" fill="none" xmlns="http://www.w3.org/2000/svg">
<g filter="url(#filter0_d_2250_1211)">
<mask id="path-1-inside-1_2250_1211" fill="white">
<path d="M135.625 13C144.388 13.0002 151.491 20.1043 151.491 28.8672V82.0205H160.218C168.981 82.0205 176.085 89.1247 176.085 97.8877V204.195C176.085 212.958 168.981 220.062 160.218 220.062H31.6973C22.9343 220.062 15.8301 212.958 15.8301 204.195V97.8877C15.8301 89.1247 22.9343 82.0205 31.6973 82.0205H39.6299V28.8672C39.6299 20.1042 46.7341 13 55.4971 13H135.625Z"/>
</mask>
<path d="M135.625 13C144.388 13.0002 151.491 20.1043 151.491 28.8672V82.0205H160.218C168.981 82.0205 176.085 89.1247 176.085 97.8877V204.195C176.085 212.958 168.981 220.062 160.218 220.062H31.6973C22.9343 220.062 15.8301 212.958 15.8301 204.195V97.8877C15.8301 89.1247 22.9343 82.0205 31.6973 82.0205H39.6299V28.8672C39.6299 20.1042 46.7341 13 55.4971 13H135.625Z" fill="#FDF9EE"/>
<path d="M135.625 13L135.625 10.62H135.625V13ZM151.491 82.0205H149.111V84.4005H151.491V82.0205ZM176.085 204.195L178.465 204.195V204.195H176.085ZM15.8301 204.195L13.4501 204.195L13.4501 204.195L15.8301 204.195ZM39.6299 82.0205V84.4005H42.0099V82.0205H39.6299ZM55.4971 13L55.4971 10.62L55.4971 10.62L55.4971 13ZM135.625 13L135.625 15.38C143.073 15.3802 149.111 21.4187 149.111 28.8672H151.491H153.871C153.871 18.79 145.702 10.6202 135.625 10.62L135.625 13ZM151.491 28.8672H149.111V82.0205H151.491H153.871V28.8672H151.491ZM151.491 82.0205V84.4005H160.218V82.0205V79.6405H151.491V82.0205ZM160.218 82.0205V84.4005C167.666 84.4005 173.705 90.4391 173.705 97.8877H176.085H178.465C178.465 87.8102 170.295 79.6405 160.218 79.6405V82.0205ZM176.085 97.8877H173.705V204.195H176.085H178.465V97.8877H176.085ZM176.085 204.195L173.705 204.195C173.705 211.644 167.666 217.682 160.218 217.682V220.062V222.442C170.295 222.442 178.465 214.273 178.465 204.195L176.085 204.195ZM160.218 220.062V217.682H31.6973V220.062V222.442H160.218V220.062ZM31.6973 220.062V217.682C24.2486 217.682 18.2102 211.644 18.2101 204.195L15.8301 204.195L13.4501 204.195C13.4501 214.273 21.62 222.442 31.6973 222.442V220.062ZM15.8301 204.195H18.2101V97.8877H15.8301H13.4501V204.195H15.8301ZM15.8301 97.8877H18.2101C18.2101 90.4391 24.2487 84.4005 31.6973 84.4005V82.0205V79.6405C21.6198 79.6405 13.4501 87.8102 13.4501 97.8877H15.8301ZM31.6973 82.0205V84.4005H39.6299V82.0205V79.6405H31.6973V82.0205ZM39.6299 82.0205H42.0099V28.8672H39.6299H37.2499V82.0205H39.6299ZM39.6299 28.8672H42.0099C42.0099 21.4187 48.0485 15.3801 55.4971 15.38L55.4971 13L55.4971 10.62C45.4197 10.62 37.2499 18.7897 37.2499 28.8672H39.6299ZM55.4971 13V15.38H135.625V13V10.62H55.4971V13Z" fill="white" mask="url(#path-1-inside-1_2250_1211)"/>
</g>
<path d="M49.5215 144.688V129.622H43.738V127.552H57.8278V129.622H52.0443V144.688H49.5215ZM62.9424 144.926C61.7207 144.926 60.6417 144.656 59.7056 144.117C58.7853 143.577 58.0634 142.831 57.5398 141.879C57.0162 140.927 56.7543 139.832 56.7543 138.595C56.7543 137.341 57.0082 136.247 57.516 135.31C58.0396 134.358 58.7694 133.621 59.7056 133.097C60.6417 132.573 61.7127 132.312 62.9186 132.312C64.0928 132.312 65.1082 132.565 65.965 133.073C66.8377 133.565 67.5041 134.255 67.9643 135.144C68.4403 136.032 68.6783 137.088 68.6783 138.309C68.6783 138.5 68.6703 138.682 68.6545 138.857C68.6545 139.015 68.6386 139.182 68.6069 139.356H58.4204V137.5H66.8694L66.2506 138.238C66.2506 136.937 65.9571 135.945 65.37 135.263C64.783 134.581 63.9658 134.239 62.9186 134.239C61.7921 134.239 60.8956 134.628 60.2292 135.406C59.5786 136.167 59.2534 137.23 59.2534 138.595C59.2534 139.975 59.5786 141.054 60.2292 141.832C60.8956 142.609 61.8159 142.998 62.99 142.998C63.704 142.998 64.3228 142.855 64.8464 142.57C65.37 142.268 65.7588 141.832 66.0126 141.261H68.3451C67.9484 142.403 67.2741 143.299 66.322 143.95C65.3859 144.6 64.2594 144.926 62.9424 144.926ZM76.3256 144.926C75.1673 144.926 74.136 144.656 73.2315 144.117C72.3271 143.561 71.6131 142.808 71.0895 141.856C70.5818 140.904 70.3279 139.817 70.3279 138.595C70.3279 137.373 70.5818 136.294 71.0895 135.358C71.6131 134.406 72.3271 133.66 73.2315 133.121C74.136 132.581 75.1594 132.312 76.3018 132.312C77.2697 132.312 78.1344 132.494 78.896 132.859C79.6576 133.224 80.2843 133.732 80.7762 134.382C81.2681 135.033 81.5854 135.802 81.7282 136.691H79.3958C79.2371 135.977 78.8881 135.406 78.3486 134.977C77.825 134.549 77.1586 134.335 76.3494 134.335C75.6512 134.335 75.0404 134.509 74.5168 134.858C73.9932 135.207 73.5886 135.699 73.3029 136.334C73.0173 136.969 72.8745 137.722 72.8745 138.595C72.8745 139.452 73.0173 140.205 73.3029 140.856C73.5886 141.506 73.9932 142.014 74.5168 142.379C75.0404 142.728 75.6592 142.903 76.3732 142.903C77.1507 142.903 77.8091 142.696 78.3486 142.284C78.9039 141.856 79.2609 141.284 79.4196 140.57H81.752C81.5934 141.443 81.2602 142.205 80.7524 142.855C80.2605 143.506 79.6338 144.013 78.8722 144.378C78.1106 144.743 77.2617 144.926 76.3256 144.926ZM84.2027 144.688V127.552H86.6779V144.688H84.2027ZM92.8184 144.688V136.881C92.8184 136.04 92.6042 135.414 92.1758 135.001C91.7632 134.589 91.1444 134.382 90.3194 134.382C89.6054 134.382 88.9707 134.541 88.4153 134.858C87.8759 135.176 87.4475 135.612 87.1301 136.167C86.8287 136.723 86.6779 137.381 86.6779 138.143L86.3685 135.239C86.7652 134.335 87.3761 133.621 88.2011 133.097C89.0262 132.573 89.9862 132.312 91.081 132.312C92.3821 132.312 93.4055 132.677 94.1512 133.406C94.8969 134.136 95.2698 135.104 95.2698 136.31V144.688H92.8184ZM98.6362 144.688V132.55H100.992V135.406H101.111V144.688H98.6362ZM107.252 144.688V136.881C107.252 136.04 107.038 135.414 106.609 135.001C106.197 134.589 105.578 134.382 104.753 134.382C104.039 134.382 103.404 134.541 102.849 134.858C102.309 135.176 101.881 135.612 101.564 136.167C101.262 136.723 101.111 137.381 101.111 138.143L100.802 135.239C101.199 134.335 101.81 133.621 102.635 133.097C103.46 132.573 104.42 132.312 105.515 132.312C106.816 132.312 107.839 132.677 108.585 133.406C109.33 134.136 109.703 135.104 109.703 136.31V144.688H107.252ZM113.023 144.688V132.55H115.499V144.688H113.023ZM112.904 130.17V127.385H115.641V130.17H112.904ZM123.973 144.926C122.814 144.926 121.783 144.656 120.878 144.117C119.974 143.561 119.26 142.808 118.736 141.856C118.229 140.904 117.975 139.817 117.975 138.595C117.975 137.373 118.229 136.294 118.736 135.358C119.26 134.406 119.974 133.66 120.878 133.121C121.783 132.581 122.806 132.312 123.949 132.312C124.917 132.312 125.781 132.494 126.543 132.859C127.305 133.224 127.931 133.732 128.423 134.382C128.915 135.033 129.232 135.802 129.375 136.691H127.043C126.884 135.977 126.535 135.406 125.996 134.977C125.472 134.549 124.806 134.335 123.996 134.335C123.298 134.335 122.687 134.509 122.164 134.858C121.64 135.207 121.235 135.699 120.95 136.334C120.664 136.969 120.521 137.722 120.521 138.595C120.521 139.452 120.664 140.205 120.95 140.856C121.235 141.506 121.64 142.014 122.164 142.379C122.687 142.728 123.306 142.903 124.02 142.903C124.798 142.903 125.456 142.696 125.996 142.284C126.551 141.856 126.908 141.284 127.067 140.57H129.399C129.24 141.443 128.907 142.205 128.399 142.855C127.907 143.506 127.281 144.013 126.519 144.378C125.758 144.743 124.909 144.926 123.973 144.926ZM139.254 144.688C139.175 144.386 139.119 144.053 139.088 143.688C139.072 143.323 139.064 142.879 139.064 142.355H138.945V136.572C138.945 135.794 138.747 135.215 138.35 134.834C137.969 134.438 137.358 134.239 136.517 134.239C135.708 134.239 135.058 134.398 134.566 134.715C134.09 135.033 133.812 135.485 133.733 136.072H131.376C131.488 134.93 132.003 134.017 132.923 133.335C133.844 132.653 135.073 132.312 136.612 132.312C138.199 132.312 139.389 132.684 140.183 133.43C140.976 134.16 141.373 135.239 141.373 136.667V142.355C141.373 142.72 141.396 143.093 141.444 143.474C141.492 143.855 141.563 144.259 141.658 144.688H139.254ZM135.065 144.926C133.828 144.926 132.844 144.624 132.114 144.021C131.384 143.403 131.019 142.57 131.019 141.522C131.019 140.443 131.4 139.594 132.162 138.976C132.939 138.341 134.05 137.913 135.494 137.69L139.492 137.048V138.785L135.875 139.356C135.065 139.483 134.455 139.698 134.042 139.999C133.645 140.301 133.447 140.737 133.447 141.308C133.447 141.863 133.63 142.284 133.994 142.57C134.375 142.839 134.923 142.974 135.637 142.974C136.589 142.974 137.374 142.744 137.993 142.284C138.628 141.824 138.945 141.245 138.945 140.547L139.254 142.308C138.969 143.149 138.461 143.799 137.731 144.259C137.001 144.704 136.113 144.926 135.065 144.926ZM144.726 144.688V127.552H147.201V144.688H144.726ZM48.7905 173.688V171.736H53.9075C54.8754 171.736 55.6291 171.474 56.1686 170.951C56.7239 170.427 57.0016 169.713 57.0016 168.809C57.0016 167.857 56.708 167.095 56.1209 166.524C55.5497 165.953 54.7643 165.667 53.7647 165.667H48.7905V163.763H53.5267C54.4946 163.763 55.2403 163.533 55.7639 163.073C56.3034 162.597 56.5732 161.922 56.5732 161.05C56.5732 160.225 56.3193 159.598 55.8115 159.17C55.3197 158.725 54.5898 158.503 53.6219 158.503H48.7905V156.552H54.0027C55.5577 156.552 56.7953 156.932 57.7156 157.694C58.6358 158.44 59.096 159.463 59.096 160.764C59.096 161.589 58.9056 162.319 58.5248 162.954C58.1598 163.573 57.6521 164.057 57.0016 164.406C56.351 164.739 55.6132 164.905 54.7881 164.905L54.9071 164.406C55.7957 164.406 56.589 164.612 57.2872 165.024C57.9853 165.421 58.5406 165.969 58.9532 166.667C59.3657 167.365 59.572 168.174 59.572 169.094C59.572 169.999 59.3498 170.8 58.9056 171.498C58.4772 172.196 57.8663 172.736 57.073 173.117C56.2796 173.497 55.3593 173.688 54.3121 173.688H48.7905ZM46.9341 173.688V156.552H49.4569V173.688H46.9341ZM62.134 173.688V161.55H64.4903V164.572H64.6093V173.688H62.134ZM64.6093 167.357L64.2999 164.477C64.5855 163.446 65.0773 162.66 65.7755 162.121C66.4736 161.581 67.3066 161.312 68.2745 161.312C68.6394 161.312 68.8933 161.343 69.0361 161.407V163.739C68.9568 163.708 68.8457 163.692 68.7029 163.692C68.5601 163.676 68.3856 163.668 68.1793 163.668C66.9893 163.668 66.0928 163.977 65.4899 164.596C64.9028 165.215 64.6093 166.135 64.6093 167.357ZM71.0359 173.688V161.55H73.5111V173.688H71.0359ZM70.9169 159.17V156.385H73.6539V159.17H70.9169ZM76.9859 173.688V156.552H79.4612V173.688H76.9859ZM82.936 173.688V156.552H85.4112V173.688H82.936ZM88.8861 173.688V161.55H91.3613V173.688H88.8861ZM88.7671 159.17V156.385H91.5041V159.17H88.7671ZM102.194 173.688C102.115 173.386 102.059 173.053 102.028 172.688C102.012 172.323 102.004 171.879 102.004 171.355H101.885V165.572C101.885 164.794 101.687 164.215 101.29 163.834C100.909 163.438 100.298 163.239 99.4573 163.239C98.6481 163.239 97.9975 163.398 97.5056 163.715C97.0296 164.033 96.752 164.485 96.6726 165.072H94.3164C94.4275 163.93 94.9432 163.017 95.8634 162.335C96.7837 161.653 98.0134 161.312 99.5525 161.312C101.139 161.312 102.329 161.684 103.123 162.43C103.916 163.16 104.313 164.239 104.313 165.667V171.355C104.313 171.72 104.336 172.093 104.384 172.474C104.432 172.855 104.503 173.259 104.598 173.688H102.194ZM98.0055 173.926C96.7678 173.926 95.7841 173.624 95.0542 173.021C94.3243 172.403 93.9594 171.57 93.9594 170.522C93.9594 169.443 94.3402 168.594 95.1018 167.976C95.8793 167.341 96.99 166.913 98.4339 166.69L102.432 166.048V167.785L98.8147 168.356C98.0055 168.483 97.3946 168.698 96.982 168.999C96.5854 169.301 96.387 169.737 96.387 170.308C96.387 170.863 96.5695 171.284 96.9344 171.57C97.3152 171.839 97.8626 171.974 98.5767 171.974C99.5287 171.974 100.314 171.744 100.933 171.284C101.568 170.824 101.885 170.245 101.885 169.547L102.194 171.308C101.909 172.149 101.401 172.799 100.671 173.259C99.9412 173.704 99.0527 173.926 98.0055 173.926ZM107.666 173.688V161.55H110.022V164.406H110.141V173.688H107.666ZM116.282 173.688V165.881C116.282 165.04 116.067 164.414 115.639 164.001C115.226 163.589 114.608 163.382 113.783 163.382C113.069 163.382 112.434 163.541 111.879 163.858C111.339 164.176 110.911 164.612 110.593 165.167C110.292 165.723 110.141 166.381 110.141 167.143L109.832 164.239C110.228 163.335 110.839 162.621 111.664 162.097C112.489 161.573 113.449 161.312 114.544 161.312C115.845 161.312 116.869 161.677 117.614 162.406C118.36 163.136 118.733 164.104 118.733 165.31V173.688H116.282ZM127.145 173.926C125.987 173.926 124.955 173.656 124.051 173.117C123.147 172.561 122.433 171.808 121.909 170.856C121.401 169.904 121.147 168.817 121.147 167.595C121.147 166.373 121.401 165.294 121.909 164.358C122.433 163.406 123.147 162.66 124.051 162.121C124.955 161.581 125.979 161.312 127.121 161.312C128.089 161.312 128.954 161.494 129.716 161.859C130.477 162.224 131.104 162.732 131.596 163.382C132.088 164.033 132.405 164.802 132.548 165.691H130.215C130.057 164.977 129.708 164.406 129.168 163.977C128.645 163.549 127.978 163.335 127.169 163.335C126.471 163.335 125.86 163.509 125.336 163.858C124.813 164.207 124.408 164.699 124.122 165.334C123.837 165.969 123.694 166.722 123.694 167.595C123.694 168.452 123.837 169.205 124.122 169.856C124.408 170.506 124.813 171.014 125.336 171.379C125.86 171.728 126.479 171.903 127.193 171.903C127.97 171.903 128.629 171.696 129.168 171.284C129.723 170.856 130.08 170.284 130.239 169.57H132.572C132.413 170.443 132.08 171.205 131.572 171.855C131.08 172.506 130.453 173.013 129.692 173.378C128.93 173.743 128.081 173.926 127.145 173.926ZM140.212 173.926C138.99 173.926 137.911 173.656 136.975 173.117C136.055 172.577 135.333 171.831 134.809 170.879C134.286 169.927 134.024 168.832 134.024 167.595C134.024 166.341 134.278 165.247 134.785 164.31C135.309 163.358 136.039 162.621 136.975 162.097C137.911 161.573 138.982 161.312 140.188 161.312C141.362 161.312 142.378 161.565 143.234 162.073C144.107 162.565 144.774 163.255 145.234 164.144C145.71 165.032 145.948 166.088 145.948 167.309C145.948 167.5 145.94 167.682 145.924 167.857C145.924 168.015 145.908 168.182 145.876 168.356H135.69V166.5H144.139L143.52 167.238C143.52 165.937 143.227 164.945 142.639 164.263C142.052 163.581 141.235 163.239 140.188 163.239C139.061 163.239 138.165 163.628 137.499 164.406C136.848 165.167 136.523 166.23 136.523 167.595C136.523 168.975 136.848 170.054 137.499 170.832C138.165 171.609 139.085 171.998 140.259 171.998C140.973 171.998 141.592 171.855 142.116 171.57C142.639 171.268 143.028 170.832 143.282 170.261H145.614C145.218 171.403 144.543 172.299 143.591 172.95C142.655 173.6 141.529 173.926 140.212 173.926Z" fill="#905D20"/>
<g filter="url(#filter1_i_2250_1211)">
<path d="M89.3205 36.1498C88.2719 36.1495 87.242 36.4281 86.3366 36.9569C85.4311 37.4858 84.6825 38.2459 84.1676 39.1594C83.6527 40.0729 83.3899 41.1069 83.4063 42.1554C83.4227 43.2038 83.7176 44.2291 84.2608 45.1261C82.9116 45.3868 81.6954 46.109 80.8208 47.1688C79.9461 48.2285 79.4678 49.5598 79.4678 50.9338C79.4678 52.3079 79.9461 53.6391 80.8208 54.6989C81.6954 55.7587 82.9116 56.4809 84.2608 56.7416M89.3205 36.1498C89.3205 34.8429 89.8396 33.5896 90.7638 32.6654C91.6879 31.7413 92.9413 31.2222 94.2482 31.2222C95.5551 31.2222 96.8084 31.7413 97.7325 32.6654C98.6567 33.5896 99.1758 34.8429 99.1758 36.1498V39.1064M89.3205 36.1498C89.3205 37.7622 90.0951 39.1932 91.2916 40.092M84.2608 56.7416C83.7181 57.6385 83.4236 58.6636 83.4075 59.7118C83.3914 60.7599 83.6542 61.7936 84.1691 62.7068C84.6839 63.6199 85.4323 64.3798 86.3375 64.9086C87.2427 65.4373 88.2722 65.7159 89.3205 65.7158C89.3205 67.0227 89.8396 68.2761 90.7638 69.2002C91.6879 70.1244 92.9413 70.6435 94.2482 70.6435C95.5551 70.6435 96.8084 70.1244 97.7325 69.2002C98.6567 68.2761 99.1758 67.0227 99.1758 65.7158V62.7592M84.2608 56.7416C84.9685 55.5713 86.06 54.6805 87.3494 54.2245M104.103 56.846V60.7882M110.017 56.846V60.7882M104.103 41.0775V45.0196M110.017 41.0775V45.0196M101.147 47.9762H97.2048M101.147 53.8894H97.2048M116.915 47.9762H112.973M116.915 53.8894H112.973M109.031 45.0196H105.089C103.23 45.0196 102.302 45.0196 101.724 45.5972C101.147 46.1747 101.147 47.1031 101.147 48.9618V52.9039C101.147 54.7626 101.147 55.691 101.724 56.2685C102.302 56.846 103.23 56.846 105.089 56.846H109.031C110.89 56.846 111.818 56.846 112.396 56.2685C112.973 55.691 112.973 54.7626 112.973 52.9039V48.9618C112.973 47.1031 112.973 46.1747 112.396 45.5972C111.818 45.0196 110.89 45.0196 109.031 45.0196Z" stroke="#FBC49D" stroke-width="2.99403" stroke-linecap="round" stroke-linejoin="round"/>
</g>
<defs>
<filter id="filter0_d_2250_1211" x="0.518598" y="0.861883" width="190.878" height="237.684" filterUnits="userSpaceOnUse" color-interpolation-filters="sRGB">
<feFlood flood-opacity="0" result="BackgroundImageFix"/>
<feColorMatrix in="SourceAlpha" type="matrix" values="0 0 0 0 0 0 0 0 0 0 0 0 0 0 0 0 0 0 127 0" result="hardAlpha"/>
<feOffset dy="3.17336"/>
<feGaussianBlur stdDeviation="7.65574"/>
<feComposite in2="hardAlpha" operator="out"/>
<feColorMatrix type="matrix" values="0 0 0 0 1 0 0 0 0 0.724632 0 0 0 0 0.386681 0 0 0 1 0"/>
<feBlend mode="normal" in2="BackgroundImageFix" result="effect1_dropShadow_2250_1211"/>
<feBlend mode="normal" in="SourceGraphic" in2="effect1_dropShadow_2250_1211" result="shape"/>
</filter>
<filter id="filter1_i_2250_1211" x="77.9707" y="29.7251" width="40.4414" height="44.8107" filterUnits="userSpaceOnUse" color-interpolation-filters="sRGB">
<feFlood flood-opacity="0" result="BackgroundImageFix"/>
<feBlend mode="normal" in="SourceGraphic" in2="BackgroundImageFix" result="shape"/>
<feColorMatrix in="SourceAlpha" type="matrix" values="0 0 0 0 0 0 0 0 0 0 0 0 0 0 0 0 0 0 127 0" result="hardAlpha"/>
<feOffset dy="2.39522"/>
<feGaussianBlur stdDeviation="1.19761"/>
<feComposite in2="hardAlpha" operator="arithmetic" k2="-1" k3="1"/>
<feColorMatrix type="matrix" values="0 0 0 0 0 0 0 0 0 0 0 0 0 0 0 0 0 0 0.25 0"/>
<feBlend mode="normal" in2="shape" result="effect1_innerShadow_2250_1211"/>
</filter>
</defs>
</svg>
