<svg width="483" height="322" viewBox="0 0 483 322" fill="none" xmlns="http://www.w3.org/2000/svg">
<g clip-path="url(#clip0_1260_6733)">
<path d="M397.025 50.1357C366.178 31.9749 331.196 24.4723 296.188 19.726C247.246 13.2554 197.474 20.8617 152.698 41.6542C140.018 47.5597 127.769 58.1278 113.987 60.8712L127.833 41.4932C130.506 37.7645 133.127 32.4257 130.042 29.0383C128.754 27.6601 126.867 27.1063 125.019 26.81C117.884 25.7603 110.709 28.3363 104.231 31.5563C74.3813 46.2266 50.0059 73.5902 31.4587 100.651C0.888032 145.287 4.28835 218.593 39.2382 254.522C74.1881 290.451 148.957 307.923 180.023 304.039C203.613 301.09 178.201 287.07 172.978 278.575C172.462 277.867 172.169 277.022 172.134 276.148C172.198 274.66 173.557 273.572 174.839 272.844C185.619 266.584 199.388 268.426 211.315 267.486C230.313 265.917 249.386 265.448 268.438 266.082C271.014 266.172 300.837 266.887 298.474 272.973C296.6 277.803 289.188 281.705 285.298 284.661C282.31 286.935 262.964 300.117 268.554 304.587C270.093 305.823 272.186 306.081 274.157 306.274C306.82 309.442 340.437 308.463 372.605 301.656C400.619 295.725 431.537 286.078 448.249 261.02C465.296 235.473 466.333 201.341 459.841 172.219C458.302 165.278 456.244 158.463 453.684 151.83C451.295 145.68 447.496 140.502 444.327 134.757C443.039 132.445 442.17 129.65 443.091 127.177C447.148 116.229 458.939 138.048 462.153 126.34C463.712 120.654 460.704 112.217 458.791 106.846C455.352 97.1864 449.524 88.4666 442.55 80.9833C429.206 66.6801 413.396 59.7764 397.025 50.1357Z" fill="#BA68C8"/>
<path opacity="0.7" d="M397.025 50.1357C366.178 31.9749 331.196 24.4723 296.188 19.726C247.246 13.2554 197.474 20.8617 152.698 41.6542C140.018 47.5597 127.769 58.1278 113.987 60.8712L127.833 41.4932C130.506 37.7645 133.127 32.4257 130.042 29.0383C128.754 27.6601 126.867 27.1063 125.019 26.81C117.884 25.7603 110.709 28.3363 104.231 31.5563C74.3813 46.2266 50.0059 73.5902 31.4587 100.651C0.888032 145.287 4.28835 218.593 39.2382 254.522C74.1881 290.451 148.957 307.923 180.023 304.039C203.613 301.09 178.201 287.07 172.978 278.575C172.462 277.867 172.169 277.022 172.134 276.148C172.198 274.66 173.557 273.572 174.839 272.844C185.619 266.584 199.388 268.426 211.315 267.486C230.313 265.917 249.386 265.448 268.438 266.082C271.014 266.172 300.837 266.887 298.474 272.973C296.6 277.803 289.188 281.705 285.298 284.661C282.31 286.935 262.964 300.117 268.554 304.587C270.093 305.823 272.186 306.081 274.157 306.274C306.82 309.442 340.437 308.463 372.605 301.656C400.619 295.725 431.537 286.078 448.249 261.02C465.296 235.473 466.333 201.341 459.841 172.219C458.302 165.278 456.244 158.463 453.684 151.83C451.295 145.68 447.496 140.502 444.327 134.757C443.039 132.445 442.17 129.65 443.091 127.177C447.148 116.229 458.939 138.048 462.153 126.34C463.712 120.654 460.704 112.217 458.791 106.846C455.352 97.1864 449.524 88.4666 442.55 80.9833C429.206 66.6801 413.396 59.7764 397.025 50.1357Z" fill="#C49FD7"/>
<path d="M409.516 276.167C412.694 262.942 404.549 249.646 391.324 246.468C378.1 243.291 364.804 251.436 361.626 264.66C358.449 277.885 366.594 291.181 379.818 294.359C393.043 297.536 406.339 289.391 409.516 276.167Z" stroke="#263238" stroke-width="0.75" stroke-linecap="round" stroke-linejoin="round"/>
<path d="M385.556 287.205C394.835 287.205 402.358 279.683 402.358 270.404C402.358 261.124 394.835 253.602 385.556 253.602C376.276 253.602 368.754 261.124 368.754 270.404C368.754 279.683 376.276 287.205 385.556 287.205Z" stroke="#263238" stroke-width="0.75" stroke-linecap="round" stroke-linejoin="round"/>
<path d="M385.556 278.432C389.991 278.432 393.587 274.837 393.587 270.402C393.587 265.967 389.991 262.371 385.556 262.371C381.121 262.371 377.525 265.967 377.525 270.402C377.525 274.837 381.121 278.432 385.556 278.432Z" stroke="#263238" stroke-width="0.75" stroke-linecap="round" stroke-linejoin="round"/>
<path d="M385.555 270.403L415.172 247.605" stroke="#263238" stroke-width="0.75" stroke-linecap="round" stroke-linejoin="round"/>
<path d="M408.09 252.944L408.025 248.983L412.952 244.816L413.647 248.706L408.09 252.944Z" stroke="#263238" stroke-width="0.75" stroke-linecap="round" stroke-linejoin="round"/>
<path d="M413.648 248.707L417.396 250.581L411.98 254.329L408.09 252.945L413.648 248.707Z" stroke="#263238" stroke-width="0.75" stroke-linecap="round" stroke-linejoin="round"/>
<path d="M317.003 204.34C316.869 204.39 316.727 204.414 316.584 204.408C316.441 204.403 316.3 204.37 316.17 204.31C316.04 204.25 315.923 204.165 315.827 204.06C315.73 203.954 315.655 203.831 315.606 203.696L313.03 197.147C312.979 197.013 312.955 196.87 312.96 196.727C312.964 196.583 312.998 196.442 313.058 196.312C313.118 196.182 313.203 196.065 313.309 195.968C313.415 195.872 313.539 195.797 313.674 195.749C313.806 195.696 313.948 195.67 314.09 195.672C314.233 195.674 314.373 195.705 314.504 195.761C314.634 195.818 314.752 195.901 314.851 196.004C314.95 196.107 315.027 196.228 315.078 196.361L317.654 202.91C317.708 203.047 317.734 203.193 317.731 203.339C317.727 203.486 317.694 203.63 317.633 203.764C317.573 203.897 317.486 204.017 317.377 204.116C317.269 204.215 317.142 204.291 317.003 204.34Z" fill="#263238" stroke="#263238" stroke-linecap="round" stroke-linejoin="round"/>
<path d="M321.008 214.585C320.874 214.635 320.731 214.658 320.588 214.653C320.445 214.648 320.305 214.614 320.175 214.554C320.045 214.495 319.928 214.409 319.831 214.304C319.734 214.199 319.659 214.075 319.61 213.941L317.034 207.391C316.931 207.124 316.937 206.826 317.052 206.563C317.166 206.301 317.38 206.094 317.646 205.987C317.781 205.937 317.924 205.914 318.067 205.919C318.211 205.924 318.352 205.957 318.482 206.017C318.613 206.077 318.73 206.162 318.827 206.267C318.925 206.373 319.001 206.497 319.05 206.631L321.626 213.181C321.729 213.449 321.722 213.747 321.606 214.01C321.491 214.273 321.275 214.48 321.008 214.585Z" fill="#263238" stroke="#263238" stroke-linecap="round" stroke-linejoin="round"/>
<path d="M326.508 228.689C326.241 228.793 325.943 228.787 325.681 228.672C325.418 228.558 325.211 228.344 325.104 228.078L322.528 221.528C322.475 221.396 322.449 221.254 322.451 221.112C322.453 220.969 322.484 220.829 322.541 220.698C322.598 220.568 322.68 220.45 322.783 220.351C322.886 220.253 323.007 220.175 323.14 220.124C323.408 220.021 323.705 220.027 323.968 220.141C324.231 220.256 324.438 220.47 324.544 220.736L327.12 227.292C327.223 227.558 327.217 227.855 327.102 228.117C326.988 228.379 326.774 228.585 326.508 228.689Z" fill="#263238" stroke="#263238" stroke-linecap="round" stroke-linejoin="round"/>
<path d="M346.382 291.898L298.249 310.722C297.09 311.174 295.798 311.148 294.658 310.648C293.518 310.148 292.623 309.215 292.17 308.056L255.024 213.008C254.572 211.848 254.598 210.556 255.098 209.416C255.598 208.276 256.531 207.381 257.69 206.929L305.823 188.104C306.397 187.879 307.011 187.77 307.628 187.782C308.245 187.794 308.853 187.928 309.418 188.176C309.984 188.423 310.495 188.78 310.922 189.225C311.349 189.671 311.684 190.196 311.909 190.771L349.048 285.812C349.499 286.973 349.472 288.265 348.972 289.406C348.472 290.546 347.541 291.442 346.382 291.898Z" fill="#263238" stroke="#263238" stroke-linecap="round" stroke-linejoin="round"/>
<path d="M308.947 195.814L260.588 214.727L295.101 302.976L343.46 284.063L308.947 195.814Z" fill="white" stroke="#263238" stroke-linecap="round" stroke-linejoin="round"/>
<path d="M290.504 266.495L285.508 268.449L290.645 281.584L295.641 279.63L290.504 266.495Z" fill="#263238" stroke="#263238" stroke-linecap="round" stroke-linejoin="round"/>
<path d="M297.199 262.48L292.203 264.434L297.814 278.78L302.81 276.826L297.199 262.48Z" fill="#BA68C8" stroke="#263238" stroke-linecap="round" stroke-linejoin="round"/>
<path d="M302.301 254.433L297.305 256.387L304.97 275.987L309.966 274.033L302.301 254.433Z" fill="#263238" stroke="#263238" stroke-linecap="round" stroke-linejoin="round"/>
<path d="M306.226 243.347L301.23 245.301L312.135 273.184L317.131 271.23L306.226 243.347Z" fill="#BA68C8" stroke="#263238" stroke-linecap="round" stroke-linejoin="round"/>
<path d="M315.609 246.202L310.613 248.156L319.306 270.383L324.302 268.43L315.609 246.202Z" fill="#263238" stroke="#263238" stroke-linecap="round" stroke-linejoin="round"/>
<path d="M317.24 229.249L312.244 231.203L326.468 267.573L331.464 265.619L317.24 229.249Z" fill="#BA68C8" stroke="#263238" stroke-linecap="round" stroke-linejoin="round"/>
<path d="M289.619 283.165L333.463 266.016" stroke="#263238" stroke-linecap="round" stroke-linejoin="round"/>
<path d="M282.652 262.357L294.257 251.532L299.216 235.619L306.48 233.938L310.293 221.695" stroke="#263238" stroke-linecap="round" stroke-linejoin="round"/>
<path d="M312.032 224.129L310.055 222.454L307.479 222.712L311.439 218.023L312.032 224.129Z" fill="#263238"/>
<path d="M291.174 226.097C292.144 221.159 288.928 216.369 283.99 215.398C279.051 214.427 274.261 217.644 273.291 222.582C272.32 227.52 275.536 232.31 280.475 233.281C285.413 234.252 290.203 231.035 291.174 226.097Z" fill="#263238" stroke="#263238" stroke-linecap="round" stroke-linejoin="round"/>
<path d="M283.637 227.976H283.605C283.408 228.047 283.196 228.069 282.988 228.039C282.781 228.01 282.583 227.931 282.413 227.808L276.559 223.571C276.283 223.37 276.097 223.067 276.043 222.73C275.99 222.392 276.072 222.047 276.273 221.771C276.474 221.494 276.776 221.308 277.114 221.254C277.451 221.201 277.796 221.283 278.073 221.484L282.381 224.607L285.601 211.972C285.687 211.641 285.9 211.357 286.195 211.183C286.49 211.009 286.841 210.959 287.173 211.045C287.504 211.13 287.788 211.344 287.962 211.638C288.136 211.933 288.185 212.285 288.1 212.616L284.442 227.093C284.389 227.294 284.288 227.48 284.148 227.633C284.008 227.787 283.832 227.904 283.637 227.976Z" fill="#BA68C8"/>
<path d="M141.597 127.906C139.497 115.741 143.902 101.29 141.532 89.2341C140.811 85.5826 144.585 79.6772 140.309 77.1076C140.251 78.3119 140.199 79.5161 140.148 80.7204C137.675 77.0045 140.463 73.4819 139.748 69.8368C137.99 69.7724 137.114 69.7338 136.29 68.4973C136.187 70.9123 136.934 74.5638 135.923 76.9401L133.295 76.8435C132.523 74.3963 134.435 70.8479 133.663 68.4007L130.153 68.2719C129.277 68.2397 129.335 67.029 129.386 65.8247C129.335 67.029 129.225 69.444 129.174 70.6483L125.671 70.5195C124.788 70.5195 124.846 69.283 124.898 68.0787C123.146 68.0143 121.446 66.7392 120.519 67.9177C120.461 69.122 120.409 70.3263 120.358 71.537C119.714 66.6748 115.412 64.0988 112.784 64.0022C113.608 65.2451 110.981 65.1485 111.805 66.385C111.29 65.6122 110.736 64.8329 110.169 64.131C110.169 63.8863 110.169 63.6415 110.169 63.4033C109.77 61.2072 108.881 61.7031 107.896 61.9092C106.608 61.0462 105.436 61.2652 104.889 63.7124C104.457 67.7696 104.097 71.8461 103.768 75.9484C103.568 75.8944 103.357 75.8946 103.156 75.9489C102.956 76.0032 102.774 76.1097 102.628 76.2575C102.577 77.5455 102.467 80.1923 102.416 81.5061C100.612 82.749 98.9638 80.0507 97.1606 81.2936C95.3574 82.5365 96.3106 87.8302 95.087 89.0924C94.546 90.6895 94.1725 90.5221 93.9278 89.4981C94.1854 85.6341 95.6859 80.6174 93.2838 78.299L93.1292 82.2274C93.0906 82.1308 93.0584 82.0342 93.0262 81.9376C93.0262 81.0875 93.1807 79.851 92.5432 79.7995C92.2147 76.6504 93.3546 73.5527 93.0133 70.4035C91.8476 70.352 91.2616 70.3327 90.7335 68.9932C90.624 71.6207 91.0555 75.5749 90.36 78.1766L88.6083 78.1058C88.1318 75.4589 89.4584 71.5692 88.9818 68.9223L86.6377 68.8322C86.0581 68.8322 86.1096 67.4927 86.1611 66.1853C86.1096 67.4733 86.0066 70.1202 85.9486 71.4339L83.6173 71.3373C83.0313 71.3373 83.0828 70.0043 83.1343 68.6905C81.9687 68.6454 80.8481 67.2866 80.217 68.5746C80.159 69.8626 80.1075 71.1957 80.056 72.5094C79.6825 67.2351 76.8682 64.4981 75.1101 64.4272C75.6446 65.7603 73.8929 65.7152 74.421 67.0032C72.914 63.2036 70.879 59.3911 69.9903 63.4483C66.1263 60.4988 59.8988 64.2727 56.9815 71.7366L54.2638 71.6465C56.0928 61.6967 49.0603 66.4623 45.7244 65.097C45.5671 70.2385 44.4031 75.2992 42.2983 79.9927L42.0922 85.0095C40.714 114.305 40.7398 141.913 38.1252 170.449C40.3083 152.089 41.7702 134.874 41.9892 116.417C42.4271 116.572 42.9616 116.984 43.3544 116.327C45.866 135.184 39.6064 152.488 40.7784 171.293L38.0801 171.202C37.4361 177.791 36.7084 184.424 35.7617 191.166C35.6329 193.968 36.7985 196.415 38.3055 198.482C43.9469 178.731 44.4943 156.938 46.7226 136.253C46.3104 144.998 46.5229 155.012 44.7519 163.713C42.8199 176.155 42.9552 187.425 40.392 198.598C40.2246 199.197 40.0572 199.809 39.8833 200.414C40.6239 201.239 41.3645 201.979 42.0278 202.643C45.3058 205.219 50.0005 206.667 53.6198 201.786C53.6842 200.537 53.8001 198.038 53.8001 198.038C55.1654 197.594 56.5951 197.922 57.9668 198.27C59.0745 190.213 60.0212 182.17 61.0194 174.094C61.8694 163.99 63.0608 154.046 65.3792 144.399C63.5632 154.285 62.2494 164.189 61.0194 174.094C60.3754 182.176 59.8859 190.361 59.2548 198.566C60.8584 198.894 62.3074 198.869 63.37 197.111C65.5209 194.683 63.898 185.866 64.8125 180.888C65.4565 178.312 65.9653 175.678 66.4032 173.012C66.3066 183.168 66.2164 193.292 66.0683 203.351C66.5449 205.998 67.7685 204.729 68.9341 204.774C69.1466 199.532 68.7731 194.264 70.0998 190.374C70.1513 189.086 72.386 191.778 73.6096 190.516L73.8156 185.261C75.6188 184.024 77.2675 186.716 79.0771 185.473C80.8868 184.231 79.9208 178.943 81.1444 177.675C81.6853 176.078 82.0588 176.245 82.3036 177.269C82.0524 181.133 80.5454 186.15 82.9476 188.475C82.9991 187.187 83.057 185.853 83.1086 184.54C83.1472 184.636 83.173 184.739 83.2052 184.836C83.2052 185.68 83.0506 186.916 83.6882 186.968C84.0166 190.123 82.8767 193.214 83.218 196.37C84.3901 196.415 84.9697 196.441 85.5042 197.774C85.6073 195.153 85.1822 191.192 85.8713 188.59L87.623 188.661C88.106 191.308 86.7794 195.198 87.2559 197.845L89.5936 197.941C90.1797 197.941 90.1217 199.274 90.0702 200.588C90.1217 199.3 90.2312 196.653 90.2827 195.34L92.6205 195.436C93.2065 195.436 93.155 196.769 93.097 198.083C94.2691 198.128 95.3832 199.487 96.0208 198.199L96.1753 194.264C96.5553 199.532 99.3953 202.275 101.121 202.346C100.587 201.007 102.345 201.058 101.81 199.77C103.407 203.776 105.584 207.807 106.376 202.585C106.975 194.979 107.452 187.328 107.851 179.652C108.386 179.085 111.367 181.114 113.003 180.07L113.209 175.247C115.888 174.139 118.413 176.644 121.098 175.537C123.784 174.429 122.238 169.534 124.041 168.395C125.973 164.84 126.566 170.906 126.405 174.525C128.214 173.386 126.302 176.934 128.053 177.005C131.563 177.134 135.066 177.262 137.907 172.536C138.84 171.357 141.416 172.664 143.168 172.729C143.793 158.194 144.475 142.506 141.597 127.906Z" fill="#BA68C8"/>
<path d="M401.941 62.7711L202.434 21.6367L198.114 42.5897L397.621 83.7241L401.941 62.7711Z" stroke="#263238" stroke-linecap="round" stroke-linejoin="round"/>
<path d="M203.504 43.4987L204.953 36.4727" stroke="#263238" stroke-linecap="round" stroke-linejoin="round"/>
<path d="M209.236 44.6809L210.685 37.6484" stroke="#263238" stroke-linecap="round" stroke-linejoin="round"/>
<path d="M214.967 45.8606L216.416 38.8281" stroke="#263238" stroke-linecap="round" stroke-linejoin="round"/>
<path d="M220.699 47.0442L222.148 40.0117" stroke="#263238" stroke-linecap="round" stroke-linejoin="round"/>
<path d="M226.43 48.2245L228.896 36.2461" stroke="#263238" stroke-linecap="round" stroke-linejoin="round"/>
<path d="M232.162 49.4075L233.611 42.375" stroke="#263238" stroke-linecap="round" stroke-linejoin="round"/>
<path d="M237.887 50.5872L239.342 43.5547" stroke="#263238" stroke-linecap="round" stroke-linejoin="round"/>
<path d="M243.619 51.7708L245.068 44.7383" stroke="#263238" stroke-linecap="round" stroke-linejoin="round"/>
<path d="M249.35 52.9504L250.799 45.918" stroke="#263238" stroke-linecap="round" stroke-linejoin="round"/>
<path d="M255.082 54.1372L257.555 42.1523" stroke="#263238" stroke-linecap="round" stroke-linejoin="round"/>
<path d="M260.814 55.3137L262.263 48.2812" stroke="#263238" stroke-linecap="round" stroke-linejoin="round"/>
<path d="M266.545 56.4973L267.994 49.4648" stroke="#263238" stroke-linecap="round" stroke-linejoin="round"/>
<path d="M272.277 57.677L273.726 50.6445" stroke="#263238" stroke-linecap="round" stroke-linejoin="round"/>
<path d="M278.002 58.8645L279.457 51.832" stroke="#263238" stroke-linecap="round" stroke-linejoin="round"/>
<path d="M283.734 60.0409L286.207 48.0625" stroke="#263238" stroke-linecap="round" stroke-linejoin="round"/>
<path d="M289.465 61.2213L290.914 54.1953" stroke="#263238" stroke-linecap="round" stroke-linejoin="round"/>
<path d="M295.197 62.4036L296.646 55.3711" stroke="#263238" stroke-linecap="round" stroke-linejoin="round"/>
<path d="M300.928 63.5846L302.377 56.5586" stroke="#263238" stroke-linecap="round" stroke-linejoin="round"/>
<path d="M306.66 64.7669L308.109 57.7344" stroke="#263238" stroke-linecap="round" stroke-linejoin="round"/>
<path d="M312.391 65.9471L314.857 53.9688" stroke="#263238" stroke-linecap="round" stroke-linejoin="round"/>
<path d="M318.117 67.1301L319.573 60.0977" stroke="#263238" stroke-linecap="round" stroke-linejoin="round"/>
<path d="M323.848 68.3098L325.297 61.2773" stroke="#263238" stroke-linecap="round" stroke-linejoin="round"/>
<path d="M329.58 69.4934L331.029 62.4609" stroke="#263238" stroke-linecap="round" stroke-linejoin="round"/>
<path d="M335.311 70.6731L336.76 63.6406" stroke="#263238" stroke-linecap="round" stroke-linejoin="round"/>
<path d="M341.043 71.8573L343.509 59.8789" stroke="#263238" stroke-linecap="round" stroke-linejoin="round"/>
<path d="M346.775 73.0364L348.224 66.0039" stroke="#263238" stroke-linecap="round" stroke-linejoin="round"/>
<path d="M352.506 74.2239L353.955 67.1914" stroke="#263238" stroke-linecap="round" stroke-linejoin="round"/>
<path d="M358.238 75.3997L359.687 68.3672" stroke="#263238" stroke-linecap="round" stroke-linejoin="round"/>
<path d="M363.963 76.5872L365.418 69.5547" stroke="#263238" stroke-linecap="round" stroke-linejoin="round"/>
<path d="M369.695 77.7636L372.168 65.7852" stroke="#263238" stroke-linecap="round" stroke-linejoin="round"/>
<path d="M375.426 78.9504L376.875 71.918" stroke="#263238" stroke-linecap="round" stroke-linejoin="round"/>
<path d="M381.158 80.1262L382.607 73.0938" stroke="#263238" stroke-linecap="round" stroke-linejoin="round"/>
<path d="M386.889 81.3137L388.338 74.2812" stroke="#263238" stroke-linecap="round" stroke-linejoin="round"/>
<path d="M392.1 82.3801L393.549 75.3477" stroke="#263238" stroke-linecap="round" stroke-linejoin="round"/>
<path d="M236.78 78.108L223.191 76.0472L234.352 67.9264L330.836 44.9034C331.296 44.7933 331.774 44.7751 332.242 44.8499C332.709 44.9246 333.158 45.0909 333.561 45.3392C333.964 45.5874 334.314 45.9128 334.591 46.2966C334.869 46.6805 335.068 47.1152 335.177 47.576L335.936 50.7445C336.159 51.6745 336.004 52.6549 335.504 53.4701C335.004 54.2852 334.2 54.8685 333.27 55.0915L236.78 78.108Z" fill="#BA68C8" stroke="#263238" stroke-linecap="round" stroke-linejoin="round"/>
<path d="M234.655 67.8516L234.352 67.9288L223.191 76.0497L236.78 78.1105L237.082 78.0396L234.655 67.8516Z" fill="white" stroke="#263238" stroke-linecap="round" stroke-linejoin="round"/>
<path d="M230.211 70.9414L223.191 76.0483L231.737 77.3428L230.211 70.9414Z" fill="#263238" stroke="#263238" stroke-linecap="round" stroke-linejoin="round"/>
<path d="M335.183 47.5743L335.94 50.7502C336.162 51.6806 336.006 52.6611 335.505 53.4759C335.004 54.2907 334.2 54.8732 333.27 55.0952L319.012 58.497L316.581 48.3052L330.869 44.8959C331.796 44.6835 332.769 44.8458 333.577 45.3474C334.385 45.849 334.962 46.6494 335.183 47.5743Z" fill="#263238" stroke="#263238" stroke-linecap="round" stroke-linejoin="round"/>
<path d="M321.561 47.112L319.656 47.5664L322.087 57.7519L323.991 57.2976L321.561 47.112Z" fill="white" stroke="#263238" stroke-linecap="round" stroke-linejoin="round"/>
<path d="M335.177 47.5696L335.935 50.7455C336.157 51.6758 336 52.6563 335.499 53.4711C334.998 54.286 334.194 54.8684 333.264 55.0904L325.935 56.8392L323.504 46.6536L330.84 44.9034C331.77 44.6814 332.751 44.8381 333.565 45.339C334.38 45.8399 334.963 46.644 335.185 47.5743L335.177 47.5696Z" fill="#9C9C9C" stroke="#263238" stroke-linecap="round" stroke-linejoin="round"/>
<path d="M316.791 52.0078L265.49 64.2438" stroke="#263238" stroke-linecap="round" stroke-linejoin="round"/>
<path d="M252.737 67.2891L235.678 71.3591" stroke="#263238" stroke-linecap="round" stroke-linejoin="round"/>
<path d="M182.381 264.337H168.014V209.34H177.171V211.233C177.171 211.561 177.302 211.876 177.534 212.108C177.765 212.339 178.08 212.47 178.408 212.47C178.736 212.47 179.05 212.339 179.282 212.108C179.514 211.876 179.644 211.561 179.644 211.233V209.346H190.219V211.233C190.241 211.545 190.381 211.836 190.61 212.049C190.839 212.262 191.14 212.381 191.452 212.381C191.765 212.381 192.065 212.262 192.294 212.049C192.523 211.836 192.663 211.545 192.685 211.233V209.346H203.26V211.233C203.282 211.545 203.422 211.836 203.651 212.049C203.88 212.262 204.181 212.381 204.493 212.381C204.806 212.381 205.106 212.262 205.335 212.049C205.564 211.836 205.704 211.545 205.726 211.233V209.346H216.301V211.233C216.323 211.545 216.463 211.836 216.692 212.049C216.921 212.262 217.222 212.381 217.534 212.381C217.847 212.381 218.147 212.262 218.376 212.049C218.605 211.836 218.745 211.545 218.767 211.233V209.346H229.342V211.233C229.342 211.561 229.472 211.876 229.704 212.108C229.936 212.339 230.25 212.47 230.578 212.47C230.906 212.47 231.221 212.339 231.453 212.108C231.684 211.876 231.815 211.561 231.815 211.233V209.346H240.966V221.067" stroke="#263238" stroke-width="0.75" stroke-linecap="round" stroke-linejoin="round"/>
<path d="M240.966 226.484V264.339H188.893" stroke="#263238" stroke-width="0.75" stroke-linecap="round" stroke-linejoin="round"/>
<path d="M184.229 224.391H176.121V232.499H184.229V224.391Z" stroke="#263238" stroke-width="0.75" stroke-linecap="round" stroke-linejoin="round"/>
<path d="M196.389 224.391H188.281V232.499H196.389V224.391Z" stroke="#263238" stroke-width="0.75" stroke-linecap="round" stroke-linejoin="round"/>
<path d="M208.547 224.391H200.439V232.499H208.547V224.391Z" stroke="#263238" stroke-width="0.75" stroke-linecap="round" stroke-linejoin="round"/>
<path d="M220.706 224.391H212.598V232.499H220.706V224.391Z" stroke="#263238" stroke-width="0.75" stroke-linecap="round" stroke-linejoin="round"/>
<path d="M232.864 224.391H224.756V232.499H232.864V224.391Z" stroke="#263238" stroke-width="0.75" stroke-linecap="round" stroke-linejoin="round"/>
<path d="M184.229 237.707H176.121V245.815H184.229V237.707Z" stroke="#263238" stroke-width="0.75" stroke-linecap="round" stroke-linejoin="round"/>
<path d="M196.389 237.707H188.281V245.815H196.389V237.707Z" stroke="#263238" stroke-width="0.75" stroke-linecap="round" stroke-linejoin="round"/>
<path d="M208.547 237.707H200.439V245.815H208.547V237.707Z" stroke="#263238" stroke-width="0.75" stroke-linecap="round" stroke-linejoin="round"/>
<path d="M220.706 237.707H212.598V245.815H220.706V237.707Z" stroke="#263238" stroke-width="0.75" stroke-linecap="round" stroke-linejoin="round"/>
<path d="M232.864 237.707H224.756V245.815H232.864V237.707Z" stroke="#263238" stroke-width="0.75" stroke-linecap="round" stroke-linejoin="round"/>
<path d="M184.229 251.02H176.121V259.127H184.229V251.02Z" stroke="#263238" stroke-width="0.75" stroke-linecap="round" stroke-linejoin="round"/>
<path d="M196.389 251.02H188.281V259.127H196.389V251.02Z" stroke="#263238" stroke-width="0.75" stroke-linecap="round" stroke-linejoin="round"/>
<path d="M208.547 251.02H200.439V259.127H208.547V251.02Z" stroke="#263238" stroke-width="0.75" stroke-linecap="round" stroke-linejoin="round"/>
<path d="M220.706 251.02H212.598V259.127H220.706V251.02Z" stroke="#263238" stroke-width="0.75" stroke-linecap="round" stroke-linejoin="round"/>
<path d="M232.864 251.02H224.756V259.127H232.864V251.02Z" stroke="#263238" stroke-width="0.75" stroke-linecap="round" stroke-linejoin="round"/>
<path d="M179.676 204.151V211.235C179.676 211.562 179.546 211.877 179.314 212.109C179.082 212.341 178.768 212.471 178.44 212.471C178.112 212.471 177.797 212.341 177.565 212.109C177.333 211.877 177.203 211.562 177.203 211.235V204.151C177.203 203.988 177.235 203.827 177.297 203.677C177.359 203.527 177.45 203.391 177.565 203.276C177.68 203.161 177.816 203.07 177.966 203.008C178.116 202.946 178.277 202.914 178.44 202.914C178.602 202.914 178.763 202.946 178.913 203.008C179.063 203.07 179.199 203.161 179.314 203.276C179.429 203.391 179.52 203.527 179.582 203.677C179.644 203.827 179.676 203.988 179.676 204.151Z" stroke="#263238" stroke-width="0.75" stroke-linecap="round" stroke-linejoin="round"/>
<path d="M192.685 204.15V211.234C192.662 211.546 192.522 211.837 192.294 212.05C192.065 212.263 191.764 212.381 191.451 212.381C191.139 212.381 190.838 212.263 190.609 212.05C190.38 211.837 190.241 211.546 190.218 211.234V204.15C190.206 203.98 190.229 203.81 190.285 203.65C190.341 203.49 190.43 203.343 190.546 203.218C190.662 203.094 190.802 202.995 190.958 202.927C191.113 202.859 191.281 202.824 191.451 202.824C191.621 202.824 191.789 202.859 191.945 202.927C192.101 202.995 192.241 203.094 192.357 203.218C192.472 203.343 192.561 203.49 192.618 203.65C192.674 203.81 192.697 203.98 192.685 204.15Z" stroke="#263238" stroke-width="0.75" stroke-linecap="round" stroke-linejoin="round"/>
<path d="M205.726 204.15V211.234C205.703 211.546 205.563 211.837 205.335 212.05C205.106 212.263 204.805 212.381 204.492 212.381C204.18 212.381 203.879 212.263 203.65 212.05C203.421 211.837 203.282 211.546 203.259 211.234V204.15C203.247 203.98 203.27 203.81 203.326 203.65C203.382 203.49 203.471 203.343 203.587 203.218C203.703 203.094 203.843 202.995 203.999 202.927C204.154 202.859 204.322 202.824 204.492 202.824C204.662 202.824 204.83 202.859 204.986 202.927C205.142 202.995 205.282 203.094 205.398 203.218C205.513 203.343 205.602 203.49 205.659 203.65C205.715 203.81 205.738 203.98 205.726 204.15Z" stroke="#263238" stroke-width="0.75" stroke-linecap="round" stroke-linejoin="round"/>
<path d="M218.767 204.15V211.234C218.744 211.546 218.604 211.837 218.376 212.05C218.147 212.263 217.846 212.381 217.533 212.381C217.221 212.381 216.92 212.263 216.691 212.05C216.462 211.837 216.323 211.546 216.3 211.234V204.15C216.288 203.98 216.311 203.81 216.367 203.65C216.423 203.49 216.512 203.343 216.628 203.218C216.744 203.094 216.884 202.995 217.04 202.927C217.195 202.859 217.363 202.824 217.533 202.824C217.703 202.824 217.871 202.859 218.027 202.927C218.183 202.995 218.323 203.094 218.439 203.218C218.554 203.343 218.643 203.49 218.7 203.65C218.756 203.81 218.779 203.98 218.767 204.15Z" stroke="#263238" stroke-width="0.75" stroke-linecap="round" stroke-linejoin="round"/>
<path d="M231.84 204.151V211.235C231.84 211.562 231.71 211.877 231.478 212.109C231.246 212.341 230.932 212.471 230.604 212.471C230.276 212.471 229.961 212.341 229.729 212.109C229.497 211.877 229.367 211.562 229.367 211.235V204.151C229.367 203.988 229.399 203.827 229.461 203.677C229.523 203.527 229.615 203.391 229.729 203.276C229.844 203.161 229.98 203.07 230.13 203.008C230.28 202.946 230.441 202.914 230.604 202.914C230.766 202.914 230.927 202.946 231.077 203.008C231.227 203.07 231.363 203.161 231.478 203.276C231.593 203.391 231.684 203.527 231.746 203.677C231.808 203.827 231.84 203.988 231.84 204.151Z" stroke="#263238" stroke-width="0.75" stroke-linecap="round" stroke-linejoin="round"/>
<path d="M270.312 90.9311V82.25" stroke="#263238" stroke-linecap="round" stroke-linejoin="round"/>
<path d="M289.973 90.9311V82.25" stroke="#263238" stroke-linecap="round" stroke-linejoin="round"/>
<path d="M269.049 86.4492H291.363" stroke="#263238" stroke-linecap="round" stroke-linejoin="round"/>
<path d="M193.721 92.9102H202.402" stroke="#263238" stroke-linecap="round" stroke-linejoin="round"/>
<path d="M193.721 168.398H202.402" stroke="#263238" stroke-linecap="round" stroke-linejoin="round"/>
<path d="M198.203 88.0664V173.725" stroke="#263238" stroke-linecap="round" stroke-linejoin="round"/>
<path d="M205.391 178.865V170.184" stroke="#263238" stroke-linecap="round" stroke-linejoin="round"/>
<path d="M221.072 178.865V170.184" stroke="#263238" stroke-linecap="round" stroke-linejoin="round"/>
<path d="M251.791 178.865V170.184" stroke="#263238" stroke-linecap="round" stroke-linejoin="round"/>
<path d="M234.428 178.865V170.184" stroke="#263238" stroke-linecap="round" stroke-linejoin="round"/>
<path d="M202.414 174.379H255.061" stroke="#263238" stroke-linecap="round" stroke-linejoin="round"/>
<path d="M311.496 178.865V170.184" stroke="#263238" stroke-linecap="round" stroke-linejoin="round"/>
<path d="M325.412 178.865V170.184" stroke="#263238" stroke-linecap="round" stroke-linejoin="round"/>
<path d="M352.68 178.865V170.184" stroke="#263238" stroke-linecap="round" stroke-linejoin="round"/>
<path d="M341.242 178.865V170.184" stroke="#263238" stroke-linecap="round" stroke-linejoin="round"/>
<path d="M308.855 174.379H355.578" stroke="#263238" stroke-linecap="round" stroke-linejoin="round"/>
<path d="M149.557 168.73V93.0473H169.269C172.351 93.0356 175.427 93.2855 178.466 93.7943C181.203 94.2277 183.829 95.1949 186.194 96.6408C188.483 98.0975 190.313 100.171 191.475 102.624C192.763 105.2 193.407 108.608 193.407 112.85C193.486 115.491 193.025 118.121 192.054 120.578C191.226 122.554 189.893 124.277 188.19 125.576C186.437 126.866 184.405 127.728 182.259 128.094C184.93 128.369 187.478 129.354 189.639 130.947C191.671 132.537 193.23 134.653 194.147 137.065C195.248 140.02 195.773 143.159 195.693 146.313C195.769 149.755 195.246 153.185 194.147 156.449C193.248 159.09 191.726 161.475 189.71 163.404C187.671 165.276 185.226 166.651 182.568 167.423C179.395 168.333 176.105 168.767 172.805 168.711L149.557 168.73ZM166.301 123.328H169.566C172.142 123.328 174.074 122.942 175.362 122.163C176.65 121.407 177.601 120.188 178.021 118.756C178.524 116.993 178.76 115.166 178.723 113.333C178.781 111.604 178.411 109.888 177.648 108.336C176.942 107.01 175.829 105.947 174.473 105.303C172.813 104.565 171.008 104.213 169.192 104.272H166.281L166.301 123.328ZM166.301 157.054H169.849C173.52 157.054 176.057 156.121 177.461 154.253C178.865 152.385 179.565 149.644 179.561 146.029C179.643 143.719 179.327 141.412 178.627 139.209C178.096 137.639 176.998 136.323 175.548 135.519C173.74 134.664 171.751 134.264 169.752 134.353H166.281L166.301 157.054Z" fill="#263238"/>
<path d="M204.484 168.73V93.0469H225.318C229.798 92.9647 234.266 93.5309 238.584 94.7277C242.085 95.6947 245.155 97.8167 247.298 100.749C249.384 103.647 250.427 107.743 250.427 113.037C250.456 115.826 250.206 118.611 249.68 121.351C249.241 123.631 248.3 125.785 246.924 127.655C245.396 129.577 243.425 131.1 241.18 132.093L251.567 168.73H234.282L225.968 134.823H221.209V168.73H204.484ZM221.228 125.202H225.897C228.261 125.202 230.103 124.777 231.41 123.914C232.726 123.058 233.701 121.768 234.166 120.269C234.734 118.408 235.001 116.469 234.958 114.524C234.958 111.287 234.366 108.765 233.181 106.957C231.996 105.15 229.817 104.246 226.644 104.246H221.228V125.202Z" fill="#263238"/>
<path d="M256.885 168.73L271.182 93.0664H290.238L304.341 168.73H288.93L286.406 152.759H275.29L272.676 168.73H256.885ZM276.784 142.764H284.815L280.784 113.224L276.784 142.764Z" fill="#263238"/>
<path d="M311.252 168.73V93.0469H323.024L338.532 129.478V93.0469H352.358V168.73H341.056L325.549 129.497V168.73H311.252Z" fill="#263238"/>
<path d="M363.66 168.73V93.0469H382.806C389.409 93.0469 394.549 93.8712 398.224 95.5198C401.707 96.9924 404.479 99.7646 405.952 103.248C407.454 106.764 408.203 111.326 408.199 116.933V144.399C408.199 150.067 407.45 154.691 405.952 158.271C404.502 161.807 401.729 164.638 398.224 166.16C394.609 167.873 389.532 168.73 382.993 168.73H363.66ZM380.404 157.138H383.019C385.595 157.138 387.432 156.764 388.531 156.017C389.096 155.633 389.574 155.136 389.935 154.557C390.297 153.979 390.534 153.331 390.631 152.656C390.943 150.805 391.085 148.929 391.056 147.053V114.061C391.098 112.241 390.925 110.423 390.541 108.645C390.407 108.019 390.143 107.429 389.764 106.914C389.386 106.399 388.902 105.97 388.345 105.656C387.224 105.012 385.414 104.723 382.929 104.723H380.404V157.138Z" fill="#263238"/>
<path d="M50.8379 168.73V93.047H71.6713C76.1514 92.9644 80.6198 93.5305 84.9377 94.7278C88.4452 95.6909 91.5232 97.8133 93.6703 100.749C95.7569 103.647 96.8002 107.743 96.8002 113.037C96.829 115.826 96.5788 118.611 96.0531 121.351C95.617 123.632 94.6752 125.786 93.2968 127.656C91.7701 129.578 89.7986 131.101 87.5523 132.093L97.9207 168.73H80.6358L72.3282 134.823H67.5626V168.73H50.8379ZM67.5819 125.202H72.2509C74.6144 125.202 76.4562 124.777 77.7635 123.914C79.0797 123.058 80.0548 121.768 80.5198 120.269C81.087 118.408 81.3544 116.469 81.312 114.524C81.312 111.287 80.7195 108.765 79.5345 106.957C78.3496 105.15 76.1707 104.246 72.9979 104.246H67.5819V125.202Z" fill="white" stroke="#B2B2B2" stroke-linecap="round" stroke-linejoin="round"/>
<path d="M106.512 168.73V93.0469H140.515V104.439H123.236V123.218H136.406V134.81H123.236V157.415H140.702V168.73H106.512Z" fill="white" stroke="#B2B2B2" stroke-linecap="round" stroke-linejoin="round"/>
<path d="M449.956 113.26C449.956 113.26 452.332 108.507 453.125 107.136C453.917 105.764 452.191 103.967 450.027 104.186C449.139 104.318 448.294 104.653 447.557 105.164C446.82 105.676 446.211 106.35 445.777 107.136C445.345 108.076 444.624 109.37 444.624 109.37L444.334 110.658C444.334 110.658 446.91 108.926 448.153 109.576C449.396 110.227 449.441 113.247 449.441 113.247L449.956 113.26Z" fill="white" stroke="#263238" stroke-linecap="round" stroke-linejoin="round"/>
<path d="M482.799 23.8286L461.586 68.329C461.586 68.329 461.032 73.8867 460.478 76.9457C459.925 80.0047 455.751 84.8734 455.751 84.8734L441.017 109.062L442.124 110.865C442.124 110.865 446.021 107.948 447.689 107.394C449.357 106.84 450.187 107.394 451.16 108.785C452.132 110.176 449.08 114.897 449.08 114.897L447.148 117.956C447.148 117.956 448.436 119.624 448.262 120.596C448.088 121.568 443.11 127.274 442.144 127.963C441.178 128.652 436.863 129.638 436.863 129.638C436.863 129.638 441.732 132.69 442.704 135.337C443.676 137.984 441.59 138.808 440.064 138.673C438.537 138.538 422.128 134.777 421.291 133.946C420.454 133.115 413.093 127.274 410.987 125.465C408.881 123.655 408.482 115.161 408.482 114.201C408.482 113.242 408.07 100.162 407.793 98.1011C407.516 96.0403 408.347 92.1248 411.013 90.4569C413.679 88.7889 422.135 78.3625 422.135 78.3625C422.135 78.3625 434.925 60.7169 435.659 59.21C436.393 57.703 445.963 17.0859 445.963 17.0859" fill="white"/>
<path d="M482.799 23.8286L461.586 68.329C461.586 68.329 461.032 73.8867 460.478 76.9457C459.925 80.0047 455.751 84.8734 455.751 84.8734L441.017 109.062L442.124 110.865C442.124 110.865 446.021 107.948 447.689 107.394C449.357 106.84 450.187 107.394 451.16 108.785C452.132 110.176 449.08 114.897 449.08 114.897L447.148 117.956C447.148 117.956 448.436 119.624 448.262 120.596C448.088 121.568 443.11 127.274 442.144 127.963C441.178 128.652 436.863 129.638 436.863 129.638C436.863 129.638 441.732 132.69 442.704 135.337C443.676 137.984 441.59 138.808 440.064 138.673C438.537 138.538 422.128 134.777 421.291 133.946C420.454 133.115 413.093 127.274 410.987 125.465C408.881 123.655 408.482 115.161 408.482 114.201C408.482 113.242 408.07 100.162 407.793 98.1011C407.516 96.0403 408.347 92.1248 411.013 90.4569C413.679 88.7889 422.135 78.3625 422.135 78.3625C422.135 78.3625 434.925 60.7169 435.659 59.21C436.393 57.703 445.963 17.0859 445.963 17.0859" stroke="#263238" stroke-linecap="round" stroke-linejoin="round"/>
<path d="M426.792 127.475L446.994 122.361C447.489 122.233 448.005 122.205 448.511 122.278C449.018 122.35 449.505 122.523 449.944 122.785C450.383 123.048 450.765 123.395 451.069 123.806C451.373 124.218 451.593 124.685 451.715 125.182L476.721 224.435C476.849 224.931 476.878 225.446 476.805 225.953C476.732 226.459 476.56 226.946 476.297 227.385C476.035 227.824 475.688 228.207 475.276 228.511C474.865 228.815 474.397 229.034 473.9 229.156L453.698 234.244C453.203 234.372 452.687 234.4 452.181 234.327C451.674 234.255 451.187 234.082 450.748 233.82C450.309 233.557 449.927 233.21 449.623 232.799C449.319 232.387 449.099 231.92 448.978 231.423L423.977 132.189C423.85 131.694 423.822 131.18 423.895 130.675C423.968 130.169 424.14 129.683 424.402 129.245C424.663 128.807 425.009 128.425 425.42 128.121C425.83 127.817 426.296 127.597 426.792 127.475Z" fill="white"/>
<path d="M459.136 154.68L431.396 161.668L435.21 176.806L462.95 169.817L459.136 154.68Z" fill="#263238"/>
<path d="M454.55 136.465L426.811 143.453L430.624 158.591L458.364 151.602L454.55 136.465Z" fill="#263238"/>
<path d="M468.31 191.094L440.57 198.082L444.384 213.22L472.124 206.231L468.31 191.094Z" fill="#263238"/>
<path opacity="0.5" d="M468.31 191.094L440.57 198.082L444.384 213.22L472.124 206.231L468.31 191.094Z" fill="white"/>
<path d="M472.896 209.309L445.156 216.297L448.97 231.434L476.71 224.446L472.896 209.309Z" fill="#263238"/>
<path opacity="0.69" d="M472.896 209.309L445.156 216.297L448.97 231.434L476.71 224.446L472.896 209.309Z" fill="white"/>
<path d="M463.728 172.887L435.988 179.875L439.802 195.013L467.542 188.024L463.728 172.887Z" fill="#263238"/>
<path opacity="0.31" d="M463.728 172.887L435.988 179.875L439.802 195.013L467.542 188.024L463.728 172.887Z" fill="white"/>
<path d="M426.792 127.475L446.994 122.361C447.489 122.233 448.005 122.205 448.511 122.278C449.018 122.35 449.505 122.523 449.944 122.785C450.383 123.048 450.765 123.395 451.069 123.806C451.373 124.218 451.593 124.685 451.715 125.182L476.721 224.435C476.849 224.931 476.878 225.446 476.805 225.953C476.732 226.459 476.56 226.946 476.297 227.385C476.035 227.824 475.688 228.207 475.276 228.511C474.865 228.815 474.397 229.034 473.9 229.156L453.698 234.244C453.203 234.372 452.687 234.4 452.181 234.327C451.674 234.255 451.187 234.082 450.748 233.82C450.309 233.557 449.927 233.21 449.623 232.799C449.319 232.387 449.099 231.92 448.978 231.423L423.977 132.189C423.85 131.694 423.822 131.18 423.895 130.675C423.968 130.169 424.14 129.683 424.402 129.245C424.663 128.807 425.009 128.425 425.42 128.121C425.83 127.817 426.296 127.597 426.792 127.475Z" stroke="#263238" stroke-linecap="round" stroke-linejoin="round"/>
<path d="M422.734 236.24L443.543 237.094C445.69 237.182 447.501 235.514 447.589 233.367L451.786 131.103C451.874 128.956 450.205 127.145 448.059 127.057L427.25 126.203C425.103 126.115 423.292 127.783 423.204 129.93L419.007 232.194C418.919 234.341 420.587 236.152 422.734 236.24Z" fill="white"/>
<path d="M421.943 160.25L421.303 175.848L449.885 177.021L450.525 161.423L421.943 160.25Z" fill="#BA68C8"/>
<path d="M422.718 141.489L422.078 157.086L450.661 158.259L451.301 142.661L422.718 141.489Z" fill="#BA68C8"/>
<path d="M420.406 197.77L419.766 213.367L448.348 214.54L448.988 198.943L420.406 197.77Z" fill="#BA68C8"/>
<path opacity="0.5" d="M420.406 197.77L419.766 213.367L448.348 214.54L448.988 198.943L420.406 197.77Z" fill="white"/>
<path d="M419.63 216.539L418.99 232.137L447.573 233.31L448.213 217.712L419.63 216.539Z" fill="#BA68C8"/>
<path opacity="0.69" d="M419.63 216.539L418.99 232.137L447.573 233.31L448.213 217.712L419.63 216.539Z" fill="white"/>
<path d="M421.175 179.008L420.535 194.605L449.118 195.778L449.758 180.181L421.175 179.008Z" fill="#BA68C8"/>
<path opacity="0.31" d="M421.175 179.008L420.535 194.605L449.118 195.778L449.758 180.181L421.175 179.008Z" fill="white"/>
<path d="M422.734 236.24L443.543 237.094C445.69 237.182 447.501 235.514 447.589 233.367L451.786 131.103C451.874 128.956 450.205 127.145 448.059 127.057L427.25 126.203C425.103 126.115 423.292 127.783 423.204 129.93L419.007 232.194C418.919 234.341 420.587 236.152 422.734 236.24Z" stroke="#263238" stroke-linecap="round" stroke-linejoin="round"/>
<path d="M403.914 232.971L424.247 237.478C426.345 237.943 428.422 236.62 428.887 234.523L451.04 134.598C451.505 132.501 450.181 130.423 448.084 129.959L427.751 125.451C425.653 124.986 423.576 126.309 423.111 128.406L400.958 228.331C400.493 230.429 401.817 232.506 403.914 232.971Z" fill="white"/>
<path d="M416.537 158.092L413.158 173.332L441.087 179.524L444.465 164.283L416.537 158.092Z" fill="#BA68C8"/>
<path d="M420.603 139.756L417.225 154.996L445.153 161.188L448.532 145.947L420.603 139.756Z" fill="#BA68C8"/>
<path d="M408.41 194.763L405.031 210.004L432.96 216.195L436.338 200.955L408.41 194.763Z" fill="#BA68C8"/>
<path opacity="0.5" d="M408.41 194.763L405.031 210.004L432.96 216.195L436.338 200.955L408.41 194.763Z" fill="white"/>
<path d="M404.346 213.099L400.967 228.34L428.895 234.531L432.274 219.291L404.346 213.099Z" fill="#BA68C8"/>
<path opacity="0.69" d="M404.346 213.099L400.967 228.34L428.895 234.531L432.274 219.291L404.346 213.099Z" fill="white"/>
<path d="M412.474 176.427L409.096 191.668L437.024 197.86L440.403 182.619L412.474 176.427Z" fill="#BA68C8"/>
<path opacity="0.31" d="M412.474 176.427L409.096 191.668L437.024 197.86L440.403 182.619L412.474 176.427Z" fill="white"/>
<path d="M403.914 232.971L424.247 237.478C426.345 237.943 428.422 236.62 428.887 234.523L451.04 134.598C451.505 132.501 450.181 130.423 448.084 129.959L427.751 125.451C425.653 124.986 423.576 126.309 423.111 128.406L400.958 228.331C400.493 230.429 401.817 232.506 403.914 232.971Z" stroke="#263238" stroke-linecap="round" stroke-linejoin="round"/>
<path d="M384.034 225.545L403.095 233.94C405.061 234.806 407.356 233.914 408.222 231.948L449.476 138.279C450.342 136.313 449.45 134.018 447.484 133.152L428.424 124.757C426.458 123.891 424.162 124.783 423.297 126.749L382.042 220.418C381.176 222.384 382.068 224.679 384.034 225.545Z" fill="white"/>
<path d="M411.044 154.608L404.752 168.895L430.932 180.425L437.224 166.139L411.044 154.608Z" fill="#BA68C8"/>
<path d="M418.62 137.425L412.328 151.711L438.508 163.241L444.8 148.955L418.62 137.425Z" fill="#BA68C8"/>
<path d="M395.911 188.987L389.619 203.273L415.799 214.804L422.091 200.517L395.911 188.987Z" fill="#BA68C8"/>
<path opacity="0.5" d="M395.911 188.987L389.619 203.273L415.799 214.804L422.091 200.517L395.911 188.987Z" fill="white"/>
<path d="M388.343 206.179L382.051 220.465L408.231 231.995L414.523 217.709L388.343 206.179Z" fill="#BA68C8"/>
<path opacity="0.69" d="M388.343 206.179L382.051 220.465L408.231 231.995L414.523 217.709L388.343 206.179Z" fill="white"/>
<path d="M403.478 171.8L397.186 186.086L423.365 197.616L429.657 183.33L403.478 171.8Z" fill="#BA68C8"/>
<path opacity="0.31" d="M403.478 171.8L397.186 186.086L423.365 197.616L429.657 183.33L403.478 171.8Z" fill="white"/>
<path d="M384.034 225.545L403.095 233.94C405.061 234.806 407.356 233.914 408.222 231.948L449.476 138.279C450.342 136.313 449.45 134.018 447.484 133.152L428.424 124.757C426.458 123.891 424.162 124.783 423.297 126.749L382.042 220.418C381.176 222.384 382.068 224.679 384.034 225.545Z" stroke="#263238" stroke-linecap="round" stroke-linejoin="round"/>
<path d="M429.348 124.153L445.879 136.826C446.287 137.136 446.63 137.523 446.887 137.965C447.144 138.408 447.311 138.897 447.377 139.404C447.444 139.912 447.409 140.427 447.274 140.921C447.14 141.415 446.909 141.877 446.594 142.281L384.3 223.47C383.991 223.877 383.604 224.219 383.162 224.476C382.72 224.732 382.232 224.898 381.725 224.965C381.219 225.031 380.704 224.997 380.21 224.863C379.717 224.729 379.256 224.499 378.852 224.185L362.327 211.511C361.922 211.203 361.582 210.817 361.327 210.377C361.071 209.937 360.905 209.451 360.838 208.947C360.771 208.442 360.805 207.929 360.936 207.438C361.068 206.946 361.295 206.486 361.606 206.082L423.9 124.867C424.209 124.46 424.595 124.119 425.037 123.862C425.479 123.606 425.968 123.439 426.475 123.373C426.981 123.306 427.496 123.341 427.989 123.475C428.483 123.609 428.944 123.839 429.348 124.153Z" fill="white"/>
<path d="M405.409 148.981L395.908 161.367L418.606 178.778L428.107 166.391L405.409 148.981Z" fill="#BA68C8"/>
<path d="M416.843 134.082L407.342 146.469L430.04 163.879L439.541 151.493L416.843 134.082Z" fill="#BA68C8"/>
<path d="M382.55 178.789L373.049 191.176L395.747 208.586L405.248 196.2L382.55 178.789Z" fill="#BA68C8"/>
<path opacity="0.5" d="M382.55 178.789L373.049 191.176L395.747 208.586L405.248 196.2L382.55 178.789Z" fill="white"/>
<path d="M371.116 193.68L361.615 206.066L384.313 223.477L393.814 211.091L371.116 193.68Z" fill="#BA68C8"/>
<path opacity="0.69" d="M371.116 193.68L361.615 206.066L384.313 223.477L393.814 211.091L371.116 193.68Z" fill="white"/>
<path d="M393.978 163.883L384.477 176.27L407.175 193.68L416.676 181.294L393.978 163.883Z" fill="#BA68C8"/>
<path opacity="0.31" d="M393.978 163.883L384.477 176.27L407.175 193.68L416.676 181.294L393.978 163.883Z" fill="white"/>
<path d="M429.348 124.153L445.879 136.826C446.287 137.136 446.63 137.523 446.887 137.965C447.144 138.408 447.311 138.897 447.377 139.404C447.444 139.912 447.409 140.427 447.274 140.921C447.14 141.415 446.909 141.877 446.594 142.281L384.3 223.47C383.991 223.877 383.604 224.219 383.162 224.476C382.72 224.732 382.232 224.898 381.725 224.965C381.219 225.031 380.704 224.997 380.21 224.863C379.717 224.729 379.256 224.499 378.852 224.185L362.327 211.511C361.922 211.203 361.582 210.817 361.327 210.377C361.071 209.937 360.905 209.451 360.838 208.947C360.771 208.442 360.805 207.929 360.936 207.438C361.068 206.946 361.295 206.486 361.606 206.082L423.9 124.867C424.209 124.46 424.595 124.119 425.037 123.862C425.479 123.606 425.968 123.439 426.475 123.373C426.981 123.306 427.496 123.341 427.989 123.475C428.483 123.609 428.944 123.839 429.348 124.153Z" stroke="#263238" stroke-linecap="round" stroke-linejoin="round"/>
<path d="M416.449 100.659C416.449 100.659 427.835 103.538 428.917 104.259C429.999 104.98 429.999 106.275 429.851 107.788C429.703 109.302 425.388 120.108 425.098 123.354C424.808 126.599 423.224 134.521 423.81 136.465C424.396 138.41 427.191 140.329 430.076 139.782C432.961 139.235 433.464 138.191 434.616 134.952C435.769 131.713 438.938 127.095 439.44 121.55C439.62 119.039 439.934 116.539 440.38 114.061C440.38 114.061 446.82 104.478 449.242 101.091C452.024 97.0618 454.194 92.6433 455.682 87.9787C456.644 84.6334 457.437 81.2417 458.058 77.8164" fill="white"/>
<path d="M416.449 100.659C416.449 100.659 427.835 103.538 428.917 104.259C429.999 104.98 429.999 106.275 429.851 107.788C429.703 109.302 425.388 120.108 425.098 123.354C424.808 126.599 423.224 134.521 423.81 136.465C424.396 138.41 427.191 140.329 430.076 139.782C432.961 139.235 433.464 138.191 434.616 134.952C435.769 131.713 438.938 127.095 439.44 121.55C439.62 119.039 439.934 116.539 440.38 114.061C440.38 114.061 446.82 104.478 449.242 101.091C452.024 97.0618 454.194 92.6433 455.682 87.9787C456.644 84.6334 457.437 81.2417 458.058 77.8164" stroke="#263238" stroke-linecap="round" stroke-linejoin="round"/>
<path d="M426.032 130.341C426.032 130.341 424.1 133.561 424.235 135.815C424.371 138.069 425.24 139.203 427.694 139.679C430.147 140.156 431.364 139.106 431.654 138.817C431.944 138.527 433.528 132.692 433.026 132.042C432.524 131.391 428.054 130.123 426.032 130.341Z" fill="white" stroke="#263238" stroke-linecap="round" stroke-linejoin="round"/>
<path d="M447.129 117.944C447.129 117.944 444.405 116.147 441.597 117.441C440.785 117.74 440.116 118.333 439.723 119.103" fill="white"/>
<path d="M447.129 117.944C447.129 117.944 444.405 116.147 441.597 117.441C440.785 117.74 440.116 118.333 439.723 119.103" stroke="#263238" stroke-linecap="round" stroke-linejoin="round"/>
<path d="M448.224 120.583C448.224 120.583 446.292 119.675 445.648 119.939C445.004 120.203 440.959 124.118 441.539 124.981C441.743 125.372 442.083 125.675 442.494 125.833C442.905 125.992 443.36 125.996 443.774 125.844" stroke="#263238" stroke-linecap="round" stroke-linejoin="round"/>
<path d="M451.16 108.773C451.16 108.773 448.372 107.788 447.502 108.651C446.633 109.514 444.836 112.47 445.487 113.552C445.788 114.072 446.27 114.463 446.842 114.65C447.414 114.837 448.034 114.806 448.584 114.563" stroke="#263238" stroke-linecap="round" stroke-linejoin="round"/>
<path d="M453.195 105.843C453.195 105.843 451.54 105.122 450.677 105.631C450.413 105.798 450.187 106.018 450.013 106.278C449.839 106.537 449.721 106.83 449.666 107.138" stroke="#263238" stroke-linecap="round" stroke-linejoin="round"/>
<path d="M429.489 109.301L424.163 110.383C424.163 110.383 422.141 111.465 420.943 111.535C419.745 111.606 417.916 110.312 417.414 110.093" stroke="#263238" stroke-linecap="round" stroke-linejoin="round"/>
<path d="M420.918 111.535C421.368 113.304 421.634 115.115 421.71 116.938C421.639 118.87 421.42 119.965 421.42 120.326C421.42 120.686 425.098 123.353 425.098 123.353" stroke="#263238" stroke-linecap="round" stroke-linejoin="round"/>
<path d="M418.039 121.838C418.039 121.838 420.055 120.035 421.42 120.325" stroke="#263238" stroke-linecap="round" stroke-linejoin="round"/>
<path d="M422.721 120.176C423.887 119.36 425.145 118.683 426.469 118.16" stroke="#263238" stroke-linecap="round" stroke-linejoin="round"/>
<path d="M427.834 109.949C428.227 110.532 428.497 111.19 428.626 111.881L427.834 109.949Z" fill="white"/>
<path d="M427.834 109.949C428.227 110.532 428.497 111.19 428.626 111.881" stroke="#263238" stroke-linecap="round" stroke-linejoin="round"/>
<path d="M427.674 97.3477C427.674 97.3477 430.43 102.158 429.857 106.673" stroke="#263238" stroke-linecap="round" stroke-linejoin="round"/>
<path d="M90.9893 235.148L78.498 301.066L84.2686 302.16L96.7599 236.241L90.9893 235.148Z" fill="#263238" stroke="#263238" stroke-linecap="round" stroke-linejoin="round"/>
<path d="M95.1639 235.942L92.5879 235.446L94.243 226.9C94.5193 225.461 95.2448 224.147 96.3151 223.146C97.3855 222.145 98.7456 221.509 100.2 221.33L145.492 215.605C146.419 215.497 147.286 215.09 147.96 214.445C148.634 213.799 149.08 212.952 149.228 212.03L152.795 191.216C152.977 190.138 152.746 189.03 152.15 188.113C151.554 187.196 150.635 186.536 149.575 186.264L146.652 185.543L147.296 183.012L150.226 183.727C151.929 184.154 153.408 185.207 154.37 186.676C155.332 188.145 155.706 189.922 155.417 191.654L151.855 212.468C151.61 213.941 150.895 215.294 149.816 216.326C148.738 217.358 147.354 218.013 145.872 218.193L100.573 223.919C99.6653 224.032 98.8163 224.43 98.1487 225.056C97.481 225.682 97.029 226.504 96.8576 227.403L95.1639 235.942Z" fill="white" stroke="#263238" stroke-linecap="round" stroke-linejoin="round"/>
<path d="M58.5546 156.238L54.252 179.34L145.129 196.265L149.432 173.163L58.5546 156.238Z" fill="#BA68C8" stroke="#263238" stroke-linecap="round" stroke-linejoin="round"/>
<path d="M33.1465 321.659H71.7478C76.1464 311.355 81.1889 299.672 81.878 298.52C83.166 296.427 86.8239 294.456 86.8239 294.456C86.8239 294.456 89.9988 292.582 93.3412 290.135C96.6835 287.688 99.2466 283.759 99.1372 282.98C99.0277 282.201 99.7039 281.544 100.264 280.101C100.775 278.88 101.008 277.56 100.947 276.237C100.818 275.452 102.074 273.359 103.33 271.266C104.585 269.173 102.492 266.307 102.492 266.307C102.492 266.307 103.091 263.518 103.735 260.994C104.379 258.469 100.889 253.691 100.889 253.691C100.889 253.691 101.359 251.727 101.79 249.511C102.222 247.296 100.077 244.16 98.9053 243.554C97.7332 242.949 91.377 245.1 91.377 245.1C91.377 245.1 93.3669 240.998 93.0514 237.565C92.9686 236.75 92.7256 235.959 92.3364 235.238C91.9471 234.517 91.4193 233.88 90.7832 233.364C90.1471 232.848 89.4153 232.462 88.6297 232.229C87.8442 231.996 87.0204 231.921 86.2056 232.007C82.7667 232.323 86.2056 237.082 83.7069 241.023C82.0647 243.651 75.4573 247.792 72.2373 249.395C69.0173 250.999 64.3998 260.395 63.3694 262.185C62.339 263.976 60.4392 273.423 60.9222 276.276C61.2893 278.433 42.639 307.188 33.1465 321.659Z" fill="white" stroke="#263238" stroke-linecap="round" stroke-linejoin="round"/>
<path d="M91.3518 245.094C91.3518 245.094 81.563 247.889 79.7598 249.016" stroke="#263238" stroke-linecap="round" stroke-linejoin="round"/>
<path d="M103.041 263.164C102.226 263.96 101.283 264.613 100.252 265.096C99.9687 265.225 99.6081 265.405 99.1895 265.618" stroke="#263238" stroke-linecap="round" stroke-linejoin="round"/>
<path d="M98.7444 281.332C97.6563 282.32 96.3912 283.094 95.0156 283.612" stroke="#263238" stroke-linecap="round" stroke-linejoin="round"/>
<path d="M95.2541 282.07C95.2541 282.07 95.0158 282.605 93.3672 283.545" stroke="#263238" stroke-linecap="round" stroke-linejoin="round"/>
<path d="M96.1172 245.422C96.1172 245.422 99.3372 245.866 100.123 248.693C100.909 251.521 98.3969 252.107 98.3261 253.601C98.2589 254.423 98.3984 255.248 98.7318 256.003" stroke="#263238" stroke-linecap="round" stroke-linejoin="round"/>
<path d="M101.051 256.098C101.051 256.098 103.53 258.783 103.71 260.986" stroke="#263238" stroke-linecap="round" stroke-linejoin="round"/>
<path d="M88.1112 232.031C88.1112 232.031 89.4894 232.675 89.264 234.672C89.0386 236.668 88.6779 238.742 88.6779 238.742C87.6712 238.986 86.6319 239.066 85.5996 238.98" stroke="#263238" stroke-linecap="round" stroke-linejoin="round"/>
</g>
<defs>
<clipPath id="clip0_1260_6733">
<rect width="483" height="322" fill="white"/>
</clipPath>
</defs>
</svg>
