<svg width="306" height="306" viewBox="0 0 306 306" fill="none" xmlns="http://www.w3.org/2000/svg">
<g filter="url(#filter0_d_1259_3735)">
<g filter="url(#filter1_d_1259_3735)">
<path d="M153 287.468C232.768 287.468 297.432 250.141 297.432 204.095C297.432 158.05 232.768 120.723 153 120.723C73.2328 120.723 8.56836 158.05 8.56836 204.095C8.56836 250.141 73.2328 287.468 153 287.468Z" fill="#F5F5F5"/>
</g>
<path d="M25.166 187.577L182.719 278.538C183.668 279.018 184.716 279.268 185.779 279.268C186.842 279.268 187.891 279.018 188.839 278.538L274.605 229.022C276.294 228.042 276.294 226.463 274.605 225.484L117.052 134.523C116.103 134.043 115.055 133.793 113.992 133.793C112.929 133.793 111.88 134.043 110.932 134.523L25.166 184.04C23.4707 185.019 23.4707 186.598 25.166 187.577Z" fill="#E0E0E0"/>
<path d="M37.0023 177.744L43.3426 174.886C43.3426 174.886 46.1089 162.199 46.1395 152.163C46.1762 138.087 38.8567 120.339 27.6938 123.197C16.5309 126.055 30.7905 141.863 33.0855 154.066C35.3805 166.269 37.0023 177.744 37.0023 177.744Z" fill="#BA68C8"/>
<path opacity="0.15" d="M37.0023 177.744L43.3426 174.886C43.3426 174.886 46.1089 162.199 46.1395 152.163C46.1762 138.087 38.8567 120.339 27.6938 123.197C16.5309 126.055 30.7905 141.863 33.0855 154.066C35.3805 166.269 37.0023 177.744 37.0023 177.744Z" fill="black"/>
<path d="M40.3008 176.606C40.2532 176.6 40.2073 176.584 40.1657 176.56C40.1241 176.536 40.0877 176.504 40.0587 176.466C40.0296 176.428 40.0085 176.384 39.9964 176.338C39.9844 176.292 39.9818 176.243 39.9887 176.196C44.1809 145.265 30.3068 128.092 30.1967 127.921C30.1656 127.884 30.1422 127.842 30.1278 127.796C30.1134 127.75 30.1084 127.702 30.113 127.654C30.1175 127.606 30.1316 127.559 30.1544 127.517C30.1772 127.475 30.2082 127.437 30.2456 127.407C30.3205 127.346 30.4165 127.317 30.5127 127.326C30.609 127.335 30.6977 127.382 30.7597 127.456C30.9005 127.627 44.9765 145.051 40.7414 176.294C40.7349 176.344 40.7181 176.392 40.6919 176.436C40.6658 176.479 40.6309 176.517 40.5895 176.546C40.5481 176.576 40.5011 176.596 40.4514 176.606C40.4017 176.616 40.3504 176.616 40.3008 176.606Z" fill="white"/>
<path d="M33.0487 179.52L37.5286 177.482C37.5286 177.482 39.1442 168.749 35.9068 157.61C33.0916 147.916 24.5419 139.25 19.6888 140.395C14.8356 141.539 14.6092 144.887 16.5492 148.608C18.4892 152.329 31.5554 162.054 33.0487 179.52Z" fill="#BA68C8"/>
<path opacity="0.2" d="M33.0487 179.52L37.5286 177.482C37.5286 177.482 39.1442 168.749 35.9068 157.61C33.0916 147.916 24.5419 139.25 19.6888 140.395C14.8356 141.539 14.6092 144.887 16.5492 148.608C18.4892 152.329 31.5554 162.054 33.0487 179.52Z" fill="white"/>
<path d="M35.3623 178.811C35.2669 178.8 35.1796 178.752 35.119 178.678C35.0584 178.604 35.0293 178.509 35.0379 178.413C37.1065 158.792 20.0194 143.67 19.8481 143.529C19.7758 143.466 19.7317 143.376 19.7254 143.28C19.7191 143.185 19.7511 143.09 19.8144 143.018C19.8777 142.946 19.9671 142.902 20.0629 142.895C20.1588 142.889 20.2532 142.921 20.3254 142.984C20.5029 143.137 37.8715 158.511 35.7662 178.48C35.7616 178.529 35.7475 178.576 35.7246 178.618C35.7018 178.661 35.6707 178.699 35.6331 178.73C35.5956 178.761 35.5523 178.784 35.5058 178.797C35.4593 178.811 35.4105 178.816 35.3623 178.811Z" fill="white"/>
<g filter="url(#filter2_d_1259_3735)">
<path d="M244.281 70.2266C244.286 69.8933 244.24 69.561 244.146 69.2413L247.726 65.1409L243.136 62.5644C242.702 62.2645 242.083 62.2278 241.245 62.7174L233.289 67.338L232.218 67.95C232.406 67.0271 232.533 66.0928 232.597 65.1531C232.628 64.7615 232.634 64.3881 232.634 64.0148L232.781 64.0883L235.468 60.9487L230.878 58.3661C229.336 57.4236 226.728 59.2841 226.728 60.0368C226.728 60.9426 227.12 65.6856 226.728 67.0442C226.337 68.4029 222.236 77.7726 222.236 77.7726V78.3846V97.2954L237.2 88.6417C239.164 87.5034 240.529 85.0799 240.529 83.4397C240.551 82.7055 240.415 81.975 240.131 81.2977C241.404 80.5633 242.671 77.9072 242.671 76.7811C242.671 75.0798 242.09 74.6391 242.09 74.6391C243.374 73.5153 244.161 71.9291 244.281 70.2266Z" fill="#BA68C8"/>
<path opacity="0.1" d="M244.281 70.2266C244.286 69.8933 244.24 69.561 244.146 69.2413L247.726 65.1409L243.136 62.5644C242.702 62.2645 242.083 62.2278 241.245 62.7174L233.289 67.338L232.218 67.95C232.406 67.0271 232.533 66.0928 232.597 65.1531C232.628 64.7615 232.634 64.3881 232.634 64.0148L232.781 64.0883L235.468 60.9487L230.878 58.3661C229.336 57.4236 226.728 59.2841 226.728 60.0368C226.728 60.9426 227.12 65.6856 226.728 67.0442C226.337 68.4029 222.236 77.7726 222.236 77.7726V78.3846V97.2954L237.2 88.6417C239.164 87.5034 240.529 85.0799 240.529 83.4397C240.551 82.7055 240.415 81.975 240.131 81.2977C241.404 80.5633 242.671 77.9072 242.671 76.7811C242.671 75.0798 242.09 74.6391 242.09 74.6391C243.374 73.5153 244.161 71.9291 244.281 70.2266Z" fill="black"/>
<path d="M226.966 99.9816L222.229 97.246L222.217 77.7109L226.948 80.4466L226.966 99.9816Z" fill="#E0E0E0"/>
<path d="M226.966 99.9816L222.229 97.246L222.217 77.7109L226.948 80.4466L226.966 99.9816Z" fill="#BA68C8"/>
<path opacity="0.3" d="M226.966 99.9816L222.229 97.246L222.217 77.7109L226.948 80.4466L226.966 99.9816Z" fill="black"/>
<path d="M247.573 79.837C247.573 82.3584 246.135 83.2458 244.862 83.9802C245.139 84.6637 245.27 85.3974 245.247 86.1345C245.247 87.7624 243.889 90.1981 241.93 91.3242L226.967 99.9779V81.2752V80.449C226.967 80.449 231.079 71.0793 231.465 69.7145C231.851 68.3497 231.465 63.5945 231.465 62.7193C231.465 61.8442 235.18 59.3289 236.361 61.9237C237.542 64.5186 237.64 67.1625 236.973 70.6141L246.018 65.3815C247.928 64.2799 248.711 65.8589 248.711 67.0951C248.711 68.8516 247.891 70.5835 246.802 71.2445C246.802 71.2445 248.883 71.3485 248.883 73.7721C248.865 74.5383 248.675 75.2907 248.327 75.9739C247.98 76.6571 247.484 77.2536 246.875 77.7195C246.875 77.7195 247.573 78.1479 247.573 79.837Z" fill="#BA68C8"/>
<path d="M218.275 107.631L224.812 103.861L224.793 81.125L218.275 84.8949V107.631Z" fill="#37474F"/>
<path d="M218.276 107.633L213.539 104.904V82.168L218.276 84.8975V107.633Z" fill="#263238"/>
<path d="M220.063 78.3984L224.794 81.128L218.276 84.8979L213.539 82.1684L220.063 78.3984Z" fill="#455A64"/>
<path d="M231.44 69.7143C231.054 71.079 226.941 80.4487 226.941 80.4487L222.217 77.7865C222.217 77.7865 226.317 68.4107 226.709 67.0582C227.101 65.7057 226.709 60.9382 226.709 60.0508L231.446 62.7191C231.44 63.6493 231.837 68.3617 231.44 69.7143Z" fill="#BA68C8"/>
<path opacity="0.2" d="M231.44 69.7143C231.054 71.079 226.941 80.4487 226.941 80.4487L222.217 77.7865C222.217 77.7865 226.317 68.4107 226.709 67.0582C227.101 65.7057 226.709 60.9382 226.709 60.0508L231.446 62.7191C231.44 63.6493 231.837 68.3617 231.44 69.7143Z" fill="black"/>
</g>
<g filter="url(#filter3_d_1259_3735)">
<path d="M286.973 89.5672L282.468 86.7581C280.804 85.6932 278.27 85.8034 275.394 87.3701C271.416 89.4938 267.903 94.8549 266.385 99.402L263.16 97.3947C261.526 96.2135 259.231 95.9626 256.642 97.3457C256.324 97.5171 256.03 97.7068 255.687 97.9026L255.192 98.2392C255.051 98.3372 254.904 98.429 254.763 98.533C254.622 98.637 254.323 98.8696 254.108 99.041L253.864 99.2307C253.613 99.4388 253.362 99.6591 253.117 99.8855L253.007 99.9896C252.731 100.24 252.468 100.504 252.205 100.773C251.398 101.606 250.661 102.505 250.002 103.46C248.166 106.091 247.003 109.029 246.942 111.636C246.783 116.489 249.677 119.684 253.294 121.783L256.85 123.992C258.959 125.343 261.257 126.374 263.668 127.052L269.586 128.833L275.81 120.565C281.765 112.67 288.913 101.728 289.151 94.4081C289.231 92.0764 288.399 90.4179 286.973 89.5672Z" fill="#BA68C8"/>
<path d="M256.776 123.979L253.269 121.788C249.658 119.689 246.757 116.494 246.916 111.641C247.002 109.04 248.183 106.09 250.007 103.465L254.628 106.335C252.792 108.961 251.623 111.91 251.537 114.511C251.396 118.869 253.697 121.886 256.776 123.979Z" fill="#BA68C8"/>
<g opacity="0.3">
<path d="M256.776 123.979L253.269 121.788C249.658 119.689 246.757 116.494 246.916 111.641C247.002 109.04 248.183 106.09 250.007 103.465L254.628 106.335C252.792 108.961 251.623 111.91 251.537 114.511C251.396 118.869 253.697 121.886 256.776 123.979Z" fill="black"/>
</g>
<path d="M286.954 89.5363C285.283 88.5693 282.805 88.7223 280.014 90.2156C275.216 92.7738 271.079 100.044 270.332 104.904C269.879 100.675 266.085 97.6392 261.287 100.21C258.624 101.707 256.344 103.802 254.628 106.33L250.008 103.459L250.24 103.129C250.308 103.037 250.369 102.951 250.442 102.86L250.956 102.186C251.454 101.572 251.985 100.986 252.548 100.43C252.682 100.283 252.829 100.148 252.97 100.014L253.276 99.7322C254.308 98.7987 255.446 97.9894 256.666 97.3209C257.767 96.698 259.012 96.3751 260.277 96.3846C261.323 96.4128 262.337 96.7562 263.184 97.3699L266.385 99.3406C267.897 94.7995 271.416 89.4445 275.4 87.3209C278.276 85.7786 280.804 85.6685 282.468 86.7089L286.954 89.5363Z" fill="#BA68C8"/>
<path opacity="0.1" d="M286.954 89.5363C285.283 88.5693 282.805 88.7223 280.014 90.2156C275.216 92.7738 271.079 100.044 270.332 104.904C269.879 100.675 266.085 97.6392 261.287 100.21C258.624 101.707 256.344 103.802 254.628 106.33L250.008 103.459L250.24 103.129C250.308 103.037 250.369 102.951 250.442 102.86L250.956 102.186C251.454 101.572 251.985 100.986 252.548 100.43C252.682 100.283 252.829 100.148 252.97 100.014L253.276 99.7322C254.308 98.7987 255.446 97.9894 256.666 97.3209C257.767 96.698 259.012 96.3751 260.277 96.3846C261.323 96.4128 262.337 96.7562 263.184 97.3699L266.385 99.3406C267.897 94.7995 271.416 89.4445 275.4 87.3209C278.276 85.7786 280.804 85.6685 282.468 86.7089L286.954 89.5363Z" fill="black"/>
</g>
<g filter="url(#filter4_d_1259_3735)">
<path d="M213.863 42.4168L209.334 39.6016L207.596 43.1022L210.044 45.7766C210.044 45.7766 210.191 46.303 211.384 45.3788C212.343 44.5106 213.177 43.5137 213.863 42.4168Z" fill="#BA68C8"/>
<path opacity="0.3" d="M213.863 42.4168L209.334 39.6016L207.596 43.1022L210.044 45.7766C210.044 45.7766 210.191 46.303 211.384 45.3788C212.343 44.5106 213.177 43.5137 213.863 42.4168Z" fill="black"/>
<path d="M210.442 48.6043C210.442 54.1123 208.857 60.8443 205.919 67.0378C202.565 74.1247 197.461 80.5936 190.986 84.0575C187.278 86.0404 183.881 86.4565 181.066 85.5752L176.537 82.76C179.475 81.6401 182.455 79.2166 185.026 75.8811L182.247 74.1492C181.289 73.4907 180.63 72.4815 180.411 71.3401C181.083 71.1394 181.719 70.8337 182.296 70.4344L180.46 69.2838C179.071 68.4209 178.287 66.4625 178.416 63.9043C179.422 64.0624 180.453 63.8838 181.347 63.3964C181.062 63.2948 180.793 63.1548 180.546 62.9802C178.404 61.4563 178.043 57.3131 179.695 53.0291L184.212 55.8382C186.709 56.5114 189.72 56.2666 192.902 54.7733C192.125 49.9201 195.399 43.0963 199.634 40.8319C201.519 39.8282 203.19 39.9568 204.328 40.991C205.902 39.7353 207.322 38.2972 208.557 36.707L213.086 39.5222C212.506 41.8024 211.464 43.9394 210.026 45.8013C211.418 44.832 212.694 43.7045 213.826 42.4415C212.911 44.6059 211.777 46.6709 210.442 48.6043Z" fill="#BA68C8"/>
<path d="M210.442 48.6055C210.442 54.1135 208.857 60.8455 205.92 67.039C202.566 74.1259 197.462 80.5948 190.987 84.0587C187.278 86.0416 183.882 86.4577 181.066 85.5764C184.524 84.2545 188.037 81.1394 190.858 76.8432C187.994 78.2998 185.656 77.1247 184.934 74.1565C186.037 73.8061 187.048 73.2168 187.896 72.4307C184.775 73.2814 182.719 70.7293 182.921 66.7207C183.929 66.8788 184.962 66.7002 185.858 66.2128C185.629 66.1303 185.41 66.0236 185.204 65.8945C182.933 64.4624 182.511 60.2213 184.206 55.8455C184.689 58.1282 188.924 59.8908 192.584 59.8357C196.122 59.7806 197.339 57.7243 197.407 57.5958C196.63 52.7426 199.91 45.9188 204.139 43.6544C206.018 42.6508 207.688 42.7793 208.833 43.8074C210.409 42.5536 211.828 41.1153 213.062 39.5234C212.482 41.8036 211.44 43.9406 210.002 45.8026C211.394 44.8332 212.67 43.7057 213.802 42.4427C212.895 44.6061 211.769 46.6711 210.442 48.6055Z" fill="#BA68C8"/>
<path opacity="0.1" d="M213.092 39.4972C211.858 41.0866 210.44 42.5246 208.869 43.7812C208.576 43.5128 208.233 43.3049 207.859 43.1692L204.334 41.0027C205.908 39.747 207.328 38.309 208.563 36.7188L213.092 39.4972Z" fill="black"/>
<path opacity="0.3" d="M187.92 72.4287C187.072 73.2148 186.06 73.8041 184.958 74.1546L180.436 71.3394C181.108 71.1386 181.744 70.8329 182.321 70.4336L184.885 72.0248L184.964 72.0799L185.081 72.1533C185.511 72.3894 185.984 72.5355 186.472 72.5828C186.96 72.6302 187.453 72.5777 187.92 72.4287Z" fill="black"/>
<path opacity="0.1" d="M197.437 57.5875C197.302 57.8261 196.054 59.7539 192.626 59.809C188.954 59.8641 184.732 58.1015 184.248 55.8188C185.024 56.0259 185.82 56.145 186.623 56.1737C188.81 56.206 190.975 55.7195 192.938 54.7539L197.437 57.5875Z" fill="black"/>
<path opacity="0.2" d="M184.211 55.8442L179.688 53.0352C178.036 57.3192 178.397 61.4624 180.539 62.9863L180.845 63.176L181.261 63.4392L185.214 65.8872C182.987 64.4673 182.534 60.2262 184.211 55.8442Z" fill="black"/>
<path opacity="0.3" d="M185.882 66.2121C184.985 66.6996 183.953 66.8781 182.945 66.72L178.422 63.9048C179.398 64.0586 180.399 63.8933 181.274 63.4336L185.227 65.8816C185.434 66.0126 185.654 66.1233 185.882 66.2121Z" fill="black"/>
<path opacity="0.3" d="M190.883 76.8437C188.037 81.1277 184.525 84.255 181.091 85.5769L176.562 82.7617C179.5 81.6356 182.481 79.2182 185.051 75.8828L186.813 76.9783C187.884 77.6515 189.292 77.6515 190.883 76.8437Z" fill="black"/>
<path opacity="0.2" d="M207.889 43.2014C206.861 42.7792 205.57 42.9016 204.168 43.6482C199.939 45.9126 196.659 52.7364 197.436 57.5896L192.914 54.7744C192.136 49.9212 195.411 43.0974 199.646 40.833C201.531 39.8293 203.201 39.9578 204.34 40.9921L207.889 43.2014Z" fill="black"/>
<path opacity="0.2" d="M184.884 72.0275L182.32 70.4363L180.484 69.2857C179.094 68.4228 178.311 66.4644 178.439 63.9062L182.962 66.7214C182.821 69.2062 183.562 71.1279 184.884 72.0275Z" fill="black"/>
<path opacity="0.2" d="M186.659 76.8924L185.025 75.8887L182.246 74.1629C181.286 73.5039 180.626 72.4918 180.41 71.3477L184.933 74.1629C185.149 75.2556 185.764 76.2287 186.659 76.8924Z" fill="black"/>
</g>
<path d="M270.767 156.367L271.44 155.278L268.019 153.032C265.088 150.951 260.84 151.043 256.122 153.785C247.321 158.901 240.21 171.306 240.24 181.484C240.24 186.306 241.868 189.764 244.494 191.527L247.872 193.754L248.435 192.83C250.742 192.989 253.398 192.304 256.226 190.658C265.032 185.541 272.138 173.142 272.138 162.959C272.182 160.686 271.714 158.433 270.767 156.367Z" fill="#BA68C8"/>
<path opacity="0.2" d="M270.767 156.367L271.44 155.278L268.019 153.032C265.088 150.951 260.84 151.043 256.122 153.785C247.321 158.901 240.21 171.306 240.24 181.484C240.24 186.306 241.868 189.764 244.494 191.527L247.872 193.754L248.435 192.83C250.742 192.989 253.398 192.304 256.226 190.658C265.032 185.541 272.138 173.142 272.138 162.959C272.182 160.686 271.714 158.433 270.767 156.367Z" fill="black"/>
<path d="M275.595 165.241C275.625 175.418 268.514 187.824 259.683 192.94C250.852 198.056 243.722 193.95 243.697 183.76C243.673 173.57 250.778 161.177 259.579 156.061C268.379 150.945 275.564 155.069 275.595 165.241Z" fill="#BA68C8"/>
<path d="M272.951 166.796C272.951 175.278 267.052 185.615 259.72 189.881C252.388 194.146 246.415 190.719 246.391 182.237C246.366 173.754 252.29 163.418 259.628 159.152C266.966 154.886 272.915 158.308 272.951 166.796Z" fill="white"/>
<path d="M270.272 168.334C270.272 175.121 265.547 183.389 259.684 186.804C253.821 190.219 249.054 187.483 249.035 180.684C249.017 173.884 253.754 165.629 259.623 162.214C265.492 158.799 270.259 161.571 270.272 168.334Z" fill="#BA68C8"/>
<path d="M267.627 169.879C267.627 174.971 264.083 181.171 259.671 183.735C255.258 186.299 251.715 184.237 251.678 179.151C251.641 174.065 255.215 167.854 259.634 165.295C264.053 162.737 267.608 164.794 267.627 169.879Z" fill="white"/>
<path d="M259.641 168.37C256.704 170.078 254.335 174.215 254.348 177.605C254.36 180.996 256.741 182.373 259.678 180.665C262.616 178.958 264.984 174.821 264.972 171.43C264.96 168.04 262.579 166.663 259.641 168.37Z" fill="#BA68C8"/>
<path d="M259.648 171.44C258.876 171.949 258.234 172.632 257.775 173.435C257.316 174.237 257.052 175.137 257.004 176.06C257.004 177.755 258.197 178.441 259.666 177.59C260.44 177.082 261.082 176.399 261.543 175.596C262.003 174.794 262.268 173.894 262.316 172.97C262.31 171.274 261.117 170.589 259.648 171.44Z" fill="white"/>
<path d="M286.251 188.223L282.701 186.749L280.498 186.645V187.042L283.864 188.988L286.251 188.621V188.223Z" fill="#BA68C8"/>
<path d="M280.498 186.645L282.701 186.749L286.251 188.223L283.864 188.591L280.498 186.645Z" fill="#BA68C8"/>
<path opacity="0.2" d="M283.863 188.988V188.59L286.25 188.223V188.62L283.863 188.988Z" fill="black"/>
<path opacity="0.1" d="M283.864 188.591L280.498 186.645V187.042L283.864 188.988V188.591Z" fill="black"/>
<path d="M265.375 176.005L259.922 174.512V175.271L262.321 178.526L263.637 177.266L265.375 176.764V176.005Z" fill="#37474F"/>
<path d="M259.922 174.512L262.321 177.768L263.637 176.513L265.375 176.005L259.922 174.512Z" fill="#455A64"/>
<path d="M262.322 177.77V178.529L263.638 177.268V176.516L262.322 177.77Z" fill="#263238"/>
<path d="M263.637 176.516L265.375 176.008V176.767L263.637 177.269V176.516Z" fill="#263238"/>
<path d="M263.87 176.509C263.832 176.485 263.787 176.473 263.742 176.473C263.696 176.473 263.652 176.485 263.613 176.509C263.509 176.577 263.422 176.667 263.359 176.773C263.295 176.879 263.257 176.998 263.246 177.121C263.24 177.167 263.248 177.214 263.267 177.256C263.287 177.298 263.317 177.334 263.356 177.36L285.559 190.212L286.061 189.306L263.87 176.509Z" fill="#455A64"/>
<path d="M263.325 176.871C263.277 176.968 263.25 177.075 263.246 177.183C263.24 177.229 263.248 177.276 263.267 177.318C263.287 177.36 263.317 177.396 263.356 177.422L285.559 190.274L285.786 189.864L263.325 176.871Z" fill="#37474F"/>
<path d="M285.804 189.362C285.702 189.429 285.616 189.52 285.553 189.626C285.49 189.732 285.453 189.851 285.443 189.974C285.443 190.206 285.602 190.304 285.804 190.188C285.908 190.121 285.994 190.031 286.057 189.924C286.12 189.818 286.157 189.699 286.166 189.576C286.172 189.343 286.013 189.245 285.804 189.362Z" fill="#263238"/>
<path d="M283.625 189.121V188.723L280.266 186.777V187.181L280.443 188.448L282.989 190.504L283.625 189.127V189.121Z" fill="#BA68C8"/>
<path opacity="0.2" d="M280.266 186.777L280.449 188.05L280.443 188.448L280.266 187.181V186.777Z" fill="black"/>
<path opacity="0.2" d="M283.625 188.723L282.988 190.1V190.497L283.625 189.12V188.723Z" fill="black"/>
<path opacity="0.1" d="M280.449 188.051L282.989 190.101V190.499L280.443 188.449L280.449 188.051Z" fill="black"/>
<path d="M286.104 160.007L282.554 161.482L280.357 161.586V161.188L283.717 159.242L286.104 159.609V160.007Z" fill="#BA68C8"/>
<path d="M280.357 161.587L282.554 161.483L286.104 160.008L283.717 159.641L280.357 161.587Z" fill="#BA68C8"/>
<path opacity="0.2" d="M283.717 159.242V159.64L286.104 160.007V159.609L283.717 159.242Z" fill="black"/>
<path opacity="0.1" d="M283.717 159.64L280.357 161.586V161.188L283.717 159.242V159.64Z" fill="black"/>
<path d="M265.228 172.222L259.781 173.716V172.957L262.174 169.707L263.49 170.962L265.228 171.463V172.222Z" fill="#37474F"/>
<path d="M259.781 173.717L262.174 170.461L263.49 171.722L265.228 172.224L259.781 173.717Z" fill="#455A64"/>
<path d="M262.174 170.46V169.707L263.49 170.962V171.721L262.174 170.46Z" fill="#263238"/>
<path d="M263.49 171.724L265.228 172.226V171.467L263.49 170.965V171.724Z" fill="#263238"/>
<path d="M263.723 171.722C263.685 171.747 263.64 171.761 263.595 171.761C263.549 171.761 263.504 171.747 263.466 171.722C263.363 171.655 263.276 171.565 263.212 171.459C263.148 171.353 263.11 171.233 263.099 171.11C263.094 171.064 263.102 171.018 263.121 170.976C263.141 170.934 263.171 170.898 263.209 170.872L285.413 158.02L285.914 158.919L263.723 171.722Z" fill="#455A64"/>
<path d="M263.159 171.36C263.106 171.264 263.076 171.157 263.074 171.048C263.069 171.002 263.077 170.955 263.096 170.913C263.115 170.871 263.146 170.835 263.184 170.809L285.387 157.957L285.614 158.361L263.159 171.36Z" fill="#37474F"/>
<path d="M285.664 158.871C285.561 158.804 285.474 158.714 285.412 158.608C285.349 158.501 285.312 158.382 285.303 158.259C285.303 158.027 285.462 157.929 285.664 158.045C285.767 158.113 285.853 158.203 285.916 158.309C285.978 158.415 286.016 158.534 286.025 158.657C286.025 158.89 285.866 158.988 285.664 158.871Z" fill="#263238"/>
<path d="M283.479 159.11V159.507L280.119 161.454V161.05L280.297 159.783L282.843 157.727L283.479 159.11Z" fill="#BA68C8"/>
<path opacity="0.2" d="M280.119 161.452L280.303 160.179L280.297 159.781L280.119 161.048V161.452Z" fill="black"/>
<path opacity="0.2" d="M283.478 159.505L282.842 158.128V157.73L283.478 159.107V159.505Z" fill="black"/>
<path opacity="0.1" d="M280.301 160.178L282.841 158.128V157.73L280.295 159.781L280.301 160.178Z" fill="black"/>
<path d="M222.601 170.887L219.964 164.125L222.087 158.005V154.223L215.588 157.974V161.726L218.385 168.366C218.429 168.44 218.495 168.497 218.574 168.531L222.601 170.887Z" fill="#BA68C8"/>
<path opacity="0.2" d="M222.601 170.887L219.964 164.125L222.087 158.005V154.223L215.588 157.974V161.726L218.385 168.366C218.429 168.44 218.495 168.497 218.574 168.531L222.601 170.887Z" fill="black"/>
<path d="M238.289 142.167C238.254 141.491 238.059 140.833 237.721 140.247C237.383 139.661 236.91 139.163 236.343 138.795L235.62 138.312C235.017 138.007 234.35 137.848 233.674 137.848C232.998 137.848 232.332 138.007 231.728 138.312L205.247 153.612C204.679 153.98 204.207 154.478 203.869 155.064C203.53 155.65 203.336 156.308 203.301 156.984V165.931C203.336 166.607 203.53 167.265 203.869 167.851C204.207 168.437 204.679 168.935 205.247 169.303L205.994 169.762C206.596 170.07 207.263 170.23 207.94 170.23C208.616 170.23 209.283 170.07 209.886 169.762L219.678 164.101L222.456 170.748C222.496 170.816 222.555 170.873 222.625 170.909C222.696 170.946 222.775 170.962 222.854 170.955C222.933 170.948 223.009 170.918 223.072 170.869C223.135 170.821 223.182 170.755 223.209 170.68L226.159 160.344L236.343 154.462C236.91 154.094 237.383 153.596 237.721 153.01C238.059 152.424 238.254 151.766 238.289 151.09V142.167Z" fill="#BA68C8"/>
<path opacity="0.2" d="M203.275 165.944C203.31 166.62 203.505 167.278 203.843 167.864C204.182 168.45 204.654 168.948 205.222 169.316L205.968 169.775C206.517 170.052 207.118 170.209 207.732 170.237C208.346 170.264 208.959 170.161 209.53 169.934C208.612 170.277 207.914 169.763 207.914 168.649V159.732C207.936 159.053 208.132 158.392 208.484 157.81L203.845 155.105C203.494 155.685 203.298 156.344 203.275 157.021V165.944Z" fill="black"/>
<path opacity="0.5" d="M238.228 141.615C238.001 140.789 237.242 140.526 236.343 141.04L209.861 156.34C209.283 156.692 208.809 157.193 208.491 157.79L203.852 155.092C204.176 154.496 204.648 153.995 205.222 153.635L231.698 138.335C232.302 138.03 232.97 137.871 233.647 137.871C234.324 137.871 234.992 138.03 235.596 138.335L236.343 138.794C236.83 139.114 237.248 139.528 237.572 140.013C237.896 140.498 238.119 141.043 238.228 141.615Z" fill="white"/>
<path d="M211.531 165.663C211.299 165.755 211.041 165.755 210.809 165.663C210.765 165.631 210.73 165.589 210.706 165.539C210.683 165.49 210.672 165.436 210.674 165.382C210.683 165.148 210.735 164.917 210.827 164.702C210.886 164.505 211.006 164.331 211.17 164.207C211.252 164.169 211.343 164.152 211.433 164.158H211.696C211.946 164.146 212.189 164.074 212.406 163.95C212.62 163.827 212.809 163.665 212.963 163.472C213.12 163.288 213.205 163.053 213.202 162.811C213.21 162.667 213.167 162.523 213.079 162.407C212.996 162.327 212.888 162.277 212.773 162.267C212.6 162.253 212.426 162.253 212.253 162.267C211.853 162.308 211.45 162.209 211.115 161.985C210.98 161.832 210.879 161.652 210.819 161.457C210.759 161.261 210.741 161.056 210.766 160.853C210.78 160.204 210.993 159.576 211.378 159.054C211.787 158.463 212.325 157.974 212.951 157.622C213.185 157.483 213.436 157.374 213.697 157.297C213.893 157.224 214.102 157.195 214.309 157.212C214.438 157.212 214.499 157.31 214.499 157.463C214.489 157.671 214.447 157.878 214.377 158.075C214.337 158.261 214.233 158.428 214.083 158.546C213.988 158.59 213.887 158.621 213.783 158.638C213.547 158.677 213.32 158.755 213.11 158.87C212.882 158.986 212.688 159.159 212.547 159.372C212.452 159.518 212.397 159.687 212.388 159.862C212.388 160.119 212.455 160.272 212.59 160.333C212.788 160.394 212.995 160.419 213.202 160.406H213.44C213.808 160.373 214.174 160.478 214.469 160.7C214.589 160.849 214.679 161.02 214.732 161.204C214.786 161.388 214.802 161.581 214.781 161.771C214.777 162.191 214.694 162.606 214.536 162.995C214.356 163.442 214.101 163.856 213.783 164.219C213.424 164.626 213 164.971 212.529 165.241C212.215 165.424 211.88 165.566 211.531 165.663Z" fill="white"/>
<path d="M215.504 163.121V156.511C215.504 156.291 215.706 156.064 216.116 155.838L216.55 155.587C216.942 155.361 217.162 155.355 217.162 155.587V158.139L218.931 157.117V154.565C218.931 154.345 219.133 154.124 219.543 153.892L219.965 153.647C220.363 153.415 220.577 153.415 220.577 153.647V160.263C220.577 160.483 220.375 160.703 219.965 160.936L219.543 161.181C219.145 161.413 218.931 161.413 218.931 161.181V158.488L217.162 159.51V162.178C217.162 162.399 216.967 162.625 216.55 162.852L216.116 163.102C215.706 163.335 215.504 163.341 215.504 163.121Z" fill="white"/>
<path d="M221.133 159.977C221.136 159.909 221.146 159.841 221.163 159.775L222.755 152.284C222.804 152.064 223.012 151.85 223.367 151.635L224.04 151.244C224.419 151.029 224.652 150.999 224.652 151.164L226.243 156.813C226.243 156.905 226.243 156.96 226.243 156.99C226.243 157.143 226.09 157.302 225.796 157.474L225.252 157.792C224.921 157.982 224.738 158.012 224.701 157.89L224.432 156.782L222.865 157.688L222.583 159.108C222.583 159.273 222.394 159.438 222.1 159.61L221.561 159.916C221.298 160.112 221.133 160.13 221.133 159.977ZM224.327 155.626L223.862 153.704C223.813 153.484 223.771 153.245 223.734 152.988L223.685 153.018C223.648 153.312 223.611 153.6 223.562 153.875L223.103 156.323L224.327 155.626Z" fill="white"/>
<path d="M226.887 156.55V150.045C226.883 149.915 226.917 149.788 226.985 149.677C227.067 149.56 227.176 149.463 227.303 149.396L229.023 148.398C229.465 148.078 230.01 147.932 230.553 147.988C230.938 148.074 231.134 148.49 231.134 149.212C231.107 150.078 230.756 150.902 230.149 151.52V151.562C230.227 151.562 230.304 151.577 230.375 151.608C230.447 151.638 230.512 151.683 230.565 151.74C230.692 151.869 230.786 152.026 230.841 152.199L231.453 153.827L231.483 153.937C231.483 154.121 231.269 154.335 230.841 154.58L230.479 154.794C230.118 155.002 229.91 155.026 229.867 154.873L229.323 153.227C229.304 153.18 229.275 153.138 229.238 153.103C229.201 153.068 229.157 153.041 229.109 153.025C228.972 153.027 228.839 153.072 228.729 153.154L228.484 153.294V155.626C228.484 155.846 228.276 156.079 227.872 156.318L227.517 156.52C227.095 156.764 226.887 156.77 226.887 156.55ZM229.054 151.458C229.226 151.349 229.362 151.192 229.445 151.005C229.556 150.77 229.611 150.513 229.604 150.253C229.604 149.965 229.549 149.788 229.445 149.714C229.379 149.678 229.304 149.663 229.229 149.669C229.154 149.676 229.082 149.704 229.023 149.751L228.478 150.069V151.777L229.054 151.458Z" fill="white"/>
<path d="M232.309 153.613C232.248 153.613 232.217 153.49 232.217 153.349V146.972C232.213 146.842 232.245 146.713 232.309 146.599C232.382 146.489 232.481 146.399 232.597 146.336L235.657 144.579C235.761 144.518 235.834 144.512 235.883 144.579C235.945 144.687 235.971 144.811 235.956 144.934V145.253C235.962 145.401 235.937 145.549 235.883 145.687C235.837 145.795 235.758 145.885 235.657 145.944L233.821 146.991V148.49L235.43 147.56C235.534 147.499 235.614 147.499 235.657 147.56C235.718 147.665 235.744 147.788 235.73 147.909V148.227C235.736 148.375 235.711 148.523 235.657 148.662C235.613 148.771 235.533 148.861 235.43 148.919L233.821 149.849V151.52L235.657 150.467C235.761 150.406 235.834 150.406 235.877 150.467C235.932 150.576 235.956 150.7 235.944 150.822V151.14C235.948 151.288 235.925 151.435 235.877 151.575C235.833 151.68 235.756 151.769 235.657 151.826L232.597 153.588C232.553 153.612 232.505 153.627 232.455 153.631C232.406 153.636 232.356 153.629 232.309 153.613Z" fill="white"/>
<path d="M195.228 152.693L192.59 145.93L194.714 139.81V136.059L188.221 139.81V143.556L191.011 150.196C191.055 150.271 191.122 150.331 191.201 150.367L195.228 152.693Z" fill="#BA68C8"/>
<path opacity="0.2" d="M195.228 152.693L192.59 145.93L194.714 139.81V136.059L188.221 139.81V143.556L191.011 150.196C191.055 150.271 191.122 150.331 191.201 150.367L195.228 152.693Z" fill="black"/>
<path d="M212.926 122.779C212.891 122.104 212.697 121.446 212.358 120.859C212.02 120.273 211.548 119.776 210.98 119.407L210.234 118.948C209.63 118.643 208.963 118.484 208.287 118.484C207.611 118.484 206.945 118.643 206.341 118.948L175.784 136.592C175.216 136.961 174.744 137.458 174.406 138.044C174.067 138.631 173.873 139.288 173.838 139.964V148.906C173.875 149.582 174.071 150.24 174.409 150.826C174.747 151.413 175.218 151.912 175.784 152.284L176.531 152.737C177.133 153.044 177.8 153.204 178.477 153.204C179.153 153.204 179.82 153.044 180.423 152.737L192.265 145.913L195.056 152.547C195.096 152.616 195.155 152.672 195.226 152.708C195.297 152.744 195.377 152.759 195.456 152.752C195.535 152.744 195.61 152.714 195.673 152.664C195.736 152.615 195.783 152.549 195.809 152.474L198.752 142.168L210.992 135.099C211.56 134.731 212.032 134.233 212.371 133.647C212.709 133.061 212.904 132.403 212.939 131.727L212.926 122.779Z" fill="#BA68C8"/>
<path opacity="0.2" d="M173.838 148.906C173.875 149.582 174.071 150.24 174.409 150.827C174.747 151.413 175.218 151.913 175.784 152.284L176.531 152.737C177.079 153.014 177.681 153.171 178.295 153.199C178.909 153.226 179.521 153.123 180.093 152.896C179.175 153.245 178.477 152.725 178.477 151.617V142.67C178.501 141.991 178.697 141.33 179.046 140.748L174.419 138.043C174.07 138.625 173.875 139.286 173.85 139.965L173.838 148.906Z" fill="black"/>
<path opacity="0.5" d="M212.866 122.229C212.639 121.402 211.88 121.139 210.981 121.653L180.424 139.297C179.846 139.654 179.373 140.156 179.053 140.754L174.42 138.049C174.746 137.453 175.221 136.952 175.797 136.592L206.342 118.948C206.946 118.643 207.614 118.484 208.291 118.484C208.968 118.484 209.636 118.643 210.24 118.948L210.987 119.407C211.474 119.727 211.892 120.141 212.215 120.626C212.537 121.111 212.759 121.656 212.866 122.229Z" fill="white"/>
<path d="M181.647 148.062V142.205C181.642 142.087 181.672 141.97 181.733 141.868C181.798 141.77 181.886 141.688 181.99 141.63L184.548 140.155C184.64 140.1 184.707 140.1 184.75 140.155C184.806 140.251 184.829 140.362 184.817 140.473V140.76C184.82 140.894 184.798 141.027 184.75 141.152C184.709 141.247 184.638 141.327 184.548 141.379L183.097 142.217V143.576L184.462 142.786C184.554 142.731 184.621 142.731 184.67 142.786C184.723 142.881 184.745 142.99 184.731 143.098V143.386C184.738 143.519 184.717 143.653 184.67 143.778C184.627 143.875 184.554 143.956 184.462 144.01L183.097 144.8V147.248C183.097 147.444 182.914 147.645 182.559 147.86L182.186 148.074C181.824 148.251 181.647 148.257 181.647 148.062Z" fill="white"/>
<path d="M185.436 142.913C185.436 140.698 186.243 139.119 187.884 138.176C188.673 137.723 189.279 137.644 189.689 137.944C190.099 138.244 190.301 138.966 190.301 140.104C190.334 141.098 190.124 142.086 189.689 142.981C189.274 143.751 188.647 144.388 187.884 144.817C186.213 145.771 185.436 145.135 185.436 142.913ZM188.416 143.115C188.57 142.864 188.674 142.586 188.722 142.295C188.798 141.852 188.833 141.404 188.826 140.955C188.838 140.544 188.804 140.133 188.722 139.731C188.655 139.468 188.551 139.309 188.416 139.266C188.323 139.247 188.226 139.248 188.134 139.269C188.041 139.29 187.953 139.331 187.877 139.388C187.66 139.512 187.474 139.683 187.333 139.89C187.173 140.141 187.067 140.422 187.021 140.716C186.939 141.156 186.902 141.603 186.91 142.05C186.896 142.461 186.933 142.872 187.021 143.274C187.088 143.544 187.192 143.697 187.333 143.739C187.428 143.756 187.525 143.753 187.618 143.731C187.712 143.708 187.8 143.668 187.877 143.611C188.083 143.487 188.256 143.317 188.385 143.115H188.416Z" fill="white"/>
<path d="M191.23 142.711C191.175 142.711 191.145 142.607 191.145 142.478V136.621C191.145 136.425 191.328 136.217 191.689 136.009L192.056 135.789C192.418 135.581 192.595 135.581 192.595 135.789V140.801L193.984 139.999C194.082 139.944 194.156 139.938 194.198 139.999C194.251 140.097 194.272 140.208 194.26 140.318V140.605C194.265 140.739 194.245 140.872 194.198 140.997C194.155 141.096 194.079 141.178 193.984 141.23L191.493 142.668C191.371 142.723 191.285 142.741 191.23 142.711Z" fill="white"/>
<path d="M195.025 140.529C194.97 140.499 194.939 140.425 194.939 140.291V134.434C194.939 134.238 195.123 134.036 195.478 133.822L195.851 133.608C196.212 133.4 196.39 133.393 196.39 133.608V138.62L197.779 137.824C197.877 137.763 197.944 137.757 197.993 137.824C198.046 137.919 198.068 138.028 198.055 138.136V138.424C198.061 138.557 198.04 138.691 197.993 138.816C197.946 138.914 197.872 138.997 197.779 139.054L195.288 140.486C195.166 140.535 195.08 140.554 195.025 140.529Z" fill="white"/>
<path d="M198.373 135.429C198.373 133.21 199.189 131.631 200.821 130.692C201.617 130.233 202.216 130.154 202.626 130.46C203.036 130.766 203.238 131.482 203.238 132.62C203.275 133.615 203.064 134.603 202.626 135.497C202.213 136.269 201.586 136.906 200.821 137.333C199.193 138.283 198.377 137.649 198.373 135.429ZM201.36 135.625C201.515 135.375 201.619 135.096 201.666 134.805C201.739 134.364 201.772 133.918 201.764 133.471C201.778 133.061 201.745 132.65 201.666 132.247C201.598 131.978 201.494 131.825 201.36 131.776C201.265 131.76 201.168 131.763 201.074 131.785C200.981 131.807 200.893 131.848 200.815 131.904C200.6 132.026 200.416 132.196 200.276 132.4C200.118 132.654 200.01 132.937 199.958 133.232C199.877 133.67 199.84 134.115 199.848 134.56C199.834 134.971 199.871 135.382 199.958 135.784C200.032 136.054 200.136 136.213 200.276 136.256C200.37 136.272 200.466 136.269 200.559 136.246C200.651 136.224 200.739 136.184 200.815 136.127C201.029 136.003 201.211 135.832 201.347 135.625H201.36Z" fill="white"/>
<path d="M204.835 134.921C204.822 134.926 204.808 134.927 204.794 134.926C204.78 134.924 204.766 134.919 204.754 134.912C204.742 134.904 204.733 134.894 204.725 134.881C204.718 134.869 204.714 134.856 204.713 134.842L203.489 129.578C203.486 129.552 203.486 129.525 203.489 129.499C203.491 129.478 203.491 129.458 203.489 129.438C203.489 129.278 203.672 129.089 204.04 128.881L204.309 128.722C204.676 128.507 204.878 128.489 204.921 128.666L205.355 131.849L205.441 132.461L205.527 133.14L205.692 131.916C205.713 131.819 205.728 131.721 205.735 131.622L206.304 127.767C206.316 127.684 206.357 127.608 206.42 127.553C206.517 127.461 206.627 127.383 206.745 127.32L207.21 127.051C207.308 126.987 207.415 126.94 207.528 126.91C207.595 126.91 207.632 126.91 207.644 126.996L208.201 130.196L208.409 131.506L208.538 130.435L208.593 129.976L209.04 126.304C209.04 126.096 209.26 125.888 209.652 125.692L209.866 125.564C210.233 125.356 210.417 125.331 210.417 125.49C210.42 125.539 210.42 125.588 210.417 125.637L209.193 132.32C209.193 132.461 209.021 132.614 208.758 132.767L208.146 133.122C207.901 133.263 207.761 133.281 207.73 133.165L207.118 130.252L207.014 129.315L206.855 130.356L206.212 134.028C206.212 134.168 206.047 134.315 205.796 134.462L205.184 134.817C205.075 134.873 204.957 134.909 204.835 134.921Z" fill="white"/>
<path d="M140.35 106.005L166.054 91.1641C166.146 91.0932 166.259 91.0547 166.376 91.0547C166.492 91.0547 166.605 91.0932 166.697 91.1641C166.85 91.2865 168.3 92.0515 168.459 92.1678C168.556 92.2538 168.63 92.3612 168.677 92.4814C168.724 92.6016 168.741 92.7311 168.729 92.8594V115.993C168.724 116.325 168.641 116.652 168.487 116.946C168.333 117.241 168.112 117.495 167.841 117.688L163.331 120.295L139.738 106.678C139.878 106.403 140.09 106.171 140.35 106.005Z" fill="#BA68C8"/>
<path opacity="0.5" d="M140.35 106.005L166.054 91.1641C166.146 91.0932 166.259 91.0547 166.376 91.0547C166.492 91.0547 166.605 91.0932 166.697 91.1641C166.85 91.2865 168.3 92.0515 168.459 92.1678C168.556 92.2538 168.63 92.3612 168.677 92.4814C168.724 92.6016 168.741 92.7311 168.729 92.8594V115.993C168.724 116.325 168.641 116.652 168.487 116.946C168.333 117.241 168.112 117.495 167.841 117.688L163.331 120.295L139.738 106.678C139.878 106.403 140.09 106.171 140.35 106.005Z" fill="white"/>
<path d="M141.544 132.567C141.366 132.45 139.903 131.643 139.744 131.532C139.645 131.447 139.567 131.34 139.518 131.218C139.469 131.097 139.45 130.965 139.463 130.835V107.713C139.472 107.355 139.568 107.004 139.744 106.691L163.337 120.308L142.143 132.548C142.056 132.609 141.953 132.643 141.846 132.646C141.74 132.65 141.635 132.622 141.544 132.567Z" fill="#BA68C8"/>
<path opacity="0.2" d="M141.544 132.567C141.366 132.45 139.903 131.643 139.744 131.532C139.645 131.447 139.567 131.34 139.518 131.218C139.469 131.097 139.45 130.965 139.463 130.835V107.713C139.472 107.355 139.568 107.004 139.744 106.691L163.337 120.308L142.143 132.548C142.056 132.609 141.953 132.643 141.846 132.646C141.74 132.65 141.635 132.622 141.544 132.567Z" fill="black"/>
<path d="M142.143 132.529L167.847 117.688C168.118 117.494 168.339 117.24 168.493 116.946C168.647 116.651 168.73 116.325 168.735 115.992V92.8588C168.735 92.2101 168.337 91.9102 167.847 92.1917L142.143 107.033C141.873 107.226 141.652 107.48 141.498 107.775C141.344 108.069 141.261 108.396 141.256 108.728V131.862C141.256 132.51 141.654 132.804 142.143 132.529Z" fill="#BA68C8"/>
<path opacity="0.2" d="M141.256 131.862V131.403L151.886 113.789L141.372 107.975L141.452 107.786L154.542 113.22C154.818 113.33 155.154 113.128 155.454 112.694L168.508 92.1797C168.538 92.2076 168.564 92.2383 168.588 92.2715L158.11 110.179L168.735 115.521V115.974C168.729 116.339 168.639 116.697 168.472 117.021L157.572 111.103L156.023 113.74C155.411 114.787 154.579 115.27 153.967 114.928L152.425 114.071L141.544 132.547C141.445 132.463 141.368 132.358 141.318 132.239C141.268 132.12 141.247 131.991 141.256 131.862Z" fill="black"/>
<path d="M146.733 109.757L172.437 94.9157C172.531 94.8461 172.644 94.8086 172.761 94.8086C172.878 94.8086 172.992 94.8461 173.086 94.9157C173.232 95.0442 174.689 95.8092 174.848 95.9194C174.944 96.0066 175.019 96.1151 175.066 96.2363C175.112 96.3574 175.13 96.4878 175.117 96.6171V119.751C175.111 120.083 175.028 120.409 174.873 120.703C174.719 120.997 174.499 121.251 174.23 121.446L169.713 124.047L146.127 110.43C146.267 110.157 146.476 109.924 146.733 109.757Z" fill="#BA68C8"/>
<path opacity="0.5" d="M146.733 109.757L172.437 94.9157C172.531 94.8461 172.644 94.8086 172.761 94.8086C172.878 94.8086 172.992 94.8461 173.086 94.9157C173.232 95.0442 174.689 95.8092 174.848 95.9194C174.944 96.0066 175.019 96.1151 175.066 96.2363C175.112 96.3574 175.13 96.4878 175.117 96.6171V119.751C175.111 120.083 175.028 120.409 174.873 120.703C174.719 120.997 174.499 121.251 174.23 121.446L169.713 124.047L146.127 110.43C146.267 110.157 146.476 109.924 146.733 109.757Z" fill="white"/>
<path d="M147.921 136.317C147.749 136.207 146.287 135.393 146.127 135.289C146.027 135.203 145.949 135.094 145.9 134.972C145.851 134.849 145.833 134.717 145.846 134.585V111.452C145.856 111.093 145.953 110.743 146.127 110.43L169.714 124.047L148.526 136.287C148.439 136.349 148.335 136.385 148.228 136.391C148.121 136.396 148.014 136.371 147.921 136.317Z" fill="#BA68C8"/>
<path opacity="0.2" d="M147.921 136.317C147.749 136.207 146.287 135.393 146.127 135.289C146.027 135.203 145.949 135.094 145.9 134.972C145.851 134.849 145.833 134.717 145.846 134.585V111.452C145.856 111.093 145.953 110.743 146.127 110.43L169.714 124.047L148.526 136.287C148.439 136.349 148.335 136.385 148.228 136.391C148.121 136.396 148.014 136.371 147.921 136.317Z" fill="black"/>
<path d="M148.526 136.289L174.23 121.448C174.499 121.253 174.72 120.999 174.874 120.705C175.028 120.41 175.111 120.084 175.117 119.752V96.6187C175.117 95.9639 174.72 95.664 174.23 95.9455L148.526 110.787C148.257 110.981 148.037 111.235 147.883 111.53C147.729 111.824 147.645 112.15 147.639 112.482V135.615C147.639 136.27 148.036 136.57 148.526 136.289Z" fill="#BA68C8"/>
<path opacity="0.2" d="M147.64 135.615V135.162L158.264 117.548L147.774 111.734C147.797 111.67 147.824 111.606 147.854 111.545L160.92 116.991C161.202 117.108 161.532 116.9 161.832 116.465L174.886 95.957C174.917 95.981 174.944 96.0099 174.966 96.0427L164.494 113.956L175.119 119.293V119.752C175.114 120.115 175.021 120.472 174.849 120.792L163.95 114.874L162.407 117.506C161.795 118.552 160.963 119.036 160.351 118.73L158.803 117.873L147.921 136.318C147.823 136.231 147.746 136.122 147.697 136C147.648 135.878 147.629 135.746 147.64 135.615Z" fill="black"/>
<path d="M153.11 113.516L178.814 98.675C178.907 98.6045 179.021 98.5664 179.138 98.5664C179.255 98.5664 179.369 98.6045 179.463 98.675C179.61 98.7974 181.06 99.5624 181.219 99.6787C181.316 99.7638 181.392 99.8711 181.439 99.9915C181.486 100.112 181.503 100.242 181.488 100.37V123.504C181.485 123.836 181.403 124.163 181.249 124.458C181.094 124.753 180.872 125.007 180.601 125.199L176.091 127.806L152.498 114.189C152.638 113.914 152.85 113.682 153.11 113.516Z" fill="#BA68C8"/>
<path opacity="0.5" d="M153.11 113.516L178.814 98.675C178.907 98.6045 179.021 98.5664 179.138 98.5664C179.255 98.5664 179.369 98.6045 179.463 98.675C179.61 98.7974 181.06 99.5624 181.219 99.6787C181.316 99.7638 181.392 99.8711 181.439 99.9915C181.486 100.112 181.503 100.242 181.488 100.37V123.504C181.485 123.836 181.403 124.163 181.249 124.458C181.094 124.753 180.872 125.007 180.601 125.199L176.091 127.806L152.498 114.189C152.638 113.914 152.85 113.682 153.11 113.516Z" fill="white"/>
<path d="M154.303 140.075C154.126 139.959 152.663 139.151 152.504 139.041C152.404 138.956 152.327 138.848 152.278 138.726C152.229 138.605 152.21 138.474 152.223 138.343V115.21C152.231 114.851 152.328 114.5 152.504 114.188L176.097 127.804L154.903 140.045C154.817 140.107 154.714 140.143 154.608 140.149C154.501 140.154 154.396 140.129 154.303 140.075Z" fill="#BA68C8"/>
<path opacity="0.2" d="M154.303 140.075C154.126 139.959 152.663 139.151 152.504 139.041C152.404 138.956 152.327 138.848 152.278 138.726C152.229 138.605 152.21 138.474 152.223 138.343V115.21C152.231 114.851 152.328 114.5 152.504 114.188L176.097 127.804L154.903 140.045C154.817 140.107 154.714 140.143 154.608 140.149C154.501 140.154 154.396 140.129 154.303 140.075Z" fill="black"/>
<path d="M154.903 140.04L180.607 125.199C180.878 125.007 181.1 124.753 181.254 124.458C181.409 124.164 181.491 123.837 181.494 123.504V100.371C181.494 99.7218 181.103 99.4219 180.607 99.7035L154.903 114.544C154.633 114.738 154.412 114.992 154.258 115.286C154.103 115.581 154.021 115.907 154.016 116.24V139.373C154.016 140.022 154.413 140.322 154.903 140.04Z" fill="#BA68C8"/>
<path opacity="0.2" d="M154.015 139.375V138.928L164.627 121.302L154.131 115.488L154.211 115.299L167.283 120.751C167.559 120.862 167.895 120.66 168.195 120.225L181.249 99.7109C181.277 99.7381 181.304 99.7667 181.329 99.7966L170.87 117.71L181.494 123.053V123.506C181.487 123.87 181.397 124.228 181.231 124.552L170.331 118.634L168.789 121.272C168.177 122.318 167.338 122.802 166.726 122.459L165.184 121.602L154.303 140.078C154.202 139.993 154.123 139.884 154.073 139.762C154.023 139.639 154.003 139.506 154.015 139.375Z" fill="black"/>
<path d="M265.185 228.177L191.941 270.46C190.783 271.129 189.475 271.493 188.138 271.519C186.801 271.544 185.48 271.231 184.297 270.607L36.8356 185.435C34.51 184.095 32.625 181.096 32.625 178.703C32.625 176.31 34.51 173.348 36.8294 172.001L109.81 129.926C111.114 129.269 112.554 128.926 114.015 128.926C115.475 128.926 116.915 129.269 118.219 129.926L265.185 214.811C267.511 216.151 269.396 219.15 269.396 221.512C269.396 223.875 267.511 226.837 265.185 228.177Z" fill="#BA68C8"/>
<path opacity="0.5" d="M109.81 129.926L36.8294 172.056C34.51 173.402 32.625 176.401 32.625 178.757C32.625 181.113 34.51 184.118 36.8356 185.489L184.328 270.637C185.465 271.219 186.722 271.529 188 271.542V170.189L118.232 129.926C116.926 129.266 115.484 128.922 114.021 128.922C112.558 128.922 111.116 129.266 109.81 129.926Z" fill="black"/>
<path opacity="0.4" d="M191.941 270.458L265.185 228.174C267.511 226.834 269.396 223.835 269.396 221.479C269.396 219.123 267.511 216.118 265.185 214.778L187.957 170.188V271.51C189.356 271.524 190.732 271.161 191.941 270.458Z" fill="black"/>
<path d="M190.197 262.926C189.047 263.509 187.777 263.812 186.488 263.812C185.2 263.812 183.929 263.509 182.78 262.926L36.8176 178.654C33.678 176.818 33.678 173.88 36.8176 172.069L109.805 129.926C111.109 129.269 112.549 128.926 114.009 128.926C115.47 128.926 116.91 129.269 118.214 129.926L265.179 214.811C267.493 216.145 267.493 218.33 265.179 219.664L190.197 262.926Z" fill="#BA68C8"/>
<path opacity="0.3" d="M190.197 262.926C189.047 263.509 187.777 263.812 186.488 263.812C185.2 263.812 183.929 263.509 182.78 262.926L36.8176 178.654C33.678 176.818 33.678 173.88 36.8176 172.069L109.805 129.926C111.109 129.269 112.549 128.926 114.009 128.926C115.47 128.926 116.91 129.269 118.214 129.926L265.179 214.811C267.493 216.145 267.493 218.33 265.179 219.664L190.197 262.926Z" fill="black"/>
<path d="M183.11 254.441C181.871 255.069 180.502 255.396 179.113 255.396C177.725 255.396 176.356 255.069 175.117 254.441L49.5164 181.925C47.307 180.652 47.307 178.584 49.5164 177.311L118.177 137.696C119.416 137.071 120.785 136.746 122.173 136.746C123.561 136.746 124.93 137.071 126.169 137.696L251.77 210.188C253.967 211.454 253.967 213.535 251.77 214.802L183.11 254.441Z" fill="#37474F"/>
<path d="M121.928 136.738C120.618 136.747 119.33 137.077 118.177 137.699L49.5164 177.314C47.307 178.587 47.307 180.655 49.5164 181.928L63.1272 189.786L121.928 152.234V136.738Z" fill="#263238"/>
<path d="M126.219 140.673C124.979 140.048 123.611 139.723 122.223 139.723C120.835 139.723 119.466 140.048 118.226 140.673L49.5722 180.312C49.1755 180.529 48.8193 180.812 48.5195 181.15C48.8124 181.457 49.1485 181.719 49.5171 181.928L175.118 254.444C176.357 255.071 177.726 255.398 179.114 255.398C180.503 255.398 181.872 255.071 183.111 254.444L251.771 214.81C252.159 214.594 252.508 214.315 252.805 213.984C252.52 213.671 252.188 213.404 251.82 213.195L126.219 140.673Z" fill="#455A64"/>
<path d="M74.6134 158.768L86.7799 151.773C87.5082 151.357 87.5449 150.696 86.8595 150.305C86.4612 150.112 86.0231 150.015 85.5806 150.024C85.1382 150.032 84.7041 150.145 84.3136 150.353L72.147 157.379C71.4187 157.795 71.382 158.456 72.0674 158.848C72.4681 159.036 72.9075 159.127 73.3499 159.113C73.7924 159.1 74.2253 158.981 74.6134 158.768Z" fill="#37474F"/>
<path d="M95.5081 146.727C95.6572 146.676 95.7867 146.58 95.8784 146.452C95.9701 146.325 96.0194 146.171 96.0194 146.014C96.0194 145.856 95.9701 145.703 95.8784 145.575C95.7867 145.447 95.6572 145.351 95.5081 145.301C95.1281 145.111 94.709 145.012 94.2841 145.012C93.8592 145.012 93.4401 145.111 93.0601 145.301C92.9111 145.351 92.7816 145.447 92.6899 145.575C92.5981 145.703 92.5488 145.856 92.5488 146.014C92.5488 146.171 92.5981 146.325 92.6899 146.452C92.7816 146.58 92.9111 146.676 93.0601 146.727C93.4401 146.917 93.8592 147.016 94.2841 147.016C94.709 147.016 95.1281 146.917 95.5081 146.727Z" fill="#37474F"/>
<path d="M100.44 143.871C100.589 143.821 100.718 143.725 100.81 143.597C100.902 143.469 100.951 143.316 100.951 143.158C100.951 143.001 100.902 142.848 100.81 142.72C100.718 142.592 100.589 142.496 100.44 142.445C100.06 142.255 99.6407 142.156 99.2158 142.156C98.7908 142.156 98.3718 142.255 97.9918 142.445C97.8427 142.496 97.7132 142.592 97.6215 142.72C97.5298 142.848 97.4805 143.001 97.4805 143.158C97.4805 143.316 97.5298 143.469 97.6215 143.597C97.7132 143.725 97.8427 143.821 97.9918 143.871C98.3718 144.061 98.7908 144.16 99.2158 144.16C99.6407 144.16 100.06 144.061 100.44 143.871Z" fill="#37474F"/>
<path d="M60.9788 166.656C61.1279 166.606 61.2574 166.51 61.3491 166.382C61.4408 166.254 61.4901 166.101 61.4901 165.943C61.4901 165.786 61.4408 165.633 61.3491 165.505C61.2574 165.377 61.1279 165.281 60.9788 165.231C60.5988 165.04 60.1797 164.941 59.7548 164.941C59.3299 164.941 58.9108 165.04 58.5308 165.231C58.3818 165.281 58.2523 165.377 58.1606 165.505C58.0689 165.633 58.0195 165.786 58.0195 165.943C58.0195 166.101 58.0689 166.254 58.1606 166.382C58.2523 166.51 58.3818 166.606 58.5308 166.656C58.9108 166.847 59.3299 166.946 59.7548 166.946C60.1797 166.946 60.5988 166.847 60.9788 166.656Z" fill="#37474F"/>
<path d="M65.9124 163.805C66.0615 163.754 66.191 163.658 66.2827 163.531C66.3744 163.403 66.4237 163.249 66.4237 163.092C66.4237 162.935 66.3744 162.781 66.2827 162.653C66.191 162.525 66.0615 162.429 65.9124 162.379C65.5324 162.189 65.1133 162.09 64.6884 162.09C64.2635 162.09 63.8444 162.189 63.4644 162.379C63.3154 162.429 63.1859 162.525 63.0942 162.653C63.0025 162.781 62.9531 162.935 62.9531 163.092C62.9531 163.249 63.0025 163.403 63.0942 163.531C63.1859 163.658 63.3154 163.754 63.4644 163.805C63.8444 163.995 64.2635 164.094 64.6884 164.094C65.1133 164.094 65.5324 163.995 65.9124 163.805Z" fill="#37474F"/>
<path d="M83.0908 207.343C83.4661 207.577 83.7809 207.896 84.0096 208.274C84.2382 208.653 84.3742 209.08 84.4066 209.521C84.4207 209.67 84.3947 209.821 84.3312 209.956C84.2677 210.092 84.169 210.208 84.0455 210.293L83.1214 210.825C82.9679 210.892 82.7996 210.917 82.6332 210.899C82.4668 210.881 82.3081 210.819 82.1728 210.721L65.0735 200.843C64.6981 200.609 64.3833 200.29 64.1547 199.911C63.926 199.533 63.79 199.106 63.7577 198.665C63.7441 198.521 63.7673 198.377 63.8252 198.245C63.883 198.113 63.9735 197.999 64.0882 197.912C64.2534 197.808 64.8776 197.453 65.0368 197.361C65.1913 197.294 65.3605 197.269 65.5279 197.287C65.6952 197.305 65.8549 197.367 65.9915 197.465L83.0908 207.343Z" fill="#BA68C8"/>
<path opacity="0.4" d="M83.0908 207.343C83.4661 207.577 83.7809 207.896 84.0096 208.274C84.2382 208.653 84.3742 209.08 84.4066 209.521C84.4207 209.67 84.3947 209.821 84.3312 209.956C84.2677 210.092 84.169 210.208 84.0455 210.293L83.1214 210.825C82.9679 210.892 82.7996 210.917 82.6332 210.899C82.4668 210.881 82.3081 210.819 82.1728 210.721L65.0735 200.843C64.6981 200.609 64.3833 200.29 64.1547 199.911C63.926 199.533 63.79 199.106 63.7577 198.665C63.7441 198.521 63.7673 198.377 63.8252 198.245C63.883 198.113 63.9735 197.999 64.0882 197.912C64.2534 197.808 64.8776 197.453 65.0368 197.361C65.1913 197.294 65.3605 197.269 65.5279 197.287C65.6952 197.305 65.8549 197.367 65.9915 197.465L83.0908 207.343Z" fill="black"/>
<path d="M82.1729 207.872L65.0736 198C64.3453 197.578 63.7578 197.878 63.7578 198.667C63.7901 199.108 63.9261 199.535 64.1548 199.914C64.3834 200.293 64.6983 200.612 65.0736 200.846L82.1729 210.724C82.9012 211.14 83.4887 210.84 83.4887 210.056C83.4568 209.614 83.3211 209.186 83.0924 208.806C82.8638 208.427 82.5487 208.107 82.1729 207.872Z" fill="#BA68C8"/>
<path opacity="0.3" d="M82.1729 207.872L65.0736 198C64.3453 197.578 63.7578 197.878 63.7578 198.667C63.7901 199.108 63.9261 199.535 64.1548 199.914C64.3834 200.293 64.6983 200.612 65.0736 200.846L82.1729 210.724C82.9012 211.14 83.4887 210.84 83.4887 210.056C83.4568 209.614 83.3211 209.186 83.0924 208.806C82.8638 208.427 82.5487 208.107 82.1729 207.872Z" fill="black"/>
<path d="M60.2019 194.126C60.5759 194.362 60.8893 194.683 61.1167 195.062C61.3442 195.442 61.4794 195.869 61.5116 196.311C61.528 196.459 61.5029 196.609 61.4392 196.744C61.3754 196.879 61.2755 196.994 61.1505 197.076C60.9914 197.161 60.3978 197.522 60.2325 197.614C60.0781 197.678 59.9099 197.702 59.7439 197.683C59.5778 197.663 59.4195 197.602 59.2839 197.504L51.2239 192.847C50.8485 192.613 50.5337 192.294 50.3051 191.915C50.0764 191.536 49.9404 191.109 49.9081 190.668C49.8945 190.525 49.9177 190.38 49.9755 190.249C50.0334 190.117 50.1239 190.002 50.2386 189.915L51.1872 189.364C51.3409 189.297 51.5097 189.272 51.6763 189.291C51.843 189.311 52.0015 189.374 52.1358 189.475L60.2019 194.126Z" fill="#BA68C8"/>
<path opacity="0.4" d="M60.2019 194.126C60.5759 194.362 60.8893 194.683 61.1167 195.062C61.3442 195.442 61.4794 195.869 61.5116 196.311C61.528 196.459 61.5029 196.609 61.4392 196.744C61.3754 196.879 61.2755 196.994 61.1505 197.076C60.9914 197.161 60.3978 197.522 60.2325 197.614C60.0781 197.678 59.9099 197.702 59.7439 197.683C59.5778 197.663 59.4195 197.602 59.2839 197.504L51.2239 192.847C50.8485 192.613 50.5337 192.294 50.3051 191.915C50.0764 191.536 49.9404 191.109 49.9081 190.668C49.8945 190.525 49.9177 190.38 49.9755 190.249C50.0334 190.117 50.1239 190.002 50.2386 189.915L51.1872 189.364C51.3409 189.297 51.5097 189.272 51.6763 189.291C51.843 189.311 52.0015 189.374 52.1358 189.475L60.2019 194.126Z" fill="black"/>
<path d="M59.284 194.659L51.224 190.001C50.4957 189.585 49.9082 189.879 49.9082 190.668C49.9405 191.109 50.0765 191.537 50.3052 191.915C50.5338 192.294 50.8486 192.613 51.224 192.847L59.284 197.504C60.0123 197.927 60.5998 197.627 60.5998 196.837C60.5675 196.396 60.4315 195.969 60.2029 195.59C59.9742 195.212 59.6594 194.893 59.284 194.659Z" fill="#BA68C8"/>
<path opacity="0.3" d="M59.284 194.659L51.224 190.001C50.4957 189.585 49.9082 189.879 49.9082 190.668C49.9405 191.109 50.0765 191.537 50.3052 191.915C50.5338 192.294 50.8486 192.613 51.224 192.847L59.284 197.504C60.0123 197.927 60.5998 197.627 60.5998 196.837C60.5675 196.396 60.4315 195.969 60.2029 195.59C59.9742 195.212 59.6594 194.893 59.284 194.659Z" fill="black"/>
<path d="M150.654 222.019V222.515C150.676 222.943 150.798 223.361 151.011 223.734C151.224 224.107 151.521 224.425 151.878 224.663L178.506 240.036C178.891 240.232 179.317 240.335 179.749 240.335C180.181 240.335 180.606 240.232 180.991 240.036L225.086 214.577C225.444 214.34 225.742 214.022 225.954 213.649C226.167 213.276 226.289 212.858 226.31 212.429V211.933C226.288 211.504 226.166 211.087 225.953 210.714C225.74 210.341 225.443 210.023 225.086 209.785L198.458 194.412C198.073 194.216 197.647 194.113 197.215 194.113C196.783 194.113 196.358 194.216 195.973 194.412L151.878 219.871C151.52 220.108 151.222 220.426 151.01 220.799C150.797 221.172 150.675 221.59 150.654 222.019Z" fill="#BA68C8"/>
<path d="M150.654 222.019V222.515C150.676 222.943 150.798 223.361 151.011 223.734C151.224 224.107 151.521 224.425 151.878 224.663L178.506 240.036C178.891 240.232 179.317 240.335 179.749 240.335C180.181 240.335 180.606 240.232 180.991 240.036L225.086 214.577C225.444 214.34 225.742 214.022 225.954 213.649C226.167 213.276 226.289 212.858 226.31 212.429V211.933C226.288 211.504 226.166 211.087 225.953 210.714C225.74 210.341 225.443 210.023 225.086 209.785L198.458 194.412C198.073 194.216 197.647 194.113 197.215 194.113C196.783 194.113 196.358 194.216 195.973 194.412L151.878 219.871C151.52 220.108 151.222 220.426 151.01 220.799C150.797 221.172 150.675 221.59 150.654 222.019Z" fill="#BA68C8"/>
<path opacity="0.3" d="M225.105 209.785L198.476 194.412C198.092 194.216 197.666 194.113 197.234 194.113C196.802 194.113 196.376 194.216 195.992 194.412L179.768 203.794V240.354C180.194 240.361 180.616 240.257 180.992 240.055L225.086 214.595C225.445 214.359 225.742 214.041 225.955 213.668C226.167 213.294 226.289 212.876 226.31 212.447V211.952C226.293 211.521 226.175 211.101 225.966 210.725C225.756 210.348 225.461 210.026 225.105 209.785Z" fill="white"/>
<path opacity="0.15" d="M225.105 209.785L198.476 194.412C198.092 194.216 197.666 194.113 197.234 194.113C196.802 194.113 196.376 194.216 195.992 194.412L179.768 203.794V240.354C180.194 240.361 180.616 240.257 180.992 240.055L225.086 214.595C225.445 214.359 225.742 214.041 225.955 213.668C226.167 213.294 226.289 212.876 226.31 212.447V211.952C226.293 211.521 226.175 211.101 225.966 210.725C225.756 210.348 225.461 210.026 225.105 209.785Z" fill="black"/>
<path opacity="0.3" d="M179.766 203.797L151.896 219.892C151.538 220.129 151.24 220.447 151.027 220.82C150.815 221.194 150.693 221.612 150.672 222.041V222.536C150.694 222.965 150.816 223.383 151.029 223.756C151.241 224.129 151.538 224.447 151.896 224.684L178.524 240.058C178.9 240.261 179.321 240.364 179.748 240.358L179.766 203.797Z" fill="white"/>
<path opacity="0.2" d="M179.766 203.797L151.896 219.892C151.538 220.129 151.24 220.447 151.027 220.82C150.815 221.194 150.693 221.612 150.672 222.041V222.536C150.694 222.965 150.816 223.383 151.029 223.756C151.241 224.129 151.538 224.447 151.896 224.684L178.524 240.058C178.9 240.261 179.321 240.364 179.748 240.358L179.766 203.797Z" fill="black"/>
<path d="M174.26 234.216L151.897 221.303C151.746 221.254 151.614 221.158 151.521 221.03C151.427 220.901 151.377 220.746 151.377 220.587C151.377 220.428 151.427 220.273 151.521 220.144C151.614 220.016 151.746 219.92 151.897 219.871L195.992 194.412C196.377 194.216 196.803 194.113 197.234 194.113C197.666 194.113 198.092 194.216 198.477 194.412L225.105 209.785C225.256 209.834 225.388 209.93 225.482 210.059C225.575 210.187 225.625 210.342 225.625 210.501C225.625 210.66 225.575 210.815 225.482 210.944C225.388 211.072 225.256 211.168 225.105 211.217L217.792 215.422L215.227 216.903L181.01 236.658C180.626 236.854 180.2 236.956 179.768 236.956C179.336 236.956 178.91 236.854 178.526 236.658L176.359 235.403L174.26 234.216Z" fill="#BA68C8"/>
<path opacity="0.3" d="M174.26 234.216L151.897 221.303C151.746 221.254 151.614 221.158 151.521 221.03C151.427 220.901 151.377 220.746 151.377 220.587C151.377 220.428 151.427 220.273 151.521 220.144C151.614 220.016 151.746 219.92 151.897 219.871L195.992 194.412C196.377 194.216 196.803 194.113 197.234 194.113C197.666 194.113 198.092 194.216 198.477 194.412L225.105 209.785C225.256 209.834 225.388 209.93 225.482 210.059C225.575 210.187 225.625 210.342 225.625 210.501C225.625 210.66 225.575 210.815 225.482 210.944C225.388 211.072 225.256 211.168 225.105 211.217L217.792 215.422L215.227 216.903L181.01 236.658C180.626 236.854 180.2 236.956 179.768 236.956C179.336 236.956 178.91 236.854 178.526 236.658L176.359 235.403L174.26 234.216Z" fill="white"/>
<path opacity="0.15" d="M194.565 212.767L225.104 209.787L194.834 211.501L198.476 194.414C198.059 194.197 197.592 194.097 197.123 194.126L191.413 217.259L151.395 220.558C151.391 220.723 151.437 220.885 151.527 221.024C151.616 221.162 151.745 221.271 151.897 221.335L184.21 219.426L179.761 236.978L185.434 219.359L190.942 219.034C191.623 219.001 192.272 218.733 192.778 218.275C193.252 217.854 193.578 217.292 193.708 216.672L194.565 212.767Z" fill="black"/>
<path opacity="0.3" d="M160.954 219.736L191.425 217.227L192.514 212.857L193.126 210.409L197.153 194.105C196.757 194.111 196.367 194.209 196.015 194.393L173.983 207.123L151.951 219.852C151.821 219.913 151.707 220.004 151.619 220.118C151.532 220.232 151.474 220.366 151.449 220.507L157.569 220.005L160.954 219.736Z" fill="white"/>
<path d="M192.167 190.766C194.952 189.156 199.468 189.156 202.253 190.766C205.038 192.375 205.038 194.982 202.253 196.586C199.468 198.189 194.952 198.195 192.167 196.586C189.383 194.976 189.407 192.375 192.167 190.766Z" fill="#F28F8F"/>
<path d="M193.709 194.614C193.633 194.612 193.561 194.586 193.501 194.541C193.478 194.526 193.46 194.505 193.45 194.48C193.44 194.454 193.439 194.427 193.446 194.4L193.862 192.564C193.862 192.521 193.862 192.466 193.911 192.399C193.938 192.326 193.993 192.267 194.064 192.234L195.08 191.622C195.149 191.583 195.227 191.564 195.306 191.567C195.385 191.564 195.464 191.583 195.533 191.622L200.936 194.743C200.963 194.753 200.986 194.77 201.002 194.793C201.018 194.816 201.028 194.843 201.028 194.872C201.026 194.899 201.016 194.926 201 194.949C200.984 194.971 200.962 194.989 200.936 195L199.841 195.612C199.772 195.65 199.694 195.669 199.615 195.667C199.535 195.67 199.457 195.651 199.388 195.612L195.716 193.507L195.471 194.517C195.471 194.566 195.422 194.608 195.355 194.639C195.28 194.67 195.198 194.683 195.116 194.676L193.709 194.614Z" fill="#FAFAFA"/>
<path d="M125.238 211.954L144.963 200.57L158.427 203.906C158.717 203.977 159.021 203.957 159.299 203.848C159.577 203.74 159.814 203.549 159.979 203.301C160.145 203.053 160.229 202.76 160.222 202.462C160.215 202.164 160.116 201.875 159.939 201.635L154.884 194.83L174.602 183.44C176.059 182.596 176.059 181.219 174.602 180.38L135.159 157.59C134.337 157.176 133.429 156.961 132.509 156.961C131.589 156.961 130.681 157.176 129.859 157.59L80.4889 186.121C79.0323 186.959 79.0323 188.336 80.4889 189.181L119.951 211.954C120.77 212.368 121.676 212.584 122.595 212.584C123.513 212.584 124.419 212.368 125.238 211.954Z" fill="#FAFAFA"/>
<path d="M100.888 181.927C102.05 181.246 103.294 180.715 104.59 180.349C105.743 180.022 106.926 179.817 108.122 179.737C109.176 179.667 110.235 179.73 111.273 179.926C112.156 180.092 113.015 180.366 113.831 180.74C114.647 181.148 115.488 181.595 116.353 182.08C117.218 182.566 117.989 183.049 118.666 183.531C119.234 183.92 119.714 184.425 120.074 185.012C120.41 185.561 120.531 186.215 120.41 186.848C120.239 187.603 119.87 188.298 119.339 188.861C118.541 189.718 117.607 190.435 116.573 190.985C115.419 191.664 114.185 192.201 112.901 192.582C111.756 192.916 110.578 193.121 109.388 193.194C108.334 193.262 107.275 193.196 106.237 192.999C105.352 192.836 104.49 192.565 103.672 192.191C102.856 191.783 102.018 191.336 101.157 190.85C100.296 190.365 99.5229 189.879 98.8375 189.394C98.2698 189.009 97.7918 188.506 97.436 187.919C97.1005 187.37 96.9806 186.716 97.0994 186.083C97.2696 185.326 97.6298 184.624 98.1459 184.045C98.9324 183.188 99.8597 182.472 100.888 181.927ZM113.403 186.077C113.158 185.887 112.898 185.717 112.626 185.569L111.451 184.89L110.27 184.21C109.99 184.039 109.697 183.889 109.394 183.763C108.723 183.458 107.996 183.296 107.259 183.286C106.327 183.306 105.42 183.586 104.639 184.094C103.666 184.657 103.195 185.159 103.232 185.606C103.274 185.858 103.37 186.098 103.514 186.309C103.657 186.52 103.845 186.698 104.064 186.83C104.304 187.018 104.556 187.191 104.817 187.35C105.172 187.576 105.557 187.809 105.967 188.041C106.377 188.274 106.775 188.5 107.191 188.708C107.485 188.87 107.787 189.015 108.097 189.143C108.768 189.448 109.496 189.611 110.233 189.62C111.164 189.598 112.071 189.319 112.852 188.812C113.825 188.249 114.297 187.748 114.254 187.295C114.211 187.041 114.112 186.801 113.965 186.59C113.818 186.38 113.626 186.204 113.403 186.077ZM122.112 170.887C122.08 170.622 122.12 170.354 122.228 170.11C122.443 169.786 122.744 169.527 123.097 169.363L126.114 167.619C126.456 167.414 126.838 167.287 127.234 167.246C127.565 167.207 127.9 167.269 128.195 167.423C128.258 167.466 128.313 167.517 128.36 167.576C128.414 167.647 128.452 167.728 128.471 167.815L131.941 198.519C131.968 198.782 131.926 199.048 131.818 199.29C131.61 199.619 131.31 199.881 130.955 200.043L127.938 201.787C127.597 201.991 127.214 202.116 126.818 202.154C126.488 202.198 126.152 202.138 125.857 201.983C125.79 201.941 125.732 201.887 125.686 201.824C125.635 201.752 125.597 201.671 125.576 201.585L122.112 170.887ZM137.969 178.182C139.132 177.501 140.376 176.969 141.671 176.597C142.823 176.267 144.007 176.062 145.203 175.985C146.257 175.915 147.316 175.979 148.354 176.175C149.237 176.341 150.096 176.614 150.913 176.989C151.729 177.397 152.569 177.841 153.434 178.323C154.299 178.804 155.07 179.29 155.747 179.779C156.315 180.167 156.794 180.669 157.155 181.254C157.49 181.804 157.61 182.458 157.492 183.09C157.321 183.849 156.951 184.548 156.421 185.116C155.621 185.97 154.686 186.688 153.654 187.24C152.501 187.92 151.268 188.455 149.982 188.831C148.84 189.167 147.664 189.373 146.476 189.443C145.421 189.513 144.362 189.449 143.324 189.253C142.439 189.086 141.578 188.813 140.759 188.439C139.939 188.041 139.101 187.601 138.244 187.105C137.387 186.609 136.616 186.126 135.925 185.648C135.359 185.259 134.881 184.754 134.523 184.167C134.185 183.619 134.065 182.964 134.187 182.331C134.357 181.574 134.717 180.873 135.233 180.293C136.017 179.437 136.942 178.723 137.969 178.182ZM150.484 182.325C150.239 182.138 149.979 181.97 149.707 181.823L148.532 181.15L147.351 180.471C147.07 180.3 146.777 180.149 146.476 180.018C145.802 179.718 145.076 179.556 144.34 179.541C143.408 179.567 142.5 179.847 141.714 180.349C140.747 180.912 140.276 181.42 140.313 181.866C140.355 182.118 140.451 182.358 140.595 182.57C140.738 182.781 140.926 182.958 141.145 183.09C141.384 183.28 141.633 183.455 141.892 183.617C142.253 183.843 142.638 184.076 143.048 184.308C143.458 184.541 143.856 184.767 144.272 184.975C144.689 185.183 144.97 185.324 145.178 185.41C145.851 185.71 146.577 185.872 147.314 185.887C148.245 185.86 149.151 185.578 149.933 185.073C150.906 184.516 151.372 184.008 151.335 183.562C151.293 183.306 151.195 183.062 151.048 182.848C150.901 182.635 150.708 182.456 150.484 182.325Z" fill="#BA68C8"/>
<g filter="url(#filter5_d_1259_3735)">
<path d="M51.2539 62.1663L59.2833 57.5273V94.4677C59.2833 95.8569 60.8929 97.2461 60.8929 97.2461L52.8635 101.885C52.8635 101.885 51.2539 100.49 51.2539 99.1005V62.1663Z" fill="#37474F"/>
<path d="M41.4927 62.0859L44.8771 66.3699V82.4227C44.8708 86.9167 43.5981 91.3179 41.2051 95.1217L52.8331 101.854C51.9553 101.17 51.378 100.171 51.2235 99.0691V67.7225L41.4927 62.0859Z" fill="#455A64"/>
<path d="M41.2051 95.1523V97.0067L52.8637 103.739V101.884L41.2051 95.1523Z" fill="#BA68C8"/>
<path d="M52.8633 103.739L60.8927 99.1005V97.2461L52.8633 101.885V103.739Z" fill="#BA68C8"/>
<path opacity="0.1" d="M52.8633 103.739L60.8927 99.1005V97.2461L52.8633 101.885V103.739Z" fill="black"/>
<path d="M50.8872 42.6597C49.5224 41.8396 47.6252 41.9436 45.526 43.1554L45.4465 43.1982C41.2971 45.6034 37.9434 51.4051 37.9434 56.2216V56.3011C37.9434 58.7491 38.8491 60.4995 40.2934 61.2461L46.3706 64.8202L56.5053 45.9767L50.8872 42.6597Z" fill="#BA68C8"/>
<path opacity="0.8" d="M50.8872 42.6597C49.5224 41.8396 47.6252 41.9436 45.526 43.1554L45.4465 43.1982C41.2971 45.6034 37.9434 51.4051 37.9434 56.2216V56.3011C37.9434 58.7491 38.8491 60.4995 40.2934 61.2461L46.3706 64.8202L56.5053 45.9767L50.8872 42.6597Z" fill="#FAFAFA"/>
<path opacity="0.2" d="M40.2812 61.2618L46.3584 64.8358L49.7244 58.5873L38.6288 52.1797C38.1928 53.4846 37.9616 54.8493 37.9434 56.225V56.3046C37.9434 58.7954 38.8369 60.5151 40.2812 61.2618Z" fill="#BA68C8"/>
<path d="M64.0085 47.2836C62.4662 46.4023 60.3854 46.4329 58.0843 47.559C57.8395 47.6753 57.5947 47.8038 57.3499 47.9507C57.1051 48.0975 56.7685 48.2995 56.487 48.4953C56.0071 48.8268 55.5473 49.1865 55.11 49.5725C54.2709 50.2948 53.4968 51.0893 52.7966 51.947C50.8465 54.3254 49.4014 57.0762 48.5494 60.0315C48.1518 61.4251 47.9459 62.8664 47.9374 64.3155C47.9374 67.247 48.941 69.3278 50.5751 70.3437L44.7672 66.9961C43.6898 66.3016 42.8089 65.342 42.2088 64.2093C41.6087 63.0766 41.3095 61.8087 41.34 60.5273C41.3521 59.1493 41.5455 57.7789 41.9153 56.4513C42.7494 53.4242 44.2088 50.6055 46.1993 48.1771C46.8978 47.318 47.672 46.5232 48.5126 45.8025C48.9524 45.3993 49.4164 45.0233 49.9019 44.6765C50.1895 44.4806 50.4772 44.297 50.7648 44.1318C51.0524 43.9665 51.2605 43.8625 51.5114 43.7462C52.5423 43.26 53.6711 43.0171 54.8107 43.0362C55.9503 43.0553 57.0703 43.3359 58.0843 43.8564L58.2496 43.9482L58.4576 44.0706L64.0085 47.2836Z" fill="#BA68C8"/>
<path opacity="0.1" d="M44.7555 66.9588C43.6781 66.2643 42.7972 65.3047 42.1971 64.172C41.597 63.0393 41.2978 61.7715 41.3283 60.49C41.3404 59.112 41.5338 57.7416 41.9036 56.4141L48.5376 60.0249C48.14 61.4184 47.9341 62.8597 47.9256 64.3089C47.9256 67.2403 48.9293 69.3211 50.5634 70.3371L44.7555 66.9588Z" fill="black"/>
<path d="M66.7754 53.3884C66.7754 59.4043 62.5587 66.7116 57.3506 69.7165C54.7373 71.2343 52.3628 71.3628 50.6553 70.3285L50.5635 70.2735C48.9295 69.2575 47.9258 67.1767 47.9258 64.2453C47.9258 58.2354 52.1425 50.922 57.3506 47.9171C59.9455 46.4177 62.3017 46.2708 64.0091 47.25C65.7166 48.2292 66.7754 50.3773 66.7754 53.3884Z" fill="#BA68C8"/>
<path opacity="0.2" d="M66.7754 53.3884C66.7754 59.4043 62.5587 66.7116 57.3506 69.7165C54.7373 71.2343 52.3628 71.3628 50.6553 70.3285L50.5635 70.2735C48.9295 69.2575 47.9258 67.1767 47.9258 64.2453C47.9258 58.2354 52.1425 50.922 57.3506 47.9171C59.9455 46.4177 62.3017 46.2708 64.0091 47.25C65.7166 48.2292 66.7754 50.3773 66.7754 53.3884Z" fill="black"/>
<path d="M95.6795 51.8372C95.6795 51.8372 86.169 56.7332 78.0478 70.8092C76.5863 73.3341 75.2981 75.9554 74.1922 78.655C70.1162 88.6612 70.4528 95.5585 70.4528 95.5585C67.6193 88.6123 64.0942 81.4274 58.2128 75.9255C55.9126 73.7832 53.4999 71.7648 50.9851 69.8789C49.4306 68.9732 48.5371 67.0148 48.5371 64.3097C48.5571 62.4115 48.907 60.5311 49.5714 58.7528C50.0069 57.5568 50.5476 56.4017 51.1871 55.3011C52.724 52.5125 54.9488 50.1634 57.6498 48.4773C59.9937 47.1248 62.148 46.9289 63.7025 47.8225C66.5929 49.0576 69.5469 50.1383 72.552 51.0599C80.2632 53.3978 88.2498 52.8531 95.6795 51.8372Z" fill="#BA68C8"/>
<path opacity="0.8" d="M95.6795 51.8372C95.6795 51.8372 86.169 56.7332 78.0478 70.8092C76.5863 73.3341 75.2981 75.9554 74.1922 78.655C70.1162 88.6612 70.4528 95.5585 70.4528 95.5585C67.6193 88.6123 64.0942 81.4274 58.2128 75.9255C55.9126 73.7832 53.4999 71.7648 50.9851 69.8789C49.4306 68.9732 48.5371 67.0148 48.5371 64.3097C48.5571 62.4115 48.907 60.5311 49.5714 58.7528C50.0069 57.5568 50.5476 56.4017 51.1871 55.3011C52.724 52.5125 54.9488 50.1634 57.6498 48.4773C59.9937 47.1248 62.148 46.9289 63.7025 47.8225C66.5929 49.0576 69.5469 50.1383 72.552 51.0599C80.2632 53.3978 88.2498 52.8531 95.6795 51.8372Z" fill="#FAFAFA"/>
<path opacity="0.2" d="M74.1922 78.6278C70.1162 88.634 70.4528 95.5312 70.4528 95.5312C67.6193 88.585 64.0942 81.4001 58.2128 75.8982C55.9126 73.7559 53.4999 71.7375 50.9851 69.8517C49.4306 68.9459 48.5371 66.9875 48.5371 64.2825C48.5599 62.3924 48.9098 60.5206 49.5714 58.75C56.7991 62.3486 68.4577 69.001 74.1922 78.6278Z" fill="#BA68C8"/>
<path d="M113.599 65.4022C113.599 71.6752 111.665 78.5357 108.452 84.876C104.334 93.0218 98.1218 100.243 91.1879 104.258C78.7949 111.412 68.752 105.611 68.752 91.3082C68.7863 87.8761 69.2866 84.4647 70.2391 81.1673C72.7345 72.4639 77.4037 64.5387 83.8072 58.1378C84.6844 57.2769 85.584 56.4609 86.5061 55.6898C86.8916 55.3715 87.2833 55.0778 87.675 54.7656C88.2319 54.3434 88.7888 53.9394 89.358 53.5416C89.9272 53.1438 90.5759 52.8011 91.1879 52.4523C103.55 45.2858 113.599 51.0998 113.599 65.4022Z" fill="#BA68C8"/>
<path opacity="0.1" d="M108.452 84.8767C104.334 93.0224 98.1218 100.244 91.1879 104.259C78.7949 111.413 68.752 105.611 68.752 91.3088C68.7863 87.8768 69.2866 84.4653 70.2391 81.168C71.0776 83.004 74.0886 85.66 75.4411 83.8057C74.6091 86.7333 74.1707 89.7587 74.1376 92.8021C74.1376 96.9147 75.0556 100.232 76.7875 102.398C77.503 103.305 78.4223 104.031 79.4708 104.516C80.5193 105 81.6674 105.231 82.8218 105.189C85.2698 105.189 88.134 104.289 91.0777 102.588C96.9958 99.173 102.436 93.0346 106.298 86.064C106.274 86.0823 107.045 86.731 108.452 84.8767Z" fill="black"/>
<path d="M112.063 66.2033C112.063 72.5191 109.848 79.6673 106.274 86.081C102.412 93.0334 96.9715 99.1717 91.0534 102.605C88.1097 104.306 85.2578 105.206 82.7976 105.206C81.6431 105.248 80.495 105.018 79.4465 104.533C78.398 104.048 77.4787 103.322 76.7632 102.415C75.0313 100.249 74.1133 96.9073 74.1133 92.8192C74.1464 89.7758 74.5848 86.7504 75.4168 83.8228C75.729 82.66 76.1023 81.4972 76.5246 80.3344C77.2746 78.2779 78.1577 76.2724 79.1684 74.3306L79.7804 73.1066C80.1415 72.4457 80.5148 71.7908 80.9065 71.1482C82.2228 68.9653 83.7019 66.8847 85.3312 64.9242L85.3863 64.863C86.4357 63.6033 87.5532 62.4019 88.734 61.2644C89.5744 60.4484 90.4272 59.7018 91.2921 59.0245C91.6593 58.7308 92.0265 58.4492 92.3937 58.18C92.8405 57.8556 93.2934 57.568 93.7462 57.2436C94.1991 56.9192 94.6398 56.6806 95.0865 56.4174C98.0364 54.7099 100.894 53.8164 103.349 53.8164C108.82 53.8531 112.063 58.4554 112.063 66.2033Z" fill="#BA68C8"/>
<path opacity="0.3" d="M112.063 66.2033C112.063 72.5191 109.848 79.6673 106.274 86.081C102.412 93.0334 96.9715 99.1717 91.0534 102.605C88.1097 104.306 85.2578 105.206 82.7976 105.206C81.6431 105.248 80.495 105.018 79.4465 104.533C78.398 104.048 77.4787 103.322 76.7632 102.415C75.0313 100.249 74.1133 96.9073 74.1133 92.8192C74.1464 89.7758 74.5848 86.7504 75.4168 83.8228C75.729 82.66 76.1023 81.4972 76.5246 80.3344C77.2746 78.2779 78.1577 76.2724 79.1684 74.3306L79.7804 73.1066C80.1415 72.4457 80.5148 71.7908 80.9065 71.1482C82.2228 68.9653 83.7019 66.8847 85.3312 64.9242L85.3863 64.863C86.4357 63.6033 87.5532 62.4019 88.734 61.2644C89.5744 60.4484 90.4272 59.7018 91.2921 59.0245C91.6593 58.7308 92.0265 58.4492 92.3937 58.18C92.8405 57.8556 93.2934 57.568 93.7462 57.2436C94.1991 56.9192 94.6398 56.6806 95.0865 56.4174C98.0364 54.7099 100.894 53.8164 103.349 53.8164C108.82 53.8531 112.063 58.4554 112.063 66.2033Z" fill="black"/>
<path d="M93.0232 69.7161L85.1529 84.4041C82.9375 83.5718 79.1982 82.2437 76.1504 81.4665C76.2728 81.0748 76.4074 80.6954 76.5543 80.3037C77.3029 78.2466 78.1861 76.241 79.1982 74.3C79.4062 73.896 79.6204 73.4982 79.8102 73.076C80.1712 72.415 80.5446 71.7602 80.9362 71.1237C82.2511 68.9397 83.7303 66.859 85.361 64.8996C85.3826 64.8801 85.4012 64.8574 85.4161 64.8323C85.6548 64.5508 85.8934 64.2693 86.1321 64C88.2574 66.1034 90.5633 68.0161 93.0232 69.7161Z" fill="#BA68C8"/>
<g opacity="0.6">
<path d="M93.0232 69.7161L85.1529 84.4041C82.9375 83.5718 79.1982 82.2437 76.1504 81.4665C76.2728 81.0748 76.4074 80.6954 76.5543 80.3037C77.3029 78.2466 78.1861 76.241 79.1982 74.3C79.4062 73.896 79.6204 73.4982 79.8102 73.076C80.1712 72.415 80.5446 71.7602 80.9362 71.1237C82.2511 68.9397 83.7303 66.859 85.361 64.8996C85.3826 64.8801 85.4012 64.8574 85.4161 64.8323C85.6548 64.5508 85.8934 64.2693 86.1321 64C88.2574 66.1034 90.5633 68.0161 93.0232 69.7161Z" fill="#FAFAFA"/>
</g>
<path d="M85.783 84.3739C84.0021 84.3739 82.9434 82.9357 82.9434 80.5306V80.4571C82.9434 76.675 85.6056 72.0544 88.8859 70.1633L88.9471 70.1266C89.6956 69.661 90.5512 69.3955 91.4318 69.3555C93.2066 69.3555 94.2715 70.7937 94.2715 73.2049V73.2784C94.2715 77.0605 91.6032 81.675 88.329 83.5661L88.2678 83.6028C87.5205 84.0712 86.6642 84.337 85.783 84.3739Z" fill="#BA68C8"/>
<g opacity="0.8">
<path d="M85.783 84.3739C84.0021 84.3739 82.9434 82.9357 82.9434 80.5306V80.4571C82.9434 76.675 85.6056 72.0544 88.8859 70.1633L88.9471 70.1266C89.6956 69.661 90.5512 69.3955 91.4318 69.3555C93.2066 69.3555 94.2715 70.7937 94.2715 73.2049V73.2784C94.2715 77.0605 91.6032 81.675 88.329 83.5661L88.2678 83.6028C87.5205 84.0712 86.6642 84.337 85.783 84.3739Z" fill="#FAFAFA"/>
</g>
<path d="M94.2472 42.9859C93.7781 42.9859 93.3282 42.7995 92.9966 42.4678C92.6649 42.1361 92.4785 41.6863 92.4785 41.2172V24.0812C92.4785 23.6121 92.6649 23.1622 92.9966 22.8305C93.3282 22.4988 93.7781 22.3125 94.2472 22.3125C94.7163 22.3125 95.1661 22.4988 95.4978 22.8305C95.8295 23.1622 96.0159 23.6121 96.0159 24.0812V41.2172C96.0159 41.6863 95.8295 42.1361 95.4978 42.4678C95.1661 42.7995 94.7163 42.9859 94.2472 42.9859Z" fill="#E0E0E0"/>
<path d="M78.6961 47.1608C78.3861 47.1615 78.0814 47.0803 77.8128 46.9256C77.5442 46.7709 77.3211 46.548 77.1661 46.2796L68.5981 31.4569C68.3627 31.0511 68.2982 30.5685 68.4187 30.1151C68.5393 29.6618 68.8349 29.2749 69.2407 29.0395C69.6465 28.8042 70.1291 28.7396 70.5825 28.8601C71.0358 28.9807 71.4227 29.2763 71.6581 29.6821L80.2261 44.5047C80.3823 44.774 80.4646 45.0797 80.4648 45.391C80.465 45.7023 80.3831 46.0082 80.2272 46.2776C80.0714 46.5471 79.8472 46.7707 79.5773 46.9258C79.3073 47.0808 79.0013 47.1619 78.69 47.1608H78.6961Z" fill="#E0E0E0"/>
<path d="M62.4967 129.645C62.1867 129.643 61.8825 129.56 61.6145 129.404C61.3465 129.248 61.1241 129.024 60.9693 128.756C60.8146 128.487 60.7329 128.183 60.7324 127.873C60.732 127.562 60.8127 127.258 60.9667 126.989L69.5347 112.166C69.6454 111.955 69.7977 111.768 69.9823 111.618C70.1669 111.467 70.3801 111.355 70.6091 111.289C70.8381 111.222 71.0781 111.203 71.3147 111.232C71.5514 111.261 71.7797 111.337 71.9861 111.456C72.1925 111.575 72.3726 111.735 72.5157 111.926C72.6588 112.117 72.7618 112.334 72.8187 112.566C72.8755 112.797 72.885 113.038 72.8465 113.273C72.808 113.508 72.7224 113.733 72.5947 113.935L64.0267 128.757C63.8715 129.026 63.6486 129.249 63.3801 129.405C63.1117 129.561 62.8071 129.643 62.4967 129.645Z" fill="#E0E0E0"/>
<path d="M94.2472 131.935C93.7781 131.935 93.3282 131.749 92.9966 131.417C92.6649 131.085 92.4785 130.635 92.4785 130.166V113.03C92.4785 112.561 92.6649 112.111 92.9966 111.78C93.3282 111.448 93.7781 111.262 94.2472 111.262C94.7163 111.262 95.1661 111.448 95.4978 111.78C95.8295 112.111 96.0159 112.561 96.0159 113.03V130.166C96.0159 130.635 95.8295 131.085 95.4978 131.417C95.1661 131.749 94.7163 131.935 94.2472 131.935Z" fill="#E0E0E0"/>
<path d="M118.409 115.935C118.101 115.933 117.799 115.85 117.533 115.696C117.267 115.541 117.046 115.32 116.891 115.053L108.323 100.231C108.111 99.8265 108.064 99.3559 108.191 98.9174C108.318 98.4789 108.609 98.1065 109.005 97.878C109.4 97.6496 109.868 97.5828 110.312 97.6917C110.755 97.8005 111.139 98.0766 111.383 98.4621L119.951 113.285C120.105 113.554 120.186 113.859 120.186 114.169C120.185 114.479 120.104 114.783 119.949 115.052C119.794 115.321 119.572 115.544 119.304 115.7C119.036 115.856 118.731 115.939 118.421 115.941L118.409 115.935Z" fill="#E0E0E0"/>
<path d="M136.066 98.2673C135.757 98.2678 135.453 98.1876 135.184 98.0347L120.362 89.4667C120.161 89.3502 119.985 89.1952 119.844 89.0106C119.703 88.8261 119.6 88.6156 119.54 88.3911C119.48 88.1666 119.465 87.9326 119.496 87.7023C119.527 87.4721 119.603 87.2502 119.719 87.0493C119.836 86.8484 119.991 86.6724 120.175 86.5313C120.36 86.3903 120.57 86.287 120.795 86.2273C121.019 86.1677 121.253 86.1528 121.484 86.1836C121.714 86.2143 121.936 86.2902 122.137 86.4067L136.953 94.9747C137.29 95.1699 137.552 95.4706 137.701 95.8302C137.849 96.1899 137.875 96.5885 137.774 96.9642C137.673 97.3399 137.451 97.6718 137.142 97.9084C136.833 98.1451 136.455 98.2734 136.066 98.2734V98.2673Z" fill="#E0E0E0"/>
<path d="M142.534 74.135H125.398C124.929 74.135 124.479 73.9487 124.147 73.617C123.815 73.2853 123.629 72.8354 123.629 72.3663C123.629 71.8973 123.815 71.4474 124.147 71.1157C124.479 70.784 124.929 70.5977 125.398 70.5977H142.534C143.003 70.5977 143.453 70.784 143.784 71.1157C144.116 71.4474 144.302 71.8973 144.302 72.3663C144.302 72.8354 144.116 73.2853 143.784 73.617C143.453 73.9487 143.003 74.135 142.534 74.135Z" fill="#E0E0E0"/>
<path d="M121.248 58.5619C120.857 58.5643 120.476 58.437 120.165 58.2C119.854 57.963 119.631 57.6296 119.529 57.2519C119.428 56.8743 119.454 56.4736 119.605 56.1127C119.755 55.7518 120.021 55.4509 120.361 55.2571L135.183 46.6891C135.385 46.5614 135.61 46.4758 135.845 46.4373C136.08 46.3988 136.321 46.4082 136.552 46.4651C136.784 46.5219 137.002 46.625 137.192 46.7681C137.383 46.9111 137.543 47.0913 137.662 47.2977C137.781 47.504 137.858 47.7324 137.886 47.969C137.915 48.2057 137.896 48.4457 137.83 48.6747C137.763 48.9036 137.651 49.1168 137.501 49.3015C137.35 49.4861 137.163 49.6384 136.952 49.7491L122.136 58.3171C121.867 58.4767 121.561 58.5612 121.248 58.5619Z" fill="#E0E0E0"/>
<path d="M109.847 47.1608C109.536 47.1598 109.232 47.0771 108.964 46.9212C108.695 46.7652 108.473 46.5414 108.319 46.2723C108.164 46.0032 108.083 45.6982 108.084 45.388C108.085 45.0777 108.167 44.7731 108.323 44.5047L116.891 29.6821C117.126 29.2763 117.513 28.9807 117.966 28.8601C118.42 28.7396 118.902 28.8042 119.308 29.0395C119.714 29.2749 120.01 29.6618 120.13 30.1151C120.251 30.5685 120.186 31.0511 119.951 31.4569L111.383 46.2796C111.227 46.5489 111.003 46.7723 110.733 46.9271C110.464 47.0819 110.158 47.1625 109.847 47.1608Z" fill="#E0E0E0"/>
</g>
</g>
<defs>
<filter id="filter0_d_1259_3735" x="-8.2" y="-4.2" width="322.4" height="322.4" filterUnits="userSpaceOnUse" color-interpolation-filters="sRGB">
<feFlood flood-opacity="0" result="BackgroundImageFix"/>
<feColorMatrix in="SourceAlpha" type="matrix" values="0 0 0 0 0 0 0 0 0 0 0 0 0 0 0 0 0 0 127 0" result="hardAlpha"/>
<feOffset dy="4"/>
<feGaussianBlur stdDeviation="4.1"/>
<feComposite in2="hardAlpha" operator="out"/>
<feColorMatrix type="matrix" values="0 0 0 0 0 0 0 0 0 0 0 0 0 0 0 0 0 0 1 0"/>
<feBlend mode="normal" in2="BackgroundImageFix" result="effect1_dropShadow_1259_3735"/>
<feBlend mode="normal" in="SourceGraphic" in2="effect1_dropShadow_1259_3735" result="shape"/>
</filter>
<filter id="filter1_d_1259_3735" x="4.56836" y="120.723" width="296.864" height="174.745" filterUnits="userSpaceOnUse" color-interpolation-filters="sRGB">
<feFlood flood-opacity="0" result="BackgroundImageFix"/>
<feColorMatrix in="SourceAlpha" type="matrix" values="0 0 0 0 0 0 0 0 0 0 0 0 0 0 0 0 0 0 127 0" result="hardAlpha"/>
<feOffset dy="4"/>
<feGaussianBlur stdDeviation="2"/>
<feComposite in2="hardAlpha" operator="out"/>
<feColorMatrix type="matrix" values="0 0 0 0 0 0 0 0 0 0 0 0 0 0 0 0 0 0 0.25 0"/>
<feBlend mode="normal" in2="BackgroundImageFix" result="effect1_dropShadow_1259_3735"/>
<feBlend mode="normal" in="SourceGraphic" in2="effect1_dropShadow_1259_3735" result="shape"/>
</filter>
<filter id="filter2_d_1259_3735" x="209.539" y="58.1055" width="43.3438" height="57.5273" filterUnits="userSpaceOnUse" color-interpolation-filters="sRGB">
<feFlood flood-opacity="0" result="BackgroundImageFix"/>
<feColorMatrix in="SourceAlpha" type="matrix" values="0 0 0 0 0 0 0 0 0 0 0 0 0 0 0 0 0 0 127 0" result="hardAlpha"/>
<feOffset dy="4"/>
<feGaussianBlur stdDeviation="2"/>
<feComposite in2="hardAlpha" operator="out"/>
<feColorMatrix type="matrix" values="0 0 0 0 0 0 0 0 0 0 0 0 0 0 0 0 0 0 0.25 0"/>
<feBlend mode="normal" in2="BackgroundImageFix" result="effect1_dropShadow_1259_3735"/>
<feBlend mode="normal" in="SourceGraphic" in2="effect1_dropShadow_1259_3735" result="shape"/>
</filter>
<filter id="filter3_d_1259_3735" x="242.91" y="86.0273" width="50.2461" height="50.8057" filterUnits="userSpaceOnUse" color-interpolation-filters="sRGB">
<feFlood flood-opacity="0" result="BackgroundImageFix"/>
<feColorMatrix in="SourceAlpha" type="matrix" values="0 0 0 0 0 0 0 0 0 0 0 0 0 0 0 0 0 0 127 0" result="hardAlpha"/>
<feOffset dy="4"/>
<feGaussianBlur stdDeviation="2"/>
<feComposite in2="hardAlpha" operator="out"/>
<feColorMatrix type="matrix" values="0 0 0 0 0 0 0 0 0 0 0 0 0 0 0 0 0 0 0.25 0"/>
<feBlend mode="normal" in2="BackgroundImageFix" result="effect1_dropShadow_1259_3735"/>
<feBlend mode="normal" in="SourceGraphic" in2="effect1_dropShadow_1259_3735" result="shape"/>
</filter>
<filter id="filter4_d_1259_3735" x="172.537" y="36.707" width="45.3252" height="57.3086" filterUnits="userSpaceOnUse" color-interpolation-filters="sRGB">
<feFlood flood-opacity="0" result="BackgroundImageFix"/>
<feColorMatrix in="SourceAlpha" type="matrix" values="0 0 0 0 0 0 0 0 0 0 0 0 0 0 0 0 0 0 127 0" result="hardAlpha"/>
<feOffset dy="4"/>
<feGaussianBlur stdDeviation="2"/>
<feComposite in2="hardAlpha" operator="out"/>
<feColorMatrix type="matrix" values="0 0 0 0 0 0 0 0 0 0 0 0 0 0 0 0 0 0 0.25 0"/>
<feBlend mode="normal" in2="BackgroundImageFix" result="effect1_dropShadow_1259_3735"/>
<feBlend mode="normal" in="SourceGraphic" in2="effect1_dropShadow_1259_3735" result="shape"/>
</filter>
<filter id="filter5_d_1259_3735" x="33.9434" y="22.3125" width="114.359" height="117.623" filterUnits="userSpaceOnUse" color-interpolation-filters="sRGB">
<feFlood flood-opacity="0" result="BackgroundImageFix"/>
<feColorMatrix in="SourceAlpha" type="matrix" values="0 0 0 0 0 0 0 0 0 0 0 0 0 0 0 0 0 0 127 0" result="hardAlpha"/>
<feOffset dy="4"/>
<feGaussianBlur stdDeviation="2"/>
<feComposite in2="hardAlpha" operator="out"/>
<feColorMatrix type="matrix" values="0 0 0 0 0 0 0 0 0 0 0 0 0 0 0 0 0 0 0.25 0"/>
<feBlend mode="normal" in2="BackgroundImageFix" result="effect1_dropShadow_1259_3735"/>
<feBlend mode="normal" in="SourceGraphic" in2="effect1_dropShadow_1259_3735" result="shape"/>
</filter>
</defs>
</svg>
