<svg width="344" height="344" viewBox="0 0 344 344" fill="none" xmlns="http://www.w3.org/2000/svg">
<g filter="url(#filter0_d_1260_5093)">
<path d="M67.3756 40.6172H43.1855V48.3159H67.3756V40.6172Z" fill="#EBEBEB"/>
<path d="M301.159 109.563H276.281V101.176H301.159V109.563ZM276.969 108.875H300.471V101.864H276.969V108.875Z" fill="#EBEBEB"/>
<path d="M53.8847 30.9112C49.8668 30.98 39.5674 31.152 35.6871 31.2001H29.6946L30.0111 30.8836V38.5824L29.6671 38.2384C33.685 38.2384 43.9293 38.2934 47.8097 38.3484L53.8572 38.4241L53.6921 38.5824L53.8572 30.8836L53.8847 30.9112ZM53.8847 30.9112L54.043 38.6099V38.775H53.8778C50.8575 38.8163 44.7962 38.8851 41.7828 38.9057L29.6878 38.9539H29.3438V38.6099V30.9112V30.6016H29.6533H35.7559C39.6087 30.6428 49.8599 30.8148 53.8434 30.8836L53.8847 30.9112Z" fill="#EBEBEB"/>
<path d="M94.3124 214.481C90.2945 214.549 79.9883 214.721 76.1148 214.77H70.1224L70.432 214.453V222.152L70.088 221.808C74.1059 221.808 84.3502 221.863 88.2305 221.918L94.278 221.994L94.1129 222.152L94.278 214.453L94.3124 214.481ZM94.3124 214.481L94.4707 222.179V222.344H94.3056C91.2852 222.386 85.224 222.454 82.2105 222.482L70.1155 222.523H69.7715V222.172V214.474V214.164H70.088H76.1905C80.0433 214.205 90.2945 214.384 94.278 214.446L94.3124 214.481Z" fill="#EBEBEB"/>
<path d="M80.8134 204.774C76.7955 204.842 66.4961 205.014 62.6227 205.062H56.6302L56.9398 204.746V212.445L56.5958 212.101C60.6068 212.101 70.8511 212.156 74.7315 212.211L80.779 212.286L80.6207 212.445L80.779 204.746L80.8134 204.774ZM80.8134 204.774L80.9785 212.472V212.637H80.8065C77.7931 212.679 71.7318 212.747 68.7115 212.775L56.6233 212.816H56.2793V212.465V204.767V204.457H56.5958H62.6915C66.5511 204.498 76.8023 204.677 80.779 204.739L80.8134 204.774Z" fill="#EBEBEB"/>
<path d="M67.3756 214.48H43.1855V222.179H67.3756V214.48Z" fill="#EBEBEB"/>
<path d="M314.307 30.9102H290.117V38.6089H314.307V30.9102Z" fill="#EBEBEB"/>
<path d="M300.815 300.578H276.625V308.277H300.815V300.578Z" fill="#EBEBEB"/>
<path d="M314.306 290.87C310.288 290.939 299.988 291.111 296.108 291.159H290.115L290.432 290.843V298.541L290.088 298.197C294.106 298.197 304.35 298.245 308.231 298.307L314.278 298.376L314.113 298.541L314.278 290.843L314.306 290.87ZM314.306 290.87L314.471 298.569V298.734H314.306C311.285 298.775 305.231 298.844 302.211 298.865L290.115 298.913H289.771V298.589L289.806 290.891V290.574H290.115H296.218C300.071 290.615 310.329 290.788 314.306 290.856V290.87Z" fill="#EBEBEB"/>
<path d="M53.8847 300.578C49.8668 300.647 39.5674 300.819 35.6871 300.86L29.6946 300.895L30.0111 300.578V308.277L29.6671 307.933C33.685 307.933 43.9293 307.981 47.8097 308.036L53.8572 308.112L53.6921 308.277L53.8572 300.578H53.8847ZM53.8847 300.578L54.043 308.277V308.442H53.8778C50.8575 308.483 44.7962 308.552 41.7828 308.573L29.6878 308.621H29.3438V308.277V300.578V300.262H29.6533H35.7559C39.6087 300.303 49.8599 300.475 53.8434 300.544L53.8847 300.578Z" fill="#EBEBEB"/>
<path d="M311.127 28.6484H148.236V146.324H311.127V28.6484Z" fill="white"/>
<path d="M313.123 148.317H146.242V26.6445H313.123V148.317ZM150.233 144.32H309.161V30.6418H150.233V144.32Z" fill="#EBEBEB"/>
<path d="M268.032 116.187C267.967 116.188 267.903 116.171 267.847 116.139L259.212 111.158C259.155 111.124 259.107 111.075 259.073 111.018C259.039 110.96 259.021 110.894 259.02 110.827V100.858C259.02 100.791 259.038 100.726 259.072 100.668C259.106 100.61 259.154 100.562 259.212 100.528L267.847 95.5401C267.904 95.5062 267.969 95.4883 268.036 95.4883C268.102 95.4883 268.168 95.5062 268.225 95.5401L276.859 100.528C276.917 100.562 276.966 100.61 277 100.668C277.033 100.726 277.051 100.791 277.052 100.858V110.827C277.051 110.894 277.032 110.96 276.999 111.018C276.965 111.075 276.917 111.124 276.859 111.158L268.225 116.139C268.166 116.172 268.1 116.189 268.032 116.187ZM259.776 110.607L268.032 115.368L276.288 110.607V101.078L268.032 96.3106L259.776 101.078V110.607Z" fill="#EBEBEB"/>
<path d="M285.3 116.187C285.233 116.188 285.166 116.172 285.107 116.139L276.48 111.158C276.421 111.125 276.373 111.077 276.339 111.019C276.305 110.96 276.287 110.894 276.287 110.827V100.858C276.286 100.791 276.304 100.725 276.338 100.666C276.372 100.608 276.421 100.56 276.48 100.528L285.107 95.5399C285.166 95.5061 285.232 95.4883 285.3 95.4883C285.368 95.4883 285.434 95.5061 285.493 95.5399L294.12 100.528C294.179 100.56 294.228 100.608 294.262 100.666C294.296 100.725 294.314 100.791 294.313 100.858V110.827C294.313 110.894 294.295 110.96 294.261 111.019C294.227 111.077 294.179 111.125 294.12 111.158L285.52 116.139C285.453 116.177 285.377 116.193 285.3 116.187ZM277.044 110.607L285.3 115.368L293.556 110.607V101.078L285.3 96.3105L277.044 101.078V110.607Z" fill="#EBEBEB"/>
<path d="M285.3 96.2547C285.25 96.2547 285.2 96.2447 285.154 96.2253C285.108 96.2058 285.066 96.1773 285.03 96.1414C284.995 96.1056 284.967 96.0631 284.949 96.0163C284.93 95.9696 284.921 95.9197 284.922 95.8694V89.9526C284.922 89.8523 284.962 89.756 285.033 89.685C285.104 89.6141 285.2 89.5742 285.3 89.5742C285.401 89.5742 285.497 89.6141 285.568 89.685C285.639 89.756 285.679 89.8523 285.679 89.9526V95.8694C285.68 95.9197 285.671 95.9696 285.652 96.0163C285.633 96.0631 285.606 96.1056 285.57 96.1414C285.535 96.1773 285.493 96.2058 285.447 96.2253C285.4 96.2447 285.351 96.2547 285.3 96.2547Z" fill="#EBEBEB"/>
<path d="M293.935 101.237C293.865 101.239 293.797 101.221 293.738 101.186C293.678 101.15 293.63 101.099 293.598 101.038C293.551 100.949 293.54 100.845 293.568 100.749C293.597 100.653 293.661 100.571 293.749 100.522L298.771 97.7699C298.815 97.7457 298.863 97.7304 298.913 97.7249C298.963 97.7195 299.013 97.7239 299.061 97.738C299.109 97.752 299.154 97.7755 299.192 97.8069C299.231 97.8384 299.264 97.8772 299.287 97.9212C299.312 97.965 299.327 98.0131 299.332 98.0628C299.338 98.1125 299.333 98.1628 299.319 98.2108C299.305 98.2588 299.282 98.3035 299.25 98.3424C299.219 98.3812 299.18 98.4135 299.136 98.4372L294.114 101.189C294.06 101.222 293.998 101.239 293.935 101.237Z" fill="#EBEBEB"/>
<path d="M260.972 110.078C260.871 110.076 260.775 110.035 260.704 109.963C260.633 109.891 260.594 109.794 260.594 109.693V102.097C260.594 101.997 260.634 101.901 260.705 101.83C260.776 101.759 260.872 101.719 260.972 101.719C261.073 101.719 261.169 101.759 261.24 101.83C261.311 101.901 261.351 101.997 261.351 102.097V109.706C261.349 109.806 261.308 109.9 261.237 109.97C261.167 110.039 261.071 110.078 260.972 110.078Z" fill="#EBEBEB"/>
<path d="M278.793 110.078C278.742 110.078 278.692 110.068 278.646 110.049C278.6 110.029 278.558 110.001 278.522 109.965C278.487 109.929 278.46 109.886 278.441 109.84C278.422 109.793 278.413 109.743 278.414 109.693V102.097C278.414 101.997 278.454 101.901 278.525 101.83C278.596 101.759 278.692 101.719 278.793 101.719C278.893 101.719 278.989 101.759 279.06 101.83C279.131 101.901 279.171 101.997 279.171 102.097V109.706C279.169 109.806 279.128 109.9 279.058 109.97C278.987 110.039 278.892 110.078 278.793 110.078Z" fill="#EBEBEB"/>
<path d="M274.911 102.071C274.843 102.073 274.775 102.053 274.719 102.016L268.141 98.1903C268.055 98.14 267.992 98.0575 267.966 97.9608C267.94 97.864 267.954 97.7611 268.004 97.6743C268.028 97.6299 268.061 97.5908 268.101 97.5596C268.141 97.5283 268.186 97.5056 268.235 97.4927C268.284 97.4798 268.335 97.4771 268.386 97.4846C268.436 97.4922 268.484 97.5099 268.527 97.5367L275.104 101.362C275.19 101.412 275.253 101.495 275.279 101.592C275.305 101.688 275.291 101.791 275.241 101.878C275.208 101.936 275.16 101.984 275.102 102.018C275.044 102.052 274.978 102.07 274.911 102.071Z" fill="#EBEBEB"/>
<path d="M292.064 102.071C291.996 102.073 291.928 102.054 291.872 102.016L285.294 98.1911C285.251 98.1668 285.213 98.1341 285.182 98.0948C285.151 98.0555 285.129 98.0104 285.116 97.9623C285.103 97.9141 285.1 97.8639 285.107 97.8145C285.114 97.7652 285.131 97.7178 285.157 97.6751C285.181 97.6316 285.214 97.5934 285.253 97.5628C285.292 97.5321 285.337 97.5098 285.385 97.4969C285.434 97.4841 285.484 97.4811 285.533 97.488C285.583 97.495 285.63 97.5118 285.673 97.5375L292.25 101.363C292.314 101.407 292.363 101.471 292.39 101.544C292.416 101.617 292.42 101.697 292.399 101.772C292.379 101.848 292.336 101.915 292.276 101.965C292.216 102.014 292.142 102.045 292.064 102.051V102.071Z" fill="#EBEBEB"/>
<path d="M241.124 94.3304C241.057 94.3309 240.991 94.3143 240.931 94.2823L232.304 89.3011C232.246 89.2671 232.198 89.2189 232.165 89.1611C232.131 89.1033 232.113 89.0378 232.111 88.9709V79.0018C232.112 78.9347 232.13 78.869 232.164 78.8111C232.198 78.7532 232.246 78.7051 232.304 78.6715L240.931 73.6835C240.991 73.6528 241.057 73.6367 241.124 73.6367C241.191 73.6367 241.257 73.6528 241.317 73.6835L249.951 78.6715C250.008 78.7054 250.056 78.7538 250.088 78.8117C250.121 78.8697 250.138 78.9353 250.137 79.0018V88.9709C250.137 89.0373 250.12 89.1026 250.087 89.1604C250.055 89.2183 250.008 89.2668 249.951 89.3011L241.317 94.2547C241.261 94.2974 241.194 94.3236 241.124 94.3304ZM232.868 88.7507L241.124 93.5117L249.38 88.7507V79.2219L241.124 74.4541L232.868 79.2219V88.7507Z" fill="#EBEBEB"/>
<path d="M241.124 74.3972C241.023 74.3954 240.927 74.354 240.856 74.2819C240.786 74.2099 240.746 74.1129 240.746 74.0119V68.1089C240.746 68.0085 240.786 67.9123 240.857 67.8413C240.928 67.7703 241.024 67.7305 241.124 67.7305C241.222 67.734 241.315 67.7755 241.383 67.8461C241.451 67.9166 241.489 68.0109 241.489 68.1089V74.0257C241.487 74.1225 241.449 74.215 241.381 74.2841C241.313 74.3532 241.221 74.3937 241.124 74.3972Z" fill="#EBEBEB"/>
<path d="M257.525 73.0643C257.425 73.0643 257.328 73.0244 257.257 72.9535C257.186 72.8825 257.147 72.7862 257.147 72.6859V66.7691C257.146 66.7191 257.155 66.6695 257.173 66.6232C257.192 66.5769 257.22 66.5348 257.255 66.4994C257.291 66.4641 257.333 66.4363 257.379 66.4176C257.425 66.3989 257.475 66.3898 257.525 66.3907C257.625 66.3907 257.722 66.4306 257.793 66.5015C257.863 66.5725 257.903 66.6687 257.903 66.7691V72.6859C257.903 72.7862 257.863 72.8825 257.793 72.9535C257.722 73.0244 257.625 73.0643 257.525 73.0643Z" fill="#EBEBEB"/>
<path d="M249.745 79.378C249.676 79.3795 249.607 79.3616 249.548 79.3263C249.488 79.2911 249.44 79.2399 249.408 79.1785C249.363 79.0894 249.353 78.9864 249.381 78.8905C249.409 78.7946 249.473 78.713 249.559 78.6625L254.582 75.9105C254.625 75.8863 254.673 75.871 254.723 75.8656C254.773 75.8601 254.823 75.8645 254.871 75.8786C254.919 75.8927 254.964 75.9161 255.003 75.9476C255.042 75.979 255.074 76.0179 255.098 76.0619C255.122 76.1056 255.137 76.1537 255.142 76.2035C255.148 76.2532 255.144 76.3035 255.129 76.3514C255.115 76.3994 255.092 76.4441 255.06 76.483C255.029 76.5219 254.99 76.5541 254.946 76.5779L249.924 79.3299C249.87 79.3627 249.808 79.3794 249.745 79.378Z" fill="#EBEBEB"/>
<path d="M265.183 79.378C265.12 79.3794 265.058 79.3627 265.004 79.3299L259.982 76.5779C259.938 76.5541 259.899 76.5219 259.867 76.483C259.836 76.4441 259.813 76.3994 259.799 76.3514C259.784 76.3035 259.78 76.2532 259.785 76.2035C259.791 76.1537 259.806 76.1056 259.83 76.0619C259.854 76.0179 259.886 75.979 259.925 75.9476C259.964 75.9161 260.009 75.8927 260.057 75.8786C260.105 75.8645 260.155 75.8601 260.205 75.8656C260.255 75.871 260.303 75.8863 260.346 75.9105L265.369 78.6625C265.456 78.7118 265.521 78.7933 265.549 78.8897C265.578 78.9861 265.567 79.0897 265.52 79.1785C265.488 79.2399 265.44 79.2911 265.38 79.3263C265.32 79.3616 265.252 79.3795 265.183 79.378Z" fill="#EBEBEB"/>
<path d="M248.107 88.2362C248.006 88.2344 247.91 88.1931 247.839 88.121C247.768 88.0489 247.728 87.952 247.729 87.851V80.2417C247.729 80.1413 247.768 80.0451 247.839 79.9741C247.91 79.9031 248.007 79.8633 248.107 79.8633C248.207 79.8633 248.304 79.9031 248.374 79.9741C248.445 80.0451 248.485 80.1413 248.485 80.2417V87.851C248.486 87.9012 248.477 87.9512 248.459 87.9979C248.44 88.0446 248.412 88.0871 248.377 88.123C248.342 88.1589 248.3 88.1873 248.253 88.2068C248.207 88.2262 248.157 88.2362 248.107 88.2362Z" fill="#EBEBEB"/>
<path d="M234.415 80.2114C234.349 80.2115 234.283 80.1945 234.226 80.1619C234.168 80.1294 234.119 80.0825 234.085 80.0257C234.059 79.9824 234.042 79.9345 234.035 79.8846C234.028 79.8348 234.031 79.784 234.044 79.7353C234.057 79.6866 234.079 79.641 234.11 79.601C234.14 79.5611 234.179 79.5277 234.222 79.5028L240.8 75.6775C240.891 75.6273 240.998 75.6154 241.098 75.6445C241.198 75.6735 241.283 75.7411 241.333 75.8323C241.383 75.9235 241.395 76.031 241.366 76.131C241.337 76.231 241.269 76.3153 241.178 76.3655L234.608 80.1633C234.549 80.1953 234.482 80.2119 234.415 80.2114Z" fill="#EBEBEB"/>
<path d="M191.884 57.3627C191.819 57.3605 191.756 57.3441 191.698 57.3146L183.064 52.3266C183.006 52.293 182.957 52.2449 182.924 52.187C182.89 52.1291 182.872 52.0634 182.871 51.9963V42.0272C182.872 41.9603 182.891 41.8948 182.924 41.837C182.958 41.7792 183.006 41.731 183.064 41.697L191.698 36.7158C191.755 36.6819 191.821 36.6641 191.887 36.6641C191.954 36.6641 192.019 36.6819 192.077 36.7158L200.711 41.697C200.768 41.7313 200.815 41.7798 200.847 41.8377C200.88 41.8955 200.897 41.9608 200.897 42.0272V51.9963C200.897 52.0628 200.881 52.1284 200.848 52.1864C200.816 52.2444 200.768 52.2927 200.711 52.3266L192.077 57.3146C192.017 57.3442 191.951 57.3606 191.884 57.3627ZM183.628 51.7762L191.884 56.544L200.14 51.7762V42.2474L191.884 37.4864L183.628 42.2474V51.7762Z" fill="#EBEBEB"/>
<path d="M200.518 42.4136C200.45 42.4122 200.383 42.393 200.324 42.3581C200.265 42.3231 200.216 42.2735 200.181 42.2141C200.136 42.125 200.126 42.022 200.155 41.9261C200.183 41.8302 200.246 41.7486 200.333 41.6981L205.355 38.9461C205.444 38.8969 205.55 38.8853 205.648 38.9136C205.746 38.942 205.829 39.0081 205.878 39.0975C205.923 39.1866 205.933 39.2896 205.905 39.3855C205.876 39.4814 205.813 39.5629 205.726 39.6135L200.704 42.3655C200.646 42.3942 200.583 42.4106 200.518 42.4136Z" fill="#EBEBEB"/>
<path d="M185.175 51.2607C185.125 51.2616 185.076 51.2525 185.029 51.2338C184.983 51.2151 184.941 51.1873 184.906 51.1519C184.87 51.1166 184.843 51.0745 184.824 51.0282C184.805 50.9819 184.796 50.9322 184.797 50.8823V43.273C184.796 43.223 184.805 43.1734 184.824 43.1271C184.843 43.0808 184.87 43.0387 184.906 43.0033C184.941 42.968 184.983 42.9402 185.029 42.9215C185.076 42.9028 185.125 42.8937 185.175 42.8946C185.276 42.8946 185.372 42.9345 185.443 43.0054C185.514 43.0764 185.554 43.1726 185.554 43.273V50.9098C185.547 51.0053 185.504 51.0946 185.434 51.1597C185.363 51.2249 185.271 51.2609 185.175 51.2607Z" fill="#EBEBEB"/>
<path d="M198.832 43.2476C198.766 43.2463 198.702 43.2273 198.646 43.1925L192.069 39.3673C192.024 39.3431 191.985 39.31 191.954 39.2702C191.923 39.2303 191.9 39.1845 191.887 39.1355C191.874 39.0865 191.872 39.0355 191.879 38.9854C191.887 38.9353 191.904 38.8873 191.931 38.8444C191.982 38.7579 192.064 38.6948 192.161 38.669C192.258 38.6432 192.361 38.6568 192.447 38.7068L199.025 42.5321C199.112 42.5837 199.175 42.6675 199.2 42.7653C199.226 42.8631 199.212 42.9672 199.162 43.0549C199.129 43.1135 199.081 43.1622 199.023 43.196C198.965 43.2299 198.899 43.2477 198.832 43.2476Z" fill="#EBEBEB"/>
<path d="M192.255 55.4805C192.177 55.4743 192.103 55.4442 192.043 55.3943C191.983 55.3444 191.94 55.2772 191.919 55.2019C191.899 55.1266 191.902 55.0468 191.929 54.9735C191.956 54.9002 192.005 54.837 192.069 54.7925L198.646 50.9672C198.689 50.9415 198.736 50.9247 198.786 50.9177C198.835 50.9107 198.885 50.9138 198.933 50.9266C198.981 50.9394 199.026 50.9618 199.066 50.9924C199.105 51.0231 199.138 51.0613 199.162 51.1048C199.212 51.1926 199.226 51.2966 199.2 51.3944C199.175 51.4922 199.111 51.576 199.024 51.6277L192.447 55.4529C192.386 55.4788 192.32 55.4882 192.255 55.4805Z" fill="#EBEBEB"/>
<path d="M286.718 65.9369C286.65 65.9356 286.584 65.9166 286.525 65.8819L277.891 60.9008C277.834 60.8669 277.786 60.8186 277.754 60.7606C277.721 60.7026 277.704 60.6371 277.705 60.5705V50.6014C277.704 50.5349 277.721 50.4694 277.754 50.4114C277.786 50.3534 277.834 50.305 277.891 50.2712L286.525 45.2901C286.583 45.2562 286.648 45.2383 286.714 45.2383C286.781 45.2383 286.846 45.2562 286.904 45.2901L295.538 50.2712C295.596 50.3047 295.644 50.3528 295.678 50.4107C295.712 50.4686 295.73 50.5344 295.731 50.6014V60.543C295.73 60.6101 295.712 60.6758 295.678 60.7337C295.644 60.7916 295.596 60.8397 295.538 60.8733L286.897 65.8819C286.843 65.9155 286.781 65.9345 286.718 65.9369ZM278.462 60.3504L286.718 65.1182L294.974 60.3504V50.8216L286.718 46.0606L278.462 50.8216V60.3504Z" fill="#EBEBEB"/>
<path d="M295.346 50.9775C295.269 50.9701 295.196 50.9391 295.137 50.8888C295.078 50.8384 295.036 50.7712 295.016 50.6961C294.997 50.621 295.001 50.5417 295.028 50.469C295.055 50.3963 295.103 50.3336 295.167 50.2895L300.19 47.5375C300.281 47.4892 300.388 47.479 300.486 47.5094C300.585 47.5397 300.668 47.608 300.716 47.6992C300.764 47.7904 300.774 47.8971 300.744 47.9958C300.714 48.0945 300.646 48.1772 300.554 48.2255L295.532 50.9775C295.471 50.9909 295.407 50.9909 295.346 50.9775Z" fill="#EBEBEB"/>
<path d="M280.017 59.8539C279.917 59.8539 279.82 59.8141 279.749 59.7431C279.679 59.6722 279.639 59.5759 279.639 59.4755V51.8456C279.651 51.7532 279.697 51.6684 279.767 51.607C279.837 51.5456 279.927 51.5117 280.021 51.5117C280.114 51.5117 280.204 51.5456 280.274 51.607C280.344 51.6684 280.39 51.7532 280.402 51.8456V59.4549C280.404 59.5066 280.396 59.5582 280.377 59.6066C280.359 59.6549 280.33 59.699 280.294 59.7363C280.259 59.7735 280.215 59.8031 280.168 59.8234C280.12 59.8436 280.069 59.854 280.017 59.8539Z" fill="#EBEBEB"/>
<path d="M293.667 51.8109C293.6 51.8123 293.533 51.7957 293.474 51.7628L286.897 47.9375C286.852 47.9122 286.812 47.8782 286.78 47.8376C286.748 47.7969 286.724 47.7503 286.71 47.7005C286.696 47.6507 286.692 47.5986 286.698 47.5472C286.704 47.4957 286.72 47.446 286.746 47.4008C286.771 47.3557 286.805 47.3159 286.845 47.2839C286.886 47.2518 286.933 47.2281 286.983 47.214C287.032 47.2 287.085 47.1959 287.136 47.202C287.187 47.208 287.237 47.2242 287.282 47.2495L293.859 51.0748C293.945 51.1276 294.007 51.2114 294.033 51.3087C294.058 51.406 294.046 51.5095 293.997 51.5976C293.967 51.66 293.92 51.7129 293.862 51.7505C293.804 51.7882 293.736 51.809 293.667 51.8109Z" fill="#EBEBEB"/>
<path d="M287.089 64.0502C287.011 64.0453 286.936 64.0161 286.875 63.9667C286.814 63.9173 286.77 63.8502 286.748 63.7746C286.727 63.699 286.73 63.6187 286.757 63.5448C286.783 63.4709 286.832 63.4071 286.896 63.3622L293.474 59.5369C293.516 59.5116 293.564 59.495 293.613 59.4881C293.663 59.4811 293.713 59.484 293.761 59.4964C293.809 59.5089 293.855 59.5307 293.894 59.5607C293.934 59.5907 293.968 59.6282 293.993 59.6711C294.018 59.714 294.035 59.7615 294.042 59.8108C294.049 59.8601 294.046 59.9104 294.034 59.9586C294.021 60.0068 293.999 60.0521 293.969 60.0919C293.939 60.1317 293.902 60.1652 293.859 60.1905L287.282 63.9814C287.224 64.0207 287.158 64.0444 287.089 64.0502Z" fill="#EBEBEB"/>
<path d="M190.209 74.0599L43.6895 92.8555L69.3254 292.699L215.845 273.903L190.209 74.0599Z" fill="#EBEBEB"/>
<path d="M62.8501 293.526L69.3262 292.695L43.6902 92.8521L37.2142 93.6828L62.8501 293.526Z" fill="#DBDBDB"/>
<path d="M190.211 74.0559L43.6914 92.8516L46.2502 112.798L192.77 94.0027L190.211 74.0559Z" fill="#DBDBDB"/>
<path d="M43.6831 92.8489L37.207 93.6797L39.7658 113.626L46.2419 112.796L43.6831 92.8489Z" fill="#A6A6A6"/>
<path d="M40.4291 113.542L40.0879 113.586L63.1651 293.482L63.5063 293.439L40.4291 113.542Z" fill="#C7C7C7"/>
<path d="M41.2143 113.445L40.873 113.488L63.9511 293.392L64.2923 293.348L41.2143 113.445Z" fill="#C7C7C7"/>
<path d="M42.0014 113.339L41.6602 113.383L64.7373 293.279L65.0785 293.235L42.0014 113.339Z" fill="#C7C7C7"/>
<path d="M42.9949 112.877L42.6543 112.922L66.2325 292.479L66.573 292.434L42.9949 112.877Z" fill="#C7C7C7"/>
<path d="M43.7722 112.776L43.4316 112.82L67.0107 292.384L67.3513 292.339L43.7722 112.776Z" fill="#C7C7C7"/>
<path d="M44.351 113.034L44.0098 113.078L67.0878 292.981L67.429 292.938L44.351 113.034Z" fill="#C7C7C7"/>
<path d="M45.1361 112.937L44.7949 112.98L67.8721 292.877L68.2133 292.833L45.1361 112.937Z" fill="#C7C7C7"/>
<path d="M45.9232 112.835L45.582 112.879L68.6601 292.782L69.0013 292.738L45.9232 112.835Z" fill="#C7C7C7"/>
<path d="M72.1601 173.905L125.104 166.953L124.959 165.85L72.0152 172.802L72.1601 173.905Z" fill="#C7C7C7"/>
<path d="M73.1459 179.094L126.189 172.289L126.048 171.184L73.0041 177.988L73.1459 179.094Z" fill="#C7C7C7"/>
<path d="M71.6357 167.389L186.273 152.684L186.132 151.578L71.4939 166.284L71.6357 167.389Z" fill="#C7C7C7"/>
<path d="M70.1416 155.694L184.779 140.988L184.637 139.883L69.9997 154.589L70.1416 155.694Z" fill="#C7C7C7"/>
<path d="M69.3935 149.842L184.031 135.137L183.889 134.031L69.2517 148.737L69.3935 149.842Z" fill="#C7C7C7"/>
<path d="M67.8916 138.151L182.529 123.445L182.387 122.34L67.7498 137.046L67.8916 138.151Z" fill="#C7C7C7"/>
<path d="M67.1357 132.296L181.773 117.59L181.632 116.484L66.9939 131.19L67.1357 132.296Z" fill="#C7C7C7"/>
<path d="M73.8861 184.941L126.93 178.137L126.788 177.031L73.7443 183.836L73.8861 184.941Z" fill="#C7C7C7"/>
<path d="M74.6342 190.789L127.678 183.984L127.536 182.879L74.4923 189.683L74.6342 190.789Z" fill="#C7C7C7"/>
<path d="M75.39 196.64L128.434 189.836L128.292 188.73L75.2482 195.535L75.39 196.64Z" fill="#C7C7C7"/>
<path d="M76.1381 202.496L129.182 195.691L129.04 194.586L75.9962 201.39L76.1381 202.496Z" fill="#C7C7C7"/>
<path d="M76.892 208.347L129.936 201.543L129.794 200.437L76.7501 207.242L76.892 208.347Z" fill="#C7C7C7"/>
<path d="M77.64 214.187L130.684 207.383L130.542 206.277L77.4982 213.082L77.64 214.187Z" fill="#C7C7C7"/>
<path d="M78.3939 220.043L131.438 213.238L131.296 212.133L78.2521 218.937L78.3939 220.043Z" fill="#C7C7C7"/>
<path d="M79.142 225.894L132.186 219.09L132.044 217.984L79.0002 224.789L79.142 225.894Z" fill="#C7C7C7"/>
<path d="M80.6439 237.59L133.688 230.785L133.546 229.68L80.5021 236.484L80.6439 237.59Z" fill="#C7C7C7"/>
<path d="M81.392 243.441L134.436 236.637L134.294 235.531L81.2501 242.336L81.392 243.441Z" fill="#C7C7C7"/>
<path d="M133.986 165.336L187.029 158.531L186.887 157.426L133.844 164.23L133.986 165.336Z" fill="#C7C7C7"/>
<path d="M134.734 171.187L187.777 164.383L187.636 163.277L134.592 170.082L134.734 171.187Z" fill="#C7C7C7"/>
<path d="M135.49 177.043L188.533 170.238L188.391 169.133L135.348 175.937L135.49 177.043Z" fill="#C7C7C7"/>
<path d="M136.238 182.894L189.281 176.09L189.139 174.984L136.096 181.789L136.238 182.894Z" fill="#C7C7C7"/>
<path d="M136.992 188.742L190.035 181.938L189.893 180.832L136.85 187.636L136.992 188.742Z" fill="#C7C7C7"/>
<path d="M138.482 200.441L191.525 193.637L191.384 192.531L138.34 199.336L138.482 200.441Z" fill="#C7C7C7"/>
<path d="M139.236 206.289L192.279 199.484L192.137 198.379L139.094 205.183L139.236 206.289Z" fill="#C7C7C7"/>
<path d="M139.984 212.14L193.027 205.336L192.886 204.23L139.842 211.035L139.984 212.14Z" fill="#C7C7C7"/>
<path d="M140.738 217.988L193.781 211.184L193.639 210.078L140.596 216.883L140.738 217.988Z" fill="#C7C7C7"/>
<path d="M141.486 223.836L194.529 217.031L194.387 215.926L141.344 222.73L141.486 223.836Z" fill="#C7C7C7"/>
<path d="M142.242 229.687L195.285 222.883L195.143 221.777L142.1 228.582L142.242 229.687Z" fill="#C7C7C7"/>
<path d="M142.99 235.543L196.033 228.738L195.891 227.633L142.848 234.437L142.99 235.543Z" fill="#C7C7C7"/>
<path opacity="0.1" d="M62.8693 99.07C62.9564 99.745 62.8413 100.431 62.5386 101.04C62.2359 101.65 61.7591 102.156 61.1687 102.495C60.5782 102.833 59.9006 102.989 59.2215 102.942C58.5425 102.896 57.8926 102.648 57.3541 102.232C56.8155 101.816 56.4125 101.249 56.1961 100.604C55.9797 99.9588 55.9596 99.2638 56.1383 98.6071C56.317 97.9503 56.6865 97.3614 57.2001 96.9147C57.7136 96.468 58.3482 96.1838 59.0234 96.0978C59.9273 95.9828 60.84 96.2312 61.5611 96.7884C62.2821 97.3456 62.7526 98.1662 62.8693 99.07Z" fill="black"/>
<path d="M61.5215 99.2166C61.5698 99.6194 61.4984 100.028 61.316 100.39C61.1337 100.752 60.8485 101.053 60.4963 101.254C60.144 101.456 59.7402 101.549 59.3354 101.522C58.9305 101.495 58.5426 101.349 58.22 101.103C57.8975 100.857 57.6546 100.521 57.5219 100.138C57.3891 99.7545 57.3722 99.3405 57.4734 98.9476C57.5747 98.5547 57.7894 98.2003 58.0909 97.9288C58.3924 97.6572 58.7672 97.4806 59.1685 97.4209C59.4415 97.3803 59.7198 97.3948 59.9871 97.4637C60.2543 97.5325 60.505 97.6542 60.7244 97.8217C60.9437 97.9891 61.1273 98.1988 61.2642 98.4384C61.4012 98.678 61.4886 98.9426 61.5215 99.2166Z" fill="#263238"/>
<path opacity="0.1" d="M80.6623 96.7575C80.7494 97.4325 80.6343 98.1182 80.3316 98.7278C80.0288 99.3374 79.5521 99.8435 78.9616 100.182C78.3712 100.521 77.6935 100.676 77.0145 100.63C76.3355 100.583 75.6856 100.336 75.147 99.9197C74.6085 99.5035 74.2055 98.9369 73.9891 98.2916C73.7727 97.6463 73.7525 96.9513 73.9312 96.2946C74.11 95.6378 74.4795 95.0488 74.9931 94.6022C75.5066 94.1555 76.1411 93.8713 76.8163 93.7853C77.7203 93.6703 78.633 93.9187 79.3541 94.4759C80.0751 95.0331 80.5456 95.8537 80.6623 96.7575Z" fill="black"/>
<path d="M79.314 96.9315C79.3633 97.3356 79.2919 97.7452 79.109 98.1088C78.926 98.4725 78.6396 98.7739 78.2858 98.9752C77.932 99.1765 77.5266 99.2686 77.1205 99.2401C76.7144 99.2116 76.3259 99.0636 76.0037 98.8148C75.6815 98.566 75.4401 98.2275 75.3098 97.8419C75.1795 97.4562 75.1661 97.0407 75.2714 96.6475C75.3766 96.2542 75.5958 95.9009 75.9014 95.6319C76.2069 95.363 76.5852 95.1904 76.9886 95.1358C77.2594 95.0992 77.5349 95.1167 77.7989 95.1874C78.0629 95.2581 78.3103 95.3805 78.5266 95.5475C78.743 95.7146 78.924 95.923 79.0592 96.1605C79.1943 96.3981 79.2809 96.6602 79.314 96.9315Z" fill="#263238"/>
<path opacity="0.1" d="M98.4533 94.4802C98.5404 95.1552 98.4253 95.8409 98.1226 96.4505C97.8199 97.0601 97.3431 97.5662 96.7526 97.9048C96.1622 98.2433 95.4846 98.3991 94.8055 98.3524C94.1265 98.3057 93.4766 98.0586 92.938 97.6424C92.3995 97.2262 91.9965 96.6596 91.7801 96.0143C91.5637 95.369 91.5436 94.674 91.7223 94.0172C91.901 93.3605 92.2705 92.7715 92.7841 92.3248C93.2976 91.8782 93.9322 91.5939 94.6073 91.508C95.5113 91.393 96.424 91.6413 97.1451 92.1986C97.8661 92.7558 98.3366 93.5764 98.4533 94.4802Z" fill="black"/>
<path d="M97.1118 94.654C97.1595 95.0577 97.0869 95.4665 96.9031 95.829C96.7194 96.1916 96.4327 96.4919 96.0789 96.6921C95.7252 96.8924 95.3202 96.9838 94.9148 96.9548C94.5094 96.9258 94.1215 96.7777 93.7999 96.5291C93.4783 96.2806 93.2372 95.9426 93.1069 95.5575C92.9766 95.1725 92.963 94.7576 93.0676 94.3648C93.1722 93.972 93.3905 93.6188 93.695 93.3496C93.9996 93.0804 94.3768 92.9071 94.7795 92.8515C95.0514 92.8139 95.3281 92.8309 95.5933 92.9016C95.8585 92.9722 96.107 93.0951 96.3242 93.2629C96.5414 93.4308 96.7229 93.6403 96.8581 93.8791C96.9934 94.118 97.0796 94.3814 97.1118 94.654Z" fill="#263238"/>
<path opacity="0.1" d="M116.272 92.1911C116.359 92.8661 116.244 93.5518 115.941 94.1614C115.638 94.771 115.161 95.2771 114.571 95.6157C113.981 95.9542 113.303 96.11 112.624 96.0633C111.945 96.0166 111.295 95.7695 110.756 95.3533C110.218 94.9371 109.815 94.3705 109.598 93.7252C109.382 93.0799 109.362 92.3849 109.541 91.7282C109.719 91.0714 110.089 90.4824 110.602 90.0358C111.116 89.5891 111.751 89.3048 112.426 89.2189C113.33 89.1039 114.242 89.3523 114.963 89.9095C115.684 90.4667 116.155 91.2873 116.272 92.1911Z" fill="black"/>
<path d="M114.958 92.3611C115.005 92.7647 114.933 93.1735 114.749 93.5361C114.565 93.8986 114.278 94.1989 113.925 94.3992C113.571 94.5994 113.166 94.6908 112.761 94.6618C112.355 94.6328 111.967 94.4847 111.646 94.2362C111.324 93.9876 111.083 93.6496 110.953 93.2646C110.822 92.8795 110.809 92.4646 110.913 92.0718C111.018 91.679 111.236 91.3259 111.541 91.0567C111.845 90.7874 112.223 90.6141 112.625 90.5585C112.897 90.5209 113.174 90.538 113.439 90.6086C113.704 90.6793 113.953 90.8021 114.17 90.97C114.387 91.1378 114.569 91.3473 114.704 91.5862C114.839 91.825 114.925 92.0885 114.958 92.3611Z" fill="#263238"/>
<path opacity="0.1" d="M134.16 89.8981C134.247 90.5732 134.132 91.2589 133.83 91.8685C133.527 92.4781 133.05 92.9842 132.46 93.3227C131.869 93.6613 131.192 93.817 130.513 93.7703C129.834 93.7236 129.184 93.4766 128.645 93.0604C128.107 92.6442 127.704 92.0776 127.487 91.4323C127.271 90.787 127.251 90.092 127.429 89.4352C127.608 88.7785 127.978 88.1895 128.491 87.7428C129.005 87.2962 129.639 87.0119 130.314 86.926C131.218 86.8109 132.131 87.0593 132.852 87.6165C133.573 88.1738 134.044 88.9943 134.16 89.8981Z" fill="black"/>
<path d="M132.785 90.073C132.834 90.4768 132.762 90.8861 132.58 91.2494C132.397 91.6128 132.111 91.914 131.757 92.1153C131.404 92.3166 130.999 92.409 130.593 92.3809C130.187 92.3528 129.799 92.2054 129.477 91.9572C129.154 91.7091 128.913 91.3713 128.782 90.9862C128.651 90.6011 128.637 90.186 128.741 89.7928C128.845 89.3997 129.063 89.0461 129.368 88.7764C129.672 88.5068 130.05 88.3332 130.453 88.2774C130.724 88.2397 131 88.2565 131.265 88.3268C131.53 88.397 131.778 88.5192 131.995 88.6864C132.212 88.8535 132.394 89.0622 132.529 89.3003C132.665 89.5384 132.752 89.8011 132.785 90.073Z" fill="#263238"/>
<path opacity="0.1" d="M151.91 87.6208C151.997 88.2958 151.882 88.9815 151.58 89.5911C151.277 90.2007 150.8 90.7068 150.21 91.0454C149.619 91.3839 148.942 91.5397 148.263 91.493C147.584 91.4463 146.934 91.1992 146.395 90.783C145.857 90.3668 145.454 89.8002 145.237 89.1549C145.021 88.5096 145.001 87.8146 145.179 87.1579C145.358 86.5011 145.728 85.9121 146.241 85.4655C146.755 85.0188 147.389 84.7345 148.064 84.6486C148.968 84.5336 149.881 84.782 150.602 85.3392C151.323 85.8964 151.794 86.717 151.91 87.6208Z" fill="black"/>
<path d="M150.569 87.7946C150.617 88.1983 150.544 88.6071 150.36 88.9697C150.176 89.3322 149.89 89.6325 149.536 89.8328C149.182 90.033 148.777 90.1244 148.372 90.0954C147.966 90.0664 147.579 89.9183 147.257 89.6698C146.935 89.4212 146.694 89.0832 146.564 88.6982C146.434 88.3131 146.42 87.8982 146.525 87.5054C146.629 87.1126 146.848 86.7595 147.152 86.4903C147.457 86.221 147.834 86.0477 148.237 85.9921C148.508 85.9545 148.785 85.9715 149.05 86.0422C149.316 86.1129 149.564 86.2357 149.781 86.4035C149.998 86.5714 150.18 86.7809 150.315 87.0198C150.45 87.2586 150.537 87.5221 150.569 87.7946Z" fill="#263238"/>
<path opacity="0.1" d="M169.723 85.3122C169.81 85.9872 169.695 86.6729 169.392 87.2825C169.089 87.8921 168.613 88.3982 168.022 88.7368C167.432 89.0753 166.754 89.2311 166.075 89.1844C165.396 89.1377 164.746 88.8906 164.208 88.4744C163.669 88.0582 163.266 87.4916 163.05 86.8463C162.833 86.201 162.813 85.506 162.992 84.8493C163.171 84.1925 163.54 83.6035 164.054 83.1569C164.567 82.7102 165.202 82.4259 165.877 82.34C166.781 82.225 167.694 82.4734 168.415 83.0306C169.136 83.5878 169.606 84.4084 169.723 85.3122Z" fill="black"/>
<path d="M168.375 85.5086C168.423 85.9126 168.351 86.3217 168.167 86.6845C167.983 87.0474 167.696 87.3479 167.342 87.5481C166.988 87.7484 166.582 87.8395 166.177 87.8101C165.771 87.7807 165.383 87.632 165.061 87.3828C164.74 87.1336 164.499 86.7949 164.369 86.4093C164.24 86.0237 164.227 85.6084 164.333 85.2155C164.438 84.8227 164.658 84.4698 164.963 84.2012C165.269 83.9327 165.647 83.7604 166.05 83.706C166.321 83.6694 166.597 83.6872 166.862 83.7583C167.126 83.8294 167.374 83.9524 167.59 84.1202C167.807 84.288 167.988 84.4971 168.122 84.7355C168.257 84.9738 168.343 85.2366 168.375 85.5086Z" fill="#263238"/>
<path opacity="0.1" d="M187.59 83.0466C187.677 83.7216 187.562 84.4073 187.259 85.0169C186.957 85.6265 186.48 86.1326 185.889 86.4712C185.299 86.8097 184.621 86.9655 183.942 86.9188C183.263 86.8721 182.613 86.625 182.075 86.2088C181.536 85.7926 181.133 85.226 180.917 84.5807C180.7 83.9354 180.68 83.2404 180.859 82.5836C181.038 81.9269 181.407 81.3379 181.921 80.8913C182.434 80.4446 183.069 80.1603 183.744 80.0744C184.648 79.9594 185.561 80.2077 186.282 80.765C187.003 81.3222 187.473 82.1428 187.59 83.0466Z" fill="black"/>
<path d="M186.243 83.2469C186.29 83.6508 186.218 84.06 186.034 84.4228C185.85 84.7857 185.563 85.0861 185.209 85.2864C184.855 85.4866 184.449 85.5778 184.044 85.5484C183.638 85.519 183.25 85.3703 182.928 85.1211C182.607 84.8719 182.366 84.5332 182.237 84.1476C182.107 83.762 182.094 83.3467 182.2 82.9538C182.305 82.5609 182.525 82.2081 182.83 81.9395C183.136 81.6709 183.514 81.4986 183.917 81.4443C184.189 81.4077 184.464 81.4255 184.729 81.4966C184.993 81.5677 185.241 81.6907 185.457 81.8585C185.674 82.0262 185.855 82.2354 185.99 82.4738C186.124 82.7121 186.21 82.9749 186.243 83.2469Z" fill="#263238"/>
<path d="M60.2068 92.0596C60.427 93.7589 60.9499 99.3248 60.9499 99.3248C61.1976 101.251 58.1979 101.63 57.9708 99.7101C57.7438 97.7906 57.2828 94.3781 56.8838 91.2546C56.3334 86.989 54.2832 85.6887 52.4324 85.9295C50.1276 86.2253 49.1163 89.1768 49.4878 92.1215L46.495 92.5068C45.6419 85.8676 48.4833 82.8748 51.7513 82.4826C56.7187 81.8221 59.2849 84.8631 60.2068 92.0596Z" fill="#A6A6A6"/>
<path d="M78.0191 89.7762C78.2392 91.4755 78.7621 97.0414 78.7621 97.0414C79.0098 98.9678 76.0101 99.3462 75.7831 97.4267C75.556 95.5072 75.0951 92.0947 74.696 88.9643C74.1456 84.7056 72.0954 83.4053 70.2447 83.6461C67.9399 83.9419 66.9285 86.8934 67.3 89.8381L64.3072 90.2234C63.4541 83.5842 66.3024 80.5914 69.5636 80.1923C74.5309 79.5387 77.0972 82.559 78.0191 89.7762Z" fill="#A6A6A6"/>
<path d="M95.8316 87.4838C96.0517 89.1901 96.5746 94.756 96.5746 94.756C96.8223 96.6824 93.8226 97.0539 93.5956 95.1413C93.3685 93.2286 92.9076 89.8093 92.5085 86.6789C91.965 82.4201 89.9079 81.1198 88.0572 81.3606C85.7524 81.6565 84.741 84.608 85.1125 87.5526L82.1197 87.9379C81.2666 81.2987 84.1149 78.3059 87.3761 77.9069C92.3503 77.2533 94.944 80.2874 95.8316 87.4838Z" fill="#A6A6A6"/>
<path d="M113.644 85.1994C113.864 86.9057 114.387 92.4716 114.387 92.4716C114.635 94.398 111.635 94.7695 111.408 92.85C111.181 90.9305 110.72 87.5249 110.321 84.3945C109.778 80.1357 107.72 78.8354 105.87 79.0693C103.565 79.3652 102.554 82.3167 102.932 85.2613L99.9322 85.6466C99.0791 79.0005 101.927 76.0146 105.189 75.6156C110.163 74.9895 112.722 78.0029 113.644 85.1994Z" fill="#A6A6A6"/>
<path d="M131.463 82.9163C131.677 84.6226 132.2 90.1885 132.2 90.1885C132.447 92.1149 129.448 92.4864 129.221 90.5669C128.994 88.6474 128.533 85.2418 128.134 82.1114C127.59 77.8527 125.533 76.5523 123.682 76.7863C121.377 77.0821 120.366 80.0336 120.744 82.9783L117.745 83.3567C116.892 76.7175 119.74 73.7247 123.001 73.3325C127.968 72.6789 130.535 75.7199 131.463 82.9163Z" fill="#A6A6A6"/>
<path d="M149.297 80.6338C149.511 82.34 150.034 87.9059 150.034 87.9059C150.281 89.8255 147.282 90.2039 147.055 88.2843C146.828 86.3648 146.367 82.9523 145.968 79.8288C145.424 75.5701 143.367 74.2698 141.523 74.5037C139.211 74.7995 138.2 77.7511 138.578 80.6957L135.579 81.081C134.726 74.4418 137.574 71.449 140.835 71.0568C145.789 70.3963 148.348 73.4373 149.297 80.6338Z" fill="#A6A6A6"/>
<path d="M167.088 78.3486C167.302 80.048 167.825 85.6139 167.825 85.6139C168.072 87.5403 165.073 87.9187 164.846 85.9992C164.619 84.0797 164.158 80.6672 163.759 77.5437C163.215 73.2781 161.158 71.9846 159.314 72.2185C157.009 72.5144 155.991 75.4659 156.369 78.4105L153.37 78.7958C152.517 72.1566 155.365 69.1638 158.626 68.7717C163.6 68.1112 166.167 71.1521 167.088 78.3486Z" fill="#A6A6A6"/>
<path d="M184.901 76.0635C185.121 77.7628 185.637 83.3288 185.637 83.3288C185.885 85.2552 182.885 85.6335 182.658 83.714C182.431 81.7945 181.97 78.382 181.571 75.2585C181.028 70.9929 178.97 69.6926 177.127 69.9334C174.822 70.2292 173.804 73.1807 174.182 76.1254L171.182 76.5107C170.329 69.8715 173.177 66.8787 176.439 66.4865C181.413 65.826 183.979 68.867 184.901 76.0635Z" fill="#A6A6A6"/>
<path d="M173.204 283.891H50.8848V296.839H173.204V283.891Z" fill="#BA68C8"/>
<path opacity="0.6" d="M173.204 283.891H50.8848V296.839H173.204V283.891Z" fill="white"/>
<path d="M150.135 296.84H162.086V283.892H150.135V296.84Z" fill="#BA68C8"/>
<path d="M140.711 296.84H145.699V283.892H140.711V296.84Z" fill="#BA68C8"/>
<path d="M61.776 296.84H73.7266V283.892H61.776V296.84Z" fill="#BA68C8"/>
<path d="M178.833 315.684H53.0254V324.868H178.833V315.684Z" fill="#455A64"/>
<path d="M86.2067 315.684H81.0742V324.868H86.2067V315.684Z" fill="#BA68C8"/>
<path d="M77.6891 315.684H72.5566V324.868H77.6891V315.684Z" fill="#BA68C8"/>
<path d="M166.291 315.684H161.158V324.868H166.291V315.684Z" fill="#BA68C8"/>
<path d="M157.773 315.684H152.641V324.868H157.773V315.684Z" fill="#BA68C8"/>
<path d="M132.392 270.184H56.2441V283.895H132.392V270.184Z" fill="#455A64"/>
<path d="M177.621 270.184H132.303V283.895H177.621V270.184Z" fill="#37474F"/>
<path d="M130.706 271.609H56.2441V282.473H130.706V271.609Z" fill="white"/>
<path d="M61.0605 280.238C66.8673 280.316 72.6717 280.371 78.4738 280.403L95.8871 280.451L113.294 280.403C119.1 280.375 124.905 280.32 130.707 280.238C124.9 280.16 119.096 280.107 113.294 280.079L95.8871 280.031L78.4738 280.079C72.6671 280.107 66.8627 280.16 61.0605 280.238Z" fill="#DBDBDB"/>
<path d="M61.0605 278.112C66.8673 278.185 72.6717 278.238 78.4738 278.27L95.8871 278.318L113.294 278.27C119.1 278.242 124.905 278.19 130.707 278.112C124.9 278.029 119.096 277.974 113.294 277.947L95.8871 277.898L78.4738 277.947C72.6671 277.951 66.8627 278.006 61.0605 278.112Z" fill="#DBDBDB"/>
<path d="M61.0605 275.979C66.8673 276.057 72.6717 276.11 78.4738 276.137L95.8871 276.185L113.294 276.137C119.1 276.11 124.905 276.057 130.707 275.979C124.9 275.896 119.096 275.841 113.294 275.814L95.8871 275.766L78.4738 275.814C72.6671 275.864 66.8627 275.919 61.0605 275.979Z" fill="#DBDBDB"/>
<path d="M61.0605 273.823C66.8673 273.901 72.6717 273.953 78.4738 273.981L95.8871 274.029L113.294 273.981C119.1 273.953 124.905 273.901 130.707 273.823C124.9 273.749 119.096 273.694 113.294 273.658L95.8871 273.609L78.4738 273.664C72.6671 273.706 66.8627 273.758 61.0605 273.823Z" fill="#DBDBDB"/>
<path d="M124.693 294.477L119.506 289L114.318 294.477V280.283L115.426 278.109H125.801L124.693 280.283V294.477Z" fill="#BA68C8"/>
<path d="M122.72 315.684H196.033V296.839H122.72V315.684Z" fill="#37474F"/>
<path d="M41.5151 315.684H122.713V296.839H41.5151V315.684Z" fill="#263238"/>
<path d="M124.949 313.727H196.033V298.797H124.949V313.727Z" fill="white"/>
<path d="M191.431 301.867C185.89 301.789 180.349 301.736 174.809 301.708L158.193 301.66L141.571 301.708C136.031 301.736 130.49 301.789 124.949 301.867C130.485 301.945 136.026 301.997 141.571 302.025L158.193 302.073L174.809 302.025C180.354 301.997 185.895 301.945 191.431 301.867Z" fill="#DBDBDB"/>
<path d="M191.431 304.784C185.89 304.71 180.349 304.655 174.809 304.618L158.193 304.57L141.571 304.618C136.031 304.646 130.49 304.701 124.949 304.784C130.485 304.862 136.026 304.914 141.571 304.942L158.193 304.99L174.809 304.942C180.354 304.923 185.895 304.871 191.431 304.784Z" fill="#DBDBDB"/>
<path d="M191.431 307.728C185.89 307.645 180.349 307.59 174.809 307.563L158.193 307.535L141.571 307.583C136.031 307.611 130.49 307.666 124.949 307.748C130.485 307.826 136.026 307.879 141.571 307.907L158.193 307.955L174.809 307.907C180.354 307.865 185.895 307.806 191.431 307.728Z" fill="#DBDBDB"/>
<path d="M191.431 310.652C185.89 310.578 180.349 310.526 174.809 310.493L158.193 310.445L141.571 310.493C136.031 310.521 130.49 310.574 124.949 310.652C130.485 310.734 136.026 310.789 141.571 310.817L158.193 310.865L174.809 310.817C180.354 310.789 185.895 310.734 191.431 310.652Z" fill="#DBDBDB"/>
<path d="M85.3677 270.184H154.814V255.873H85.3677V270.184Z" fill="#BA68C8"/>
<path d="M45.7797 270.184H85.3672V255.873H45.7797V270.184Z" fill="#BA68C8"/>
<path opacity="0.2" d="M45.7802 270.184H83.5996V255.873H45.7802V270.184Z" fill="black"/>
<path d="M85.3677 268.699H154.814V257.354H85.3677V268.699Z" fill="white"/>
<path d="M150.314 259.693C144.907 259.61 139.494 259.555 134.078 259.528L117.841 259.473L101.604 259.528C96.1963 259.555 90.784 259.61 85.3672 259.693C90.7795 259.775 96.1917 259.83 101.604 259.858L117.841 259.913L134.078 259.858C139.494 259.83 144.907 259.775 150.314 259.693Z" fill="#DBDBDB"/>
<path d="M150.314 261.916C144.907 261.838 139.494 261.783 134.078 261.751L117.841 261.703L101.604 261.751C96.1963 261.779 90.784 261.834 85.3672 261.916C90.7795 261.999 96.1917 262.056 101.604 262.088L117.841 262.137L134.078 262.088C139.494 262.056 144.907 261.999 150.314 261.916Z" fill="#DBDBDB"/>
<path d="M150.314 264.146C144.907 264.063 139.494 264.006 134.078 263.974L117.841 263.926L101.604 263.974C96.1963 264.006 90.784 264.063 85.3672 264.146C90.7795 264.229 96.1917 264.284 101.604 264.311L117.841 264.366L134.078 264.311C139.494 264.284 144.907 264.229 150.314 264.146Z" fill="#DBDBDB"/>
<path d="M150.314 266.366C144.907 266.288 139.494 266.233 134.078 266.201L117.841 266.152L101.604 266.201C96.1963 266.228 90.784 266.283 85.3672 266.366C90.7795 266.448 96.1917 266.506 101.604 266.538L117.841 266.586L134.078 266.538C139.494 266.506 144.907 266.448 150.314 266.366Z" fill="#DBDBDB"/>
<path d="M97.6765 274.913L101.034 271.369L104.391 274.913V265.735L103.676 264.324H96.9609L97.6765 265.735V274.913Z" fill="#455A64"/>
<path d="M249.056 67.1774V237.801H155.984V238.118C155.985 244.408 153.526 250.449 149.131 254.949C144.737 259.449 138.756 262.05 132.468 262.198H131.635C130.817 262.203 129.999 262.159 129.186 262.067L124.7 261.145C123.587 260.789 122.502 260.352 121.453 259.838C120.929 259.605 120.419 259.34 119.925 259.047C119.657 258.909 119.402 258.748 119.162 258.565C118.462 258.156 117.792 257.696 117.16 257.189C117.048 257.112 116.942 257.027 116.843 256.935C116.355 256.589 115.895 256.204 115.467 255.786C115.247 255.593 115.027 255.373 114.779 255.153C112.006 252.421 109.96 249.039 108.828 245.314C108.805 245.237 108.773 245.163 108.732 245.094C108.573 244.523 108.415 243.918 108.291 243.312C108.097 242.55 107.968 241.772 107.906 240.987C107.844 240.636 107.844 240.299 107.81 239.941C107.796 239.824 107.796 239.707 107.81 239.59C107.81 239.143 107.713 238.73 107.713 238.283V67.425C107.713 60.6758 103.001 43.2969 82.1543 43.2969H225.155C228.293 43.2942 231.4 43.9099 234.3 45.1087C237.2 46.3076 239.835 48.0662 242.054 50.284C244.274 52.5018 246.035 55.1353 247.236 58.0339C248.438 60.9326 249.056 64.0396 249.056 67.1774Z" fill="white"/>
<path d="M249.055 67.1769C249.103 67.2801 249.179 237.849 249.213 237.959C249.248 238.069 156.051 238 156.017 238.049L156.264 237.801C156.266 240.385 155.891 242.955 155.15 245.431C153.972 249.138 151.93 252.513 149.192 255.276C146.454 258.04 143.098 260.112 139.401 261.324C136.094 262.358 132.612 262.712 129.164 262.362L124.644 261.441C123.372 261.048 122.137 260.542 120.956 259.927C117.104 258.038 113.827 255.154 111.464 251.574C109.1 247.993 107.736 243.846 107.513 239.562C107.354 237.938 107.43 235.028 107.416 233.37C107.416 229.242 107.416 217.808 107.416 213.514C107.451 170.026 107.513 111.45 107.547 67.913C107.547 59.2098 102.786 50.3415 94.9223 46.3167C90.9632 44.3877 86.6045 43.4212 82.2012 43.4959V43.1381C116.897 43.2207 192.109 43.1381 225.993 43.3101C238.673 43.6197 249.117 54.4901 249.034 67.1769H249.055ZM249.055 67.1769C249.11 54.5383 238.694 43.6473 226.007 43.3789C192.46 43.2895 116.615 43.489 82.2149 43.4753V43.1381C86.6762 43.0515 91.0945 44.0228 95.1081 45.9727C103.103 50.0457 107.925 59.0447 107.981 67.8924C108.029 111.45 108.077 169.985 108.111 213.494C108.111 217.794 108.111 229.18 108.111 233.35C108.153 234.973 108.015 237.925 108.201 239.542C108.264 240.697 108.409 241.847 108.634 242.982C109.359 246.486 110.868 249.782 113.047 252.621C115.226 255.46 118.02 257.77 121.218 259.377C122.353 259.972 123.539 260.467 124.761 260.856L129.247 261.785C132.605 262.155 136.004 261.808 139.219 260.767C142.433 259.726 145.39 258.014 147.894 255.745C150.398 253.476 152.391 250.701 153.743 247.604C155.095 244.507 155.773 241.159 155.735 237.78V237.533H155.982L249.021 237.622C248.787 238.654 249.021 66.9154 249.021 67.1562L249.055 67.1769Z" fill="#263238"/>
<path d="M183.359 57.7227L233.301 57.7227V56.3535L183.359 56.3535V57.7227Z" fill="#DBDBDB"/>
<path d="M125.361 93.9141H175.303V92.5449H125.361V93.9141Z" fill="#DBDBDB"/>
<path d="M125.361 101.156H175.303V99.7871H125.361V101.156Z" fill="#DBDBDB"/>
<path d="M125.361 108.395H175.303V107.025H125.361V108.395Z" fill="#DBDBDB"/>
<path d="M125.361 115.633H175.303V114.264H125.361V115.633Z" fill="#DBDBDB"/>
<path d="M125.361 122.871H175.303V121.502H125.361V122.871Z" fill="#DBDBDB"/>
<path d="M125.361 130.109H175.303V128.74H125.361V130.109Z" fill="#DBDBDB"/>
<path d="M125.361 137.34H175.303V135.971H125.361V137.34Z" fill="#DBDBDB"/>
<path d="M125.361 144.578H175.303V143.209H125.361V144.578Z" fill="#DBDBDB"/>
<path d="M125.361 151.816H175.303V150.447H125.361V151.816Z" fill="#DBDBDB"/>
<path d="M125.361 159.059H175.303V157.689H125.361V159.059Z" fill="#DBDBDB"/>
<path d="M125.361 173.535H175.303V172.166H125.361V173.535Z" fill="#DBDBDB"/>
<path d="M125.361 180.773H175.303V179.404H125.361V180.773Z" fill="#DBDBDB"/>
<path d="M125.361 188.012H175.303V186.643H125.361V188.012Z" fill="#DBDBDB"/>
<path d="M125.361 195.25H175.303V193.881H125.361V195.25Z" fill="#DBDBDB"/>
<path d="M125.361 209.723H175.303V208.354H125.361V209.723Z" fill="#DBDBDB"/>
<path d="M125.361 216.961H175.303V215.592H125.361V216.961Z" fill="#DBDBDB"/>
<path d="M125.361 224.207H175.303V222.838H125.361V224.207Z" fill="#DBDBDB"/>
<path d="M183.359 64.9609H233.301V63.5918L183.359 63.5918V64.9609Z" fill="#DBDBDB"/>
<path d="M183.359 72.1992H233.301V70.8301H183.359V72.1992Z" fill="#DBDBDB"/>
<path d="M183.359 79.4375H233.301V78.0684H183.359V79.4375Z" fill="#DBDBDB"/>
<path d="M183.359 86.6758H233.301V85.3067H183.359V86.6758Z" fill="#DBDBDB"/>
<path d="M183.359 93.9141H233.301V92.5449H183.359V93.9141Z" fill="#DBDBDB"/>
<path d="M183.359 101.156H233.301V99.7871H183.359V101.156Z" fill="#DBDBDB"/>
<path d="M183.359 108.395H233.301V107.025H183.359V108.395Z" fill="#DBDBDB"/>
<path d="M183.359 115.633H233.301V114.264H183.359V115.633Z" fill="#DBDBDB"/>
<path d="M183.359 122.871H233.301V121.502H183.359V122.871Z" fill="#DBDBDB"/>
<path d="M183.359 137.34H233.301V135.971H183.359V137.34Z" fill="#DBDBDB"/>
<path d="M183.359 144.578H233.301V143.209H183.359V144.578Z" fill="#DBDBDB"/>
<path d="M183.359 151.816H233.301V150.447H183.359V151.816Z" fill="#DBDBDB"/>
<path d="M183.359 159.059H233.301V157.689H183.359V159.059Z" fill="#DBDBDB"/>
<path d="M183.359 166.297H233.301V164.928H183.359V166.297Z" fill="#DBDBDB"/>
<path d="M183.359 173.535H233.301V172.166H183.359V173.535Z" fill="#DBDBDB"/>
<path d="M183.359 180.773H233.301V179.404H183.359V180.773Z" fill="#DBDBDB"/>
<path d="M183.359 188.012H233.301V186.643H183.359V188.012Z" fill="#DBDBDB"/>
<path d="M125.359 57.6635L150.334 57.6016C158.659 57.6016 166.976 57.6016 175.301 57.6635C166.976 57.7185 158.659 57.7048 150.334 57.7254L125.359 57.6635Z" fill="#DBDBDB"/>
<path d="M125.359 59.5268L150.334 59.4648C158.659 59.4648 166.976 59.4648 175.301 59.5268C166.976 59.5818 158.659 59.568 150.334 59.5887L125.359 59.5268Z" fill="#DBDBDB"/>
<path d="M125.359 61.391L150.334 61.3359C158.659 61.3359 166.976 61.3359 175.301 61.391C166.976 61.446 158.659 61.4323 150.334 61.4529L125.359 61.391Z" fill="#DBDBDB"/>
<path d="M125.359 63.2543L150.334 63.1992C158.659 63.1992 166.976 63.1992 175.301 63.2543C166.976 63.3093 158.659 63.2955 150.334 63.3162L125.359 63.2543Z" fill="#DBDBDB"/>
<path d="M125.359 65.1283L150.334 65.0664C158.659 65.0664 166.976 65.0664 175.301 65.1283C166.976 65.1765 158.659 65.1283 150.334 65.1834L125.359 65.1283Z" fill="#DBDBDB"/>
<path d="M125.359 66.9916L150.334 66.9297C158.659 66.9297 166.976 66.9297 175.301 66.9916C166.976 67.0398 158.659 66.9916 150.334 67.0535L125.359 66.9916Z" fill="#DBDBDB"/>
<path d="M125.359 68.8549L150.334 68.793C158.659 68.793 166.976 68.793 175.301 68.8549C166.976 68.9031 158.659 68.8962 150.334 68.9168L125.359 68.8549Z" fill="#DBDBDB"/>
<path d="M125.359 70.7182L150.334 70.6562C158.659 70.6562 166.976 70.6563 175.301 70.7182C166.976 70.7732 158.659 70.7595 150.334 70.7801L125.359 70.7182Z" fill="#DBDBDB"/>
<path d="M125.359 72.5854L150.334 72.5234C158.659 72.5234 166.976 72.5234 175.301 72.5854C166.976 72.6404 158.659 72.6266 150.334 72.6473L125.359 72.5854Z" fill="#DBDBDB"/>
<path d="M125.359 74.4486L150.334 74.3867C158.659 74.3867 166.976 74.3867 175.301 74.4486C166.976 74.5037 158.659 74.4899 150.334 74.5106L125.359 74.4486Z" fill="#DBDBDB"/>
<path d="M125.359 76.3119L150.334 76.25C158.659 76.25 166.976 76.25 175.301 76.3119C166.976 76.367 158.659 76.3532 150.334 76.3738L125.359 76.3119Z" fill="#DBDBDB"/>
<path d="M125.359 78.1761L150.334 78.1211C158.659 78.1211 166.976 78.1211 175.301 78.1761C166.976 78.2312 158.659 78.2174 150.334 78.2381L125.359 78.1761Z" fill="#DBDBDB"/>
<path d="M125.359 80.0502L150.334 79.9883C158.659 79.9883 166.976 79.9883 175.301 80.0502C166.976 80.0984 158.659 80.0846 150.334 80.1052L125.359 80.0502Z" fill="#DBDBDB"/>
<path d="M125.359 81.9135L150.334 81.8516C158.659 81.8516 166.976 81.8516 175.301 81.9135C166.976 81.9616 158.659 81.9135 150.334 81.9685L125.359 81.9135Z" fill="#DBDBDB"/>
<path d="M125.359 83.7768L150.334 83.7148C158.659 83.7148 166.976 83.7148 175.301 83.7768C166.976 83.8249 158.659 83.7768 150.334 83.8387L125.359 83.7768Z" fill="#DBDBDB"/>
<path d="M134.429 70.7188H130.645V85.9511H134.429V70.7188Z" fill="#BA68C8"/>
<path d="M141.452 64.2734H137.668V85.9454H141.452V64.2734Z" fill="#263238"/>
<path d="M148.477 68.918H144.693V85.9529H148.477V68.918Z" fill="#DBDBDB"/>
<path d="M155.501 63.2539H151.717V85.9441H155.501V63.2539Z" fill="#BA68C8"/>
<path d="M162.532 66.3047H158.748V85.954H162.532V66.3047Z" fill="#263238"/>
<path d="M169.557 77.4336H165.773V85.951H169.557V77.4336Z" fill="#DBDBDB"/>
<path d="M126.716 56.3555L126.82 63.7515L126.895 71.1543C126.943 76.0873 126.957 81.0203 126.964 85.9532L126.716 85.7262H138.866H151.01L163.16 85.795L175.303 85.9326L163.16 86.0633L151.01 86.139H138.866H126.482V85.9119C126.482 80.979 126.482 76.046 126.558 71.1131L126.627 63.7102L126.716 56.3555Z" fill="#DBDBDB"/>
<path d="M134.429 87.5156H130.645V87.8321H134.429V87.5156Z" fill="#DBDBDB"/>
<path d="M141.452 87.5156H137.668V87.8321H141.452V87.5156Z" fill="#DBDBDB"/>
<path d="M148.477 87.5156H144.693V87.8321H148.477V87.5156Z" fill="#DBDBDB"/>
<path d="M155.501 87.5156H151.717V87.8321H155.501V87.5156Z" fill="#DBDBDB"/>
<path d="M162.532 87.5156H158.748V87.8321H162.532V87.5156Z" fill="#DBDBDB"/>
<path d="M169.557 87.5156H165.773V87.8321H169.557V87.5156Z" fill="#DBDBDB"/>
<path d="M209 205.195C209 207.563 208.303 209.878 206.996 211.853C205.69 213.827 203.831 215.374 201.652 216.3L196.939 205.195H209Z" fill="#BA68C8"/>
<path d="M195.391 204.369L200.104 215.467C199.733 215.618 199.361 215.756 198.997 215.873C196.663 216.588 194.168 216.588 191.834 215.873C189.97 215.288 188.276 214.26 186.895 212.877C185.515 211.495 184.49 209.798 183.909 207.933C183.184 205.603 183.184 203.108 183.909 200.778C184.489 198.913 185.513 197.218 186.894 195.837C188.274 194.456 189.97 193.432 191.834 192.852C194.167 192.127 196.664 192.127 198.997 192.852C200.862 193.432 202.558 194.456 203.94 195.837C205.322 197.218 206.348 198.913 206.929 200.778C207.286 201.937 207.469 203.143 207.473 204.356L195.391 204.369Z" fill="#BA68C8"/>
<path d="M195.392 204.37L200.104 215.467C199.733 215.619 199.361 215.756 198.997 215.873C196.571 216.628 193.969 216.598 191.561 215.787C189.154 214.976 187.064 213.425 185.59 211.356C184.115 209.287 183.332 206.805 183.352 204.265C183.371 201.724 184.193 199.255 185.699 197.209C187.204 195.163 189.318 193.644 191.738 192.87C194.157 192.096 196.76 192.106 199.174 192.898C201.587 193.691 203.689 195.225 205.18 197.283C206.67 199.34 207.473 201.816 207.473 204.356L195.392 204.37Z" fill="#DBDBDB"/>
<path d="M195.392 204.37L187.549 213.507C186.019 212.19 184.844 210.51 184.132 208.62C183.421 206.731 183.195 204.692 183.477 202.693C183.759 200.694 184.539 198.797 185.745 197.178C186.952 195.559 188.545 194.269 190.38 193.427C192.215 192.584 194.233 192.217 196.247 192.358C198.261 192.498 200.208 193.143 201.908 194.233C203.607 195.323 205.006 196.822 205.975 198.593C206.944 200.365 207.452 202.351 207.453 204.37H195.392Z" fill="#455A64"/>
<path d="M215.234 220.341H206.132L194.855 209.071L195.021 208.906L206.228 220.114H215.234V220.341Z" fill="#263238"/>
<path d="M195.571 208.348H194.305V209.614H195.571V208.348Z" fill="#263238"/>
<path d="M215.235 211.615H204.976L200.105 206.751L200.271 206.586L205.073 211.388H215.235V211.615Z" fill="#263238"/>
<path d="M200.821 206.035H199.555V207.301H200.821V206.035Z" fill="#263238"/>
<path d="M215.233 202.988H199.719V203.222H215.233V202.988Z" fill="#263238"/>
<path d="M200.18 202.473H198.914V203.739H200.18V202.473Z" fill="#263238"/>
<path d="M230.033 201.832H218.764V202.878H230.033V201.832Z" fill="#EBEBEB"/>
<path d="M233.391 204.02H218.764V205.065H233.391V204.02Z" fill="#EBEBEB"/>
<path d="M226.579 206.207H218.764V207.253H226.579V206.207Z" fill="#EBEBEB"/>
<path d="M216.507 201.832H213.961V204.378H216.507V201.832Z" fill="#455A64"/>
<path d="M231.402 210.301H218.764V211.347H231.402V210.301Z" fill="#EBEBEB"/>
<path d="M229.304 212.488H218.764V213.534H229.304V212.488Z" fill="#EBEBEB"/>
<path d="M233.391 214.684H218.764V215.729H233.391V214.684Z" fill="#EBEBEB"/>
<path d="M216.507 210.301H213.961V212.846H216.507V210.301Z" fill="#BA68C8"/>
<path d="M231.402 218.77H218.764V219.815H231.402V218.77Z" fill="#EBEBEB"/>
<path d="M229.304 220.965H218.764V222.011H229.304V220.965Z" fill="#EBEBEB"/>
<path d="M233.391 223.152H218.764V224.198H233.391V223.152Z" fill="#EBEBEB"/>
<path d="M216.507 218.77H213.961V221.315H216.507V218.77Z" fill="#DBDBDB"/>
<path d="M83.9357 43.3047C90.3265 43.3138 96.4523 45.8594 100.967 50.3822C105.482 54.905 108.018 61.0352 108.016 67.426V77.8148H59.8145V67.426C59.8136 64.2581 60.4368 61.121 61.6487 58.1941C62.8606 55.2671 64.6373 52.6077 66.8774 50.3676C69.1174 48.1276 71.7769 46.3509 74.7038 45.139C77.6308 43.9271 80.7678 43.3038 83.9357 43.3047Z" fill="#DBDBDB"/>
<path d="M284.185 237.801V238.117C284.186 244.407 281.727 250.448 277.332 254.948C272.938 259.448 266.957 262.05 260.669 262.197H132.467C138.755 262.05 144.736 259.448 149.13 254.948C153.525 250.448 155.984 244.407 155.983 238.117V237.801H284.185Z" fill="#DBDBDB"/>
<path d="M37.5312 324.875C123.683 324.448 220.319 324.448 306.47 324.875C220.319 325.294 123.683 325.294 37.5312 324.875Z" fill="#263238"/>
<path d="M206.614 324.804C208.299 325.348 256.267 324.722 258.076 323.538C258.764 323.105 259.087 316.108 259.225 307.646V307.377C259.259 305.637 259.287 303.841 259.287 302.018C259.287 301.77 259.287 301.515 259.287 301.268L256.962 276.383L224.873 276.706L228.038 301.357L228.079 302.334L228.272 307.432V307.962C228.272 307.962 210.04 316.411 208.189 317.924C206.338 319.438 204.928 324.268 206.614 324.804Z" fill="#FFC4C0"/>
<path d="M206.614 324.806C208.299 325.35 256.267 324.723 258.076 323.54C258.764 323.107 259.087 316.11 259.225 307.647V307.379C259.259 305.638 259.287 303.843 259.287 302.019C259.287 301.772 259.287 301.517 259.287 301.27L228.038 301.359L228.079 302.336L228.272 307.434V307.964C228.272 307.964 210.04 316.412 208.189 317.926C206.338 319.44 204.928 324.269 206.614 324.806Z" fill="#EBEBEB"/>
<path d="M206.607 324.799C207.474 325.081 220.505 325.054 233.246 324.799C235.806 324.751 238.351 324.689 240.814 324.627C249.903 324.379 257.409 324.001 258.104 323.547C258.799 323.093 259.108 316.309 259.246 308.005C259.246 307.888 259.246 307.771 259.246 307.654C259.246 307.537 259.246 307.468 259.246 307.379H259.205L228.293 307.441V307.971C228.293 307.971 210.04 316.412 208.189 317.926C206.339 319.44 204.928 324.269 206.607 324.799Z" fill="#A6A6A6"/>
<path d="M207.131 322.939C215.215 322.63 247.847 322.169 255.862 322.485C255.924 322.485 255.931 322.533 255.862 322.54C247.854 323.015 215.222 323.228 207.138 323.07C206.966 323.063 206.966 322.939 207.131 322.939Z" fill="#263238"/>
<path d="M224.832 307.568C228.011 306.928 231.905 307.369 234.368 309.632C234.464 309.722 234.368 309.852 234.237 309.825C231.183 308.883 228.037 308.269 224.853 307.995C224.796 307.998 224.741 307.978 224.699 307.94C224.657 307.902 224.632 307.848 224.629 307.792C224.626 307.735 224.646 307.68 224.684 307.638C224.722 307.596 224.776 307.571 224.832 307.568Z" fill="#263238"/>
<path d="M222.555 308.982C225.726 308.349 229.627 308.789 232.09 311.046C232.187 311.129 232.09 311.266 231.953 311.232C228.902 310.288 225.758 309.677 222.575 309.409C222.519 309.411 222.464 309.392 222.422 309.353C222.38 309.315 222.355 309.262 222.352 309.206C222.349 309.149 222.369 309.094 222.407 309.052C222.445 309.01 222.498 308.985 222.555 308.982Z" fill="#263238"/>
<path d="M220.277 310.396C223.449 309.756 227.349 310.197 229.806 312.46C229.902 312.55 229.806 312.68 229.675 312.653C226.621 311.71 223.475 311.096 220.291 310.823C220.234 310.825 220.179 310.804 220.138 310.765C220.096 310.727 220.072 310.673 220.07 310.616C220.069 310.56 220.089 310.505 220.128 310.464C220.167 310.422 220.22 310.398 220.277 310.396Z" fill="#263238"/>
<path opacity="0.2" d="M233.232 324.791C235.792 324.743 238.337 324.681 240.8 324.619C249.889 324.372 257.395 323.993 258.09 323.539C258.785 323.085 259.094 316.301 259.232 307.997C259.232 307.88 259.232 307.763 259.232 307.646C259.232 307.529 259.232 307.461 259.232 307.371H259.191C254.959 310.343 240.037 320.278 233.232 324.791Z" fill="black"/>
<path d="M226.174 307.534H260.753C260.753 307.534 253.797 226.845 254.066 225.442C254.416 223.632 256.453 215.466 259.171 204.802C260.017 201.465 260.939 197.887 261.923 194.172C264.503 184.134 267.344 173.16 269.814 163.618C273.529 149.314 276.426 138.203 276.426 138.203H247.076C247.076 138.203 243.636 149.025 239.363 163.095C232.359 185.971 222.996 217.447 222.074 225.098C220.574 237.454 226.174 307.534 226.174 307.534Z" fill="#263238"/>
<path d="M227.729 301.647C233.006 301.536 231.492 301.495 236.769 301.447C239.349 301.447 256.322 301.275 258.73 301.674C258.741 301.678 258.75 301.685 258.756 301.694C258.763 301.703 258.766 301.714 258.766 301.726C258.766 301.737 258.763 301.748 258.756 301.757C258.75 301.766 258.741 301.773 258.73 301.777C256.315 302.176 239.349 302.032 236.769 302.004C231.492 301.956 233.006 301.915 227.729 301.805C227.712 301.8 227.697 301.789 227.686 301.775C227.676 301.761 227.67 301.743 227.67 301.726C227.67 301.708 227.676 301.691 227.686 301.676C227.697 301.662 227.712 301.652 227.729 301.647Z" fill="#37474F"/>
<path d="M247.536 220.517C248.664 215.522 250.356 210.631 251.829 205.725C254.828 195.763 257.842 185.808 260.869 175.859C262.383 170.883 263.901 165.911 265.424 160.943C266.201 158.432 266.972 155.921 267.756 153.417C268.54 150.912 269.4 148.532 270.095 146.062C270.377 145.057 270.529 145.608 270.171 146.887C269.442 149.461 268.719 152.041 267.969 154.614C266.483 159.7 264.986 164.787 263.477 169.874C260.486 180.005 257.466 190.117 254.416 200.207C252.893 205.28 251.368 210.349 249.841 215.412C249.069 217.821 248.447 220.275 247.976 222.76C247.567 225.363 247.463 228.004 247.666 230.631C247.997 235.915 248.609 241.192 249.097 246.455C249.586 251.718 250.081 257.022 250.57 262.279C251.542 272.791 252.505 283.309 253.459 293.83C253.583 295.156 253.698 296.488 253.803 297.828C253.838 298.275 253.521 298.33 253.473 297.903C252.338 287.501 251.1 276.981 250.129 266.565C249.159 256.149 248.182 245.842 247.212 235.474C246.972 232.874 246.696 230.266 246.689 227.652C246.706 225.25 246.989 222.857 247.536 220.517Z" fill="#37474F"/>
<path d="M250.434 138.203C252.498 153.931 256.337 183.412 259.164 204.802C265.769 178.885 276.364 138.203 276.364 138.203H250.434Z" fill="#37474F"/>
<path d="M243.209 325.264C244.895 325.814 292.862 325.367 294.678 324.191C295.366 323.75 295.717 316.76 295.882 308.298C295.882 308.208 295.882 308.119 295.882 308.03C295.924 306.289 295.951 304.493 295.958 302.67C295.958 302.422 295.958 302.175 295.958 301.92C296.068 289.708 295.187 277.035 295.187 277.035L263.835 277.242L264.709 301.893L264.743 302.87L264.915 307.975V308.497C264.915 308.497 246.628 316.884 244.771 318.391C242.913 319.898 241.53 324.734 243.209 325.264Z" fill="#FFC4C0"/>
<path d="M243.209 325.266C244.895 325.816 292.862 325.369 294.678 324.192C295.366 323.752 295.717 316.762 295.882 308.3C295.882 308.21 295.882 308.121 295.882 308.031C295.924 306.291 295.951 304.495 295.958 302.672C295.958 302.424 295.958 302.176 295.958 301.922H264.709L264.743 302.899L264.915 308.004V308.527C264.915 308.527 246.628 316.913 244.771 318.42C242.913 319.927 241.53 324.736 243.209 325.266Z" fill="#EBEBEB"/>
<path d="M243.209 325.266C244.895 325.816 292.862 325.369 294.679 324.193C295.367 323.752 295.718 316.762 295.883 308.3C295.883 308.21 295.883 308.121 295.883 308.032L264.923 307.977V308.499C264.923 308.499 246.636 316.886 244.778 318.393C242.92 319.9 241.531 324.736 243.209 325.266Z" fill="#A6A6A6"/>
<path d="M243.739 323.401C251.823 323.126 284.455 322.788 292.463 323.126C292.532 323.126 292.532 323.174 292.463 323.181C284.462 323.628 251.823 323.704 243.739 323.532C243.553 323.532 243.553 323.408 243.739 323.401Z" fill="#263238"/>
<path d="M261.496 308.101C264.668 307.475 268.569 307.929 271.018 310.165C271.115 310.254 271.018 310.385 270.887 310.351C267.837 309.399 264.693 308.776 261.51 308.493C261.464 308.486 261.422 308.463 261.391 308.429C261.36 308.394 261.342 308.349 261.34 308.303C261.338 308.256 261.353 308.21 261.382 308.173C261.41 308.137 261.451 308.111 261.496 308.101Z" fill="#263238"/>
<path d="M259.211 309.503C262.383 308.877 266.284 309.331 268.733 311.567C268.829 311.657 268.733 311.787 268.602 311.76C265.552 310.806 262.408 310.181 259.225 309.895C259.179 309.889 259.136 309.866 259.105 309.831C259.074 309.796 259.056 309.752 259.055 309.705C259.053 309.658 259.068 309.613 259.096 309.576C259.125 309.539 259.166 309.513 259.211 309.503Z" fill="#263238"/>
<path d="M256.927 310.907C260.098 310.287 263.999 310.735 266.448 312.971C266.545 313.053 266.448 313.191 266.318 313.156C263.268 312.201 260.124 311.579 256.94 311.299C256.898 311.287 256.861 311.262 256.835 311.227C256.808 311.193 256.793 311.151 256.791 311.108C256.79 311.064 256.802 311.021 256.826 310.985C256.851 310.949 256.886 310.921 256.927 310.907Z" fill="#263238"/>
<path d="M248.025 138.203C248.025 138.203 248.713 152.211 251.906 163.308C252.16 164.223 252.442 165.131 252.745 165.991C255.683 167.178 258.507 168.631 261.18 170.333C261.18 170.333 261.517 181.602 261.868 194.172C262.246 208.221 262.632 223.894 262.556 227.196C262.26 239.628 264.111 308.022 264.111 308.022L298.648 308.16C298.648 308.16 292.401 231.792 292.456 227.23C292.518 219.91 290.778 187.54 289.436 163.934C288.96 155.293 287.882 146.695 286.209 138.203H248.025Z" fill="#263238"/>
<path d="M265.279 301.908C270.556 301.818 269.035 301.77 274.312 301.743C276.899 301.743 293.865 301.653 296.28 302.059C296.328 302.059 296.328 302.156 296.28 302.169C293.865 302.555 276.892 302.334 274.312 302.3C269.035 302.224 270.549 302.19 265.279 302.059C265.259 302.059 265.239 302.051 265.225 302.037C265.211 302.023 265.203 302.004 265.203 301.984C265.203 301.963 265.211 301.944 265.225 301.93C265.239 301.916 265.259 301.908 265.279 301.908Z" fill="#37474F"/>
<path d="M285.019 143.215C285.652 162.479 286.326 181.743 287.186 201.007C288.046 220.271 292.594 289.518 293.757 300.265C293.757 300.333 293.654 300.361 293.64 300.265C291.129 281.145 289.725 252.854 288.487 233.618C287.248 214.382 286.423 195.09 285.735 175.826C285.37 164.928 285.081 154.03 284.758 143.132C284.772 143.05 285.012 143.063 285.019 143.215Z" fill="#37474F"/>
<path d="M251.307 165.16C254.742 166.595 258.045 168.326 261.18 170.334C261.206 170.348 261.226 170.371 261.235 170.4C261.244 170.428 261.242 170.459 261.228 170.485C261.214 170.512 261.191 170.532 261.162 170.541C261.134 170.55 261.103 170.547 261.077 170.534C257.747 168.917 254.341 167.362 251.108 165.559C251.055 165.533 251.015 165.486 250.996 165.43C250.977 165.374 250.981 165.313 251.008 165.26C251.034 165.207 251.081 165.167 251.137 165.148C251.193 165.129 251.254 165.134 251.307 165.16Z" fill="#37474F"/>
<path d="M251.12 153.278C251.347 154.503 251.643 155.721 251.911 156.939C252.18 158.156 252.345 159.25 252.647 160.379C252.89 161.475 253.447 162.477 254.25 163.261C254.698 163.681 255.193 164.053 255.675 164.431C255.929 164.637 256.211 164.837 256.48 165.05C256.48 164.885 256.418 164.72 256.383 164.555C256.301 164.087 256.225 163.619 256.149 163.179C255.97 162.14 255.805 161.115 255.647 160.069C255.337 158.005 255.048 155.975 254.629 153.96C254.629 153.943 254.635 153.927 254.647 153.916C254.659 153.904 254.674 153.898 254.691 153.898C254.707 153.898 254.723 153.904 254.734 153.916C254.746 153.927 254.753 153.943 254.753 153.96C255.262 155.962 255.819 157.936 256.259 159.952C256.48 160.943 257.25 165.821 257.284 166.144C257.319 166.467 257.353 166.832 257.367 167.217C257.412 167.581 257.412 167.948 257.367 168.311C257.36 168.328 257.349 168.342 257.334 168.351C257.319 168.361 257.302 168.366 257.284 168.366C257.267 168.366 257.25 168.361 257.235 168.351C257.22 168.342 257.209 168.328 257.202 168.311C257.053 167.973 256.949 167.617 256.892 167.252C256.803 166.901 256.72 166.564 256.658 166.192C256.658 166.068 256.617 165.938 256.603 165.807C256.122 165.511 255.675 165.119 255.227 164.802C254.78 164.486 254.244 164.114 253.789 163.722C252.94 163.003 252.328 162.044 252.035 160.97C251.741 159.82 251.55 158.646 251.464 157.462C251.306 156.086 251.196 154.71 250.996 153.334C250.976 153.223 251.12 153.196 251.12 153.278Z" fill="#37474F"/>
<path d="M262.439 100.95C259.934 109.151 253.151 126.138 246.615 128.47C238.861 131.27 216.955 117.723 209.586 110.162C206.91 107.41 218.53 95.508 221.647 97.0285C224.764 98.5489 242.521 111.662 243.546 111.064C245.28 110.052 248.94 105.959 255.435 99.2713C261.929 92.584 263.643 97.0078 262.439 100.95Z" fill="#FFC4C0"/>
<path d="M216.308 114.105C218.544 114.408 226.381 102.258 225.252 100.235C223.465 96.451 222.482 92.3375 222.363 88.1541C222.411 84.3289 222.92 78.6529 220.863 78.5221C217.863 78.3639 216.356 85.4641 215.744 89.5921C213.955 88.2161 212.304 87.1634 211.086 86.9226C207.124 86.1108 201.262 103.359 203.897 106.524C206.442 109.599 214.079 113.796 216.308 114.105Z" fill="#FFC4C0"/>
<path d="M210.45 101.647L214.059 102.875L219.455 87.0225L215.847 85.7942L210.45 101.647Z" fill="#C7C7C7"/>
<path d="M205.803 112.282L211.259 114.14L216.04 100.084L210.591 98.2266L205.803 112.282Z" fill="#263238"/>
<path d="M216.955 89.4393C217.271 91.5033 214.636 90.7053 214.636 90.7053C214.636 90.7053 218.145 92.7692 217.643 95.0672C217.14 97.3651 214.003 96.1542 213.776 96.0785C213.962 96.1886 217.134 98.1907 216.397 100.42C215.661 102.649 212.655 101.108 212.462 100.984C212.606 101.142 214.437 103.296 213.487 104.864C211.857 107.554 207.034 102.174 204.488 102.147C204.488 102.147 203.945 106.454 203.896 106.571C203.896 106.571 199.204 101.548 199.438 98.115C199.464 97.6134 199.66 97.1355 199.994 96.7603C200.328 96.385 200.78 96.1349 201.275 96.051C201.275 96.051 199.583 94.5993 200.106 92.8243C200.381 91.9161 202.08 91.5446 202.08 91.5446C201.717 91.1975 201.455 90.7574 201.324 90.2723C201.193 89.7872 201.198 89.2755 201.337 88.7926C201.784 87.5542 203.401 87.3753 203.401 87.3753C203.401 87.3753 202.713 85.6209 203.559 84.5064C205.327 82.2222 216.267 84.9605 216.955 89.4393Z" fill="#FFC4C0"/>
<path d="M203.648 87.2807C203.607 87.2807 203.607 87.2188 203.648 87.2188C207.62 87.2285 211.495 88.445 214.759 90.7069C214.856 90.7826 214.759 90.9821 214.656 90.9202C211.184 89.1776 207.475 87.9515 203.648 87.2807Z" fill="#263238"/>
<path d="M202.031 91.5019C201.983 91.5019 202.031 91.4193 202.031 91.4262C206.407 91.4741 210.621 93.0901 213.906 95.9807C214.023 96.0839 214.016 96.2904 213.906 96.1803C211.567 94.3158 205.629 92.0729 202.031 91.5019Z" fill="#263238"/>
<path d="M212.592 101.247C209.352 98.4541 205.54 96.9818 201.405 96.0323C201.35 96.0323 201.405 95.9429 201.405 95.9429C203.552 95.8603 206.125 96.741 208.065 97.5941C209.883 98.353 211.469 99.5746 212.668 101.137C212.764 101.199 212.689 101.309 212.592 101.247Z" fill="#263238"/>
<path d="M214.704 90.6562C214.828 90.7457 214.56 90.8214 214.704 90.9177C215.2 91.3098 218.014 93.9311 217.415 95.1695C216.933 96.1534 215.275 96.1946 214.629 95.9607L213.012 95.369L214.326 96.4905C214.916 96.979 215.421 97.5626 215.819 98.2174C216.027 98.5136 216.17 98.8513 216.236 99.2074C216.303 99.5636 216.292 99.9298 216.204 100.281C216.121 100.6 215.933 100.882 215.669 101.079C215.405 101.277 215.082 101.379 214.752 101.368C214.017 101.317 213.307 101.081 212.688 100.68L210.927 99.6484L212.248 101.196C212.616 101.625 212.928 102.099 213.177 102.607C213.435 103.08 213.545 103.619 213.493 104.155C213.455 104.395 213.351 104.62 213.191 104.803C213.032 104.987 212.824 105.122 212.592 105.194C212.055 105.291 211.5 105.231 210.996 105.022C209.883 104.593 208.806 104.075 207.776 103.474C207.253 103.185 206.723 102.896 206.18 102.634C205.653 102.341 205.068 102.165 204.467 102.118C205.053 102.236 205.61 102.47 206.104 102.806C206.62 103.102 207.122 103.426 207.625 103.749C208.622 104.435 209.681 105.025 210.79 105.51C211.389 105.778 212.053 105.869 212.702 105.772C213.054 105.684 213.373 105.494 213.618 105.226C213.862 104.958 214.023 104.624 214.078 104.265C214.159 103.604 214.041 102.933 213.741 102.338C213.473 101.768 213.133 101.234 212.73 100.749L212.289 101.265C213.021 101.745 213.865 102.025 214.739 102.077C215.224 102.093 215.699 101.937 216.08 101.637C216.45 101.337 216.719 100.931 216.851 100.474C216.957 100.035 216.969 99.5793 216.886 99.1358C216.803 98.6923 216.627 98.2714 216.369 97.9009C215.919 97.189 215.354 96.5567 214.697 96.0295L214.395 96.5524C215.22 96.8276 217.085 96.9858 218.02 95.541C218.956 93.4633 215.385 91.0484 214.704 90.6562Z" fill="#263238"/>
<path d="M214.656 90.6788C215.088 90.7254 215.524 90.7045 215.95 90.6169C216.12 90.5863 216.279 90.5109 216.411 90.3985C216.543 90.286 216.643 90.1406 216.7 89.977C216.775 89.6011 216.739 89.2115 216.596 88.8556C216.453 88.4345 216.287 88.0212 216.101 87.6172C216.476 87.9006 216.788 88.2591 217.016 88.6698C217.289 89.114 217.378 89.6472 217.264 90.1559C217.172 90.43 216.999 90.6699 216.768 90.8439C216.543 90.9913 216.281 91.0746 216.012 91.0847C215.528 91.0967 215.053 90.9546 214.656 90.6788Z" fill="#263238"/>
<path d="M227.165 99.2572L213.082 116.815C213.082 116.815 236.103 133.657 247.179 129.426C249.732 128.449 258.401 117.696 262.79 102.105C264.049 97.6404 262.535 89.6114 254.018 99.209C245.501 108.807 243.657 110.375 243.271 110.396C242.886 110.417 227.165 99.2572 227.165 99.2572Z" fill="#EBEBEB"/>
<path d="M218.317 118.768C219.225 117.33 220.347 116.016 221.393 114.64C222.438 113.264 223.457 112.005 224.509 110.697C226.621 108.062 228.685 105.352 230.97 102.854C230.98 102.841 230.995 102.831 231.011 102.829C231.028 102.826 231.045 102.83 231.059 102.841C231.073 102.851 231.082 102.866 231.084 102.882C231.087 102.899 231.083 102.916 231.073 102.93C229.208 105.785 227.041 108.434 224.929 111.138C223.869 112.473 222.792 113.798 221.695 115.114C220.672 116.413 219.576 117.653 218.414 118.83C218.359 118.912 218.283 118.83 218.317 118.768Z" fill="#263238"/>
<path opacity="0.1" d="M262.817 102.107C258.428 117.697 249.745 128.451 247.206 129.428C244.668 130.405 241.014 130.281 237.086 129.208C243.966 118.784 254.974 102.128 260.113 94.7318C263.209 94.2571 263.656 99.0731 262.817 102.107Z" fill="black"/>
<path d="M242.913 150.141L289.264 152.831C289.264 152.831 283.76 112.026 269.029 96.2915C267.206 94.3514 262.693 94.3307 259.631 95.5072C258.537 95.9269 254.602 101.128 253.061 105.985C251.52 110.843 242.81 149.983 242.913 150.141Z" fill="#BA68C8"/>
<path d="M261.241 106.304L260.119 102.926L257.051 105.279L257.367 107.735L259.789 108.361L261.241 106.304Z" fill="#263238"/>
<path d="M259.79 108.36L257.444 136.135L253.048 144.425L250.66 134.78L257.368 107.734L259.79 108.36Z" fill="#263238"/>
<path d="M267.262 95.293C265.708 103.865 264.683 112.525 264.193 121.224C262.817 154.378 265.356 213.209 266.257 217.496C266.787 219.952 295.319 215.535 295.319 215.535C295.319 215.535 292.718 147.608 283.224 120.955C274.445 96.2424 267.262 95.293 267.262 95.293Z" fill="#EBEBEB"/>
<path d="M288.727 169.461C285.49 169.908 282.23 170.163 278.964 170.225C274.396 170.225 269.862 169.777 268.554 169.764C268.437 169.764 268.376 170.142 268.458 170.156C271.918 170.579 275.397 170.827 278.881 170.899C282.071 170.875 285.252 170.574 288.389 169.998C288.389 170.961 288.389 171.718 288.389 172.688C285.17 173.307 278.957 174.387 268.919 173.094C268.919 172.688 268.919 170.534 268.857 169.943C268.857 169.853 268.472 169.839 268.458 169.977C268.376 170.555 268.142 175.735 268.135 176.788C268.135 179.375 268.286 186.702 268.933 188.119C270.398 191.332 276.645 191.339 278.379 191.353C280.113 191.367 285.693 191.539 287.784 189.495C288.899 188.402 289.16 182.471 288.974 177.222C288.878 174.71 288.871 169.509 288.727 169.461ZM278.861 190.693C273.357 190.693 270.921 189.544 270.068 188.388C269.077 187.012 268.995 184.7 268.919 182.113C268.857 180.084 268.919 173.713 268.919 173.589C272.139 174.243 280.649 175.123 288.376 173.327C288.376 176.341 288.376 178.756 288.376 181.776C288.376 183.957 288.238 187.624 287.13 188.897C286.209 189.963 282.858 190.686 278.861 190.693Z" fill="#DBDBDB"/>
<path d="M258.819 95.5508C258.819 95.5508 251.588 121.172 250.797 125.135C250.006 129.098 243.917 211.176 242.465 214.114C241.984 215.105 224.873 209.05 224.873 209.05C224.873 209.05 250.673 110.081 252.689 105.348C255.764 98.1377 258.819 95.5508 258.819 95.5508Z" fill="#EBEBEB"/>
<path d="M272.036 99.3411C283.767 111.512 293.681 129.826 292.394 139.83C291.115 149.716 287.812 148.279 286.849 148.086C280.939 146.868 271.293 118.805 268.535 107.026C266.01 96.2726 269.133 96.3208 272.036 99.3411Z" fill="#EBEBEB"/>
<path d="M280.017 139.27C279.501 137.935 278.965 136.607 278.462 135.259L276.928 131.241C275.917 128.558 274.864 125.881 273.922 123.184C272.979 120.487 271.947 117.804 270.998 115.1C270.516 113.752 270.057 112.396 269.622 111.034C269.154 109.658 268.748 108.282 268.328 106.906C268.897 109.726 269.623 112.512 270.502 115.252C271.348 118.004 272.312 120.701 273.254 123.404C274.197 126.108 275.318 128.771 276.419 131.42C277.52 134.068 278.683 136.717 280.017 139.27Z" fill="#263238"/>
<path d="M269.223 110.432C269.04 109.96 268.829 109.501 268.59 109.056C268.473 108.829 268.356 108.602 268.225 108.368C268.107 108.13 267.974 107.9 267.826 107.68C267.875 108.203 268.03 108.711 268.28 109.173C268.515 109.646 268.835 110.073 269.223 110.432Z" fill="#263238"/>
<path d="M259.569 106.738L231.301 113.598L240.231 150.397L268.499 143.537L259.569 106.738Z" fill="#BA68C8"/>
<path opacity="0.4" d="M259.569 106.738L231.301 113.598L240.231 150.397L268.499 143.537L259.569 106.738Z" fill="black"/>
<path d="M251.799 106.602L238.396 109.84L239.377 113.899L252.779 110.662L251.799 106.602Z" fill="#C7C7C7"/>
<path d="M248.76 107.349L247.109 107.741L246.655 105.87L242.644 106.84L243.098 108.711L241.447 109.11L240.621 105.698L247.955 103.93L248.76 107.349Z" fill="#C7C7C7"/>
<path d="M288.685 147.996C284.296 148.952 278.496 145.932 263.325 136.575C261.227 135.275 266.387 117.999 268.699 119.279C271.609 120.875 282.569 127.7 283.305 128.305C289.531 133.369 291.664 147.349 288.685 147.996Z" fill="#FFC4C0"/>
<path d="M274.218 123.949C274.218 123.949 269.691 118.527 266.423 116.422C262.974 114.321 259.066 113.089 255.036 112.83C250.688 112.535 239.962 114.819 240.079 118.025C240.189 120.921 251.032 118.025 251.032 118.025C251.032 118.025 239.494 119.146 240.265 122.614C241.035 126.081 253.433 122.015 253.433 122.015C253.433 122.015 241.6 123.433 242.962 126.879C243.987 129.487 255.428 126.439 255.428 126.439C255.428 126.439 245.26 127.726 246.202 130.45C247.248 133.464 257.981 131.31 257.981 131.31C261.545 137.839 266.051 139.408 269.292 140.213C270.083 140.392 274.218 123.949 274.218 123.949Z" fill="#FFC4C0"/>
<path d="M255.001 117.371C253.625 117.454 252.249 117.529 250.914 117.729C249.58 117.928 248.224 118.183 246.896 118.513C245.16 118.911 243.473 119.502 241.867 120.274C244.819 119.105 249.635 118.3 250.983 118.1C252.332 117.901 253.666 117.626 255.008 117.412L255.001 117.371Z" fill="#263238"/>
<path d="M255.827 122.231C254.093 122.41 252.387 122.527 250.64 122.782C248.892 123.036 247.317 123.435 245.617 123.807C245.487 123.807 245.549 123.896 245.679 123.869C247.392 123.566 248.995 123.415 250.702 123.133C252.408 122.85 254.142 122.493 255.834 122.273C255.862 122.266 255.848 122.224 255.827 122.231Z" fill="#263238"/>
<path d="M257.313 126.27C254.649 126.484 252.014 126.971 249.449 127.721C249.318 127.756 249.408 127.824 249.538 127.804C252.146 127.267 254.182 126.834 257.32 126.366C257.313 126.359 257.313 126.27 257.313 126.27Z" fill="#263238"/>
<path d="M274.046 121.664L269.986 142.717C269.986 142.717 286.264 151.592 289.47 147.76C292.106 144.602 289.078 133.491 284.93 129.253C283.203 127.485 274.046 121.664 274.046 121.664Z" fill="#EBEBEB"/>
<path d="M273.908 122.367L274.08 121.679H274.025C275.546 122.739 277.08 123.784 278.587 124.858C280.093 125.931 281.607 126.997 283.059 128.139C283.784 128.692 284.473 129.289 285.123 129.928C285.749 130.591 286.318 131.307 286.822 132.068C287.829 133.615 288.584 135.313 289.058 137.097C288.767 135.246 288.122 133.469 287.159 131.862C286.675 131.051 286.105 130.294 285.46 129.605C284.803 128.934 284.102 128.309 283.361 127.734C281.889 126.591 280.362 125.532 278.814 124.507C277.266 123.482 275.669 122.525 274.046 121.617H274.005V121.665L273.908 122.367Z" fill="#263238"/>
<path d="M277.767 126.522C277.498 127.561 277.313 128.628 277.079 129.68C276.845 130.733 276.68 131.793 276.501 132.852C276.136 134.964 275.778 137.083 275.455 139.209C275.365 139.787 275.276 140.372 275.2 140.95C275.125 141.528 275.111 142.209 275.021 142.828C275.025 142.835 275.03 142.842 275.037 142.846C275.043 142.85 275.051 142.853 275.059 142.853C275.067 142.853 275.075 142.85 275.082 142.846C275.089 142.842 275.094 142.835 275.097 142.828C275.193 142.312 275.365 141.803 275.476 141.287C275.586 140.771 275.689 140.214 275.792 139.677C275.985 138.617 276.17 137.565 276.356 136.505C276.721 134.393 277.044 132.274 277.374 130.141C277.546 128.944 277.746 127.733 277.849 126.529C277.877 126.467 277.78 126.454 277.767 126.522Z" fill="#263238"/>
<path d="M270.385 140.84C270.316 141.48 270.227 142.106 270.144 142.739L270.082 142.608C275.208 145.044 280.402 147.906 286.071 148.662C286.883 148.75 287.703 148.677 288.486 148.449C287.726 148.802 286.896 148.981 286.058 148.972C280.223 148.731 274.85 145.793 269.959 142.821L269.883 142.766C270.048 142.126 270.206 141.48 270.385 140.84Z" fill="#263238"/>
<path d="M260.609 103.234C263.148 103.777 267.393 99.7938 269.037 96.6565C269.147 96.4432 268.769 94.1866 268.438 91.4277C268.246 89.7558 268.067 87.8845 268.032 86.1714C268.032 85.8205 257.32 89.0266 257.32 89.0266C257.98 91.1605 258.378 93.3669 258.504 95.597C258.503 95.8274 258.484 96.0574 258.449 96.285C258.445 96.3239 258.445 96.363 258.449 96.4019C258.242 97.7642 258.16 102.711 260.609 103.234Z" fill="#FFC4C0"/>
<path d="M268.169 88.7858C264.426 94.6544 259.542 94.2898 258.413 94.159C258.193 92.42 257.825 90.7029 257.313 89.0266C257.313 89.0266 268.018 85.8205 268.025 86.1714C268.052 87.0176 268.1 87.9051 268.169 88.7858Z" fill="#263238"/>
<path d="M270.598 72.9276C271.478 76.8217 268.651 87.6783 265.782 89.9281C261.592 93.1961 255.138 93.0585 252.469 88.1117C249.875 83.2957 253.811 69.233 257.003 67.2309C261.674 64.2588 269.298 67.1484 270.598 72.9276Z" fill="#FFC4C0"/>
<path d="M259.329 79.4141C259.329 79.4141 259.377 79.4691 259.37 79.4966C259.157 80.1846 259.04 81.0859 259.638 81.4987C259.638 81.4987 259.638 81.5469 259.638 81.54C258.847 81.2166 259.012 80.0677 259.329 79.4141Z" fill="#263238"/>
<path d="M260.175 78.8175C261.379 79.0308 260.863 81.4181 259.755 81.2186C258.647 81.0191 259.17 78.6455 260.175 78.8175Z" fill="#263238"/>
<path d="M255.028 78.3359C255.028 78.3359 254.966 78.3359 254.959 78.391C254.822 79.134 254.547 79.9665 253.824 80.0628C253.824 80.0628 253.824 80.1041 253.824 80.111C254.664 80.166 255.021 79.0652 255.028 78.3359Z" fill="#263238"/>
<path d="M254.56 77.4287C253.391 77.0847 252.792 79.4445 253.872 79.761C254.952 80.0775 255.517 77.7452 254.56 77.4287Z" fill="#263238"/>
<path d="M261.269 78.045C260.949 77.9501 260.634 77.8376 260.327 77.7078C259.978 77.6354 259.661 77.452 259.425 77.185C259.37 77.0852 259.348 76.9699 259.365 76.8569C259.381 76.7438 259.434 76.6392 259.515 76.5589C259.698 76.4248 259.914 76.342 260.14 76.3191C260.366 76.2961 260.595 76.3337 260.801 76.4282C261.249 76.5612 261.632 76.8521 261.881 77.2469C261.932 77.3404 261.955 77.4467 261.947 77.5528C261.938 77.659 261.899 77.7604 261.835 77.8449C261.77 77.9294 261.682 77.9932 261.582 78.0287C261.481 78.0642 261.373 78.0699 261.269 78.045Z" fill="#A6A6A6"/>
<path d="M253.748 76.1073C254.076 76.1774 254.406 76.2302 254.739 76.2656C255.076 76.3794 255.441 76.3794 255.778 76.2656C255.874 76.2064 255.948 76.1168 255.988 76.0109C256.028 75.905 256.032 75.7889 255.998 75.6808C255.903 75.4742 255.753 75.2973 255.566 75.1689C255.378 75.0405 255.159 74.9654 254.932 74.9515C254.464 74.8374 253.971 74.9089 253.556 75.151C253.478 75.2143 253.418 75.2977 253.384 75.3923C253.35 75.4869 253.343 75.589 253.362 75.6875C253.382 75.7861 253.429 75.8773 253.497 75.9513C253.565 76.0253 253.652 76.0793 253.748 76.1073Z" fill="#A6A6A6"/>
<path d="M258.751 86.1566C258.538 86.2873 258.311 86.4937 258.063 86.4524C257.79 86.3912 257.535 86.2715 257.313 86.1016C257.313 86.1016 257.258 86.1016 257.272 86.1016C257.346 86.2698 257.465 86.4148 257.615 86.5213C257.765 86.6278 257.941 86.692 258.125 86.707C258.278 86.6945 258.425 86.6379 258.547 86.5439C258.669 86.4499 258.762 86.3225 258.813 86.1772C258.833 86.1635 258.785 86.136 258.751 86.1566Z" fill="#263238"/>
<path d="M258.448 83.7769C258.196 84.0282 257.897 84.2256 257.567 84.3569C257.237 84.4882 256.883 84.5507 256.528 84.5406C256.217 84.5321 255.909 84.4788 255.613 84.3823C255.556 84.371 255.5 84.3525 255.448 84.3273C255.393 84.3127 255.34 84.2919 255.29 84.2654C255.252 84.2503 255.221 84.2231 255.201 84.1882C255.181 84.1532 255.174 84.1125 255.18 84.0727C255.176 84.0476 255.176 84.0222 255.18 83.997V83.9351C255.283 83.3641 255.524 82.511 255.524 82.511C255.296 82.5729 254.148 82.8206 254.209 82.511C254.826 79.9616 255.7 77.4812 256.817 75.1081C256.823 75.0907 256.836 75.0767 256.853 75.0689C256.87 75.0612 256.889 75.0604 256.906 75.0668C256.924 75.0732 256.938 75.0862 256.946 75.103C256.953 75.1197 256.954 75.1389 256.948 75.1562C256.397 77.5161 255.427 79.759 254.836 82.1257C255.248 82.0306 255.672 81.9935 256.095 82.0156C256.17 82.0569 255.606 83.6599 255.579 83.9214C256.031 84.0639 256.508 84.1148 256.98 84.0711C257.453 84.0274 257.912 83.89 258.331 83.6668C258.454 83.6668 258.503 83.7287 258.448 83.7769Z" fill="#263238"/>
<path d="M256.012 84.1706C256.236 84.6447 256.58 85.0524 257.009 85.354C257.248 85.5113 257.529 85.5907 257.814 85.581C258.433 85.581 258.564 85.01 258.557 84.5215C258.55 84.2636 258.513 84.0073 258.447 83.7578C257.701 84.1528 256.847 84.2975 256.012 84.1706Z" fill="#263238"/>
<path d="M257.01 85.3542C257.248 85.5116 257.529 85.5909 257.815 85.5813C258.434 85.5813 258.565 85.0102 258.558 84.5218C258.244 84.4661 257.92 84.518 257.639 84.6691C257.358 84.8201 257.136 85.0615 257.01 85.3542Z" fill="#FF9ABB"/>
<path d="M268.404 83.5994C266.478 82.9733 267.344 77.9578 267.344 77.9578C267.344 77.9578 265.053 76.5818 265.095 71.8965C265.095 71.8965 262.597 76.0727 254.575 73.589C254.587 72.0897 255.069 70.6318 255.951 69.4197C254.884 70.6877 253.922 72.0407 253.075 73.4651C253.075 73.4651 252.387 66.2893 258.614 64.9408C261.104 64.4042 264.592 65.2435 269.463 68.8624C269.463 68.8624 271.073 65.8421 271.617 66.3719C272.16 66.9016 270.42 69.688 270.42 69.688C270.42 69.688 272.903 69.3853 273.213 69.9495C273.523 70.5136 271.101 70.6375 271.101 70.6375C272.089 71.2005 272.842 72.1008 273.221 73.1735C273.6 74.2461 273.58 75.4195 273.165 76.4786C271.899 80.1663 269.36 83.9365 268.404 83.5994Z" fill="#A6A6A6"/>
<path d="M270.46 70.4425C271.504 70.5951 272.456 71.1243 273.136 71.9304C273.817 72.7364 274.179 73.7636 274.155 74.8182C274.038 76.0363 273.648 77.2124 273.013 78.2582C272.36 79.3611 271.572 80.3781 270.666 81.2854C270.618 81.3405 270.543 81.251 270.591 81.2029C271.394 80.3422 272.06 79.3629 272.565 78.2995C273.102 77.3101 273.478 76.2419 273.68 75.1347C273.82 74.1009 273.564 73.0523 272.963 72.1997C272.362 71.347 271.46 70.7536 270.439 70.5389C270.384 70.5457 270.384 70.4288 270.46 70.4425Z" fill="#A6A6A6"/>
<path d="M263.504 64.672C264.844 65.2418 266.105 65.9842 267.253 66.8805C268.38 67.6835 269.362 68.6723 270.157 69.8045C270.198 69.8664 270.122 69.9352 270.074 69.8802C268.215 67.9885 266.029 66.45 263.621 65.3394C261.426 64.2592 258.688 63.7638 256.589 65.3394C256.589 65.3394 256.514 65.3394 256.541 65.2843C258.481 63.5712 261.268 63.7432 263.504 64.672Z" fill="#A6A6A6"/>
<path d="M252.496 81.8709C251.292 81.5338 250.721 79.8069 251.223 77.9631C251.726 76.1193 253.115 74.9359 254.319 75.2661C255.523 75.5964 256.094 77.3301 255.592 79.174C255.09 81.0178 253.728 82.1874 252.496 81.8709ZM254.202 75.6789C253.239 75.4175 252.138 76.4839 251.671 78.0594C251.203 79.6349 251.671 81.1348 252.62 81.3962C253.569 81.6577 254.684 80.5981 255.152 79.0226C255.62 77.4471 255.186 75.961 254.23 75.6789H254.202Z" fill="#37474F"/>
<path d="M259.927 83.9339C259.25 83.7979 258.629 83.461 258.145 82.9669C257.662 82.4729 257.339 81.8447 257.217 81.1643C257.096 80.4838 257.183 79.7826 257.466 79.152C257.749 78.5215 258.215 77.9909 258.805 77.6293C259.394 77.2677 260.078 77.092 260.768 77.125C261.459 77.158 262.123 77.3982 262.675 77.8144C263.227 78.2305 263.641 78.8032 263.862 79.4579C264.084 80.1125 264.103 80.8188 263.918 81.4846C263.711 82.3368 263.175 83.0726 262.427 83.5314C261.68 83.9902 260.781 84.1349 259.927 83.9339ZM261.627 77.7419C261.065 77.5379 260.454 77.508 259.875 77.6563C259.296 77.8046 258.775 78.1241 258.38 78.5731C257.986 79.022 257.735 79.5796 257.662 80.173C257.59 80.7664 257.697 81.3679 257.972 81.8992C258.246 82.4304 258.674 82.8665 259.2 83.1506C259.726 83.4348 260.325 83.5537 260.92 83.4918C261.515 83.43 262.077 83.1902 262.533 82.8039C262.989 82.4176 263.318 81.9027 263.477 81.3264C263.707 80.6056 263.64 79.8234 263.293 79.1513C262.947 78.4793 262.347 77.9724 261.627 77.7419Z" fill="#37474F"/>
<path d="M258.001 79.4898C256.508 78.4578 255.607 78.8018 255.6 78.8018L255.428 78.3753C255.469 78.3753 256.542 77.9281 258.262 79.1183L258.001 79.4898Z" fill="#37474F"/>
<path d="M263.779 81.1025L263.814 80.6484C264.116 80.6484 268.829 80.8892 269.572 81.0544C270.315 81.2195 271.877 82.7262 272.049 82.8982L271.76 83.2491C271.115 82.5642 270.364 81.9859 269.538 81.536C268.898 81.3777 266.318 81.3296 263.779 81.1025Z" fill="#37474F"/>
<path d="M266.689 82.8225C266.689 82.8225 269.503 79.5064 271.038 80.5453C272.572 81.5841 270.212 86.5515 268.251 87.0813C268.004 87.1653 267.743 87.1987 267.483 87.1795C267.223 87.1602 266.969 87.0887 266.737 86.9693C266.506 86.8498 266.3 86.6849 266.134 86.4842C265.967 86.2836 265.842 86.0514 265.768 85.8016L266.689 82.8225Z" fill="#FFC4C0"/>
<path d="M270.324 81.9492V82.0043C268.948 82.4171 268.129 83.5798 267.524 84.8113C267.613 84.6854 267.728 84.5804 267.862 84.5035C267.996 84.4265 268.145 84.3796 268.299 84.3659C268.452 84.3521 268.607 84.3719 268.753 84.4239C268.898 84.4758 269.03 84.5587 269.14 84.6668C269.175 84.6668 269.14 84.7494 269.099 84.7356C268.873 84.6394 268.623 84.6155 268.382 84.6673C268.142 84.719 267.924 84.8438 267.757 85.0246C267.481 85.3299 267.239 85.6644 267.035 86.0222C266.959 86.1323 266.753 86.0222 266.808 85.919C266.946 84.1921 268.494 81.9492 270.324 81.9492Z" fill="#263238"/>
<path d="M258.504 95.7916L260.279 101.929L269.01 95.5508L270.317 98.5436C270.317 98.5436 261.538 108.685 261.572 108.176L259.907 103.002L255.938 105.816L257.492 97.4634L258.504 95.7916Z" fill="#BA68C8"/>
<path d="M256.426 101.639C256.736 100.263 257.004 98.8874 257.376 97.5114C257.376 97.4632 257.472 97.4564 257.472 97.5114C257.561 98.8874 256.364 104.13 256.172 105.403C256.337 105.279 259.825 102.947 259.852 102.995C260.251 103.841 261.483 107.604 261.552 107.941C262.928 106.332 268.755 100.029 270.337 98.5434C270.379 98.5021 270.454 98.5434 270.413 98.6053C269.14 100.339 261.6 108.678 261.517 108.636C260.842 106.848 260.263 105.024 259.784 103.174C259.171 103.703 255.601 106.393 255.621 106.187C255.807 104.658 256.075 103.14 256.426 101.639Z" fill="#263238"/>
<path d="M221.413 84.9695C220.896 84.9436 220.382 84.8676 219.879 84.7425L219.521 84.6461L219.205 84.5498L218.984 84.481L215.771 83.3045C216.064 83.4148 216.362 83.5067 216.666 83.5797C216.922 83.6418 217.182 83.69 217.443 83.7242C217.684 83.7242 217.939 83.7861 218.2 83.7999C224.557 84.1645 230.866 77.6767 232.283 69.3519C233.377 62.9053 231.258 57.2362 227.316 54.8007C226.825 54.4974 226.304 54.2461 225.761 54.0508L228.981 55.2135C229.119 55.2617 229.249 55.3167 229.387 55.3786L229.731 55.53L229.889 55.6125L230.144 55.7433L230.288 55.8258C232.758 57.25 234.547 59.9194 235.324 63.2562C235.366 63.4282 235.4 63.6002 235.435 63.7722C235.86 65.9939 235.872 68.275 235.469 70.5009C234.079 78.8463 227.77 85.3135 221.413 84.9695Z" fill="#37474F"/>
<path d="M207.26 67.8983C205.816 76.3951 209.145 83.7223 214.911 85.8414L218.124 87.011C212.358 84.947 209.035 77.5647 210.473 69.0679C212.145 59.2639 219.548 51.6547 226.985 52.0743C227.591 52.1101 228.192 52.1999 228.781 52.3427C229.133 52.424 229.48 52.5274 229.82 52.6522L226.607 51.4895C225.696 51.1572 224.741 50.9624 223.772 50.9116C216.328 50.485 208.925 58.1012 207.26 67.8983Z" fill="#37474F"/>
<path d="M237.491 70.5969C238.943 62.0725 235.585 54.6903 229.792 52.6332L229.4 52.5025H229.29C229.132 52.4543 228.973 52.413 228.808 52.3786C228.519 52.3098 228.23 52.2479 227.935 52.2066C227.639 52.1653 227.329 52.1309 227.019 52.1103C219.562 51.6906 212.159 59.3068 210.507 69.1039C210.004 71.9177 210.064 74.8037 210.686 77.5938C210.774 77.9837 210.877 78.369 210.996 78.7497C211.113 79.1281 211.237 79.4927 211.381 79.8573C211.512 80.2135 211.661 80.5626 211.828 80.9031C211.904 81.0751 211.987 81.2402 212.076 81.4122C212.328 81.8872 212.609 82.3467 212.915 82.7882C213.115 83.0841 213.328 83.3661 213.548 83.6413C214.508 84.8565 215.719 85.8494 217.099 86.5516C217.197 86.6053 217.298 86.6535 217.401 86.6961L217.903 86.9162H217.945C218.354 87.0811 218.775 87.2145 219.204 87.3153C219.793 87.4552 220.394 87.5427 220.999 87.5767C228.416 88.017 235.833 80.4077 237.491 70.5969ZM221.412 84.9692C220.895 84.9433 220.381 84.8673 219.878 84.7421L219.52 84.6458L219.204 84.5495C218.586 84.3447 217.995 84.0675 217.443 83.7239C213.493 81.2953 211.374 75.6261 212.468 69.1796C213.886 60.8273 220.201 54.3394 226.559 54.7316C226.813 54.7316 227.068 54.7729 227.315 54.8073C227.575 54.8415 227.832 54.8897 228.086 54.9517C228.388 55.0257 228.687 55.1152 228.98 55.2201C229.118 55.2682 229.249 55.3233 229.386 55.3852L229.73 55.5365L229.888 55.6191L230.143 55.7498L230.287 55.8324C232.757 57.2565 234.546 59.926 235.324 63.2628C235.365 63.4348 235.399 63.6068 235.434 63.7788C235.859 66.0004 235.871 68.2816 235.468 70.5074C234.078 78.846 227.769 85.3132 221.412 84.9692Z" fill="#455A64"/>
<path opacity="0.4" d="M218.199 83.7997C217.938 83.7997 217.683 83.7584 217.442 83.724C213.493 81.2954 211.374 75.6263 212.468 69.1797C213.885 60.8274 220.201 54.3396 226.558 54.7317C226.813 54.7317 227.068 54.773 227.315 54.8074C231.257 57.2429 233.377 62.912 232.283 69.3586C230.865 77.6765 224.556 84.1644 218.199 83.7997Z" fill="white"/>
<g opacity="0.3">
<path d="M231.673 60.544L213.867 64.4725C214.284 63.4853 214.779 62.5329 215.346 61.6242L230.634 58.2461C231.055 58.9761 231.403 59.7458 231.673 60.544Z" fill="#EBEBEB"/>
<path d="M228.568 55.7265L218.406 57.9693C220.814 55.7884 223.683 54.5293 226.559 54.7082C226.814 54.7082 227.068 54.7495 227.316 54.7839C227.761 55.0595 228.18 55.375 228.568 55.7265Z" fill="#EBEBEB"/>
<path d="M232.194 62.3446L213.088 66.5621C213.225 66.108 213.384 65.6539 213.549 65.1861L231.891 61.1406C232.008 61.5465 232.111 61.9181 232.194 62.3446Z" fill="#EBEBEB"/>
<path d="M228.08 78.7109C227.633 79.2642 227.15 79.7882 226.636 80.2796L216.034 82.6188C215.685 82.3018 215.363 81.9566 215.07 81.5868L228.08 78.7109Z" fill="#EBEBEB"/>
<path d="M230.901 74.0187L213.068 77.954C212.517 76.3496 212.22 74.669 212.188 72.9729L232.401 68.5078C232.367 68.7761 232.325 69.0445 232.284 69.3197C232.008 70.9346 231.544 72.5117 230.901 74.0187Z" fill="#EBEBEB"/>
</g>
<path d="M306.47 58.6639C306.47 61.2934 305.74 63.8712 304.36 66.1098C302.981 68.3485 301.007 70.1599 298.658 71.3421C296.309 72.5244 293.678 73.0309 291.058 72.8052C288.438 72.5795 285.933 71.6305 283.821 70.064L276.865 71.8391L279.762 65.3581C278.744 63.4555 278.173 61.3459 278.093 59.1895C278.013 57.0332 278.425 54.887 279.299 52.9141C280.173 50.9411 281.485 49.1934 283.136 47.8038C284.787 46.4142 286.733 45.4192 288.826 44.8946C290.919 44.37 293.104 44.3295 295.215 44.7763C297.326 45.223 299.307 46.1452 301.009 47.4727C302.71 48.8002 304.086 50.4982 305.032 52.4374C305.978 54.3766 306.47 56.5061 306.47 58.6639Z" fill="white"/>
<path d="M306.47 58.665C306.601 66.8454 299.178 73.6841 291.038 72.9686C288.38 72.7676 285.831 71.8288 283.677 70.2578L283.883 70.2991L276.941 72.1292L276.336 72.2874L276.59 71.7164L279.459 65.2286V65.5175C277.899 62.5874 277.396 59.2094 278.034 55.9516C278.671 52.6938 280.412 49.7551 282.961 47.6295C292.284 39.9377 306.457 46.5975 306.457 58.6788L306.47 58.665ZM306.47 58.665C306.512 49.5972 297.636 42.6828 288.871 45.0908C280.258 47.2236 275.799 57.4266 280.051 65.2079L280.134 65.3524L280.065 65.4969L277.141 71.9572L276.79 71.5444L283.759 69.8244H283.876L283.966 69.8932C293.185 76.8764 306.415 70.2303 306.47 58.6926V58.665Z" fill="#263238"/>
<path d="M289.979 67.1121L283.615 60.6724L285.755 58.5603L289.47 62.3236L297.189 50.2148L299.721 51.8316L289.979 67.1121Z" fill="#BA68C8"/>
</g>
<defs>
<filter id="filter0_d_1260_5093" x="-4" y="0" width="352" height="352" filterUnits="userSpaceOnUse" color-interpolation-filters="sRGB">
<feFlood flood-opacity="0" result="BackgroundImageFix"/>
<feColorMatrix in="SourceAlpha" type="matrix" values="0 0 0 0 0 0 0 0 0 0 0 0 0 0 0 0 0 0 127 0" result="hardAlpha"/>
<feOffset dy="4"/>
<feGaussianBlur stdDeviation="2"/>
<feComposite in2="hardAlpha" operator="out"/>
<feColorMatrix type="matrix" values="0 0 0 0 0 0 0 0 0 0 0 0 0 0 0 0 0 0 0.25 0"/>
<feBlend mode="normal" in2="BackgroundImageFix" result="effect1_dropShadow_1260_5093"/>
<feBlend mode="normal" in="SourceGraphic" in2="effect1_dropShadow_1260_5093" result="shape"/>
</filter>
</defs>
</svg>
