<svg width="348" height="348" viewBox="0 0 348 348" fill="none" xmlns="http://www.w3.org/2000/svg">
<path d="M76.1485 119.287H67.0517C66.608 119.287 66.182 119.112 65.8656 118.801C65.5492 118.49 65.3678 118.067 65.3605 117.623V108.61C65.3605 106.953 64.9707 105.401 63.8293 104.678C63.5918 104.542 63.3247 104.466 63.0512 104.458C62.7778 104.449 62.5065 104.508 62.2611 104.629C62.0158 104.75 61.8039 104.93 61.644 105.152C61.4842 105.374 61.3814 105.631 61.3445 105.903C60.92 108.568 59.6741 113.983 56.1941 117.352C55.0326 118.652 54.3585 120.315 54.2871 122.057V138.12C54.2871 139.693 57.0711 140.967 60.4119 140.967H74.1927C74.827 140.967 75.4551 140.842 76.0412 140.599C76.6272 140.357 77.1597 140.001 77.6082 139.552C78.0567 139.104 78.4125 138.571 78.6553 137.985C78.898 137.399 79.0229 136.771 79.0229 136.137V134.049C79.0575 132.524 79.4586 131.029 80.1922 129.692C80.7058 128.705 80.9733 127.609 80.9717 126.497V124.11C80.9699 122.831 80.4611 121.605 79.557 120.701C78.6529 119.797 77.4271 119.288 76.1485 119.287Z" fill="#EBEBEB"/>
<path d="M52.4847 119.871H46.6035V139.77H52.4847V119.871Z" fill="#EBEBEB"/>
<path d="M265.92 177.387L271.008 163.418C272.901 164.108 274.634 165.176 276.102 166.557C277.57 167.938 278.743 169.602 279.548 171.45L265.92 177.387Z" fill="#F5F5F5"/>
<path d="M265.92 177.39L270.256 191.609C268.212 192.233 266.056 192.409 263.937 192.124C261.819 191.839 259.786 191.101 257.979 189.96C256.171 188.818 254.631 187.3 253.464 185.509C252.296 183.718 251.529 181.697 251.213 179.582C250.898 177.468 251.043 175.31 251.637 173.256C252.231 171.203 253.262 169.302 254.658 167.683C256.054 166.063 257.782 164.764 259.726 163.874C261.67 162.984 263.782 162.523 265.92 162.523C267.631 162.522 269.328 162.816 270.938 163.393L265.92 177.39Z" fill="#E0E0E0"/>
<path d="M265.92 177.39L279.575 171.516C280.4 173.431 280.812 175.498 280.785 177.583C280.758 179.668 280.292 181.724 279.419 183.617C278.545 185.51 277.282 187.199 275.713 188.572C274.144 189.945 272.304 190.973 270.312 191.588L265.92 177.39Z" fill="#EBEBEB"/>
<path d="M108.764 187.515C107.087 190.067 105.906 192.913 105.284 195.902L100.6 196.348V205.396L105.284 205.834C105.905 208.826 107.086 211.674 108.764 214.228L105.792 217.847L112.209 224.264L115.821 221.271C118.375 222.949 121.223 224.13 124.215 224.751L124.653 229.435H133.701L134.147 224.751C137.136 224.129 139.982 222.948 142.534 221.271L146.153 224.264L152.57 217.847L149.577 214.235C151.259 211.683 152.439 208.834 153.057 205.841L157.748 205.403V196.355L153.057 195.909C152.438 192.919 151.257 190.073 149.577 187.522L152.57 183.903L146.16 177.479L142.541 180.472C139.99 178.792 137.144 177.611 134.154 176.992L133.708 172.301H124.66L124.222 176.992C121.229 177.609 118.38 178.79 115.828 180.472L112.216 177.479L105.792 183.896L108.764 187.515ZM137.676 192.387C139.357 194.069 140.503 196.212 140.966 198.545C141.43 200.878 141.192 203.296 140.282 205.494C139.371 207.691 137.83 209.57 135.852 210.891C133.874 212.212 131.549 212.918 129.17 212.918C126.792 212.918 124.467 212.212 122.489 210.891C120.511 209.57 118.97 207.691 118.059 205.494C117.149 203.296 116.911 200.878 117.374 198.545C117.838 196.212 118.984 194.069 120.665 192.387C121.782 191.27 123.107 190.383 124.566 189.778C126.025 189.173 127.589 188.861 129.169 188.86C130.749 188.86 132.313 189.17 133.772 189.774C135.232 190.378 136.558 191.264 137.676 192.38V192.387Z" fill="#F0F0F0"/>
<path d="M96.0482 63.9392C93.3328 68.0823 91.4247 72.7013 90.4245 77.5529L82.8242 78.2489V92.9763L90.4315 93.6723C91.4211 98.539 93.3272 103.173 96.0482 107.328L91.1762 113.195L101.616 123.635L107.483 118.763C111.631 121.472 116.252 123.375 121.104 124.373L121.8 131.973H136.528L137.224 124.373C142.075 123.373 146.694 121.465 150.837 118.749L156.705 123.621L167.145 113.181L162.273 107.314C164.983 103.169 166.889 98.5505 167.889 93.7001L175.49 93.0041V78.2698L167.889 77.5738C166.887 72.7229 164.979 68.1044 162.266 63.9601L167.138 58.0928L156.698 47.6528L150.83 52.5248C146.687 49.8093 142.068 47.9013 137.217 46.9011L136.521 39.3008H121.8L121.104 46.9011C116.253 47.9039 111.635 49.8117 107.49 52.5248L101.623 47.6528L91.1832 58.0928L96.0482 63.9392ZM142.966 71.8318C145.685 74.5597 147.535 78.0322 148.282 81.8109C149.029 85.5895 148.639 89.5047 147.163 93.0621C145.686 96.6195 143.188 99.6595 139.985 101.798C136.781 103.937 133.016 105.078 129.164 105.078C125.312 105.078 121.547 103.937 118.343 101.798C115.14 99.6595 112.642 96.6195 111.165 93.0621C109.688 89.5047 109.299 85.5895 110.046 81.8109C110.793 78.0322 112.643 74.5597 115.362 71.8318C117.173 70.0147 119.324 68.5728 121.693 67.589C124.062 66.6052 126.602 66.0988 129.167 66.0988C131.733 66.0988 134.272 66.6052 136.642 67.589C139.011 68.5728 141.162 70.0147 142.973 71.8318H142.966Z" fill="#F5F5F5"/>
<path d="M201.631 112.668C199.62 115.725 198.203 119.135 197.455 122.718L191.846 123.247V134.112L197.455 134.641C198.202 138.222 199.619 141.629 201.631 144.684L198.047 149.013L205.703 156.669L210.032 153.085C213.086 155.099 216.494 156.516 220.075 157.261L220.632 162.863H231.497L232.026 157.254C235.61 156.509 239.02 155.092 242.076 153.078L246.405 156.662L254.061 149.006L250.477 144.677C252.478 141.62 253.883 138.212 254.618 134.634L260.228 134.105V123.247L254.618 122.718C253.867 119.136 252.451 115.727 250.442 112.668L254.026 108.346L246.37 100.69L242.041 104.274C238.985 102.259 235.575 100.842 231.991 100.098L231.462 94.4883H220.632L220.103 100.098C216.522 100.845 213.115 102.262 210.06 104.274L205.731 100.697L198.075 108.353L201.631 112.668ZM236.25 118.493C238.264 120.507 239.636 123.073 240.192 125.866C240.747 128.66 240.462 131.555 239.372 134.187C238.282 136.818 236.436 139.067 234.068 140.649C231.7 142.232 228.916 143.076 226.068 143.076C223.22 143.076 220.436 142.232 218.068 140.649C215.7 139.067 213.854 136.818 212.764 134.187C211.674 131.555 211.389 128.66 211.944 125.866C212.5 123.073 213.872 120.507 215.886 118.493C218.586 115.793 222.249 114.276 226.068 114.276C229.887 114.276 233.55 115.793 236.25 118.493Z" fill="#F0F0F0"/>
<path d="M69.7608 169.399C68.7547 170.956 68.0467 172.686 67.6728 174.501L64.8262 174.766V180.264L67.6728 180.535C68.0449 182.349 68.7531 184.077 69.7608 185.63L67.9443 187.823L71.8419 191.72L74.0412 189.904C75.5918 190.916 77.3207 191.625 79.1359 191.992L79.4004 194.838H84.9127L85.1842 191.992C86.9987 191.623 88.7273 190.914 90.2789 189.904L92.4713 191.72L96.3689 187.823L94.5523 185.63C95.5629 184.079 96.2713 182.35 96.6403 180.535L99.5287 180.264V174.766L96.6821 174.501C96.3144 172.684 95.6059 170.953 94.5941 169.399L96.4107 167.207L92.5131 163.309L90.3207 165.126C88.769 164.116 87.0405 163.407 85.2259 163.038L84.9545 160.191H79.4422L79.1777 163.038C77.3625 163.405 75.6336 164.114 74.083 165.126L71.8836 163.309L67.986 167.207L69.7608 169.399ZM87.3209 172.357C88.3415 173.379 89.0364 174.68 89.3177 176.096C89.599 177.512 89.4541 178.98 88.9014 180.313C88.3487 181.647 87.4129 182.787 86.2123 183.589C85.0118 184.391 83.6004 184.819 82.1566 184.819C80.7128 184.819 79.3014 184.391 78.1008 183.589C76.9003 182.787 75.9645 181.647 75.4118 180.313C74.859 178.98 74.7141 177.512 74.9955 176.096C75.2768 174.68 75.9717 173.379 76.9923 172.357C77.6703 171.679 78.4754 171.141 79.3615 170.774C80.2476 170.406 81.1974 170.217 82.1566 170.217C83.1158 170.217 84.0656 170.406 84.9517 170.774C85.8378 171.141 86.6429 171.679 87.3209 172.357Z" fill="#E0E0E0"/>
<path d="M266.011 86.8457C265.001 88.3977 264.293 90.1261 263.923 91.9404L261.076 92.2118V97.7172L263.923 97.9886C264.293 99.8029 265.001 101.531 266.011 103.083L264.187 105.283L268.085 109.18L270.284 107.357C271.836 108.367 273.565 109.075 275.379 109.445L275.65 112.291H281.184L281.455 109.452C283.269 109.082 284.998 108.374 286.55 107.364L288.749 109.187L292.647 105.29L290.823 103.09C291.833 101.538 292.541 99.8099 292.911 97.9956L295.751 97.7241V92.2188L292.904 91.9473C292.534 90.133 291.826 88.4046 290.816 86.8526L292.64 84.6533L288.742 80.7557L286.543 82.5792C284.991 81.5694 283.262 80.861 281.448 80.4912L281.177 77.6445H275.671L275.4 80.4912C273.586 80.861 271.857 81.5694 270.305 82.5792L268.085 80.7348L264.187 84.6324L266.011 86.8457ZM283.571 89.7828C284.593 90.8048 285.289 92.107 285.571 93.5246C285.853 94.9422 285.708 96.4116 285.155 97.7469C284.602 99.0822 283.665 100.224 282.463 101.026C281.261 101.829 279.848 102.258 278.403 102.258C276.958 102.258 275.545 101.829 274.343 101.026C273.141 100.224 272.205 99.0822 271.651 97.7469C271.098 96.4116 270.954 94.9422 271.235 93.5246C271.517 92.107 272.213 90.8048 273.235 89.7828C274.608 88.4155 276.466 87.6478 278.403 87.6478C280.34 87.6478 282.199 88.4155 283.571 89.7828Z" fill="#E0E0E0"/>
<path d="M273.305 135.818C272.68 136.771 272.241 137.834 272.011 138.95L270.264 139.11V142.492L272.011 142.659C272.241 143.774 272.68 144.834 273.305 145.785L272.185 147.135L274.579 149.522L275.922 148.408C276.877 149.031 277.939 149.47 279.054 149.703L279.214 151.443H282.576L282.743 149.703C283.856 149.47 284.916 149.031 285.868 148.408L287.218 149.522L289.606 147.135L288.492 145.785C289.114 144.832 289.553 143.773 289.786 142.659L291.526 142.492V139.11L289.78 138.95C289.546 137.834 289.107 136.772 288.485 135.818L289.599 134.475L287.211 132.08L285.861 133.201C284.91 132.576 283.85 132.137 282.736 131.906L282.576 130.152H279.193L279.033 131.899C277.919 132.128 276.858 132.568 275.908 133.194L274.558 132.073L272.164 134.468L273.305 135.818ZM284.079 137.634C284.706 138.261 285.133 139.06 285.305 139.929C285.478 140.799 285.389 141.7 285.05 142.519C284.71 143.338 284.136 144.038 283.399 144.53C282.662 145.022 281.795 145.285 280.909 145.285C280.023 145.285 279.156 145.022 278.419 144.53C277.682 144.038 277.107 143.338 276.768 142.519C276.429 141.7 276.34 140.799 276.513 139.929C276.685 139.06 277.112 138.261 277.739 137.634C278.58 136.795 279.72 136.324 280.909 136.324C282.098 136.324 283.238 136.795 284.079 137.634Z" fill="#F0F0F0"/>
<path d="M61.1436 221.195H50.4043V249.439H61.1436V221.195Z" fill="#E0E0E0"/>
<path d="M74.5283 230.172H63.7891V249.437H74.5283V230.172Z" fill="#E0E0E0"/>
<path d="M87.5283 239.805H76.7891V249.437H87.5283V239.805Z" fill="#E0E0E0"/>
<path d="M308.968 229.818H183.166C182.085 229.816 181.049 229.386 180.285 228.621C179.52 227.857 179.09 226.821 179.088 225.739V42.4965C179.09 41.4154 179.52 40.3791 180.285 39.6146C181.049 38.8501 182.085 38.4198 183.166 38.418H308.968C310.05 38.4198 311.086 38.8501 311.85 39.6146C312.615 40.3791 313.045 41.4154 313.047 42.4965V225.739C313.045 226.821 312.615 227.857 311.85 228.621C311.086 229.386 310.05 229.816 308.968 229.818ZM183.166 38.592C182.131 38.5938 181.139 39.0058 180.408 39.7376C179.676 40.4695 179.264 41.4615 179.262 42.4965V225.739C179.264 226.774 179.676 227.766 180.408 228.498C181.139 229.23 182.131 229.642 183.166 229.644H308.968C310.004 229.644 310.997 229.233 311.729 228.5C312.462 227.768 312.873 226.775 312.873 225.739V42.4965C312.873 41.461 312.462 40.4678 311.729 39.7356C310.997 39.0033 310.004 38.592 308.968 38.592H183.166Z" fill="#E0E0E0"/>
<path d="M163.9 229.818H38.1051C37.0227 229.818 35.9846 229.388 35.2186 228.624C34.4526 227.859 34.0214 226.822 34.0195 225.739V42.4965C34.0214 41.4142 34.4526 40.3768 35.2186 39.6121C35.9846 38.8474 37.0227 38.418 38.1051 38.418H163.9C164.982 38.418 166.019 38.8477 166.784 39.6126C167.549 40.3774 167.979 41.4148 167.979 42.4965V225.739C167.979 226.821 167.549 227.858 166.784 228.623C166.019 229.388 164.982 229.818 163.9 229.818ZM38.1051 38.592C37.0689 38.592 36.075 39.0031 35.3416 39.7352C34.6083 40.4672 34.1954 41.4603 34.1935 42.4965V225.739C34.1899 226.255 34.2883 226.767 34.4832 227.245C34.6782 227.723 34.9657 228.157 35.3293 228.523C35.6929 228.889 36.1253 229.18 36.6017 229.378C37.0781 229.577 37.589 229.679 38.1051 229.679H163.9C164.413 229.679 164.921 229.578 165.394 229.382C165.868 229.185 166.298 228.898 166.661 228.535C167.024 228.173 167.311 227.742 167.507 227.268C167.704 226.795 167.805 226.287 167.805 225.774V42.4965C167.805 41.9838 167.704 41.476 167.507 41.0023C167.311 40.5286 167.024 40.0982 166.661 39.7356C166.298 39.373 165.868 39.0854 165.394 38.8892C164.921 38.693 164.413 38.592 163.9 38.592H38.1051Z" fill="#E0E0E0"/>
<path d="M348 272.324H0V272.498H348V272.324Z" fill="#E0E0E0"/>
<path d="M56.793 286.555H45.6152V286.729H56.793V286.555Z" fill="#E0E0E0"/>
<path d="M165.474 284.668H128.217V284.842H165.474V284.668Z" fill="#E0E0E0"/>
<path d="M82.7202 293.023H57.4902V293.197H82.7202V293.023Z" fill="#E0E0E0"/>
<path d="M303.045 284.578H272.984V284.752H303.045V284.578Z" fill="#E0E0E0"/>
<path d="M313.652 284.578H309.246V284.752H313.652V284.578Z" fill="#E0E0E0"/>
<path d="M267.244 288.914H229.736V289.088H267.244V288.914Z" fill="#E0E0E0"/>
<path d="M316.283 323.87C316.283 325.7 252.578 327.19 174 327.19C95.4217 327.19 31.7168 325.728 31.7168 323.87C31.7168 322.012 95.4217 320.543 174 320.543C252.578 320.543 316.283 322.032 316.283 323.87Z" fill="#F5F5F5"/>
<path d="M262.155 302.155C261.432 301.12 260.546 300.211 259.531 299.461C259.116 299.122 258.623 298.892 258.096 298.795C257.569 298.698 257.026 298.735 256.517 298.904C255.25 299.42 254.673 300.992 254.847 302.329C255.075 303.818 255.619 305.242 256.441 306.505C259.726 311.321 262.767 315.727 267.841 319.304C267.841 313.346 265.175 307.256 262.155 302.155Z" fill="#BA68C8"/>
<path d="M278.894 302.99C277.759 302.363 275.644 303.247 274.607 304.02C272.702 305.451 271.146 307.296 270.055 309.414C268.461 312.261 268.28 316.249 268.078 318.789C272.094 315.525 276.187 312.184 278.943 307.799C279.468 307.061 279.813 306.21 279.952 305.314C280.013 304.867 279.946 304.411 279.759 303.999C279.572 303.588 279.272 303.238 278.894 302.99Z" fill="#BA68C8"/>
<path d="M268.439 321.804C268.4 321.804 268.362 321.789 268.331 321.764C268.301 321.739 268.28 321.704 268.272 321.665C267.325 317.271 265.628 313.073 263.254 309.255C263.23 309.216 263.223 309.168 263.233 309.123C263.243 309.077 263.271 309.038 263.31 309.012C263.351 308.989 263.399 308.982 263.444 308.994C263.49 309.006 263.529 309.035 263.553 309.075C265.946 312.929 267.658 317.167 268.613 321.603C268.622 321.648 268.613 321.694 268.588 321.733C268.564 321.772 268.525 321.8 268.481 321.811L268.439 321.804Z" fill="#263238"/>
<path d="M267.911 319.347H267.855C267.812 319.331 267.776 319.299 267.757 319.257C267.737 319.215 267.735 319.167 267.751 319.124C268.823 316.167 270.4 313.419 272.414 311.002C272.428 310.984 272.446 310.969 272.467 310.958C272.487 310.947 272.509 310.941 272.532 310.938C272.555 310.936 272.578 310.938 272.6 310.945C272.622 310.952 272.643 310.963 272.661 310.977C272.679 310.992 272.693 311.01 272.704 311.03C272.715 311.051 272.722 311.073 272.724 311.096C272.726 311.119 272.724 311.142 272.718 311.164C272.711 311.186 272.7 311.207 272.685 311.224C270.695 313.609 269.136 316.322 268.078 319.242C268.064 319.275 268.04 319.302 268.01 319.32C267.981 319.339 267.946 319.348 267.911 319.347Z" fill="#263238"/>
<path d="M295.989 212.447L280.524 211.277L286.454 218.237L263.889 236.131L226.096 236.048L167.806 267.793H63.3089L24.1172 322.115H54.4837L76.0109 292.626H167.806L226.034 261.786L272.833 261.89L303.158 237.83L308.872 244.532L310.159 229.074L311.454 213.616L295.989 212.447Z" fill="#BA68C8"/>
<path d="M228.88 67.0687C234.883 62.0174 235.655 53.0562 230.603 47.0533C225.552 41.0504 216.591 40.279 210.588 45.3303C204.585 50.3817 203.814 59.3429 208.865 65.3457C213.916 71.3486 222.877 72.12 228.88 67.0687Z" fill="#BA68C8"/>
<path d="M212.601 64.7344L208.954 65.0267L208.32 69.5925L212.726 68.5067L212.601 64.7344Z" fill="#BA68C8"/>
<path d="M235.514 53.6942C235.472 53.6943 235.431 53.6787 235.4 53.6503C235.369 53.6219 235.35 53.5829 235.347 53.5411C235.079 51.2694 234.257 49.0982 232.953 47.2184C231.65 45.3386 229.905 43.8077 227.871 42.76C227.831 42.7378 227.8 42.701 227.786 42.6569C227.772 42.6129 227.775 42.5651 227.795 42.5234C227.816 42.4833 227.851 42.4529 227.894 42.4386C227.937 42.4243 227.984 42.4273 228.025 42.4468C230.109 43.5216 231.898 45.0924 233.233 47.0209C234.568 48.9494 235.409 51.1766 235.681 53.5063C235.684 53.5288 235.682 53.5516 235.676 53.5734C235.669 53.5952 235.659 53.6156 235.644 53.6331C235.63 53.6507 235.612 53.6652 235.592 53.6757C235.572 53.6862 235.55 53.6925 235.527 53.6942H235.514Z" fill="#BA68C8"/>
<path d="M235.603 57.9127H235.568C235.546 57.9078 235.525 57.8984 235.506 57.8852C235.487 57.8721 235.471 57.8553 235.459 57.8359C235.446 57.8164 235.438 57.7948 235.434 57.7721C235.43 57.7495 235.431 57.7263 235.436 57.7039C235.593 57.0398 235.612 56.3503 235.492 55.6785C235.484 55.6333 235.494 55.5867 235.52 55.5489C235.546 55.5111 235.586 55.4852 235.631 55.4767C235.653 55.4717 235.677 55.4713 235.699 55.4757C235.722 55.4801 235.743 55.4891 235.762 55.5022C235.781 55.5153 235.797 55.5321 235.809 55.5517C235.822 55.5712 235.829 55.5931 235.833 55.6159C235.964 56.3335 235.945 57.0705 235.777 57.7805C235.766 57.8184 235.744 57.8519 235.712 57.8758C235.681 57.8997 235.643 57.9126 235.603 57.9127Z" fill="#BA68C8"/>
<path d="M214.439 52.7128C214.007 53.3746 213.703 54.111 213.541 54.8843L212.33 55.0026V57.3551L213.541 57.4665C213.703 58.242 214.007 58.9807 214.439 59.645L213.673 60.5498L215.337 62.2132L216.269 61.4406C216.934 61.8722 217.672 62.1767 218.448 62.3385L218.559 63.5495H220.912L221.03 62.3385C221.803 62.1766 222.54 61.8722 223.202 61.4406L224.113 62.241L225.798 60.5498L225.018 59.645C225.455 58.9837 225.76 58.2439 225.916 57.4665L227.134 57.3551V54.9818L225.916 54.8634C225.76 54.0882 225.455 53.3507 225.018 52.6919L225.798 51.7523L224.113 50.1098L223.174 50.8823C222.512 50.4508 221.776 50.1463 221.002 49.9845L220.884 48.7734H218.545L218.434 49.9845C217.658 50.1463 216.92 50.4507 216.256 50.8823L215.33 50.1098L213.673 51.7732L214.439 52.7128ZM221.984 53.9238C222.428 54.3689 222.73 54.9357 222.852 55.5525C222.974 56.1693 222.911 56.8085 222.67 57.3893C222.429 57.9701 222.021 58.4665 221.498 58.8156C220.976 59.1648 220.361 59.3512 219.732 59.3512C219.103 59.3512 218.489 59.1648 217.966 58.8156C217.443 58.4665 217.035 57.9701 216.794 57.3893C216.553 56.8085 216.49 56.1693 216.612 55.5525C216.734 54.9357 217.036 54.3689 217.48 53.9238C217.776 53.6277 218.127 53.3928 218.513 53.2326C218.9 53.0723 219.314 52.9898 219.732 52.9898C220.15 52.9898 220.564 53.0723 220.951 53.2326C221.337 53.3928 221.688 53.6277 221.984 53.9238Z" fill="white"/>
<path d="M125.377 140.899C125.377 140.899 129.108 135.331 133.792 136.486C138.476 137.641 138.754 145.283 138.754 145.283L136.158 144.386C136.158 144.386 137.007 138.852 133.673 138.066C130.339 137.279 127.221 141.734 127.221 141.734L125.725 140.94" fill="#263238"/>
<path d="M101.004 167.437L102.424 163.748L112.711 137.07L152.341 149.042L144.107 181.078L101.004 167.437Z" fill="#BA68C8"/>
<path d="M134.433 128.693C133.828 128.895 130.431 132.974 129.749 134.136C129.067 135.298 128.991 136.057 129.513 136.454C129.893 136.789 130.326 137.059 130.793 137.254C130.953 137.254 130.23 138.458 131.148 139.057C132.067 139.655 132.54 139.537 132.54 139.537C132.54 139.537 132.304 141.298 133.501 141.778C134.698 142.258 135.22 141.695 135.422 141.778C135.624 141.862 136.702 139.815 136.702 139.815L138.094 141.973C138.601 141.42 139.032 140.802 139.375 140.136C140.015 138.932 139.974 135.535 139.974 135.535L139.333 132.494L140.419 128.13C140.419 128.13 135.136 127.434 135.095 127.538C135.053 127.642 134.433 128.693 134.433 128.693Z" fill="#E9B376"/>
<path opacity="0.2" d="M145.36 176.208L102.66 163.145L101.004 167.439L144.107 181.08L145.36 176.208Z" fill="black"/>
<path d="M238.771 132.994C238.771 132.994 238.917 133.468 238.353 134.386C237.79 135.305 236.565 134.665 236.572 134.825C236.393 135.297 236.141 135.738 235.827 136.133C235.451 136.669 234.685 136.621 233.495 135.994C232.305 135.368 228.087 132.138 227.865 131.547C227.865 131.547 226.8 130.955 226.674 130.92C226.549 130.886 227.05 125.582 227.05 125.582L231.449 126.473L234.463 125.707C234.463 125.707 237.859 125.519 239.084 126.111C239.3 126.208 239.495 126.313 239.676 126.417C239.828 126.504 239.956 126.628 240.047 126.778C240.139 126.927 240.191 127.098 240.198 127.273C240.206 127.448 240.169 127.623 240.091 127.78C240.013 127.937 239.896 128.071 239.752 128.171L238.875 128.798C238.875 128.798 239.738 129.264 240.344 129.626C240.539 129.738 240.698 129.906 240.799 130.108C240.9 130.309 240.941 130.536 240.915 130.76C240.909 130.854 240.887 130.945 240.852 131.032C240.791 131.183 240.676 131.305 240.529 131.375C240.382 131.444 240.214 131.456 240.058 131.408C240.087 131.713 240.008 132.02 239.835 132.274C239.663 132.528 239.407 132.714 239.112 132.8C238.729 132.939 238.771 132.994 238.771 132.994Z" fill="#E9B376"/>
<path opacity="0.1" d="M236.516 130.612C236.32 130.612 236.127 130.567 235.952 130.48C235.839 130.42 235.74 130.337 235.66 130.238C235.58 130.139 235.521 130.025 235.486 129.902C235.332 129.42 235.313 128.905 235.43 128.413C235.132 128.73 234.795 129.008 234.428 129.241C234.145 129.442 233.822 129.58 233.481 129.645C233.3 129.679 233.113 129.675 232.933 129.633C232.754 129.591 232.585 129.512 232.437 129.401C232.417 129.388 232.4 129.37 232.387 129.35C232.374 129.33 232.365 129.307 232.361 129.283C232.358 129.259 232.359 129.235 232.365 129.212C232.371 129.188 232.382 129.167 232.397 129.148C232.412 129.129 232.431 129.113 232.452 129.102C232.474 129.091 232.497 129.084 232.521 129.083C232.545 129.081 232.569 129.084 232.592 129.092C232.615 129.1 232.635 129.113 232.653 129.13C232.762 129.211 232.888 129.267 233.021 129.296C233.154 129.325 233.292 129.325 233.425 129.297C233.72 129.243 233.998 129.124 234.24 128.949C234.786 128.607 235.259 128.159 235.632 127.633C235.646 127.547 235.681 127.465 235.735 127.396C235.788 127.327 235.858 127.272 235.938 127.236C235.972 127.227 236.008 127.229 236.041 127.24C236.075 127.251 236.104 127.271 236.126 127.299C236.144 127.328 236.154 127.362 236.154 127.397C236.154 127.431 236.144 127.465 236.126 127.494C236.063 127.591 236.008 127.689 235.938 127.779C235.698 128.42 235.657 129.119 235.82 129.784C235.863 129.943 235.965 130.08 236.105 130.167C236.227 130.232 236.363 130.266 236.502 130.266C236.64 130.266 236.776 130.232 236.898 130.167C237.288 129.902 237.671 129.589 238.123 129.234L239.098 128.461C239.135 128.433 239.181 128.42 239.228 128.426C239.274 128.432 239.316 128.456 239.345 128.493C239.373 128.53 239.386 128.576 239.38 128.623C239.374 128.669 239.35 128.711 239.314 128.74C238.952 129.011 238.618 129.269 238.339 129.505C237.887 129.867 237.49 130.201 237.086 130.452C236.917 130.563 236.718 130.619 236.516 130.612Z" fill="#263238"/>
<path opacity="0.1" d="M234.009 135.761C233.808 135.741 233.622 135.647 233.487 135.496C233.196 135.21 232.937 134.893 232.715 134.55C232.592 134.403 232.506 134.23 232.464 134.043C232.421 133.857 232.424 133.663 232.471 133.478C232.531 133.334 232.626 133.206 232.748 133.108C232.869 133.01 233.013 132.943 233.167 132.914C233.443 132.866 233.725 132.878 233.995 132.949C234.274 133.004 234.548 133.079 234.817 133.172C234.739 133.066 234.669 132.954 234.608 132.838C234.485 132.658 234.424 132.444 234.435 132.226C234.445 132.009 234.525 131.801 234.664 131.634C234.817 131.531 234.994 131.469 235.177 131.453C235.361 131.437 235.546 131.468 235.715 131.543C236.745 131.842 237.739 132.253 238.679 132.768C238.719 132.792 238.748 132.829 238.761 132.873C238.774 132.917 238.77 132.964 238.749 133.005C238.738 133.025 238.723 133.043 238.706 133.057C238.688 133.072 238.667 133.082 238.645 133.089C238.623 133.095 238.6 133.097 238.577 133.095C238.555 133.092 238.533 133.085 238.512 133.074C237.593 132.573 236.622 132.171 235.617 131.877C235.387 131.808 235.067 131.738 234.921 131.877C234.775 132.016 234.803 132.385 234.921 132.657C235.112 133.012 235.384 133.317 235.715 133.548L236.076 133.756C236.113 133.782 236.14 133.82 236.15 133.864C236.16 133.908 236.154 133.954 236.132 133.993C236.111 134.032 236.077 134.06 236.035 134.073C235.993 134.086 235.948 134.082 235.909 134.063C235.778 134.002 235.652 133.93 235.534 133.847C235.032 133.575 234.492 133.38 233.933 133.269C233.704 133.219 233.466 133.219 233.237 133.269C233.139 133.285 233.047 133.324 232.968 133.384C232.889 133.443 232.826 133.521 232.784 133.61C232.759 133.745 232.764 133.885 232.8 134.017C232.837 134.15 232.902 134.273 232.993 134.376C233.194 134.694 233.428 134.99 233.689 135.26C233.821 135.385 233.919 135.441 233.988 135.427C234.011 135.422 234.034 135.422 234.057 135.426C234.079 135.43 234.101 135.439 234.12 135.452C234.139 135.465 234.155 135.482 234.167 135.502C234.179 135.521 234.187 135.543 234.19 135.566C234.198 135.611 234.188 135.658 234.162 135.696C234.136 135.734 234.096 135.759 234.051 135.768L234.009 135.761Z" fill="#263238"/>
<path opacity="0.1" d="M235.352 131.815C235.326 131.815 235.3 131.809 235.276 131.798C235.252 131.788 235.23 131.772 235.213 131.752C235.037 131.523 234.931 131.247 234.907 130.959C234.888 130.749 234.931 130.538 235.032 130.353C235.089 130.252 235.169 130.166 235.266 130.102C235.363 130.038 235.473 129.997 235.589 129.985C235.635 129.982 235.679 129.998 235.714 130.028C235.749 130.057 235.771 130.099 235.777 130.145C235.779 130.19 235.763 130.235 235.734 130.27C235.704 130.305 235.662 130.327 235.617 130.333C235.557 130.339 235.499 130.361 235.45 130.395C235.4 130.428 235.359 130.474 235.331 130.527C235.267 130.654 235.241 130.797 235.255 130.938C235.27 131.157 235.353 131.366 235.491 131.537C235.522 131.57 235.538 131.613 235.538 131.658C235.538 131.703 235.522 131.747 235.491 131.78C235.451 131.808 235.401 131.82 235.352 131.815Z" fill="#263238"/>
<path opacity="0.1" d="M240.008 131.547C239.979 131.554 239.948 131.554 239.918 131.547C239.112 131.018 238.254 130.575 237.357 130.224C237.315 130.207 237.281 130.174 237.263 130.133C237.244 130.091 237.243 130.044 237.259 130.001C237.267 129.98 237.279 129.96 237.294 129.944C237.31 129.927 237.329 129.914 237.35 129.905C237.37 129.896 237.393 129.891 237.416 129.891C237.438 129.891 237.461 129.895 237.482 129.904C238.4 130.259 239.278 130.711 240.099 131.254C240.119 131.266 240.136 131.281 240.149 131.299C240.163 131.317 240.173 131.338 240.178 131.361C240.183 131.383 240.184 131.406 240.18 131.428C240.176 131.451 240.167 131.472 240.155 131.491C240.136 131.511 240.114 131.526 240.088 131.536C240.063 131.546 240.035 131.549 240.008 131.547Z" fill="#263238"/>
<path d="M133.021 222.566L126.43 236.939L132.457 240.238L141.422 225.719L133.021 222.566Z" fill="#E9B376"/>
<path d="M127.766 236.231C128.163 237.407 129.965 238.243 131.079 238.055L131.719 236.934C132.38 236.05 132.965 235.786 133.926 236.475C134.399 236.809 134.698 237.762 134.622 238.904C134.505 239.981 134.633 241.071 134.997 242.092C134.997 242.092 138.352 246.859 139.73 248.258C140.551 249.086 141.616 250.256 141.756 251.689C141.795 252.154 141.779 252.621 141.707 253.081C141.597 253.504 141.433 253.911 141.22 254.292L129.583 247.987C129.235 247.383 128.785 246.844 128.253 246.393C127.977 246.265 127.673 246.209 127.369 246.228C127.065 246.247 126.771 246.342 126.513 246.504L122.268 244.242L122.964 242.53C123.145 242.078 123.346 241.556 123.562 241.006C124.488 238.646 126.193 236.134 126.458 235.493C126.903 234.303 127.766 236.231 127.766 236.231Z" fill="#263238"/>
<path d="M136.862 244.553C136.848 244.515 136.822 244.483 136.788 244.461C136.754 244.44 136.714 244.431 136.674 244.434C136.295 244.457 135.929 244.582 135.616 244.796C135.449 244.915 135.616 245.2 135.79 245.082C136.066 244.893 136.388 244.782 136.723 244.762C136.747 244.761 136.771 244.755 136.793 244.743C136.814 244.731 136.833 244.714 136.847 244.693C136.86 244.673 136.869 244.649 136.871 244.625C136.874 244.6 136.871 244.576 136.862 244.553Z" fill="#BA68C8"/>
<path d="M136.229 243.6C136.215 243.562 136.189 243.53 136.155 243.508C136.121 243.487 136.081 243.477 136.041 243.481C135.662 243.508 135.296 243.635 134.983 243.85C134.816 243.962 134.983 244.254 135.157 244.136C135.434 243.947 135.756 243.835 136.09 243.808C136.113 243.808 136.137 243.801 136.158 243.79C136.178 243.778 136.196 243.762 136.21 243.742C136.223 243.723 136.232 243.7 136.235 243.677C136.239 243.653 136.237 243.629 136.229 243.607V243.6Z" fill="#BA68C8"/>
<path d="M135.547 242.626C135.53 242.59 135.504 242.56 135.471 242.539C135.437 242.518 135.398 242.507 135.359 242.508C134.987 242.547 134.631 242.684 134.329 242.905C134.162 243.016 134.329 243.308 134.503 243.19C134.779 243.001 135.101 242.89 135.435 242.87C135.459 242.868 135.483 242.86 135.504 242.848C135.524 242.836 135.542 242.819 135.556 242.799C135.569 242.779 135.578 242.756 135.581 242.732C135.584 242.708 135.582 242.684 135.575 242.661L135.547 242.626Z" fill="#BA68C8"/>
<path opacity="0.2" d="M141.748 252.434C141.748 252.642 141.748 252.865 141.692 253.095C141.577 253.517 141.412 253.924 141.198 254.306L129.561 248C129.213 247.396 128.763 246.857 128.232 246.406C127.955 246.279 127.651 246.222 127.348 246.242C127.044 246.261 126.75 246.356 126.492 246.518L122.246 244.256L122.942 242.544L123.04 242.293L141.748 252.434Z" fill="white"/>
<path d="M135.072 242.94L135.204 242.633C135.381 242.199 135.592 241.78 135.838 241.381C136.1 240.959 136.47 240.616 136.91 240.385C137.026 240.313 137.158 240.273 137.295 240.266C137.431 240.26 137.567 240.289 137.689 240.35C137.807 240.439 137.896 240.56 137.947 240.698C137.997 240.836 138.007 240.986 137.975 241.13C137.933 241.367 137.845 241.593 137.715 241.795C137.584 241.997 137.415 242.171 137.216 242.306C136.64 242.585 136.025 242.778 135.392 242.877L135.072 242.94ZM137.369 240.615C137.262 240.619 137.157 240.647 137.063 240.698C136.68 240.901 136.359 241.201 136.13 241.568C135.951 241.856 135.792 242.156 135.657 242.466C136.141 242.391 136.611 242.241 137.049 242.021C137.209 241.913 137.346 241.774 137.453 241.613C137.559 241.452 137.632 241.271 137.668 241.081C137.668 240.928 137.668 240.726 137.543 240.65C137.491 240.617 137.429 240.604 137.369 240.615Z" fill="#BA68C8"/>
<path d="M135.455 243.024L135.205 242.815C134.696 242.423 134.252 241.953 133.889 241.423C133.779 241.21 133.712 240.977 133.694 240.738C133.676 240.499 133.707 240.258 133.785 240.031C133.828 239.891 133.909 239.766 134.02 239.67C134.131 239.574 134.266 239.511 134.411 239.488C134.552 239.492 134.689 239.53 134.811 239.601C134.933 239.671 135.035 239.772 135.107 239.892C135.379 240.307 135.536 240.788 135.56 241.284C135.586 241.748 135.572 242.214 135.518 242.676L135.455 243.024ZM134.439 239.843C134.293 239.843 134.175 240.017 134.126 240.163C134.062 240.346 134.037 240.54 134.053 240.733C134.069 240.926 134.124 241.114 134.216 241.284C134.481 241.681 134.808 242.034 135.184 242.328C135.212 241.99 135.212 241.65 135.184 241.312C135.161 240.88 135.024 240.462 134.787 240.101C134.724 240.003 134.592 239.843 134.439 239.843Z" fill="#BA68C8"/>
<path d="M197.01 188.742L190.426 203.115L196.446 206.414L205.411 191.895L197.01 188.742Z" fill="#E9B376"/>
<path d="M191.756 202.407C192.16 203.583 193.956 204.418 195.069 204.23L195.71 203.11C196.371 202.226 196.962 201.961 197.916 202.65C198.389 202.984 198.688 203.938 198.612 205.079C198.494 206.154 198.623 207.242 198.988 208.26C198.988 208.26 202.349 213.035 203.72 214.434C204.542 215.262 205.607 216.431 205.746 217.865C205.784 218.329 205.77 218.796 205.704 219.257C205.586 219.678 205.421 220.085 205.21 220.468L193.573 214.162C193.225 213.558 192.775 213.019 192.243 212.568C191.967 212.441 191.663 212.384 191.359 212.404C191.055 212.423 190.761 212.518 190.503 212.68L186.258 210.418L186.954 208.706C187.135 208.253 187.337 207.731 187.552 207.181C188.478 204.815 190.183 202.309 190.455 201.669C190.893 200.451 191.756 202.407 191.756 202.407Z" fill="#263238"/>
<path d="M200.852 210.724C200.837 210.688 200.812 210.658 200.78 210.637C200.747 210.616 200.71 210.605 200.671 210.605C200.292 210.63 199.926 210.757 199.613 210.974C199.439 211.093 199.613 211.378 199.78 211.26C200.058 211.073 200.379 210.962 200.713 210.94C200.738 210.939 200.762 210.932 200.783 210.92C200.805 210.908 200.824 210.892 200.838 210.871C200.852 210.851 200.861 210.828 200.865 210.804C200.869 210.779 200.867 210.754 200.859 210.731L200.852 210.724Z" fill="#BA68C8"/>
<path d="M200.219 209.756C200.205 209.718 200.18 209.686 200.145 209.665C200.111 209.643 200.071 209.634 200.031 209.638C199.653 209.666 199.289 209.79 198.973 210C198.806 210.118 198.973 210.41 199.147 210.292C199.423 210.101 199.745 209.988 200.08 209.965C200.104 209.964 200.127 209.957 200.148 209.946C200.169 209.934 200.187 209.918 200.2 209.899C200.214 209.879 200.222 209.857 200.226 209.833C200.229 209.809 200.227 209.785 200.219 209.763V209.756Z" fill="#BA68C8"/>
<path d="M199.538 208.802C199.522 208.766 199.496 208.735 199.462 208.714C199.428 208.692 199.389 208.682 199.35 208.684C198.971 208.711 198.606 208.838 198.292 209.053C198.125 209.164 198.292 209.456 198.466 209.338C198.742 209.149 199.064 209.038 199.398 209.018C199.422 209.016 199.446 209.009 199.466 208.996C199.487 208.984 199.505 208.967 199.518 208.947C199.532 208.927 199.54 208.904 199.544 208.88C199.547 208.856 199.545 208.832 199.538 208.809V208.802Z" fill="#BA68C8"/>
<path opacity="0.2" d="M205.738 218.606C205.734 218.839 205.715 219.071 205.683 219.302C205.573 219.726 205.407 220.133 205.188 220.513L193.551 214.207C193.204 213.605 192.757 213.066 192.229 212.613C191.953 212.485 191.649 212.428 191.345 212.448C191.041 212.467 190.747 212.562 190.489 212.725L186.236 210.463L186.932 208.751L187.037 208.5L205.738 218.606Z" fill="white"/>
<path d="M199.057 209.113L199.189 208.806C199.366 208.369 199.58 207.948 199.829 207.547C200.089 207.127 200.457 206.786 200.894 206.558C201.013 206.492 201.147 206.457 201.284 206.457C201.42 206.457 201.554 206.492 201.674 206.558C201.792 206.647 201.882 206.767 201.932 206.906C201.983 207.044 201.992 207.194 201.959 207.338C201.918 207.575 201.829 207.801 201.699 208.003C201.569 208.205 201.399 208.379 201.2 208.514C200.628 208.797 200.015 208.99 199.384 209.085L199.057 209.113ZM201.353 206.781C201.246 206.787 201.141 206.818 201.047 206.872C200.663 207.072 200.341 207.372 200.115 207.742C199.935 208.029 199.777 208.329 199.641 208.639C200.113 208.557 200.57 208.407 200.998 208.194C201.159 208.086 201.296 207.948 201.403 207.786C201.509 207.625 201.582 207.444 201.618 207.254C201.618 207.101 201.618 206.899 201.493 206.823C201.453 206.797 201.408 206.782 201.36 206.781H201.353Z" fill="#BA68C8"/>
<path d="M199.447 209.197L199.197 208.988C198.687 208.597 198.243 208.127 197.881 207.596C197.772 207.383 197.707 207.15 197.689 206.911C197.671 206.672 197.701 206.432 197.777 206.204C197.812 206.068 197.889 205.945 197.996 205.853C198.103 205.76 198.235 205.703 198.376 205.688C198.516 205.672 198.658 205.701 198.782 205.768C198.907 205.835 199.007 205.939 199.071 206.065C199.344 206.481 199.503 206.961 199.531 207.457C199.552 207.922 199.535 208.387 199.482 208.849L199.447 209.197ZM198.431 206.017C198.278 206.017 198.166 206.191 198.111 206.337C198.05 206.52 198.027 206.714 198.043 206.906C198.058 207.099 198.112 207.286 198.201 207.457C198.468 207.853 198.794 208.205 199.169 208.501C199.196 208.163 199.196 207.823 199.169 207.485C199.146 207.053 199.009 206.636 198.772 206.274C198.73 206.197 198.591 206.017 198.431 206.017Z" fill="#BA68C8"/>
<path d="M159.295 142.855C159.295 142.855 157.687 150.379 160.039 156.97L150.79 190.378C150.79 190.378 126.506 232.556 127.237 232.737C127.968 232.918 139.765 239.961 139.765 239.961C139.765 239.961 163.331 203.401 166.749 198.535C170.166 193.67 184.225 156.421 184.225 156.421L159.295 142.855Z" fill="#263238"/>
<path opacity="0.3" d="M168.432 145.93C167.98 147.28 164.694 150.983 164.193 152.528C164.047 152.98 160.456 151.01 160.303 151.484C163.198 155.534 174.084 160.991 181.426 164.367C182.582 161.52 182.888 160.274 183.821 157.831C185.268 154.17 186.848 151.296 187.669 149.187C181.113 147.781 173.868 146.674 168.432 145.93Z" fill="black"/>
<path d="M225.707 152.744C216.596 148.087 191.652 141.663 191.652 141.663L192.696 134.237L163.38 128.453C161.956 131.782 160.793 135.217 159.9 138.726C155.815 156.384 173.82 158.52 177.391 158.75L209.964 164.555L192.758 196.014L204.813 200.656C204.813 200.656 220.404 177.152 227.872 164.555C230.76 159.634 228.185 154.01 225.707 152.744Z" fill="#263238"/>
<path opacity="0.3" d="M186.104 135.803L173.576 133.381L174.063 131.391L186.55 133.813L186.104 135.803Z" fill="white"/>
<path opacity="0.3" d="M187.495 134.004L192.583 135.027L192.298 137.059L187.092 135.994L187.495 134.004Z" fill="white"/>
<path opacity="0.3" d="M164.493 129.535L173.109 131.206L172.601 133.182L164.02 131.526L164.493 129.535Z" fill="white"/>
<g opacity="0.3">
<path d="M163.136 131.322L162.314 131.113L163.059 129.227L163.63 129.331L163.136 131.322Z" fill="white"/>
</g>
<path opacity="0.3" d="M191.671 141.597L176.93 137.316C177.229 137.407 186.555 139.404 191.845 140.344L191.671 141.597Z" fill="black"/>
<path opacity="0.3" d="M210.033 164.201L217.96 161.668C217.96 161.668 212.483 166.721 208.258 167.452L210.033 164.201Z" fill="black"/>
<path d="M162.99 85.6094C162.426 85.6094 143.669 98.896 141.031 102.084C138.393 105.271 133.139 128.894 133.139 128.894L140.175 130.648L148.757 108.034L164.765 99.8704C164.765 99.8704 168.607 92.5485 168.711 92.2144C168.816 91.8803 162.99 85.6094 162.99 85.6094Z" fill="#BA68C8"/>
<path opacity="0.7" d="M162.99 85.6094C162.426 85.6094 143.669 98.896 141.031 102.084C138.393 105.271 133.139 128.894 133.139 128.894L140.175 130.648L148.757 108.034L164.765 99.8704C164.765 99.8704 168.607 92.5485 168.711 92.2144C168.816 91.8803 162.99 85.6094 162.99 85.6094Z" fill="white"/>
<path d="M231.148 125.978L209.134 110.77C209.134 110.77 201.84 89.9737 199.578 86.6886C196.641 82.4221 191.045 82.1367 191.045 82.1367L194.441 99.9056C194.441 99.9056 196.411 107.005 198.297 112.106C200.239 117.34 200.991 120.187 205.758 123.02C209.893 125.477 227.55 132.068 227.55 132.068C227.244 131.936 231.148 125.978 231.148 125.978Z" fill="#BA68C8"/>
<path opacity="0.7" d="M231.148 125.978L209.134 110.77C209.134 110.77 201.84 89.9737 199.578 86.6886C196.641 82.4221 191.045 82.1367 191.045 82.1367L194.441 99.9056C194.441 99.9056 196.411 107.005 198.297 112.106C200.239 117.34 200.991 120.187 205.758 123.02C209.893 125.477 227.55 132.068 227.55 132.068C227.244 131.936 231.148 125.978 231.148 125.978Z" fill="white"/>
<path d="M161.786 128.126C161.786 128.126 160.282 128.029 160.825 126.672C161.345 125.654 162.084 124.765 162.99 124.069L164.215 115.306L162.99 85.6076L168.474 84.2156L174.509 82.8236L177.084 80.499L184.044 80.1719L187.461 82.065H191.052C191.052 82.1207 198.11 98.1704 196.342 110.984C194.574 123.797 193.308 131.864 193.008 132.713C192.403 134.369 191.08 133.847 191.08 133.847L161.786 128.126Z" fill="#BA68C8"/>
<path opacity="0.7" d="M161.786 128.126C161.786 128.126 160.282 128.029 160.825 126.672C161.345 125.654 162.084 124.765 162.99 124.069L164.215 115.306L163.602 100.474L162.99 85.6076L168.474 84.2156L174.509 82.8236L177.084 80.499L183.863 80.1719L187.482 82.065H191.073C191.073 82.1207 198.131 98.1704 196.363 110.984C194.595 123.797 193.328 131.864 193.029 132.713C192.424 134.369 191.101 133.847 191.101 133.847L161.786 128.126Z" fill="white"/>
<path opacity="0.1" d="M180.674 131.377C180.651 131.376 180.629 131.369 180.609 131.359C180.588 131.349 180.57 131.334 180.555 131.317C180.54 131.299 180.529 131.279 180.522 131.257C180.515 131.235 180.512 131.212 180.514 131.19C181.989 116.896 182.283 102.505 181.391 88.1628C181.389 88.1178 181.405 88.0738 181.435 88.04C181.465 88.0063 181.506 87.9854 181.551 87.9818C181.574 87.9788 181.597 87.9808 181.619 87.9875C181.641 87.9942 181.661 88.0055 181.678 88.0206C181.695 88.0358 181.709 88.0545 181.718 88.0754C181.728 88.0963 181.732 88.119 181.732 88.1419C182.63 102.502 182.339 116.912 180.862 131.224C180.861 131.247 180.854 131.269 180.844 131.289C180.833 131.309 180.819 131.327 180.801 131.341C180.784 131.356 180.763 131.366 180.742 131.372C180.72 131.379 180.697 131.38 180.674 131.377Z" fill="#263238"/>
<path opacity="0.2" d="M165.342 104.768L165.537 109.39C165.537 109.39 177.661 100.439 180.062 97.4465C183.166 93.5907 183.403 91.4609 183.403 91.4609L165.342 104.768Z" fill="black"/>
<path d="M180.501 89.4516L181.935 91.6996C181.935 91.6996 161.333 106.914 142.11 108.202L140.934 114.751L147.553 115.962C147.553 115.962 176.785 104.708 183.647 91.8388L185.7 88.7625L183.508 86.8555L182.812 87.3009L180.501 89.4516Z" fill="#BA68C8"/>
<path opacity="0.2" d="M196.641 107.108C196.641 107.108 197.281 98.0603 197.406 93.418C197.825 95.7809 198.115 98.1647 198.276 100.559C198.464 103.67 197.525 110.025 197.525 110.025L196.641 107.108Z" fill="black"/>
<path opacity="0.2" d="M174.836 83.2305C175.114 83.7525 179.576 89.4388 179.576 89.4388L183.174 86.9262C183.174 86.9262 180.049 90.3575 180.028 90.4062L179.102 90.4967L174.836 83.2305Z" fill="black"/>
<path opacity="0.2" d="M183.508 86.8568L186.194 88.0331C186.699 86.9078 187.113 85.7441 187.433 84.5531C187.489 83.8153 187.433 82.5625 187.433 82.5625H187.795C187.963 83.7582 187.885 84.9756 187.565 86.1399C187.002 87.7477 186.327 89.2998 186.327 89.2998L183.508 86.8568Z" fill="black"/>
<path opacity="0.2" d="M209.134 110.754C209.336 112.202 208.438 114.157 207.68 115.403C208.591 115.062 209.622 114.652 210.06 113.788C210.498 112.925 210.826 112.863 210.756 111.895L209.134 110.754Z" fill="black"/>
<path d="M174.836 68.5571C174.836 68.5571 168.697 63.7825 168.885 62.0982C169.073 60.4139 170.047 60.8941 170.047 60.8941C170.047 60.8941 167.827 56.9269 169.818 56.1544C171.808 55.3818 171.982 56.05 171.982 56.05C171.982 56.05 171.05 52.7788 172.609 51.7208C173.799 50.9065 174.383 52.4168 174.383 52.4168C174.383 52.4168 176.562 48.7072 179.353 48.6445C180.745 48.6933 181.441 49.5563 181.302 50.6281V50.7673C181.302 50.7673 186.828 48.0808 189.508 49.5145C192.187 50.9483 188.846 52.7788 188.846 52.7788C188.846 52.7788 194.31 51.9784 195.472 54.1708C196.398 55.8899 194.004 57.1705 194.004 57.1705C194.604 57.3672 195.162 57.6714 195.653 58.0684C195.975 58.3453 196.209 58.7106 196.326 59.119C196.442 59.5275 196.437 59.9612 196.309 60.3664C196.182 60.7716 195.938 61.1305 195.609 61.3988C195.28 61.667 194.879 61.8327 194.456 61.8755H194.407C194.122 61.8755 193.6 61.9799 193.377 61.785C193.377 61.785 194.4 63.7338 192.396 64.4577C190.391 65.1815 189.334 62.8638 189.334 62.8638L174.836 68.5571Z" fill="#263238"/>
<path d="M177.238 81.3918C177.238 81.3918 177.446 78.5173 175.15 71.6478C175.15 71.6478 175.512 71.4599 175.512 71.4529C175.184 70.4924 174.85 69.6085 174.537 68.8359L184.281 74.3065C184.149 76.5407 185.137 80.8071 185.673 82.6028L183.376 86.8832L177.238 81.3918Z" fill="#E9B376"/>
<path opacity="0.2" d="M184.586 77.3976L179.053 76.4023C179.623 78.0867 181.217 80.0355 185.038 80.0355C184.815 79.1701 184.664 78.2878 184.586 77.3976Z" fill="black"/>
<path d="M190.147 57.5475C191.365 59.6981 191.971 64.5075 188.421 63.6653C184.872 62.8231 188.059 53.8447 190.147 57.5475Z" fill="#263238"/>
<path d="M174.237 64.1859C175.141 70.1924 175.531 73.5958 178.858 76.4007C183.862 80.6185 190.913 77.2707 191.825 71.0972C192.646 65.5292 191.031 56.6552 184.899 54.8317C183.541 54.4199 182.1 54.3613 180.712 54.6613C179.324 54.9613 178.036 55.61 176.969 56.5463C175.902 57.4825 175.091 58.6753 174.613 60.012C174.135 61.3487 174.005 62.7852 174.237 64.1859Z" fill="#E9B376"/>
<path d="M183.049 65.1693C183.105 65.7888 183.474 66.2551 183.877 66.2133C184.281 66.1716 184.573 65.6426 184.511 65.0232C184.448 64.4037 184.086 63.9374 183.683 63.9792C183.279 64.0209 182.98 64.5499 183.049 65.1693Z" fill="#263238"/>
<path d="M189.103 64.7271C189.158 65.3466 189.534 65.8199 189.938 65.7781C190.342 65.7363 190.634 65.2074 190.571 64.5879C190.509 63.9685 190.14 63.5022 189.736 63.537C189.332 63.5718 189.047 64.1355 189.103 64.7271Z" fill="#263238"/>
<path d="M187.105 64.582C187.105 64.582 189.333 67.4843 190.07 68.6745C189.277 69.5306 187.76 69.3009 187.76 69.3009L187.105 64.582Z" fill="#D58745"/>
<path d="M181.399 61.9015C181.45 61.913 181.502 61.9106 181.551 61.8947C181.6 61.8788 181.644 61.8499 181.678 61.8111C181.916 61.5342 182.216 61.3166 182.553 61.1753C182.89 61.0339 183.255 60.9728 183.62 60.9967C183.696 61.0069 183.773 60.9873 183.836 60.9419C183.898 60.8965 183.94 60.8289 183.954 60.7531C183.961 60.7155 183.96 60.6768 183.951 60.6396C183.942 60.6023 183.926 60.5672 183.903 60.5365C183.88 60.5058 183.851 60.4801 183.818 60.4611C183.785 60.4421 183.748 60.4302 183.71 60.426C183.249 60.384 182.785 60.4531 182.356 60.6275C181.928 60.8018 181.547 61.0765 181.246 61.4283C181.192 61.483 181.162 61.5567 181.162 61.6336C181.162 61.7104 181.192 61.7842 181.246 61.8389C181.289 61.8761 181.343 61.8981 181.399 61.9015Z" fill="#263238"/>
<path d="M191.574 61.8477C191.627 61.8305 191.674 61.7963 191.706 61.7503C191.752 61.6878 191.771 61.6103 191.761 61.5337C191.75 61.4572 191.711 61.3877 191.65 61.3396C191.289 61.057 190.865 60.8657 190.415 60.7821C189.964 60.6985 189.5 60.725 189.061 60.8594C189.025 60.8726 188.992 60.8928 188.964 60.9188C188.935 60.9449 188.912 60.9762 188.896 61.0112C188.88 61.0461 188.871 61.0838 188.869 61.1223C188.868 61.1607 188.874 61.1991 188.887 61.2352C188.9 61.2705 188.92 61.3028 188.946 61.3303C188.972 61.3578 189.003 61.38 189.037 61.3955C189.071 61.411 189.108 61.4196 189.146 61.4208C189.183 61.4219 189.221 61.4156 189.256 61.4023C189.605 61.299 189.974 61.2824 190.33 61.354C190.687 61.4255 191.02 61.5831 191.302 61.8129C191.341 61.8404 191.386 61.858 191.434 61.864C191.481 61.8701 191.529 61.8645 191.574 61.8477Z" fill="#263238"/>
<path d="M187.016 71.0425C186.027 70.771 184.232 70.1934 183.299 69.3164C183.198 69.5383 183.125 69.7722 183.083 70.0124C182.994 70.4248 183.008 70.8528 183.125 71.2582C183.375 72.0865 184.141 72.9565 186.132 73.4228H186.166C186.166 73.4228 187.238 73.6525 187.67 71.2095C187.691 71.2095 187.426 71.1538 187.016 71.0425Z" fill="#263238"/>
<path d="M187.016 71.0403L186.668 71.7363C184.796 71.2908 183.536 70.7271 183.084 70.0241C183.126 69.7839 183.199 69.55 183.3 69.3281C184.212 70.1912 186.028 70.7688 187.016 71.0403Z" fill="white"/>
<path d="M186.132 73.4067C184.141 72.9404 183.348 72.0704 183.125 71.2422C183.871 71.4355 184.578 71.7582 185.213 72.1957C185.637 72.4948 185.958 72.9179 186.132 73.4067Z" fill="#DC5753"/>
<path d="M176.241 68.785C176.78 68.525 177.234 68.117 177.55 67.6087C177.756 67.0913 177.802 66.524 177.682 65.9801C177.609 65.4086 177.505 64.8417 177.369 64.2819C177.919 64.5324 178.552 64.0731 178.824 63.5371C179.16 62.6954 179.244 61.7743 179.067 60.8854C179.415 60.9472 179.773 60.9153 180.105 60.793C180.436 60.6707 180.729 60.4624 180.953 60.1894C181.17 59.912 181.284 59.5674 181.273 59.2154C181.263 58.8633 181.13 58.5259 180.898 58.2615C183.144 58.4667 185.41 58.2303 187.565 57.5655C187.426 57.8439 187.614 58.1779 187.816 58.4215C188.648 59.4099 189.815 60.0567 191.094 60.2381C191.282 60.2381 191.512 60.2381 191.609 60.0989C191.652 60.0079 191.665 59.9052 191.644 59.8066C191.461 58.5788 190.804 57.4717 189.813 56.7233C188.819 56.0011 187.708 55.455 186.528 55.1086C184.607 54.4145 182.591 54.0155 180.55 53.9254C178.503 53.8362 176.469 54.2748 174.641 55.1991C174.233 55.387 173.874 55.6655 173.59 56.0134C173.35 56.3638 173.184 56.7593 173.102 57.1757C172.455 59.6731 172.275 62.2689 172.574 64.8317" fill="#263238"/>
<path d="M172.294 69.4348C172.587 70.1289 173.015 70.7582 173.553 71.2862C174.09 71.8142 174.727 72.2305 175.426 72.5111C177.312 73.2489 178.468 71.6063 178.134 69.7271C177.827 68.0289 176.477 65.5998 174.501 65.6694C172.524 65.739 171.584 67.7018 172.294 69.4348Z" fill="#E9B376"/>
<path opacity="0.2" d="M176.442 69.3789C176.403 69.3781 176.365 69.3639 176.334 69.3386C176.304 69.3133 176.283 69.2784 176.275 69.2397C176.174 68.7544 175.948 68.3037 175.621 67.9312C175.37 67.6184 175.018 67.4021 174.626 67.3187C174.446 67.2848 174.26 67.3051 174.091 67.3769C173.923 67.4488 173.779 67.569 173.679 67.7224C173.669 67.7433 173.655 67.7618 173.637 67.7768C173.619 67.7917 173.599 67.8028 173.576 67.8094C173.554 67.8159 173.531 67.8178 173.508 67.8148C173.485 67.8118 173.462 67.8041 173.443 67.792C173.422 67.7811 173.405 67.7663 173.39 67.7485C173.376 67.7307 173.365 67.7102 173.359 67.6882C173.352 67.6662 173.35 67.6431 173.353 67.6203C173.355 67.5976 173.362 67.5755 173.373 67.5554C173.508 67.3392 173.705 67.1685 173.939 67.0655C174.172 66.9625 174.431 66.9319 174.681 66.9777C175.151 67.0653 175.576 67.3109 175.886 67.6737C176.238 68.0966 176.477 68.6018 176.582 69.1423C176.59 69.1883 176.58 69.2358 176.554 69.2747C176.528 69.3136 176.488 69.341 176.442 69.3511V69.3789Z" fill="black"/>
<path d="M264.905 214.3L239.424 252.928C230.265 264.76 222.623 275.2 208.8 279.223L159.774 297.715C156.9 298.798 154.355 300.604 152.383 302.958C150.411 305.313 149.081 308.136 148.52 311.155L150.336 320.857H97.7188C97.7188 320.857 98.4148 282.8 101.63 271.323C104.644 260.57 112.154 251.139 127.57 248.042C140.391 245.446 189.243 236.259 198.715 235.952C202.745 235.827 203.74 238.625 203.553 238.938L205.787 238.688C205.787 238.688 232.061 215.504 237.803 209.894C242.25 205.551 249.676 208.078 249.676 208.078C249.676 208.078 257.604 200.756 263.269 204.354C263.283 204.326 268.496 208.05 264.905 214.3Z" fill="#DB8C7E"/>
<path opacity="0.3" d="M203.552 238.911C206.643 247.736 198.994 253.193 190.085 257.313C181.176 261.433 158.848 268.818 158.848 268.818L158.152 272.75L161.911 269.73C161.911 269.73 180.271 263.222 192.535 257.508C200.33 253.882 203.114 250.938 204.409 247.931C205.467 245.416 205.641 242.616 204.903 239.99L204.624 238.66L203.552 238.911Z" fill="black"/>
<path opacity="0.3" d="M249.691 208.051C249.691 208.051 254.667 212.589 250.651 217.44C247.269 221.526 219.645 256.987 219.645 256.987L223.166 254.098C223.166 254.098 251.702 220.44 253.512 217.496C256.178 213.097 252.002 208.002 249.691 208.051Z" fill="black"/>
</svg>
