<svg width="472" height="315" viewBox="0 0 472 315" fill="none" xmlns="http://www.w3.org/2000/svg">
<path d="M425.428 271.801C448.223 253.531 461.345 225.735 461.747 196.497C462.005 178.063 460.684 154.917 454.497 135.097C434.094 69.7469 376.46 34.2968 334.295 26.7368C292.129 19.1768 248.705 33.0368 215.98 55.0868C183.255 77.1368 186.401 73.3568 130.391 65.1668C74.3801 56.9768 28.4388 80.9168 13.3348 125.017C-1.76925 169.117 44.1721 194.109 49.2068 217.211C54.2414 240.313 45.4308 281.257 132.908 291.337C220.385 301.417 246.817 252.277 290.241 266.137C325.182 277.294 377.24 310.476 425.428 271.801Z" fill="#BA68C8"/>
<path opacity="0.7" d="M425.428 271.801C448.223 253.531 461.345 225.735 461.747 196.497C462.005 178.063 460.684 154.917 454.497 135.097C434.094 69.7469 376.46 34.2968 334.295 26.7368C292.129 19.1768 248.705 33.0368 215.98 55.0868C183.255 77.1368 186.401 73.3568 130.391 65.1668C74.3801 56.9768 28.4388 80.9168 13.3348 125.017C-1.76925 169.117 44.1721 194.109 49.2068 217.211C54.2414 240.313 45.4308 281.257 132.908 291.337C220.385 301.417 246.817 252.277 290.241 266.137C325.182 277.294 377.24 310.476 425.428 271.801Z" fill="#C9B6DD"/>
<path d="M75.6082 49.1752C74.7208 48.2554 73.179 47.4049 70.5043 47.3356C64.4942 47.1907 66.099 51.4495 64.4942 52.4764C62.8894 53.5033 62.4425 51.8905 60.8251 52.9174C59.2078 53.9443 59.9441 55.9981 58.6288 56.2942C57.3135 56.5903 55.5513 54.9712 53.9339 55.9981C52.3166 57.025 52.3229 57.8881 51.5865 57.8881C50.8502 57.8881 49.3902 57.3022 48.5091 57.8881C47.628 58.474 46.6211 59.2111 46.6211 59.2111H62.3544" stroke="#263238" stroke-linecap="round" stroke-linejoin="round"/>
<path d="M77.2639 51.8046L76.8108 51.5967C76.7402 51.048 76.5559 50.5201 76.2695 50.0469" stroke="#263238" stroke-linecap="round" stroke-linejoin="round"/>
<path d="M64.3613 59.2189H83.7007C83.7007 59.2189 84.1413 57.8959 82.5302 57.0139C80.9191 56.1319 80.1828 56.869 79.5975 56.1319C79.0122 55.3948 80.7618 53.8954 78.0304 52.207" stroke="#263238" stroke-linecap="round" stroke-linejoin="round"/>
<path d="M257.177 96.4565C256.283 95.5304 254.741 94.6799 252.066 94.6169C246.056 94.472 247.661 98.7245 246.056 99.7514C244.451 100.778 244.005 99.1655 242.394 100.192C240.782 101.219 241.512 103.279 240.191 103.569C238.869 103.859 237.113 102.246 235.502 103.279C233.891 104.313 233.885 105.169 233.155 105.169C232.425 105.169 230.952 104.583 230.077 105.169C229.203 105.755 228.189 106.492 228.189 106.492H243.923" stroke="#263238" stroke-linecap="round" stroke-linejoin="round"/>
<path d="M258.833 99.0858L258.373 98.8779C258.304 98.329 258.119 97.8009 257.832 97.3281" stroke="#263238" stroke-linecap="round" stroke-linejoin="round"/>
<path d="M245.932 106.506H265.265C265.265 106.506 265.705 105.183 264.094 104.307C262.483 103.431 261.747 104.156 261.162 103.425C260.576 102.694 262.326 101.188 259.594 99.5" stroke="#263238" stroke-linecap="round" stroke-linejoin="round"/>
<path d="M385.316 31.1525C383.717 29.4893 380.911 27.9584 376.115 27.8387C365.278 27.5741 368.16 35.279 365.278 37.0997C362.395 38.9204 361.577 36.0413 358.67 37.8935C355.762 39.7457 357.084 43.4501 354.711 43.9793C352.339 44.5085 349.161 41.579 346.253 43.469C343.346 45.359 343.346 46.9088 342.024 46.9088C340.702 46.9088 338.059 45.8504 336.473 46.9088C334.887 47.9672 333.037 49.2902 333.037 49.2902H361.414" stroke="#263238" stroke-linecap="round" stroke-linejoin="round"/>
<path d="M388.299 35.9072C388.041 35.7812 387.771 35.6552 387.481 35.5292C387.353 34.5412 387.021 33.5907 386.506 32.7383" stroke="#263238" stroke-linecap="round" stroke-linejoin="round"/>
<path d="M365.045 49.2721H399.897C399.897 49.2721 400.69 46.8907 397.783 45.3031C394.875 43.7155 393.56 45.0385 392.503 43.7155C391.559 42.5374 394.598 39.6835 389.677 36.6406" stroke="#263238" stroke-linecap="round" stroke-linejoin="round"/>
<path d="M175.037 59.2562H213.376C213.376 59.2562 214.685 55.3313 209.89 52.7168C205.094 50.1023 202.923 52.2821 201.18 50.1023C199.436 47.9225 205.975 42.2525 192.91 36.5888C192.91 36.5888 192.035 24.3794 174.181 23.9447C166.478 23.7557 162.992 26.0048 161.129 28.865" stroke="#263238" stroke-linecap="round" stroke-linejoin="round"/>
<path d="M163.338 59.2578H169.719" stroke="#263238" stroke-linecap="round" stroke-linejoin="round"/>
<path d="M158.805 34.8867C158.258 36.7452 157.666 38.3517 156.326 39.2022C151.536 42.2514 150.234 37.4571 145.438 40.5126C140.643 43.5681 142.858 49.6665 138.912 50.5359C134.966 51.4053 129.761 46.6173 124.972 49.6665C120.183 52.7157 120.183 55.3365 118.005 55.3365C115.828 55.3365 111.473 53.5977 108.861 55.3365C106.25 57.0753 103.197 59.2614 103.197 59.2614H152.166" stroke="#263238" stroke-linecap="round" stroke-linejoin="round"/>
<path d="M414.329 168.205L436.778 122.819L443.518 126.158L441.913 101.078L421.019 115.007L427.759 118.346L405.305 163.732" stroke="#263238" stroke-linecap="round" stroke-linejoin="round"/>
<path d="M403.378 99.2811L417.526 70.6791L421.774 72.7833L420.767 56.9766L407.595 65.7525L411.843 67.8567L397.695 96.465" stroke="#263238" stroke-linecap="round" stroke-linejoin="round"/>
<path d="M258.549 50.0867C261.585 43.1105 267.244 37.613 274.302 34.7856C281.359 31.9582 289.245 32.0287 296.25 34.9818C303.256 37.9349 308.816 43.5327 311.727 50.562C314.638 57.5913 314.665 65.4858 311.801 72.5345C308.937 79.5833 303.414 85.2183 296.429 88.2185C289.443 91.2186 281.558 91.3422 274.482 88.5623C267.406 85.7824 261.71 80.3231 258.627 73.3675C255.544 66.4119 255.324 58.5204 258.014 51.4034" stroke="#263238" stroke-miterlimit="10"/>
<path d="M258.222 49.9667C261.292 42.9069 267.018 37.3427 274.158 34.4803C281.298 31.6178 289.277 31.6877 296.366 34.6748C303.455 37.6619 309.083 43.3255 312.029 50.4379C314.975 57.5504 315.002 65.5385 312.104 72.6709C309.207 79.8032 303.618 85.5049 296.549 88.5401C289.481 91.5753 281.502 91.6995 274.342 88.8856C267.183 86.0717 261.42 80.5466 258.302 73.5079C255.184 66.4692 254.964 58.484 257.687 51.2834" stroke="#263238" stroke-width="0.5" stroke-miterlimit="10"/>
<path d="M265.862 52.8503C268.189 47.7048 272.442 43.6806 277.705 41.6454C282.968 39.6102 288.819 39.7271 293.996 41.9708C299.174 44.2144 303.263 48.4052 305.383 53.6395C307.502 58.8738 307.482 64.7322 305.326 69.9516C303.17 75.171 299.052 79.3332 293.859 81.5408C288.666 83.7485 282.814 83.8246 277.565 81.7528C272.317 79.6811 268.092 75.6274 265.801 70.4658C263.511 65.3043 263.338 59.4483 265.321 54.1607" stroke="#263238" stroke-miterlimit="10"/>
<path d="M265.534 52.7273C267.743 47.8593 271.673 43.9811 276.566 41.8387C281.46 39.6963 286.972 39.441 292.043 41.122C297.113 42.8029 301.383 46.3013 304.032 50.9442C306.681 55.5872 307.521 61.0466 306.391 66.2724C305.262 71.4982 302.241 76.1212 297.912 79.252C293.582 82.3829 288.249 83.8005 282.938 83.2321C277.627 82.6637 272.714 80.1494 269.143 76.173C265.572 72.1967 263.596 67.039 263.596 61.6922C263.591 59.0767 264.064 56.4824 264.993 54.0377" stroke="#263238" stroke-width="0.5" stroke-miterlimit="10"/>
<path d="M275.188 56.4049C276.558 53.8292 278.874 51.888 281.648 50.992C284.422 50.096 287.435 50.3156 290.05 51.6043C292.665 52.893 294.677 55.1497 295.659 57.8968C296.641 60.6439 296.517 63.6657 295.313 66.3228C294.109 68.9799 291.919 71.0637 289.207 72.1332C286.495 73.2027 283.474 73.1739 280.783 72.053C278.092 70.9321 275.943 68.8071 274.789 66.1275C273.636 63.448 273.569 60.4243 274.603 57.6964V57.6397" stroke="#263238" stroke-miterlimit="10"/>
<path d="M274.736 56.5181L274.868 56.2535C276.197 53.7178 278.408 51.7572 281.082 50.7418C283.757 49.7265 286.711 49.7267 289.385 50.7425C292.06 51.7583 294.27 53.7193 295.599 56.2552C296.928 58.791 297.283 61.7262 296.598 64.5064C295.912 67.2865 294.233 69.7192 291.879 71.3449C289.524 72.9707 286.656 73.6769 283.816 73.3303C280.977 72.9837 278.362 71.6082 276.467 69.4637C274.571 67.3191 273.525 64.5539 273.527 61.6904C273.525 60.2761 273.781 58.8733 274.283 57.5513" stroke="#263238" stroke-width="0.5" stroke-miterlimit="10"/>
<path d="M275.378 56.4424H275.283L275.201 56.4109L274.874 56.2849L265.868 52.8829L265.541 52.7569L258.555 50.1172L258.228 49.9975L246.976 45.745L247.53 41.587C247.54 41.5109 247.526 41.4334 247.488 41.3663C247.451 41.2992 247.392 41.2462 247.322 41.2153L238.417 37.1707C238.353 37.1429 238.283 37.1341 238.215 37.1454C238.147 37.1566 238.083 37.1874 238.032 37.234C237.981 37.2806 237.944 37.3411 237.926 37.4081C237.909 37.4752 237.911 37.5459 237.932 37.6117L239.738 42.9667L238.411 42.4627C238.322 42.4235 238.227 42.4027 238.13 42.4016C238.033 42.4005 237.937 42.4192 237.848 42.4565C237.759 42.4938 237.678 42.5489 237.611 42.6185C237.544 42.688 237.491 42.7706 237.457 42.8611C237.423 42.9516 237.407 43.0481 237.412 43.1448C237.416 43.2415 237.44 43.3363 237.482 43.4235C237.524 43.5106 237.583 43.5882 237.657 43.6516C237.73 43.715 237.815 43.7627 237.907 43.792L239.292 44.3149L235.138 47.509C235.083 47.5515 235.041 47.6096 235.019 47.6757C234.996 47.7419 234.994 47.8133 235.012 47.8807C235.029 47.9478 235.066 48.0082 235.117 48.0543C235.169 48.1003 235.233 48.1298 235.302 48.139L245.277 49.6762H245.327C245.399 49.6762 245.469 49.6546 245.529 49.6142C245.588 49.5737 245.634 49.5163 245.66 49.4494L246.598 47.068L257.687 51.2575L258.014 51.3772L264.994 54.0106L265.321 54.1366L274.289 57.526L274.616 57.6457L274.88 57.7465" stroke="#263238" stroke-miterlimit="10"/>
<path d="M275.188 56.4069H275.283H275.377L281.79 58.8324L282.495 56.7156C282.541 56.5748 282.63 56.4523 282.75 56.3652C282.87 56.2781 283.014 56.231 283.162 56.2305C283.312 56.2332 283.457 56.2835 283.577 56.374C283.697 56.4645 283.785 56.5907 283.829 56.7345L285.088 60.9051C285.136 61.0656 285.126 61.2378 285.06 61.392C284.995 61.5461 284.878 61.6725 284.729 61.7493L281.519 63.3495C281.422 63.399 281.314 63.4249 281.205 63.4251C281.034 63.4261 280.869 63.3658 280.739 63.255C280.634 63.1617 280.559 63.04 280.522 62.9047C280.485 62.7693 280.488 62.6262 280.531 62.4927L281.312 60.2184L274.88 57.774C274.789 57.7406 274.707 57.6867 274.641 57.6165" stroke="#263238" stroke-miterlimit="10"/>
<path d="M95.897 131.331L101.561 132.591L102.87 126.846L97.4389 125.586C97.4389 125.428 97.4389 125.264 97.4389 125.101C97.4421 123.356 97.091 121.628 96.4068 120.023L100.812 116.507L97.1431 111.902L92.9517 115.292C91.4739 114.008 89.7245 113.078 87.8353 112.57V107.102H81.951V112.381C80.0092 112.759 78.1807 113.58 76.608 114.781L72.3474 111.379L68.6784 115.985L72.8382 119.305C71.9566 121.051 71.4832 122.974 71.4537 124.931L66.0352 126.191L67.3442 131.936L72.6872 130.714C73.4977 132.439 74.6747 133.965 76.136 135.187L73.6186 140.359L78.9239 142.917L81.372 137.827C83.1802 138.273 85.0639 138.318 86.8913 137.959L89.4086 143.232L94.7139 140.674L92.2469 135.546C93.7527 134.421 94.9979 132.983 95.897 131.331ZM78.6659 125.151C78.6659 124.007 79.0047 122.889 79.6395 121.938C80.2743 120.987 81.1766 120.246 82.2323 119.808C83.2879 119.37 84.4496 119.256 85.5702 119.479C86.6909 119.702 87.7203 120.253 88.5283 121.062C89.3363 121.87 89.8865 122.901 90.1094 124.023C90.3323 125.145 90.2179 126.307 89.7807 127.364C89.3434 128.421 88.6029 129.324 87.6528 129.96C86.7028 130.595 85.5858 130.934 84.4432 130.934C83.6845 130.934 82.9332 130.785 82.2323 130.494C81.5314 130.204 80.8945 129.778 80.358 129.241C79.8215 128.704 79.396 128.066 79.1056 127.364C78.8153 126.663 78.6659 125.911 78.6659 125.151Z" stroke="#263238" stroke-linecap="round" stroke-linejoin="round"/>
<path d="M439.355 190.01L443.188 190.886L444.075 186.992L440.394 186.148C440.394 186.041 440.394 185.928 440.394 185.821C440.396 184.637 440.161 183.465 439.701 182.374L442.684 179.993L440.167 176.843L437.385 179.149C436.385 178.279 435.199 177.65 433.918 177.309V173.586H429.896V177.158C428.581 177.418 427.343 177.976 426.278 178.79L423.389 176.484L420.872 179.634L423.691 181.883C423.097 183.056 422.776 184.348 422.753 185.663L419.135 186.482L420.022 190.375L423.647 189.55C424.196 190.718 424.993 191.752 425.982 192.58L424.295 196.083L427.889 197.816L429.55 194.363C430.225 194.533 430.918 194.62 431.614 194.622C432.176 194.619 432.737 194.564 433.288 194.458L435.007 198.03L438.606 196.297L436.932 192.826C437.928 192.068 438.754 191.108 439.355 190.01ZM427.675 185.852C427.675 185.077 427.904 184.319 428.335 183.675C428.765 183.031 429.376 182.528 430.091 182.232C430.807 181.935 431.594 181.858 432.353 182.009C433.112 182.16 433.81 182.533 434.357 183.081C434.905 183.629 435.277 184.327 435.429 185.088C435.58 185.848 435.502 186.636 435.206 187.352C434.909 188.068 434.408 188.68 433.764 189.11C433.12 189.541 432.363 189.771 431.589 189.771C430.551 189.771 429.555 189.358 428.821 188.623C428.087 187.888 427.675 186.891 427.675 185.852Z" stroke="#263238" stroke-linecap="round" stroke-linejoin="round"/>
<path d="M106.74 103.094L111.384 104.153L112.454 99.4404L107.999 98.4261C107.999 98.2938 107.999 98.1615 107.999 98.0292C108.007 96.6016 107.727 95.1872 107.174 93.8712L110.793 90.9858L107.785 87.2058L104.323 89.9652C103.11 88.9145 101.675 88.1521 100.126 87.735V83.2305H95.2987V87.5712C93.6982 87.8802 92.1905 88.555 90.8933 89.5431L87.3943 86.7522L84.386 90.5322L87.797 93.2538C87.076 94.6855 86.6887 96.2622 86.6642 97.8654L82.2148 98.886L83.291 103.598L87.6963 102.597C88.3599 104.011 89.3243 105.262 90.522 106.263L88.4767 110.503L92.8317 112.601L94.8393 108.424C95.663 108.628 96.5082 108.731 97.3566 108.733C98.0367 108.732 98.7152 108.666 99.3831 108.538L101.46 112.859L105.815 110.761L103.788 106.559C105.012 105.632 106.019 104.45 106.74 103.094ZM92.6114 98.0544C92.6102 97.1158 92.8871 96.198 93.407 95.4171C93.927 94.6361 94.6666 94.0271 95.5325 93.6671C96.3983 93.3071 97.3513 93.2122 98.271 93.3946C99.1906 93.5769 100.036 94.0282 100.699 94.6914C101.362 95.3546 101.814 96.1999 101.998 97.1203C102.181 98.0407 102.088 98.9948 101.729 99.862C101.371 100.729 100.763 101.47 99.9837 101.992C99.2043 102.514 98.2878 102.792 97.3503 102.792C96.7264 102.792 96.1086 102.669 95.5325 102.429C94.9563 102.189 94.433 101.838 93.9927 101.396C93.5524 100.953 93.2038 100.428 92.9667 99.8504C92.7297 99.2726 92.6089 98.6537 92.6114 98.0292V98.0544Z" stroke="#263238" stroke-linecap="round" stroke-linejoin="round"/>
<path d="M358.563 264.316C358.563 264.316 354.654 266.836 353.874 267.466C353.094 268.096 349.5 268.878 349.972 269.986C350.444 271.095 354.969 271.706 356.222 271.706C357.474 271.706 362.307 269.186 363.56 268.897C364.812 268.607 364.818 267.177 364.34 266.08C363.824 265.119 363.19 264.226 362.452 263.422L359.173 264.361L358.563 264.316Z" fill="white" stroke="#263238" stroke-linecap="round" stroke-linejoin="round"/>
<path d="M402.917 263.89C402.917 263.89 399.946 267.487 399.481 268.268C399.015 269.05 396.334 270.297 396.334 271.551C396.334 272.804 400.865 272.181 402.269 272.017C403.113 271.885 403.917 271.564 404.62 271.078C405.323 270.591 405.907 269.952 406.328 269.207C407.114 267.638 407.738 264.356 406.8 263.109C405.862 261.861 402.917 263.89 402.917 263.89Z" fill="white" stroke="#263238" stroke-linecap="round" stroke-linejoin="round"/>
<path d="M365.435 194.628L365.309 195.573L364.34 203.07C364.34 203.07 355.655 215.349 352.477 221.743C350.854 225.006 348.588 228.881 348.903 229.971L358.563 264.318C359.295 264.678 360.09 264.892 360.904 264.948C361.654 264.923 362.393 264.765 363.088 264.482L362.647 232.692L376.052 217.932L377.77 220.118C377.77 220.118 382.219 235.918 384.095 238.419C385.97 240.92 402.144 264.356 402.144 264.356C402.977 264.746 403.881 264.96 404.8 264.986C406.21 264.986 406.833 263.096 406.833 263.096C406.833 263.096 395.196 234.337 394.875 233.398C394.554 232.459 394.794 209.458 394.794 209.458L392.906 198.357L390.722 191.32C390.722 191.32 386.663 192.417 379.79 192.102C372.918 191.787 366.36 191.32 366.36 191.32L365.435 194.628Z" fill="#263238" stroke="#263238" stroke-linecap="round" stroke-linejoin="round"/>
<path d="M347.001 119.275C347.001 119.275 344.817 122.557 344.484 124.592C344.354 125.945 344.746 127.298 345.579 128.372L344.32 131.03C344.32 131.03 348.537 139.63 351.035 143.536C353.534 147.442 357.593 154.013 360.091 155.266C362.59 156.52 367.429 161.674 367.429 161.674L370.243 155.575C370.243 155.575 361.998 145.224 356.831 138.036C353.708 133.672 350.84 129.13 348.241 124.434C348.236 123.073 348.341 121.714 348.556 120.371C348.76 119.183 348.864 117.979 348.864 116.773L347.001 119.275Z" fill="#263238" stroke="#263238" stroke-linecap="round" stroke-linejoin="round"/>
<path d="M372.306 153.2C372.306 153.2 365.9 160.861 364.654 165.863C363.408 170.865 364.962 186.344 364.962 188.543C364.962 190.742 363.703 193.079 365.434 194.641C367.165 196.204 372.306 195.422 374.176 195.271C376.045 195.12 384.956 195.271 387.612 194.484C390.268 193.696 391.514 192.594 391.514 190.735C391.514 188.877 388.235 174.009 387.738 171.508C387.24 169.007 388.996 160.407 386.649 156.337C384.302 152.267 376.831 151.637 372.306 153.2Z" fill="white" stroke="#263238" stroke-linecap="round" stroke-linejoin="round"/>
<path d="M371.211 154.297C371.211 154.297 363.401 162.266 362.306 166.487C361.211 170.708 357.309 178.842 356.063 182.439C354.978 185.276 353.716 188.043 352.287 190.723L353.691 196.349L357.284 192.443C357.284 192.443 360.877 180.089 362.753 174.929C364.628 169.77 364.937 164.925 365.27 163.52C365.604 162.115 371.211 154.297 371.211 154.297Z" fill="#263238" stroke="#263238" stroke-linecap="round" stroke-linejoin="round"/>
<path d="M372.307 153.822C372.307 153.822 367.618 166.642 367.775 167.581C367.933 168.519 370.116 203.226 370.116 203.226C370.116 203.226 372.307 208.543 382.143 207.762C391.979 206.981 399.626 205.57 399.626 205.57C399.626 205.57 396.662 193.845 394.006 188.528C391.35 183.211 389.947 180.086 389.947 177.585C389.947 175.084 388.852 158.358 388.229 155.699C387.957 154.334 387.482 153.017 386.819 151.793L385.888 151.012L372.307 153.822Z" fill="#BA68C8" stroke="#263238" stroke-linecap="round" stroke-linejoin="round"/>
<path d="M368.557 180.402L376.209 199.164C376.209 199.164 373.063 200.424 371.993 201.507C371.393 202.112 370.763 202.686 370.105 203.227L368.557 180.402Z" fill="#BA68C8" stroke="#263238" stroke-linecap="round" stroke-linejoin="round"/>
<path d="M378.707 128.654C378.707 128.654 373.867 132.56 373.867 133.656C373.867 134.752 372.609 136.314 372.609 136.314C372.609 136.314 370.091 136.629 369.953 137.574C369.814 138.519 370.733 140.39 370.733 140.39C370.733 140.39 369.173 145.708 369.802 146.955C370.431 148.202 374.95 148.366 374.95 148.366L375.107 151.806L385.888 150.086L385.73 147.428C385.73 147.428 391.508 141.172 394.321 138.513C397.134 135.854 393.54 131.167 390.104 127.57C386.668 123.973 378.543 123.973 377.92 125.85C377.727 126.339 377.7 126.878 377.842 127.384C377.984 127.891 378.288 128.336 378.707 128.654Z" fill="white" stroke="#263238" stroke-linecap="round" stroke-linejoin="round"/>
<path d="M374.648 134.28C374.993 134.109 375.378 134.033 375.762 134.06C376.146 134.088 376.516 134.218 376.832 134.438" stroke="#263238" stroke-linecap="round" stroke-linejoin="round"/>
<path d="M374.811 136.535C374.691 137.039 374.767 137.492 374.974 137.536C375.182 137.58 375.453 137.221 375.572 136.717C375.692 136.213 375.616 135.766 375.409 135.716C375.201 135.665 374.93 136.031 374.811 136.535Z" fill="#263238"/>
<path d="M390.111 127.558C386.675 123.961 378.55 123.961 377.927 125.838C377.73 126.328 377.7 126.87 377.841 127.379C377.982 127.887 378.287 128.336 378.707 128.654C378.707 128.654 384.019 129.284 383.239 130.689C382.458 132.094 379.803 132.094 380.426 133.033C381.049 133.972 383.239 136 382.458 136.473C381.678 136.945 381.2 137.878 381.678 138.193C382.156 138.508 382.937 137.72 384.825 138.035C386.713 138.35 386.228 142.722 384.51 143.352C382.792 143.982 381.993 143.195 385.139 146.011C385.509 146.335 385.936 146.587 386.398 146.754C387.959 145.072 392.119 140.637 394.372 138.501C397.109 135.843 393.547 131.156 390.111 127.558Z" fill="#263238" stroke="#263238" stroke-linecap="round" stroke-linejoin="round"/>
<path d="M383.237 143.819L380.424 143.195L378.549 144.6" stroke="#263238" stroke-linecap="round" stroke-linejoin="round"/>
<path d="M386.516 148.195L372.149 152.101L371.211 155.075L388.234 151.95L386.516 148.195Z" fill="#BA68C8" stroke="#263238" stroke-linecap="round" stroke-linejoin="round"/>
<path d="M350.286 123.96L349.814 120.678C349.814 120.678 351.217 116.148 351.217 115.052C351.217 113.956 350.128 111.455 350.128 110.831C350.128 110.208 349.191 109.269 348.87 110.516C348.549 111.764 347.932 116.457 347.932 116.457C347.932 116.457 345.905 119.897 346.044 121.617C346.182 123.337 347.756 126.934 347.756 126.934L350.569 125.214L350.286 123.96Z" fill="white" stroke="#263238" stroke-linecap="round" stroke-linejoin="round"/>
<path d="M352.312 126.468L350.286 123.961L346.535 126.935L348.719 130.689L352.312 126.468Z" fill="white" stroke="#263238" stroke-linecap="round" stroke-linejoin="round"/>
<path d="M386.359 158.674C385.323 156.052 383.383 153.888 380.89 152.575C378.235 151.271 375.465 150.217 372.615 149.425L351.375 125.195L347.158 129.416C347.158 129.416 356.063 148.02 357.781 151.145C359.499 154.27 379.33 175.715 379.33 175.715" fill="#BA68C8"/>
<path d="M386.359 158.674C385.323 156.052 383.383 153.888 380.89 152.575C378.235 151.271 375.465 150.217 372.615 149.425L351.375 125.195L347.158 129.416C347.158 129.416 356.063 148.02 357.781 151.145C359.499 154.27 379.33 175.715 379.33 175.715" stroke="#263238" stroke-linecap="round" stroke-linejoin="round"/>
<path d="M201.192 261.098C201.192 261.098 198.203 265.35 197.573 267.713C196.944 270.075 197.101 273.225 198.675 272.91C200.248 272.595 203.867 268.658 204.181 267.555C204.496 266.453 205.597 261.413 205.597 261.413L201.821 261.098H201.192Z" fill="white" stroke="#263238" stroke-linecap="round" stroke-linejoin="round"/>
<path d="M255.158 263.772C255.158 263.772 255.158 268.182 256.102 268.812C257.046 269.442 263.497 272.12 265.385 272.277C267.273 272.435 267.902 272.12 266.801 269.915C265.7 267.71 259.406 263.457 259.406 263.457L255.158 263.772Z" fill="white" stroke="#263238" stroke-linecap="round" stroke-linejoin="round"/>
<path d="M216.454 189.277L212.835 204.555L210.947 233.22C210.947 233.22 204.025 245.19 203.395 249.6C202.766 254.01 200.721 262.987 200.721 262.987C200.721 262.987 203.553 264.247 204.025 264.247C204.497 264.247 210.161 256.057 213.307 252.907C216.454 249.757 223.534 236.212 223.849 235.582C224.163 234.952 229.198 214.95 229.513 214.32C229.827 213.69 231.715 212.902 231.715 212.902C231.715 212.902 241.193 226.542 242.339 227.688C244.17 229.522 247.134 234.165 247.134 234.165C247.134 234.165 253.585 259.837 254.057 261.097C254.398 262.278 254.609 263.493 254.686 264.72L260.507 265.98C260.507 265.98 260.979 248.812 260.665 244.717C260.35 240.622 259.091 231.802 259.091 231.802C259.091 231.802 249.494 205.5 249.022 204.87C248.55 204.24 245.718 197.94 245.718 197.94L244.774 191.955C239.24 193.507 233.416 193.723 227.782 192.585C218.342 190.695 216.454 189.277 216.454 189.277Z" fill="#263238" stroke="#263238" stroke-linecap="round" stroke-linejoin="round"/>
<path d="M225.345 146.568C221.928 148.83 218.381 150.89 214.722 152.736C209.895 155.048 208.744 157.36 208.744 158.513C208.744 159.666 204.546 178.78 204.861 179.826C205.175 180.872 208.007 182.453 209.795 182.875C211.582 183.297 214.093 182.768 214.615 182.346C215.138 181.924 216.818 174.786 216.818 174.786C216.818 174.786 215.874 187.701 215.459 189.383C215.043 191.065 218.92 195.368 222.696 196.105C226.472 196.842 236.642 196.836 239.266 195.998C241.891 195.16 243.672 194.946 244.509 193.371C245.346 191.796 245.874 180.563 245.981 179.826C246.088 179.089 246.925 172.373 246.925 172.373L249.65 181.615L250.701 183.505C250.701 183.505 251.224 182.346 254.477 180.456C257.731 178.566 258.776 178.358 258.776 178.358C258.776 178.358 256.888 172.165 255.736 168.593C254.584 165.021 253.426 158.513 251.96 155.886C250.494 153.259 247.869 152.106 244.301 149.901C240.733 147.696 235.49 146.436 234.861 146.121C234.232 145.806 228.624 145.34 225.345 146.568Z" fill="white" stroke="#263238" stroke-linecap="round" stroke-linejoin="round"/>
<path d="M216.818 174.785L219.034 167.105" stroke="#263238" stroke-linecap="round" stroke-linejoin="round"/>
<path d="M248.461 165.204L248.839 163.465" stroke="#263238" stroke-linecap="round" stroke-linejoin="round"/>
<path d="M246.926 172.372L248.128 166.777" stroke="#263238" stroke-linecap="round" stroke-linejoin="round"/>
<path d="M228.096 158.72L230.298 161.87L231.557 164.705L228.41 190.85L232.816 194.945L236.277 190.377L233.13 165.02L235.018 161.398L237.529 157.284L232.973 154.625L228.096 158.72Z" fill="#BA68C8" stroke="#263238" stroke-linecap="round" stroke-linejoin="round"/>
<path d="M226.561 145.442C226.561 145.442 224.377 146.016 223.899 147.332C223.42 148.649 224.087 156.662 224.755 158.376C225.298 159.663 225.929 160.911 226.643 162.112C226.643 162.112 232.483 158.376 233.527 158.187C234.572 157.998 240.57 161.142 240.57 161.142C240.57 161.142 240.758 157.425 238.682 152.19C236.605 146.954 231.759 143.999 229.644 143.804C229.028 143.753 228.409 143.88 227.862 144.17C227.316 144.46 226.864 144.902 226.561 145.442Z" fill="white" stroke="#263238" stroke-linecap="round" stroke-linejoin="round"/>
<path d="M225.691 144.778C225.691 144.778 225.981 148.11 226.264 150.391C226.547 152.672 230.072 160.206 231.299 161.252C232.526 162.298 235.075 158.871 235.962 157.346C236.336 156.653 236.756 155.985 237.221 155.349C237.221 155.349 231.135 152.394 229.235 148.967C227.334 145.54 227.516 143.927 226.661 143.82C225.805 143.713 225.691 144.778 225.691 144.778Z" fill="white" stroke="#263238" stroke-linecap="round" stroke-linejoin="round"/>
<path d="M228.764 152.969L233.44 160.529C233.44 160.529 235.592 158.538 235.957 157.379C236.322 156.22 228.764 152.969 228.764 152.969Z" fill="#263238" stroke="#263238" stroke-linecap="round" stroke-linejoin="round"/>
<path d="M223.861 139.43C223.455 140.522 223.303 141.692 223.415 142.851C223.559 144.936 224.749 146.423 225.347 146.568C225.886 146.67 226.434 146.721 226.983 146.719C226.983 146.719 227.128 150.436 228.764 152.969C230.4 155.502 235.9 159.067 237.53 157.284C239.16 155.502 241.25 148.357 241.992 144.936C242.46 142.725 242.806 140.489 243.031 138.24L232.036 135.72L226.832 134.535L223.861 139.43Z" fill="white" stroke="#263238" stroke-linecap="round" stroke-linejoin="round"/>
<path d="M230.249 137.969C230.249 137.969 230.847 139.903 229.657 141.119C228.468 142.335 228.021 142.31 228.021 142.31C228.021 142.31 228.317 144.244 227.87 144.244C227.674 144.247 227.478 144.211 227.296 144.137C227.114 144.063 226.949 143.953 226.81 143.814C226.671 143.675 226.562 143.509 226.489 143.326C226.416 143.143 226.381 142.948 226.385 142.751C226.347 141.953 226.09 141.182 225.642 140.521L223.861 139.481C223.429 137.315 223.479 135.08 224.006 132.936C224.9 129.515 231.287 128.173 236.643 128.324C241.999 128.475 243.326 135.317 243.326 135.317C244.459 135.831 245.553 136.426 246.599 137.1C247.046 137.547 247.493 138.587 244.963 139.929C242.433 141.27 237.977 141.711 235.302 140.672C233.531 139.945 231.837 139.04 230.249 137.969Z" fill="#263238" stroke="#263238" stroke-linecap="round" stroke-linejoin="round"/>
<path d="M233.855 145.884C233.678 146.438 233.32 146.816 233.043 146.734C232.766 146.652 232.684 146.104 232.854 145.575C233.024 145.046 233.389 144.643 233.66 144.731C233.93 144.819 234.025 145.336 233.855 145.884Z" fill="#263238"/>
<path d="M240.035 146.361C239.865 146.915 239.5 147.293 239.229 147.205C238.959 147.117 238.864 146.575 239.034 146.052C239.204 145.529 239.569 145.12 239.846 145.202C240.123 145.284 240.205 145.807 240.035 146.361Z" fill="#263238"/>
<path d="M231.596 144.016C231.596 144.016 232.552 142.586 234.742 143.159" stroke="#263238" stroke-linecap="round" stroke-linejoin="round"/>
<path d="M238.348 143.824C238.542 143.638 238.773 143.495 239.026 143.404C239.279 143.313 239.548 143.275 239.816 143.294C240.084 143.312 240.345 143.386 240.583 143.511C240.821 143.636 241.031 143.809 241.199 144.019" stroke="#263238" stroke-linecap="round" stroke-linejoin="round"/>
<path d="M235.372 150.684C234.466 150.712 233.57 150.872 232.709 151.156C231.281 151.635 229.192 151.062 230.142 152.303C231.092 153.544 232.898 153.922 234.799 153.922C236.699 153.922 238.418 153.827 238.99 152.97C239.563 152.114 240.413 151.257 239.752 151.156C239.091 151.055 236.517 150.873 236.227 150.873C235.936 150.841 235.649 150.778 235.372 150.684Z" fill="#263238" stroke="#263238" stroke-linecap="round" stroke-linejoin="round"/>
<path d="M237.888 145.156C237.888 145.156 237.699 150.392 237.511 151.349C237.48 151.603 237.373 151.842 237.204 152.033C237.035 152.225 236.812 152.36 236.564 152.422C236.316 152.483 236.055 152.468 235.816 152.378C235.577 152.287 235.371 152.126 235.226 151.916C234.622 151.121 234.111 150.258 233.703 149.346" fill="white"/>
<path d="M237.888 145.156C237.888 145.156 237.699 150.392 237.511 151.349C237.48 151.603 237.373 151.842 237.204 152.033C237.035 152.225 236.812 152.36 236.564 152.422C236.316 152.483 236.055 152.468 235.816 152.378C235.577 152.287 235.371 152.126 235.226 151.916C234.622 151.121 234.111 150.258 233.703 149.346" stroke="#263238" stroke-linecap="round" stroke-linejoin="round"/>
<path d="M258.147 176.045C258.147 176.045 253.615 176.788 251.727 178.048C249.839 179.308 249.179 180.405 249.651 181.614C250.055 182.802 250.582 183.945 251.224 185.022C252.011 186.282 253.427 185.337 253.427 185.337C253.295 185.197 253.194 185.03 253.13 184.847C253.066 184.665 253.04 184.472 253.055 184.279C253.07 184.087 253.125 183.899 253.216 183.729C253.307 183.559 253.432 183.409 253.584 183.29C254.685 182.187 258.776 180.612 258.776 180.612H260.192C260.821 180.612 260.192 178.88 259.72 178.092C259.248 177.305 259.248 175.73 258.147 176.045Z" fill="white" stroke="#263238" stroke-linecap="round" stroke-linejoin="round"/>
<path d="M204.811 183.605C204.811 183.605 204.811 188.173 205.125 192.74C205.44 197.308 209.216 210.065 209.216 210.065L212.992 209.12C212.992 209.12 212.835 197.15 212.835 193.37C212.835 189.59 212.677 185.023 212.677 185.023L204.811 183.605Z" fill="white" stroke="#263238" stroke-linecap="round" stroke-linejoin="round"/>
<path d="M204.125 180.427C204.149 180.229 204.223 180.042 204.342 179.882C204.46 179.723 204.618 179.597 204.8 179.517C204.982 179.438 205.181 179.407 205.378 179.428C205.576 179.45 205.764 179.522 205.925 179.639C206.961 180.328 208.141 180.769 209.374 180.931C210.88 181.199 212.416 181.247 213.936 181.076C214.089 181.055 214.244 181.074 214.387 181.129C214.531 181.184 214.658 181.274 214.757 181.392C214.857 181.509 214.926 181.649 214.957 181.8C214.988 181.95 214.981 182.106 214.937 182.254C214.54 183.558 213.943 185.334 213.464 185.813C212.678 186.601 208.902 186.601 207.014 185.971C205.126 185.341 204.654 184.868 204.182 183.293C203.994 182.348 203.975 181.378 204.125 180.427Z" fill="white" stroke="#263238" stroke-linecap="round" stroke-linejoin="round"/>
<path d="M277.498 195.893C277.857 194.748 278.508 193.717 279.386 192.901C280.802 191.641 281.432 191.326 280.016 191.168C278.6 191.011 276.869 193.216 276.869 193.216L277.498 195.893Z" fill="white" stroke="#263238" stroke-linecap="round" stroke-linejoin="round"/>
<path d="M253.426 185.338C254.387 186.306 255.504 187.105 256.73 187.701C259.09 188.961 270.89 195.418 270.89 195.418L275.138 192.898C275.138 192.898 268.53 189.906 265.541 186.756C262.551 183.606 260.191 180.613 260.191 180.613C260.191 180.613 252.325 181.086 253.426 185.338Z" fill="white" stroke="#263238" stroke-linecap="round" stroke-linejoin="round"/>
<path d="M268.846 193.685C268.846 193.685 269.475 196.993 270.576 197.15C271.678 197.308 277.027 196.835 277.499 195.89C277.971 194.945 278.286 191.638 277.499 191.48C276.712 191.323 268.846 193.685 268.846 193.685Z" fill="white" stroke="#263238" stroke-linecap="round" stroke-linejoin="round"/>
<path d="M209.694 213.896C208.953 212.951 207.98 212.215 206.869 211.761C205.1 211.086 204.402 211.011 205.673 210.362C206.944 209.713 209.336 211.168 209.336 211.168L209.694 213.896Z" fill="white" stroke="#263238" stroke-linecap="round" stroke-linejoin="round"/>
<path d="M217.007 208.773C217.007 208.773 217.586 212.087 216.611 212.623C215.635 213.158 210.468 214.607 209.688 213.883C208.907 213.158 207.447 210.178 208.133 209.756C208.819 209.334 217.007 208.773 217.007 208.773Z" fill="white" stroke="#263238" stroke-linecap="round" stroke-linejoin="round"/>
<path d="M57.8996 233.669C57.8996 233.669 58.4472 231.684 58.4598 231.558C58.6737 230.053 58.1954 227.029 56.6662 226.285C56.4084 226.17 56.1292 226.11 55.8467 226.109C55.5643 226.109 55.2849 226.168 55.0267 226.283C54.7686 226.397 54.5374 226.565 54.3482 226.775C54.159 226.985 54.016 227.232 53.9286 227.501C53.5195 228.629 54.0418 230.021 54.6523 230.96C55.3823 232.081 57.8996 233.669 57.8996 233.669Z" fill="#263238"/>
<path d="M27.7792 233.013C29.0001 233.548 31.9769 233.479 31.9832 233.479C31.9895 233.479 31.3538 231.526 31.2846 231.406C30.6553 230.039 28.5596 227.777 26.8793 228.004C26.601 228.05 26.3354 228.153 26.0999 228.308C25.8643 228.463 25.664 228.666 25.512 228.904C25.36 229.142 25.2597 229.409 25.2177 229.688C25.1757 229.967 25.1929 230.252 25.2682 230.524C25.5451 231.69 26.7408 232.559 27.7792 233.013Z" fill="#263238"/>
<path d="M28.8104 241.655C30.0691 241.838 32.7312 241.07 32.9451 241.025C33.3803 242.549 33.9186 244.042 34.5562 245.492C34.9213 246.343 35.3177 247.181 35.7205 248.012C35.4814 247.653 35.2611 247.338 35.2233 247.294C34.2353 246.147 31.6424 244.516 30.0817 245.177C29.8251 245.295 29.596 245.465 29.4095 245.677C29.2229 245.889 29.0829 246.138 28.9987 246.408C28.9144 246.678 28.8877 246.962 28.9203 247.243C28.953 247.524 29.0442 247.794 29.188 248.037C29.767 249.089 31.1515 249.606 32.2718 249.77C33.392 249.934 35.689 249.323 36.2869 249.14C36.4505 249.461 36.6016 249.77 36.7652 250.104C37.533 251.641 38.3134 253.172 39.0245 254.69C39.2762 255.226 39.5028 255.767 39.7357 256.303C39.5217 255.988 39.3329 255.723 39.3014 255.673C38.3134 254.526 35.7205 252.888 34.1598 253.556C33.904 253.674 33.6758 253.844 33.4898 254.056C33.3038 254.267 33.1642 254.516 33.08 254.785C32.9958 255.053 32.9689 255.337 33.0009 255.617C33.033 255.897 33.1233 256.167 33.2661 256.41C33.8451 257.456 35.2296 257.979 36.3498 258.143C37.4701 258.306 39.5406 257.752 40.258 257.557C40.4783 258.111 40.6985 258.672 40.8873 259.22C41.0069 259.598 41.1454 259.957 41.2461 260.341C41.3468 260.726 41.46 261.097 41.5607 261.469C41.7369 262.2 41.9194 262.943 42.0705 263.661C42.1838 264.153 42.2782 264.625 42.3726 265.104C42.1271 264.569 41.63 263.529 41.5796 263.447C40.7678 262.187 38.4329 260.152 36.8093 260.568C36.5381 260.646 36.2862 260.779 36.0701 260.961C35.854 261.142 35.6784 261.367 35.5549 261.621C35.4314 261.874 35.3627 262.151 35.3533 262.434C35.3439 262.716 35.394 262.997 35.5002 263.258C35.9093 264.386 37.1994 265.11 38.2819 265.444C39.4713 265.81 42.1145 265.476 42.4418 265.444C42.5991 266.232 42.7439 267 42.876 267.731C43.1404 269.249 43.348 270.623 43.5054 271.795H44.613C44.4242 270.579 44.1787 269.142 43.8641 267.542C43.7067 266.742 43.518 265.885 43.3229 265.022C44.118 264.703 44.8934 264.337 45.6451 263.926C46.5136 264.871 48.7414 265.973 49.0309 266.112C48.7288 266.855 48.4016 267.58 48.131 268.26C47.552 269.59 46.9982 270.78 46.5073 271.801H47.703C48.1247 270.869 48.5841 269.81 49.0561 268.651C49.3645 267.895 49.6854 267.076 50.0001 266.238C50.321 266.307 52.9328 266.837 54.1537 266.559C55.255 266.314 56.5955 265.69 57.0927 264.594C57.2173 264.343 57.288 264.068 57.3004 263.788C57.3128 263.508 57.2665 263.229 57.1646 262.968C57.0626 262.707 56.9073 262.47 56.7085 262.273C56.5097 262.075 56.2718 261.922 56.0102 261.822C54.4054 261.28 51.9447 263.082 51.0448 264.342C50.9944 264.417 50.5035 265.262 50.2015 265.797C50.3336 265.457 50.4595 265.123 50.5854 264.77C50.8434 264.065 51.0825 263.359 51.3343 262.603L51.6741 261.475C51.7937 261.104 51.8692 260.694 51.9762 260.297C52.1965 259.377 52.3727 258.407 52.53 257.481C53.1593 257.702 55.3305 258.47 56.4696 258.388C57.6087 258.306 58.987 257.891 59.6666 256.889C59.829 256.658 59.941 256.395 59.9951 256.118C60.0492 255.841 60.0444 255.555 59.9808 255.28C59.9173 255.005 59.7965 254.746 59.6263 254.521C59.4562 254.295 59.2404 254.108 58.9933 253.972C57.4829 253.191 54.7767 254.602 53.7069 255.698C53.6376 255.767 52.9517 256.618 52.5866 257.097C52.6747 256.523 52.7691 255.95 52.8384 255.364C53.0461 253.682 53.2097 251.969 53.3733 250.261C53.4237 249.738 53.4803 249.216 53.5369 248.699C53.7509 248.781 56.3375 249.738 57.6087 249.65C58.7415 249.575 60.1575 249.159 60.812 248.151C60.9742 247.919 61.0857 247.656 61.1394 247.379C61.1931 247.101 61.1877 246.816 61.1235 246.54C61.0594 246.265 60.9379 246.006 60.7671 245.781C60.5964 245.556 60.38 245.37 60.1324 245.234C58.6282 244.453 55.9221 245.864 54.846 246.96C54.7641 247.042 53.7824 248.277 53.5432 248.598C53.6691 247.452 53.8013 246.311 53.9712 245.19C54.1933 243.662 54.5107 242.149 54.9215 240.66C55.0222 240.698 57.7157 241.718 59.0184 241.624C60.1449 241.548 61.5358 241.133 62.2154 240.125C62.3778 239.894 62.4897 239.631 62.5439 239.354C62.598 239.076 62.5932 238.791 62.5296 238.516C62.4661 238.24 62.3453 237.982 62.1751 237.756C62.005 237.531 61.7892 237.344 61.5421 237.208C60.0317 236.426 57.3318 237.838 56.2557 238.934C56.1864 239.01 55.4312 239.942 55.0851 240.395L55.0033 240.351C55.467 238.881 56.0631 237.455 56.7843 236.093C57.1682 235.337 57.5773 234.631 57.9926 233.957C58.4772 234.203 60.6925 235.28 61.8756 235.324C63.0588 235.368 64.4559 235.116 65.2174 234.184C65.404 233.972 65.5439 233.723 65.6279 233.453C65.7119 233.183 65.7381 232.899 65.7049 232.618C65.6716 232.337 65.5796 232.067 65.4349 231.824C65.2902 231.582 65.096 231.372 64.8649 231.21C63.4552 230.271 60.6044 231.405 59.4212 232.35C59.3583 232.401 58.7919 232.98 58.3325 233.434C58.5213 233.132 58.7164 232.804 58.9052 232.533C59.6163 231.462 60.3337 230.53 60.9757 229.704C61.3407 229.238 61.6805 228.822 62.0078 228.444C62.6371 228.444 65.0097 228.363 66.0544 227.871C67.0991 227.38 68.257 226.485 68.5025 225.313C68.5705 225.039 68.58 224.754 68.5304 224.476C68.4808 224.198 68.3732 223.933 68.2146 223.7C68.0561 223.466 67.8501 223.269 67.6102 223.12C67.3703 222.971 67.1018 222.875 66.8222 222.837C65.1356 222.655 63.128 224.973 62.5112 226.359C62.4546 226.479 61.8378 228.451 61.8819 228.451H61.9197C61.5987 228.816 61.2589 229.207 60.9001 229.648C60.2708 230.46 59.503 231.38 58.7667 232.445C57.9564 233.574 57.2166 234.752 56.5514 235.973C55.7987 237.337 55.1669 238.764 54.6634 240.238C54.6634 240.238 54.6634 240.238 54.6634 240.288C54.6634 239.791 54.6634 238.398 54.6634 238.291C54.4746 236.786 53.2097 233.995 51.5168 233.686C51.2382 233.641 50.9533 233.656 50.6808 233.729C50.4083 233.803 50.1543 233.933 49.9356 234.111C49.7169 234.29 49.5384 234.513 49.4118 234.765C49.2851 235.017 49.2132 235.294 49.2008 235.576C49.1001 236.773 49.9686 237.97 50.8119 238.726C51.7622 239.576 54.4054 240.402 54.5879 240.465C54.1218 241.974 53.756 243.512 53.4929 245.07C53.3356 245.977 53.1971 246.903 53.0775 247.823C53.0775 247.395 53.0775 247.01 53.0775 246.954C52.8824 245.454 51.6238 242.657 49.9309 242.348C49.6524 242.305 49.3679 242.32 49.0958 242.394C48.8237 242.468 48.5702 242.598 48.3517 242.776C48.1332 242.955 47.9547 243.177 47.8278 243.429C47.7008 243.681 47.6283 243.957 47.6149 244.238C47.5205 245.435 48.3827 246.632 49.226 247.388C50.0693 248.144 52.3286 248.901 52.9202 249.096L52.788 250.16C52.5866 251.868 52.3916 253.569 52.1587 255.232C52.0706 255.818 51.9636 256.391 51.8629 256.971C51.8629 256.587 51.8629 256.265 51.8629 256.215C51.6678 254.709 50.4092 251.918 48.7162 251.61C48.4376 251.565 48.1527 251.58 47.8802 251.653C47.6077 251.726 47.3538 251.856 47.1351 252.035C46.9164 252.213 46.7379 252.436 46.6112 252.689C46.4846 252.941 46.4127 253.217 46.4003 253.5C46.2996 254.697 47.1681 255.894 48.0114 256.65C48.8547 257.406 50.8937 258.086 51.5986 258.319C51.4727 258.905 51.3532 259.491 51.2084 260.051C51.0951 260.436 51.0196 260.807 50.8874 261.185L50.5287 262.307C50.2707 263.006 50.0127 263.731 49.7484 264.411C49.5658 264.884 49.3833 265.331 49.2008 265.785C49.2952 265.199 49.4526 264.052 49.4526 263.958C49.4319 262.629 49.0723 261.328 48.4079 260.178C48.4204 260.029 48.4204 259.879 48.4079 259.73C48.373 259.45 48.2796 259.181 48.1338 258.939C47.9879 258.697 47.7928 258.489 47.5613 258.328C47.3297 258.167 47.0669 258.057 46.7899 258.004C46.5128 257.952 46.2279 257.958 45.9535 258.023C44.3109 258.464 43.2725 261.349 43.1907 262.861C43.1907 262.949 43.2473 263.926 43.2977 264.543C43.2096 264.184 43.1341 263.838 43.046 263.472C42.876 262.742 42.6809 262.023 42.4796 261.248L42.1397 260.127C42.0327 259.749 41.8691 259.359 41.7432 258.974C41.416 258.086 41.0447 257.204 40.6482 256.322C41.2775 256.171 43.5305 255.597 44.4242 254.898C45.3178 254.199 46.2744 253.084 46.2618 251.88C46.2696 251.595 46.2164 251.311 46.1059 251.048C45.9955 250.785 45.8302 250.548 45.6212 250.354C45.4122 250.159 45.1642 250.012 44.8938 249.921C44.6234 249.83 44.3367 249.798 44.0529 249.827C42.36 250.009 40.9062 252.706 40.5916 254.193C40.5916 254.281 40.472 255.377 40.4279 255.975C40.1888 255.446 39.9496 254.917 39.6853 254.394C38.9301 252.869 38.1246 251.351 37.319 249.839C37.0736 249.373 36.8344 248.907 36.5953 248.441C36.8218 248.39 39.5028 247.766 40.516 246.992C41.416 246.299 42.3663 245.171 42.36 243.974C42.3675 243.69 42.3146 243.407 42.2049 243.145C42.0952 242.882 41.9311 242.646 41.7235 242.452C41.5159 242.258 41.2695 242.11 41.0006 242.019C40.7317 241.927 40.4464 241.893 40.1636 241.92C38.477 242.103 37.0169 244.793 36.7023 246.28C36.7023 246.393 36.5386 247.962 36.5261 248.365C35.9911 247.338 35.4688 246.311 34.9968 245.284C34.3582 243.889 33.8096 242.454 33.3542 240.988C33.4612 240.988 36.268 240.358 37.3001 239.532C38.2001 238.839 39.1504 237.712 39.1441 236.515C39.1521 236.232 39.1005 235.951 38.9927 235.69C38.8849 235.429 38.7233 235.193 38.5184 234.999C38.3135 234.805 38.0699 234.656 37.8036 234.562C37.5373 234.468 37.2542 234.431 36.9729 234.455C35.2863 234.637 33.8262 237.327 33.5178 238.814C33.5178 238.915 33.3857 240.112 33.3479 240.704H33.2535C32.8289 239.219 32.5383 237.699 32.385 236.162C32.2906 235.318 32.2466 234.505 32.2277 233.718C32.7626 233.648 35.1982 233.327 36.2114 232.716C37.2246 232.105 38.2504 231.109 38.3763 229.912C38.4144 229.633 38.3933 229.348 38.3144 229.078C38.2355 228.807 38.1005 228.556 37.9183 228.341C37.736 228.126 37.5106 227.951 37.2566 227.829C37.0027 227.707 36.7259 227.64 36.4442 227.632C34.745 227.632 32.9955 230.152 32.5235 231.582C32.5235 231.664 32.3284 232.489 32.2151 233.094C32.2151 232.735 32.2151 232.369 32.2151 232.023C32.2151 230.763 32.3032 229.566 32.3788 228.52C32.4291 227.928 32.492 227.392 32.5487 226.895C33.0396 226.561 35.0031 225.168 35.6072 224.179C36.2114 223.19 36.6771 221.81 36.2366 220.695C36.1427 220.429 35.9936 220.186 35.7993 219.982C35.605 219.777 35.3697 219.616 35.1088 219.509C34.848 219.402 34.5675 219.351 34.2857 219.36C34.004 219.369 33.7273 219.438 33.4738 219.561C31.9634 220.343 31.5858 223.379 31.8186 224.879C31.8186 225.005 32.4102 226.989 32.448 226.976C32.3788 227.455 32.3158 227.972 32.2529 228.539C32.1522 229.578 32.0452 230.756 32.0137 232.048C31.9613 233.437 31.995 234.828 32.1144 236.212C32.23 237.768 32.4869 239.309 32.8822 240.818V240.868C32.6116 240.446 31.8249 239.299 31.7557 239.217C30.7677 238.071 28.1748 236.433 26.6141 237.101C26.3576 237.218 26.1287 237.387 25.9422 237.599C25.7556 237.81 25.6157 238.059 25.5314 238.328C25.4471 238.597 25.4203 238.881 25.4529 239.161C25.4855 239.442 25.5766 239.712 25.7204 239.955C26.3057 240.969 27.6902 241.492 28.8104 241.655Z" fill="#263238"/>
<path opacity="0.3" d="M27.7792 233.013C29.0001 233.548 31.9769 233.479 31.9832 233.479C31.9895 233.479 31.3538 231.526 31.2846 231.406C30.6553 230.039 28.5596 227.777 26.8793 228.004C26.601 228.05 26.3354 228.153 26.0999 228.308C25.8643 228.463 25.664 228.666 25.512 228.904C25.36 229.142 25.2597 229.409 25.2177 229.688C25.1757 229.967 25.1929 230.252 25.2682 230.524C25.5451 231.69 26.7408 232.559 27.7792 233.013Z" fill="#263238"/>
<path opacity="0.3" d="M57.8996 233.669C57.8996 233.669 58.4472 231.684 58.4598 231.558C58.6737 230.053 58.1954 227.029 56.6662 226.285C56.4084 226.17 56.1292 226.11 55.8467 226.109C55.5643 226.109 55.2849 226.168 55.0267 226.283C54.7686 226.397 54.5374 226.565 54.3482 226.775C54.159 226.985 54.016 227.232 53.9286 227.501C53.5195 228.629 54.0418 230.021 54.6523 230.96C55.3823 232.081 57.8996 233.669 57.8996 233.669Z" fill="#263238"/>
<path opacity="0.3" d="M28.8104 241.655C30.0691 241.838 32.7312 241.07 32.9451 241.025C33.3803 242.549 33.9186 244.042 34.5562 245.492C34.9213 246.343 35.3177 247.181 35.7205 248.012C35.4814 247.653 35.2611 247.338 35.2233 247.294C34.2353 246.147 31.6424 244.516 30.0817 245.177C29.8251 245.295 29.596 245.465 29.4095 245.677C29.2229 245.889 29.0829 246.138 28.9987 246.408C28.9144 246.678 28.8877 246.962 28.9203 247.243C28.953 247.524 29.0442 247.794 29.188 248.037C29.767 249.089 31.1515 249.606 32.2718 249.77C33.392 249.934 35.689 249.323 36.2869 249.14C36.4505 249.461 36.6016 249.77 36.7652 250.104C37.533 251.641 38.3134 253.172 39.0245 254.69C39.2762 255.226 39.5028 255.767 39.7357 256.303C39.5217 255.988 39.3329 255.723 39.3014 255.673C38.3134 254.526 35.7205 252.888 34.1598 253.556C33.904 253.674 33.6758 253.844 33.4898 254.056C33.3038 254.267 33.1642 254.516 33.08 254.785C32.9958 255.053 32.9689 255.337 33.0009 255.617C33.033 255.897 33.1233 256.167 33.2661 256.41C33.8451 257.456 35.2296 257.979 36.3498 258.143C37.4701 258.306 39.5406 257.752 40.258 257.557C40.4783 258.111 40.6985 258.672 40.8873 259.22C41.0069 259.598 41.1454 259.957 41.2461 260.341C41.3468 260.726 41.46 261.097 41.5607 261.469C41.7369 262.2 41.9194 262.943 42.0705 263.661C42.1838 264.153 42.2782 264.625 42.3726 265.104C42.1271 264.569 41.63 263.529 41.5796 263.447C40.7678 262.187 38.4329 260.152 36.8093 260.568C36.5381 260.646 36.2862 260.779 36.0701 260.961C35.854 261.142 35.6784 261.367 35.5549 261.621C35.4314 261.874 35.3627 262.151 35.3533 262.434C35.3439 262.716 35.394 262.997 35.5002 263.258C35.9093 264.386 37.1994 265.11 38.2819 265.444C39.4713 265.81 42.1145 265.476 42.4418 265.444C42.5991 266.232 42.7439 267 42.876 267.731C43.1404 269.249 43.348 270.623 43.5054 271.795H44.613C44.4242 270.579 44.1787 269.142 43.8641 267.542C43.7067 266.742 43.518 265.885 43.3229 265.022C44.118 264.703 44.8934 264.337 45.6451 263.926C46.5136 264.871 48.7414 265.973 49.0309 266.112C48.7288 266.855 48.4016 267.58 48.131 268.26C47.552 269.59 46.9982 270.78 46.5073 271.801H47.703C48.1247 270.869 48.5841 269.81 49.0561 268.651C49.3645 267.895 49.6854 267.076 50.0001 266.238C50.321 266.307 52.9328 266.837 54.1537 266.559C55.255 266.314 56.5955 265.69 57.0927 264.594C57.2173 264.343 57.288 264.068 57.3004 263.788C57.3128 263.508 57.2665 263.229 57.1646 262.968C57.0626 262.707 56.9073 262.47 56.7085 262.273C56.5097 262.075 56.2718 261.922 56.0102 261.822C54.4054 261.28 51.9447 263.082 51.0448 264.342C50.9944 264.417 50.5035 265.262 50.2015 265.797C50.3336 265.457 50.4595 265.123 50.5854 264.77C50.8434 264.065 51.0825 263.359 51.3343 262.603L51.6741 261.475C51.7937 261.104 51.8692 260.694 51.9762 260.297C52.1965 259.377 52.3727 258.407 52.53 257.481C53.1593 257.702 55.3305 258.47 56.4696 258.388C57.6087 258.306 58.987 257.891 59.6666 256.889C59.829 256.658 59.941 256.395 59.9951 256.118C60.0492 255.841 60.0444 255.555 59.9808 255.28C59.9173 255.005 59.7965 254.746 59.6263 254.521C59.4562 254.295 59.2404 254.108 58.9933 253.972C57.4829 253.191 54.7767 254.602 53.7069 255.698C53.6376 255.767 52.9517 256.618 52.5866 257.097C52.6747 256.523 52.7691 255.95 52.8384 255.364C53.0461 253.682 53.2097 251.969 53.3733 250.261C53.4237 249.738 53.4803 249.216 53.5369 248.699C53.7509 248.781 56.3375 249.738 57.6087 249.65C58.7415 249.575 60.1575 249.159 60.812 248.151C60.9742 247.919 61.0857 247.656 61.1394 247.379C61.1931 247.101 61.1877 246.816 61.1235 246.54C61.0594 246.265 60.9379 246.006 60.7671 245.781C60.5964 245.556 60.38 245.37 60.1324 245.234C58.6282 244.453 55.9221 245.864 54.846 246.96C54.7641 247.042 53.7824 248.277 53.5432 248.598C53.6691 247.452 53.8013 246.311 53.9712 245.19C54.1933 243.662 54.5107 242.149 54.9215 240.66C55.0222 240.698 57.7157 241.718 59.0184 241.624C60.1449 241.548 61.5358 241.133 62.2154 240.125C62.3778 239.894 62.4897 239.631 62.5439 239.354C62.598 239.076 62.5932 238.791 62.5296 238.516C62.4661 238.24 62.3453 237.982 62.1751 237.756C62.005 237.531 61.7892 237.344 61.5421 237.208C60.0317 236.426 57.3318 237.838 56.2557 238.934C56.1864 239.01 55.4312 239.942 55.0851 240.395L55.0033 240.351C55.467 238.881 56.0631 237.455 56.7843 236.093C57.1682 235.337 57.5773 234.631 57.9926 233.957C58.4772 234.203 60.6925 235.28 61.8756 235.324C63.0588 235.368 64.4559 235.116 65.2174 234.184C65.404 233.972 65.5439 233.723 65.6279 233.453C65.7119 233.183 65.7381 232.899 65.7049 232.618C65.6716 232.337 65.5796 232.067 65.4349 231.824C65.2902 231.582 65.096 231.372 64.8649 231.21C63.4552 230.271 60.6044 231.405 59.4212 232.35C59.3583 232.401 58.7919 232.98 58.3325 233.434C58.5213 233.132 58.7164 232.804 58.9052 232.533C59.6163 231.462 60.3337 230.53 60.9757 229.704C61.3407 229.238 61.6805 228.822 62.0078 228.444C62.6371 228.444 65.0097 228.363 66.0544 227.871C67.0991 227.38 68.257 226.485 68.5025 225.313C68.5705 225.039 68.58 224.754 68.5304 224.476C68.4808 224.198 68.3732 223.933 68.2146 223.7C68.0561 223.466 67.8501 223.269 67.6102 223.12C67.3703 222.971 67.1018 222.875 66.8222 222.837C65.1356 222.655 63.128 224.973 62.5112 226.359C62.4546 226.479 61.8378 228.451 61.8819 228.451H61.9197C61.5987 228.816 61.2589 229.207 60.9001 229.648C60.2708 230.46 59.503 231.38 58.7667 232.445C57.9564 233.574 57.2166 234.752 56.5514 235.973C55.7987 237.337 55.1669 238.764 54.6634 240.238C54.6634 240.238 54.6634 240.238 54.6634 240.288C54.6634 239.791 54.6634 238.398 54.6634 238.291C54.4746 236.786 53.2097 233.995 51.5168 233.686C51.2382 233.641 50.9533 233.656 50.6808 233.729C50.4083 233.803 50.1543 233.933 49.9356 234.111C49.7169 234.29 49.5384 234.513 49.4118 234.765C49.2851 235.017 49.2132 235.294 49.2008 235.576C49.1001 236.773 49.9686 237.97 50.8119 238.726C51.7622 239.576 54.4054 240.402 54.5879 240.465C54.1218 241.974 53.756 243.512 53.4929 245.07C53.3356 245.977 53.1971 246.903 53.0775 247.823C53.0775 247.395 53.0775 247.01 53.0775 246.954C52.8824 245.454 51.6238 242.657 49.9309 242.348C49.6524 242.305 49.3679 242.32 49.0958 242.394C48.8237 242.468 48.5702 242.598 48.3517 242.776C48.1332 242.955 47.9547 243.177 47.8278 243.429C47.7008 243.681 47.6283 243.957 47.6149 244.238C47.5205 245.435 48.3827 246.632 49.226 247.388C50.0693 248.144 52.3286 248.901 52.9202 249.096L52.788 250.16C52.5866 251.868 52.3916 253.569 52.1587 255.232C52.0706 255.818 51.9636 256.391 51.8629 256.971C51.8629 256.587 51.8629 256.265 51.8629 256.215C51.6678 254.709 50.4092 251.918 48.7162 251.61C48.4376 251.565 48.1527 251.58 47.8802 251.653C47.6077 251.726 47.3538 251.856 47.1351 252.035C46.9164 252.213 46.7379 252.436 46.6112 252.689C46.4846 252.941 46.4127 253.217 46.4003 253.5C46.2996 254.697 47.1681 255.894 48.0114 256.65C48.8547 257.406 50.8937 258.086 51.5986 258.319C51.4727 258.905 51.3532 259.491 51.2084 260.051C51.0951 260.436 51.0196 260.807 50.8874 261.185L50.5287 262.307C50.2707 263.006 50.0127 263.731 49.7484 264.411C49.5658 264.884 49.3833 265.331 49.2008 265.785C49.2952 265.199 49.4526 264.052 49.4526 263.958C49.4319 262.629 49.0723 261.328 48.4079 260.178C48.4204 260.029 48.4204 259.879 48.4079 259.73C48.373 259.45 48.2796 259.181 48.1338 258.939C47.9879 258.697 47.7928 258.489 47.5613 258.328C47.3297 258.167 47.0669 258.057 46.7899 258.004C46.5128 257.952 46.2279 257.958 45.9535 258.023C44.3109 258.464 43.2725 261.349 43.1907 262.861C43.1907 262.949 43.2473 263.926 43.2977 264.543C43.2096 264.184 43.1341 263.838 43.046 263.472C42.876 262.742 42.6809 262.023 42.4796 261.248L42.1397 260.127C42.0327 259.749 41.8691 259.359 41.7432 258.974C41.416 258.086 41.0447 257.204 40.6482 256.322C41.2775 256.171 43.5305 255.597 44.4242 254.898C45.3178 254.199 46.2744 253.084 46.2618 251.88C46.2696 251.595 46.2164 251.311 46.1059 251.048C45.9955 250.785 45.8302 250.548 45.6212 250.354C45.4122 250.159 45.1642 250.012 44.8938 249.921C44.6234 249.83 44.3367 249.798 44.0529 249.827C42.36 250.009 40.9062 252.706 40.5916 254.193C40.5916 254.281 40.472 255.377 40.4279 255.975C40.1888 255.446 39.9496 254.917 39.6853 254.394C38.9301 252.869 38.1246 251.351 37.319 249.839C37.0736 249.373 36.8344 248.907 36.5953 248.441C36.8218 248.39 39.5028 247.766 40.516 246.992C41.416 246.299 42.3663 245.171 42.36 243.974C42.3675 243.69 42.3146 243.407 42.2049 243.145C42.0952 242.882 41.9311 242.646 41.7235 242.452C41.5159 242.258 41.2695 242.11 41.0006 242.019C40.7317 241.927 40.4464 241.893 40.1636 241.92C38.477 242.103 37.0169 244.793 36.7023 246.28C36.7023 246.393 36.5386 247.962 36.5261 248.365C35.9911 247.338 35.4688 246.311 34.9968 245.284C34.3582 243.889 33.8096 242.454 33.3542 240.988C33.4612 240.988 36.268 240.358 37.3001 239.532C38.2001 238.839 39.1504 237.712 39.1441 236.515C39.1521 236.232 39.1005 235.951 38.9927 235.69C38.8849 235.429 38.7233 235.193 38.5184 234.999C38.3135 234.805 38.0699 234.656 37.8036 234.562C37.5373 234.468 37.2542 234.431 36.9729 234.455C35.2863 234.637 33.8262 237.327 33.5178 238.814C33.5178 238.915 33.3857 240.112 33.3479 240.704H33.2535C32.8289 239.219 32.5383 237.699 32.385 236.162C32.2906 235.318 32.2466 234.505 32.2277 233.718C32.7626 233.648 35.1982 233.327 36.2114 232.716C37.2246 232.105 38.2504 231.109 38.3763 229.912C38.4144 229.633 38.3933 229.348 38.3144 229.078C38.2355 228.807 38.1005 228.556 37.9183 228.341C37.736 228.126 37.5106 227.951 37.2566 227.829C37.0027 227.707 36.7259 227.64 36.4442 227.632C34.745 227.632 32.9955 230.152 32.5235 231.582C32.5235 231.664 32.3284 232.489 32.2151 233.094C32.2151 232.735 32.2151 232.369 32.2151 232.023C32.2151 230.763 32.3032 229.566 32.3788 228.52C32.4291 227.928 32.492 227.392 32.5487 226.895C33.0396 226.561 35.0031 225.168 35.6072 224.179C36.2114 223.19 36.6771 221.81 36.2366 220.695C36.1427 220.429 35.9936 220.186 35.7993 219.982C35.605 219.777 35.3697 219.616 35.1088 219.509C34.848 219.402 34.5675 219.351 34.2857 219.36C34.004 219.369 33.7273 219.438 33.4738 219.561C31.9634 220.343 31.5858 223.379 31.8186 224.879C31.8186 225.005 32.4102 226.989 32.448 226.976C32.3788 227.455 32.3158 227.972 32.2529 228.539C32.1522 229.578 32.0452 230.756 32.0137 232.048C31.9613 233.437 31.995 234.828 32.1144 236.212C32.23 237.768 32.4869 239.309 32.8822 240.818V240.868C32.6116 240.446 31.8249 239.299 31.7557 239.217C30.7677 238.071 28.1748 236.433 26.6141 237.101C26.3576 237.218 26.1287 237.387 25.9422 237.599C25.7556 237.81 25.6157 238.059 25.5314 238.328C25.4471 238.597 25.4203 238.881 25.4529 239.161C25.4855 239.442 25.5766 239.712 25.7204 239.955C26.3057 240.969 27.6902 241.492 28.8104 241.655Z" fill="#263238"/>
<path d="M440.105 233.669C440.105 233.669 440.646 231.684 440.665 231.558C440.873 230.053 440.395 227.029 438.865 226.285C438.607 226.17 438.328 226.11 438.046 226.109C437.763 226.109 437.484 226.168 437.226 226.283C436.968 226.397 436.736 226.565 436.547 226.775C436.358 226.985 436.215 227.232 436.128 227.501C435.719 228.629 436.241 230.021 436.858 230.96C437.575 232.081 440.099 233.669 440.105 233.669Z" fill="#263238"/>
<path d="M409.955 233.013C411.176 233.548 414.153 233.479 414.159 233.479C414.165 233.479 413.53 231.526 413.46 231.406C412.831 230.039 410.742 227.777 409.055 228.004C408.777 228.05 408.511 228.153 408.276 228.308C408.04 228.463 407.84 228.666 407.688 228.904C407.536 229.142 407.435 229.409 407.393 229.688C407.351 229.967 407.369 230.252 407.444 230.524C407.721 231.69 408.917 232.559 409.955 233.013Z" fill="#263238"/>
<path d="M410.986 241.655C412.244 241.837 414.907 241.069 415.12 241.025C415.558 242.547 416.097 244.04 416.732 245.491C417.097 246.342 417.493 247.18 417.902 248.011L417.405 247.293C416.411 246.146 413.818 244.515 412.257 245.176C412.001 245.295 411.773 245.466 411.587 245.678C411.401 245.89 411.261 246.139 411.177 246.408C411.093 246.677 411.066 246.962 411.098 247.242C411.13 247.522 411.22 247.793 411.363 248.036C411.942 249.089 413.327 249.605 414.447 249.769C415.567 249.933 417.864 249.322 418.469 249.139L418.941 250.103C419.708 251.64 420.489 253.171 421.2 254.689C421.452 255.225 421.684 255.767 421.911 256.302C421.697 255.987 421.514 255.722 421.483 255.672C420.489 254.525 417.896 252.887 416.335 253.555C416.078 253.673 415.849 253.843 415.663 254.055C415.476 254.267 415.336 254.516 415.252 254.786C415.168 255.056 415.141 255.34 415.174 255.621C415.206 255.902 415.298 256.172 415.441 256.415C416.02 257.461 417.405 257.984 418.525 258.148C419.645 258.312 421.722 257.757 422.433 257.562C422.654 258.116 422.874 258.677 423.063 259.225C423.182 259.603 423.327 259.962 423.421 260.347C423.516 260.731 423.635 261.103 423.736 261.474C423.912 262.205 424.095 262.949 424.246 263.667C424.359 264.158 424.453 264.631 424.548 265.109C424.309 264.574 423.805 263.534 423.755 263.453C422.949 262.193 420.608 260.158 418.985 260.573C418.713 260.651 418.462 260.785 418.245 260.966C418.029 261.147 417.854 261.372 417.73 261.626C417.607 261.88 417.538 262.157 417.529 262.439C417.519 262.721 417.569 263.002 417.676 263.264C418.085 264.391 419.375 265.116 420.457 265.45C421.647 265.815 424.29 265.481 424.617 265.45C424.774 266.237 424.926 267.006 425.051 267.737C425.316 269.255 425.523 270.628 425.681 271.8H426.788C426.6 270.584 426.354 269.148 426.039 267.548C425.882 266.747 425.7 265.891 425.498 265.028C426.293 264.709 427.069 264.342 427.82 263.931C428.689 264.876 430.917 265.979 431.206 266.117C430.904 266.861 430.577 267.585 430.306 268.266C429.727 269.595 429.18 270.786 428.683 271.806H429.885C430.3 270.874 430.759 269.816 431.231 268.656C431.546 267.9 431.861 267.081 432.175 266.243C432.496 266.313 435.108 266.842 436.329 266.565C437.437 266.319 438.771 265.695 439.268 264.599C439.393 264.346 439.463 264.069 439.474 263.787C439.485 263.504 439.436 263.223 439.331 262.961C439.226 262.699 439.067 262.462 438.864 262.265C438.661 262.069 438.419 261.917 438.154 261.821C436.549 261.279 434.089 263.081 433.189 264.341C433.138 264.416 432.647 265.261 432.345 265.796C432.477 265.456 432.603 265.122 432.729 264.769C432.987 264.064 433.226 263.358 433.478 262.602L433.818 261.474C433.938 261.103 434.019 260.693 434.12 260.296C434.34 259.376 434.517 258.406 434.674 257.48C435.303 257.701 437.481 258.469 438.614 258.387C439.746 258.305 441.131 257.89 441.811 256.888C441.973 256.657 442.085 256.394 442.139 256.117C442.193 255.84 442.188 255.554 442.125 255.279C442.061 255.004 441.94 254.745 441.77 254.52C441.6 254.294 441.384 254.107 441.137 253.971C439.627 253.19 436.921 254.601 435.851 255.697C435.781 255.767 435.096 256.617 434.731 257.096C434.819 256.523 434.913 255.949 434.982 255.363C435.196 253.681 435.354 251.968 435.517 250.26C435.568 249.737 435.624 249.215 435.681 248.698C435.901 248.78 438.481 249.737 439.753 249.649C440.885 249.574 442.27 249.158 442.956 248.15C443.117 247.918 443.228 247.656 443.282 247.379C443.336 247.102 443.33 246.816 443.267 246.541C443.204 246.267 443.083 246.008 442.914 245.783C442.744 245.557 442.529 245.37 442.283 245.233C440.772 244.452 438.066 245.863 436.99 246.959C436.908 247.041 435.926 248.276 435.693 248.597C435.813 247.451 435.945 246.31 436.121 245.189C436.35 243.672 436.676 242.172 437.097 240.697C437.197 240.735 439.891 241.755 441.194 241.661C442.327 241.585 443.743 241.169 444.397 240.161C444.558 239.93 444.669 239.667 444.722 239.389C444.775 239.112 444.77 238.827 444.706 238.552C444.641 238.277 444.52 238.018 444.35 237.793C444.18 237.568 443.964 237.381 443.717 237.245C442.213 236.463 439.507 237.875 438.431 238.971C438.362 239.046 437.607 239.979 437.26 240.432L437.179 240.388C437.642 238.918 438.238 237.492 438.96 236.129C439.344 235.373 439.753 234.668 440.168 233.994C440.653 234.239 442.868 235.317 444.051 235.361C445.234 235.405 446.638 235.153 447.393 234.221C447.58 234.009 447.72 233.76 447.804 233.491C447.889 233.221 447.916 232.937 447.883 232.656C447.85 232.376 447.759 232.105 447.615 231.862C447.471 231.62 447.277 231.41 447.047 231.247C445.631 230.308 442.786 231.442 441.597 232.387C441.534 232.438 440.936 233.017 440.508 233.471C440.697 233.168 440.892 232.841 441.08 232.57C441.792 231.499 442.509 230.567 443.151 229.741C443.516 229.275 443.862 228.859 444.183 228.481C444.812 228.481 447.185 228.399 448.236 227.908C449.287 227.417 450.432 226.522 450.678 225.35C450.746 225.076 450.755 224.791 450.706 224.513C450.656 224.235 450.549 223.97 450.39 223.737C450.231 223.503 450.025 223.305 449.786 223.157C449.546 223.008 449.277 222.912 448.998 222.874C447.311 222.692 445.303 225.01 444.687 226.396C444.636 226.516 444.013 228.488 444.057 228.488H444.095C443.774 228.853 443.466 229.244 443.075 229.685C442.446 230.497 441.678 231.417 440.942 232.482C440.134 233.612 439.394 234.791 438.727 236.01C437.974 237.373 437.342 238.801 436.839 240.275C436.839 240.275 436.839 240.275 436.839 240.325C436.839 239.828 436.839 238.435 436.839 238.328C436.644 236.822 435.379 234.032 433.692 233.723C433.414 233.678 433.129 233.693 432.856 233.766C432.584 233.84 432.33 233.97 432.111 234.148C431.892 234.327 431.714 234.549 431.587 234.802C431.46 235.054 431.389 235.331 431.376 235.613C431.275 236.81 432.144 238.007 432.987 238.763C433.938 239.613 436.587 240.439 436.763 240.502C436.287 242.014 435.915 243.557 435.649 245.12C435.486 246.027 435.347 246.953 435.228 247.873C435.228 247.444 435.228 247.06 435.228 247.003C435.033 245.504 433.774 242.707 432.081 242.398C431.802 242.354 431.517 242.37 431.245 242.443C430.973 242.517 430.719 242.647 430.5 242.826C430.281 243.004 430.102 243.226 429.974 243.478C429.846 243.73 429.773 244.006 429.759 244.288C429.664 245.485 430.527 246.682 431.376 247.438C432.226 248.194 434.472 248.95 435.064 249.145L434.932 250.21C434.73 251.917 434.535 253.618 434.303 255.281C434.214 255.867 434.114 256.441 434.007 257.02C434.007 256.636 434.007 256.315 434.007 256.264C433.812 254.759 432.553 251.968 430.86 251.659C430.582 251.614 430.297 251.629 430.024 251.702C429.752 251.776 429.498 251.906 429.279 252.084C429.06 252.263 428.882 252.486 428.755 252.738C428.628 252.99 428.557 253.267 428.544 253.549C428.45 254.746 429.312 255.943 430.155 256.699C430.999 257.455 433.038 258.135 433.742 258.368C433.617 258.954 433.497 259.54 433.352 260.101C433.239 260.485 433.163 260.857 433.031 261.235L432.673 262.356C432.415 263.056 432.157 263.78 431.892 264.461C431.71 264.933 431.527 265.38 431.351 265.834C431.439 265.248 431.596 264.101 431.596 264.007C431.576 262.678 431.216 261.377 430.552 260.227C430.564 260.078 430.564 259.928 430.552 259.78C430.516 259.499 430.422 259.23 430.275 258.988C430.129 258.746 429.933 258.538 429.701 258.377C429.469 258.216 429.206 258.106 428.929 258.053C428.651 258.001 428.366 258.007 428.091 258.072C426.448 258.513 425.41 261.399 425.335 262.911C425.335 262.999 425.385 263.975 425.435 264.593C425.353 264.234 425.272 263.887 425.184 263.522C425.014 262.791 424.819 262.073 424.617 261.298L424.277 260.177C424.17 259.799 424.013 259.408 423.881 259.024C423.554 258.135 423.182 257.253 422.786 256.371C423.415 256.22 425.668 255.647 426.562 254.948C427.455 254.248 428.412 253.133 428.406 251.93C428.413 251.648 428.36 251.367 428.252 251.106C428.144 250.846 427.983 250.611 427.778 250.416C427.573 250.222 427.33 250.073 427.064 249.979C426.798 249.885 426.516 249.848 426.235 249.87C424.548 250.052 423.088 252.749 422.773 254.236C422.773 254.324 422.654 255.42 422.61 256.019C422.37 255.489 422.131 254.96 421.873 254.437C421.118 252.913 420.306 251.394 419.501 249.882C419.255 249.416 419.016 248.95 418.777 248.484C419.003 248.433 421.691 247.81 422.698 247.035C423.598 246.342 424.548 245.214 424.542 244.017C424.55 243.735 424.498 243.454 424.39 243.192C424.282 242.931 424.121 242.696 423.916 242.501C423.711 242.307 423.467 242.158 423.201 242.064C422.935 241.97 422.652 241.934 422.37 241.957C420.684 242.14 419.224 244.83 418.909 246.317C418.909 246.43 418.745 247.999 418.733 248.402C418.198 247.375 417.682 246.348 417.21 245.321C416.563 243.929 416.008 242.496 415.548 241.031C415.655 241.031 418.462 240.401 419.494 239.576C420.394 238.883 421.382 237.755 421.338 236.558C421.346 236.275 421.295 235.994 421.187 235.733C421.079 235.472 420.917 235.236 420.713 235.042C420.508 234.848 420.264 234.699 419.998 234.605C419.732 234.511 419.448 234.475 419.167 234.498C417.48 234.68 416.02 237.371 415.712 238.857C415.712 238.958 415.58 240.155 415.542 240.747H415.448C415.023 239.262 414.733 237.742 414.579 236.205C414.485 235.361 414.447 234.548 414.422 233.761C414.957 233.691 417.399 233.37 418.406 232.759C419.413 232.148 420.445 231.152 420.571 229.955C420.609 229.676 420.588 229.392 420.509 229.121C420.43 228.85 420.295 228.599 420.112 228.384C419.93 228.169 419.705 227.994 419.451 227.872C419.197 227.75 418.92 227.683 418.638 227.675C416.939 227.675 415.19 230.195 414.724 231.625C414.724 231.707 414.529 232.532 414.409 233.137C414.409 232.778 414.409 232.412 414.409 232.066C414.409 230.806 414.491 229.609 414.573 228.563C414.623 227.971 414.68 227.435 414.737 226.938C415.227 226.604 417.191 225.212 417.795 224.222C418.399 223.233 418.871 221.854 418.424 220.739C418.33 220.472 418.18 220.229 417.985 220.024C417.79 219.82 417.554 219.659 417.293 219.552C417.032 219.445 416.751 219.394 416.469 219.403C416.186 219.412 415.909 219.481 415.655 219.605C414.145 220.386 413.767 223.422 414 224.922C414 225.048 414.592 227.032 414.63 227.02C414.56 227.498 414.497 228.015 414.435 228.582C414.334 229.622 414.227 230.8 414.195 232.091C414.149 233.48 414.183 234.87 414.296 236.255C414.418 237.81 414.675 239.351 415.064 240.861V240.911C414.8 240.489 414.013 239.342 413.937 239.261C412.949 238.114 410.356 236.476 408.796 237.144C408.539 237.261 408.31 237.431 408.124 237.642C407.937 237.854 407.797 238.102 407.713 238.371C407.629 238.64 407.602 238.924 407.635 239.205C407.667 239.485 407.758 239.755 407.902 239.998C408.481 240.968 409.866 241.491 410.986 241.655Z" fill="#263238"/>
<path opacity="0.3" d="M409.955 233.013C411.176 233.548 414.153 233.479 414.159 233.479C414.165 233.479 413.53 231.526 413.46 231.406C412.831 230.039 410.742 227.777 409.055 228.004C408.777 228.05 408.511 228.153 408.276 228.308C408.04 228.463 407.84 228.666 407.688 228.904C407.536 229.142 407.435 229.409 407.393 229.688C407.351 229.967 407.369 230.252 407.444 230.524C407.721 231.69 408.917 232.559 409.955 233.013Z" fill="#263238"/>
<path opacity="0.3" d="M440.105 233.669C440.105 233.669 440.646 231.684 440.665 231.558C440.873 230.053 440.395 227.029 438.865 226.285C438.607 226.17 438.328 226.11 438.046 226.109C437.763 226.109 437.484 226.168 437.226 226.283C436.968 226.397 436.736 226.565 436.547 226.775C436.358 226.985 436.215 227.232 436.128 227.501C435.719 228.629 436.241 230.021 436.858 230.96C437.575 232.081 440.099 233.669 440.105 233.669Z" fill="#263238"/>
<path opacity="0.3" d="M410.986 241.655C412.244 241.837 414.907 241.069 415.12 241.025C415.558 242.547 416.097 244.04 416.732 245.491C417.097 246.342 417.493 247.18 417.902 248.011L417.405 247.293C416.411 246.146 413.818 244.515 412.257 245.176C412.001 245.295 411.773 245.466 411.587 245.678C411.401 245.89 411.261 246.139 411.177 246.408C411.093 246.677 411.066 246.962 411.098 247.242C411.13 247.522 411.22 247.793 411.363 248.036C411.942 249.089 413.327 249.605 414.447 249.769C415.567 249.933 417.864 249.322 418.469 249.139L418.941 250.103C419.708 251.64 420.489 253.171 421.2 254.689C421.452 255.225 421.684 255.767 421.911 256.302C421.697 255.987 421.514 255.722 421.483 255.672C420.489 254.525 417.896 252.887 416.335 253.555C416.078 253.673 415.849 253.843 415.663 254.055C415.476 254.267 415.336 254.516 415.252 254.786C415.168 255.056 415.141 255.34 415.174 255.621C415.206 255.902 415.298 256.172 415.441 256.415C416.02 257.461 417.405 257.984 418.525 258.148C419.645 258.312 421.722 257.757 422.433 257.562C422.654 258.116 422.874 258.677 423.063 259.225C423.182 259.603 423.327 259.962 423.421 260.347C423.516 260.731 423.635 261.103 423.736 261.474C423.912 262.205 424.095 262.949 424.246 263.667C424.359 264.158 424.453 264.631 424.548 265.109C424.309 264.574 423.805 263.534 423.755 263.453C422.949 262.193 420.608 260.158 418.985 260.573C418.713 260.651 418.462 260.785 418.245 260.966C418.029 261.147 417.854 261.372 417.73 261.626C417.607 261.88 417.538 262.157 417.529 262.439C417.519 262.721 417.569 263.002 417.676 263.264C418.085 264.391 419.375 265.116 420.457 265.45C421.647 265.815 424.29 265.481 424.617 265.45C424.774 266.237 424.926 267.006 425.051 267.737C425.316 269.255 425.523 270.628 425.681 271.8H426.788C426.6 270.584 426.354 269.148 426.039 267.548C425.882 266.747 425.7 265.891 425.498 265.028C426.293 264.709 427.069 264.342 427.82 263.931C428.689 264.876 430.917 265.979 431.206 266.117C430.904 266.861 430.577 267.585 430.306 268.266C429.727 269.595 429.18 270.786 428.683 271.806H429.885C430.3 270.874 430.759 269.816 431.231 268.656C431.546 267.9 431.861 267.081 432.175 266.243C432.496 266.313 435.108 266.842 436.329 266.565C437.437 266.319 438.771 265.695 439.268 264.599C439.393 264.346 439.463 264.069 439.474 263.787C439.485 263.504 439.436 263.223 439.331 262.961C439.226 262.699 439.067 262.462 438.864 262.265C438.661 262.069 438.419 261.917 438.154 261.821C436.549 261.279 434.089 263.081 433.189 264.341C433.138 264.416 432.647 265.261 432.345 265.796C432.477 265.456 432.603 265.122 432.729 264.769C432.987 264.064 433.226 263.358 433.478 262.602L433.818 261.474C433.938 261.103 434.019 260.693 434.12 260.296C434.34 259.376 434.517 258.406 434.674 257.48C435.303 257.701 437.481 258.469 438.614 258.387C439.746 258.305 441.131 257.89 441.811 256.888C441.973 256.657 442.085 256.394 442.139 256.117C442.193 255.84 442.188 255.554 442.125 255.279C442.061 255.004 441.94 254.745 441.77 254.52C441.6 254.294 441.384 254.107 441.137 253.971C439.627 253.19 436.921 254.601 435.851 255.697C435.781 255.767 435.096 256.617 434.731 257.096C434.819 256.523 434.913 255.949 434.982 255.363C435.196 253.681 435.354 251.968 435.517 250.26C435.568 249.737 435.624 249.215 435.681 248.698C435.901 248.78 438.481 249.737 439.753 249.649C440.885 249.574 442.27 249.158 442.956 248.15C443.117 247.918 443.228 247.656 443.282 247.379C443.336 247.102 443.33 246.816 443.267 246.541C443.204 246.267 443.083 246.008 442.914 245.783C442.744 245.557 442.529 245.37 442.283 245.233C440.772 244.452 438.066 245.863 436.99 246.959C436.908 247.041 435.926 248.276 435.693 248.597C435.813 247.451 435.945 246.31 436.121 245.189C436.35 243.672 436.676 242.172 437.097 240.697C437.197 240.735 439.891 241.755 441.194 241.661C442.327 241.585 443.743 241.169 444.397 240.161C444.558 239.93 444.669 239.667 444.722 239.389C444.775 239.112 444.77 238.827 444.706 238.552C444.641 238.277 444.52 238.018 444.35 237.793C444.18 237.568 443.964 237.381 443.717 237.245C442.213 236.463 439.507 237.875 438.431 238.971C438.362 239.046 437.607 239.979 437.26 240.432L437.179 240.388C437.642 238.918 438.238 237.492 438.96 236.129C439.344 235.373 439.753 234.668 440.168 233.994C440.653 234.239 442.868 235.317 444.051 235.361C445.234 235.405 446.638 235.153 447.393 234.221C447.58 234.009 447.72 233.76 447.804 233.491C447.889 233.221 447.916 232.937 447.883 232.656C447.85 232.376 447.759 232.105 447.615 231.862C447.471 231.62 447.277 231.41 447.047 231.247C445.631 230.308 442.786 231.442 441.597 232.387C441.534 232.438 440.936 233.017 440.508 233.471C440.697 233.168 440.892 232.841 441.08 232.57C441.792 231.499 442.509 230.567 443.151 229.741C443.516 229.275 443.862 228.859 444.183 228.481C444.812 228.481 447.185 228.399 448.236 227.908C449.287 227.417 450.432 226.522 450.678 225.35C450.746 225.076 450.755 224.791 450.706 224.513C450.656 224.235 450.549 223.97 450.39 223.737C450.231 223.503 450.025 223.305 449.786 223.157C449.546 223.008 449.277 222.912 448.998 222.874C447.311 222.692 445.303 225.01 444.687 226.396C444.636 226.516 444.013 228.488 444.057 228.488H444.095C443.774 228.853 443.466 229.244 443.075 229.685C442.446 230.497 441.678 231.417 440.942 232.482C440.134 233.612 439.394 234.791 438.727 236.01C437.974 237.373 437.342 238.801 436.839 240.275C436.839 240.275 436.839 240.275 436.839 240.325C436.839 239.828 436.839 238.435 436.839 238.328C436.644 236.822 435.379 234.032 433.692 233.723C433.414 233.678 433.129 233.693 432.856 233.766C432.584 233.84 432.33 233.97 432.111 234.148C431.892 234.327 431.714 234.549 431.587 234.802C431.46 235.054 431.389 235.331 431.376 235.613C431.275 236.81 432.144 238.007 432.987 238.763C433.938 239.613 436.587 240.439 436.763 240.502C436.287 242.014 435.915 243.557 435.649 245.12C435.486 246.027 435.347 246.953 435.228 247.873C435.228 247.444 435.228 247.06 435.228 247.003C435.033 245.504 433.774 242.707 432.081 242.398C431.802 242.354 431.517 242.37 431.245 242.443C430.973 242.517 430.719 242.647 430.5 242.826C430.281 243.004 430.102 243.226 429.974 243.478C429.846 243.73 429.773 244.006 429.759 244.288C429.664 245.485 430.527 246.682 431.376 247.438C432.226 248.194 434.472 248.95 435.064 249.145L434.932 250.21C434.73 251.917 434.535 253.618 434.303 255.281C434.214 255.867 434.114 256.441 434.007 257.02C434.007 256.636 434.007 256.315 434.007 256.264C433.812 254.759 432.553 251.968 430.86 251.659C430.582 251.614 430.297 251.629 430.024 251.702C429.752 251.776 429.498 251.906 429.279 252.084C429.06 252.263 428.882 252.486 428.755 252.738C428.628 252.99 428.557 253.267 428.544 253.549C428.45 254.746 429.312 255.943 430.155 256.699C430.999 257.455 433.038 258.135 433.742 258.368C433.617 258.954 433.497 259.54 433.352 260.101C433.239 260.485 433.163 260.857 433.031 261.235L432.673 262.356C432.415 263.056 432.157 263.78 431.892 264.461C431.71 264.933 431.527 265.38 431.351 265.834C431.439 265.248 431.596 264.101 431.596 264.007C431.576 262.678 431.216 261.377 430.552 260.227C430.564 260.078 430.564 259.928 430.552 259.78C430.516 259.499 430.422 259.23 430.275 258.988C430.129 258.746 429.933 258.538 429.701 258.377C429.469 258.216 429.206 258.106 428.929 258.053C428.651 258.001 428.366 258.007 428.091 258.072C426.448 258.513 425.41 261.399 425.335 262.911C425.335 262.999 425.385 263.975 425.435 264.593C425.353 264.234 425.272 263.887 425.184 263.522C425.014 262.791 424.819 262.073 424.617 261.298L424.277 260.177C424.17 259.799 424.013 259.408 423.881 259.024C423.554 258.135 423.182 257.253 422.786 256.371C423.415 256.22 425.668 255.647 426.562 254.948C427.455 254.248 428.412 253.133 428.406 251.93C428.413 251.648 428.36 251.367 428.252 251.106C428.144 250.846 427.983 250.611 427.778 250.416C427.573 250.222 427.33 250.073 427.064 249.979C426.798 249.885 426.516 249.848 426.235 249.87C424.548 250.052 423.088 252.749 422.773 254.236C422.773 254.324 422.654 255.42 422.61 256.019C422.37 255.489 422.131 254.96 421.873 254.437C421.118 252.913 420.306 251.394 419.501 249.882C419.255 249.416 419.016 248.95 418.777 248.484C419.003 248.433 421.691 247.81 422.698 247.035C423.598 246.342 424.548 245.214 424.542 244.017C424.55 243.735 424.498 243.454 424.39 243.192C424.282 242.931 424.121 242.696 423.916 242.501C423.711 242.307 423.467 242.158 423.201 242.064C422.935 241.97 422.652 241.934 422.37 241.957C420.684 242.14 419.224 244.83 418.909 246.317C418.909 246.43 418.745 247.999 418.733 248.402C418.198 247.375 417.682 246.348 417.21 245.321C416.563 243.929 416.008 242.496 415.548 241.031C415.655 241.031 418.462 240.401 419.494 239.576C420.394 238.883 421.382 237.755 421.338 236.558C421.346 236.275 421.295 235.994 421.187 235.733C421.079 235.472 420.917 235.236 420.713 235.042C420.508 234.848 420.264 234.699 419.998 234.605C419.732 234.511 419.448 234.475 419.167 234.498C417.48 234.68 416.02 237.371 415.712 238.857C415.712 238.958 415.58 240.155 415.542 240.747H415.448C415.023 239.262 414.733 237.742 414.579 236.205C414.485 235.361 414.447 234.548 414.422 233.761C414.957 233.691 417.399 233.37 418.406 232.759C419.413 232.148 420.445 231.152 420.571 229.955C420.609 229.676 420.588 229.392 420.509 229.121C420.43 228.85 420.295 228.599 420.112 228.384C419.93 228.169 419.705 227.994 419.451 227.872C419.197 227.75 418.92 227.683 418.638 227.675C416.939 227.675 415.19 230.195 414.724 231.625C414.724 231.707 414.529 232.532 414.409 233.137C414.409 232.778 414.409 232.412 414.409 232.066C414.409 230.806 414.491 229.609 414.573 228.563C414.623 227.971 414.68 227.435 414.737 226.938C415.227 226.604 417.191 225.212 417.795 224.222C418.399 223.233 418.871 221.854 418.424 220.739C418.33 220.472 418.18 220.229 417.985 220.024C417.79 219.82 417.554 219.659 417.293 219.552C417.032 219.445 416.751 219.394 416.469 219.403C416.186 219.412 415.909 219.481 415.655 219.605C414.145 220.386 413.767 223.422 414 224.922C414 225.048 414.592 227.032 414.63 227.02C414.56 227.498 414.497 228.015 414.435 228.582C414.334 229.622 414.227 230.8 414.195 232.091C414.149 233.48 414.183 234.87 414.296 236.255C414.418 237.81 414.675 239.351 415.064 240.861V240.911C414.8 240.489 414.013 239.342 413.937 239.261C412.949 238.114 410.356 236.476 408.796 237.144C408.539 237.261 408.31 237.431 408.124 237.642C407.937 237.854 407.797 238.102 407.713 238.371C407.629 238.64 407.602 238.924 407.635 239.205C407.667 239.485 407.758 239.755 407.902 239.998C408.481 240.968 409.866 241.491 410.986 241.655Z" fill="#263238"/>
<path d="M111.984 215.105C111.984 215.105 112.771 214.947 119.222 213.057C123.354 211.733 127.123 209.469 130.235 206.442L128.19 193.527L115.131 195.417L111.984 215.105Z" fill="#BA68C8" stroke="#263238" stroke-linecap="round" stroke-linejoin="round"/>
<path d="M79.8878 258.891C79.8878 258.891 77.6852 263.301 77.3705 267.396C77.0558 271.491 79.4158 272.908 80.2025 271.806C80.9892 270.703 82.2478 266.766 82.4052 265.033L82.8772 259.836L79.8878 258.891Z" fill="white" stroke="#263238" stroke-linecap="round" stroke-linejoin="round"/>
<path d="M137.825 261.727C137.825 261.727 137.196 267.397 137.026 270.074C136.856 272.752 140.173 275.272 140.638 275.435C141.104 275.599 141.582 275.435 142.369 273.545C143.156 271.655 143.162 267.088 142.696 265.67C142.23 264.253 141.286 262.048 141.286 262.048L137.825 261.727Z" fill="white" stroke="#263238" stroke-linecap="round" stroke-linejoin="round"/>
<path d="M115.76 178.723C115.76 178.723 109.41 186.283 107.207 192.583C105.005 198.883 103.249 206.682 101.757 210.853C100.511 214.415 99.4603 218.043 98.6107 221.72C98.6107 221.72 94.52 225.815 93.4187 229.438C92.3173 233.06 79.416 259.835 79.416 259.835C79.416 259.835 80.2027 260.938 80.832 261.095C81.4613 261.253 82.8773 260.465 82.8773 260.465C82.8773 260.465 105.691 230.54 107.107 228.335C108.523 226.13 112.991 221.027 113.463 220.24C113.935 219.452 117.491 208.49 118.749 206.915C119.682 205.66 120.499 204.323 121.191 202.921L122.135 203.551L123.236 203.708C123.236 203.708 128.189 213.688 129.448 217.783C130.707 221.878 134.325 244.243 135.269 248.338C136.213 252.433 137.472 263.143 137.472 263.143C138.04 263.33 138.618 263.488 139.203 263.615C139.989 263.773 142.035 263.143 142.035 263.143C142.035 263.143 145.653 246.763 145.811 241.093C145.968 235.423 144.867 222.823 144.867 220.933C144.867 219.043 142.035 193.055 140.619 189.59C139.203 186.125 134.483 179.983 134.483 179.983L115.76 178.723Z" fill="#263238" stroke="#263238" stroke-linecap="round" stroke-linejoin="round"/>
<path d="M125.042 148.957L115.602 151.95C115.602 151.95 115.602 170.22 115.759 172.582C115.916 174.945 114.658 178.882 115.444 179.827C116.231 180.772 120.007 184.552 126.93 184.71C133.852 184.867 135.74 182.662 135.74 182.662L137.156 176.52C137.156 176.52 141.719 164.235 141.719 162.345C141.719 160.455 137.156 154.942 134.482 152.737C131.807 150.532 125.042 148.957 125.042 148.957Z" fill="white" stroke="#263238" stroke-linecap="round" stroke-linejoin="round"/>
<path d="M100.655 170.531C98.6455 171.886 96.5425 173.096 94.3621 174.154L81.7754 180.454L83.1914 183.446C86.2615 182.898 89.361 182.53 92.4741 182.344C96.5647 182.186 103.487 179.509 103.959 178.721C104.431 177.934 106.005 173.681 106.005 173.681L100.655 170.531Z" fill="white" stroke="#263238" stroke-linecap="round" stroke-linejoin="round"/>
<path d="M123.784 149.113C123.784 149.113 117.019 167.698 116.704 170.376C116.39 173.053 113.715 179.826 113.558 180.771C113.4 181.716 108.995 191.323 108.995 191.323C108.995 191.323 113.715 176.518 114.187 173.526C114.445 171.613 114.229 169.665 113.558 167.856C113.558 167.856 110.367 174.635 109.895 175.107C109.423 175.58 106.22 180.991 106.22 180.991L100.656 170.533C100.656 170.533 106.792 159.823 108.051 158.091C109.31 156.358 111.984 151.633 113.872 150.688C115.76 149.743 123.784 149.113 123.784 149.113Z" fill="#BA68C8" stroke="#263238" stroke-linecap="round" stroke-linejoin="round"/>
<path d="M133.067 151.477C133.067 151.477 128.19 171.952 128.19 175.259C128.19 178.567 127.718 188.804 127.246 194.474C126.774 200.144 125.83 218.257 125.83 218.257C128.849 218.719 131.912 218.825 134.955 218.572C139.361 218.099 146.913 215.107 146.913 215.107C146.913 215.107 142.979 195.262 141.406 190.537C140.083 186.451 138.98 182.298 138.102 178.094C138.102 177.622 142.35 163.762 142.35 161.872C142.35 159.982 134.798 151.949 133.067 151.477Z" fill="#BA68C8" stroke="#263238" stroke-linecap="round" stroke-linejoin="round"/>
<path d="M77.5854 181.642C77.6794 180.447 77.4625 179.249 76.9561 178.164C76.1002 176.476 75.6345 175.953 77.0064 176.324C78.3784 176.696 79.1839 179.386 79.1839 179.386L77.5854 181.642Z" fill="white" stroke="#263238" stroke-linecap="round" stroke-linejoin="round"/>
<path d="M86.4388 182.775C86.4388 182.775 84.6389 185.622 83.5564 185.364C82.474 185.106 77.6721 182.699 77.584 181.641C77.4959 180.582 78.4085 177.401 79.2014 177.54C79.9944 177.678 86.4388 182.775 86.4388 182.775Z" fill="white" stroke="#263238" stroke-linecap="round" stroke-linejoin="round"/>
<path d="M139.713 132.153C140.123 133.375 140.432 134.628 140.638 135.901C140.579 136.677 140.436 137.444 140.21 138.188C140.21 138.188 142.784 140.481 142.929 141.054C143.073 141.628 141.5 142.484 141.5 142.484C141.5 142.484 141.639 148.495 141.639 148.923C141.639 149.351 134.634 149.641 134.634 149.641L127.315 158.228L123.885 149.786L125.458 145.061C125.458 145.061 120.738 142.34 122.457 138.188C124.175 134.036 128.032 131.749 131.897 131.176C134.412 130.847 136.965 130.942 139.449 131.459L139.713 132.153Z" fill="white" stroke="#263238" stroke-linecap="round" stroke-linejoin="round"/>
<path d="M134.607 149.644L131.02 148.957L130.812 153.789L134.607 149.644Z" fill="#263238" stroke="#263238" stroke-linecap="round" stroke-linejoin="round"/>
<path d="M138.717 138.745C138.717 139.249 138.535 139.652 138.302 139.652C138.069 139.652 137.887 139.249 137.887 138.745C137.887 138.241 138.076 137.844 138.302 137.844C138.529 137.844 138.717 138.247 138.717 138.745Z" fill="#263238"/>
<path d="M137.334 137.286C137.334 137.286 137.749 136.455 139.272 136.87" stroke="#263238" stroke-linecap="round" stroke-linejoin="round"/>
<path d="M140.801 143.953C140.801 143.953 138.994 144.23 138.283 143.254" stroke="#263238" stroke-linecap="round" stroke-linejoin="round"/>
<path d="M140.039 133.897C140.039 133.897 135.326 132.75 134.463 134.47C133.601 136.19 134.325 137.047 133.607 138.622C132.89 140.197 130.178 142.2 130.178 142.2C130.178 142.2 127.604 139.334 126.741 140.764C125.879 142.194 126.169 144.342 127.031 145.061C127.893 145.779 130.316 145.344 130.316 145.344L126.603 147.064C126.603 147.064 126.741 149.212 123.312 150.069C119.882 150.926 115.76 148.639 116.307 145.779C116.855 142.919 121.594 141.199 121.594 141.199C121.594 141.199 116.559 135.044 120.738 130.489C124.916 125.934 133.035 128.057 133.035 128.057C133.035 128.057 134.18 126.797 137.44 126.482C140.7 126.167 142.16 129.487 142.16 131.352C142.16 133.217 140.039 133.897 140.039 133.897Z" fill="#263238" stroke="#263238" stroke-linecap="round" stroke-linejoin="round"/>
<path d="M377.512 86.3079L375.831 53.8125L347.927 68.9892L348.556 71.5092L359.11 76.902L309.449 174.332L151.839 217.235L42.8826 142.794C41.917 142.134 40.7291 141.885 39.5801 142.102C38.4312 142.318 37.4153 142.983 36.756 143.95C36.0967 144.916 35.848 146.106 36.0646 147.256C36.2812 148.406 36.9453 149.423 37.9109 150.083L148.522 225.664C149.264 226.171 150.142 226.439 151.04 226.432C151.429 226.433 151.817 226.38 152.191 226.275L313.647 182.333C314.24 182.172 314.792 181.888 315.269 181.501C315.746 181.114 316.137 180.631 316.416 180.083L366.964 80.934L377.512 86.3079Z" fill="#263238" stroke="#263238" stroke-linecap="round" stroke-linejoin="round"/>
<path d="M376.883 83.7884L375.202 51.293L347.927 68.9897L358.481 74.3825L308.82 171.812L151.21 214.715L42.2537 140.274C41.2881 139.614 40.1002 139.365 38.9512 139.582C37.8023 139.799 36.7864 140.464 36.1271 141.43C35.4678 142.397 35.2191 143.586 35.4357 144.736C35.6523 145.886 36.3164 146.903 37.2819 147.563L147.894 223.144C148.635 223.651 149.513 223.92 150.411 223.913C150.8 223.914 151.188 223.861 151.563 223.755L313.018 179.813C313.611 179.652 314.163 179.369 314.64 178.981C315.117 178.594 315.508 178.111 315.787 177.564L366.335 78.4145L376.883 83.7884Z" fill="#BA68C8" stroke="#263238" stroke-linecap="round" stroke-linejoin="round"/>
<path d="M372.344 56.918L354.213 68.6675L362.716 73.0082L310.991 174.507L150.63 218.135L40.497 142.875C40.3603 142.782 40.2065 142.717 40.0446 142.683C39.8826 142.649 39.7156 142.648 39.5531 142.679C39.3906 142.71 39.2358 142.773 39.0976 142.864C38.9594 142.955 38.8404 143.072 38.7475 143.209C38.5589 143.485 38.4874 143.824 38.5488 144.153C38.6102 144.481 38.7994 144.772 39.0747 144.96L149.712 220.56C149.921 220.704 150.169 220.781 150.423 220.781C150.533 220.779 150.643 220.764 150.75 220.737L312.205 176.788C312.374 176.744 312.531 176.665 312.668 176.556C312.804 176.448 312.917 176.312 312.998 176.158L364.975 74.2052L373.477 78.5459L372.344 56.918Z" fill="white"/>
<path d="M136.453 185.678L135.59 188.998C134.612 190.882 133.48 192.682 132.205 194.379C130.128 197.132 122.67 204.811 122.67 204.811L120.562 207.413L120.316 209.694L122.028 210.355C122.028 210.355 122.884 210.689 123.583 211.048C124.281 211.407 126.1 211.735 126.66 211.313C127.22 210.891 128.548 207.47 128.548 207.47L129.052 204.83C129.052 204.83 137.913 197.869 139.939 195.758C141.965 193.648 143.715 191.751 144.307 190.529C144.898 189.307 144.414 185.559 144.414 185.559L136.453 185.678Z" fill="white" stroke="#263238" stroke-linecap="round" stroke-linejoin="round"/>
<path d="M136.232 169.576L134.678 186.308C136.158 186.841 137.671 187.275 139.209 187.606C141.695 188.135 146.887 186.762 146.887 186.762C146.887 186.762 146.088 172.833 145.049 167.736C144.011 162.639 141.116 158.828 139.253 158.191" fill="#BA68C8"/>
<path d="M136.232 169.576L134.678 186.308C136.158 186.841 137.671 187.275 139.209 187.606C141.695 188.135 146.887 186.762 146.887 186.762C146.887 186.762 146.088 172.833 145.049 167.736C144.011 162.639 141.116 158.828 139.253 158.191" stroke="#263238" stroke-linecap="round" stroke-linejoin="round"/>
<path d="M335.553 271.809H449.462" stroke="#263238" stroke-linecap="round" stroke-linejoin="round"/>
<path d="M321.709 271.809H329.89" stroke="#263238" stroke-linecap="round" stroke-linejoin="round"/>
<path d="M115.916 271.809H314.785" stroke="#263238" stroke-linecap="round" stroke-linejoin="round"/>
<path d="M20.8867 271.809H110.252" stroke="#263238" stroke-linecap="round" stroke-linejoin="round"/>
</svg>
