<svg width="1280" height="859" viewBox="0 0 1280 859" fill="none" xmlns="http://www.w3.org/2000/svg">
<g clip-path="url(#clip0_2172_228)">
<rect width="1280" height="859" fill="url(#paint0_linear_2172_228)"/>
<line x1="62.5234" y1="-38" x2="62.5234" y2="991" stroke="white" stroke-opacity="0.21" stroke-width="3"/>
<line x1="687.824" y1="-38" x2="687.824" y2="991" stroke="white" stroke-opacity="0.21" stroke-width="3"/>
<line x1="166.742" y1="-38" x2="166.742" y2="991" stroke="white" stroke-opacity="0.21" stroke-width="3"/>
<line x1="792.035" y1="-38" x2="792.035" y2="991" stroke="white" stroke-opacity="0.21" stroke-width="3"/>
<line x1="270.961" y1="-38" x2="270.961" y2="991" stroke="white" stroke-opacity="0.21" stroke-width="3"/>
<line x1="896.25" y1="-38" x2="896.25" y2="991" stroke="white" stroke-opacity="0.21" stroke-width="3"/>
<line x1="375.176" y1="-38" x2="375.176" y2="991" stroke="white" stroke-opacity="0.21" stroke-width="3"/>
<line x1="1000.47" y1="-38" x2="1000.47" y2="991" stroke="white" stroke-opacity="0.21" stroke-width="3"/>
<line x1="583.609" y1="-38" x2="583.609" y2="991" stroke="white" stroke-opacity="0.21" stroke-width="3"/>
<line x1="1208.88" y1="-38" x2="1208.88" y2="991" stroke="white" stroke-opacity="0.21" stroke-width="3"/>
<line x1="687.824" y1="-38" x2="687.824" y2="991" stroke="white" stroke-opacity="0.21" stroke-width="3"/>
<line x1="479.391" y1="-38" x2="479.391" y2="991" stroke="white" stroke-opacity="0.21" stroke-width="3"/>
<line x1="1104.66" y1="-38" x2="1104.66" y2="991" stroke="white" stroke-opacity="0.21" stroke-width="3"/>
<line y1="-1.5" x2="1243.41" y2="-1.5" transform="matrix(-1 0 0 1 1308 685.301)" stroke="white" stroke-opacity="0.21" stroke-width="3"/>
<line y1="-1.5" x2="1243.81" y2="-1.5" transform="matrix(-1 0 0 1 1307.6 564.83)" stroke="white" stroke-opacity="0.21" stroke-width="3"/>
<line y1="-1.5" x2="1244.21" y2="-1.5" transform="matrix(-1 0 0 1 1307.2 444.359)" stroke="white" stroke-opacity="0.21" stroke-width="3"/>
<line y1="-1.5" x2="1244.21" y2="-1.5" transform="matrix(-1 0 0 1 1306.8 323.889)" stroke="white" stroke-opacity="0.21" stroke-width="3"/>
<line y1="-1.5" x2="1243.81" y2="-1.5" transform="matrix(-1 0 0 1 1308.8 806.248)" stroke="white" stroke-opacity="0.21" stroke-width="3"/>
<line y1="-1.5" x2="1244.21" y2="-1.5" transform="matrix(-1 0 0 1 1305.61 82.4707)" stroke="white" stroke-opacity="0.21" stroke-width="3"/>
<line y1="-1.5" x2="1243.41" y2="-1.5" transform="matrix(-1 0 0 1 1308 685.301)" stroke="white" stroke-opacity="0.21" stroke-width="3"/>
<line y1="-1.5" x2="1243.81" y2="-1.5" transform="matrix(-1 0 0 1 1306 202.941)" stroke="white" stroke-opacity="0.21" stroke-width="3"/>
<g filter="url(#filter0_f_2172_228)">
<ellipse cx="1196.5" cy="266" rx="340.5" ry="375" fill="url(#paint1_linear_2172_228)" fill-opacity="0.8"/>
</g>
<g filter="url(#filter1_f_2172_228)">
<ellipse cx="53.5" cy="308" rx="340.5" ry="375" fill="url(#paint2_linear_2172_228)" fill-opacity="0.8"/>
</g>
<g filter="url(#filter2_f_2172_228)">
<ellipse cx="146.5" cy="1147" rx="340.5" ry="375" fill="url(#paint3_linear_2172_228)" fill-opacity="0.8"/>
</g>
<circle cx="343.5" cy="562.5" r="4.5" fill="white"/>
<circle cx="862.5" cy="202.5" r="4.5" fill="white"/>
<circle cx="966.5" cy="562.5" r="4.5" fill="white"/>
<circle cx="754.5" cy="687.5" r="4.5" fill="white"/>
<circle cx="650.5" cy="566.5" r="4.5" fill="white"/>
<circle cx="232.5" cy="682.5" r="4.5" fill="white"/>
<circle cx="343.5" cy="207.5" r="4.5" fill="white"/>
<circle cx="236.5" cy="81.5" r="4.5" fill="white"/>
<circle cx="925.5" cy="103.5" r="4.5" fill="white"/>
<circle cx="827.5" cy="488.5" r="4.5" fill="white"/>
<circle cx="925.5" cy="835.5" r="4.5" fill="white"/>
<circle cx="473.5" cy="830.5" r="4.5" fill="white"/>
<circle cx="49.5" cy="515.5" r="4.5" fill="white"/>
<circle cx="70.5" cy="854.5" r="4.5" fill="white"/>
<circle cx="1223.5" cy="69.5" r="4.5" fill="white"/>
</g>
<defs>
<filter id="filter0_f_2172_228" x="656" y="-309" width="1081" height="1150" filterUnits="userSpaceOnUse" color-interpolation-filters="sRGB">
<feFlood flood-opacity="0" result="BackgroundImageFix"/>
<feBlend mode="normal" in="SourceGraphic" in2="BackgroundImageFix" result="shape"/>
<feGaussianBlur stdDeviation="100" result="effect1_foregroundBlur_2172_228"/>
</filter>
<filter id="filter1_f_2172_228" x="-487" y="-267" width="1081" height="1150" filterUnits="userSpaceOnUse" color-interpolation-filters="sRGB">
<feFlood flood-opacity="0" result="BackgroundImageFix"/>
<feBlend mode="normal" in="SourceGraphic" in2="BackgroundImageFix" result="shape"/>
<feGaussianBlur stdDeviation="100" result="effect1_foregroundBlur_2172_228"/>
</filter>
<filter id="filter2_f_2172_228" x="-394" y="572" width="1081" height="1150" filterUnits="userSpaceOnUse" color-interpolation-filters="sRGB">
<feFlood flood-opacity="0" result="BackgroundImageFix"/>
<feBlend mode="normal" in="SourceGraphic" in2="BackgroundImageFix" result="shape"/>
<feGaussianBlur stdDeviation="100" result="effect1_foregroundBlur_2172_228"/>
</filter>
<linearGradient id="paint0_linear_2172_228" x1="640" y1="0" x2="640" y2="585.578" gradientUnits="userSpaceOnUse">
<stop stop-color="#D8DDED"/>
<stop offset="1" stop-color="#E1E8FF"/>
</linearGradient>
<linearGradient id="paint1_linear_2172_228" x1="1287.71" y1="266" x2="1608.13" y2="570.839" gradientUnits="userSpaceOnUse">
<stop stop-color="#BAC7FF"/>
<stop offset="1" stop-color="#AEBDFF"/>
</linearGradient>
<linearGradient id="paint2_linear_2172_228" x1="144.705" y1="308" x2="465.128" y2="612.839" gradientUnits="userSpaceOnUse">
<stop stop-color="#BAC7FF"/>
<stop offset="1" stop-color="#AEBDFF"/>
</linearGradient>
<linearGradient id="paint3_linear_2172_228" x1="237.705" y1="1147" x2="558.128" y2="1451.84" gradientUnits="userSpaceOnUse">
<stop stop-color="#BAC7FF"/>
<stop offset="1" stop-color="#AEBDFF"/>
</linearGradient>
<clipPath id="clip0_2172_228">
<rect width="1280" height="859" fill="white"/>
</clipPath>
</defs>
</svg>
