<svg width="362" height="146" viewBox="0 0 362 146" fill="none" xmlns="http://www.w3.org/2000/svg">
<g filter="url(#filter0_d_2220_4055)">
<mask id="path-1-inside-1_2220_4055" fill="white">
<path d="M326.596 0C344.194 0 358.46 14.2663 358.46 31.8643V84.6348H267.173C249.575 84.6348 235.309 98.9002 235.309 116.498V119.774C235.309 127.22 237.863 134.069 242.143 139.493H34.8643C17.2663 139.493 3 125.227 3 107.629V31.8643C3 14.2663 17.2663 0 34.8643 0H326.596Z"/>
</mask>
<path d="M326.596 0C344.194 0 358.46 14.2663 358.46 31.8643V84.6348H267.173C249.575 84.6348 235.309 98.9002 235.309 116.498V119.774C235.309 127.22 237.863 134.069 242.143 139.493H34.8643C17.2663 139.493 3 125.227 3 107.629V31.8643C3 14.2663 17.2663 0 34.8643 0H326.596Z" fill="white" fill-opacity="0.56" shape-rendering="crispEdges"/>
<path d="M358.46 84.6348V85.3429H359.168V84.6348H358.46ZM235.309 116.498L234.601 116.498V116.498H235.309ZM235.309 119.774L234.601 119.774L234.601 119.774L235.309 119.774ZM242.143 139.493V140.201H243.603L242.699 139.055L242.143 139.493ZM326.596 0V0.708087C343.803 0.708087 357.752 14.6574 357.752 31.8643H358.46H359.168C359.168 13.8752 344.585 -0.708087 326.596 -0.708087V0ZM358.46 31.8643H357.752V84.6348H358.46H359.168V31.8643H358.46ZM358.46 84.6348V83.9267H267.173V84.6348V85.3429H358.46V84.6348ZM267.173 84.6348V83.9267C249.184 83.9267 234.601 98.5091 234.601 116.498L235.309 116.498L236.017 116.498C236.017 99.2913 249.966 85.3429 267.173 85.3429V84.6348ZM235.309 116.498H234.601V119.774H235.309H236.017V116.498H235.309ZM235.309 119.774L234.601 119.774C234.601 127.385 237.212 134.387 241.587 139.932L242.143 139.493L242.699 139.055C238.514 133.75 236.017 127.055 236.017 119.774L235.309 119.774ZM242.143 139.493V138.785H34.8643V139.493V140.201H242.143V139.493ZM34.8643 139.493V138.785C17.6574 138.785 3.70809 124.836 3.70809 107.629H3H2.29191C2.29191 125.618 16.8752 140.201 34.8643 140.201V139.493ZM3 107.629H3.70809V31.8643H3H2.29191V107.629H3ZM3 31.8643H3.70809C3.70809 14.6574 17.6574 0.708087 34.8643 0.708087V0V-0.708087C16.8752 -0.708087 2.29191 13.8752 2.29191 31.8643H3ZM34.8643 0V0.708087H326.596V0V-0.708087H34.8643V0Z" fill="white" mask="url(#path-1-inside-1_2220_4055)"/>
</g>
<defs>
<filter id="filter0_d_2220_4055" x="0.167653" y="0" width="361.125" height="145.157" filterUnits="userSpaceOnUse" color-interpolation-filters="sRGB">
<feFlood flood-opacity="0" result="BackgroundImageFix"/>
<feColorMatrix in="SourceAlpha" type="matrix" values="0 0 0 0 0 0 0 0 0 0 0 0 0 0 0 0 0 0 127 0" result="hardAlpha"/>
<feOffset dy="2.83235"/>
<feGaussianBlur stdDeviation="1.41617"/>
<feComposite in2="hardAlpha" operator="out"/>
<feColorMatrix type="matrix" values="0 0 0 0 0 0 0 0 0 0 0 0 0 0 0 0 0 0 0.25 0"/>
<feBlend mode="normal" in2="BackgroundImageFix" result="effect1_dropShadow_2220_4055"/>
<feBlend mode="normal" in="SourceGraphic" in2="effect1_dropShadow_2220_4055" result="shape"/>
</filter>
</defs>
</svg>
