<svg width="831" height="349" viewBox="0 0 831 349" fill="none" xmlns="http://www.w3.org/2000/svg">
<mask id="path-1-inside-1_2277_1413" fill="white">
<path d="M180 0C187.18 2.83473e-06 193 5.8203 193 13V33H805C819.359 33 831 44.6406 831 59V323C831 337.359 819.359 349 805 349H192C177.641 349 166 337.359 166 323V206H13C5.8203 206 1.69123e-07 200.18 0 193V13C0 5.8203 5.8203 0 13 0H180Z"/>
</mask>
<path d="M180 0C187.18 2.83473e-06 193 5.8203 193 13V33H805C819.359 33 831 44.6406 831 59V323C831 337.359 819.359 349 805 349H192C177.641 349 166 337.359 166 323V206H13C5.8203 206 1.69123e-07 200.18 0 193V13C0 5.8203 5.8203 0 13 0H180Z" fill="url(#paint0_linear_2277_1413)"/>
<path d="M180 0L180 -1H180V0ZM193 13L194 13V13L193 13ZM193 33H192V34H193V33ZM831 59L832 59L831 59ZM831 323L832 323V323H831ZM805 349L805 350H805L805 349ZM166 323L165 323L166 323ZM166 206H167V205H166V206ZM13 206L13 207H13V206ZM0 193L-1 193L-1 193L0 193ZM180 0L180 1C186.627 1 192 6.37259 192 13L193 13L194 13C194 5.26802 187.732 -0.999997 180 -1L180 0ZM193 13H192V33H193H194V13H193ZM193 33V34H805V33V32H193V33ZM805 33V34C818.807 34 830 45.1929 830 59L831 59L832 59C832 44.0883 819.912 32 805 32V33ZM831 59H830V323H831H832V59H831ZM831 323L830 323C830 336.807 818.807 348 805 348L805 349L805 350C819.912 350 832 337.912 832 323L831 323ZM805 349V348H192V349V350H805V349ZM192 349V348C178.193 348 167 336.807 167 323L166 323L165 323C165 337.912 177.088 350 192 350V349ZM166 323H167V206H166H165V323H166ZM166 206V205H13V206V207H166V206ZM13 206L13 205C6.37259 205 1 199.627 1 193L0 193L-1 193C-1 200.732 5.26802 207 13 207L13 206ZM0 193H1V13H0H-1V193H0ZM0 13H1C1 6.37258 6.37258 1 13 1V0V-1C5.26801 -1 -1 5.26801 -1 13H0ZM13 0V1H180V0V-1H13V0Z" fill="white" mask="url(#path-1-inside-1_2277_1413)"/>
<defs>
<linearGradient id="paint0_linear_2277_1413" x1="0" y1="103" x2="831" y2="103" gradientUnits="userSpaceOnUse">
<stop stop-color="#9AAFFF"/>
<stop offset="1" stop-color="#CCD6FF"/>
</linearGradient>
</defs>
</svg>
