<svg width="831" height="206" viewBox="0 0 831 206" fill="none" xmlns="http://www.w3.org/2000/svg">
<mask id="path-1-inside-1_2273_1382" fill="white">
<path d="M180 0C187.18 2.83473e-06 193 5.8203 193 13V21H805C819.359 21 831 32.6406 831 47V166C831 180.359 819.359 192 805 192H193V193C193 200.18 187.18 206 180 206H13C5.8203 206 1.69123e-07 200.18 0 193V13C0 5.8203 5.8203 0 13 0H180Z"/>
</mask>
<path d="M180 0C187.18 2.83473e-06 193 5.8203 193 13V21H805C819.359 21 831 32.6406 831 47V166C831 180.359 819.359 192 805 192H193V193C193 200.18 187.18 206 180 206H13C5.8203 206 1.69123e-07 200.18 0 193V13C0 5.8203 5.8203 0 13 0H180Z" fill="url(#paint0_linear_2273_1382)"/>
<path d="M180 0L180 -1H180V0ZM193 13L194 13V13L193 13ZM193 21H192V22H193V21ZM831 47L832 47L831 47ZM831 166L832 166V166H831ZM193 192V191H192V192H193ZM13 206L13 207H13V206ZM0 193L-1 193L-1 193L0 193ZM180 0L180 1C186.627 1 192 6.37259 192 13L193 13L194 13C194 5.26802 187.732 -0.999997 180 -1L180 0ZM193 13H192V21H193H194V13H193ZM193 21V22H805V21V20H193V21ZM805 21V22C818.807 22 830 33.1929 830 47L831 47L832 47C832 32.0883 819.912 20 805 20V21ZM831 47H830V166H831H832V47H831ZM831 166L830 166C830 179.807 818.807 191 805 191V192V193C819.912 193 832 180.912 832 166L831 166ZM805 192V191H193V192V193H805V192ZM193 192H192V193H193H194V192H193ZM193 193H192C192 199.627 186.627 205 180 205V206V207C187.732 207 194 200.732 194 193H193ZM180 206V205H13V206V207H180V206ZM13 206L13 205C6.37259 205 1 199.627 1 193L0 193L-1 193C-1 200.732 5.26802 207 13 207L13 206ZM0 193H1V13H0H-1V193H0ZM0 13H1C1 6.37258 6.37258 1 13 1V0V-1C5.26801 -1 -1 5.26801 -1 13H0ZM13 0V1H180V0V-1H13V0Z" fill="white" mask="url(#path-1-inside-1_2273_1382)"/>
<defs>
<linearGradient id="paint0_linear_2273_1382" x1="0" y1="103" x2="831" y2="103" gradientUnits="userSpaceOnUse">
<stop stop-color="#9AAFFF"/>
<stop offset="1" stop-color="#CCD6FF"/>
</linearGradient>
</defs>
</svg>
