<svg width="831" height="206" viewBox="0 0 831 206" fill="none" xmlns="http://www.w3.org/2000/svg">
<mask id="path-1-inside-1_2276_1400" fill="white">
<path d="M651 0C643.82 2.83473e-06 638 5.8203 638 13V21H26C11.6406 21 1.04699e-07 32.6406 0 47V166C1.48179e-06 180.359 11.6406 192 26 192H638V193C638 200.18 643.82 206 651 206H818C825.18 206 831 200.18 831 193V13C831 5.8203 825.18 0 818 0H651Z"/>
</mask>
<path d="M651 0C643.82 2.83473e-06 638 5.8203 638 13V21H26C11.6406 21 1.04699e-07 32.6406 0 47V166C1.48179e-06 180.359 11.6406 192 26 192H638V193C638 200.18 643.82 206 651 206H818C825.18 206 831 200.18 831 193V13C831 5.8203 825.18 0 818 0H651Z" fill="url(#paint0_linear_2276_1400)"/>
<path d="M651 0L651 -1H651V0ZM638 13L637 13V13L638 13ZM638 21H639V22H638V21ZM0 47L-1 47L0 47ZM0 166L-1 166V166H0ZM638 192V191H639V192H638ZM818 206L818 207H818V206ZM831 193L832 193V193L831 193ZM651 0L651 1C644.373 1 639 6.37259 639 13L638 13L637 13C637 5.26802 643.268 -0.999997 651 -1L651 0ZM638 13H639V21H638H637V13H638ZM638 21V22H26V21V20H638V21ZM26 21V22C12.1929 22 1 33.1929 1 47L0 47L-1 47C-1 32.0883 11.0883 20 26 20V21ZM0 47H1V166H0H-1V47H0ZM0 166L1 166C1 179.807 12.1929 191 26 191V192V193C11.0883 193 -0.999998 180.912 -1 166L0 166ZM26 192V191H638V192V193H26V192ZM638 192H639V193H638H637V192H638ZM638 193H639C639 199.627 644.373 205 651 205V206V207C643.268 207 637 200.732 637 193H638ZM651 206V205H818V206V207H651V206ZM818 206L818 205C824.627 205 830 199.627 830 193L831 193L832 193C832 200.732 825.732 207 818 207L818 206ZM831 193H830V13H831H832V193H831ZM831 13H830C830 6.37258 824.627 1 818 1V0V-1C825.732 -1 832 5.26801 832 13H831ZM818 0V1H651V0V-1H818V0Z" fill="white" mask="url(#path-1-inside-1_2276_1400)"/>
<defs>
<linearGradient id="paint0_linear_2276_1400" x1="831" y1="103" x2="0" y2="103" gradientUnits="userSpaceOnUse">
<stop stop-color="#9AAFFF"/>
<stop offset="1" stop-color="#CCD6FF"/>
</linearGradient>
</defs>
</svg>
