<svg width="1235" height="1567" viewBox="0 0 1235 1567" fill="none" xmlns="http://www.w3.org/2000/svg">
<path d="M196.645 617.833C329.222 393.978 763.541 810.884 1056.4 253.618" stroke="url(#paint0_linear_2266_1593)" stroke-width="7.00412" stroke-dasharray="14.01 14.01"/>
<g filter="url(#filter0_d_2266_1593)">
<mask id="path-2-inside-1_2266_1593" fill="white">
<path d="M1124.34 82.4188C1178.74 82.4188 1222.84 126.517 1222.84 180.914C1222.84 235.311 1178.74 279.41 1124.34 279.41C1069.95 279.41 1025.85 235.311 1025.85 180.914C1025.85 126.517 1069.95 82.419 1124.34 82.4188ZM1124.78 125.319C1093.84 125.319 1068.75 150.406 1068.75 181.352C1068.75 212.298 1093.84 237.385 1124.78 237.385C1155.73 237.384 1180.81 212.298 1180.81 181.352C1180.81 150.406 1155.73 125.319 1124.78 125.319Z"/>
</mask>
<path d="M1124.34 82.4188C1178.74 82.4188 1222.84 126.517 1222.84 180.914C1222.84 235.311 1178.74 279.41 1124.34 279.41C1069.95 279.41 1025.85 235.311 1025.85 180.914C1025.85 126.517 1069.95 82.419 1124.34 82.4188ZM1124.78 125.319C1093.84 125.319 1068.75 150.406 1068.75 181.352C1068.75 212.298 1093.84 237.385 1124.78 237.385C1155.73 237.384 1180.81 212.298 1180.81 181.352C1180.81 150.406 1155.73 125.319 1124.78 125.319Z" fill="url(#paint1_linear_2266_1593)"/>
<path d="M1124.34 82.4188L1124.34 81.5433L1124.34 81.5433L1124.34 82.4188ZM1222.84 180.914L1223.71 180.914L1223.71 180.914L1222.84 180.914ZM1124.34 279.41L1124.34 280.286H1124.34V279.41ZM1025.85 180.914L1024.97 180.914V180.914H1025.85ZM1124.78 125.319L1124.78 124.444H1124.78V125.319ZM1068.75 181.352L1067.87 181.352L1067.87 181.352L1068.75 181.352ZM1124.78 237.385L1124.78 238.26L1124.78 238.26L1124.78 237.385ZM1180.81 181.352L1181.69 181.352V181.352H1180.81ZM1124.34 82.4188V83.2943C1178.26 83.2943 1221.96 127 1221.96 180.914L1222.84 180.914L1223.71 180.914C1223.71 126.033 1179.22 81.5433 1124.34 81.5433V82.4188ZM1222.84 180.914H1221.96C1221.96 234.828 1178.26 278.534 1124.34 278.534V279.41V280.286C1179.22 280.286 1223.71 235.795 1223.71 180.914H1222.84ZM1124.34 279.41L1124.34 278.534C1070.43 278.534 1026.72 234.828 1026.72 180.914H1025.85H1024.97C1024.97 235.795 1069.46 280.285 1124.34 280.286L1124.34 279.41ZM1025.85 180.914L1026.72 180.914C1026.72 127 1070.43 83.2945 1124.34 83.2943L1124.34 82.4188L1124.34 81.5433C1069.46 81.5435 1024.97 126.033 1024.97 180.914L1025.85 180.914ZM1124.78 125.319V124.444C1093.35 124.444 1067.87 149.923 1067.87 181.352H1068.75H1069.62C1069.62 150.89 1094.32 126.195 1124.78 126.195V125.319ZM1068.75 181.352L1067.87 181.352C1067.87 212.782 1093.35 238.26 1124.78 238.26V237.385V236.509C1094.32 236.509 1069.62 211.815 1069.62 181.352L1068.75 181.352ZM1124.78 237.385L1124.78 238.26C1156.21 238.26 1181.69 212.782 1181.69 181.352L1180.81 181.352L1179.94 181.352C1179.94 211.815 1155.24 236.509 1124.78 236.509L1124.78 237.385ZM1180.81 181.352H1181.69C1181.69 149.923 1156.21 124.444 1124.78 124.444L1124.78 125.319L1124.78 126.195C1155.24 126.195 1179.94 150.89 1179.94 181.352H1180.81Z" fill="white" mask="url(#path-2-inside-1_2266_1593)"/>
</g>
<g filter="url(#filter1_d_2266_1593)">
<mask id="path-4-inside-2_2266_1593" fill="white">
<path d="M124.94 567.454C164.59 567.454 196.733 599.597 196.733 639.246C196.733 678.896 164.59 711.039 124.94 711.039C85.2908 711.039 53.1484 678.896 53.1484 639.246C53.1486 599.597 85.2909 567.454 124.94 567.454ZM124.503 606.853C106.854 606.853 92.5469 621.16 92.5469 638.809C92.5469 656.458 106.854 670.765 124.503 670.765C142.152 670.765 156.459 656.458 156.459 638.809C156.459 621.16 142.152 606.853 124.503 606.853Z"/>
</mask>
<path d="M124.94 567.454C164.59 567.454 196.733 599.597 196.733 639.246C196.733 678.896 164.59 711.039 124.94 711.039C85.2908 711.039 53.1484 678.896 53.1484 639.246C53.1486 599.597 85.2909 567.454 124.94 567.454ZM124.503 606.853C106.854 606.853 92.5469 621.16 92.5469 638.809C92.5469 656.458 106.854 670.765 124.503 670.765C142.152 670.765 156.459 656.458 156.459 638.809C156.459 621.16 142.152 606.853 124.503 606.853Z" fill="url(#paint2_linear_2266_1593)"/>
<path d="M124.94 567.454L124.94 566.579L124.94 566.579L124.94 567.454ZM196.733 639.246L197.609 639.246L197.609 639.246L196.733 639.246ZM124.94 711.039L124.94 711.915H124.94V711.039ZM53.1484 639.246L52.2729 639.246V639.246H53.1484ZM124.503 606.853L124.503 605.977L124.503 605.977L124.503 606.853ZM92.5469 638.809L91.6714 638.809L91.6714 638.809L92.5469 638.809ZM124.503 670.765L124.503 671.64H124.503V670.765ZM156.459 638.809L157.334 638.809V638.809H156.459ZM124.94 567.454V568.33C164.107 568.33 195.858 600.08 195.858 639.246L196.733 639.246L197.609 639.246C197.609 599.113 165.074 566.579 124.94 566.579V567.454ZM196.733 639.246H195.858C195.858 678.413 164.107 710.164 124.94 710.164V711.039V711.915C165.074 711.915 197.609 679.38 197.609 639.246H196.733ZM124.94 711.039L124.94 710.164C85.7743 710.164 54.024 678.412 54.024 639.246H53.1484H52.2729C52.2729 679.379 84.8072 711.915 124.94 711.915L124.94 711.039ZM53.1484 639.246L54.024 639.246C54.0241 600.08 85.7744 568.33 124.94 568.33L124.94 567.454L124.94 566.579C84.8073 566.579 52.2731 599.113 52.2729 639.246L53.1484 639.246ZM124.503 606.853L124.503 605.977C106.37 605.977 91.6714 620.676 91.6714 638.809H92.5469H93.4224C93.4224 621.643 107.337 607.728 124.503 607.728L124.503 606.853ZM92.5469 638.809L91.6714 638.809C91.6714 656.941 106.37 671.64 124.503 671.64L124.503 670.765L124.503 669.889C107.337 669.889 93.4224 655.974 93.4224 638.809L92.5469 638.809ZM124.503 670.765V671.64C142.635 671.64 157.334 656.941 157.334 638.809L156.459 638.809L155.583 638.809C155.583 655.974 141.668 669.889 124.503 669.889V670.765ZM156.459 638.809H157.334C157.334 620.676 142.635 605.977 124.503 605.977V606.853V607.728C141.668 607.728 155.583 621.643 155.583 638.809H156.459Z" fill="white" mask="url(#path-4-inside-2_2266_1593)"/>
</g>
<g filter="url(#filter2_d_2266_1593)">
<mask id="path-6-inside-3_2266_1593" fill="white">
<path d="M983.821 639.247C1023.47 639.247 1055.61 671.389 1055.61 711.039C1055.61 750.688 1023.47 782.832 983.821 782.832C944.172 782.831 912.029 750.688 912.029 711.039C912.029 671.389 944.172 639.247 983.821 639.247ZM983.384 678.645C965.735 678.645 951.428 692.952 951.428 710.601C951.428 728.25 965.735 742.557 983.384 742.557C1001.03 742.557 1015.34 728.25 1015.34 710.601C1015.34 692.952 1001.03 678.645 983.384 678.645Z"/>
</mask>
<path d="M983.821 639.247C1023.47 639.247 1055.61 671.389 1055.61 711.039C1055.61 750.688 1023.47 782.832 983.821 782.832C944.172 782.831 912.029 750.688 912.029 711.039C912.029 671.389 944.172 639.247 983.821 639.247ZM983.384 678.645C965.735 678.645 951.428 692.952 951.428 710.601C951.428 728.25 965.735 742.557 983.384 742.557C1001.03 742.557 1015.34 728.25 1015.34 710.601C1015.34 692.952 1001.03 678.645 983.384 678.645Z" fill="url(#paint3_linear_2266_1593)"/>
<path d="M983.821 639.247L983.821 638.371L983.821 638.371L983.821 639.247ZM1055.61 711.039L1056.49 711.039L1056.49 711.039L1055.61 711.039ZM983.821 782.832L983.821 783.707H983.821V782.832ZM912.029 711.039L911.154 711.039V711.039H912.029ZM983.384 678.645L983.384 677.77H983.384V678.645ZM983.384 742.557L983.384 743.433L983.384 743.433L983.384 742.557ZM983.821 639.247V640.122C1022.99 640.122 1054.74 671.872 1054.74 711.039L1055.61 711.039L1056.49 711.039C1056.49 670.905 1023.95 638.371 983.821 638.371V639.247ZM1055.61 711.039H1054.74C1054.74 750.205 1022.99 781.956 983.821 781.956V782.832V783.707C1023.95 783.707 1056.49 751.172 1056.49 711.039H1055.61ZM983.821 782.832L983.821 781.956C944.655 781.956 912.905 750.205 912.905 711.039H912.029H911.154C911.154 751.172 943.688 783.707 983.821 783.707L983.821 782.832ZM912.029 711.039L912.905 711.039C912.905 671.873 944.655 640.122 983.821 640.122L983.821 639.247L983.821 638.371C943.688 638.371 911.154 670.905 911.154 711.039L912.029 711.039ZM983.384 678.645V677.77C965.251 677.77 950.552 692.469 950.552 710.601H951.428H952.303C952.303 693.436 966.218 679.521 983.384 679.521V678.645ZM951.428 710.601H950.552C950.552 728.734 965.251 743.433 983.384 743.433V742.557V741.682C966.218 741.682 952.303 727.767 952.303 710.601H951.428ZM983.384 742.557L983.384 743.433C1001.52 743.433 1016.22 728.734 1016.22 710.601H1015.34H1014.46C1014.46 727.767 1000.55 741.682 983.384 741.682L983.384 742.557ZM1015.34 710.601H1016.22C1016.22 692.469 1001.52 677.77 983.384 677.77L983.384 678.645L983.384 679.521C1000.55 679.521 1014.46 693.436 1014.46 710.601H1015.34Z" fill="white" mask="url(#path-6-inside-3_2266_1593)"/>
</g>
<g filter="url(#filter3_d_2266_1593)">
<mask id="path-8-inside-4_2266_1593" fill="white">
<path d="M83.792 1407.95C123.442 1407.95 155.585 1440.09 155.585 1479.74C155.585 1519.39 123.442 1551.53 83.792 1551.53C44.1423 1551.53 12 1519.39 12 1479.74C12.0001 1440.09 44.1424 1407.95 83.792 1407.95ZM83.3545 1447.35C65.7055 1447.35 51.3984 1461.65 51.3984 1479.3C51.3985 1496.95 65.7056 1511.26 83.3545 1511.26C101.003 1511.26 115.31 1496.95 115.311 1479.3C115.311 1461.65 101.003 1447.35 83.3545 1447.35Z"/>
</mask>
<path d="M83.792 1407.95C123.442 1407.95 155.585 1440.09 155.585 1479.74C155.585 1519.39 123.442 1551.53 83.792 1551.53C44.1423 1551.53 12 1519.39 12 1479.74C12.0001 1440.09 44.1424 1407.95 83.792 1407.95ZM83.3545 1447.35C65.7055 1447.35 51.3984 1461.65 51.3984 1479.3C51.3985 1496.95 65.7056 1511.26 83.3545 1511.26C101.003 1511.26 115.31 1496.95 115.311 1479.3C115.311 1461.65 101.003 1447.35 83.3545 1447.35Z" fill="url(#paint4_linear_2266_1593)"/>
<path d="M83.792 1407.95L83.792 1407.07L83.792 1407.07L83.792 1407.95ZM155.585 1479.74L156.46 1479.74L156.46 1479.74L155.585 1479.74ZM83.792 1551.53L83.792 1552.41H83.792V1551.53ZM12 1479.74L11.1245 1479.74V1479.74H12ZM83.3545 1447.35L83.3545 1446.47H83.3545V1447.35ZM51.3984 1479.3L50.5229 1479.3L50.5229 1479.3L51.3984 1479.3ZM83.3545 1511.26L83.3545 1512.14L83.3545 1512.14L83.3545 1511.26ZM115.311 1479.3L116.186 1479.3V1479.3H115.311ZM83.792 1407.95V1408.82C122.958 1408.82 154.709 1440.57 154.709 1479.74L155.585 1479.74L156.46 1479.74C156.46 1439.61 123.925 1407.07 83.792 1407.07V1407.95ZM155.585 1479.74H154.709C154.709 1518.91 122.958 1550.66 83.792 1550.66V1551.53V1552.41C123.925 1552.41 156.46 1519.87 156.46 1479.74H155.585ZM83.792 1551.53L83.792 1550.66C44.6259 1550.66 12.8755 1518.91 12.8755 1479.74H12H11.1245C11.1245 1519.87 43.6588 1552.41 83.792 1552.41L83.792 1551.53ZM12 1479.74L12.8755 1479.74C12.8757 1440.58 44.626 1408.82 83.792 1408.82L83.792 1407.95L83.792 1407.07C43.6589 1407.07 11.1246 1439.61 11.1245 1479.74L12 1479.74ZM83.3545 1447.35V1446.47C65.222 1446.47 50.5229 1461.17 50.5229 1479.3H51.3984H52.274C52.274 1462.14 66.189 1448.22 83.3545 1448.22V1447.35ZM51.3984 1479.3L50.5229 1479.3C50.523 1497.44 65.222 1512.14 83.3545 1512.14V1511.26V1510.38C66.1891 1510.38 52.274 1496.47 52.274 1479.3L51.3984 1479.3ZM83.3545 1511.26L83.3545 1512.14C101.487 1512.14 116.186 1497.44 116.186 1479.3L115.311 1479.3L114.435 1479.3C114.435 1496.47 100.52 1510.38 83.3545 1510.38L83.3545 1511.26ZM115.311 1479.3H116.186C116.186 1461.17 101.487 1446.47 83.3545 1446.47L83.3545 1447.35L83.3545 1448.22C100.52 1448.22 114.435 1462.14 114.435 1479.3H115.311Z" fill="white" mask="url(#path-8-inside-4_2266_1593)"/>
</g>
<g filter="url(#filter4_d_2266_1593)">
<mask id="path-10-inside-5_2266_1593" fill="white">
<path d="M957.994 8C972.258 8.00023 983.821 19.564 983.821 33.8281C983.821 48.092 972.258 59.655 957.994 59.6553C943.73 59.6553 932.166 48.0922 932.166 33.8281C932.166 19.5639 943.73 8 957.994 8Z"/>
</mask>
<path d="M957.994 8C972.258 8.00023 983.821 19.564 983.821 33.8281C983.821 48.092 972.258 59.655 957.994 59.6553C943.73 59.6553 932.166 48.0922 932.166 33.8281C932.166 19.5639 943.73 8 957.994 8Z" fill="url(#paint5_linear_2266_1593)"/>
<path d="M957.994 8L957.994 7.12448H957.994V8ZM983.821 33.8281L984.697 33.8281V33.8281H983.821ZM957.994 59.6553L957.994 60.5308L957.994 60.5308L957.994 59.6553ZM932.166 33.8281L931.291 33.8281L931.291 33.8281L932.166 33.8281ZM957.994 8L957.994 8.87552C971.775 8.87574 982.946 20.0475 982.946 33.8281H983.821H984.697C984.697 19.0805 972.742 7.12472 957.994 7.12448L957.994 8ZM983.821 33.8281L982.946 33.8281C982.946 47.6085 971.775 58.7795 957.994 58.7798L957.994 59.6553L957.994 60.5308C972.742 60.5306 984.697 48.5756 984.697 33.8281L983.821 33.8281ZM957.994 59.6553V58.7798C944.214 58.7798 933.042 47.6086 933.042 33.8281L932.166 33.8281L931.291 33.8281C931.291 48.5757 943.247 60.5308 957.994 60.5308V59.6553ZM932.166 33.8281H933.042C933.042 20.0474 944.213 8.87552 957.994 8.87552V8V7.12448C943.246 7.12448 931.291 19.0803 931.291 33.8281H932.166Z" fill="white" mask="url(#path-10-inside-5_2266_1593)"/>
</g>
<g filter="url(#filter5_d_2266_1593)">
<mask id="path-12-inside-6_2266_1593" fill="white">
<path d="M145.516 1020.1C159.78 1020.1 171.343 1031.66 171.343 1045.92C171.343 1060.19 159.78 1071.75 145.516 1071.75C131.252 1071.75 119.688 1060.19 119.688 1045.92C119.688 1031.66 131.251 1020.1 145.516 1020.1Z"/>
</mask>
<path d="M145.516 1020.1C159.78 1020.1 171.343 1031.66 171.343 1045.92C171.343 1060.19 159.78 1071.75 145.516 1071.75C131.252 1071.75 119.688 1060.19 119.688 1045.92C119.688 1031.66 131.251 1020.1 145.516 1020.1Z" fill="url(#paint6_linear_2266_1593)"/>
<path d="M145.516 1020.1L145.516 1019.22H145.516V1020.1ZM171.343 1045.92L172.218 1045.92V1045.92H171.343ZM145.516 1071.75L145.516 1072.63L145.516 1072.63L145.516 1071.75ZM119.688 1045.92L118.812 1045.92L118.812 1045.92L119.688 1045.92ZM145.516 1020.1L145.516 1020.97C159.296 1020.97 170.467 1032.14 170.467 1045.92H171.343H172.218C172.218 1031.18 160.263 1019.22 145.516 1019.22L145.516 1020.1ZM171.343 1045.92L170.467 1045.92C170.467 1059.7 159.296 1070.88 145.516 1070.88L145.516 1071.75L145.516 1072.63C160.263 1072.63 172.218 1060.67 172.218 1045.92L171.343 1045.92ZM145.516 1071.75V1070.88C131.735 1070.88 120.563 1059.7 120.563 1045.92L119.688 1045.92L118.812 1045.92C118.812 1060.67 130.768 1072.63 145.516 1072.63V1071.75ZM119.688 1045.92H120.563C120.563 1032.14 131.735 1020.97 145.516 1020.97V1020.1V1019.22C130.768 1019.22 118.812 1031.18 118.812 1045.92H119.688Z" fill="white" mask="url(#path-12-inside-6_2266_1593)"/>
</g>
<g filter="url(#filter6_d_2266_1593)">
<mask id="path-14-inside-7_2266_1593" fill="white">
<path d="M1126.09 1406.2C1140.36 1406.2 1151.92 1417.76 1151.92 1432.03C1151.92 1446.29 1140.36 1457.85 1126.09 1457.85C1111.83 1457.85 1100.27 1446.29 1100.27 1432.03C1100.27 1417.76 1111.83 1406.2 1126.09 1406.2Z"/>
</mask>
<path d="M1126.09 1406.2C1140.36 1406.2 1151.92 1417.76 1151.92 1432.03C1151.92 1446.29 1140.36 1457.85 1126.09 1457.85C1111.83 1457.85 1100.27 1446.29 1100.27 1432.03C1100.27 1417.76 1111.83 1406.2 1126.09 1406.2Z" fill="url(#paint7_linear_2266_1593)"/>
<path d="M1126.09 1406.2L1126.09 1405.32H1126.09V1406.2ZM1151.92 1432.03L1152.8 1432.03V1432.03H1151.92ZM1126.09 1457.85L1126.09 1458.73L1126.09 1458.73L1126.09 1457.85ZM1100.27 1432.03L1099.39 1432.03L1099.39 1432.03L1100.27 1432.03ZM1126.09 1406.2L1126.09 1407.07C1139.87 1407.07 1151.05 1418.25 1151.05 1432.03H1151.92H1152.8C1152.8 1417.28 1140.84 1405.32 1126.09 1405.32L1126.09 1406.2ZM1151.92 1432.03L1151.05 1432.03C1151.05 1445.81 1139.87 1456.98 1126.09 1456.98L1126.09 1457.85L1126.09 1458.73C1140.84 1458.73 1152.8 1446.77 1152.8 1432.03L1151.92 1432.03ZM1126.09 1457.85V1456.98C1112.31 1456.98 1101.14 1445.81 1101.14 1432.03L1100.27 1432.03L1099.39 1432.03C1099.39 1446.77 1111.35 1458.73 1126.09 1458.73V1457.85ZM1100.27 1432.03H1101.14C1101.14 1418.25 1112.31 1407.07 1126.09 1407.07V1406.2V1405.32C1111.35 1405.32 1099.39 1417.28 1099.39 1432.03H1100.27Z" fill="white" mask="url(#path-14-inside-7_2266_1593)"/>
</g>
<g filter="url(#filter7_d_2266_1593)">
<mask id="path-16-inside-8_2266_1593" fill="white">
<path d="M711.975 1407.95C726.239 1407.95 737.802 1419.51 737.802 1433.78C737.802 1448.04 726.239 1459.6 711.975 1459.6C697.711 1459.6 686.147 1448.04 686.146 1433.78C686.146 1419.51 697.71 1407.95 711.975 1407.95Z"/>
</mask>
<path d="M711.975 1407.95C726.239 1407.95 737.802 1419.51 737.802 1433.78C737.802 1448.04 726.239 1459.6 711.975 1459.6C697.711 1459.6 686.147 1448.04 686.146 1433.78C686.146 1419.51 697.71 1407.95 711.975 1407.95Z" fill="url(#paint8_linear_2266_1593)"/>
<path d="M711.975 1407.95L711.975 1407.07H711.975V1407.95ZM737.802 1433.78L738.677 1433.78V1433.78H737.802ZM711.975 1459.6L711.975 1460.48L711.975 1460.48L711.975 1459.6ZM686.146 1433.78L685.271 1433.78L685.271 1433.78L686.146 1433.78ZM711.975 1407.95L711.975 1408.82C725.755 1408.82 736.926 1420 736.926 1433.78H737.802H738.677C738.677 1419.03 726.722 1407.07 711.975 1407.07L711.975 1407.95ZM737.802 1433.78L736.926 1433.78C736.926 1447.56 725.755 1458.73 711.975 1458.73L711.975 1459.6L711.975 1460.48C726.722 1460.48 738.677 1448.52 738.677 1433.78L737.802 1433.78ZM711.975 1459.6V1458.73C698.194 1458.73 687.022 1447.56 687.022 1433.78L686.146 1433.78L685.271 1433.78C685.271 1448.52 697.227 1460.48 711.975 1460.48V1459.6ZM686.146 1433.78H687.022C687.022 1420 698.194 1408.82 711.975 1408.82V1407.95V1407.07C697.227 1407.07 685.271 1419.03 685.271 1433.78H686.146Z" fill="white" mask="url(#path-16-inside-8_2266_1593)"/>
</g>
<g filter="url(#filter8_d_2266_1593)">
<mask id="path-18-inside-9_2266_1593" fill="white">
<path d="M184.913 153.336C206.43 153.336 223.874 170.778 223.874 192.296C223.874 213.813 206.43 231.256 184.913 231.256C163.396 231.256 145.953 213.813 145.953 192.296C145.953 170.779 163.396 153.336 184.913 153.336ZM184.676 174.716C175.098 174.716 167.334 182.481 167.334 192.058C167.334 201.636 175.098 209.401 184.676 209.401C194.254 209.401 202.018 201.636 202.018 192.058C202.017 182.481 194.254 174.716 184.676 174.716Z"/>
</mask>
<path d="M184.913 153.336C206.43 153.336 223.874 170.778 223.874 192.296C223.874 213.813 206.43 231.256 184.913 231.256C163.396 231.256 145.953 213.813 145.953 192.296C145.953 170.779 163.396 153.336 184.913 153.336ZM184.676 174.716C175.098 174.716 167.334 182.481 167.334 192.058C167.334 201.636 175.098 209.401 184.676 209.401C194.254 209.401 202.018 201.636 202.018 192.058C202.017 182.481 194.254 174.716 184.676 174.716Z" fill="url(#paint9_linear_2266_1593)"/>
<path d="M184.913 153.336L184.913 152.46L184.913 152.46L184.913 153.336ZM223.874 192.296L224.75 192.296L224.75 192.295L223.874 192.296ZM184.913 231.256L184.913 232.132H184.913V231.256ZM145.953 192.296L145.078 192.295V192.296H145.953ZM184.676 174.716L184.676 173.841L184.676 173.841L184.676 174.716ZM167.334 192.058L166.458 192.058V192.058H167.334ZM184.676 209.401L184.676 210.276H184.676V209.401ZM202.018 192.058L202.893 192.058L202.893 192.058L202.018 192.058ZM184.913 153.336V154.211C205.947 154.211 222.998 171.262 222.999 192.296L223.874 192.296L224.75 192.295C224.749 170.295 206.914 152.46 184.913 152.46V153.336ZM223.874 192.296H222.999C222.999 213.329 205.947 230.381 184.913 230.381V231.256V232.132C206.914 232.132 224.75 214.296 224.75 192.296H223.874ZM184.913 231.256L184.913 230.381C163.88 230.381 146.829 213.329 146.829 192.296H145.953H145.078C145.078 214.296 162.912 232.132 184.913 232.132L184.913 231.256ZM145.953 192.296L146.829 192.296C146.829 171.262 163.88 154.211 184.913 154.211L184.913 153.336L184.913 152.46C162.913 152.46 145.078 170.295 145.078 192.295L145.953 192.296ZM184.676 174.716L184.676 173.841C174.615 173.841 166.459 181.997 166.458 192.058L167.334 192.058L168.209 192.058C168.21 182.964 175.582 175.592 184.676 175.592L184.676 174.716ZM167.334 192.058H166.458C166.458 202.119 174.614 210.276 184.676 210.276L184.676 209.401L184.676 208.525C175.582 208.525 168.209 201.152 168.209 192.058H167.334ZM184.676 209.401V210.276C194.737 210.276 202.893 202.119 202.893 192.058H202.018H201.142C201.142 201.153 193.77 208.525 184.676 208.525V209.401ZM202.018 192.058L202.893 192.058C202.893 181.997 194.737 173.841 184.676 173.841V174.716V175.592C193.77 175.592 201.142 182.964 201.142 192.058L202.018 192.058Z" fill="white" mask="url(#path-18-inside-9_2266_1593)"/>
</g>
<g filter="url(#filter9_d_2266_1593)">
<mask id="path-20-inside-10_2266_1593" fill="white">
<path d="M1177.75 1027.1C1199.27 1027.1 1216.71 1044.54 1216.71 1066.06C1216.71 1087.58 1199.27 1105.02 1177.75 1105.02C1156.23 1105.02 1138.79 1087.58 1138.79 1066.06C1138.79 1044.54 1156.23 1027.1 1177.75 1027.1ZM1177.51 1048.48C1167.93 1048.48 1160.17 1056.24 1160.17 1065.82C1160.17 1075.4 1167.93 1083.17 1177.51 1083.17C1187.09 1083.17 1194.85 1075.4 1194.85 1065.82C1194.85 1056.24 1187.09 1048.48 1177.51 1048.48Z"/>
</mask>
<path d="M1177.75 1027.1C1199.27 1027.1 1216.71 1044.54 1216.71 1066.06C1216.71 1087.58 1199.27 1105.02 1177.75 1105.02C1156.23 1105.02 1138.79 1087.58 1138.79 1066.06C1138.79 1044.54 1156.23 1027.1 1177.75 1027.1ZM1177.51 1048.48C1167.93 1048.48 1160.17 1056.24 1160.17 1065.82C1160.17 1075.4 1167.93 1083.17 1177.51 1083.17C1187.09 1083.17 1194.85 1075.4 1194.85 1065.82C1194.85 1056.24 1187.09 1048.48 1177.51 1048.48Z" fill="url(#paint10_linear_2266_1593)"/>
<path d="M1177.75 1027.1L1177.75 1026.22L1177.75 1026.22L1177.75 1027.1ZM1216.71 1066.06L1217.59 1066.06L1217.59 1066.06L1216.71 1066.06ZM1177.75 1105.02L1177.75 1105.9H1177.75V1105.02ZM1138.79 1066.06L1137.91 1066.06V1066.06H1138.79ZM1177.51 1048.48L1177.51 1047.61L1177.51 1047.61L1177.51 1048.48ZM1160.17 1065.82L1159.29 1065.82V1065.82H1160.17ZM1177.51 1083.17L1177.51 1084.04H1177.51V1083.17ZM1194.85 1065.82L1195.73 1065.82L1195.73 1065.82L1194.85 1065.82ZM1177.75 1027.1V1027.98C1198.78 1027.98 1215.83 1045.03 1215.83 1066.06L1216.71 1066.06L1217.59 1066.06C1217.59 1044.06 1199.75 1026.22 1177.75 1026.22V1027.1ZM1216.71 1066.06H1215.83C1215.83 1087.09 1198.78 1104.15 1177.75 1104.15V1105.02V1105.9C1199.75 1105.9 1217.59 1088.06 1217.59 1066.06H1216.71ZM1177.75 1105.02L1177.75 1104.15C1156.72 1104.14 1139.66 1087.09 1139.66 1066.06H1138.79H1137.91C1137.91 1088.06 1155.75 1105.9 1177.75 1105.9L1177.75 1105.02ZM1138.79 1066.06L1139.66 1066.06C1139.66 1045.03 1156.72 1027.98 1177.75 1027.98L1177.75 1027.1L1177.75 1026.22C1155.75 1026.22 1137.91 1044.06 1137.91 1066.06L1138.79 1066.06ZM1177.51 1048.48L1177.51 1047.61C1167.45 1047.61 1159.29 1055.76 1159.29 1065.82L1160.17 1065.82L1161.05 1065.82C1161.05 1056.73 1168.42 1049.36 1177.51 1049.36L1177.51 1048.48ZM1160.17 1065.82H1159.29C1159.29 1075.88 1167.45 1084.04 1177.51 1084.04L1177.51 1083.17L1177.51 1082.29C1168.42 1082.29 1161.05 1074.92 1161.05 1065.82H1160.17ZM1177.51 1083.17V1084.04C1187.57 1084.04 1195.73 1075.88 1195.73 1065.82H1194.85H1193.98C1193.98 1074.92 1186.61 1082.29 1177.51 1082.29V1083.17ZM1194.85 1065.82L1195.73 1065.82C1195.73 1055.76 1187.57 1047.61 1177.51 1047.61V1048.48V1049.36C1186.61 1049.36 1193.98 1056.73 1193.98 1065.82L1194.85 1065.82Z" fill="white" mask="url(#path-20-inside-10_2266_1593)"/>
</g>
<defs>
<filter id="filter0_d_2266_1593" x="1014.55" y="74.6267" width="219.58" height="219.58" filterUnits="userSpaceOnUse" color-interpolation-filters="sRGB">
<feFlood flood-opacity="0" result="BackgroundImageFix"/>
<feColorMatrix in="SourceAlpha" type="matrix" values="0 0 0 0 0 0 0 0 0 0 0 0 0 0 0 0 0 0 127 0" result="hardAlpha"/>
<feOffset dy="3.50206"/>
<feGaussianBlur stdDeviation="5.64707"/>
<feComposite in2="hardAlpha" operator="out"/>
<feColorMatrix type="matrix" values="0 0 0 0 0.386625 0 0 0 0 0.458185 0 0 0 0 1 0 0 0 0.25 0"/>
<feBlend mode="normal" in2="BackgroundImageFix" result="effect1_dropShadow_2266_1593"/>
<feBlend mode="normal" in="SourceGraphic" in2="effect1_dropShadow_2266_1593" result="shape"/>
</filter>
<filter id="filter1_d_2266_1593" x="41.8543" y="559.662" width="166.174" height="166.173" filterUnits="userSpaceOnUse" color-interpolation-filters="sRGB">
<feFlood flood-opacity="0" result="BackgroundImageFix"/>
<feColorMatrix in="SourceAlpha" type="matrix" values="0 0 0 0 0 0 0 0 0 0 0 0 0 0 0 0 0 0 127 0" result="hardAlpha"/>
<feOffset dy="3.50206"/>
<feGaussianBlur stdDeviation="5.64707"/>
<feComposite in2="hardAlpha" operator="out"/>
<feColorMatrix type="matrix" values="0 0 0 0 0.386625 0 0 0 0 0.458185 0 0 0 0 1 0 0 0 0.25 0"/>
<feBlend mode="normal" in2="BackgroundImageFix" result="effect1_dropShadow_2266_1593"/>
<feBlend mode="normal" in="SourceGraphic" in2="effect1_dropShadow_2266_1593" result="shape"/>
</filter>
<filter id="filter2_d_2266_1593" x="900.735" y="631.454" width="166.172" height="166.173" filterUnits="userSpaceOnUse" color-interpolation-filters="sRGB">
<feFlood flood-opacity="0" result="BackgroundImageFix"/>
<feColorMatrix in="SourceAlpha" type="matrix" values="0 0 0 0 0 0 0 0 0 0 0 0 0 0 0 0 0 0 127 0" result="hardAlpha"/>
<feOffset dy="3.50206"/>
<feGaussianBlur stdDeviation="5.64707"/>
<feComposite in2="hardAlpha" operator="out"/>
<feColorMatrix type="matrix" values="0 0 0 0 0.386625 0 0 0 0 0.458185 0 0 0 0 1 0 0 0 0.25 0"/>
<feBlend mode="normal" in2="BackgroundImageFix" result="effect1_dropShadow_2266_1593"/>
<feBlend mode="normal" in="SourceGraphic" in2="effect1_dropShadow_2266_1593" result="shape"/>
</filter>
<filter id="filter3_d_2266_1593" x="0.705852" y="1400.16" width="166.174" height="166.173" filterUnits="userSpaceOnUse" color-interpolation-filters="sRGB">
<feFlood flood-opacity="0" result="BackgroundImageFix"/>
<feColorMatrix in="SourceAlpha" type="matrix" values="0 0 0 0 0 0 0 0 0 0 0 0 0 0 0 0 0 0 127 0" result="hardAlpha"/>
<feOffset dy="3.50206"/>
<feGaussianBlur stdDeviation="5.64707"/>
<feComposite in2="hardAlpha" operator="out"/>
<feColorMatrix type="matrix" values="0 0 0 0 0.386625 0 0 0 0 0.458185 0 0 0 0 1 0 0 0 0.25 0"/>
<feBlend mode="normal" in2="BackgroundImageFix" result="effect1_dropShadow_2266_1593"/>
<feBlend mode="normal" in="SourceGraphic" in2="effect1_dropShadow_2266_1593" result="shape"/>
</filter>
<filter id="filter4_d_2266_1593" x="920.872" y="0.207913" width="74.2426" height="74.2436" filterUnits="userSpaceOnUse" color-interpolation-filters="sRGB">
<feFlood flood-opacity="0" result="BackgroundImageFix"/>
<feColorMatrix in="SourceAlpha" type="matrix" values="0 0 0 0 0 0 0 0 0 0 0 0 0 0 0 0 0 0 127 0" result="hardAlpha"/>
<feOffset dy="3.50206"/>
<feGaussianBlur stdDeviation="5.64707"/>
<feComposite in2="hardAlpha" operator="out"/>
<feColorMatrix type="matrix" values="0 0 0 0 0.386625 0 0 0 0 0.458185 0 0 0 0 1 0 0 0 0.25 0"/>
<feBlend mode="normal" in2="BackgroundImageFix" result="effect1_dropShadow_2266_1593"/>
<feBlend mode="normal" in="SourceGraphic" in2="effect1_dropShadow_2266_1593" result="shape"/>
</filter>
<filter id="filter5_d_2266_1593" x="108.393" y="1012.3" width="74.2445" height="74.2436" filterUnits="userSpaceOnUse" color-interpolation-filters="sRGB">
<feFlood flood-opacity="0" result="BackgroundImageFix"/>
<feColorMatrix in="SourceAlpha" type="matrix" values="0 0 0 0 0 0 0 0 0 0 0 0 0 0 0 0 0 0 127 0" result="hardAlpha"/>
<feOffset dy="3.50206"/>
<feGaussianBlur stdDeviation="5.64707"/>
<feComposite in2="hardAlpha" operator="out"/>
<feColorMatrix type="matrix" values="0 0 0 0 0.386625 0 0 0 0 0.458185 0 0 0 0 1 0 0 0 0.25 0"/>
<feBlend mode="normal" in2="BackgroundImageFix" result="effect1_dropShadow_2266_1593"/>
<feBlend mode="normal" in="SourceGraphic" in2="effect1_dropShadow_2266_1593" result="shape"/>
</filter>
<filter id="filter6_d_2266_1593" x="1088.97" y="1398.41" width="74.2445" height="74.2436" filterUnits="userSpaceOnUse" color-interpolation-filters="sRGB">
<feFlood flood-opacity="0" result="BackgroundImageFix"/>
<feColorMatrix in="SourceAlpha" type="matrix" values="0 0 0 0 0 0 0 0 0 0 0 0 0 0 0 0 0 0 127 0" result="hardAlpha"/>
<feOffset dy="3.50206"/>
<feGaussianBlur stdDeviation="5.64707"/>
<feComposite in2="hardAlpha" operator="out"/>
<feColorMatrix type="matrix" values="0 0 0 0 0.386625 0 0 0 0 0.458185 0 0 0 0 1 0 0 0 0.25 0"/>
<feBlend mode="normal" in2="BackgroundImageFix" result="effect1_dropShadow_2266_1593"/>
<feBlend mode="normal" in="SourceGraphic" in2="effect1_dropShadow_2266_1593" result="shape"/>
</filter>
<filter id="filter7_d_2266_1593" x="674.852" y="1400.16" width="74.2426" height="74.2436" filterUnits="userSpaceOnUse" color-interpolation-filters="sRGB">
<feFlood flood-opacity="0" result="BackgroundImageFix"/>
<feColorMatrix in="SourceAlpha" type="matrix" values="0 0 0 0 0 0 0 0 0 0 0 0 0 0 0 0 0 0 127 0" result="hardAlpha"/>
<feOffset dy="3.50206"/>
<feGaussianBlur stdDeviation="5.64707"/>
<feComposite in2="hardAlpha" operator="out"/>
<feColorMatrix type="matrix" values="0 0 0 0 0.386625 0 0 0 0 0.458185 0 0 0 0 1 0 0 0 0.25 0"/>
<feBlend mode="normal" in2="BackgroundImageFix" result="effect1_dropShadow_2266_1593"/>
<feBlend mode="normal" in="SourceGraphic" in2="effect1_dropShadow_2266_1593" result="shape"/>
</filter>
<filter id="filter8_d_2266_1593" x="134.659" y="145.543" width="100.51" height="100.509" filterUnits="userSpaceOnUse" color-interpolation-filters="sRGB">
<feFlood flood-opacity="0" result="BackgroundImageFix"/>
<feColorMatrix in="SourceAlpha" type="matrix" values="0 0 0 0 0 0 0 0 0 0 0 0 0 0 0 0 0 0 127 0" result="hardAlpha"/>
<feOffset dy="3.50206"/>
<feGaussianBlur stdDeviation="5.64707"/>
<feComposite in2="hardAlpha" operator="out"/>
<feColorMatrix type="matrix" values="0 0 0 0 0.386625 0 0 0 0 0.458185 0 0 0 0 1 0 0 0 0.25 0"/>
<feBlend mode="normal" in2="BackgroundImageFix" result="effect1_dropShadow_2266_1593"/>
<feBlend mode="normal" in="SourceGraphic" in2="effect1_dropShadow_2266_1593" result="shape"/>
</filter>
<filter id="filter9_d_2266_1593" x="1127.49" y="1019.31" width="100.51" height="100.509" filterUnits="userSpaceOnUse" color-interpolation-filters="sRGB">
<feFlood flood-opacity="0" result="BackgroundImageFix"/>
<feColorMatrix in="SourceAlpha" type="matrix" values="0 0 0 0 0 0 0 0 0 0 0 0 0 0 0 0 0 0 127 0" result="hardAlpha"/>
<feOffset dy="3.50206"/>
<feGaussianBlur stdDeviation="5.64707"/>
<feComposite in2="hardAlpha" operator="out"/>
<feColorMatrix type="matrix" values="0 0 0 0 0.386625 0 0 0 0 0.458185 0 0 0 0 1 0 0 0 0.25 0"/>
<feBlend mode="normal" in2="BackgroundImageFix" result="effect1_dropShadow_2266_1593"/>
<feBlend mode="normal" in="SourceGraphic" in2="effect1_dropShadow_2266_1593" result="shape"/>
</filter>
<linearGradient id="paint0_linear_2266_1593" x1="626.523" y1="253.618" x2="626.523" y2="617.833" gradientUnits="userSpaceOnUse">
<stop stop-color="white"/>
<stop offset="1" stop-color="#819EFF"/>
</linearGradient>
<linearGradient id="paint1_linear_2266_1593" x1="1124.34" y1="82.4188" x2="1124.34" y2="279.41" gradientUnits="userSpaceOnUse">
<stop stop-color="#F2F5FF"/>
<stop offset="1" stop-color="#90A9FF"/>
</linearGradient>
<linearGradient id="paint2_linear_2266_1593" x1="124.941" y1="567.454" x2="124.941" y2="711.039" gradientUnits="userSpaceOnUse">
<stop stop-color="#F2F5FF"/>
<stop offset="1" stop-color="#90A9FF"/>
</linearGradient>
<linearGradient id="paint3_linear_2266_1593" x1="983.822" y1="639.247" x2="983.822" y2="782.832" gradientUnits="userSpaceOnUse">
<stop stop-color="#F2F5FF"/>
<stop offset="1" stop-color="#90A9FF"/>
</linearGradient>
<linearGradient id="paint4_linear_2266_1593" x1="83.7925" y1="1407.95" x2="83.7925" y2="1551.53" gradientUnits="userSpaceOnUse">
<stop stop-color="#F2F5FF"/>
<stop offset="1" stop-color="#90A9FF"/>
</linearGradient>
<linearGradient id="paint5_linear_2266_1593" x1="957.994" y1="8" x2="957.994" y2="59.6554" gradientUnits="userSpaceOnUse">
<stop stop-color="#F2F5FF"/>
<stop offset="1" stop-color="#90A9FF"/>
</linearGradient>
<linearGradient id="paint6_linear_2266_1593" x1="145.515" y1="1020.1" x2="145.515" y2="1071.75" gradientUnits="userSpaceOnUse">
<stop stop-color="#F2F5FF"/>
<stop offset="1" stop-color="#90A9FF"/>
</linearGradient>
<linearGradient id="paint7_linear_2266_1593" x1="1126.09" y1="1406.2" x2="1126.09" y2="1457.85" gradientUnits="userSpaceOnUse">
<stop stop-color="#F2F5FF"/>
<stop offset="1" stop-color="#90A9FF"/>
</linearGradient>
<linearGradient id="paint8_linear_2266_1593" x1="711.974" y1="1407.95" x2="711.974" y2="1459.6" gradientUnits="userSpaceOnUse">
<stop stop-color="#F2F5FF"/>
<stop offset="1" stop-color="#90A9FF"/>
</linearGradient>
<linearGradient id="paint9_linear_2266_1593" x1="184.914" y1="153.336" x2="184.914" y2="231.256" gradientUnits="userSpaceOnUse">
<stop stop-color="#F2F5FF"/>
<stop offset="1" stop-color="#90A9FF"/>
</linearGradient>
<linearGradient id="paint10_linear_2266_1593" x1="1177.75" y1="1027.1" x2="1177.75" y2="1105.02" gradientUnits="userSpaceOnUse">
<stop stop-color="#F2F5FF"/>
<stop offset="1" stop-color="#90A9FF"/>
</linearGradient>
</defs>
</svg>
