<svg width="65" height="65" viewBox="0 0 65 65" fill="none" xmlns="http://www.w3.org/2000/svg">
<g filter="url(#filter0_d_1018_252)">
<path d="M12.7748 28.1546C12.7739 31.5994 13.681 34.963 15.4059 37.9277L12.6099 48.0572L23.0572 45.3391C25.9468 46.9 29.1843 47.7178 32.4744 47.7181H32.483C43.344 47.7181 52.1851 38.9487 52.1898 28.17C52.1918 22.9469 50.1438 18.0355 46.4227 14.3404C42.7023 10.6457 37.7542 8.60981 32.4822 8.60742C21.6199 8.60742 12.7795 17.3763 12.775 28.1546" fill="url(#paint0_linear_1018_252)"/>
<path d="M12.0713 28.1482C12.0701 31.7169 13.0098 35.2008 14.7962 38.2717L11.8999 48.7644L22.7218 45.9489C25.7036 47.562 29.0608 48.4125 32.4769 48.4138H32.4857C43.7364 48.4138 52.8951 39.3289 52.8999 28.1644C52.9018 22.7537 50.7801 17.6657 46.9261 13.8382C43.0716 10.0112 37.9466 7.90213 32.4857 7.8999C21.2332 7.8999 12.0758 16.9835 12.0713 28.1482ZM18.5161 37.7428L18.112 37.1064C16.4134 34.4264 15.5169 31.3295 15.5182 28.1495C15.5217 18.8696 23.1329 11.3197 32.4922 11.3197C37.0246 11.3217 41.2841 13.0748 44.4879 16.2556C47.6915 19.4368 49.4543 23.6655 49.4532 28.1631C49.449 37.4429 41.8376 44.9938 32.4857 44.9938H32.479C29.434 44.9922 26.4475 44.1808 23.8431 42.6474L23.2233 42.2827L16.8013 43.9534L18.5161 37.7428Z" fill="url(#paint1_linear_1018_252)"/>
<path d="M27.3835 19.6832C27.0014 18.8404 26.5992 18.8234 26.2359 18.8087C25.9383 18.7959 25.5981 18.7969 25.2583 18.7969C24.9181 18.7969 24.3654 18.9239 23.8982 19.43C23.4306 19.9366 22.1128 21.1609 22.1128 23.6509C22.1128 26.141 23.9407 28.5476 24.1955 28.8856C24.4506 29.223 27.7242 34.4964 32.9088 36.5251C37.2176 38.211 38.0945 37.8757 39.0296 37.7912C39.9649 37.7069 42.0476 36.5672 42.4725 35.3854C42.8977 34.2037 42.8977 33.1908 42.7702 32.9791C42.6427 32.7682 42.3026 32.6415 41.7925 32.3885C41.2824 32.1356 38.7745 30.911 38.307 30.742C37.8393 30.5733 37.4993 30.489 37.1592 30.9958C36.819 31.5018 35.8422 32.6415 35.5445 32.9791C35.247 33.3174 34.9493 33.3595 34.4394 33.1064C33.929 32.8524 32.2862 32.3186 30.3373 30.5946C28.8209 29.253 27.7972 27.5963 27.4996 27.0895C27.2021 26.5836 27.4678 26.3093 27.7235 26.0571C27.9527 25.8303 28.2338 25.4661 28.4891 25.1706C28.7434 24.8751 28.8283 24.6642 28.9984 24.3266C29.1686 23.9888 29.0834 23.6932 28.9561 23.4401C28.8283 23.1869 27.8371 20.6838 27.3835 19.6832Z" fill="white"/>
</g>
<defs>
<filter id="filter0_d_1018_252" x="-9.72748e-05" y="-9.72748e-05" width="64.8" height="64.8" filterUnits="userSpaceOnUse" color-interpolation-filters="sRGB">
<feFlood flood-opacity="0" result="BackgroundImageFix"/>
<feColorMatrix in="SourceAlpha" type="matrix" values="0 0 0 0 0 0 0 0 0 0 0 0 0 0 0 0 0 0 127 0" result="hardAlpha"/>
<feOffset dy="4"/>
<feGaussianBlur stdDeviation="5.95"/>
<feComposite in2="hardAlpha" operator="out"/>
<feColorMatrix type="matrix" values="0 0 0 0 0 0 0 0 0 0 0 0 0 0 0 0 0 0 0.5 0"/>
<feBlend mode="normal" in2="BackgroundImageFix" result="effect1_dropShadow_1018_252"/>
<feBlend mode="normal" in="SourceGraphic" in2="effect1_dropShadow_1018_252" result="shape"/>
</filter>
<linearGradient id="paint0_linear_1018_252" x1="1991.6" y1="3953.59" x2="1991.6" y2="8.60742" gradientUnits="userSpaceOnUse">
<stop stop-color="#1FAF38"/>
<stop offset="1" stop-color="#60D669"/>
</linearGradient>
<linearGradient id="paint1_linear_1018_252" x1="2061.9" y1="4094.34" x2="2061.9" y2="7.8999" gradientUnits="userSpaceOnUse">
<stop stop-color="#F9F9F9"/>
<stop offset="1" stop-color="white"/>
</linearGradient>
</defs>
</svg>
